999
FreeCAD v0.21 33771 (Git)
  0
SECTION
  2
HEADER
  9
$ACADVER
  1
AC1014
  9
$ACADMAINTVER
 70
     9
  9
$DWGCODEPAGE
  3
ANSI_1252
  9
$TEXTSTYLE
  7
STANDARD
  9
$DIMSTYLE
  2
STANDARD
  9
$DIMTXSTY
  7
STANDARD
  9
$CMLSTYLE
  2
STANDARD
  9
$LUNITS
 70
2
  9
$INSUNITS
 70
4
  9
$PEXTMAX
 10
50
 20
50
 30
50
  9
$PEXTMIN
 10
0
 20
0
 30
0
  9
$HANDSEED
  5
FFFF
  0
ENDSEC
  0
SECTION
  2
CLASSES
  0
CLASS
  1
ACDBDICTIONARYWDFLT
  2
AcDbDictionaryWithDefault
  3
ObjectDBX Classes
 90
        0
280
     0
281
     0
  0
CLASS
  1
XRECORD
  2
AcDbXrecord
  3
ObjectDBX Classes
 90
        0
280
     0
281
     0
  0
CLASS
  1
LWPOLYLINE
  2
AcDbPolyline
  3
ObjectDBX Classes
 90
        0
280
     0
281
     1
  0
ENDSEC
  0
SECTION
  2
TABLES
  0
TABLE
  2
VPORT
  5
20
330
0
100
AcDbSymbolTable
 70
     1
  0
VPORT
  5
21
330
20
100
AcDbSymbolTableRecord
100
AcDbViewportTableRecord
  2
*ACTIVE
 70
     0
  0
ENDTAB
  0
TABLE
  2
LTYPE
  5
22
330
0
100
AcDbSymbolTable
 70
     1
  0
LTYPE
  5
23
330
21
100
AcDbSymbolTableRecord
100
AcDbLinetypeTableRecord
  2
BYBLOCK
 70
     0
  3

 72
    65
 73
     0
 40
0.0
  0
LTYPE
  5
24
330
21
100
AcDbSymbolTableRecord
100
AcDbLinetypeTableRecord
  2
BYLAYER
 70
     0
  3

 72
    65
 73
     0
 40
0.0
  0
LTYPE
  5
25
330
21
100
AcDbSymbolTableRecord
100
AcDbLinetypeTableRecord
  2
CONTINUOUS
 70
     0
  3
Solid line
 72
    65
 73
     0
 40
0.0
  0
ENDTAB
  0
TABLE
  2
LAYER
  5
A2B
330
0
100
AcDbSymbolTable
 70
37
  0
LAYER
  5
A2C
330
A2B
100
AcDbSymbolTableRecord
100
AcDbLayerTableRecord
  2
0
 70
   0
 62
   7
  6
CONTINUOUS
  0
LAYER
  5
A2D
330
A2B
100
AcDbSymbolTableRecord
100
AcDbLayerTableRecord
  2
none
 70
    0
 62
    7
  6
CONTINUOUS
  0
LAYER
  5
A2E
330
A2B
100
AcDbSymbolTableRecord
100
AcDbLayerTableRecord
  2
Circle
 70
    0
 62
    7
  6
CONTINUOUS
  0
LAYER
  5
A2F
330
A2B
100
AcDbSymbolTableRecord
100
AcDbLayerTableRecord
  2
Circle001
 70
    0
 62
    7
  6
CONTINUOUS
  0
LAYER
  5
A30
330
A2B
100
AcDbSymbolTableRecord
100
AcDbLayerTableRecord
  2
Circle002
 70
    0
 62
    7
  6
CONTINUOUS
  0
LAYER
  5
A31
330
A2B
100
AcDbSymbolTableRecord
100
AcDbLayerTableRecord
  2
Circle003
 70
    0
 62
    7
  6
CONTINUOUS
  0
LAYER
  5
A32
330
A2B
100
AcDbSymbolTableRecord
100
AcDbLayerTableRecord
  2
Path1530
 70
    0
 62
    7
  6
CONTINUOUS
  0
LAYER
  5
A33
330
A2B
100
AcDbSymbolTableRecord
100
AcDbLayerTableRecord
  2
Path1531
 70
    0
 62
    7
  6
CONTINUOUS
  0
LAYER
  5
A34
330
A2B
100
AcDbSymbolTableRecord
100
AcDbLayerTableRecord
  2
Path1532
 70
    0
 62
    7
  6
CONTINUOUS
  0
LAYER
  5
A35
330
A2B
100
AcDbSymbolTableRecord
100
AcDbLayerTableRecord
  2
Path1533
 70
    0
 62
    7
  6
CONTINUOUS
  0
LAYER
  5
A36
330
A2B
100
AcDbSymbolTableRecord
100
AcDbLayerTableRecord
  2
Path1534
 70
    0
 62
    7
  6
CONTINUOUS
  0
LAYER
  5
A37
330
A2B
100
AcDbSymbolTableRecord
100
AcDbLayerTableRecord
  2
Path1535
 70
    0
 62
    7
  6
CONTINUOUS
  0
LAYER
  5
A38
330
A2B
100
AcDbSymbolTableRecord
100
AcDbLayerTableRecord
  2
Path1536
 70
    0
 62
    7
  6
CONTINUOUS
  0
LAYER
  5
A39
330
A2B
100
AcDbSymbolTableRecord
100
AcDbLayerTableRecord
  2
Path1537
 70
    0
 62
    7
  6
CONTINUOUS
  0
LAYER
  5
A3A
330
A2B
100
AcDbSymbolTableRecord
100
AcDbLayerTableRecord
  2
Path1538
 70
    0
 62
    7
  6
CONTINUOUS
  0
LAYER
  5
A3B
330
A2B
100
AcDbSymbolTableRecord
100
AcDbLayerTableRecord
  2
Path1539
 70
    0
 62
    7
  6
CONTINUOUS
  0
LAYER
  5
A3C
330
A2B
100
AcDbSymbolTableRecord
100
AcDbLayerTableRecord
  2
Path1540
 70
    0
 62
    7
  6
CONTINUOUS
  0
LAYER
  5
A3D
330
A2B
100
AcDbSymbolTableRecord
100
AcDbLayerTableRecord
  2
Path1541
 70
    0
 62
    7
  6
CONTINUOUS
  0
LAYER
  5
A3E
330
A2B
100
AcDbSymbolTableRecord
100
AcDbLayerTableRecord
  2
Path1542
 70
    0
 62
    7
  6
CONTINUOUS
  0
LAYER
  5
A3F
330
A2B
100
AcDbSymbolTableRecord
100
AcDbLayerTableRecord
  2
Path1543
 70
    0
 62
    7
  6
CONTINUOUS
  0
LAYER
  5
A40
330
A2B
100
AcDbSymbolTableRecord
100
AcDbLayerTableRecord
  2
Path1544
 70
    0
 62
    7
  6
CONTINUOUS
  0
LAYER
  5
A41
330
A2B
100
AcDbSymbolTableRecord
100
AcDbLayerTableRecord
  2
Path1545
 70
    0
 62
    7
  6
CONTINUOUS
  0
LAYER
  5
A42
330
A2B
100
AcDbSymbolTableRecord
100
AcDbLayerTableRecord
  2
Path1546
 70
    0
 62
    7
  6
CONTINUOUS
  0
LAYER
  5
A43
330
A2B
100
AcDbSymbolTableRecord
100
AcDbLayerTableRecord
  2
Path1547
 70
    0
 62
    7
  6
CONTINUOUS
  0
LAYER
  5
A44
330
A2B
100
AcDbSymbolTableRecord
100
AcDbLayerTableRecord
  2
Path1548
 70
    0
 62
    7
  6
CONTINUOUS
  0
LAYER
  5
A45
330
A2B
100
AcDbSymbolTableRecord
100
AcDbLayerTableRecord
  2
Path1549
 70
    0
 62
    7
  6
CONTINUOUS
  0
LAYER
  5
A46
330
A2B
100
AcDbSymbolTableRecord
100
AcDbLayerTableRecord
  2
Path1550
 70
    0
 62
    7
  6
CONTINUOUS
  0
LAYER
  5
A47
330
A2B
100
AcDbSymbolTableRecord
100
AcDbLayerTableRecord
  2
Path1551
 70
    0
 62
    7
  6
CONTINUOUS
  0
LAYER
  5
A48
330
A2B
100
AcDbSymbolTableRecord
100
AcDbLayerTableRecord
  2
Path1552
 70
    0
 62
    7
  6
CONTINUOUS
  0
LAYER
  5
A49
330
A2B
100
AcDbSymbolTableRecord
100
AcDbLayerTableRecord
  2
Path1553
 70
    0
 62
    7
  6
CONTINUOUS
  0
LAYER
  5
A4A
330
A2B
100
AcDbSymbolTableRecord
100
AcDbLayerTableRecord
  2
Path1554
 70
    0
 62
    7
  6
CONTINUOUS
  0
LAYER
  5
A4B
330
A2B
100
AcDbSymbolTableRecord
100
AcDbLayerTableRecord
  2
Path1555
 70
    0
 62
    7
  6
CONTINUOUS
  0
LAYER
  5
A4C
330
A2B
100
AcDbSymbolTableRecord
100
AcDbLayerTableRecord
  2
Path1556
 70
    0
 62
    7
  6
CONTINUOUS
  0
LAYER
  5
A4D
330
A2B
100
AcDbSymbolTableRecord
100
AcDbLayerTableRecord
  2
Path1557
 70
    0
 62
    7
  6
CONTINUOUS
  0
LAYER
  5
A4E
330
A2B
100
AcDbSymbolTableRecord
100
AcDbLayerTableRecord
  2
Path1558
 70
    0
 62
    7
  6
CONTINUOUS
  0
LAYER
  5
A4F
330
A2B
100
AcDbSymbolTableRecord
100
AcDbLayerTableRecord
  2
Path1559
 70
    0
 62
    7
  6
CONTINUOUS
  0
LAYER
  5
A50
330
A2B
100
AcDbSymbolTableRecord
100
AcDbLayerTableRecord
  2
Path1560
 70
    0
 62
    7
  6
CONTINUOUS
  0
ENDTAB
  0
TABLE
  2
STYLE
  5
70
330
0
100
AcDbSymbolTable
 70
     2
  0
STYLE
  5
71
330
70
100
AcDbSymbolTableRecord
100
AcDbTextStyleTableRecord
  2
STANDARD
 70
     0
 40
0.0
 41
1.0
 50
0.0
 71
     0
 42
2.5
  3
arial.ttf
  4

  0
STYLE
  5
72
330
70
100
AcDbSymbolTableRecord
100
AcDbTextStyleTableRecord
  2
ANNOTATIVE
 70
     0
 40
0.0
 41
1.0
 50
0.0
 71
     0
 42
2.5
  3
arial.ttf
  4

  0
ENDTAB
  0
TABLE
  2
VIEW
  5
73
330
0
100
AcDbSymbolTable
 70
     0
  0
ENDTAB
  0
TABLE
  2
UCS
  5
74
330
0
100
AcDbSymbolTable
 70
     0
  0
ENDTAB
  0
TABLE
  2
APPID
  5
75
330
0
100
AcDbSymbolTable
 70
     2
  0
APPID
  5
76
330
75
100
AcDbSymbolTableRecord
100
AcDbRegAppTableRecord
  2
ACAD
 70
     0
  0
APPID
  5
77
330
75
100
AcDbSymbolTableRecord
100
AcDbRegAppTableRecord
  2
ACADANNOTATIVE
 70
     0
  0
ENDTAB
  0
TABLE
  2
DIMSTYLE
  5
78
330
0
100
AcDbSymbolTable
 70
     2
  0
DIMSTYLE
105
79
330
78
100
AcDbSymbolTableRecord
100
AcDbDimStyleTableRecord
  2
STANDARD
 70
     0
  3

  4

  5

  6

  7

 40
0.0
 41
2.5
 42
0.625
 43
3.75
 44
1.25
 45
0.0
 46
0.0
 47
0.0
 48
0.0
140
2.5
141
2.5
142
0.0
143
0.03937007874016
144
1.0
145
0.0
146
1.0
147
0.625
 71
     0
 72
     0
 73
     0
 74
     0
 75
     0
 76
     0
 77
     1
 78
     8
170
     0
171
     3
172
     1
173
     0
174
     0
175
     0
176
     0
177
     0
178
     0
270
     2
271
     2
272
     2
273
     2
274
     3
340
71
275
     0
280
     0
281
     0
282
     0
283
     0
284
     8
285
     0
286
     0
287
     3
288
     0
  0
ENDTAB
  0
TABLE
  2
BLOCK_RECORD
  5
A01
330
0
100
AcDbSymbolTable
  70
5
  0
BLOCK_RECORD
  5
A02
330
A01
100
AcDbSymbolTableRecord
100
AcDbBlockTableRecord
  2
*MODEL_SPACE
  0
BLOCK_RECORD
  5
A03
330
A01
100
AcDbSymbolTableRecord
100
AcDbBlockTableRecord
  2
*PAPER_SPACE
  0
ENDTAB
  0
ENDSEC
  0
SECTION
  2
BLOCKS
  0
BLOCK
  5
A04
330
A02
100
AcDbEntity
  8
0
100
AcDbBlockBegin
  2
*MODEL_SPACE
 70
   0
 10
0
 20
0
 30
0
  3
*MODEL_SPACE
  1
 
  0
ENDBLK
  5
A05
330
A02
100
AcDbEntity
  8
0
100
AcDbBlockEnd
  0
BLOCK
  5
A06
330
A03
100
AcDbEntity
 67
1
  8
0
100
AcDbBlockBegin
  2
*PAPER_SPACE
 70
   0
 10
0
 20
0
 30
0
  3
*PAPER_SPACE
  1
 
  0
ENDBLK
  5
A07
330
A03
100
AcDbEntity
 67
    1
  8
0
100
AcDbBlockEnd
  0
ENDSEC
  0
SECTION
  2
ENTITIES
  0
SPLINE
  5
A08
330
A02
100
AcDbEntity
  8
Circle
100
AcDbSpline
210
0
220
0
230
1
 70
9
 71
3
 72
41
 73
37
 74
0
 40
0
 40
0
 40
0
 40
0
 40
0.523599
 40
0.523599
 40
0.523599
 40
1.0472
 40
1.0472
 40
1.0472
 40
1.5708
 40
1.5708
 40
1.5708
 40
2.0944
 40
2.0944
 40
2.0944
 40
2.61799
 40
2.61799
 40
2.61799
 40
3.14159
 40
3.14159
 40
3.14159
 40
3.66519
 40
3.66519
 40
3.66519
 40
4.18879
 40
4.18879
 40
4.18879
 40
4.71239
 40
4.71239
 40
4.71239
 40
5.23599
 40
5.23599
 40
5.23599
 40
5.75959
 40
5.75959
 40
5.75959
 40
6.28319
 40
6.28319
 40
6.28319
 40
6.28319
 10
195.588
 20
-242.965
 30
0
 10
195.589
 20
-242.533
 30
0
 10
195.492
 20
-242.039
 30
0
 10
195.242
 20
-241.566
 30
0
 10
194.996
 20
-241.094
 30
0
 10
194.591
 20
-240.654
 30
0
 10
194.088
 20
-240.367
 30
0
 10
193.588
 20
-240.075
 30
0
 10
193.005
 20
-239.944
 30
0
 10
192.473
 20
-239.967
 30
0
 10
191.938
 20
-239.987
 30
0
 10
191.461
 20
-240.15
 30
0
 10
191.088
 20
-240.367
 30
0
 10
190.714
 20
-240.582
 30
0
 10
190.334
 20
-240.913
 30
0
 10
190.05
 20
-241.366
 30
0
 10
189.764
 20
-241.815
 30
0
 10
189.586
 20
-242.386
 30
0
 10
189.588
 20
-242.965
 30
0
 10
189.586
 20
-243.544
 30
0
 10
189.764
 20
-244.115
 30
0
 10
190.05
 20
-244.564
 30
0
 10
190.334
 20
-245.017
 30
0
 10
190.714
 20
-245.348
 30
0
 10
191.088
 20
-245.563
 30
0
 10
191.461
 20
-245.779
 30
0
 10
191.938
 20
-245.943
 30
0
 10
192.473
 20
-245.963
 30
0
 10
193.005
 20
-245.986
 30
0
 10
193.588
 20
-245.854
 30
0
 10
194.088
 20
-245.563
 30
0
 10
194.591
 20
-245.276
 30
0
 10
194.996
 20
-244.836
 30
0
 10
195.242
 20
-244.364
 30
0
 10
195.492
 20
-243.891
 30
0
 10
195.589
 20
-243.396
 30
0
 10
195.588
 20
-242.965
 30
0
  0
SPLINE
  5
A09
330
A02
100
AcDbEntity
  8
Circle001
100
AcDbSpline
210
0
220
0
230
1
 70
9
 71
3
 72
41
 73
37
 74
0
 40
0
 40
0
 40
0
 40
0
 40
0.523599
 40
0.523599
 40
0.523599
 40
1.0472
 40
1.0472
 40
1.0472
 40
1.5708
 40
1.5708
 40
1.5708
 40
2.0944
 40
2.0944
 40
2.0944
 40
2.61799
 40
2.61799
 40
2.61799
 40
3.14159
 40
3.14159
 40
3.14159
 40
3.66519
 40
3.66519
 40
3.66519
 40
4.18879
 40
4.18879
 40
4.18879
 40
4.71239
 40
4.71239
 40
4.71239
 40
5.23599
 40
5.23599
 40
5.23599
 40
5.75959
 40
5.75959
 40
5.75959
 40
6.28319
 40
6.28319
 40
6.28319
 40
6.28319
 10
106.267
 20
-308.676
 30
0
 10
106.268
 20
-308.244
 30
0
 10
106.171
 20
-307.75
 30
0
 10
105.921
 20
-307.277
 30
0
 10
105.675
 20
-306.805
 30
0
 10
105.27
 20
-306.365
 30
0
 10
104.767
 20
-306.078
 30
0
 10
104.267
 20
-305.786
 30
0
 10
103.684
 20
-305.655
 30
0
 10
103.152
 20
-305.678
 30
0
 10
102.617
 20
-305.698
 30
0
 10
102.14
 20
-305.861
 30
0
 10
101.767
 20
-306.078
 30
0
 10
101.393
 20
-306.292
 30
0
 10
101.014
 20
-306.624
 30
0
 10
100.729
 20
-307.077
 30
0
 10
100.443
 20
-307.526
 30
0
 10
100.265
 20
-308.097
 30
0
 10
100.267
 20
-308.676
 30
0
 10
100.265
 20
-309.255
 30
0
 10
100.443
 20
-309.825
 30
0
 10
100.729
 20
-310.274
 30
0
 10
101.014
 20
-310.727
 30
0
 10
101.393
 20
-311.059
 30
0
 10
101.767
 20
-311.274
 30
0
 10
102.14
 20
-311.49
 30
0
 10
102.617
 20
-311.653
 30
0
 10
103.152
 20
-311.673
 30
0
 10
103.684
 20
-311.696
 30
0
 10
104.267
 20
-311.565
 30
0
 10
104.767
 20
-311.274
 30
0
 10
105.27
 20
-310.986
 30
0
 10
105.675
 20
-310.547
 30
0
 10
105.921
 20
-310.075
 30
0
 10
106.171
 20
-309.602
 30
0
 10
106.268
 20
-309.107
 30
0
 10
106.267
 20
-308.676
 30
0
  0
SPLINE
  5
A0A
330
A02
100
AcDbEntity
  8
Circle002
100
AcDbSpline
210
0
220
0
230
1
 70
9
 71
3
 72
41
 73
37
 74
0
 40
0
 40
0
 40
0
 40
0
 40
0.523599
 40
0.523599
 40
0.523599
 40
1.0472
 40
1.0472
 40
1.0472
 40
1.5708
 40
1.5708
 40
1.5708
 40
2.0944
 40
2.0944
 40
2.0944
 40
2.61799
 40
2.61799
 40
2.61799
 40
3.14159
 40
3.14159
 40
3.14159
 40
3.66519
 40
3.66519
 40
3.66519
 40
4.18879
 40
4.18879
 40
4.18879
 40
4.71239
 40
4.71239
 40
4.71239
 40
5.23599
 40
5.23599
 40
5.23599
 40
5.75959
 40
5.75959
 40
5.75959
 40
6.28319
 40
6.28319
 40
6.28319
 40
6.28319
 10
103.346
 20
-244.617
 30
0
 10
103.347
 20
-244.185
 30
0
 10
103.25
 20
-243.691
 30
0
 10
103
 20
-243.218
 30
0
 10
102.754
 20
-242.746
 30
0
 10
102.349
 20
-242.306
 30
0
 10
101.846
 20
-242.019
 30
0
 10
101.346
 20
-241.727
 30
0
 10
100.763
 20
-241.596
 30
0
 10
100.231
 20
-241.619
 30
0
 10
99.6964
 20
-241.639
 30
0
 10
99.2195
 20
-241.802
 30
0
 10
98.8463
 20
-242.019
 30
0
 10
98.4722
 20
-242.234
 30
0
 10
98.0925
 20
-242.565
 30
0
 10
97.8078
 20
-243.018
 30
0
 10
97.522
 20
-243.467
 30
0
 10
97.344
 20
-244.038
 30
0
 10
97.3463
 20
-244.617
 30
0
 10
97.344
 20
-245.196
 30
0
 10
97.522
 20
-245.767
 30
0
 10
97.8078
 20
-246.216
 30
0
 10
98.0925
 20
-246.668
 30
0
 10
98.4722
 20
-247
 30
0
 10
98.8463
 20
-247.215
 30
0
 10
99.2195
 20
-247.431
 30
0
 10
99.6964
 20
-247.594
 30
0
 10
100.231
 20
-247.615
 30
0
 10
100.763
 20
-247.638
 30
0
 10
101.346
 20
-247.506
 30
0
 10
101.846
 20
-247.215
 30
0
 10
102.349
 20
-246.927
 30
0
 10
102.754
 20
-246.488
 30
0
 10
103
 20
-246.016
 30
0
 10
103.25
 20
-245.543
 30
0
 10
103.347
 20
-245.048
 30
0
 10
103.346
 20
-244.617
 30
0
  0
SPLINE
  5
A0B
330
A02
100
AcDbEntity
  8
Circle003
100
AcDbSpline
210
0
220
0
230
1
 70
9
 71
3
 72
41
 73
37
 74
0
 40
0
 40
0
 40
0
 40
0
 40
0.523599
 40
0.523599
 40
0.523599
 40
1.0472
 40
1.0472
 40
1.0472
 40
1.5708
 40
1.5708
 40
1.5708
 40
2.0944
 40
2.0944
 40
2.0944
 40
2.61799
 40
2.61799
 40
2.61799
 40
3.14159
 40
3.14159
 40
3.14159
 40
3.66519
 40
3.66519
 40
3.66519
 40
4.18879
 40
4.18879
 40
4.18879
 40
4.71239
 40
4.71239
 40
4.71239
 40
5.23599
 40
5.23599
 40
5.23599
 40
5.75959
 40
5.75959
 40
5.75959
 40
6.28319
 40
6.28319
 40
6.28319
 40
6.28319
 10
214.167
 20
-307.431
 30
0
 10
214.167
 20
-307
 30
0
 10
214.07
 20
-306.505
 30
0
 10
213.82
 20
-306.032
 30
0
 10
213.574
 20
-305.56
 30
0
 10
213.169
 20
-305.12
 30
0
 10
212.667
 20
-304.833
 30
0
 10
212.166
 20
-304.541
 30
0
 10
211.583
 20
-304.41
 30
0
 10
211.051
 20
-304.433
 30
0
 10
210.517
 20
-304.453
 30
0
 10
210.04
 20
-304.616
 30
0
 10
209.667
 20
-304.833
 30
0
 10
209.292
 20
-305.048
 30
0
 10
208.913
 20
-305.379
 30
0
 10
208.628
 20
-305.832
 30
0
 10
208.342
 20
-306.281
 30
0
 10
208.164
 20
-306.852
 30
0
 10
208.167
 20
-307.431
 30
0
 10
208.164
 20
-308.01
 30
0
 10
208.342
 20
-308.581
 30
0
 10
208.628
 20
-309.03
 30
0
 10
208.913
 20
-309.483
 30
0
 10
209.292
 20
-309.814
 30
0
 10
209.667
 20
-310.029
 30
0
 10
210.04
 20
-310.246
 30
0
 10
210.517
 20
-310.409
 30
0
 10
211.051
 20
-310.429
 30
0
 10
211.583
 20
-310.452
 30
0
 10
212.166
 20
-310.321
 30
0
 10
212.667
 20
-310.029
 30
0
 10
213.169
 20
-309.742
 30
0
 10
213.574
 20
-309.302
 30
0
 10
213.82
 20
-308.83
 30
0
 10
214.07
 20
-308.357
 30
0
 10
214.167
 20
-307.862
 30
0
 10
214.167
 20
-307.431
 30
0
  0
SPLINE
  5
A0C
330
A02
100
AcDbEntity
  8
Path1530
100
AcDbSpline
210
0
220
0
230
1
 70
8
 71
3
 72
8
 73
4
 74
0
 40
0
 40
0
 40
0
 40
0
 40
1
 40
1
 40
1
 40
1
 10
88.2373
 20
-308.572
 30
0
 10
88.2373
 20
-308.572
 30
0
 10
94.9965
 20
-307.38
 30
0
 10
94.9965
 20
-307.38
 30
0
  0
SPLINE
  5
A0D
330
A02
100
AcDbEntity
  8
Path1531
100
AcDbSpline
210
0
220
0
230
1
 70
8
 71
3
 72
8
 73
4
 74
0
 40
0
 40
0
 40
0
 40
0
 40
1
 40
1
 40
1
 40
1
 10
139.761
 20
-235.127
 30
0
 10
139.761
 20
-235.127
 30
0
 10
139.761
 20
-238.987
 30
0
 10
139.761
 20
-238.987
 30
0
  0
SPLINE
  5
A0E
330
A02
100
AcDbEntity
  8
Path1532
100
AcDbSpline
210
0
220
0
230
1
 70
8
 71
3
 72
8
 73
4
 74
0
 40
0
 40
0
 40
0
 40
0
 40
1
 40
1
 40
1
 40
1
 10
95.9949
 20
-313.924
 30
0
 10
95.9949
 20
-313.924
 30
0
 10
153.226
 20
-313.924
 30
0
 10
153.226
 20
-313.924
 30
0
  0
SPLINE
  5
A0F
330
A02
100
AcDbEntity
  8
Path1533
100
AcDbSpline
210
0
220
0
230
1
 70
8
 71
3
 72
8
 73
4
 74
0
 40
0
 40
0
 40
0
 40
0
 40
1
 40
1
 40
1
 40
1
 10
159.261
 20
-238.987
 30
0
 10
159.261
 20
-238.987
 30
0
 10
159.261
 20
-235.127
 30
0
 10
159.261
 20
-235.127
 30
0
  0
SPLINE
  5
A10
330
A02
100
AcDbEntity
  8
Path1534
100
AcDbSpline
210
0
220
0
230
1
 70
8
 71
3
 72
8
 73
4
 74
0
 40
0
 40
0
 40
0
 40
0
 40
1
 40
1
 40
1
 40
1
 10
158.962
 20
-234.831
 30
0
 10
158.465
 20
-234.831
 30
0
 10
140.058
 20
-234.831
 30
0
 10
140.058
 20
-234.831
 30
0
  0
SPLINE
  5
A11
330
A02
100
AcDbEntity
  8
Path1535
100
AcDbSpline
210
0
220
0
230
1
 70
8
 71
3
 72
8
 73
4
 74
0
 40
0
 40
0
 40
0
 40
0
 40
1
 40
1
 40
1
 40
1
 10
140.058
 20
-234.831
 30
0
 10
139.895
 20
-234.831
 30
0
 10
139.761
 20
-234.965
 30
0
 10
139.761
 20
-235.127
 30
0
  0
SPLINE
  5
A12
330
A02
100
AcDbEntity
  8
Path1536
100
AcDbSpline
210
0
220
0
230
1
 70
8
 71
3
 72
8
 73
4
 74
0
 40
0
 40
0
 40
0
 40
0
 40
1
 40
1
 40
1
 40
1
 10
215.638
 20
-253.216
 30
0
 10
215.638
 20
-253.151
 30
0
 10
215.638
 20
-239.985
 30
0
 10
215.638
 20
-239.985
 30
0
  0
SPLINE
  5
A13
330
A02
100
AcDbEntity
  8
Path1537
100
AcDbSpline
210
0
220
0
230
1
 70
8
 71
3
 72
8
 73
4
 74
0
 40
0
 40
0
 40
0
 40
0
 40
1
 40
1
 40
1
 40
1
 10
215.631
 20
-310.908
 30
0
 10
215.631
 20
-310.908
 30
0
 10
215.635
 20
-295.616
 30
0
 10
215.635
 20
-295.616
 30
0
  0
SPLINE
  5
A14
330
A02
100
AcDbEntity
  8
Path1538
100
AcDbSpline
210
0
220
0
230
1
 70
8
 71
3
 72
8
 73
4
 74
0
 40
0
 40
0
 40
0
 40
0
 40
1
 40
1
 40
1
 40
1
 10
153.522
 20
-315.427
 30
0
 10
154.581
 20
-315.427
 30
0
 10
158.324
 20
-315.427
 30
0
 10
162.119
 20
-315.427
 30
0
  0
SPLINE
  5
A15
330
A02
100
AcDbEntity
  8
Path1539
100
AcDbSpline
210
0
220
0
230
1
 70
8
 71
2
 72
6
 73
3
 74
0
 40
0
 40
0
 40
0
 40
0.235345
 40
0.235345
 40
0.235345
 10
214.987
 20
-311.79
 30
0
 10
215.364
 20
-311.389
 30
0
 10
215.637
 20
-310.911
 30
0
  0
SPLINE
  5
A16
330
A02
100
AcDbEntity
  8
Path1540
100
AcDbSpline
210
0
220
0
230
1
 70
8
 71
3
 72
8
 73
4
 74
0
 40
0
 40
0
 40
0
 40
0
 40
1
 40
1
 40
1
 40
1
 10
162.119
 20
-315.427
 30
0
 10
166.565
 20
-315.427
 30
0
 10
171.013
 20
-315.427
 30
0
 10
179.825
 20
-317.787
 30
0
  0
SPLINE
  5
A17
330
A02
100
AcDbEntity
  8
Path1541
100
AcDbSpline
210
0
220
0
230
1
 70
8
 71
3
 72
8
 73
4
 74
0
 40
0
 40
0
 40
0
 40
0
 40
0.173294
 40
0.173294
 40
0.173294
 40
0.173294
 10
214.987
 20
-311.79
 30
0
 10
214.277
 20
-312.598
 30
0
 10
213.635
 20
-313.471
 30
0
 10
213.075
 20
-314.39
 30
0
  0
SPLINE
  5
A18
330
A02
100
AcDbEntity
  8
Path1542
100
AcDbSpline
210
0
220
0
230
1
 70
8
 71
3
 72
8
 73
4
 74
0
 40
0
 40
0
 40
0
 40
0
 40
1
 40
1
 40
1
 40
1
 10
153.226
 20
-313.924
 30
0
 10
153.226
 20
-313.924
 30
0
 10
153.226
 20
-315.13
 30
0
 10
153.226
 20
-315.13
 30
0
  0
SPLINE
  5
A19
330
A02
100
AcDbEntity
  8
Path1543
100
AcDbSpline
210
0
220
0
230
1
 70
8
 71
3
 72
8
 73
4
 74
0
 40
0
 40
0
 40
0
 40
0
 40
1
 40
1
 40
1
 40
1
 10
153.226
 20
-315.13
 30
0
 10
153.226
 20
-315.293
 30
0
 10
153.357
 20
-315.427
 30
0
 10
153.522
 20
-315.427
 30
0
  0
SPLINE
  5
A1A
330
A02
100
AcDbEntity
  8
Path1544
100
AcDbSpline
210
0
220
0
230
1
 70
8
 71
1
 72
4
 73
2
 74
0
 40
0
 40
0
 40
42.4
 40
42.4
 10
215.638
 20
-253.216
 30
0
 10
215.635
 20
-295.616
 30
0
  0
SPLINE
  5
A1B
330
A02
100
AcDbEntity
  8
Path1545
100
AcDbSpline
210
0
220
0
230
1
 70
8
 71
3
 72
8
 73
4
 74
0
 40
0
 40
0
 40
0
 40
0
 40
1
 40
1
 40
1
 40
1
 10
94.9965
 20
-289.611
 30
0
 10
94.9965
 20
-289.61
 30
0
 10
85.1999
 20
-291.339
 30
0
 10
85.1999
 20
-291.339
 30
0
  0
SPLINE
  5
A1C
330
A02
100
AcDbEntity
  8
Path1546
100
AcDbSpline
210
0
220
0
230
1
 70
8
 71
3
 72
8
 73
4
 74
0
 40
0
 40
0
 40
0
 40
0
 40
1
 40
1
 40
1
 40
1
 10
95.9949
 20
-238.987
 30
0
 10
95.441
 20
-238.987
 30
0
 10
94.9965
 20
-239.435
 30
0
 10
94.9965
 20
-239.985
 30
0
  0
SPLINE
  5
A1D
330
A02
100
AcDbEntity
  8
Path1547
100
AcDbSpline
210
0
220
0
230
1
 70
8
 71
3
 72
8
 73
4
 74
0
 40
0
 40
0
 40
0
 40
0
 40
1
 40
1
 40
1
 40
1
 10
214.64
 20
-238.987
 30
0
 10
206.64
 20
-238.987
 30
0
 10
159.261
 20
-238.987
 30
0
 10
159.261
 20
-238.987
 30
0
  0
SPLINE
  5
A1E
330
A02
100
AcDbEntity
  8
Path1548
100
AcDbSpline
210
0
220
0
230
1
 70
8
 71
3
 72
8
 73
4
 74
0
 40
0
 40
0
 40
0
 40
0
 40
1
 40
1
 40
1
 40
1
 10
87.8951
 20
-308.332
 30
0
 10
87.9233
 20
-308.495
 30
0
 10
88.075
 20
-308.601
 30
0
 10
88.2373
 20
-308.572
 30
0
  0
SPLINE
  5
A1F
330
A02
100
AcDbEntity
  8
Path1549
100
AcDbSpline
210
0
220
0
230
1
 70
8
 71
3
 72
8
 73
4
 74
0
 40
0
 40
0
 40
0
 40
0
 40
1
 40
1
 40
1
 40
1
 10
204.619
 20
-329.033
 30
0
 10
204.619
 20
-329.033
 30
0
 10
213.075
 20
-314.39
 30
0
 10
213.075
 20
-314.39
 30
0
  0
SPLINE
  5
A20
330
A02
100
AcDbEntity
  8
Path1550
100
AcDbSpline
210
0
220
0
230
1
 70
8
 71
3
 72
8
 73
4
 74
0
 40
0
 40
0
 40
0
 40
0
 40
1
 40
1
 40
1
 40
1
 10
85.1999
 20
-291.339
 30
0
 10
85.0376
 20
-291.367
 30
0
 10
84.9317
 20
-291.519
 30
0
 10
84.96
 20
-291.681
 30
0
  0
SPLINE
  5
A21
330
A02
100
AcDbEntity
  8
Path1551
100
AcDbSpline
210
0
220
0
230
1
 70
8
 71
3
 72
8
 73
4
 74
0
 40
0
 40
0
 40
0
 40
0
 40
1
 40
1
 40
1
 40
1
 10
84.96
 20
-291.681
 30
0
 10
84.96
 20
-291.681
 30
0
 10
87.8951
 20
-308.332
 30
0
 10
87.8951
 20
-308.332
 30
0
  0
SPLINE
  5
A22
330
A02
100
AcDbEntity
  8
Path1552
100
AcDbSpline
210
0
220
0
230
1
 70
8
 71
3
 72
8
 73
4
 74
0
 40
0
 40
0
 40
0
 40
0
 40
1
 40
1
 40
1
 40
1
 10
139.761
 20
-238.987
 30
0
 10
140.261
 20
-238.987
 30
0
 10
95.9949
 20
-238.987
 30
0
 10
95.9949
 20
-238.987
 30
0
  0
SPLINE
  5
A23
330
A02
100
AcDbEntity
  8
Path1553
100
AcDbSpline
210
0
220
0
230
1
 70
8
 71
3
 72
8
 73
4
 74
0
 40
0
 40
0
 40
0
 40
0
 40
1
 40
1
 40
1
 40
1
 10
215.638
 20
-239.985
 30
0
 10
215.638
 20
-239.431
 30
0
 10
215.19
 20
-238.987
 30
0
 10
214.64
 20
-238.987
 30
0
  0
SPLINE
  5
A24
330
A02
100
AcDbEntity
  8
Path1554
100
AcDbSpline
210
0
220
0
230
1
 70
8
 71
3
 72
8
 73
4
 74
0
 40
0
 40
0
 40
0
 40
0
 40
1
 40
1
 40
1
 40
1
 10
196.554
 20
-324.719
 30
0
 10
199.62
 20
-326.49
 30
0
 10
203.236
 20
-328.578
 30
0
 10
204.217
 20
-329.143
 30
0
  0
SPLINE
  5
A25
330
A02
100
AcDbEntity
  8
Path1555
100
AcDbSpline
210
0
220
0
230
1
 70
8
 71
3
 72
8
 73
4
 74
0
 40
0
 40
0
 40
0
 40
0
 40
1
 40
1
 40
1
 40
1
 10
94.9965
 20
-239.985
 30
0
 10
94.9965
 20
-239.985
 30
0
 10
94.9965
 20
-289.611
 30
0
 10
94.9965
 20
-289.611
 30
0
  0
SPLINE
  5
A26
330
A02
100
AcDbEntity
  8
Path1556
100
AcDbSpline
210
0
220
0
230
1
 70
8
 71
3
 72
8
 73
4
 74
0
 40
0
 40
0
 40
0
 40
0
 40
1
 40
1
 40
1
 40
1
 10
94.9965
 20
-312.926
 30
0
 10
94.9965
 20
-313.479
 30
0
 10
95.4445
 20
-313.924
 30
0
 10
95.9949
 20
-313.924
 30
0
  0
SPLINE
  5
A27
330
A02
100
AcDbEntity
  8
Path1557
100
AcDbSpline
210
0
220
0
230
1
 70
8
 71
3
 72
8
 73
4
 74
0
 40
0
 40
0
 40
0
 40
0
 40
1
 40
1
 40
1
 40
1
 10
179.825
 20
-317.787
 30
0
 10
188.638
 20
-320.147
 30
0
 10
192.596
 20
-322.433
 30
0
 10
196.554
 20
-324.719
 30
0
  0
SPLINE
  5
A28
330
A02
100
AcDbEntity
  8
Path1558
100
AcDbSpline
210
0
220
0
230
1
 70
8
 71
3
 72
8
 73
4
 74
0
 40
0
 40
0
 40
0
 40
0
 40
1
 40
1
 40
1
 40
1
 10
204.216
 20
-329.143
 30
0
 10
204.358
 20
-329.224
 30
0
 10
204.538
 20
-329.175
 30
0
 10
204.619
 20
-329.033
 30
0
  0
SPLINE
  5
A29
330
A02
100
AcDbEntity
  8
Path1559
100
AcDbSpline
210
0
220
0
230
1
 70
8
 71
3
 72
8
 73
4
 74
0
 40
0
 40
0
 40
0
 40
0
 40
1
 40
1
 40
1
 40
1
 10
94.9965
 20
-307.38
 30
0
 10
94.9965
 20
-307.38
 30
0
 10
94.9965
 20
-312.926
 30
0
 10
94.9965
 20
-312.926
 30
0
  0
SPLINE
  5
A2A
330
A02
100
AcDbEntity
  8
Path1560
100
AcDbSpline
210
0
220
0
230
1
 70
8
 71
3
 72
8
 73
4
 74
0
 40
0
 40
0
 40
0
 40
0
 40
1
 40
1
 40
1
 40
1
 10
159.261
 20
-235.127
 30
0
 10
159.261
 20
-234.965
 30
0
 10
159.127
 20
-234.831
 30
0
 10
158.965
 20
-234.831
 30
0
  0
ENDSEC
  0
SECTION
  2
OBJECTS
  0
DICTIONARY
  5
F000
330
0
100
AcDbDictionary
  3
ACAD_GROUP
350
F001
  0
DICTIONARY
  5
F001
330
F000
100
AcDbDictionary
  0
ENDSEC
  0
EOF