<?xml version="1.0" standalone="no"?>
 <!DOCTYPE svg PUBLIC "-//W3C//DTD SVG 1.1//EN" 
 "http://www.w3.org/Graphics/SVG/1.1/DTD/svg11.dtd"> 
<svg
  xmlns:svg="http://www.w3.org/2000/svg"
  xmlns="http://www.w3.org/2000/svg"
  xmlns:xlink="http://www.w3.org/1999/xlink"
  version="1.1"
  width="297.002200mm" height="210.007200mm" viewBox="0.000000 0.000000 297.002200 210.007200">
<title>SVG Image created as hookah-Edge_Cuts.svg date 2024/09/07 21:11:44 </title>
  <desc>Image generated by PCBNEW </desc>
<g style="fill:#000000; fill-opacity:1.000000;stroke:#000000; stroke-opacity:1.000000;
stroke-linecap:round; stroke-linejoin:round;"
 transform="translate(0 0) scale(1 1)">
</g>
<g style="fill:none; 
stroke:#000000; stroke-width:0.150000; stroke-opacity:1; 
stroke-linecap:round; stroke-linejoin:round;">
<path d="M135.407645 33.042955 A1.000045 1.000045 0.0 0 0 134.407588 32.042955" />
<path d="M135.813981 111.894919 A1.000019 1.000019 0.0 0 0 136.784402 112.894481" />
<path d="M168.153870 124.567170 A1.000014 1.000014 0.0 0 0 168.612505 125.903418" />
<path d="M135.407645 34.395755 A0.999955 0.999955 0.0 0 0 136.407588 35.395755" />
<path d="M58.058644 98.562983 A1.000008 1.000008 0.0 0 0 59.142271 99.471475" />
<path d="M98.522722 96.013406 A1.000043 1.000043 0.0 0 0 99.435235 95.013107" />
<path d="M185.875349 134.365311 A0.999989 0.999989 0.0 0 0 187.214276 133.905782" />
<path d="M54.497913 46.694678 A1.000030 1.000030 0.0 0 0 53.588923 47.778596" />
<path d="M154.051243 36.529358 A0.999957 0.999957 0.0 0 0 155.051188 37.529357" />
<path d="M154.051244 36.395755 A1.000044 1.000044 0.0 0 0 153.051188 35.395756" />
<path d="M200.154343 38.529357 A1.000043 1.000043 0.0 0 0 199.154310 37.529357" />
<path d="M200.053099 107.582283 A1.000010 1.000010 0.0 0 0 200.154310 107.143914" />
<path d="M135.814036 90.749464 A1.000036 1.000036 0.0 0 0 134.813925 89.749464" />
<path d="M100.417667 89.751733 A0.999967 0.999967 0.0 0 0 99.417741 90.755799" />
<path d="M169.785229 121.221930 A1.000014 1.000014 0.0 0 0 169.309669 119.877581" />
<path d="M155.736944 113.537390 A0.999995 0.999995 0.0 0 0 155.343307 113.443843" />
<path d="M91.821972 32.042972 A1.000028 1.000028 0.0 0 0 90.821972 33.042954" />
<path d="M89.909122 43.596571 A0.999973 0.999973 0.0 0 0 90.821973 42.600451" />
<path d="M90.821973 42.600451
L90.821972 33.042954
" />
<path d="M169.309669 119.877581
L155.736948 113.537382
" />
<path d="M134.813925 89.749464
L100.417667 89.751690
" />
<path d="M200.154310 38.529357
L200.154310 107.143914
" />
<path d="M154.051188 36.395755
L154.051188 36.529358
" />
<path d="M54.497917 46.694727
L89.909129 43.596646
" />
<path d="M200.053104 107.582285
L187.214276 133.905782
" />
<path d="M59.142271 99.471475
L98.522720 96.013383
" />
<path d="M136.407588 35.395755
L153.051188 35.395756
" />
<path d="M99.417741 90.755799
L99.435235 95.013107
" />
<path d="M58.058646 98.562983
L53.588923 47.778596
" />
<path d="M185.875336 134.365337
L168.612505 125.903418
" />
<path d="M155.051188 37.529357
L199.154310 37.529357
" />
<path d="M135.813990 111.894919
L135.813990 90.749464
" />
<path d="M155.343307 113.443843
L136.784402 112.894481
" />
<path d="M135.407588 33.042955
L135.407588 34.395755
" />
<path d="M168.153840 124.567155
L169.785251 121.221941
" />
<path d="M91.821972 32.042954
L134.407588 32.042955
" />
<path d="M181.800687 35.484657
L186.144087 35.484656
" />
<path d="M174.841087 70.993856
L192.621087 70.993856
" />
<path style="fill:none; 
stroke:#000000; stroke-width:0.150000; stroke-opacity:1; 
stroke-linecap:round; stroke-linejoin:round;fill:none"
d="M 190.070687,96.063657
176.070687,96.063656
176.070687,82.063656
190.070687,82.063656
Z" /> 
<path d="M174.841087 37.973857
L174.841087 70.993856
" />
<path d="M192.646487 37.973856
L174.841087 37.973857
" />
<path d="M186.144087 35.484656
L186.144087 37.973857
" />
<path d="M192.621087 70.993856
L192.646487 37.973856
" />
<path d="M181.800687 37.973857
L181.800687 35.484657
" />
<path d="M134.922838 87.080632
L149.920555 87.342419
" />
<path d="M135.184625 72.082915
L134.922838 87.080632
" />
<path d="M149.920555 87.342419
L150.182342 72.344702
" />
<path d="M150.182342 72.344702
L135.184625 72.082915
" />
<path d="M135.219529 70.083223
L150.217246 70.345010
" />
<path d="M135.481316 55.085506
L135.219529 70.083223
" />
<path d="M150.217246 70.345010
L150.479033 55.347293
" />
<path d="M150.479033 55.347293
L135.481316 55.085506
" />
<path d="M173.814767 120.119846
L187.296678 126.695413
" />
<path d="M180.390334 106.637935
L173.814767 120.119846
" />
<path d="M187.296678 126.695413
L193.872245 113.213502
" />
<path d="M193.872245 113.213502
L180.390334 106.637935
" />
<path d="M95.910109 54.673646
L96.695148 69.653089
" />
<path d="M96.695148 69.653089
L111.674591 68.868050
" />
<path d="M110.889552 53.888607
L95.910109 54.673646
" />
<path d="M111.674591 68.868050
L110.889552 53.888607
" />
<path d="M60.464092 82.766694
L61.771428 97.709614
" />
<path d="M61.771428 97.709614
L76.714348 96.402278
" />
<path d="M75.407012 81.459358
L60.464092 82.766694
" />
<path d="M76.714348 96.402278
L75.407012 81.459358
" />
<path d="M95.020399 37.696943
L95.805438 52.676386
" />
<path d="M95.805438 52.676386
L110.784881 51.891347
" />
<path d="M109.999842 36.911904
L95.020399 37.696943
" />
<path d="M110.784881 51.891347
L109.999842 36.911904
" />
</g>
<g style="fill:none; 
stroke:#000000; stroke-width:0.100000; stroke-opacity:1; 
stroke-linecap:round; stroke-linejoin:round;">
<circle cx="113.677888" cy="45.009657" r="1.800000" /> 
<circle cx="193.180000" cy="102.337800" r="1.800000" /> 
</g>
<g style="fill:none; 
stroke:#000000; stroke-width:0.150000; stroke-opacity:1; 
stroke-linecap:round; stroke-linejoin:round;">
<path d="M58.982443 65.831386
L60.289779 80.774306
" />
<path d="M60.289779 80.774306
L75.232699 79.466970
" />
<path d="M73.925363 64.524050
L58.982443 65.831386
" />
<path d="M75.232699 79.466970
L73.925363 64.524050
" />
<path d="M116.902593 69.212666
L116.902593 84.212666
" />
<path d="M116.902593 84.212666
L131.902593 84.212666
" />
<path d="M131.902593 69.212666
L116.902593 69.212666
" />
<path d="M131.902593 84.212666
L131.902593 69.212666
" />
</g>
<g style="fill:none; 
stroke:#000000; stroke-width:0.100000; stroke-opacity:1; 
stroke-linecap:round; stroke-linejoin:round;">
<circle cx="76.848000" cy="80.316000" r="1.800000" /> 
</g>
<g style="fill:none; 
stroke:#000000; stroke-width:0.150000; stroke-opacity:1; 
stroke-linecap:round; stroke-linejoin:round;">
<path d="M96.799824 71.650348
L97.584863 86.629791
" />
<path d="M97.584863 86.629791
L112.564306 85.844752
" />
<path d="M111.779267 70.865309
L96.799824 71.650348
" />
<path d="M112.564306 85.844752
L111.779267 70.865309
" />
<path d="M75.432299 47.327271
L76.739635 62.270191
" />
<path d="M76.739635 62.270191
L91.682555 60.962855
" />
<path d="M90.375219 46.019935
L75.432299 47.327271
" />
<path d="M91.682555 60.962855
L90.375219 46.019935
" />
</g>
<g style="fill:none; 
stroke:#000000; stroke-width:0.100000; stroke-opacity:1; 
stroke-linecap:round; stroke-linejoin:round;">
<circle cx="132.786687" cy="85.938456" r="1.800000" /> 
</g>
<g style="fill:none; 
stroke:#000000; stroke-width:0.150000; stroke-opacity:1; 
stroke-linecap:round; stroke-linejoin:round;">
<path d="M116.902590 35.212668
L116.902590 50.212668
" />
<path d="M116.902590 50.212668
L131.902590 50.212668
" />
<path d="M131.902590 35.212668
L116.902590 35.212668
" />
<path d="M131.902590 50.212668
L131.902590 35.212668
" />
<path d="M157.636850 112.229528
L171.118761 118.805095
" />
<path d="M164.212417 98.747617
L157.636850 112.229528
" />
<path d="M171.118761 118.805095
L177.694328 105.323184
" />
<path d="M177.694328 105.323184
L164.212417 98.747617
" />
<path d="M76.913950 64.262581
L78.221286 79.205501
" />
<path d="M78.221286 79.205501
L93.164206 77.898165
" />
<path d="M91.856870 62.955245
L76.913950 64.262581
" />
<path d="M93.164206 77.898165
L91.856870 62.955245
" />
<path d="M116.902589 52.212669
L116.902589 67.212669
" />
<path d="M116.902589 67.212669
L131.902589 67.212669
" />
<path d="M131.902589 52.212669
L116.902589 52.212669
" />
<path d="M131.902589 67.212669
L131.902589 52.212669
" />
<path d="M78.395594 81.197892
L79.702930 96.140812
" />
<path d="M79.702930 96.140812
L94.645850 94.833476
" />
<path d="M93.338514 79.890556
L78.395594 81.197892
" />
<path d="M94.645850 94.833476
L93.338514 79.890556
" />
<path d="M57.500797 48.896076
L58.808133 63.838996
" />
<path d="M58.808133 63.838996
L73.751053 62.531660
" />
<path d="M72.443717 47.588740
L57.500797 48.896076
" />
<path d="M73.751053 62.531660
L72.443717 47.588740
" />
<path d="M139.243295 111.155515
L154.241012 111.417302
" />
<path d="M139.505082 96.157798
L139.243295 111.155515
" />
<path d="M154.241012 111.417302
L154.502799 96.419585
" />
<path d="M154.502799 96.419585
L139.505082 96.157798
" />
<path d="M153.538704 75.270091
L168.529566 75.793583
" />
<path d="M154.062196 60.279229
L153.538704 75.270091
" />
<path d="M168.529566 75.793583
L169.053058 60.802721
" />
<path d="M169.053058 60.802721
L154.062196 60.279229
" />
<path d="M152.945410 92.259735
L167.936272 92.783227
" />
<path d="M153.468902 77.268873
L152.945410 92.259735
" />
<path d="M167.936272 92.783227
L168.459764 77.792365
" />
<path d="M168.459764 77.792365
L153.468902 77.268873
" />
<path d="M154.131992 58.280446
L169.122854 58.803938
" />
<path d="M154.655484 43.289584
L154.131992 58.280446
" />
<path d="M169.122854 58.803938
L169.646346 43.813076
" />
<path d="M169.646346 43.813076
L154.655484 43.289584
" />
<path d="M135.516222 53.085814
L150.513939 53.347601
" />
<path d="M135.778009 38.088097
L135.516222 53.085814
" />
<path d="M150.513939 53.347601
L150.775726 38.349884
" />
<path d="M150.775726 38.349884
L135.778009 38.088097
" />
</g>
<g style="fill:none; 
stroke:#000000; stroke-width:0.100000; stroke-opacity:1; 
stroke-linecap:round; stroke-linejoin:round;">
<circle cx="197.482000" cy="40.742800" r="1.800000" /> 
</g> 
</svg>
