  0
SECTION
  2
HEADER
  9
$ACADVER
  1
AC1014
  9
$HANDSEED
  5
FFFF
  9
$INSUNITS
 70
     4
  9
$MEASUREMENT
 70
     1
  0
ENDSEC
  0
SECTION
  2
TABLES
  0
TABLE
  2
VPORT
  5
8
330
0
100
AcDbSymbolTable
 70
     4
  0
VPORT
  5
2E
330
8
100
AcDbSymbolTableRecord
100
AcDbViewportTableRecord
  2
*ACTIVE
 70
     0
 10
0.0
 20
0.0
 11
1.0
 21
1.0
 12
210.0
 22
148.5
 13
0.0
 23
0.0
 14
10.0
 24
10.0
 15
10.0
 25
10.0
 16
0.0
 26
0.0
 36
1.0
 17
0.0
 27
0.0
 37
0.0
 40
341.0
 41
1.24
 42
50.0
 43
0.0
 44
0.0
 50
0.0
 51
0.0
 71
     0
 72
   100
 73
     1
 74
     3
 75
     0
 76
     0
 77
     0
 78
     0
  0
ENDTAB
  0
TABLE
  2
LTYPE
  5
5
330
0
100
AcDbSymbolTable
 70
     1
  0
LTYPE
  5
14
330
5
100
AcDbSymbolTableRecord
100
AcDbLinetypeTableRecord
  2
BYBLOCK
 70
     0
  3

 72
    65
 73
     0
 40
0.0
  0
LTYPE
  5
15
330
5
100
AcDbSymbolTableRecord
100
AcDbLinetypeTableRecord
  2
BYLAYER
 70
     0
  3

 72
    65
 73
     0
 40
0.0
  0
LTYPE
  5
16
330
5
100
AcDbSymbolTableRecord
100
AcDbLinetypeTableRecord
  2
CONTINUOUS
 70
     0
  3
Solid line
 72
    65
 73
     0
 40
0.0
  0
ENDTAB
  0
TABLE
  2
LAYER
  5
2
100
AcDbSymbolTable
 70
1
  0
LAYER
  5
50
100
AcDbSymbolTableRecord
100
AcDbLayerTableRecord
  2
0
 70
0
  6
CONTINUOUS
  0
ENDTAB
  0
TABLE
  2
STYLE
  5
3
330
0
100
AcDbSymbolTable
 70
     1
  0
STYLE
  5
11
330
3
100
AcDbSymbolTableRecord
100
AcDbTextStyleTableRecord
  2
STANDARD
 70
     0
 40
0.0
 41
1.0
 50
0.0
 71
     0
 42
2.5
  3
txt
  4

  0
ENDTAB
  0
TABLE
  2
VIEW
  5
6
330
0
100
AcDbSymbolTable
 70
     0
  0
ENDTAB
  0
TABLE
  2
UCS
  5
7
330
0
100
AcDbSymbolTable
 70
     0
  0
ENDTAB
  0
TABLE
  2
APPID
  5
9
330
0
100
AcDbSymbolTable
 70
     2
  0
APPID
  5
12
330
9
100
AcDbSymbolTableRecord
100
AcDbRegAppTableRecord
  2
ACAD
 70
     0
  0
ENDTAB
  0
TABLE
  2
DIMSTYLE
  5
A
330
0
100
AcDbSymbolTable
 70
     1
  0
DIMSTYLE
105
27
330
A
100
AcDbSymbolTableRecord
100
AcDbDimStyleTableRecord
  2
ISO-25
 70
     0
  3

  4

  5

  6

  7

 40
1.0
 41
2.5
 42
0.625
 43
3.75
 44
1.25
 45
0.0
 46
0.0
 47
0.0
 48
0.0
140
2.5
141
2.5
142
0.0
143
0.03937007874016
144
1.0
145
0.0
146
1.0
147
0.625
 71
     0
 72
     0
 73
     0
 74
     0
 75
     0
 76
     0
 77
     1
 78
     8
170
     0
171
     3
172
     1
173
     0
174
     0
175
     0
176
     0
177
     0
178
     0
270
     2
271
     2
272
     2
273
     2
274
     3
340
11
275
     0
280
     0
281
     0
282
     0
283
     0
284
     8
285
     0
286
     0
287
     3
288
     0
  0
ENDTAB
  0
TABLE
  2
BLOCK_RECORD
  5
1
330
0
100
AcDbSymbolTable
 70
     1
  0
BLOCK_RECORD
  5
1F
330
1
100
AcDbSymbolTableRecord
100
AcDbBlockTableRecord
  2
*MODEL_SPACE
  0
BLOCK_RECORD
  5
1B
330
1
100
AcDbSymbolTableRecord
100
AcDbBlockTableRecord
  2
*PAPER_SPACE
  0
ENDTAB
  0
ENDSEC
  0
SECTION
  2
BLOCKS
  0
BLOCK
  5
20
330
1F
100
AcDbEntity
  8
0
100
AcDbBlockBegin
  2
*MODEL_SPACE
 70
     0
 10
0.0
 20
0.0
 30
0.0
  3
*MODEL_SPACE
  1

  0
ENDBLK
  5
21
330
1F
100
AcDbEntity
  8
0
100
AcDbBlockEnd
  0
BLOCK
  5
1C
330
1B
100
AcDbEntity
 67
     1
  8
0
100
AcDbBlockBegin
  2
*PAPER_SPACE
  1

  0
ENDBLK
  5
1D
330
1B
100
AcDbEntity
 67
     1
  8
0
100
AcDbBlockEnd
  0
ENDSEC
  0
SECTION
  2
ENTITIES
  0
LWPOLYLINE
  5
100
100
AcDbEntity
  8
0
 62
7
100
AcDbPolyline
 90
4
 70
1
 10
190.070687
 20
113.943543
 30
0.0
 10
176.070687
 20
113.943544
 30
0.0
 10
176.070687
 20
127.943544
 30
0.0
 10
190.070687
 20
127.943544
 30
0.0
  0
LWPOLYLINE
  5
101
100
AcDbEntity
  8
0
 62
7
100
AcDbPolyline
 90
2
 70
0
 10
186.144087
 20
174.522544
 30
0.0
 10
186.144087
 20
172.033343
 30
0.0
  0
LWPOLYLINE
  5
102
100
AcDbEntity
  8
0
 62
7
100
AcDbPolyline
 90
2
 70
0
 10
181.800687
 20
174.522543
 30
0.0
 10
186.144087
 20
174.522544
 30
0.0
  0
LWPOLYLINE
  5
103
100
AcDbEntity
  8
0
 62
7
100
AcDbPolyline
 90
2
 70
0
 10
181.800687
 20
172.033343
 30
0.0
 10
181.800687
 20
174.522543
 30
0.0
  0
LWPOLYLINE
  5
104
100
AcDbEntity
  8
0
 62
7
100
AcDbPolyline
 90
2
 70
0
 10
192.646487
 20
172.033344
 30
0.0
 10
174.841087
 20
172.033343
 30
0.0
  0
LWPOLYLINE
  5
105
100
AcDbEntity
  8
0
 62
7
100
AcDbPolyline
 90
2
 70
0
 10
192.621087
 20
139.013344
 30
0.0
 10
192.646487
 20
172.033344
 30
0.0
  0
LWPOLYLINE
  5
106
100
AcDbEntity
  8
0
 62
7
100
AcDbPolyline
 90
2
 70
0
 10
174.841087
 20
139.013344
 30
0.0
 10
192.621087
 20
139.013344
 30
0.0
  0
SPLINE
  5
107
100
AcDbEntity
  8
0
 62
7
100
AcDbSpline
 70
8
 71
3
 72
8
 73
4
 74
0
 40
0
 40
0
 40
0
 40
0
 40
1
 40
1
 40
1
 40
1
 10
133.286687
 20
126.868744
 30
0.0
 10
132.558655
 20
126.868744
 30
0.0
 10
131.902310
 20
126.430188
 30
0.0
 10
131.623704
 20
125.757574
 30
0.0
  0
SPLINE
  5
108
100
AcDbEntity
  8
0
 62
7
100
AcDbSpline
 70
8
 71
3
 72
8
 73
4
 74
0
 40
0
 40
0
 40
0
 40
0
 40
1
 40
1
 40
1
 40
1
 10
131.623704
 20
125.757574
 30
0.0
 10
131.345098
 20
125.084960
 30
0.0
 10
131.499098
 20
124.310748
 30
0.0
 10
132.013895
 20
123.795952
 30
0.0
  0
SPLINE
  5
109
100
AcDbEntity
  8
0
 62
7
100
AcDbSpline
 70
8
 71
3
 72
8
 73
4
 74
0
 40
0
 40
0
 40
0
 40
0
 40
1
 40
1
 40
1
 40
1
 10
132.013895
 20
123.795952
 30
0.0
 10
132.528691
 20
123.281155
 30
0.0
 10
133.302903
 20
123.127155
 30
0.0
 10
133.975517
 20
123.405761
 30
0.0
  0
SPLINE
  5
10a
100
AcDbEntity
  8
0
 62
7
100
AcDbSpline
 70
8
 71
3
 72
8
 73
4
 74
0
 40
0
 40
0
 40
0
 40
0
 40
1
 40
1
 40
1
 40
1
 10
133.975517
 20
123.405761
 30
0.0
 10
134.648131
 20
123.684367
 30
0.0
 10
135.086687
 20
124.340712
 30
0.0
 10
135.086687
 20
125.068744
 30
0.0
  0
SPLINE
  5
10b
100
AcDbEntity
  8
0
 62
7
100
AcDbSpline
 70
8
 71
3
 72
8
 73
4
 74
0
 40
0
 40
0
 40
0
 40
0
 40
1
 40
1
 40
1
 40
1
 10
135.086687
 20
125.068744
 30
0.0
 10
135.086687
 20
125.546134
 30
0.0
 10
134.897045
 20
126.003971
 30
0.0
 10
134.559479
 20
126.341536
 30
0.0
  0
SPLINE
  5
10c
100
AcDbEntity
  8
0
 62
7
100
AcDbSpline
 70
8
 71
3
 72
8
 73
4
 74
0
 40
0
 40
0
 40
0
 40
0
 40
1
 40
1
 40
1
 40
1
 10
134.559479
 20
126.341536
 30
0.0
 10
134.221914
 20
126.679102
 30
0.0
 10
133.764077
 20
126.868744
 30
0.0
 10
133.286687
 20
126.868744
 30
0.0
  0
LWPOLYLINE
  5
10d
100
AcDbEntity
  8
0
 62
7
100
AcDbPolyline
 90
2
 70
0
 10
174.841087
 20
172.033343
 30
0.0
 10
174.841087
 20
139.013344
 30
0.0
  0
SPLINE
  5
10e
100
AcDbEntity
  8
0
 62
7
100
AcDbSpline
 70
8
 71
3
 72
8
 73
4
 74
0
 40
0
 40
0
 40
0
 40
0
 40
1
 40
1
 40
1
 40
1
 10
196.482000
 20
171.064400
 30
0.0
 10
195.487887
 20
171.064400
 30
0.0
 10
194.682000
 20
170.258513
 30
0.0
 10
194.682000
 20
169.264400
 30
0.0
  0
SPLINE
  5
10f
100
AcDbEntity
  8
0
 62
7
100
AcDbSpline
 70
8
 71
3
 72
8
 73
4
 74
0
 40
0
 40
0
 40
0
 40
0
 40
1
 40
1
 40
1
 40
1
 10
194.682000
 20
169.264400
 30
0.0
 10
194.682000
 20
168.270287
 30
0.0
 10
195.487887
 20
167.464400
 30
0.0
 10
196.482000
 20
167.464400
 30
0.0
  0
SPLINE
  5
110
100
AcDbEntity
  8
0
 62
7
100
AcDbSpline
 70
8
 71
3
 72
8
 73
4
 74
0
 40
0
 40
0
 40
0
 40
0
 40
1
 40
1
 40
1
 40
1
 10
196.482000
 20
167.464400
 30
0.0
 10
197.476113
 20
167.464400
 30
0.0
 10
198.282000
 20
168.270287
 30
0.0
 10
198.282000
 20
169.264400
 30
0.0
  0
SPLINE
  5
111
100
AcDbEntity
  8
0
 62
7
100
AcDbSpline
 70
8
 71
3
 72
8
 73
4
 74
0
 40
0
 40
0
 40
0
 40
0
 40
1
 40
1
 40
1
 40
1
 10
198.282000
 20
169.264400
 30
0.0
 10
198.282000
 20
169.741790
 30
0.0
 10
198.092358
 20
170.199627
 30
0.0
 10
197.754792
 20
170.537192
 30
0.0
  0
SPLINE
  5
112
100
AcDbEntity
  8
0
 62
7
100
AcDbSpline
 70
8
 71
3
 72
8
 73
4
 74
0
 40
0
 40
0
 40
0
 40
0
 40
1
 40
1
 40
1
 40
1
 10
197.754792
 20
170.537192
 30
0.0
 10
197.417227
 20
170.874758
 30
0.0
 10
196.959390
 20
171.064400
 30
0.0
 10
196.482000
 20
171.064400
 30
0.0
  0
LWPOLYLINE
  5
113
100
AcDbEntity
  8
0
 62
7
100
AcDbPolyline
 90
1
 70
1
 10
133.286687
 20
126.868744
 30
0.0
  0
SPLINE
  5
114
100
AcDbEntity
  8
0
 62
7
100
AcDbSpline
 70
8
 71
3
 72
8
 73
4
 74
0
 40
0
 40
0
 40
0
 40
0
 40
1
 40
1
 40
1
 40
1
 10
113.677888
 20
166.797543
 30
0.0
 10
112.949856
 20
166.797543
 30
0.0
 10
112.293511
 20
166.358987
 30
0.0
 10
112.014905
 20
165.686373
 30
0.0
  0
SPLINE
  5
115
100
AcDbEntity
  8
0
 62
7
100
AcDbSpline
 70
8
 71
3
 72
8
 73
4
 74
0
 40
0
 40
0
 40
0
 40
0
 40
1
 40
1
 40
1
 40
1
 10
112.014905
 20
165.686373
 30
0.0
 10
111.736299
 20
165.013759
 30
0.0
 10
111.890299
 20
164.239547
 30
0.0
 10
112.405096
 20
163.724751
 30
0.0
  0
SPLINE
  5
116
100
AcDbEntity
  8
0
 62
7
100
AcDbSpline
 70
8
 71
3
 72
8
 73
4
 74
0
 40
0
 40
0
 40
0
 40
0
 40
1
 40
1
 40
1
 40
1
 10
112.405096
 20
163.724751
 30
0.0
 10
112.919892
 20
163.209954
 30
0.0
 10
113.694104
 20
163.055954
 30
0.0
 10
114.366718
 20
163.334560
 30
0.0
  0
SPLINE
  5
117
100
AcDbEntity
  8
0
 62
7
100
AcDbSpline
 70
8
 71
3
 72
8
 73
4
 74
0
 40
0
 40
0
 40
0
 40
0
 40
1
 40
1
 40
1
 40
1
 10
114.366718
 20
163.334560
 30
0.0
 10
115.039332
 20
163.613166
 30
0.0
 10
115.477888
 20
164.269511
 30
0.0
 10
115.477888
 20
164.997543
 30
0.0
  0
SPLINE
  5
118
100
AcDbEntity
  8
0
 62
7
100
AcDbSpline
 70
8
 71
3
 72
8
 73
4
 74
0
 40
0
 40
0
 40
0
 40
0
 40
1
 40
1
 40
1
 40
1
 10
115.477888
 20
164.997543
 30
0.0
 10
115.477888
 20
165.474933
 30
0.0
 10
115.288246
 20
165.932770
 30
0.0
 10
114.950680
 20
166.270335
 30
0.0
  0
SPLINE
  5
119
100
AcDbEntity
  8
0
 62
7
100
AcDbSpline
 70
8
 71
3
 72
8
 73
4
 74
0
 40
0
 40
0
 40
0
 40
0
 40
1
 40
1
 40
1
 40
1
 10
114.950680
 20
166.270335
 30
0.0
 10
114.613115
 20
166.607901
 30
0.0
 10
114.155278
 20
166.797543
 30
0.0
 10
113.677888
 20
166.797543
 30
0.0
  0
LWPOLYLINE
  5
11a
100
AcDbEntity
  8
0
 62
7
100
AcDbPolyline
 90
1
 70
1
 10
196.482000
 20
171.064400
 30
0.0
  0
SPLINE
  5
11b
100
AcDbEntity
  8
0
 62
7
100
AcDbSpline
 70
8
 71
3
 72
8
 73
4
 74
0
 40
0
 40
0
 40
0
 40
0
 40
1
 40
1
 40
1
 40
1
 10
76.848000
 20
131.491200
 30
0.0
 10
76.119968
 20
131.491200
 30
0.0
 10
75.463623
 20
131.052644
 30
0.0
 10
75.185017
 20
130.380030
 30
0.0
  0
SPLINE
  5
11c
100
AcDbEntity
  8
0
 62
7
100
AcDbSpline
 70
8
 71
3
 72
8
 73
4
 74
0
 40
0
 40
0
 40
0
 40
0
 40
1
 40
1
 40
1
 40
1
 10
75.185017
 20
130.380030
 30
0.0
 10
74.906411
 20
129.707416
 30
0.0
 10
75.060411
 20
128.933204
 30
0.0
 10
75.575208
 20
128.418408
 30
0.0
  0
SPLINE
  5
11d
100
AcDbEntity
  8
0
 62
7
100
AcDbSpline
 70
8
 71
3
 72
8
 73
4
 74
0
 40
0
 40
0
 40
0
 40
0
 40
1
 40
1
 40
1
 40
1
 10
75.575208
 20
128.418408
 30
0.0
 10
76.090004
 20
127.903611
 30
0.0
 10
76.864216
 20
127.749611
 30
0.0
 10
77.536830
 20
128.028217
 30
0.0
  0
SPLINE
  5
11e
100
AcDbEntity
  8
0
 62
7
100
AcDbSpline
 70
8
 71
3
 72
8
 73
4
 74
0
 40
0
 40
0
 40
0
 40
0
 40
1
 40
1
 40
1
 40
1
 10
77.536830
 20
128.028217
 30
0.0
 10
78.209444
 20
128.306823
 30
0.0
 10
78.648000
 20
128.963168
 30
0.0
 10
78.648000
 20
129.691200
 30
0.0
  0
SPLINE
  5
11f
100
AcDbEntity
  8
0
 62
7
100
AcDbSpline
 70
8
 71
3
 72
8
 73
4
 74
0
 40
0
 40
0
 40
0
 40
0
 40
1
 40
1
 40
1
 40
1
 10
78.648000
 20
129.691200
 30
0.0
 10
78.648000
 20
130.168590
 30
0.0
 10
78.458358
 20
130.626427
 30
0.0
 10
78.120792
 20
130.963992
 30
0.0
  0
SPLINE
  5
120
100
AcDbEntity
  8
0
 62
7
100
AcDbSpline
 70
8
 71
3
 72
8
 73
4
 74
0
 40
0
 40
0
 40
0
 40
0
 40
1
 40
1
 40
1
 40
1
 10
78.120792
 20
130.963992
 30
0.0
 10
77.783227
 20
131.301558
 30
0.0
 10
77.325390
 20
131.491200
 30
0.0
 10
76.848000
 20
131.491200
 30
0.0
  0
LWPOLYLINE
  5
121
100
AcDbEntity
  8
0
 62
7
100
AcDbPolyline
 90
1
 70
1
 10
113.677888
 20
166.797543
 30
0.0
  0
SPLINE
  5
122
100
AcDbEntity
  8
0
 62
7
100
AcDbSpline
 70
8
 71
3
 72
8
 73
4
 74
0
 40
0
 40
0
 40
0
 40
0
 40
1
 40
1
 40
1
 40
1
 10
193.180000
 20
109.469400
 30
0.0
 10
192.451968
 20
109.469400
 30
0.0
 10
191.795623
 20
109.030844
 30
0.0
 10
191.517017
 20
108.358230
 30
0.0
  0
SPLINE
  5
123
100
AcDbEntity
  8
0
 62
7
100
AcDbSpline
 70
8
 71
3
 72
8
 73
4
 74
0
 40
0
 40
0
 40
0
 40
0
 40
1
 40
1
 40
1
 40
1
 10
191.517017
 20
108.358230
 30
0.0
 10
191.238411
 20
107.685616
 30
0.0
 10
191.392411
 20
106.911404
 30
0.0
 10
191.907208
 20
106.396608
 30
0.0
  0
SPLINE
  5
124
100
AcDbEntity
  8
0
 62
7
100
AcDbSpline
 70
8
 71
3
 72
8
 73
4
 74
0
 40
0
 40
0
 40
0
 40
0
 40
1
 40
1
 40
1
 40
1
 10
191.907208
 20
106.396608
 30
0.0
 10
192.422004
 20
105.881811
 30
0.0
 10
193.196216
 20
105.727811
 30
0.0
 10
193.868830
 20
106.006417
 30
0.0
  0
SPLINE
  5
125
100
AcDbEntity
  8
0
 62
7
100
AcDbSpline
 70
8
 71
3
 72
8
 73
4
 74
0
 40
0
 40
0
 40
0
 40
0
 40
1
 40
1
 40
1
 40
1
 10
193.868830
 20
106.006417
 30
0.0
 10
194.541444
 20
106.285023
 30
0.0
 10
194.980000
 20
106.941368
 30
0.0
 10
194.980000
 20
107.669400
 30
0.0
  0
SPLINE
  5
126
100
AcDbEntity
  8
0
 62
7
100
AcDbSpline
 70
8
 71
3
 72
8
 73
4
 74
0
 40
0
 40
0
 40
0
 40
0
 40
1
 40
1
 40
1
 40
1
 10
194.980000
 20
107.669400
 30
0.0
 10
194.980000
 20
108.146790
 30
0.0
 10
194.790358
 20
108.604627
 30
0.0
 10
194.452792
 20
108.942192
 30
0.0
  0
SPLINE
  5
127
100
AcDbEntity
  8
0
 62
7
100
AcDbSpline
 70
8
 71
3
 72
8
 73
4
 74
0
 40
0
 40
0
 40
0
 40
0
 40
1
 40
1
 40
1
 40
1
 10
194.452792
 20
108.942192
 30
0.0
 10
194.115227
 20
109.279758
 30
0.0
 10
193.657390
 20
109.469400
 30
0.0
 10
193.180000
 20
109.469400
 30
0.0
  0
LWPOLYLINE
  5
128
100
AcDbEntity
  8
0
 62
7
100
AcDbPolyline
 90
1
 70
1
 10
76.848000
 20
131.491200
 30
0.0
  0
LWPOLYLINE
  5
129
100
AcDbEntity
  8
0
 62
7
100
AcDbPolyline
 90
1
 70
1
 10
193.180000
 20
109.469400
 30
0.0
  0
LWPOLYLINE
  5
12a
100
AcDbEntity
  8
0
 62
7
100
AcDbPolyline
 90
3
 70
0
 10
149.920555
 20
122.664781
 30
0.0
 10
150.182342
 20
137.662498
 30
0.0
 10
135.184625
 20
137.924285
 30
0.0
  0
LWPOLYLINE
  5
12b
100
AcDbEntity
  8
0
 62
7
100
AcDbPolyline
 90
2
 70
0
 10
134.922838
 20
122.926568
 30
0.0
 10
149.920555
 20
122.664781
 30
0.0
  0
LWPOLYLINE
  5
12c
100
AcDbEntity
  8
0
 62
7
100
AcDbPolyline
 90
2
 70
0
 10
135.184625
 20
137.924285
 30
0.0
 10
134.922838
 20
122.926568
 30
0.0
  0
LWPOLYLINE
  5
12d
100
AcDbEntity
  8
0
 62
7
100
AcDbPolyline
 90
3
 70
0
 10
150.217246
 20
139.662190
 30
0.0
 10
150.479033
 20
154.659907
 30
0.0
 10
135.481316
 20
154.921694
 30
0.0
  0
LWPOLYLINE
  5
12e
100
AcDbEntity
  8
0
 62
7
100
AcDbPolyline
 90
2
 70
0
 10
135.219529
 20
139.923977
 30
0.0
 10
150.217246
 20
139.662190
 30
0.0
  0
LWPOLYLINE
  5
12f
100
AcDbEntity
  8
0
 62
7
100
AcDbPolyline
 90
2
 70
0
 10
135.481316
 20
154.921694
 30
0.0
 10
135.219529
 20
139.923977
 30
0.0
  0
LWPOLYLINE
  5
130
100
AcDbEntity
  8
0
 62
7
100
AcDbPolyline
 90
3
 70
0
 10
173.814767
 20
89.887354
 30
0.0
 10
187.296678
 20
83.311787
 30
0.0
 10
193.872245
 20
96.793698
 30
0.0
  0
LWPOLYLINE
  5
131
100
AcDbEntity
  8
0
 62
7
100
AcDbPolyline
 90
2
 70
0
 10
180.390334
 20
103.369265
 30
0.0
 10
173.814767
 20
89.887354
 30
0.0
  0
LWPOLYLINE
  5
132
100
AcDbEntity
  8
0
 62
7
100
AcDbPolyline
 90
2
 70
0
 10
193.872245
 20
96.793698
 30
0.0
 10
180.390334
 20
103.369265
 30
0.0
  0
LWPOLYLINE
  5
133
100
AcDbEntity
  8
0
 62
7
100
AcDbPolyline
 90
3
 70
0
 10
111.674591
 20
141.139150
 30
0.0
 10
110.889552
 20
156.118593
 30
0.0
 10
95.910109
 20
155.333554
 30
0.0
  0
LWPOLYLINE
  5
134
100
AcDbEntity
  8
0
 62
7
100
AcDbPolyline
 90
2
 70
0
 10
96.695148
 20
140.354111
 30
0.0
 10
111.674591
 20
141.139150
 30
0.0
  0
LWPOLYLINE
  5
135
100
AcDbEntity
  8
0
 62
7
100
AcDbPolyline
 90
2
 70
0
 10
95.910109
 20
155.333554
 30
0.0
 10
96.695148
 20
140.354111
 30
0.0
  0
LWPOLYLINE
  5
136
100
AcDbEntity
  8
0
 62
7
100
AcDbPolyline
 90
3
 70
0
 10
76.714348
 20
113.604922
 30
0.0
 10
75.407012
 20
128.547842
 30
0.0
 10
60.464092
 20
127.240506
 30
0.0
  0
LWPOLYLINE
  5
137
100
AcDbEntity
  8
0
 62
7
100
AcDbPolyline
 90
2
 70
0
 10
61.771428
 20
112.297586
 30
0.0
 10
76.714348
 20
113.604922
 30
0.0
  0
LWPOLYLINE
  5
138
100
AcDbEntity
  8
0
 62
7
100
AcDbPolyline
 90
2
 70
0
 10
60.464092
 20
127.240506
 30
0.0
 10
61.771428
 20
112.297586
 30
0.0
  0
LWPOLYLINE
  5
139
100
AcDbEntity
  8
0
 62
7
100
AcDbPolyline
 90
3
 70
0
 10
110.784881
 20
158.115853
 30
0.0
 10
109.999842
 20
173.095296
 30
0.0
 10
95.020399
 20
172.310257
 30
0.0
  0
LWPOLYLINE
  5
13a
100
AcDbEntity
  8
0
 62
7
100
AcDbPolyline
 90
2
 70
0
 10
95.805438
 20
157.330814
 30
0.0
 10
110.784881
 20
158.115853
 30
0.0
  0
LWPOLYLINE
  5
13b
100
AcDbEntity
  8
0
 62
7
100
AcDbPolyline
 90
2
 70
0
 10
95.020399
 20
172.310257
 30
0.0
 10
95.805438
 20
157.330814
 30
0.0
  0
LWPOLYLINE
  5
13c
100
AcDbEntity
  8
0
 62
7
100
AcDbPolyline
 90
3
 70
0
 10
75.232699
 20
130.540230
 30
0.0
 10
73.925363
 20
145.483150
 30
0.0
 10
58.982443
 20
144.175814
 30
0.0
  0
LWPOLYLINE
  5
13d
100
AcDbEntity
  8
0
 62
7
100
AcDbPolyline
 90
2
 70
0
 10
60.289779
 20
129.232894
 30
0.0
 10
75.232699
 20
130.540230
 30
0.0
  0
LWPOLYLINE
  5
13e
100
AcDbEntity
  8
0
 62
7
100
AcDbPolyline
 90
2
 70
0
 10
58.982443
 20
144.175814
 30
0.0
 10
60.289779
 20
129.232894
 30
0.0
  0
LWPOLYLINE
  5
13f
100
AcDbEntity
  8
0
 62
7
100
AcDbPolyline
 90
3
 70
0
 10
131.902593
 20
125.794534
 30
0.0
 10
131.902593
 20
140.794534
 30
0.0
 10
116.902593
 20
140.794534
 30
0.0
  0
LWPOLYLINE
  5
140
100
AcDbEntity
  8
0
 62
7
100
AcDbPolyline
 90
2
 70
0
 10
116.902593
 20
125.794534
 30
0.0
 10
131.902593
 20
125.794534
 30
0.0
  0
LWPOLYLINE
  5
141
100
AcDbEntity
  8
0
 62
7
100
AcDbPolyline
 90
2
 70
0
 10
116.902593
 20
140.794534
 30
0.0
 10
116.902593
 20
125.794534
 30
0.0
  0
LWPOLYLINE
  5
142
100
AcDbEntity
  8
0
 62
7
100
AcDbPolyline
 90
3
 70
0
 10
112.564306
 20
124.162448
 30
0.0
 10
111.779267
 20
139.141891
 30
0.0
 10
96.799824
 20
138.356852
 30
0.0
  0
LWPOLYLINE
  5
143
100
AcDbEntity
  8
0
 62
7
100
AcDbPolyline
 90
2
 70
0
 10
97.584863
 20
123.377409
 30
0.0
 10
112.564306
 20
124.162448
 30
0.0
  0
LWPOLYLINE
  5
144
100
AcDbEntity
  8
0
 62
7
100
AcDbPolyline
 90
2
 70
0
 10
96.799824
 20
138.356852
 30
0.0
 10
97.584863
 20
123.377409
 30
0.0
  0
LWPOLYLINE
  5
145
100
AcDbEntity
  8
0
 62
7
100
AcDbPolyline
 90
3
 70
0
 10
91.682555
 20
149.044345
 30
0.0
 10
90.375219
 20
163.987265
 30
0.0
 10
75.432299
 20
162.679929
 30
0.0
  0
LWPOLYLINE
  5
146
100
AcDbEntity
  8
0
 62
7
100
AcDbPolyline
 90
2
 70
0
 10
76.739635
 20
147.737009
 30
0.0
 10
91.682555
 20
149.044345
 30
0.0
  0
LWPOLYLINE
  5
147
100
AcDbEntity
  8
0
 62
7
100
AcDbPolyline
 90
2
 70
0
 10
75.432299
 20
162.679929
 30
0.0
 10
76.739635
 20
147.737009
 30
0.0
  0
LWPOLYLINE
  5
148
100
AcDbEntity
  8
0
 62
7
100
AcDbPolyline
 90
3
 70
0
 10
131.902590
 20
159.794532
 30
0.0
 10
131.902590
 20
174.794532
 30
0.0
 10
116.902590
 20
174.794532
 30
0.0
  0
LWPOLYLINE
  5
149
100
AcDbEntity
  8
0
 62
7
100
AcDbPolyline
 90
2
 70
0
 10
116.902590
 20
159.794532
 30
0.0
 10
131.902590
 20
159.794532
 30
0.0
  0
LWPOLYLINE
  5
14a
100
AcDbEntity
  8
0
 62
7
100
AcDbPolyline
 90
2
 70
0
 10
116.902590
 20
174.794532
 30
0.0
 10
116.902590
 20
159.794532
 30
0.0
  0
LWPOLYLINE
  5
14b
100
AcDbEntity
  8
0
 62
7
100
AcDbPolyline
 90
3
 70
0
 10
171.118761
 20
91.202105
 30
0.0
 10
177.694328
 20
104.684016
 30
0.0
 10
164.212417
 20
111.259583
 30
0.0
  0
LWPOLYLINE
  5
14c
100
AcDbEntity
  8
0
 62
7
100
AcDbPolyline
 90
2
 70
0
 10
157.636850
 20
97.777672
 30
0.0
 10
171.118761
 20
91.202105
 30
0.0
  0
LWPOLYLINE
  5
14d
100
AcDbEntity
  8
0
 62
7
100
AcDbPolyline
 90
2
 70
0
 10
164.212417
 20
111.259583
 30
0.0
 10
157.636850
 20
97.777672
 30
0.0
  0
LWPOLYLINE
  5
14e
100
AcDbEntity
  8
0
 62
7
100
AcDbPolyline
 90
3
 70
0
 10
93.164206
 20
132.109035
 30
0.0
 10
91.856870
 20
147.051955
 30
0.0
 10
76.913950
 20
145.744619
 30
0.0
  0
LWPOLYLINE
  5
14f
100
AcDbEntity
  8
0
 62
7
100
AcDbPolyline
 90
2
 70
0
 10
78.221286
 20
130.801699
 30
0.0
 10
93.164206
 20
132.109035
 30
0.0
  0
LWPOLYLINE
  5
150
100
AcDbEntity
  8
0
 62
7
100
AcDbPolyline
 90
2
 70
0
 10
76.913950
 20
145.744619
 30
0.0
 10
78.221286
 20
130.801699
 30
0.0
  0
LWPOLYLINE
  5
151
100
AcDbEntity
  8
0
 62
7
100
AcDbPolyline
 90
3
 70
0
 10
131.902589
 20
142.794531
 30
0.0
 10
131.902589
 20
157.794531
 30
0.0
 10
116.902589
 20
157.794531
 30
0.0
  0
LWPOLYLINE
  5
152
100
AcDbEntity
  8
0
 62
7
100
AcDbPolyline
 90
2
 70
0
 10
116.902589
 20
142.794531
 30
0.0
 10
131.902589
 20
142.794531
 30
0.0
  0
LWPOLYLINE
  5
153
100
AcDbEntity
  8
0
 62
7
100
AcDbPolyline
 90
2
 70
0
 10
116.902589
 20
157.794531
 30
0.0
 10
116.902589
 20
142.794531
 30
0.0
  0
LWPOLYLINE
  5
154
100
AcDbEntity
  8
0
 62
7
100
AcDbPolyline
 90
3
 70
0
 10
94.645850
 20
115.173724
 30
0.0
 10
93.338514
 20
130.116644
 30
0.0
 10
78.395594
 20
128.809308
 30
0.0
  0
LWPOLYLINE
  5
155
100
AcDbEntity
  8
0
 62
7
100
AcDbPolyline
 90
2
 70
0
 10
79.702930
 20
113.866388
 30
0.0
 10
94.645850
 20
115.173724
 30
0.0
  0
LWPOLYLINE
  5
156
100
AcDbEntity
  8
0
 62
7
100
AcDbPolyline
 90
2
 70
0
 10
78.395594
 20
128.809308
 30
0.0
 10
79.702930
 20
113.866388
 30
0.0
  0
LWPOLYLINE
  5
157
100
AcDbEntity
  8
0
 62
7
100
AcDbPolyline
 90
3
 70
0
 10
73.751053
 20
147.475540
 30
0.0
 10
72.443717
 20
162.418460
 30
0.0
 10
57.500797
 20
161.111124
 30
0.0
  0
LWPOLYLINE
  5
158
100
AcDbEntity
  8
0
 62
7
100
AcDbPolyline
 90
2
 70
0
 10
58.808133
 20
146.168204
 30
0.0
 10
73.751053
 20
147.475540
 30
0.0
  0
LWPOLYLINE
  5
159
100
AcDbEntity
  8
0
 62
7
100
AcDbPolyline
 90
2
 70
0
 10
57.500797
 20
161.111124
 30
0.0
 10
58.808133
 20
146.168204
 30
0.0
  0
LWPOLYLINE
  5
15a
100
AcDbEntity
  8
0
 62
7
100
AcDbPolyline
 90
3
 70
0
 10
154.241012
 20
98.589898
 30
0.0
 10
154.502799
 20
113.587615
 30
0.0
 10
139.505082
 20
113.849402
 30
0.0
  0
LWPOLYLINE
  5
15b
100
AcDbEntity
  8
0
 62
7
100
AcDbPolyline
 90
2
 70
0
 10
139.243295
 20
98.851685
 30
0.0
 10
154.241012
 20
98.589898
 30
0.0
  0
LWPOLYLINE
  5
15c
100
AcDbEntity
  8
0
 62
7
100
AcDbPolyline
 90
2
 70
0
 10
139.505082
 20
113.849402
 30
0.0
 10
139.243295
 20
98.851685
 30
0.0
  0
LWPOLYLINE
  5
15d
100
AcDbEntity
  8
0
 62
7
100
AcDbPolyline
 90
3
 70
0
 10
168.529566
 20
134.213617
 30
0.0
 10
169.053058
 20
149.204479
 30
0.0
 10
154.062196
 20
149.727971
 30
0.0
  0
LWPOLYLINE
  5
15e
100
AcDbEntity
  8
0
 62
7
100
AcDbPolyline
 90
2
 70
0
 10
153.538704
 20
134.737109
 30
0.0
 10
168.529566
 20
134.213617
 30
0.0
  0
LWPOLYLINE
  5
15f
100
AcDbEntity
  8
0
 62
7
100
AcDbPolyline
 90
2
 70
0
 10
154.062196
 20
149.727971
 30
0.0
 10
153.538704
 20
134.737109
 30
0.0
  0
LWPOLYLINE
  5
160
100
AcDbEntity
  8
0
 62
7
100
AcDbPolyline
 90
3
 70
0
 10
167.936272
 20
117.223973
 30
0.0
 10
168.459764
 20
132.214835
 30
0.0
 10
153.468902
 20
132.738327
 30
0.0
  0
LWPOLYLINE
  5
161
100
AcDbEntity
  8
0
 62
7
100
AcDbPolyline
 90
2
 70
0
 10
152.945410
 20
117.747465
 30
0.0
 10
167.936272
 20
117.223973
 30
0.0
  0
LWPOLYLINE
  5
162
100
AcDbEntity
  8
0
 62
7
100
AcDbPolyline
 90
2
 70
0
 10
153.468902
 20
132.738327
 30
0.0
 10
152.945410
 20
117.747465
 30
0.0
  0
LWPOLYLINE
  5
163
100
AcDbEntity
  8
0
 62
7
100
AcDbPolyline
 90
3
 70
0
 10
169.122854
 20
151.203262
 30
0.0
 10
169.646346
 20
166.194124
 30
0.0
 10
154.655484
 20
166.717616
 30
0.0
  0
LWPOLYLINE
  5
164
100
AcDbEntity
  8
0
 62
7
100
AcDbPolyline
 90
2
 70
0
 10
154.131992
 20
151.726754
 30
0.0
 10
169.122854
 20
151.203262
 30
0.0
  0
LWPOLYLINE
  5
165
100
AcDbEntity
  8
0
 62
7
100
AcDbPolyline
 90
2
 70
0
 10
154.655484
 20
166.717616
 30
0.0
 10
154.131992
 20
151.726754
 30
0.0
  0
LWPOLYLINE
  5
166
100
AcDbEntity
  8
0
 62
7
100
AcDbPolyline
 90
3
 70
0
 10
150.513939
 20
156.659599
 30
0.0
 10
150.775726
 20
171.657316
 30
0.0
 10
135.778009
 20
171.919103
 30
0.0
  0
LWPOLYLINE
  5
167
100
AcDbEntity
  8
0
 62
7
100
AcDbPolyline
 90
2
 70
0
 10
135.516222
 20
156.921386
 30
0.0
 10
150.513939
 20
156.659599
 30
0.0
  0
LWPOLYLINE
  5
168
100
AcDbEntity
  8
0
 62
7
100
AcDbPolyline
 90
2
 70
0
 10
135.778009
 20
171.919103
 30
0.0
 10
135.516222
 20
156.921386
 30
0.0
  0
LWPOLYLINE
  5
169
100
AcDbEntity
  8
0
 62
7
100
AcDbPolyline
 90
2
 70
0
 10
90.821973
 20
166.490418
 30
0.0
 10
90.821972
 20
177.964246
 30
0.0
  0
LWPOLYLINE
  5
16a
100
AcDbEntity
  8
0
 62
7
100
AcDbPolyline
 90
2
 70
0
 10
170.230988
 20
89.699245
 30
0.0
 10
155.549789
 20
96.557245
 30
0.0
  0
LWPOLYLINE
  5
16b
100
AcDbEntity
  8
0
 62
7
100
AcDbPolyline
 90
2
 70
0
 10
135.813990
 20
120.257801
 30
0.0
 10
99.413615
 20
120.255445
 30
0.0
  0
LWPOLYLINE
  5
16c
100
AcDbEntity
  8
0
 62
7
100
AcDbPolyline
 90
2
 70
0
 10
200.154310
 20
172.477843
 30
0.0
 10
200.154310
 20
102.632418
 30
0.0
  0
LWPOLYLINE
  5
16d
100
AcDbEntity
  8
0
 62
7
100
AcDbPolyline
 90
2
 70
0
 10
154.051187
 20
174.611444
 30
0.0
 10
154.051189
 20
172.477843
 30
0.0
  0
LWPOLYLINE
  5
16e
100
AcDbEntity
  8
0
 62
7
100
AcDbPolyline
 90
2
 70
0
 10
53.501203
 20
163.225272
 30
0.0
 10
90.821973
 20
166.490418
 30
0.0
  0
LWPOLYLINE
  5
16f
100
AcDbEntity
  8
0
 62
7
100
AcDbPolyline
 90
2
 70
0
 10
200.154310
 20
102.632418
 30
0.0
 10
186.775038
 20
75.200846
 30
0.0
  0
LWPOLYLINE
  5
170
100
AcDbEntity
  8
0
 62
7
100
AcDbPolyline
 90
2
 70
0
 10
58.146303
 20
110.448267
 30
0.0
 10
99.439015
 20
114.074279
 30
0.0
  0
LWPOLYLINE
  5
171
100
AcDbEntity
  8
0
 62
7
100
AcDbPolyline
 90
2
 70
0
 10
135.407588
 20
174.611445
 30
0.0
 10
154.051187
 20
174.611444
 30
0.0
  0
LWPOLYLINE
  5
172
100
AcDbEntity
  8
0
 62
7
100
AcDbPolyline
 90
2
 70
0
 10
99.413615
 20
120.255445
 30
0.0
 10
99.439015
 20
114.074279
 30
0.0
  0
LWPOLYLINE
  5
173
100
AcDbEntity
  8
0
 62
7
100
AcDbPolyline
 90
2
 70
0
 10
58.146303
 20
110.448267
 30
0.0
 10
53.501203
 20
163.225272
 30
0.0
  0
LWPOLYLINE
  5
174
100
AcDbEntity
  8
0
 62
7
100
AcDbPolyline
 90
2
 70
0
 10
186.775038
 20
75.200846
 30
0.0
 10
167.716386
 20
84.543043
 30
0.0
  0
LWPOLYLINE
  5
175
100
AcDbEntity
  8
0
 62
7
100
AcDbPolyline
 90
2
 70
0
 10
154.051189
 20
172.477843
 30
0.0
 10
200.154310
 20
172.477843
 30
0.0
  0
LWPOLYLINE
  5
176
100
AcDbEntity
  8
0
 62
7
100
AcDbPolyline
 90
2
 70
0
 10
135.813990
 20
97.141444
 30
0.0
 10
135.813990
 20
120.257801
 30
0.0
  0
LWPOLYLINE
  5
177
100
AcDbEntity
  8
0
 62
7
100
AcDbPolyline
 90
2
 70
0
 10
155.549789
 20
96.557245
 30
0.0
 10
135.813990
 20
97.141444
 30
0.0
  0
LWPOLYLINE
  5
178
100
AcDbEntity
  8
0
 62
7
100
AcDbPolyline
 90
2
 70
0
 10
135.407588
 20
177.964245
 30
0.0
 10
135.407588
 20
174.611445
 30
0.0
  0
LWPOLYLINE
  5
179
100
AcDbEntity
  8
0
 62
7
100
AcDbPolyline
 90
2
 70
0
 10
167.716386
 20
84.543043
 30
0.0
 10
170.230988
 20
89.699245
 30
0.0
  0
LWPOLYLINE
  5
17a
100
AcDbEntity
  8
0
 62
7
100
AcDbPolyline
 90
2
 70
0
 10
90.821972
 20
177.964246
 30
0.0
 10
135.407588
 20
177.964245
 30
0.0
  0
ENDSEC
  0
SECTION
  2
OBJECTS
  0
DICTIONARY
  5
C
330
0
100
AcDbDictionary
  3
ACAD_GROUP
350
D
  3
ACAD_MLINESTYLE
350
17
  0
DICTIONARY
  5
D
330
C
100
AcDbDictionary
  0
DICTIONARY
  5
1A
330
C
100
AcDbDictionary
  0
DICTIONARY
  5
17
330
C
100
AcDbDictionary
  3
STANDARD
350
18
  0
DICTIONARY
  5
19
330
C
100
AcDbDictionary
  0
ENDSEC
  0
EOF
