G04 #@! TF.GenerationSoftware,KiCad,Pcbnew,8.0.4*
G04 #@! TF.CreationDate,2024-09-08T01:48:39+02:00*
G04 #@! TF.ProjectId,hookah,686f6f6b-6168-42e6-9b69-6361645f7063,1*
G04 #@! TF.SameCoordinates,Original*
G04 #@! TF.FileFunction,Paste,Top*
G04 #@! TF.FilePolarity,Positive*
%FSLAX46Y46*%
G04 Gerber Fmt 4.6, Leading zero omitted, Abs format (unit mm)*
G04 Created by KiCad (PCBNEW 8.0.4) date 2024-09-08 01:48:39*
%MOMM*%
%LPD*%
G01*
G04 APERTURE LIST*
G04 Aperture macros list*
%AMRotRect*
0 Rectangle, with rotation*
0 The origin of the aperture is its center*
0 $1 length*
0 $2 width*
0 $3 Rotation angle, in degrees counterclockwise*
0 Add horizontal line*
21,1,$1,$2,0,0,$3*%
G04 Aperture macros list end*
%ADD10RotRect,2.600000X2.600000X179.000000*%
%ADD11RotRect,2.600000X2.600000X244.000000*%
%ADD12RotRect,2.600000X2.600000X183.000000*%
%ADD13RotRect,2.600000X2.600000X185.000000*%
%ADD14C,1.524000*%
%ADD15R,1.524000X1.524000*%
%ADD16R,1.100000X0.600000*%
%ADD17R,1.000000X0.600000*%
%ADD18R,0.600000X1.000000*%
%ADD19R,2.600000X2.600000*%
%ADD20RotRect,2.600000X2.600000X154.000000*%
%ADD21R,1.700000X0.900000*%
%ADD22RotRect,2.600000X2.600000X178.000000*%
G04 APERTURE END LIST*
D10*
X145930934Y-73820730D03*
X134344298Y-75818819D03*
X146227625Y-56823321D03*
X134640989Y-58821410D03*
D11*
X179931347Y-111114814D03*
X176845508Y-122460302D03*
D12*
X106751464Y-55657602D03*
X95332432Y-58459067D03*
D13*
X71333182Y-83371692D03*
X60018876Y-86569970D03*
D12*
X105861754Y-38680899D03*
X94442722Y-41482364D03*
D13*
X69851533Y-66436384D03*
X58537227Y-69634662D03*
D14*
X191363788Y-41796555D03*
X176123788Y-41796555D03*
D15*
X176123788Y-41796555D03*
D14*
X191363788Y-44336555D03*
X176123788Y-44336555D03*
X191363788Y-46876555D03*
X176123788Y-46876555D03*
X191363788Y-49416555D03*
X176123788Y-49416555D03*
X176123788Y-51956555D03*
X191363788Y-51956556D03*
X191363788Y-54496554D03*
X176123788Y-54496555D03*
X191363788Y-57036555D03*
X176123788Y-57036556D03*
X176123788Y-59576554D03*
X191363788Y-59576555D03*
X191363788Y-62116555D03*
X176123788Y-62116555D03*
X191363788Y-64656555D03*
X176123788Y-64656555D03*
X191363788Y-67196555D03*
X176123788Y-67196555D03*
X191363788Y-69736555D03*
X176123788Y-69736555D03*
D16*
X180257687Y-38227857D03*
D17*
X187457687Y-38227858D03*
D16*
X187457687Y-40513858D03*
D17*
X180257687Y-40513858D03*
D18*
X186057688Y-41220858D03*
X183157687Y-41220858D03*
X181657687Y-41220858D03*
D19*
X127677594Y-70762666D03*
X116127594Y-72962666D03*
D12*
X107641179Y-72634304D03*
X96222147Y-75435769D03*
D13*
X86301389Y-47932269D03*
X74987083Y-51130547D03*
D19*
X127677591Y-36762668D03*
X116127591Y-38962668D03*
D20*
X173217449Y-104864197D03*
X161871961Y-101778358D03*
D13*
X87783040Y-64867579D03*
X76468734Y-68065857D03*
D19*
X127677590Y-53762669D03*
X116127590Y-55962669D03*
D13*
X89264684Y-81802890D03*
X77950378Y-85001168D03*
X68369887Y-49501074D03*
X57055581Y-52699352D03*
D21*
X178295487Y-78027856D03*
X178295487Y-74627856D03*
D10*
X150251391Y-97895613D03*
X138664755Y-99893702D03*
D22*
X164776539Y-62204326D03*
X153156796Y-63999897D03*
X164183245Y-79193970D03*
X152563502Y-80989541D03*
X165369827Y-45214681D03*
X153750084Y-47010252D03*
D10*
X146524318Y-39825912D03*
X134937682Y-41824001D03*
M02*
