M48
; DRILL file {KiCad 8.0.5} date 2024-10-04T22:09:55+0200
; FORMAT={-:-/ absolute / metric / decimal}
; #@! TF.CreationDate,2024-10-04T22:09:55+02:00
; #@! TF.GenerationSoftware,Kicad,Pcbnew,8.0.5
; #@! TF.FileFunction,Plated,1,2,PTH
FMAT,2
METRIC
; #@! TA.AperFunction,Plated,PTH,ViaDrill
T1C0.300
; #@! TA.AperFunction,Plated,PTH,ComponentDrill
T2C0.300
; #@! TA.AperFunction,Plated,PTH,ViaDrill
T3C0.400
; #@! TA.AperFunction,Plated,PTH,ComponentDrill
T4C0.500
; #@! TA.AperFunction,Plated,PTH,ComponentDrill
T5C0.750
; #@! TA.AperFunction,Plated,PTH,ComponentDrill
T6C0.813
; #@! TA.AperFunction,Plated,PTH,ComponentDrill
T7C1.000
; #@! TA.AperFunction,Plated,PTH,ComponentDrill
T8C1.270
; #@! TA.AperFunction,Plated,PTH,ComponentDrill
T9C1.500
; #@! TA.AperFunction,Plated,PTH,ComponentDrill
T10C3.600
%
G90
G05
T1
X62.779Y-48.259
X62.878Y-54.047
X64.261Y-65.194
X64.359Y-70.982
X65.742Y-82.13
X65.841Y-87.918
X72.41Y-53.128
X73.891Y-70.063
X75.373Y-86.999
X80.711Y-46.69
X80.809Y-52.478
X82.192Y-63.626
X82.291Y-69.414
X83.674Y-80.561
X83.772Y-86.349
X90.341Y-51.559
X91.823Y-68.494
X93.304Y-85.43
X100.013Y-91.187
X100.013Y-92.203
X100.214Y-43.032
X100.318Y-37.245
X101.104Y-60.009
X101.207Y-54.221
X101.892Y-98.655
X101.994Y-76.986
X102.097Y-71.198
X102.33Y-93.549
X102.858Y-90.578
X102.908Y-96.801
X103.628Y-88.704
X107.632Y-47.439
X109.772Y-42.447
X110.662Y-59.423
X111.552Y-76.4
X120.587Y-87.961
X121.253Y-83.821
X121.81Y-74.813
X121.81Y-57.813
X121.81Y-40.813
X122.216Y-52.038
X122.216Y-69.038
X122.216Y-35.038
X122.72Y-79.325
X131.386Y-74.728
X131.386Y-40.728
X131.386Y-57.728
X132.677Y-45.721
X134.912Y-64.771
X135.598Y-83.948
X136.767Y-87.53
X136.767Y-89.562
X137.833Y-82.526
X139.256Y-70.639
X139.281Y-90.12
X139.561Y-61.596
X139.81Y-77.813
X139.81Y-43.813
X140.216Y-72.038
X140.216Y-38.038
X141.491Y-91.898
X141.821Y-94.159
X141.821Y-95.886
X145.682Y-79.859
X146.215Y-86.361
X146.977Y-84.583
X147.663Y-89.435
X147.892Y-84.405
X149.238Y-98.934
X149.386Y-77.728
X149.386Y-43.728
X150.686Y-85.625
X151.397Y-80.595
X151.448Y-83.897
X152.21Y-69.496
X152.564Y-51.299
X155.029Y-80.164
X155.334Y-62.663
X155.563Y-53.849
X157.239Y-79.376
X157.239Y-80.595
X157.253Y-75.693
X157.722Y-88.774
X158.216Y-43.038
X158.255Y-105.259
X162.344Y-96.521
X162.37Y-94.108
X163.665Y-92.381
X165.994Y-105.804
X167.386Y-48.728
X168.891Y-100.792
X168.974Y-86.615
X170.599Y-82.881
X171.107Y-93.93
X171.158Y-96.724
X171.463Y-50.446
X171.463Y-52.046
X171.793Y-60.199
X172.073Y-55.373
X172.172Y-45.757
X172.377Y-58.167
X172.454Y-77.116
X172.644Y-46.166
X173.52Y-38.838
X174.13Y-61.088
X174.556Y-54.515
X174.638Y-109.925
X174.689Y-55.754
X174.689Y-93.549
X174.843Y-77.139
X175.324Y-68.48
X175.806Y-74.22
X175.814Y-115.14
X177.171Y-96.223
X178.905Y-95.505
X179.388Y-75.033
X179.591Y-49.633
X179.667Y-56.338
X179.667Y-58.802
X179.667Y-66.448
X179.68Y-53.642
X179.68Y-51.957
X179.754Y-54.497
X179.756Y-46.242
X179.769Y-44.324
X179.845Y-57.05
X179.87Y-42.368
X181.445Y-43.308
X181.445Y-46.242
X181.471Y-49.785
X181.66Y-41.86
X184.036Y-49.785
X184.88Y-109.778
X186.956Y-48.226
X187.694Y-57.05
X187.729Y-52.601
X187.749Y-48.792
X187.821Y-59.59
X187.821Y-61.749
X187.821Y-63.908
X187.833Y-41.86
X187.833Y-46.877
X187.846Y-67.184
X187.856Y-54.506
X187.998Y-43.308
X188.073Y-113.335
X191.681Y-73.636
X192.545Y-48.617
X193.824Y-45.797
X193.891Y-73.585
X194.399Y-65.838
X194.501Y-43.384
X194.679Y-60.834
T2
X64.325Y-60.497
X65.807Y-77.432
X67.289Y-94.368
X67.613Y-60.209
X69.095Y-77.145
X70.576Y-94.08
X82.257Y-58.928
X83.739Y-75.864
X85.22Y-92.799
X85.544Y-58.641
X87.026Y-75.576
X88.508Y-92.511
X101.436Y-49.529
X102.326Y-66.506
X103.215Y-83.482
X104.732Y-49.356
X105.621Y-66.333
X106.511Y-83.31
X122.69Y-47.364
X122.69Y-64.364
X122.69Y-81.364
X125.99Y-47.364
X125.99Y-64.364
X125.99Y-81.364
X130.546Y-63.603
X133.846Y-63.603
X140.69Y-84.364
X140.69Y-50.364
X143.99Y-84.364
X143.99Y-50.364
X145.08Y-108.409
X148.379Y-108.466
X158.612Y-63.069
X158.662Y-79.935
X161.912Y-63.069
X161.962Y-79.935
X164.087Y-112.207
X165.216Y-55.373
X167.053Y-113.653
X168.516Y-55.373
X178.941Y-124.531
X181.907Y-125.978
X190.844Y-85.523
X194.144Y-85.523
T3
X183.96Y-39.981
T4
X110.817Y-87.405
X113.267Y-87.405
X115.717Y-87.405
X118.167Y-87.405
T5
X191.148Y-76.201
X191.148Y-78.201
T6
X176.124Y-41.797
X176.124Y-44.337
X176.124Y-46.877
X176.124Y-49.417
X176.124Y-51.957
X176.124Y-54.497
X176.124Y-57.037
X176.124Y-59.577
X176.124Y-62.117
X176.124Y-64.657
X176.124Y-67.197
X176.124Y-69.737
X191.364Y-41.797
X191.364Y-44.337
X191.364Y-46.877
X191.364Y-49.417
X191.364Y-51.957
X191.364Y-54.497
X191.364Y-57.037
X191.364Y-59.577
X191.364Y-62.117
X191.364Y-64.657
X191.364Y-67.197
X191.364Y-69.737
T7
X144.373Y-96.788
X144.373Y-111.288
X146.873Y-111.288
X149.373Y-96.788
X149.373Y-111.288
X177.171Y-88.713
X177.171Y-91.213
X177.171Y-93.713
X191.671Y-88.713
X191.671Y-93.713
T8
X141.873Y-99.988
X146.873Y-97.888
X151.873Y-99.988
T10
X141.872Y-56.745
X160.872Y-56.745
T9
X141.273Y-104.438G85X141.273Y-103.138
G05
X152.473Y-104.438G85X152.473Y-103.138
G05
X184.021Y-96.813G85X185.321Y-96.813
G05
X184.021Y-85.613G85X185.321Y-85.613
G05
M30
