G04 #@! TF.GenerationSoftware,KiCad,Pcbnew,8.0.5*
G04 #@! TF.CreationDate,2024-10-04T22:09:34+02:00*
G04 #@! TF.ProjectId,hookah,686f6f6b-6168-42e6-9b69-6361645f7063,1*
G04 #@! TF.SameCoordinates,Original*
G04 #@! TF.FileFunction,Soldermask,Bot*
G04 #@! TF.FilePolarity,Negative*
%FSLAX46Y46*%
G04 Gerber Fmt 4.6, Leading zero omitted, Abs format (unit mm)*
G04 Created by KiCad (PCBNEW 8.0.5) date 2024-10-04 22:09:34*
%MOMM*%
%LPD*%
G01*
G04 APERTURE LIST*
G04 Aperture macros list*
%AMRoundRect*
0 Rectangle with rounded corners*
0 $1 Rounding radius*
0 $2 $3 $4 $5 $6 $7 $8 $9 X,Y pos of 4 corners*
0 Add a 4 corners polygon primitive as box body*
4,1,4,$2,$3,$4,$5,$6,$7,$8,$9,$2,$3,0*
0 Add four circle primitives for the rounded corners*
1,1,$1+$1,$2,$3*
1,1,$1+$1,$4,$5*
1,1,$1+$1,$6,$7*
1,1,$1+$1,$8,$9*
0 Add four rect primitives between the rounded corners*
20,1,$1+$1,$2,$3,$4,$5,0*
20,1,$1+$1,$4,$5,$6,$7,0*
20,1,$1+$1,$6,$7,$8,$9,0*
20,1,$1+$1,$8,$9,$2,$3,0*%
%AMRotRect*
0 Rectangle, with rotation*
0 The origin of the aperture is its center*
0 $1 length*
0 $2 width*
0 $3 Rotation angle, in degrees counterclockwise*
0 Add horizontal line*
21,1,$1,$2,0,0,$3*%
%AMFreePoly0*
4,1,6,0.600000,0.200000,0.000000,-0.400000,-0.600000,0.200000,-0.600000,0.400000,0.600000,0.400000,0.600000,0.200000,0.600000,0.200000,$1*%
%AMFreePoly1*
4,1,6,0.600000,-0.250000,-0.600000,-0.250000,-0.600000,1.000000,0.000000,0.400000,0.600000,1.000000,0.600000,-0.250000,0.600000,-0.250000,$1*%
G04 Aperture macros list end*
%ADD10C,0.200000*%
%ADD11RoundRect,0.225000X0.225000X0.375000X-0.225000X0.375000X-0.225000X-0.375000X0.225000X-0.375000X0*%
%ADD12C,1.701800*%
%ADD13C,3.000000*%
%ADD14C,3.429000*%
%ADD15R,2.600000X2.600000*%
%ADD16RotRect,2.600000X2.600000X244.000000*%
%ADD17RoundRect,0.225000X0.191460X0.393183X-0.256827X0.353963X-0.191460X-0.393183X0.256827X-0.353963X0*%
%ADD18RoundRect,0.225000X0.366618X0.238414X-0.037839X0.435681X-0.366618X-0.238414X0.037839X-0.435681X0*%
%ADD19RotRect,2.600000X2.600000X183.000000*%
%ADD20R,2.000000X2.000000*%
%ADD21C,2.000000*%
%ADD22R,3.200000X2.000000*%
%ADD23RotRect,2.600000X2.600000X185.000000*%
%ADD24C,3.600000*%
%ADD25C,1.524000*%
%ADD26R,1.524000X1.524000*%
%ADD27FreePoly0,270.000000*%
%ADD28FreePoly0,90.000000*%
%ADD29FreePoly1,90.000000*%
%ADD30FreePoly1,270.000000*%
%ADD31R,2.000000X3.200000*%
%ADD32C,0.700000*%
%ADD33RotRect,2.600000X2.600000X154.000000*%
%ADD34RoundRect,0.225000X0.205066X0.386262X-0.244318X0.362710X-0.205066X-0.386262X0.244318X-0.362710X0*%
%ADD35RoundRect,0.225000X0.231510X0.371016X-0.218421X0.378870X-0.231510X-0.371016X0.218421X-0.378870X0*%
%ADD36RoundRect,0.250000X-0.625000X0.350000X-0.625000X-0.350000X0.625000X-0.350000X0.625000X0.350000X0*%
%ADD37O,1.750000X1.200000*%
%ADD38C,6.200000*%
%ADD39C,6.000000*%
%ADD40RoundRect,0.500000X0.500000X-0.750000X0.500000X0.750000X-0.500000X0.750000X-0.500000X-0.750000X0*%
%ADD41C,0.990600*%
%ADD42C,2.032000*%
%ADD43RoundRect,0.160000X-0.197500X-0.160000X0.197500X-0.160000X0.197500X0.160000X-0.197500X0.160000X0*%
%ADD44R,1.000000X0.600000*%
%ADD45R,1.100000X0.600000*%
%ADD46R,0.600000X1.000000*%
%ADD47RoundRect,0.155000X0.212500X0.155000X-0.212500X0.155000X-0.212500X-0.155000X0.212500X-0.155000X0*%
%ADD48R,2.000000X0.610000*%
%ADD49RoundRect,0.160000X0.197500X0.160000X-0.197500X0.160000X-0.197500X-0.160000X0.197500X-0.160000X0*%
%ADD50R,1.700000X0.900000*%
G04 APERTURE END LIST*
D10*
X178663786Y-42304555D02*
X177647786Y-42304555D01*
X177647786Y-41288555D01*
X178663786Y-41288555D01*
X178663786Y-42304555D01*
G36*
X178663786Y-42304555D02*
G01*
X177647786Y-42304555D01*
X177647786Y-41288555D01*
X178663786Y-41288555D01*
X178663786Y-42304555D01*
G37*
X178663786Y-44844555D02*
X177647786Y-44844555D01*
X177647786Y-43828555D01*
X178663786Y-43828555D01*
X178663786Y-44844555D01*
G36*
X178663786Y-44844555D02*
G01*
X177647786Y-44844555D01*
X177647786Y-43828555D01*
X178663786Y-43828555D01*
X178663786Y-44844555D01*
G37*
X178663786Y-47384555D02*
X177647786Y-47384555D01*
X177647786Y-46368555D01*
X178663786Y-46368555D01*
X178663786Y-47384555D01*
G36*
X178663786Y-47384555D02*
G01*
X177647786Y-47384555D01*
X177647786Y-46368555D01*
X178663786Y-46368555D01*
X178663786Y-47384555D01*
G37*
X178663786Y-49924555D02*
X177647786Y-49924555D01*
X177647786Y-48908555D01*
X178663786Y-48908555D01*
X178663786Y-49924555D01*
G36*
X178663786Y-49924555D02*
G01*
X177647786Y-49924555D01*
X177647786Y-48908555D01*
X178663786Y-48908555D01*
X178663786Y-49924555D01*
G37*
X178663786Y-52464555D02*
X177647786Y-52464555D01*
X177647786Y-51448555D01*
X178663786Y-51448555D01*
X178663786Y-52464555D01*
G36*
X178663786Y-52464555D02*
G01*
X177647786Y-52464555D01*
X177647786Y-51448555D01*
X178663786Y-51448555D01*
X178663786Y-52464555D01*
G37*
X178663786Y-55004554D02*
X177647786Y-55004555D01*
X177647786Y-53988555D01*
X178663786Y-53988555D01*
X178663786Y-55004554D01*
G36*
X178663786Y-55004554D02*
G01*
X177647786Y-55004555D01*
X177647786Y-53988555D01*
X178663786Y-53988555D01*
X178663786Y-55004554D01*
G37*
X178663786Y-57544555D02*
X177647786Y-57544555D01*
X177647786Y-56528555D01*
X178663786Y-56528555D01*
X178663786Y-57544555D01*
G36*
X178663786Y-57544555D02*
G01*
X177647786Y-57544555D01*
X177647786Y-56528555D01*
X178663786Y-56528555D01*
X178663786Y-57544555D01*
G37*
X178663786Y-60084555D02*
X177647786Y-60084555D01*
X177647786Y-59068555D01*
X178663786Y-59068555D01*
X178663786Y-60084555D01*
G36*
X178663786Y-60084555D02*
G01*
X177647786Y-60084555D01*
X177647786Y-59068555D01*
X178663786Y-59068555D01*
X178663786Y-60084555D01*
G37*
X178663786Y-62624555D02*
X177647786Y-62624555D01*
X177647786Y-61608555D01*
X178663786Y-61608555D01*
X178663786Y-62624555D01*
G36*
X178663786Y-62624555D02*
G01*
X177647786Y-62624555D01*
X177647786Y-61608555D01*
X178663786Y-61608555D01*
X178663786Y-62624555D01*
G37*
X178663786Y-65164555D02*
X177647786Y-65164555D01*
X177647786Y-64148555D01*
X178663786Y-64148555D01*
X178663786Y-65164555D01*
G36*
X178663786Y-65164555D02*
G01*
X177647786Y-65164555D01*
X177647786Y-64148555D01*
X178663786Y-64148555D01*
X178663786Y-65164555D01*
G37*
X178663786Y-67704555D02*
X177647786Y-67704555D01*
X177647786Y-66688555D01*
X178663786Y-66688555D01*
X178663786Y-67704555D01*
G36*
X178663786Y-67704555D02*
G01*
X177647786Y-67704555D01*
X177647786Y-66688555D01*
X178663786Y-66688555D01*
X178663786Y-67704555D01*
G37*
X178663786Y-70244555D02*
X177647786Y-70244555D01*
X177647786Y-69228555D01*
X178663786Y-69228555D01*
X178663786Y-70244555D01*
G36*
X178663786Y-70244555D02*
G01*
X177647786Y-70244555D01*
X177647786Y-69228555D01*
X178663786Y-69228555D01*
X178663786Y-70244555D01*
G37*
X189839786Y-42304555D02*
X188823786Y-42304555D01*
X188823786Y-41288555D01*
X189839786Y-41288555D01*
X189839786Y-42304555D01*
G36*
X189839786Y-42304555D02*
G01*
X188823786Y-42304555D01*
X188823786Y-41288555D01*
X189839786Y-41288555D01*
X189839786Y-42304555D01*
G37*
X189839786Y-44844555D02*
X188823786Y-44844555D01*
X188823786Y-43828555D01*
X189839786Y-43828555D01*
X189839786Y-44844555D01*
G36*
X189839786Y-44844555D02*
G01*
X188823786Y-44844555D01*
X188823786Y-43828555D01*
X189839786Y-43828555D01*
X189839786Y-44844555D01*
G37*
X189839786Y-47384555D02*
X188823786Y-47384555D01*
X188823786Y-46368555D01*
X189839786Y-46368555D01*
X189839786Y-47384555D01*
G36*
X189839786Y-47384555D02*
G01*
X188823786Y-47384555D01*
X188823786Y-46368555D01*
X189839786Y-46368555D01*
X189839786Y-47384555D01*
G37*
X189839786Y-49924555D02*
X188823786Y-49924555D01*
X188823786Y-48908555D01*
X189839786Y-48908555D01*
X189839786Y-49924555D01*
G36*
X189839786Y-49924555D02*
G01*
X188823786Y-49924555D01*
X188823786Y-48908555D01*
X189839786Y-48908555D01*
X189839786Y-49924555D01*
G37*
X189839786Y-52464555D02*
X188823786Y-52464555D01*
X188823786Y-51448555D01*
X189839786Y-51448555D01*
X189839786Y-52464555D01*
G36*
X189839786Y-52464555D02*
G01*
X188823786Y-52464555D01*
X188823786Y-51448555D01*
X189839786Y-51448555D01*
X189839786Y-52464555D01*
G37*
X189839786Y-55004555D02*
X188823786Y-55004555D01*
X188823786Y-53988555D01*
X189839786Y-53988555D01*
X189839786Y-55004555D01*
G36*
X189839786Y-55004555D02*
G01*
X188823786Y-55004555D01*
X188823786Y-53988555D01*
X189839786Y-53988555D01*
X189839786Y-55004555D01*
G37*
X189839786Y-57544555D02*
X188823786Y-57544555D01*
X188823786Y-56528556D01*
X189839786Y-56528555D01*
X189839786Y-57544555D01*
G36*
X189839786Y-57544555D02*
G01*
X188823786Y-57544555D01*
X188823786Y-56528556D01*
X189839786Y-56528555D01*
X189839786Y-57544555D01*
G37*
X189839786Y-60084555D02*
X188823786Y-60084555D01*
X188823786Y-59068555D01*
X189839786Y-59068555D01*
X189839786Y-60084555D01*
G36*
X189839786Y-60084555D02*
G01*
X188823786Y-60084555D01*
X188823786Y-59068555D01*
X189839786Y-59068555D01*
X189839786Y-60084555D01*
G37*
X189839786Y-62624555D02*
X188823786Y-62624555D01*
X188823786Y-61608555D01*
X189839786Y-61608555D01*
X189839786Y-62624555D01*
G36*
X189839786Y-62624555D02*
G01*
X188823786Y-62624555D01*
X188823786Y-61608555D01*
X189839786Y-61608555D01*
X189839786Y-62624555D01*
G37*
X189839786Y-65164555D02*
X188823786Y-65164555D01*
X188823786Y-64148555D01*
X189839786Y-64148555D01*
X189839786Y-65164555D01*
G36*
X189839786Y-65164555D02*
G01*
X188823786Y-65164555D01*
X188823786Y-64148555D01*
X189839786Y-64148555D01*
X189839786Y-65164555D01*
G37*
X189839786Y-67704555D02*
X188823786Y-67704555D01*
X188823786Y-66688555D01*
X189839786Y-66688555D01*
X189839786Y-67704555D01*
G36*
X189839786Y-67704555D02*
G01*
X188823786Y-67704555D01*
X188823786Y-66688555D01*
X189839786Y-66688555D01*
X189839786Y-67704555D01*
G37*
X189839786Y-70244555D02*
X188823786Y-70244555D01*
X188823786Y-69228555D01*
X189839786Y-69228555D01*
X189839786Y-70244555D01*
G36*
X189839786Y-70244555D02*
G01*
X188823786Y-70244555D01*
X188823786Y-69228555D01*
X189839786Y-69228555D01*
X189839786Y-70244555D01*
G37*
D11*
X143990195Y-84364247D03*
X140690195Y-84364247D03*
D12*
X136902587Y-79712665D03*
X136902587Y-79712665D03*
D13*
X137402586Y-75962665D03*
X142402587Y-73762665D03*
D14*
X142402587Y-79712665D03*
X142402587Y-79712665D03*
X142402587Y-79712665D03*
D13*
X147402587Y-75962665D03*
D12*
X147902587Y-79712665D03*
X147902587Y-79712665D03*
D15*
X139127587Y-73762665D03*
X150677587Y-75962665D03*
D11*
X125990201Y-81364252D03*
X122690201Y-81364252D03*
D12*
X147902585Y-62712667D03*
X147902585Y-62712667D03*
D13*
X147402586Y-66462667D03*
X142402585Y-68662667D03*
D14*
X142402585Y-62712667D03*
X142402585Y-62712667D03*
X142402585Y-62712667D03*
D13*
X137402585Y-66462667D03*
D12*
X136902585Y-62712667D03*
X136902585Y-62712667D03*
D15*
X145677585Y-68662667D03*
X134127585Y-66462667D03*
D12*
X181432463Y-121610040D03*
X181432463Y-121610040D03*
D13*
X178281171Y-119516752D03*
X178495680Y-114058365D03*
D14*
X183843504Y-116666673D03*
X183843504Y-116666673D03*
X183843504Y-116666673D03*
D13*
X182664882Y-110528811D03*
D12*
X186254546Y-111723306D03*
X186254546Y-111723306D03*
D16*
X177060014Y-117001915D03*
X184100548Y-107585261D03*
D17*
X85544408Y-58640577D03*
X82256966Y-58928191D03*
D18*
X167053401Y-113653133D03*
X164087381Y-112206509D03*
D12*
X98299887Y-62058696D03*
X98299887Y-62058696D03*
D13*
X98602941Y-58287667D03*
X103480950Y-55829002D03*
D14*
X103792349Y-61770848D03*
X103792349Y-61770848D03*
X103792349Y-61770848D03*
D13*
X108589237Y-57764307D03*
D12*
X109284811Y-61483000D03*
X109284811Y-61483000D03*
D19*
X100210439Y-56000402D03*
X111859749Y-57592907D03*
D20*
X177170998Y-88712600D03*
D21*
X177170998Y-93712600D03*
X177170998Y-91212601D03*
D22*
X184670997Y-96812600D03*
X184670999Y-85612600D03*
D21*
X191670998Y-93712600D03*
X191670998Y-88712600D03*
D12*
X63110147Y-90063842D03*
X63110147Y-90063842D03*
D13*
X63281407Y-86284535D03*
X68070642Y-83657127D03*
D14*
X68589219Y-89584486D03*
X68589219Y-89584486D03*
X68589219Y-89584486D03*
D13*
X73243358Y-85412977D03*
D12*
X74068290Y-89105129D03*
X74068290Y-89105129D03*
D23*
X64808105Y-83942566D03*
X76505896Y-85127542D03*
D17*
X70576199Y-94080000D03*
X67288757Y-94367614D03*
D12*
X97410177Y-45081993D03*
X97410177Y-45081993D03*
D13*
X97713231Y-41310964D03*
X102591240Y-38852299D03*
D14*
X102902639Y-44794145D03*
X102902639Y-44794145D03*
X102902639Y-44794145D03*
D13*
X107699527Y-40787604D03*
D12*
X108395101Y-44506297D03*
X108395101Y-44506297D03*
D19*
X99320729Y-39023699D03*
X110970039Y-40616204D03*
D24*
X113677886Y-45009657D03*
D11*
X168515598Y-55373200D03*
X165215598Y-55373200D03*
D17*
X87026055Y-75575887D03*
X83738613Y-75863501D03*
D24*
X193179998Y-102337800D03*
D12*
X61628498Y-73128534D03*
X61628498Y-73128534D03*
D13*
X61799758Y-69349227D03*
X66588993Y-66721819D03*
D14*
X67107570Y-72649178D03*
X67107570Y-72649178D03*
X67107570Y-72649178D03*
D13*
X71761709Y-68477669D03*
D12*
X72586641Y-72169821D03*
X72586641Y-72169821D03*
D23*
X63326456Y-67007258D03*
X75024247Y-68192234D03*
D25*
X191363786Y-41796555D03*
D26*
X191363786Y-41796555D03*
D27*
X189585786Y-41796555D03*
D28*
X177901786Y-41796555D03*
D25*
X176123786Y-41796555D03*
X191363786Y-44336555D03*
D27*
X189585786Y-44336555D03*
D28*
X177901786Y-44336555D03*
D25*
X176123786Y-44336555D03*
X191363786Y-46876555D03*
D27*
X189585786Y-46876555D03*
D28*
X177901786Y-46876555D03*
D25*
X176123786Y-46876555D03*
X191363786Y-49416555D03*
D27*
X189585786Y-49416555D03*
D28*
X177901786Y-49416555D03*
D25*
X176123786Y-49416555D03*
D27*
X189585786Y-51956555D03*
D28*
X177901786Y-51956555D03*
D25*
X176123786Y-51956555D03*
X191363786Y-51956556D03*
X191363786Y-54496554D03*
D27*
X189585786Y-54496555D03*
D28*
X177901786Y-54496555D03*
D25*
X176123786Y-54496555D03*
X191363786Y-57036555D03*
D27*
X189585786Y-57036555D03*
D28*
X177901786Y-57036555D03*
D25*
X176123786Y-57036556D03*
X176123786Y-59576554D03*
X191363786Y-59576555D03*
D27*
X189585786Y-59576555D03*
D28*
X177901786Y-59576555D03*
D25*
X191363786Y-62116555D03*
D27*
X189585786Y-62116555D03*
D28*
X177901786Y-62116555D03*
D25*
X176123786Y-62116555D03*
X191363786Y-64656555D03*
D27*
X189585786Y-64656555D03*
D28*
X177901786Y-64656555D03*
D25*
X176123786Y-64656555D03*
X191363786Y-67196555D03*
D27*
X189585786Y-67196555D03*
D28*
X177901786Y-67196555D03*
D25*
X176123786Y-67196555D03*
X191363786Y-69736555D03*
D27*
X189585786Y-69736555D03*
D28*
X177901786Y-69736555D03*
D25*
X176123786Y-69736555D03*
D29*
X178917786Y-41796555D03*
X178917786Y-44336555D03*
X178917786Y-46876555D03*
X178917786Y-49416555D03*
X178917786Y-51956555D03*
X178917786Y-54496555D03*
X178917786Y-57036555D03*
X178917786Y-59576555D03*
X178917786Y-62116555D03*
X178917786Y-64656555D03*
X178917786Y-67196555D03*
X178917786Y-69736555D03*
D30*
X188569786Y-69736555D03*
X188569786Y-67196555D03*
X188569786Y-64656555D03*
X188569786Y-62116555D03*
X188569786Y-59576555D03*
X188569786Y-57036555D03*
X188569786Y-54496555D03*
X188569786Y-51956555D03*
X188569786Y-49416555D03*
X188569786Y-46876555D03*
X188569786Y-44336555D03*
X188569786Y-41796555D03*
D20*
X144373045Y-111287550D03*
D21*
X149373045Y-111287550D03*
X146873046Y-111287550D03*
D31*
X152473045Y-103787551D03*
X141273045Y-103787549D03*
D21*
X149373045Y-96787550D03*
X144373045Y-96787550D03*
D32*
X185356799Y-39091801D03*
X182456799Y-39091801D03*
D12*
X118902592Y-76712666D03*
X118902592Y-76712666D03*
D13*
X119402592Y-72962666D03*
X124402592Y-70762666D03*
D14*
X124402592Y-76712666D03*
X124402592Y-76712666D03*
X124402592Y-76712666D03*
D13*
X129402592Y-72962666D03*
D12*
X129902592Y-76712666D03*
X129902592Y-76712666D03*
D15*
X121127592Y-70762666D03*
X132677592Y-72962666D03*
D24*
X76847998Y-80316000D03*
D12*
X99189602Y-79035398D03*
X99189602Y-79035398D03*
D13*
X99492656Y-75264369D03*
X104370665Y-72805704D03*
D14*
X104682064Y-78747550D03*
X104682064Y-78747550D03*
X104682064Y-78747550D03*
D13*
X109478952Y-74741009D03*
D12*
X110174526Y-78459702D03*
X110174526Y-78459702D03*
D19*
X101100154Y-72977104D03*
X112749464Y-74569609D03*
D12*
X78078354Y-54624419D03*
X78078354Y-54624419D03*
D13*
X78249614Y-50845112D03*
X83038849Y-48217704D03*
D14*
X83557426Y-54145063D03*
X83557426Y-54145063D03*
X83557426Y-54145063D03*
D13*
X88211565Y-49973554D03*
D12*
X89036497Y-53665706D03*
X89036497Y-53665706D03*
D23*
X79776312Y-48503143D03*
X91474103Y-49688119D03*
D24*
X134099598Y-108764000D03*
D11*
X125990200Y-64364252D03*
X122690200Y-64364252D03*
D12*
X118902589Y-42712668D03*
X118902589Y-42712668D03*
D13*
X119402589Y-38962668D03*
X124402589Y-36762668D03*
D14*
X124402589Y-42712668D03*
X124402589Y-42712668D03*
X124402589Y-42712668D03*
D13*
X129402589Y-38962668D03*
D12*
X129902589Y-42712668D03*
X129902589Y-42712668D03*
D15*
X121127589Y-36762668D03*
X132677589Y-38962668D03*
D17*
X69094551Y-77144691D03*
X65807109Y-77432305D03*
D11*
X161962398Y-79935000D03*
X158662398Y-79935000D03*
D12*
X162722221Y-106365315D03*
X162722221Y-106365315D03*
D13*
X164815509Y-103214023D03*
X170273896Y-103428532D03*
D14*
X167665588Y-108776356D03*
X167665588Y-108776356D03*
X167665588Y-108776356D03*
D13*
X173803450Y-107597734D03*
D12*
X172608955Y-111187398D03*
X172608955Y-111187398D03*
D33*
X167330346Y-101992866D03*
X176747000Y-109033400D03*
D12*
X79560005Y-71559729D03*
X79560005Y-71559729D03*
D13*
X79731265Y-67780422D03*
X84520500Y-65153014D03*
D14*
X85039077Y-71080373D03*
X85039077Y-71080373D03*
X85039077Y-71080373D03*
D13*
X89693216Y-66908864D03*
D12*
X90518148Y-70601016D03*
X90518148Y-70601016D03*
D23*
X81257963Y-65438453D03*
X92955754Y-66623429D03*
D12*
X118902588Y-59712669D03*
X118902588Y-59712669D03*
D13*
X119402588Y-55962669D03*
X124402588Y-53762669D03*
D14*
X124402588Y-59712669D03*
X124402588Y-59712669D03*
X124402588Y-59712669D03*
D13*
X129402588Y-55962669D03*
D12*
X129902588Y-59712669D03*
X129902588Y-59712669D03*
D15*
X121127588Y-53762669D03*
X132677588Y-55962669D03*
D34*
X106510940Y-83309670D03*
X103215462Y-83482378D03*
D12*
X81041649Y-88495040D03*
X81041649Y-88495040D03*
D13*
X81212909Y-84715733D03*
X86002144Y-82088325D03*
D14*
X86520721Y-88015684D03*
X86520721Y-88015684D03*
X86520721Y-88015684D03*
D13*
X91174860Y-83844175D03*
D12*
X91999792Y-87536327D03*
X91999792Y-87536327D03*
D23*
X82739607Y-82373764D03*
X94437398Y-83558740D03*
D35*
X148379235Y-108466130D03*
X145079737Y-108408538D03*
D11*
X161911598Y-63069400D03*
X158611598Y-63069400D03*
D12*
X60146852Y-56193224D03*
X60146852Y-56193224D03*
D13*
X60318112Y-52413917D03*
X65107347Y-49786509D03*
D14*
X65625924Y-55713868D03*
X65625924Y-55713868D03*
X65625924Y-55713868D03*
D13*
X70280063Y-51542359D03*
D12*
X71104995Y-55234511D03*
X71104995Y-55234511D03*
D23*
X61844810Y-50071948D03*
X73542601Y-51256924D03*
D11*
X133845598Y-63602800D03*
X130545598Y-63602800D03*
D18*
X181906765Y-125977514D03*
X178940745Y-124530890D03*
D36*
X191147998Y-76201200D03*
D37*
X191147998Y-78201200D03*
D12*
X165902591Y-67712668D03*
X165902591Y-67712668D03*
D13*
X165402591Y-71462669D03*
X160402591Y-73662669D03*
D14*
X160402591Y-67712669D03*
X160402591Y-67712669D03*
X160402591Y-67712669D03*
D13*
X155402591Y-71462669D03*
D12*
X154902591Y-67712669D03*
X154902591Y-67712669D03*
D15*
X163677591Y-73662669D03*
X152127591Y-71462669D03*
D12*
X165902588Y-84712668D03*
X165902588Y-84712668D03*
D13*
X165402588Y-88462669D03*
X160402588Y-90662669D03*
D14*
X160402588Y-84712669D03*
X160402588Y-84712669D03*
X160402588Y-84712669D03*
D13*
X155402588Y-88462669D03*
D12*
X154902588Y-84712669D03*
X154902588Y-84712669D03*
D15*
X163677588Y-90662669D03*
X152127588Y-88462669D03*
D38*
X141871598Y-56744800D03*
D39*
X151371598Y-56744800D03*
D38*
X160871598Y-56744800D03*
D12*
X154902589Y-50712669D03*
X154902589Y-50712669D03*
D13*
X155402589Y-46962668D03*
X160402589Y-44762668D03*
D14*
X160402589Y-50712668D03*
X160402589Y-50712668D03*
X160402589Y-50712668D03*
D13*
X165402589Y-46962668D03*
D12*
X165902589Y-50712668D03*
X165902589Y-50712668D03*
D15*
X157127589Y-44762668D03*
X168677589Y-46962668D03*
D12*
X136902589Y-45712668D03*
X136902589Y-45712668D03*
D13*
X137402588Y-41962668D03*
X142402589Y-39762668D03*
D14*
X142402589Y-45712668D03*
X142402589Y-45712668D03*
X142402589Y-45712668D03*
D13*
X147402589Y-41962668D03*
D12*
X147902589Y-45712668D03*
X147902589Y-45712668D03*
D15*
X139127589Y-39762668D03*
X150677589Y-41962668D03*
D11*
X143990197Y-50364250D03*
X140690197Y-50364250D03*
D24*
X196888398Y-41174600D03*
D40*
X155071998Y-82221800D03*
X152621998Y-82221800D03*
X150171998Y-82221800D03*
X147721998Y-82221800D03*
D17*
X67612902Y-60209381D03*
X64325460Y-60496995D03*
D34*
X105621228Y-66332968D03*
X102325750Y-66505676D03*
D11*
X125990199Y-47364251D03*
X122690199Y-47364251D03*
D12*
X152373045Y-103787550D03*
D41*
X152093045Y-107987550D03*
D14*
X146873045Y-103787550D03*
D41*
X141653045Y-107987550D03*
D12*
X141373045Y-103787550D03*
D42*
X146873045Y-97887550D03*
X151873045Y-99987550D03*
X141873045Y-99987550D03*
D34*
X104731519Y-49356264D03*
X101436041Y-49528972D03*
D17*
X88507703Y-92511197D03*
X85220261Y-92798811D03*
D43*
X100767072Y-104700000D03*
X101962072Y-104700000D03*
D40*
X110817198Y-87404600D03*
X113267198Y-87404600D03*
X115717198Y-87404600D03*
X118167198Y-87404600D03*
D44*
X180309399Y-37945199D03*
D45*
X187509399Y-37945200D03*
D32*
X185359399Y-39088200D03*
X182459399Y-39088200D03*
D44*
X187509399Y-40231200D03*
D45*
X180309399Y-40231200D03*
D46*
X181709399Y-40938200D03*
X184609400Y-40938200D03*
X186109400Y-40938200D03*
D47*
X101926498Y-100509000D03*
X100791498Y-100509000D03*
D48*
X101417198Y-103654600D03*
X101417198Y-102654600D03*
X101417198Y-101654600D03*
X101417198Y-97654600D03*
X101417198Y-96654600D03*
D43*
X100888498Y-94997200D03*
X102083498Y-94997200D03*
D49*
X101943198Y-99569200D03*
X100748198Y-99569200D03*
D50*
X178016198Y-78434600D03*
X178016198Y-75034600D03*
D11*
X194144198Y-85523000D03*
X190844198Y-85523000D03*
M02*
