G04 #@! TF.GenerationSoftware,KiCad,Pcbnew,8.0.4*
G04 #@! TF.CreationDate,2024-09-08T01:48:39+02:00*
G04 #@! TF.ProjectId,hookah,686f6f6b-6168-42e6-9b69-6361645f7063,1*
G04 #@! TF.SameCoordinates,Original*
G04 #@! TF.FileFunction,Soldermask,Top*
G04 #@! TF.FilePolarity,Negative*
%FSLAX46Y46*%
G04 Gerber Fmt 4.6, Leading zero omitted, Abs format (unit mm)*
G04 Created by KiCad (PCBNEW 8.0.4) date 2024-09-08 01:48:39*
%MOMM*%
%LPD*%
G01*
G04 APERTURE LIST*
G04 Aperture macros list*
%AMRoundRect*
0 Rectangle with rounded corners*
0 $1 Rounding radius*
0 $2 $3 $4 $5 $6 $7 $8 $9 X,Y pos of 4 corners*
0 Add a 4 corners polygon primitive as box body*
4,1,4,$2,$3,$4,$5,$6,$7,$8,$9,$2,$3,0*
0 Add four circle primitives for the rounded corners*
1,1,$1+$1,$2,$3*
1,1,$1+$1,$4,$5*
1,1,$1+$1,$6,$7*
1,1,$1+$1,$8,$9*
0 Add four rect primitives between the rounded corners*
20,1,$1+$1,$2,$3,$4,$5,0*
20,1,$1+$1,$4,$5,$6,$7,0*
20,1,$1+$1,$6,$7,$8,$9,0*
20,1,$1+$1,$8,$9,$2,$3,0*%
%AMRotRect*
0 Rectangle, with rotation*
0 The origin of the aperture is its center*
0 $1 length*
0 $2 width*
0 $3 Rotation angle, in degrees counterclockwise*
0 Add horizontal line*
21,1,$1,$2,0,0,$3*%
%AMFreePoly0*
4,1,6,0.600000,0.200000,0.000000,-0.400000,-0.600000,0.200000,-0.600000,0.400000,0.600000,0.400000,0.600000,0.200000,0.600000,0.200000,$1*%
%AMFreePoly1*
4,1,6,0.600000,-0.250000,-0.600000,-0.250000,-0.600000,1.000000,0.000000,0.400000,0.600000,1.000000,0.600000,-0.250000,0.600000,-0.250000,$1*%
G04 Aperture macros list end*
%ADD10C,0.200000*%
%ADD11RoundRect,0.250000X-0.625000X0.350000X-0.625000X-0.350000X0.625000X-0.350000X0.625000X0.350000X0*%
%ADD12O,1.750000X1.200000*%
%ADD13RoundRect,0.225000X0.231510X0.371016X-0.218421X0.378870X-0.231510X-0.371016X0.218421X-0.378870X0*%
%ADD14C,1.701800*%
%ADD15C,3.000000*%
%ADD16C,3.429000*%
%ADD17RotRect,2.600000X2.600000X179.000000*%
%ADD18RoundRect,0.225000X0.225000X0.375000X-0.225000X0.375000X-0.225000X-0.375000X0.225000X-0.375000X0*%
%ADD19RotRect,2.600000X2.600000X244.000000*%
%ADD20RoundRect,0.225000X0.191460X0.393183X-0.256827X0.353963X-0.191460X-0.393183X0.256827X-0.353963X0*%
%ADD21RoundRect,0.225000X0.366618X0.238414X-0.037839X0.435681X-0.366618X-0.238414X0.037839X-0.435681X0*%
%ADD22RotRect,2.600000X2.600000X183.000000*%
%ADD23R,2.000000X2.000000*%
%ADD24C,2.000000*%
%ADD25R,3.200000X2.000000*%
%ADD26RotRect,2.600000X2.600000X185.000000*%
%ADD27C,3.600000*%
%ADD28RoundRect,0.225000X0.237950X0.366919X-0.211776X0.382624X-0.237950X-0.366919X0.211776X-0.382624X0*%
%ADD29C,1.524000*%
%ADD30FreePoly0,270.000000*%
%ADD31FreePoly0,90.000000*%
%ADD32R,1.524000X1.524000*%
%ADD33FreePoly1,270.000000*%
%ADD34FreePoly1,90.000000*%
%ADD35R,1.100000X0.600000*%
%ADD36R,1.000000X0.600000*%
%ADD37C,0.700000*%
%ADD38R,0.600000X1.000000*%
%ADD39R,2.600000X2.600000*%
%ADD40RotRect,2.600000X2.600000X154.000000*%
%ADD41RoundRect,0.225000X0.205066X0.386262X-0.244318X0.362710X-0.205066X-0.386262X0.244318X-0.362710X0*%
%ADD42R,1.700000X0.900000*%
%ADD43RotRect,2.600000X2.600000X178.000000*%
G04 APERTURE END LIST*
D10*
X178663788Y-42304555D02*
X177647788Y-42304555D01*
X177647788Y-41288555D01*
X178663788Y-41288555D01*
X178663788Y-42304555D01*
G36*
X178663788Y-42304555D02*
G01*
X177647788Y-42304555D01*
X177647788Y-41288555D01*
X178663788Y-41288555D01*
X178663788Y-42304555D01*
G37*
X178663788Y-44844555D02*
X177647788Y-44844555D01*
X177647788Y-43828555D01*
X178663788Y-43828555D01*
X178663788Y-44844555D01*
G36*
X178663788Y-44844555D02*
G01*
X177647788Y-44844555D01*
X177647788Y-43828555D01*
X178663788Y-43828555D01*
X178663788Y-44844555D01*
G37*
X178663788Y-47384555D02*
X177647788Y-47384555D01*
X177647788Y-46368555D01*
X178663788Y-46368555D01*
X178663788Y-47384555D01*
G36*
X178663788Y-47384555D02*
G01*
X177647788Y-47384555D01*
X177647788Y-46368555D01*
X178663788Y-46368555D01*
X178663788Y-47384555D01*
G37*
X178663788Y-49924555D02*
X177647788Y-49924555D01*
X177647788Y-48908555D01*
X178663788Y-48908555D01*
X178663788Y-49924555D01*
G36*
X178663788Y-49924555D02*
G01*
X177647788Y-49924555D01*
X177647788Y-48908555D01*
X178663788Y-48908555D01*
X178663788Y-49924555D01*
G37*
X178663788Y-52464555D02*
X177647788Y-52464555D01*
X177647788Y-51448555D01*
X178663788Y-51448555D01*
X178663788Y-52464555D01*
G36*
X178663788Y-52464555D02*
G01*
X177647788Y-52464555D01*
X177647788Y-51448555D01*
X178663788Y-51448555D01*
X178663788Y-52464555D01*
G37*
X178663788Y-55004554D02*
X177647788Y-55004555D01*
X177647788Y-53988555D01*
X178663788Y-53988555D01*
X178663788Y-55004554D01*
G36*
X178663788Y-55004554D02*
G01*
X177647788Y-55004555D01*
X177647788Y-53988555D01*
X178663788Y-53988555D01*
X178663788Y-55004554D01*
G37*
X178663788Y-57544555D02*
X177647788Y-57544555D01*
X177647788Y-56528555D01*
X178663788Y-56528555D01*
X178663788Y-57544555D01*
G36*
X178663788Y-57544555D02*
G01*
X177647788Y-57544555D01*
X177647788Y-56528555D01*
X178663788Y-56528555D01*
X178663788Y-57544555D01*
G37*
X178663788Y-60084555D02*
X177647788Y-60084555D01*
X177647788Y-59068555D01*
X178663788Y-59068555D01*
X178663788Y-60084555D01*
G36*
X178663788Y-60084555D02*
G01*
X177647788Y-60084555D01*
X177647788Y-59068555D01*
X178663788Y-59068555D01*
X178663788Y-60084555D01*
G37*
X178663788Y-62624555D02*
X177647788Y-62624555D01*
X177647788Y-61608555D01*
X178663788Y-61608555D01*
X178663788Y-62624555D01*
G36*
X178663788Y-62624555D02*
G01*
X177647788Y-62624555D01*
X177647788Y-61608555D01*
X178663788Y-61608555D01*
X178663788Y-62624555D01*
G37*
X178663788Y-65164555D02*
X177647788Y-65164555D01*
X177647788Y-64148555D01*
X178663788Y-64148555D01*
X178663788Y-65164555D01*
G36*
X178663788Y-65164555D02*
G01*
X177647788Y-65164555D01*
X177647788Y-64148555D01*
X178663788Y-64148555D01*
X178663788Y-65164555D01*
G37*
X178663788Y-67704555D02*
X177647788Y-67704555D01*
X177647788Y-66688555D01*
X178663788Y-66688555D01*
X178663788Y-67704555D01*
G36*
X178663788Y-67704555D02*
G01*
X177647788Y-67704555D01*
X177647788Y-66688555D01*
X178663788Y-66688555D01*
X178663788Y-67704555D01*
G37*
X178663788Y-70244555D02*
X177647788Y-70244555D01*
X177647788Y-69228555D01*
X178663788Y-69228555D01*
X178663788Y-70244555D01*
G36*
X178663788Y-70244555D02*
G01*
X177647788Y-70244555D01*
X177647788Y-69228555D01*
X178663788Y-69228555D01*
X178663788Y-70244555D01*
G37*
X189839788Y-42304555D02*
X188823788Y-42304555D01*
X188823788Y-41288555D01*
X189839788Y-41288555D01*
X189839788Y-42304555D01*
G36*
X189839788Y-42304555D02*
G01*
X188823788Y-42304555D01*
X188823788Y-41288555D01*
X189839788Y-41288555D01*
X189839788Y-42304555D01*
G37*
X189839788Y-44844555D02*
X188823788Y-44844555D01*
X188823788Y-43828555D01*
X189839788Y-43828555D01*
X189839788Y-44844555D01*
G36*
X189839788Y-44844555D02*
G01*
X188823788Y-44844555D01*
X188823788Y-43828555D01*
X189839788Y-43828555D01*
X189839788Y-44844555D01*
G37*
X189839788Y-47384555D02*
X188823788Y-47384555D01*
X188823788Y-46368555D01*
X189839788Y-46368555D01*
X189839788Y-47384555D01*
G36*
X189839788Y-47384555D02*
G01*
X188823788Y-47384555D01*
X188823788Y-46368555D01*
X189839788Y-46368555D01*
X189839788Y-47384555D01*
G37*
X189839788Y-49924555D02*
X188823788Y-49924555D01*
X188823788Y-48908555D01*
X189839788Y-48908555D01*
X189839788Y-49924555D01*
G36*
X189839788Y-49924555D02*
G01*
X188823788Y-49924555D01*
X188823788Y-48908555D01*
X189839788Y-48908555D01*
X189839788Y-49924555D01*
G37*
X189839788Y-52464555D02*
X188823788Y-52464555D01*
X188823788Y-51448555D01*
X189839788Y-51448555D01*
X189839788Y-52464555D01*
G36*
X189839788Y-52464555D02*
G01*
X188823788Y-52464555D01*
X188823788Y-51448555D01*
X189839788Y-51448555D01*
X189839788Y-52464555D01*
G37*
X189839788Y-55004555D02*
X188823788Y-55004555D01*
X188823788Y-53988555D01*
X189839788Y-53988555D01*
X189839788Y-55004555D01*
G36*
X189839788Y-55004555D02*
G01*
X188823788Y-55004555D01*
X188823788Y-53988555D01*
X189839788Y-53988555D01*
X189839788Y-55004555D01*
G37*
X189839788Y-57544555D02*
X188823788Y-57544555D01*
X188823788Y-56528556D01*
X189839788Y-56528555D01*
X189839788Y-57544555D01*
G36*
X189839788Y-57544555D02*
G01*
X188823788Y-57544555D01*
X188823788Y-56528556D01*
X189839788Y-56528555D01*
X189839788Y-57544555D01*
G37*
X189839788Y-60084555D02*
X188823788Y-60084555D01*
X188823788Y-59068555D01*
X189839788Y-59068555D01*
X189839788Y-60084555D01*
G36*
X189839788Y-60084555D02*
G01*
X188823788Y-60084555D01*
X188823788Y-59068555D01*
X189839788Y-59068555D01*
X189839788Y-60084555D01*
G37*
X189839788Y-62624555D02*
X188823788Y-62624555D01*
X188823788Y-61608555D01*
X189839788Y-61608555D01*
X189839788Y-62624555D01*
G36*
X189839788Y-62624555D02*
G01*
X188823788Y-62624555D01*
X188823788Y-61608555D01*
X189839788Y-61608555D01*
X189839788Y-62624555D01*
G37*
X189839788Y-65164555D02*
X188823788Y-65164555D01*
X188823788Y-64148555D01*
X189839788Y-64148555D01*
X189839788Y-65164555D01*
G36*
X189839788Y-65164555D02*
G01*
X188823788Y-65164555D01*
X188823788Y-64148555D01*
X189839788Y-64148555D01*
X189839788Y-65164555D01*
G37*
X189839788Y-67704555D02*
X188823788Y-67704555D01*
X188823788Y-66688555D01*
X189839788Y-66688555D01*
X189839788Y-67704555D01*
G36*
X189839788Y-67704555D02*
G01*
X188823788Y-67704555D01*
X188823788Y-66688555D01*
X189839788Y-66688555D01*
X189839788Y-67704555D01*
G37*
X189839788Y-70244555D02*
X188823788Y-70244555D01*
X188823788Y-69228555D01*
X189839788Y-69228555D01*
X189839788Y-70244555D01*
G36*
X189839788Y-70244555D02*
G01*
X188823788Y-70244555D01*
X188823788Y-69228555D01*
X189839788Y-69228555D01*
X189839788Y-70244555D01*
G37*
D11*
X190665400Y-75197556D03*
D12*
X190665400Y-77197556D03*
D13*
X144058777Y-84391248D03*
X140759279Y-84333656D03*
D14*
X137053429Y-79616679D03*
X137053429Y-79616679D03*
D15*
X137618798Y-75875976D03*
X142656433Y-73763573D03*
D16*
X142552591Y-79712667D03*
X142552591Y-79712667D03*
X142552591Y-79712667D03*
D15*
X147617276Y-76050500D03*
D14*
X148051753Y-79808655D03*
X148051753Y-79808655D03*
D17*
X145930934Y-73820730D03*
X134344298Y-75818819D03*
D18*
X125990203Y-81364252D03*
X122690203Y-81364252D03*
D14*
X137350120Y-62619270D03*
X137350120Y-62619270D03*
D15*
X137915489Y-58878567D03*
X142953124Y-56766164D03*
D16*
X142849282Y-62715258D03*
X142849282Y-62715258D03*
X142849282Y-62715258D03*
D15*
X147913967Y-59053091D03*
D14*
X148348444Y-62811246D03*
X148348444Y-62811246D03*
D17*
X146227625Y-56823321D03*
X134640989Y-58821410D03*
D14*
X181432465Y-121610040D03*
X181432465Y-121610040D03*
D15*
X178281173Y-119516752D03*
X178495682Y-114058365D03*
D16*
X183843506Y-116666673D03*
X183843506Y-116666673D03*
X183843506Y-116666673D03*
D15*
X182664884Y-110528811D03*
D14*
X186254548Y-111723306D03*
X186254548Y-111723306D03*
D19*
X179931347Y-111114814D03*
X176845508Y-122460302D03*
D20*
X85544410Y-58640577D03*
X82256968Y-58928191D03*
D21*
X167053403Y-113653133D03*
X164087383Y-112206509D03*
D14*
X98299889Y-62058696D03*
X98299889Y-62058696D03*
D15*
X98602943Y-58287667D03*
X103480952Y-55829002D03*
D16*
X103792351Y-61770848D03*
X103792351Y-61770848D03*
X103792351Y-61770848D03*
D15*
X108589239Y-57764307D03*
D14*
X109284813Y-61483000D03*
X109284813Y-61483000D03*
D22*
X106751464Y-55657602D03*
X95332432Y-58459067D03*
D23*
X175837387Y-86540556D03*
D24*
X175837387Y-91540556D03*
X175837387Y-89040557D03*
D25*
X183337386Y-94640556D03*
X183337388Y-83440556D03*
D24*
X190337387Y-91540556D03*
X190337387Y-86540556D03*
D14*
X63110149Y-90063842D03*
X63110149Y-90063842D03*
D15*
X63281411Y-86284535D03*
X68070644Y-83657127D03*
D16*
X68589221Y-89584486D03*
X68589221Y-89584486D03*
X68589221Y-89584486D03*
D15*
X73243360Y-85412977D03*
D14*
X74068292Y-89105129D03*
X74068292Y-89105129D03*
D26*
X71333182Y-83371692D03*
X60018876Y-86569970D03*
D20*
X70576201Y-94080000D03*
X67288759Y-94367614D03*
D14*
X97410179Y-45081993D03*
X97410179Y-45081993D03*
D15*
X97713233Y-41310964D03*
X102591242Y-38852299D03*
D16*
X102902641Y-44794145D03*
X102902641Y-44794145D03*
X102902641Y-44794145D03*
D15*
X107699529Y-40787604D03*
D14*
X108395103Y-44506297D03*
X108395103Y-44506297D03*
D22*
X105861754Y-38680899D03*
X94442722Y-41482364D03*
D27*
X113677888Y-45009657D03*
D28*
X163313477Y-55750918D03*
X160015487Y-55635750D03*
D20*
X87026057Y-75575887D03*
X83738615Y-75863501D03*
D27*
X193180000Y-102337800D03*
D14*
X61628500Y-73128534D03*
X61628500Y-73128534D03*
D15*
X61799762Y-69349227D03*
X66588995Y-66721819D03*
D16*
X67107572Y-72649178D03*
X67107572Y-72649178D03*
X67107572Y-72649178D03*
D15*
X71761711Y-68477669D03*
D14*
X72586643Y-72169821D03*
X72586643Y-72169821D03*
D26*
X69851533Y-66436384D03*
X58537227Y-69634662D03*
D29*
X191363788Y-41796555D03*
D30*
X189585788Y-41796555D03*
D31*
X177901788Y-41796555D03*
D29*
X176123788Y-41796555D03*
D32*
X176123788Y-41796555D03*
D29*
X191363788Y-44336555D03*
D30*
X189585788Y-44336555D03*
D31*
X177901788Y-44336555D03*
D29*
X176123788Y-44336555D03*
X191363788Y-46876555D03*
D30*
X189585788Y-46876555D03*
D31*
X177901788Y-46876555D03*
D29*
X176123788Y-46876555D03*
X191363788Y-49416555D03*
D30*
X189585788Y-49416555D03*
D31*
X177901788Y-49416555D03*
D29*
X176123788Y-49416555D03*
D30*
X189585788Y-51956555D03*
D31*
X177901788Y-51956555D03*
D29*
X176123788Y-51956555D03*
X191363788Y-51956556D03*
X191363788Y-54496554D03*
D30*
X189585788Y-54496555D03*
D31*
X177901788Y-54496555D03*
D29*
X176123788Y-54496555D03*
X191363788Y-57036555D03*
D30*
X189585788Y-57036555D03*
D31*
X177901788Y-57036555D03*
D29*
X176123788Y-57036556D03*
X176123788Y-59576554D03*
X191363788Y-59576555D03*
D30*
X189585788Y-59576555D03*
D31*
X177901788Y-59576555D03*
D29*
X191363788Y-62116555D03*
D30*
X189585788Y-62116555D03*
D31*
X177901788Y-62116555D03*
D29*
X176123788Y-62116555D03*
X191363788Y-64656555D03*
D30*
X189585788Y-64656555D03*
D31*
X177901788Y-64656555D03*
D29*
X176123788Y-64656555D03*
X191363788Y-67196555D03*
D30*
X189585788Y-67196555D03*
D31*
X177901788Y-67196555D03*
D29*
X176123788Y-67196555D03*
X191363788Y-69736555D03*
D30*
X189585788Y-69736555D03*
D31*
X177901788Y-69736555D03*
D29*
X176123788Y-69736555D03*
D33*
X188569788Y-41796555D03*
X188569788Y-44336555D03*
X188569788Y-46876555D03*
X188569788Y-49416555D03*
X188569788Y-51956555D03*
X188569788Y-54496555D03*
X188569788Y-57036555D03*
X188569788Y-59576555D03*
X188569788Y-62116555D03*
X188569788Y-64656555D03*
X188569788Y-67196555D03*
X188569788Y-69736555D03*
D34*
X178917788Y-69736555D03*
X178917788Y-67196555D03*
X178917788Y-64656555D03*
X178917788Y-62116555D03*
X178917788Y-59576555D03*
X178917788Y-57036555D03*
X178917788Y-54496555D03*
X178917788Y-51956555D03*
X178917788Y-49416555D03*
X178917788Y-46876555D03*
X178917788Y-44336555D03*
X178917788Y-41796555D03*
D35*
X180257687Y-38227857D03*
D36*
X187457687Y-38227858D03*
D37*
X185307687Y-39370858D03*
X182407687Y-39370858D03*
D35*
X187457687Y-40513858D03*
D36*
X180257687Y-40513858D03*
D38*
X186057688Y-41220858D03*
X183157687Y-41220858D03*
X181657687Y-41220858D03*
D14*
X118902594Y-76712666D03*
X118902594Y-76712666D03*
D15*
X119402594Y-72962666D03*
X124402594Y-70762666D03*
D16*
X124402594Y-76712666D03*
X124402594Y-76712666D03*
X124402594Y-76712666D03*
D15*
X129402594Y-72962666D03*
D14*
X129902594Y-76712666D03*
X129902594Y-76712666D03*
D39*
X127677594Y-70762666D03*
X116127594Y-72962666D03*
D27*
X76848000Y-80316000D03*
D14*
X99189604Y-79035398D03*
X99189604Y-79035398D03*
D15*
X99492658Y-75264369D03*
X104370667Y-72805704D03*
D16*
X104682066Y-78747550D03*
X104682066Y-78747550D03*
X104682066Y-78747550D03*
D15*
X109478954Y-74741009D03*
D14*
X110174528Y-78459702D03*
X110174528Y-78459702D03*
D22*
X107641179Y-72634304D03*
X96222147Y-75435769D03*
D14*
X78078356Y-54624419D03*
X78078356Y-54624419D03*
D15*
X78249618Y-50845112D03*
X83038851Y-48217704D03*
D16*
X83557428Y-54145063D03*
X83557428Y-54145063D03*
X83557428Y-54145063D03*
D15*
X88211567Y-49973554D03*
D14*
X89036499Y-53665706D03*
X89036499Y-53665706D03*
D26*
X86301389Y-47932269D03*
X74987083Y-51130547D03*
D27*
X132786687Y-85938456D03*
D18*
X125990202Y-64364252D03*
X122690202Y-64364252D03*
D14*
X118902591Y-42712668D03*
X118902591Y-42712668D03*
D15*
X119402591Y-38962668D03*
X124402591Y-36762668D03*
D16*
X124402591Y-42712668D03*
X124402591Y-42712668D03*
X124402591Y-42712668D03*
D15*
X129402591Y-38962668D03*
D14*
X129902591Y-42712668D03*
X129902591Y-42712668D03*
D39*
X127677591Y-36762668D03*
X116127591Y-38962668D03*
D20*
X69094553Y-77144691D03*
X65807111Y-77432305D03*
D28*
X162126893Y-89730205D03*
X158828903Y-89615037D03*
D14*
X162722223Y-106365315D03*
X162722223Y-106365315D03*
D15*
X164815511Y-103214023D03*
X170273898Y-103428532D03*
D16*
X167665590Y-108776356D03*
X167665590Y-108776356D03*
X167665590Y-108776356D03*
D15*
X173803452Y-107597734D03*
D14*
X172608957Y-111187398D03*
X172608957Y-111187398D03*
D40*
X173217449Y-104864197D03*
X161871961Y-101778358D03*
D14*
X79560007Y-71559729D03*
X79560007Y-71559729D03*
D15*
X79731269Y-67780422D03*
X84520502Y-65153014D03*
D16*
X85039079Y-71080373D03*
X85039079Y-71080373D03*
X85039079Y-71080373D03*
D15*
X89693218Y-66908864D03*
D14*
X90518150Y-70601016D03*
X90518150Y-70601016D03*
D26*
X87783040Y-64867579D03*
X76468734Y-68065857D03*
D14*
X118902590Y-59712669D03*
X118902590Y-59712669D03*
D15*
X119402590Y-55962669D03*
X124402590Y-53762669D03*
D16*
X124402590Y-59712669D03*
X124402590Y-59712669D03*
X124402590Y-59712669D03*
D15*
X129402590Y-55962669D03*
D14*
X129902590Y-59712669D03*
X129902590Y-59712669D03*
D39*
X127677590Y-53762669D03*
X116127590Y-55962669D03*
D41*
X106510942Y-83309670D03*
X103215464Y-83482378D03*
D14*
X81041651Y-88495040D03*
X81041651Y-88495040D03*
D15*
X81212913Y-84715733D03*
X86002146Y-82088325D03*
D16*
X86520723Y-88015684D03*
X86520723Y-88015684D03*
X86520723Y-88015684D03*
D15*
X91174862Y-83844175D03*
D14*
X91999794Y-87536327D03*
X91999794Y-87536327D03*
D26*
X89264684Y-81802890D03*
X77950378Y-85001168D03*
D13*
X148379237Y-108466130D03*
X145079739Y-108408538D03*
D28*
X162720185Y-72740563D03*
X159422195Y-72625395D03*
D14*
X60146854Y-56193224D03*
X60146854Y-56193224D03*
D15*
X60318116Y-52413917D03*
X65107349Y-49786509D03*
D16*
X65625926Y-55713868D03*
X65625926Y-55713868D03*
X65625926Y-55713868D03*
D15*
X70280065Y-51542359D03*
D14*
X71104997Y-55234511D03*
X71104997Y-55234511D03*
D26*
X68369887Y-49501074D03*
X57055581Y-52699352D03*
D13*
X144355468Y-67393839D03*
X141055970Y-67336247D03*
D21*
X181906767Y-125977514D03*
X178940747Y-124530890D03*
D42*
X178295487Y-78027856D03*
X178295487Y-74627856D03*
D14*
X141373886Y-103691562D03*
X141373886Y-103691562D03*
D15*
X141939255Y-99950859D03*
X146976890Y-97838456D03*
D16*
X146873048Y-103787550D03*
X146873048Y-103787550D03*
X146873048Y-103787550D03*
D15*
X151937733Y-100125383D03*
D14*
X152372210Y-103883538D03*
X152372210Y-103883538D03*
D17*
X150251391Y-97895613D03*
X138664755Y-99893702D03*
D14*
X155799232Y-67844460D03*
X155799232Y-67844460D03*
D15*
X156429801Y-64114193D03*
X161503534Y-62090031D03*
D16*
X161295882Y-68036406D03*
X161295882Y-68036406D03*
X161295882Y-68036406D03*
D15*
X166423709Y-64463188D03*
D14*
X166792532Y-68228353D03*
X166792532Y-68228353D03*
D43*
X164776539Y-62204326D03*
X153156796Y-63999897D03*
D14*
X155205938Y-84834104D03*
X155205938Y-84834104D03*
D15*
X155836507Y-81103837D03*
X160910240Y-79079675D03*
D16*
X160702588Y-85026050D03*
X160702588Y-85026050D03*
X160702588Y-85026050D03*
D15*
X165830415Y-81452832D03*
D14*
X166199238Y-85217997D03*
X166199238Y-85217997D03*
D43*
X164183245Y-79193970D03*
X152563502Y-80989541D03*
D14*
X156392520Y-50854815D03*
X156392520Y-50854815D03*
D15*
X157023089Y-47124548D03*
X162096822Y-45100386D03*
D16*
X161889170Y-51046761D03*
X161889170Y-51046761D03*
X161889170Y-51046761D03*
D15*
X167016997Y-47473543D03*
D14*
X167385820Y-51238708D03*
X167385820Y-51238708D03*
D43*
X165369827Y-45214681D03*
X153750084Y-47010252D03*
D14*
X137646813Y-45621861D03*
X137646813Y-45621861D03*
D15*
X138212182Y-41881158D03*
X143249817Y-39768755D03*
D16*
X143145975Y-45717849D03*
X143145975Y-45717849D03*
X143145975Y-45717849D03*
D15*
X148210660Y-42055682D03*
D14*
X148645137Y-45813837D03*
X148645137Y-45813837D03*
D17*
X146524318Y-39825912D03*
X134937682Y-41824001D03*
D13*
X144652160Y-50396429D03*
X141352662Y-50338837D03*
D27*
X197482000Y-40742800D03*
D20*
X67612904Y-60209381D03*
X64325462Y-60496995D03*
D41*
X105621230Y-66332968D03*
X102325752Y-66505676D03*
D18*
X125990201Y-47364251D03*
X122690201Y-47364251D03*
D41*
X104731521Y-49356264D03*
X101436043Y-49528972D03*
D20*
X88507705Y-92511197D03*
X85220263Y-92798811D03*
D37*
X185310287Y-39367257D03*
X182410287Y-39367257D03*
D18*
X190274588Y-83884356D03*
X186974588Y-83884356D03*
M02*
