M48
; DRILL file {KiCad 8.0.5} date 2024-10-04T22:09:55+0200
; FORMAT={-:-/ absolute / metric / decimal}
; #@! TF.CreationDate,2024-10-04T22:09:55+02:00
; #@! TF.GenerationSoftware,Kicad,Pcbnew,8.0.5
; #@! TF.FileFunction,NonPlated,1,2,NPTH
FMAT,2
METRIC
; #@! TA.AperFunction,NonPlated,NPTH,ComponentDrill
T1C0.700
; #@! TA.AperFunction,NonPlated,NPTH,ComponentDrill
T2C0.991
; #@! TA.AperFunction,NonPlated,NPTH,ComponentDrill
T3C1.702
; #@! TA.AperFunction,NonPlated,NPTH,ComponentDrill
T4C3.000
; #@! TA.AperFunction,NonPlated,NPTH,ComponentDrill
T5C3.429
; #@! TA.AperFunction,NonPlated,NPTH,ComponentDrill
T6C3.600
; #@! TA.AperFunction,NonPlated,NPTH,ComponentDrill
T7C5.500
%
G90
G05
T1
X182.457Y-39.092
X182.459Y-39.088
X185.357Y-39.092
X185.359Y-39.088
T2
X141.653Y-107.988
X152.093Y-107.988
T3
X60.147Y-56.193
X60.147Y-56.193
X61.628Y-73.129
X61.628Y-73.129
X63.11Y-90.064
X63.11Y-90.064
X71.105Y-55.235
X71.105Y-55.235
X72.587Y-72.17
X72.587Y-72.17
X74.068Y-89.105
X74.068Y-89.105
X78.078Y-54.624
X78.078Y-54.624
X79.56Y-71.56
X79.56Y-71.56
X81.042Y-88.495
X81.042Y-88.495
X89.036Y-53.666
X89.036Y-53.666
X90.518Y-70.601
X90.518Y-70.601
X92.0Y-87.536
X92.0Y-87.536
X97.41Y-45.082
X97.41Y-45.082
X98.3Y-62.059
X98.3Y-62.059
X99.19Y-79.035
X99.19Y-79.035
X108.395Y-44.506
X108.395Y-44.506
X109.285Y-61.483
X109.285Y-61.483
X110.175Y-78.46
X110.175Y-78.46
X118.903Y-59.713
X118.903Y-59.713
X118.903Y-42.713
X118.903Y-42.713
X118.903Y-76.713
X118.903Y-76.713
X129.903Y-59.713
X129.903Y-59.713
X129.903Y-42.713
X129.903Y-42.713
X129.903Y-76.713
X129.903Y-76.713
X136.903Y-62.713
X136.903Y-62.713
X136.903Y-79.713
X136.903Y-79.713
X136.903Y-45.713
X136.903Y-45.713
X141.373Y-103.788
X147.903Y-62.713
X147.903Y-62.713
X147.903Y-79.713
X147.903Y-79.713
X147.903Y-45.713
X147.903Y-45.713
X152.373Y-103.788
X154.903Y-84.713
X154.903Y-84.713
X154.903Y-50.713
X154.903Y-50.713
X154.903Y-67.713
X154.903Y-67.713
X162.722Y-106.365
X162.722Y-106.365
X165.903Y-84.713
X165.903Y-84.713
X165.903Y-50.713
X165.903Y-50.713
X165.903Y-67.713
X165.903Y-67.713
X172.609Y-111.187
X172.609Y-111.187
X181.432Y-121.61
X181.432Y-121.61
X186.255Y-111.723
X186.255Y-111.723
T4
X60.318Y-52.414
X61.8Y-69.349
X63.281Y-86.285
X65.107Y-49.787
X66.589Y-66.722
X68.071Y-83.657
X70.28Y-51.542
X71.762Y-68.478
X73.243Y-85.413
X78.25Y-50.845
X79.731Y-67.78
X81.213Y-84.716
X83.039Y-48.218
X84.52Y-65.153
X86.002Y-82.088
X88.212Y-49.974
X89.693Y-66.909
X91.175Y-83.844
X97.713Y-41.311
X98.603Y-58.288
X99.493Y-75.264
X102.591Y-38.852
X103.481Y-55.829
X104.371Y-72.806
X107.7Y-40.788
X108.589Y-57.764
X109.479Y-74.741
X119.403Y-55.963
X119.403Y-38.963
X119.403Y-72.963
X124.403Y-53.763
X124.403Y-36.763
X124.403Y-70.763
X129.403Y-55.963
X129.403Y-38.963
X129.403Y-72.963
X137.403Y-66.463
X137.403Y-75.963
X137.403Y-41.963
X142.403Y-68.663
X142.403Y-73.763
X142.403Y-39.763
X147.403Y-66.463
X147.403Y-75.963
X147.403Y-41.963
X155.403Y-88.463
X155.403Y-46.963
X155.403Y-71.463
X160.403Y-90.663
X160.403Y-44.763
X160.403Y-73.663
X164.816Y-103.214
X165.403Y-88.463
X165.403Y-46.963
X165.403Y-71.463
X170.274Y-103.429
X173.803Y-107.598
X178.281Y-119.517
X178.496Y-114.058
X182.665Y-110.529
T5
X65.626Y-55.714
X65.626Y-55.714
X65.626Y-55.714
X67.108Y-72.649
X67.108Y-72.649
X67.108Y-72.649
X68.589Y-89.584
X68.589Y-89.584
X68.589Y-89.584
X83.557Y-54.145
X83.557Y-54.145
X83.557Y-54.145
X85.039Y-71.08
X85.039Y-71.08
X85.039Y-71.08
X86.521Y-88.016
X86.521Y-88.016
X86.521Y-88.016
X102.903Y-44.794
X102.903Y-44.794
X102.903Y-44.794
X103.792Y-61.771
X103.792Y-61.771
X103.792Y-61.771
X104.682Y-78.748
X104.682Y-78.748
X104.682Y-78.748
X124.403Y-59.713
X124.403Y-59.713
X124.403Y-59.713
X124.403Y-42.713
X124.403Y-42.713
X124.403Y-42.713
X124.403Y-76.713
X124.403Y-76.713
X124.403Y-76.713
X142.403Y-62.713
X142.403Y-62.713
X142.403Y-62.713
X142.403Y-79.713
X142.403Y-79.713
X142.403Y-79.713
X142.403Y-45.713
X142.403Y-45.713
X142.403Y-45.713
X146.873Y-103.788
X160.403Y-84.713
X160.403Y-84.713
X160.403Y-84.713
X160.403Y-50.713
X160.403Y-50.713
X160.403Y-50.713
X160.403Y-67.713
X160.403Y-67.713
X160.403Y-67.713
X167.666Y-108.776
X167.666Y-108.776
X167.666Y-108.776
X183.844Y-116.667
X183.844Y-116.667
X183.844Y-116.667
T6
X76.848Y-80.316
X113.678Y-45.01
X134.1Y-108.764
X193.18Y-102.338
X196.888Y-41.175
T7
X151.372Y-56.745
M30
