G04 #@! TF.GenerationSoftware,KiCad,Pcbnew,8.0.5*
G04 #@! TF.CreationDate,2024-10-04T22:09:34+02:00*
G04 #@! TF.ProjectId,hookah,686f6f6b-6168-42e6-9b69-6361645f7063,1*
G04 #@! TF.SameCoordinates,Original*
G04 #@! TF.FileFunction,Legend,Top*
G04 #@! TF.FilePolarity,Positive*
%FSLAX46Y46*%
G04 Gerber Fmt 4.6, Leading zero omitted, Abs format (unit mm)*
G04 Created by KiCad (PCBNEW 8.0.5) date 2024-10-04 22:09:34*
%MOMM*%
%LPD*%
G01*
G04 APERTURE LIST*
G04 Aperture macros list*
%AMRoundRect*
0 Rectangle with rounded corners*
0 $1 Rounding radius*
0 $2 $3 $4 $5 $6 $7 $8 $9 X,Y pos of 4 corners*
0 Add a 4 corners polygon primitive as box body*
4,1,4,$2,$3,$4,$5,$6,$7,$8,$9,$2,$3,0*
0 Add four circle primitives for the rounded corners*
1,1,$1+$1,$2,$3*
1,1,$1+$1,$4,$5*
1,1,$1+$1,$6,$7*
1,1,$1+$1,$8,$9*
0 Add four rect primitives between the rounded corners*
20,1,$1+$1,$2,$3,$4,$5,0*
20,1,$1+$1,$4,$5,$6,$7,0*
20,1,$1+$1,$6,$7,$8,$9,0*
20,1,$1+$1,$8,$9,$2,$3,0*%
%AMRotRect*
0 Rectangle, with rotation*
0 The origin of the aperture is its center*
0 $1 length*
0 $2 width*
0 $3 Rotation angle, in degrees counterclockwise*
0 Add horizontal line*
21,1,$1,$2,0,0,$3*%
%AMFreePoly0*
4,1,6,0.600000,0.200000,0.000000,-0.400000,-0.600000,0.200000,-0.600000,0.400000,0.600000,0.400000,0.600000,0.200000,0.600000,0.200000,$1*%
%AMFreePoly1*
4,1,6,0.600000,-0.250000,-0.600000,-0.250000,-0.600000,1.000000,0.000000,0.400000,0.600000,1.000000,0.600000,-0.250000,0.600000,-0.250000,$1*%
G04 Aperture macros list end*
%ADD10C,0.150000*%
%ADD11C,0.100000*%
%ADD12C,0.120000*%
%ADD13C,0.403553*%
%ADD14C,0.200000*%
%ADD15RoundRect,0.225000X0.225000X0.375000X-0.225000X0.375000X-0.225000X-0.375000X0.225000X-0.375000X0*%
%ADD16C,1.701800*%
%ADD17C,3.000000*%
%ADD18C,3.429000*%
%ADD19R,2.600000X2.600000*%
%ADD20RotRect,2.600000X2.600000X244.000000*%
%ADD21RoundRect,0.225000X0.191460X0.393183X-0.256827X0.353963X-0.191460X-0.393183X0.256827X-0.353963X0*%
%ADD22RoundRect,0.225000X0.366618X0.238414X-0.037839X0.435681X-0.366618X-0.238414X0.037839X-0.435681X0*%
%ADD23RotRect,2.600000X2.600000X183.000000*%
%ADD24R,2.000000X2.000000*%
%ADD25C,2.000000*%
%ADD26R,3.200000X2.000000*%
%ADD27RotRect,2.600000X2.600000X185.000000*%
%ADD28C,3.600000*%
%ADD29C,1.524000*%
%ADD30FreePoly0,270.000000*%
%ADD31FreePoly0,90.000000*%
%ADD32R,1.524000X1.524000*%
%ADD33FreePoly1,270.000000*%
%ADD34FreePoly1,90.000000*%
%ADD35R,2.000000X0.610000*%
%ADD36R,2.000000X3.200000*%
%ADD37R,1.100000X0.600000*%
%ADD38R,1.000000X0.600000*%
%ADD39C,0.700000*%
%ADD40R,0.600000X1.000000*%
%ADD41RotRect,2.600000X2.600000X154.000000*%
%ADD42RoundRect,0.225000X0.205066X0.386262X-0.244318X0.362710X-0.205066X-0.386262X0.244318X-0.362710X0*%
%ADD43RoundRect,0.225000X0.231510X0.371016X-0.218421X0.378870X-0.231510X-0.371016X0.218421X-0.378870X0*%
%ADD44RoundRect,0.250000X-0.625000X0.350000X-0.625000X-0.350000X0.625000X-0.350000X0.625000X0.350000X0*%
%ADD45O,1.750000X1.200000*%
%ADD46R,1.700000X0.900000*%
%ADD47C,6.200000*%
%ADD48C,6.000000*%
%ADD49RoundRect,0.500000X-0.500000X0.750000X-0.500000X-0.750000X0.500000X-0.750000X0.500000X0.750000X0*%
%ADD50C,0.990600*%
%ADD51C,2.032000*%
%ADD52RoundRect,0.500000X0.500000X-0.750000X0.500000X0.750000X-0.500000X0.750000X-0.500000X-0.750000X0*%
G04 APERTURE END LIST*
D10*
X183540360Y-65577077D02*
X182540360Y-65577077D01*
X182540360Y-65577077D02*
X183254645Y-65243744D01*
X183254645Y-65243744D02*
X182540360Y-64910411D01*
X182540360Y-64910411D02*
X183540360Y-64910411D01*
X183445121Y-63862792D02*
X183492741Y-63910411D01*
X183492741Y-63910411D02*
X183540360Y-64053268D01*
X183540360Y-64053268D02*
X183540360Y-64148506D01*
X183540360Y-64148506D02*
X183492741Y-64291363D01*
X183492741Y-64291363D02*
X183397502Y-64386601D01*
X183397502Y-64386601D02*
X183302264Y-64434220D01*
X183302264Y-64434220D02*
X183111788Y-64481839D01*
X183111788Y-64481839D02*
X182968931Y-64481839D01*
X182968931Y-64481839D02*
X182778455Y-64434220D01*
X182778455Y-64434220D02*
X182683217Y-64386601D01*
X182683217Y-64386601D02*
X182587979Y-64291363D01*
X182587979Y-64291363D02*
X182540360Y-64148506D01*
X182540360Y-64148506D02*
X182540360Y-64053268D01*
X182540360Y-64053268D02*
X182587979Y-63910411D01*
X182587979Y-63910411D02*
X182635598Y-63862792D01*
X182540360Y-63434220D02*
X183349883Y-63434220D01*
X183349883Y-63434220D02*
X183445121Y-63386601D01*
X183445121Y-63386601D02*
X183492741Y-63338982D01*
X183492741Y-63338982D02*
X183540360Y-63243744D01*
X183540360Y-63243744D02*
X183540360Y-63053268D01*
X183540360Y-63053268D02*
X183492741Y-62958030D01*
X183492741Y-62958030D02*
X183445121Y-62910411D01*
X183445121Y-62910411D02*
X183349883Y-62862792D01*
X183349883Y-62862792D02*
X182540360Y-62862792D01*
X183016550Y-61291363D02*
X183016550Y-61624696D01*
X183540360Y-61624696D02*
X182540360Y-61624696D01*
X182540360Y-61624696D02*
X182540360Y-61148506D01*
X183540360Y-60338982D02*
X183016550Y-60338982D01*
X183016550Y-60338982D02*
X182921312Y-60386601D01*
X182921312Y-60386601D02*
X182873693Y-60481839D01*
X182873693Y-60481839D02*
X182873693Y-60672315D01*
X182873693Y-60672315D02*
X182921312Y-60767553D01*
X183492741Y-60338982D02*
X183540360Y-60434220D01*
X183540360Y-60434220D02*
X183540360Y-60672315D01*
X183540360Y-60672315D02*
X183492741Y-60767553D01*
X183492741Y-60767553D02*
X183397502Y-60815172D01*
X183397502Y-60815172D02*
X183302264Y-60815172D01*
X183302264Y-60815172D02*
X183207026Y-60767553D01*
X183207026Y-60767553D02*
X183159407Y-60672315D01*
X183159407Y-60672315D02*
X183159407Y-60434220D01*
X183159407Y-60434220D02*
X183111788Y-60338982D01*
X183492741Y-59434220D02*
X183540360Y-59529458D01*
X183540360Y-59529458D02*
X183540360Y-59719934D01*
X183540360Y-59719934D02*
X183492741Y-59815172D01*
X183492741Y-59815172D02*
X183445121Y-59862791D01*
X183445121Y-59862791D02*
X183349883Y-59910410D01*
X183349883Y-59910410D02*
X183064169Y-59910410D01*
X183064169Y-59910410D02*
X182968931Y-59862791D01*
X182968931Y-59862791D02*
X182921312Y-59815172D01*
X182921312Y-59815172D02*
X182873693Y-59719934D01*
X182873693Y-59719934D02*
X182873693Y-59529458D01*
X182873693Y-59529458D02*
X182921312Y-59434220D01*
X183492741Y-58624696D02*
X183540360Y-58719934D01*
X183540360Y-58719934D02*
X183540360Y-58910410D01*
X183540360Y-58910410D02*
X183492741Y-59005648D01*
X183492741Y-59005648D02*
X183397502Y-59053267D01*
X183397502Y-59053267D02*
X183016550Y-59053267D01*
X183016550Y-59053267D02*
X182921312Y-59005648D01*
X182921312Y-59005648D02*
X182873693Y-58910410D01*
X182873693Y-58910410D02*
X182873693Y-58719934D01*
X182873693Y-58719934D02*
X182921312Y-58624696D01*
X182921312Y-58624696D02*
X183016550Y-58577077D01*
X183016550Y-58577077D02*
X183111788Y-58577077D01*
X183111788Y-58577077D02*
X183207026Y-59053267D01*
X182873693Y-56958029D02*
X183540360Y-56958029D01*
X182873693Y-57386600D02*
X183397502Y-57386600D01*
X183397502Y-57386600D02*
X183492741Y-57338981D01*
X183492741Y-57338981D02*
X183540360Y-57243743D01*
X183540360Y-57243743D02*
X183540360Y-57100886D01*
X183540360Y-57100886D02*
X183492741Y-57005648D01*
X183492741Y-57005648D02*
X183445121Y-56958029D01*
X182873693Y-56481838D02*
X183873693Y-56481838D01*
X182921312Y-56481838D02*
X182873693Y-56386600D01*
X182873693Y-56386600D02*
X182873693Y-56196124D01*
X182873693Y-56196124D02*
X182921312Y-56100886D01*
X182921312Y-56100886D02*
X182968931Y-56053267D01*
X182968931Y-56053267D02*
X183064169Y-56005648D01*
X183064169Y-56005648D02*
X183349883Y-56005648D01*
X183349883Y-56005648D02*
X183445121Y-56053267D01*
X183445121Y-56053267D02*
X183492741Y-56100886D01*
X183492741Y-56100886D02*
X183540360Y-56196124D01*
X183540360Y-56196124D02*
X183540360Y-56386600D01*
X183540360Y-56386600D02*
X183492741Y-56481838D01*
X183445121Y-55577076D02*
X183492741Y-55529457D01*
X183492741Y-55529457D02*
X183540360Y-55577076D01*
X183540360Y-55577076D02*
X183492741Y-55624695D01*
X183492741Y-55624695D02*
X183445121Y-55577076D01*
X183445121Y-55577076D02*
X183540360Y-55577076D01*
X185102685Y-65624696D02*
X185150304Y-65481839D01*
X185150304Y-65481839D02*
X185150304Y-65243744D01*
X185150304Y-65243744D02*
X185102685Y-65148506D01*
X185102685Y-65148506D02*
X185055065Y-65100887D01*
X185055065Y-65100887D02*
X184959827Y-65053268D01*
X184959827Y-65053268D02*
X184864589Y-65053268D01*
X184864589Y-65053268D02*
X184769351Y-65100887D01*
X184769351Y-65100887D02*
X184721732Y-65148506D01*
X184721732Y-65148506D02*
X184674113Y-65243744D01*
X184674113Y-65243744D02*
X184626494Y-65434220D01*
X184626494Y-65434220D02*
X184578875Y-65529458D01*
X184578875Y-65529458D02*
X184531256Y-65577077D01*
X184531256Y-65577077D02*
X184436018Y-65624696D01*
X184436018Y-65624696D02*
X184340780Y-65624696D01*
X184340780Y-65624696D02*
X184245542Y-65577077D01*
X184245542Y-65577077D02*
X184197923Y-65529458D01*
X184197923Y-65529458D02*
X184150304Y-65434220D01*
X184150304Y-65434220D02*
X184150304Y-65196125D01*
X184150304Y-65196125D02*
X184197923Y-65053268D01*
X185150304Y-64481839D02*
X185102685Y-64577077D01*
X185102685Y-64577077D02*
X185055065Y-64624696D01*
X185055065Y-64624696D02*
X184959827Y-64672315D01*
X184959827Y-64672315D02*
X184674113Y-64672315D01*
X184674113Y-64672315D02*
X184578875Y-64624696D01*
X184578875Y-64624696D02*
X184531256Y-64577077D01*
X184531256Y-64577077D02*
X184483637Y-64481839D01*
X184483637Y-64481839D02*
X184483637Y-64338982D01*
X184483637Y-64338982D02*
X184531256Y-64243744D01*
X184531256Y-64243744D02*
X184578875Y-64196125D01*
X184578875Y-64196125D02*
X184674113Y-64148506D01*
X184674113Y-64148506D02*
X184959827Y-64148506D01*
X184959827Y-64148506D02*
X185055065Y-64196125D01*
X185055065Y-64196125D02*
X185102685Y-64243744D01*
X185102685Y-64243744D02*
X185150304Y-64338982D01*
X185150304Y-64338982D02*
X185150304Y-64481839D01*
X185150304Y-63577077D02*
X185102685Y-63672315D01*
X185102685Y-63672315D02*
X185007446Y-63719934D01*
X185007446Y-63719934D02*
X184150304Y-63719934D01*
X185150304Y-62767553D02*
X184150304Y-62767553D01*
X185102685Y-62767553D02*
X185150304Y-62862791D01*
X185150304Y-62862791D02*
X185150304Y-63053267D01*
X185150304Y-63053267D02*
X185102685Y-63148505D01*
X185102685Y-63148505D02*
X185055065Y-63196124D01*
X185055065Y-63196124D02*
X184959827Y-63243743D01*
X184959827Y-63243743D02*
X184674113Y-63243743D01*
X184674113Y-63243743D02*
X184578875Y-63196124D01*
X184578875Y-63196124D02*
X184531256Y-63148505D01*
X184531256Y-63148505D02*
X184483637Y-63053267D01*
X184483637Y-63053267D02*
X184483637Y-62862791D01*
X184483637Y-62862791D02*
X184531256Y-62767553D01*
X185102685Y-61910410D02*
X185150304Y-62005648D01*
X185150304Y-62005648D02*
X185150304Y-62196124D01*
X185150304Y-62196124D02*
X185102685Y-62291362D01*
X185102685Y-62291362D02*
X185007446Y-62338981D01*
X185007446Y-62338981D02*
X184626494Y-62338981D01*
X184626494Y-62338981D02*
X184531256Y-62291362D01*
X184531256Y-62291362D02*
X184483637Y-62196124D01*
X184483637Y-62196124D02*
X184483637Y-62005648D01*
X184483637Y-62005648D02*
X184531256Y-61910410D01*
X184531256Y-61910410D02*
X184626494Y-61862791D01*
X184626494Y-61862791D02*
X184721732Y-61862791D01*
X184721732Y-61862791D02*
X184816970Y-62338981D01*
X185150304Y-61434219D02*
X184483637Y-61434219D01*
X184674113Y-61434219D02*
X184578875Y-61386600D01*
X184578875Y-61386600D02*
X184531256Y-61338981D01*
X184531256Y-61338981D02*
X184483637Y-61243743D01*
X184483637Y-61243743D02*
X184483637Y-61148505D01*
X184483637Y-60053266D02*
X185340780Y-60053266D01*
X185340780Y-60053266D02*
X185436018Y-60100885D01*
X185436018Y-60100885D02*
X185483637Y-60196123D01*
X185483637Y-60196123D02*
X185483637Y-60243742D01*
X184150304Y-60053266D02*
X184197923Y-60100885D01*
X184197923Y-60100885D02*
X184245542Y-60053266D01*
X184245542Y-60053266D02*
X184197923Y-60005647D01*
X184197923Y-60005647D02*
X184150304Y-60053266D01*
X184150304Y-60053266D02*
X184245542Y-60053266D01*
X184483637Y-59148505D02*
X185150304Y-59148505D01*
X184483637Y-59577076D02*
X185007446Y-59577076D01*
X185007446Y-59577076D02*
X185102685Y-59529457D01*
X185102685Y-59529457D02*
X185150304Y-59434219D01*
X185150304Y-59434219D02*
X185150304Y-59291362D01*
X185150304Y-59291362D02*
X185102685Y-59196124D01*
X185102685Y-59196124D02*
X185055065Y-59148505D01*
X185150304Y-58672314D02*
X184483637Y-58672314D01*
X184578875Y-58672314D02*
X184531256Y-58624695D01*
X184531256Y-58624695D02*
X184483637Y-58529457D01*
X184483637Y-58529457D02*
X184483637Y-58386600D01*
X184483637Y-58386600D02*
X184531256Y-58291362D01*
X184531256Y-58291362D02*
X184626494Y-58243743D01*
X184626494Y-58243743D02*
X185150304Y-58243743D01*
X184626494Y-58243743D02*
X184531256Y-58196124D01*
X184531256Y-58196124D02*
X184483637Y-58100886D01*
X184483637Y-58100886D02*
X184483637Y-57958029D01*
X184483637Y-57958029D02*
X184531256Y-57862790D01*
X184531256Y-57862790D02*
X184626494Y-57815171D01*
X184626494Y-57815171D02*
X185150304Y-57815171D01*
X184483637Y-57338981D02*
X185483637Y-57338981D01*
X184531256Y-57338981D02*
X184483637Y-57243743D01*
X184483637Y-57243743D02*
X184483637Y-57053267D01*
X184483637Y-57053267D02*
X184531256Y-56958029D01*
X184531256Y-56958029D02*
X184578875Y-56910410D01*
X184578875Y-56910410D02*
X184674113Y-56862791D01*
X184674113Y-56862791D02*
X184959827Y-56862791D01*
X184959827Y-56862791D02*
X185055065Y-56910410D01*
X185055065Y-56910410D02*
X185102685Y-56958029D01*
X185102685Y-56958029D02*
X185150304Y-57053267D01*
X185150304Y-57053267D02*
X185150304Y-57243743D01*
X185150304Y-57243743D02*
X185102685Y-57338981D01*
X185102685Y-56053267D02*
X185150304Y-56148505D01*
X185150304Y-56148505D02*
X185150304Y-56338981D01*
X185150304Y-56338981D02*
X185102685Y-56434219D01*
X185102685Y-56434219D02*
X185007446Y-56481838D01*
X185007446Y-56481838D02*
X184626494Y-56481838D01*
X184626494Y-56481838D02*
X184531256Y-56434219D01*
X184531256Y-56434219D02*
X184483637Y-56338981D01*
X184483637Y-56338981D02*
X184483637Y-56148505D01*
X184483637Y-56148505D02*
X184531256Y-56053267D01*
X184531256Y-56053267D02*
X184626494Y-56005648D01*
X184626494Y-56005648D02*
X184721732Y-56005648D01*
X184721732Y-56005648D02*
X184816970Y-56481838D01*
X185150304Y-55577076D02*
X184483637Y-55577076D01*
X184674113Y-55577076D02*
X184578875Y-55529457D01*
X184578875Y-55529457D02*
X184531256Y-55481838D01*
X184531256Y-55481838D02*
X184483637Y-55386600D01*
X184483637Y-55386600D02*
X184483637Y-55291362D01*
X185102685Y-55005647D02*
X185150304Y-54910409D01*
X185150304Y-54910409D02*
X185150304Y-54719933D01*
X185150304Y-54719933D02*
X185102685Y-54624695D01*
X185102685Y-54624695D02*
X185007446Y-54577076D01*
X185007446Y-54577076D02*
X184959827Y-54577076D01*
X184959827Y-54577076D02*
X184864589Y-54624695D01*
X184864589Y-54624695D02*
X184816970Y-54719933D01*
X184816970Y-54719933D02*
X184816970Y-54862790D01*
X184816970Y-54862790D02*
X184769351Y-54958028D01*
X184769351Y-54958028D02*
X184674113Y-55005647D01*
X184674113Y-55005647D02*
X184626494Y-55005647D01*
X184626494Y-55005647D02*
X184531256Y-54958028D01*
X184531256Y-54958028D02*
X184483637Y-54862790D01*
X184483637Y-54862790D02*
X184483637Y-54719933D01*
X184483637Y-54719933D02*
X184531256Y-54624695D01*
X185150304Y-53243742D02*
X185102685Y-53338980D01*
X185102685Y-53338980D02*
X185055065Y-53386599D01*
X185055065Y-53386599D02*
X184959827Y-53434218D01*
X184959827Y-53434218D02*
X184674113Y-53434218D01*
X184674113Y-53434218D02*
X184578875Y-53386599D01*
X184578875Y-53386599D02*
X184531256Y-53338980D01*
X184531256Y-53338980D02*
X184483637Y-53243742D01*
X184483637Y-53243742D02*
X184483637Y-53100885D01*
X184483637Y-53100885D02*
X184531256Y-53005647D01*
X184531256Y-53005647D02*
X184578875Y-52958028D01*
X184578875Y-52958028D02*
X184674113Y-52910409D01*
X184674113Y-52910409D02*
X184959827Y-52910409D01*
X184959827Y-52910409D02*
X185055065Y-52958028D01*
X185055065Y-52958028D02*
X185102685Y-53005647D01*
X185102685Y-53005647D02*
X185150304Y-53100885D01*
X185150304Y-53100885D02*
X185150304Y-53243742D01*
X184483637Y-52481837D02*
X185150304Y-52481837D01*
X184578875Y-52481837D02*
X184531256Y-52434218D01*
X184531256Y-52434218D02*
X184483637Y-52338980D01*
X184483637Y-52338980D02*
X184483637Y-52196123D01*
X184483637Y-52196123D02*
X184531256Y-52100885D01*
X184531256Y-52100885D02*
X184626494Y-52053266D01*
X184626494Y-52053266D02*
X185150304Y-52053266D01*
X185150304Y-50672313D02*
X185102685Y-50767551D01*
X185102685Y-50767551D02*
X185055065Y-50815170D01*
X185055065Y-50815170D02*
X184959827Y-50862789D01*
X184959827Y-50862789D02*
X184674113Y-50862789D01*
X184674113Y-50862789D02*
X184578875Y-50815170D01*
X184578875Y-50815170D02*
X184531256Y-50767551D01*
X184531256Y-50767551D02*
X184483637Y-50672313D01*
X184483637Y-50672313D02*
X184483637Y-50529456D01*
X184483637Y-50529456D02*
X184531256Y-50434218D01*
X184531256Y-50434218D02*
X184578875Y-50386599D01*
X184578875Y-50386599D02*
X184674113Y-50338980D01*
X184674113Y-50338980D02*
X184959827Y-50338980D01*
X184959827Y-50338980D02*
X185055065Y-50386599D01*
X185055065Y-50386599D02*
X185102685Y-50434218D01*
X185102685Y-50434218D02*
X185150304Y-50529456D01*
X185150304Y-50529456D02*
X185150304Y-50672313D01*
X184483637Y-50053265D02*
X184483637Y-49672313D01*
X184150304Y-49910408D02*
X185007446Y-49910408D01*
X185007446Y-49910408D02*
X185102685Y-49862789D01*
X185102685Y-49862789D02*
X185150304Y-49767551D01*
X185150304Y-49767551D02*
X185150304Y-49672313D01*
X185150304Y-49338979D02*
X184150304Y-49338979D01*
X185150304Y-48910408D02*
X184626494Y-48910408D01*
X184626494Y-48910408D02*
X184531256Y-48958027D01*
X184531256Y-48958027D02*
X184483637Y-49053265D01*
X184483637Y-49053265D02*
X184483637Y-49196122D01*
X184483637Y-49196122D02*
X184531256Y-49291360D01*
X184531256Y-49291360D02*
X184578875Y-49338979D01*
X185102685Y-48053265D02*
X185150304Y-48148503D01*
X185150304Y-48148503D02*
X185150304Y-48338979D01*
X185150304Y-48338979D02*
X185102685Y-48434217D01*
X185102685Y-48434217D02*
X185007446Y-48481836D01*
X185007446Y-48481836D02*
X184626494Y-48481836D01*
X184626494Y-48481836D02*
X184531256Y-48434217D01*
X184531256Y-48434217D02*
X184483637Y-48338979D01*
X184483637Y-48338979D02*
X184483637Y-48148503D01*
X184483637Y-48148503D02*
X184531256Y-48053265D01*
X184531256Y-48053265D02*
X184626494Y-48005646D01*
X184626494Y-48005646D02*
X184721732Y-48005646D01*
X184721732Y-48005646D02*
X184816970Y-48481836D01*
X185150304Y-47577074D02*
X184483637Y-47577074D01*
X184674113Y-47577074D02*
X184578875Y-47529455D01*
X184578875Y-47529455D02*
X184531256Y-47481836D01*
X184531256Y-47481836D02*
X184483637Y-47386598D01*
X184483637Y-47386598D02*
X184483637Y-47291360D01*
X185102685Y-46243740D02*
X185150304Y-46148502D01*
X185150304Y-46148502D02*
X185150304Y-45958026D01*
X185150304Y-45958026D02*
X185102685Y-45862788D01*
X185102685Y-45862788D02*
X185007446Y-45815169D01*
X185007446Y-45815169D02*
X184959827Y-45815169D01*
X184959827Y-45815169D02*
X184864589Y-45862788D01*
X184864589Y-45862788D02*
X184816970Y-45958026D01*
X184816970Y-45958026D02*
X184816970Y-46100883D01*
X184816970Y-46100883D02*
X184769351Y-46196121D01*
X184769351Y-46196121D02*
X184674113Y-46243740D01*
X184674113Y-46243740D02*
X184626494Y-46243740D01*
X184626494Y-46243740D02*
X184531256Y-46196121D01*
X184531256Y-46196121D02*
X184483637Y-46100883D01*
X184483637Y-46100883D02*
X184483637Y-45958026D01*
X184483637Y-45958026D02*
X184531256Y-45862788D01*
X185150304Y-45386597D02*
X184483637Y-45386597D01*
X184150304Y-45386597D02*
X184197923Y-45434216D01*
X184197923Y-45434216D02*
X184245542Y-45386597D01*
X184245542Y-45386597D02*
X184197923Y-45338978D01*
X184197923Y-45338978D02*
X184150304Y-45386597D01*
X184150304Y-45386597D02*
X184245542Y-45386597D01*
X185150304Y-44481836D02*
X184150304Y-44481836D01*
X185102685Y-44481836D02*
X185150304Y-44577074D01*
X185150304Y-44577074D02*
X185150304Y-44767550D01*
X185150304Y-44767550D02*
X185102685Y-44862788D01*
X185102685Y-44862788D02*
X185055065Y-44910407D01*
X185055065Y-44910407D02*
X184959827Y-44958026D01*
X184959827Y-44958026D02*
X184674113Y-44958026D01*
X184674113Y-44958026D02*
X184578875Y-44910407D01*
X184578875Y-44910407D02*
X184531256Y-44862788D01*
X184531256Y-44862788D02*
X184483637Y-44767550D01*
X184483637Y-44767550D02*
X184483637Y-44577074D01*
X184483637Y-44577074D02*
X184531256Y-44481836D01*
X185102685Y-43624693D02*
X185150304Y-43719931D01*
X185150304Y-43719931D02*
X185150304Y-43910407D01*
X185150304Y-43910407D02*
X185102685Y-44005645D01*
X185102685Y-44005645D02*
X185007446Y-44053264D01*
X185007446Y-44053264D02*
X184626494Y-44053264D01*
X184626494Y-44053264D02*
X184531256Y-44005645D01*
X184531256Y-44005645D02*
X184483637Y-43910407D01*
X184483637Y-43910407D02*
X184483637Y-43719931D01*
X184483637Y-43719931D02*
X184531256Y-43624693D01*
X184531256Y-43624693D02*
X184626494Y-43577074D01*
X184626494Y-43577074D02*
X184721732Y-43577074D01*
X184721732Y-43577074D02*
X184816970Y-44053264D01*
X185055065Y-43148502D02*
X185102685Y-43100883D01*
X185102685Y-43100883D02*
X185150304Y-43148502D01*
X185150304Y-43148502D02*
X185102685Y-43196121D01*
X185102685Y-43196121D02*
X185055065Y-43148502D01*
X185055065Y-43148502D02*
X185150304Y-43148502D01*
X197399436Y-81237125D02*
X195399436Y-80987125D01*
X196351817Y-81106172D02*
X196351817Y-79963315D01*
X197399436Y-80094268D02*
X195399436Y-79844268D01*
X197399436Y-78856173D02*
X197304198Y-79034744D01*
X197304198Y-79034744D02*
X197208959Y-79118077D01*
X197208959Y-79118077D02*
X197018483Y-79189506D01*
X197018483Y-79189506D02*
X196447055Y-79118077D01*
X196447055Y-79118077D02*
X196256578Y-78999030D01*
X196256578Y-78999030D02*
X196161340Y-78891887D01*
X196161340Y-78891887D02*
X196066102Y-78689506D01*
X196066102Y-78689506D02*
X196066102Y-78403792D01*
X196066102Y-78403792D02*
X196161340Y-78225220D01*
X196161340Y-78225220D02*
X196256578Y-78141887D01*
X196256578Y-78141887D02*
X196447055Y-78070458D01*
X196447055Y-78070458D02*
X197018483Y-78141887D01*
X197018483Y-78141887D02*
X197208959Y-78260934D01*
X197208959Y-78260934D02*
X197304198Y-78368077D01*
X197304198Y-78368077D02*
X197399436Y-78570458D01*
X197399436Y-78570458D02*
X197399436Y-78856173D01*
X197399436Y-77046649D02*
X197304198Y-77225220D01*
X197304198Y-77225220D02*
X197208959Y-77308553D01*
X197208959Y-77308553D02*
X197018483Y-77379982D01*
X197018483Y-77379982D02*
X196447055Y-77308553D01*
X196447055Y-77308553D02*
X196256578Y-77189506D01*
X196256578Y-77189506D02*
X196161340Y-77082363D01*
X196161340Y-77082363D02*
X196066102Y-76879982D01*
X196066102Y-76879982D02*
X196066102Y-76594268D01*
X196066102Y-76594268D02*
X196161340Y-76415696D01*
X196161340Y-76415696D02*
X196256578Y-76332363D01*
X196256578Y-76332363D02*
X196447055Y-76260934D01*
X196447055Y-76260934D02*
X197018483Y-76332363D01*
X197018483Y-76332363D02*
X197208959Y-76451410D01*
X197208959Y-76451410D02*
X197304198Y-76558553D01*
X197304198Y-76558553D02*
X197399436Y-76760934D01*
X197399436Y-76760934D02*
X197399436Y-77046649D01*
X197399436Y-75522839D02*
X195399436Y-75272839D01*
X196637531Y-75237125D02*
X197399436Y-74760934D01*
X196066102Y-74594267D02*
X196828007Y-75451410D01*
X197399436Y-73046648D02*
X196351817Y-72915696D01*
X196351817Y-72915696D02*
X196161340Y-72987124D01*
X196161340Y-72987124D02*
X196066102Y-73165696D01*
X196066102Y-73165696D02*
X196066102Y-73546648D01*
X196066102Y-73546648D02*
X196161340Y-73749029D01*
X197304198Y-73034743D02*
X197399436Y-73237124D01*
X197399436Y-73237124D02*
X197399436Y-73713315D01*
X197399436Y-73713315D02*
X197304198Y-73891886D01*
X197304198Y-73891886D02*
X197113721Y-73963315D01*
X197113721Y-73963315D02*
X196923245Y-73939505D01*
X196923245Y-73939505D02*
X196732769Y-73820457D01*
X196732769Y-73820457D02*
X196637531Y-73618077D01*
X196637531Y-73618077D02*
X196637531Y-73141886D01*
X196637531Y-73141886D02*
X196542293Y-72939505D01*
X197399436Y-72094267D02*
X195399436Y-71844267D01*
X197399436Y-71237124D02*
X196351817Y-71106172D01*
X196351817Y-71106172D02*
X196161340Y-71177600D01*
X196161340Y-71177600D02*
X196066102Y-71356172D01*
X196066102Y-71356172D02*
X196066102Y-71641886D01*
X196066102Y-71641886D02*
X196161340Y-71844267D01*
X196161340Y-71844267D02*
X196256578Y-71951410D01*
X197304198Y-68844266D02*
X197399436Y-68570457D01*
X197399436Y-68570457D02*
X197399436Y-68094266D01*
X197399436Y-68094266D02*
X197304198Y-67891885D01*
X197304198Y-67891885D02*
X197208959Y-67784742D01*
X197208959Y-67784742D02*
X197018483Y-67665695D01*
X197018483Y-67665695D02*
X196828007Y-67641885D01*
X196828007Y-67641885D02*
X196637531Y-67713314D01*
X196637531Y-67713314D02*
X196542293Y-67796647D01*
X196542293Y-67796647D02*
X196447055Y-67975219D01*
X196447055Y-67975219D02*
X196351817Y-68344266D01*
X196351817Y-68344266D02*
X196256578Y-68522838D01*
X196256578Y-68522838D02*
X196161340Y-68606171D01*
X196161340Y-68606171D02*
X195970864Y-68677599D01*
X195970864Y-68677599D02*
X195780388Y-68653790D01*
X195780388Y-68653790D02*
X195589912Y-68534742D01*
X195589912Y-68534742D02*
X195494674Y-68427599D01*
X195494674Y-68427599D02*
X195399436Y-68225219D01*
X195399436Y-68225219D02*
X195399436Y-67749028D01*
X195399436Y-67749028D02*
X195494674Y-67475219D01*
X196066102Y-66689504D02*
X198066102Y-66939504D01*
X196161340Y-66701409D02*
X196066102Y-66499028D01*
X196066102Y-66499028D02*
X196066102Y-66118076D01*
X196066102Y-66118076D02*
X196161340Y-65939504D01*
X196161340Y-65939504D02*
X196256578Y-65856171D01*
X196256578Y-65856171D02*
X196447055Y-65784742D01*
X196447055Y-65784742D02*
X197018483Y-65856171D01*
X197018483Y-65856171D02*
X197208959Y-65975218D01*
X197208959Y-65975218D02*
X197304198Y-66082361D01*
X197304198Y-66082361D02*
X197399436Y-66284742D01*
X197399436Y-66284742D02*
X197399436Y-66665695D01*
X197399436Y-66665695D02*
X197304198Y-66844266D01*
X197399436Y-64760933D02*
X197304198Y-64939504D01*
X197304198Y-64939504D02*
X197113721Y-65010933D01*
X197113721Y-65010933D02*
X195399436Y-64796647D01*
X197399436Y-63999028D02*
X196066102Y-63832361D01*
X195399436Y-63749028D02*
X195494674Y-63856171D01*
X195494674Y-63856171D02*
X195589912Y-63772837D01*
X195589912Y-63772837D02*
X195494674Y-63665694D01*
X195494674Y-63665694D02*
X195399436Y-63749028D01*
X195399436Y-63749028D02*
X195589912Y-63772837D01*
X196066102Y-63165694D02*
X196066102Y-62403790D01*
X195399436Y-62796647D02*
X197113721Y-63010933D01*
X197113721Y-63010933D02*
X197304198Y-62939504D01*
X197304198Y-62939504D02*
X197399436Y-62760933D01*
X197399436Y-62760933D02*
X197399436Y-62570456D01*
X195399436Y-60320456D02*
X197399436Y-60094266D01*
X197399436Y-60094266D02*
X195970864Y-59534742D01*
X195970864Y-59534742D02*
X197399436Y-59332361D01*
X197399436Y-59332361D02*
X195399436Y-58606170D01*
X197399436Y-58094266D02*
X196066102Y-57927599D01*
X195399436Y-57844266D02*
X195494674Y-57951409D01*
X195494674Y-57951409D02*
X195589912Y-57868075D01*
X195589912Y-57868075D02*
X195494674Y-57760932D01*
X195494674Y-57760932D02*
X195399436Y-57844266D01*
X195399436Y-57844266D02*
X195589912Y-57868075D01*
X197399436Y-57141885D02*
X196066102Y-56975218D01*
X196447055Y-57022837D02*
X196256578Y-56903790D01*
X196256578Y-56903790D02*
X196161340Y-56796647D01*
X196161340Y-56796647D02*
X196066102Y-56594266D01*
X196066102Y-56594266D02*
X196066102Y-56403790D01*
X197304198Y-55129980D02*
X197399436Y-55332361D01*
X197399436Y-55332361D02*
X197399436Y-55713314D01*
X197399436Y-55713314D02*
X197304198Y-55891885D01*
X197304198Y-55891885D02*
X197113721Y-55963314D01*
X197113721Y-55963314D02*
X196351817Y-55868076D01*
X196351817Y-55868076D02*
X196161340Y-55749028D01*
X196161340Y-55749028D02*
X196066102Y-55546647D01*
X196066102Y-55546647D02*
X196066102Y-55165695D01*
X196066102Y-55165695D02*
X196161340Y-54987123D01*
X196161340Y-54987123D02*
X196351817Y-54915695D01*
X196351817Y-54915695D02*
X196542293Y-54939504D01*
X196542293Y-54939504D02*
X196732769Y-55915695D01*
X197399436Y-53903790D02*
X197304198Y-54082361D01*
X197304198Y-54082361D02*
X197113721Y-54153790D01*
X197113721Y-54153790D02*
X195399436Y-53939504D01*
X197304198Y-52368075D02*
X197399436Y-52570456D01*
X197399436Y-52570456D02*
X197399436Y-52951409D01*
X197399436Y-52951409D02*
X197304198Y-53129980D01*
X197304198Y-53129980D02*
X197113721Y-53201409D01*
X197113721Y-53201409D02*
X196351817Y-53106171D01*
X196351817Y-53106171D02*
X196161340Y-52987123D01*
X196161340Y-52987123D02*
X196066102Y-52784742D01*
X196066102Y-52784742D02*
X196066102Y-52403790D01*
X196066102Y-52403790D02*
X196161340Y-52225218D01*
X196161340Y-52225218D02*
X196351817Y-52153790D01*
X196351817Y-52153790D02*
X196542293Y-52177599D01*
X196542293Y-52177599D02*
X196732769Y-53153790D01*
X197304198Y-51510932D02*
X197399436Y-51332361D01*
X197399436Y-51332361D02*
X197399436Y-50951408D01*
X197399436Y-50951408D02*
X197304198Y-50749027D01*
X197304198Y-50749027D02*
X197113721Y-50629980D01*
X197113721Y-50629980D02*
X197018483Y-50618075D01*
X197018483Y-50618075D02*
X196828007Y-50689504D01*
X196828007Y-50689504D02*
X196732769Y-50868075D01*
X196732769Y-50868075D02*
X196732769Y-51153789D01*
X196732769Y-51153789D02*
X196637531Y-51332361D01*
X196637531Y-51332361D02*
X196447055Y-51403789D01*
X196447055Y-51403789D02*
X196351817Y-51391885D01*
X196351817Y-51391885D02*
X196161340Y-51272837D01*
X196161340Y-51272837D02*
X196066102Y-51070456D01*
X196066102Y-51070456D02*
X196066102Y-50784742D01*
X196066102Y-50784742D02*
X196161340Y-50606170D01*
X197304198Y-49891884D02*
X197399436Y-49713313D01*
X197399436Y-49713313D02*
X197399436Y-49332360D01*
X197399436Y-49332360D02*
X197304198Y-49129979D01*
X197304198Y-49129979D02*
X197113721Y-49010932D01*
X197113721Y-49010932D02*
X197018483Y-48999027D01*
X197018483Y-48999027D02*
X196828007Y-49070456D01*
X196828007Y-49070456D02*
X196732769Y-49249027D01*
X196732769Y-49249027D02*
X196732769Y-49534741D01*
X196732769Y-49534741D02*
X196637531Y-49713313D01*
X196637531Y-49713313D02*
X196447055Y-49784741D01*
X196447055Y-49784741D02*
X196351817Y-49772837D01*
X196351817Y-49772837D02*
X196161340Y-49653789D01*
X196161340Y-49653789D02*
X196066102Y-49451408D01*
X196066102Y-49451408D02*
X196066102Y-49165694D01*
X196066102Y-49165694D02*
X196161340Y-48987122D01*
X122479291Y-88380619D02*
X122479291Y-89094904D01*
X122479291Y-89094904D02*
X122431672Y-89237761D01*
X122431672Y-89237761D02*
X122336434Y-89333000D01*
X122336434Y-89333000D02*
X122193577Y-89380619D01*
X122193577Y-89380619D02*
X122098339Y-89380619D01*
X123431672Y-89380619D02*
X122955482Y-89380619D01*
X122955482Y-89380619D02*
X122955482Y-88380619D01*
X124336434Y-89285380D02*
X124288815Y-89333000D01*
X124288815Y-89333000D02*
X124145958Y-89380619D01*
X124145958Y-89380619D02*
X124050720Y-89380619D01*
X124050720Y-89380619D02*
X123907863Y-89333000D01*
X123907863Y-89333000D02*
X123812625Y-89237761D01*
X123812625Y-89237761D02*
X123765006Y-89142523D01*
X123765006Y-89142523D02*
X123717387Y-88952047D01*
X123717387Y-88952047D02*
X123717387Y-88809190D01*
X123717387Y-88809190D02*
X123765006Y-88618714D01*
X123765006Y-88618714D02*
X123812625Y-88523476D01*
X123812625Y-88523476D02*
X123907863Y-88428238D01*
X123907863Y-88428238D02*
X124050720Y-88380619D01*
X124050720Y-88380619D02*
X124145958Y-88380619D01*
X124145958Y-88380619D02*
X124288815Y-88428238D01*
X124288815Y-88428238D02*
X124336434Y-88475857D01*
X125050720Y-88380619D02*
X125050720Y-89094904D01*
X125050720Y-89094904D02*
X125003101Y-89237761D01*
X125003101Y-89237761D02*
X124907863Y-89333000D01*
X124907863Y-89333000D02*
X124765006Y-89380619D01*
X124765006Y-89380619D02*
X124669768Y-89380619D01*
X126003101Y-89380619D02*
X125526911Y-89380619D01*
X125526911Y-89380619D02*
X125526911Y-88380619D01*
X126907863Y-89285380D02*
X126860244Y-89333000D01*
X126860244Y-89333000D02*
X126717387Y-89380619D01*
X126717387Y-89380619D02*
X126622149Y-89380619D01*
X126622149Y-89380619D02*
X126479292Y-89333000D01*
X126479292Y-89333000D02*
X126384054Y-89237761D01*
X126384054Y-89237761D02*
X126336435Y-89142523D01*
X126336435Y-89142523D02*
X126288816Y-88952047D01*
X126288816Y-88952047D02*
X126288816Y-88809190D01*
X126288816Y-88809190D02*
X126336435Y-88618714D01*
X126336435Y-88618714D02*
X126384054Y-88523476D01*
X126384054Y-88523476D02*
X126479292Y-88428238D01*
X126479292Y-88428238D02*
X126622149Y-88380619D01*
X126622149Y-88380619D02*
X126717387Y-88380619D01*
X126717387Y-88380619D02*
X126860244Y-88428238D01*
X126860244Y-88428238D02*
X126907863Y-88475857D01*
X127622149Y-88380619D02*
X127622149Y-89094904D01*
X127622149Y-89094904D02*
X127574530Y-89237761D01*
X127574530Y-89237761D02*
X127479292Y-89333000D01*
X127479292Y-89333000D02*
X127336435Y-89380619D01*
X127336435Y-89380619D02*
X127241197Y-89380619D01*
X128574530Y-89380619D02*
X128098340Y-89380619D01*
X128098340Y-89380619D02*
X128098340Y-88380619D01*
X129479292Y-89285380D02*
X129431673Y-89333000D01*
X129431673Y-89333000D02*
X129288816Y-89380619D01*
X129288816Y-89380619D02*
X129193578Y-89380619D01*
X129193578Y-89380619D02*
X129050721Y-89333000D01*
X129050721Y-89333000D02*
X128955483Y-89237761D01*
X128955483Y-89237761D02*
X128907864Y-89142523D01*
X128907864Y-89142523D02*
X128860245Y-88952047D01*
X128860245Y-88952047D02*
X128860245Y-88809190D01*
X128860245Y-88809190D02*
X128907864Y-88618714D01*
X128907864Y-88618714D02*
X128955483Y-88523476D01*
X128955483Y-88523476D02*
X129050721Y-88428238D01*
X129050721Y-88428238D02*
X129193578Y-88380619D01*
X129193578Y-88380619D02*
X129288816Y-88380619D01*
X129288816Y-88380619D02*
X129431673Y-88428238D01*
X129431673Y-88428238D02*
X129479292Y-88475857D01*
X130193578Y-88380619D02*
X130193578Y-89094904D01*
X130193578Y-89094904D02*
X130145959Y-89237761D01*
X130145959Y-89237761D02*
X130050721Y-89333000D01*
X130050721Y-89333000D02*
X129907864Y-89380619D01*
X129907864Y-89380619D02*
X129812626Y-89380619D01*
X131145959Y-89380619D02*
X130669769Y-89380619D01*
X130669769Y-89380619D02*
X130669769Y-88380619D01*
X132050721Y-89285380D02*
X132003102Y-89333000D01*
X132003102Y-89333000D02*
X131860245Y-89380619D01*
X131860245Y-89380619D02*
X131765007Y-89380619D01*
X131765007Y-89380619D02*
X131622150Y-89333000D01*
X131622150Y-89333000D02*
X131526912Y-89237761D01*
X131526912Y-89237761D02*
X131479293Y-89142523D01*
X131479293Y-89142523D02*
X131431674Y-88952047D01*
X131431674Y-88952047D02*
X131431674Y-88809190D01*
X131431674Y-88809190D02*
X131479293Y-88618714D01*
X131479293Y-88618714D02*
X131526912Y-88523476D01*
X131526912Y-88523476D02*
X131622150Y-88428238D01*
X131622150Y-88428238D02*
X131765007Y-88380619D01*
X131765007Y-88380619D02*
X131860245Y-88380619D01*
X131860245Y-88380619D02*
X132003102Y-88428238D01*
X132003102Y-88428238D02*
X132050721Y-88475857D01*
X141125908Y-86819065D02*
X141125908Y-85819065D01*
X141125908Y-85819065D02*
X141364003Y-85819065D01*
X141364003Y-85819065D02*
X141506860Y-85866684D01*
X141506860Y-85866684D02*
X141602098Y-85961922D01*
X141602098Y-85961922D02*
X141649717Y-86057160D01*
X141649717Y-86057160D02*
X141697336Y-86247636D01*
X141697336Y-86247636D02*
X141697336Y-86390493D01*
X141697336Y-86390493D02*
X141649717Y-86580969D01*
X141649717Y-86580969D02*
X141602098Y-86676207D01*
X141602098Y-86676207D02*
X141506860Y-86771446D01*
X141506860Y-86771446D02*
X141364003Y-86819065D01*
X141364003Y-86819065D02*
X141125908Y-86819065D01*
X142649717Y-86819065D02*
X142078289Y-86819065D01*
X142364003Y-86819065D02*
X142364003Y-85819065D01*
X142364003Y-85819065D02*
X142268765Y-85961922D01*
X142268765Y-85961922D02*
X142173527Y-86057160D01*
X142173527Y-86057160D02*
X142078289Y-86104779D01*
X142983051Y-85819065D02*
X143602098Y-85819065D01*
X143602098Y-85819065D02*
X143268765Y-86200017D01*
X143268765Y-86200017D02*
X143411622Y-86200017D01*
X143411622Y-86200017D02*
X143506860Y-86247636D01*
X143506860Y-86247636D02*
X143554479Y-86295255D01*
X143554479Y-86295255D02*
X143602098Y-86390493D01*
X143602098Y-86390493D02*
X143602098Y-86628588D01*
X143602098Y-86628588D02*
X143554479Y-86723826D01*
X143554479Y-86723826D02*
X143506860Y-86771446D01*
X143506860Y-86771446D02*
X143411622Y-86819065D01*
X143411622Y-86819065D02*
X143125908Y-86819065D01*
X143125908Y-86819065D02*
X143030670Y-86771446D01*
X143030670Y-86771446D02*
X142983051Y-86723826D01*
X146528024Y-85903849D02*
X146670881Y-85951468D01*
X146670881Y-85951468D02*
X146908976Y-85951468D01*
X146908976Y-85951468D02*
X147004214Y-85903849D01*
X147004214Y-85903849D02*
X147051833Y-85856229D01*
X147051833Y-85856229D02*
X147099452Y-85760991D01*
X147099452Y-85760991D02*
X147099452Y-85665753D01*
X147099452Y-85665753D02*
X147051833Y-85570515D01*
X147051833Y-85570515D02*
X147004214Y-85522896D01*
X147004214Y-85522896D02*
X146908976Y-85475277D01*
X146908976Y-85475277D02*
X146718500Y-85427658D01*
X146718500Y-85427658D02*
X146623262Y-85380039D01*
X146623262Y-85380039D02*
X146575643Y-85332420D01*
X146575643Y-85332420D02*
X146528024Y-85237182D01*
X146528024Y-85237182D02*
X146528024Y-85141944D01*
X146528024Y-85141944D02*
X146575643Y-85046706D01*
X146575643Y-85046706D02*
X146623262Y-84999087D01*
X146623262Y-84999087D02*
X146718500Y-84951468D01*
X146718500Y-84951468D02*
X146956595Y-84951468D01*
X146956595Y-84951468D02*
X147099452Y-84999087D01*
X148051833Y-85951468D02*
X147480405Y-85951468D01*
X147766119Y-85951468D02*
X147766119Y-84951468D01*
X147766119Y-84951468D02*
X147670881Y-85094325D01*
X147670881Y-85094325D02*
X147575643Y-85189563D01*
X147575643Y-85189563D02*
X147480405Y-85237182D01*
X148385167Y-84951468D02*
X149004214Y-84951468D01*
X149004214Y-84951468D02*
X148670881Y-85332420D01*
X148670881Y-85332420D02*
X148813738Y-85332420D01*
X148813738Y-85332420D02*
X148908976Y-85380039D01*
X148908976Y-85380039D02*
X148956595Y-85427658D01*
X148956595Y-85427658D02*
X149004214Y-85522896D01*
X149004214Y-85522896D02*
X149004214Y-85760991D01*
X149004214Y-85760991D02*
X148956595Y-85856229D01*
X148956595Y-85856229D02*
X148908976Y-85903849D01*
X148908976Y-85903849D02*
X148813738Y-85951468D01*
X148813738Y-85951468D02*
X148528024Y-85951468D01*
X148528024Y-85951468D02*
X148432786Y-85903849D01*
X148432786Y-85903849D02*
X148385167Y-85856229D01*
X123125914Y-83819070D02*
X123125914Y-82819070D01*
X123125914Y-82819070D02*
X123364009Y-82819070D01*
X123364009Y-82819070D02*
X123506866Y-82866689D01*
X123506866Y-82866689D02*
X123602104Y-82961927D01*
X123602104Y-82961927D02*
X123649723Y-83057165D01*
X123649723Y-83057165D02*
X123697342Y-83247641D01*
X123697342Y-83247641D02*
X123697342Y-83390498D01*
X123697342Y-83390498D02*
X123649723Y-83580974D01*
X123649723Y-83580974D02*
X123602104Y-83676212D01*
X123602104Y-83676212D02*
X123506866Y-83771451D01*
X123506866Y-83771451D02*
X123364009Y-83819070D01*
X123364009Y-83819070D02*
X123125914Y-83819070D01*
X124649723Y-83819070D02*
X124078295Y-83819070D01*
X124364009Y-83819070D02*
X124364009Y-82819070D01*
X124364009Y-82819070D02*
X124268771Y-82961927D01*
X124268771Y-82961927D02*
X124173533Y-83057165D01*
X124173533Y-83057165D02*
X124078295Y-83104784D01*
X125268771Y-82819070D02*
X125364009Y-82819070D01*
X125364009Y-82819070D02*
X125459247Y-82866689D01*
X125459247Y-82866689D02*
X125506866Y-82914308D01*
X125506866Y-82914308D02*
X125554485Y-83009546D01*
X125554485Y-83009546D02*
X125602104Y-83200022D01*
X125602104Y-83200022D02*
X125602104Y-83438117D01*
X125602104Y-83438117D02*
X125554485Y-83628593D01*
X125554485Y-83628593D02*
X125506866Y-83723831D01*
X125506866Y-83723831D02*
X125459247Y-83771451D01*
X125459247Y-83771451D02*
X125364009Y-83819070D01*
X125364009Y-83819070D02*
X125268771Y-83819070D01*
X125268771Y-83819070D02*
X125173533Y-83771451D01*
X125173533Y-83771451D02*
X125125914Y-83723831D01*
X125125914Y-83723831D02*
X125078295Y-83628593D01*
X125078295Y-83628593D02*
X125030676Y-83438117D01*
X125030676Y-83438117D02*
X125030676Y-83200022D01*
X125030676Y-83200022D02*
X125078295Y-83009546D01*
X125078295Y-83009546D02*
X125125914Y-82914308D01*
X125125914Y-82914308D02*
X125173533Y-82866689D01*
X125173533Y-82866689D02*
X125268771Y-82819070D01*
X138008343Y-56140306D02*
X137865486Y-56092686D01*
X137865486Y-56092686D02*
X137627391Y-56092686D01*
X137627391Y-56092686D02*
X137532153Y-56140306D01*
X137532153Y-56140306D02*
X137484534Y-56187925D01*
X137484534Y-56187925D02*
X137436915Y-56283163D01*
X137436915Y-56283163D02*
X137436915Y-56378401D01*
X137436915Y-56378401D02*
X137484534Y-56473639D01*
X137484534Y-56473639D02*
X137532153Y-56521258D01*
X137532153Y-56521258D02*
X137627391Y-56568877D01*
X137627391Y-56568877D02*
X137817867Y-56616496D01*
X137817867Y-56616496D02*
X137913105Y-56664115D01*
X137913105Y-56664115D02*
X137960724Y-56711734D01*
X137960724Y-56711734D02*
X138008343Y-56806972D01*
X138008343Y-56806972D02*
X138008343Y-56902210D01*
X138008343Y-56902210D02*
X137960724Y-56997448D01*
X137960724Y-56997448D02*
X137913105Y-57045067D01*
X137913105Y-57045067D02*
X137817867Y-57092686D01*
X137817867Y-57092686D02*
X137579772Y-57092686D01*
X137579772Y-57092686D02*
X137436915Y-57045067D01*
X136484534Y-56092686D02*
X137055962Y-56092686D01*
X136770248Y-56092686D02*
X136770248Y-57092686D01*
X136770248Y-57092686D02*
X136865486Y-56949829D01*
X136865486Y-56949829D02*
X136960724Y-56854591D01*
X136960724Y-56854591D02*
X137055962Y-56806972D01*
X135627391Y-56759353D02*
X135627391Y-56092686D01*
X135865486Y-57140306D02*
X136103581Y-56426020D01*
X136103581Y-56426020D02*
X135484534Y-56426020D01*
X173342587Y-110167528D02*
X173237162Y-110275052D01*
X173237162Y-110275052D02*
X173132788Y-110489050D01*
X173132788Y-110489050D02*
X173133838Y-110595525D01*
X173133838Y-110595525D02*
X173155763Y-110659199D01*
X173155763Y-110659199D02*
X173220488Y-110743749D01*
X173220488Y-110743749D02*
X173306087Y-110785498D01*
X173306087Y-110785498D02*
X173412562Y-110784448D01*
X173412562Y-110784448D02*
X173476236Y-110762523D01*
X173476236Y-110762523D02*
X173560786Y-110697799D01*
X173560786Y-110697799D02*
X173687085Y-110547475D01*
X173687085Y-110547475D02*
X173771634Y-110482750D01*
X173771634Y-110482750D02*
X173835308Y-110460825D01*
X173835308Y-110460825D02*
X173941783Y-110459775D01*
X173941783Y-110459775D02*
X174027382Y-110501525D01*
X174027382Y-110501525D02*
X174092107Y-110586074D01*
X174092107Y-110586074D02*
X174114032Y-110649748D01*
X174114032Y-110649748D02*
X174115082Y-110756223D01*
X174115082Y-110756223D02*
X174010708Y-110970221D01*
X174010708Y-110970221D02*
X173905283Y-111077746D01*
X173695485Y-111399269D02*
X173717410Y-111462943D01*
X173717410Y-111462943D02*
X173718460Y-111569417D01*
X173718460Y-111569417D02*
X173614086Y-111783416D01*
X173614086Y-111783416D02*
X173529537Y-111848141D01*
X173529537Y-111848141D02*
X173465862Y-111870065D01*
X173465862Y-111870065D02*
X173359388Y-111871116D01*
X173359388Y-111871116D02*
X173273788Y-111829366D01*
X173273788Y-111829366D02*
X173166264Y-111723942D01*
X173166264Y-111723942D02*
X172903165Y-110959847D01*
X172903165Y-110959847D02*
X172631793Y-111516244D01*
X172214296Y-112372238D02*
X172464794Y-111858641D01*
X172339545Y-112115440D02*
X173238339Y-112553811D01*
X173238339Y-112553811D02*
X173151690Y-112405587D01*
X173151690Y-112405587D02*
X173107840Y-112278238D01*
X173107840Y-112278238D02*
X173106790Y-112171764D01*
X83379351Y-61294187D02*
X83292195Y-60297992D01*
X83292195Y-60297992D02*
X83529384Y-60277241D01*
X83529384Y-60277241D02*
X83675848Y-60312228D01*
X83675848Y-60312228D02*
X83779024Y-60398803D01*
X83779024Y-60398803D02*
X83834762Y-60489529D01*
X83834762Y-60489529D02*
X83898801Y-60675130D01*
X83898801Y-60675130D02*
X83911252Y-60817443D01*
X83911252Y-60817443D02*
X83880415Y-61011345D01*
X83880415Y-61011345D02*
X83841278Y-61110371D01*
X83841278Y-61110371D02*
X83754703Y-61213547D01*
X83754703Y-61213547D02*
X83616540Y-61273436D01*
X83616540Y-61273436D02*
X83379351Y-61294187D01*
X84715330Y-60173484D02*
X84525579Y-60190085D01*
X84525579Y-60190085D02*
X84434853Y-60245824D01*
X84434853Y-60245824D02*
X84391566Y-60297412D01*
X84391566Y-60297412D02*
X84309141Y-60448026D01*
X84309141Y-60448026D02*
X84278304Y-60641927D01*
X84278304Y-60641927D02*
X84311506Y-61021430D01*
X84311506Y-61021430D02*
X84367245Y-61112156D01*
X84367245Y-61112156D02*
X84418833Y-61155443D01*
X84418833Y-61155443D02*
X84517859Y-61194580D01*
X84517859Y-61194580D02*
X84707610Y-61177979D01*
X84707610Y-61177979D02*
X84798336Y-61122241D01*
X84798336Y-61122241D02*
X84841623Y-61070653D01*
X84841623Y-61070653D02*
X84880760Y-60971627D01*
X84880760Y-60971627D02*
X84860009Y-60734438D01*
X84860009Y-60734438D02*
X84804271Y-60643712D01*
X84804271Y-60643712D02*
X84752683Y-60600425D01*
X84752683Y-60600425D02*
X84653657Y-60561287D01*
X84653657Y-60561287D02*
X84463905Y-60577889D01*
X84463905Y-60577889D02*
X84373180Y-60633627D01*
X84373180Y-60633627D02*
X84329892Y-60685215D01*
X84329892Y-60685215D02*
X84290755Y-60784241D01*
X163402875Y-114603888D02*
X163841246Y-113705094D01*
X163841246Y-113705094D02*
X164055245Y-113809468D01*
X164055245Y-113809468D02*
X164162769Y-113914893D01*
X164162769Y-113914893D02*
X164206619Y-114042242D01*
X164206619Y-114042242D02*
X164207669Y-114148716D01*
X164207669Y-114148716D02*
X164166970Y-114340790D01*
X164166970Y-114340790D02*
X164104345Y-114469189D01*
X164104345Y-114469189D02*
X163978046Y-114619513D01*
X163978046Y-114619513D02*
X163893497Y-114684237D01*
X163893497Y-114684237D02*
X163766148Y-114728087D01*
X163766148Y-114728087D02*
X163616874Y-114708262D01*
X163616874Y-114708262D02*
X163402875Y-114603888D01*
X164655491Y-114208190D02*
X164719166Y-114186265D01*
X164719166Y-114186265D02*
X164825640Y-114185215D01*
X164825640Y-114185215D02*
X165039638Y-114289589D01*
X165039638Y-114289589D02*
X165104363Y-114374138D01*
X165104363Y-114374138D02*
X165126288Y-114437813D01*
X165126288Y-114437813D02*
X165127338Y-114544287D01*
X165127338Y-114544287D02*
X165085588Y-114629887D01*
X165085588Y-114629887D02*
X164980164Y-114737411D01*
X164980164Y-114737411D02*
X164216070Y-115000510D01*
X164216070Y-115000510D02*
X164772466Y-115271882D01*
X165767234Y-114644461D02*
X165852833Y-114686211D01*
X165852833Y-114686211D02*
X165917558Y-114770760D01*
X165917558Y-114770760D02*
X165939483Y-114834435D01*
X165939483Y-114834435D02*
X165940533Y-114940909D01*
X165940533Y-114940909D02*
X165899833Y-115132982D01*
X165899833Y-115132982D02*
X165795459Y-115346981D01*
X165795459Y-115346981D02*
X165669160Y-115497305D01*
X165669160Y-115497305D02*
X165584611Y-115562030D01*
X165584611Y-115562030D02*
X165520936Y-115583955D01*
X165520936Y-115583955D02*
X165414462Y-115585005D01*
X165414462Y-115585005D02*
X165328862Y-115543255D01*
X165328862Y-115543255D02*
X165264138Y-115458706D01*
X165264138Y-115458706D02*
X165242213Y-115395031D01*
X165242213Y-115395031D02*
X165241163Y-115288557D01*
X165241163Y-115288557D02*
X165281862Y-115096483D01*
X165281862Y-115096483D02*
X165386236Y-114882485D01*
X165386236Y-114882485D02*
X165512535Y-114732161D01*
X165512535Y-114732161D02*
X165597085Y-114667436D01*
X165597085Y-114667436D02*
X165660759Y-114645511D01*
X165660759Y-114645511D02*
X165767234Y-114644461D01*
X107958810Y-67747895D02*
X108103964Y-67787973D01*
X108103964Y-67787973D02*
X108341733Y-67775512D01*
X108341733Y-67775512D02*
X108434348Y-67722974D01*
X108434348Y-67722974D02*
X108479410Y-67672928D01*
X108479410Y-67672928D02*
X108521979Y-67575328D01*
X108521979Y-67575328D02*
X108516995Y-67480220D01*
X108516995Y-67480220D02*
X108464456Y-67387605D01*
X108464456Y-67387605D02*
X108414410Y-67342543D01*
X108414410Y-67342543D02*
X108316811Y-67299974D01*
X108316811Y-67299974D02*
X108124103Y-67262389D01*
X108124103Y-67262389D02*
X108026504Y-67219819D01*
X108026504Y-67219819D02*
X107976458Y-67174758D01*
X107976458Y-67174758D02*
X107923919Y-67082142D01*
X107923919Y-67082142D02*
X107918935Y-66987035D01*
X107918935Y-66987035D02*
X107961504Y-66889435D01*
X107961504Y-66889435D02*
X108006566Y-66839389D01*
X108006566Y-66839389D02*
X108099181Y-66786851D01*
X108099181Y-66786851D02*
X108336950Y-66774390D01*
X108336950Y-66774390D02*
X108482104Y-66814467D01*
X109072687Y-67164991D02*
X108975087Y-67122422D01*
X108975087Y-67122422D02*
X108925041Y-67077360D01*
X108925041Y-67077360D02*
X108872503Y-66984745D01*
X108872503Y-66984745D02*
X108870011Y-66937191D01*
X108870011Y-66937191D02*
X108912580Y-66839591D01*
X108912580Y-66839591D02*
X108957642Y-66789545D01*
X108957642Y-66789545D02*
X109050257Y-66737007D01*
X109050257Y-66737007D02*
X109240472Y-66727038D01*
X109240472Y-66727038D02*
X109338072Y-66769608D01*
X109338072Y-66769608D02*
X109388118Y-66814669D01*
X109388118Y-66814669D02*
X109440656Y-66907285D01*
X109440656Y-66907285D02*
X109443148Y-66954839D01*
X109443148Y-66954839D02*
X109400579Y-67052438D01*
X109400579Y-67052438D02*
X109355517Y-67102484D01*
X109355517Y-67102484D02*
X109262902Y-67155023D01*
X109262902Y-67155023D02*
X109072687Y-67164991D01*
X109072687Y-67164991D02*
X108980072Y-67217529D01*
X108980072Y-67217529D02*
X108935010Y-67267575D01*
X108935010Y-67267575D02*
X108892441Y-67365175D01*
X108892441Y-67365175D02*
X108902409Y-67555390D01*
X108902409Y-67555390D02*
X108954947Y-67648006D01*
X108954947Y-67648006D02*
X109004993Y-67693067D01*
X109004993Y-67693067D02*
X109102593Y-67735637D01*
X109102593Y-67735637D02*
X109292808Y-67725668D01*
X109292808Y-67725668D02*
X109385424Y-67673130D01*
X109385424Y-67673130D02*
X109430485Y-67623084D01*
X109430485Y-67623084D02*
X109473055Y-67525484D01*
X109473055Y-67525484D02*
X109463086Y-67335269D01*
X109463086Y-67335269D02*
X109410548Y-67242654D01*
X109410548Y-67242654D02*
X109360502Y-67197592D01*
X109360502Y-67197592D02*
X109262902Y-67155023D01*
X179063049Y-95483823D02*
X179205906Y-95531442D01*
X179205906Y-95531442D02*
X179444001Y-95531442D01*
X179444001Y-95531442D02*
X179539239Y-95483823D01*
X179539239Y-95483823D02*
X179586858Y-95436203D01*
X179586858Y-95436203D02*
X179634477Y-95340965D01*
X179634477Y-95340965D02*
X179634477Y-95245727D01*
X179634477Y-95245727D02*
X179586858Y-95150489D01*
X179586858Y-95150489D02*
X179539239Y-95102870D01*
X179539239Y-95102870D02*
X179444001Y-95055251D01*
X179444001Y-95055251D02*
X179253525Y-95007632D01*
X179253525Y-95007632D02*
X179158287Y-94960013D01*
X179158287Y-94960013D02*
X179110668Y-94912394D01*
X179110668Y-94912394D02*
X179063049Y-94817156D01*
X179063049Y-94817156D02*
X179063049Y-94721918D01*
X179063049Y-94721918D02*
X179110668Y-94626680D01*
X179110668Y-94626680D02*
X179158287Y-94579061D01*
X179158287Y-94579061D02*
X179253525Y-94531442D01*
X179253525Y-94531442D02*
X179491620Y-94531442D01*
X179491620Y-94531442D02*
X179634477Y-94579061D01*
X179967811Y-94531442D02*
X180205906Y-95531442D01*
X180205906Y-95531442D02*
X180396382Y-94817156D01*
X180396382Y-94817156D02*
X180586858Y-95531442D01*
X180586858Y-95531442D02*
X180824954Y-94531442D01*
X181158287Y-94626680D02*
X181205906Y-94579061D01*
X181205906Y-94579061D02*
X181301144Y-94531442D01*
X181301144Y-94531442D02*
X181539239Y-94531442D01*
X181539239Y-94531442D02*
X181634477Y-94579061D01*
X181634477Y-94579061D02*
X181682096Y-94626680D01*
X181682096Y-94626680D02*
X181729715Y-94721918D01*
X181729715Y-94721918D02*
X181729715Y-94817156D01*
X181729715Y-94817156D02*
X181682096Y-94960013D01*
X181682096Y-94960013D02*
X181110668Y-95531442D01*
X181110668Y-95531442D02*
X181729715Y-95531442D01*
X182110668Y-94626680D02*
X182158287Y-94579061D01*
X182158287Y-94579061D02*
X182253525Y-94531442D01*
X182253525Y-94531442D02*
X182491620Y-94531442D01*
X182491620Y-94531442D02*
X182586858Y-94579061D01*
X182586858Y-94579061D02*
X182634477Y-94626680D01*
X182634477Y-94626680D02*
X182682096Y-94721918D01*
X182682096Y-94721918D02*
X182682096Y-94817156D01*
X182682096Y-94817156D02*
X182634477Y-94960013D01*
X182634477Y-94960013D02*
X182063049Y-95531442D01*
X182063049Y-95531442D02*
X182682096Y-95531442D01*
X72592644Y-93351232D02*
X72739108Y-93386219D01*
X72739108Y-93386219D02*
X72976297Y-93365468D01*
X72976297Y-93365468D02*
X73067022Y-93309730D01*
X73067022Y-93309730D02*
X73110310Y-93258142D01*
X73110310Y-93258142D02*
X73149447Y-93159116D01*
X73149447Y-93159116D02*
X73141147Y-93064240D01*
X73141147Y-93064240D02*
X73085408Y-92973514D01*
X73085408Y-92973514D02*
X73033820Y-92930227D01*
X73033820Y-92930227D02*
X72934794Y-92891090D01*
X72934794Y-92891090D02*
X72740892Y-92860253D01*
X72740892Y-92860253D02*
X72641866Y-92821116D01*
X72641866Y-92821116D02*
X72590278Y-92777828D01*
X72590278Y-92777828D02*
X72534540Y-92687103D01*
X72534540Y-92687103D02*
X72526239Y-92592227D01*
X72526239Y-92592227D02*
X72565377Y-92493201D01*
X72565377Y-92493201D02*
X72608664Y-92441613D01*
X72608664Y-92441613D02*
X72699390Y-92385874D01*
X72699390Y-92385874D02*
X72936579Y-92365123D01*
X72936579Y-92365123D02*
X73083043Y-92400110D01*
X74114805Y-93265861D02*
X73545551Y-93315665D01*
X73830178Y-93290763D02*
X73743022Y-92294568D01*
X73743022Y-92294568D02*
X73660597Y-92445182D01*
X73660597Y-92445182D02*
X73574022Y-92548359D01*
X73574022Y-92548359D02*
X73483297Y-92604097D01*
X68411142Y-96733610D02*
X68323986Y-95737415D01*
X68323986Y-95737415D02*
X68561175Y-95716664D01*
X68561175Y-95716664D02*
X68707639Y-95751651D01*
X68707639Y-95751651D02*
X68810815Y-95838226D01*
X68810815Y-95838226D02*
X68866553Y-95928952D01*
X68866553Y-95928952D02*
X68930592Y-96114553D01*
X68930592Y-96114553D02*
X68943043Y-96256866D01*
X68943043Y-96256866D02*
X68912206Y-96450768D01*
X68912206Y-96450768D02*
X68873069Y-96549794D01*
X68873069Y-96549794D02*
X68786494Y-96652970D01*
X68786494Y-96652970D02*
X68648331Y-96712859D01*
X68648331Y-96712859D02*
X68411142Y-96733610D01*
X69929152Y-96600801D02*
X69359898Y-96650605D01*
X69644525Y-96625703D02*
X69557370Y-95629508D01*
X69557370Y-95629508D02*
X69474945Y-95780122D01*
X69474945Y-95780122D02*
X69388370Y-95883299D01*
X69388370Y-95883299D02*
X69297644Y-95939037D01*
X106790411Y-50856897D02*
X106935565Y-50896975D01*
X106935565Y-50896975D02*
X107173334Y-50884514D01*
X107173334Y-50884514D02*
X107265949Y-50831976D01*
X107265949Y-50831976D02*
X107311011Y-50781930D01*
X107311011Y-50781930D02*
X107353580Y-50684330D01*
X107353580Y-50684330D02*
X107348596Y-50589222D01*
X107348596Y-50589222D02*
X107296057Y-50496607D01*
X107296057Y-50496607D02*
X107246011Y-50451545D01*
X107246011Y-50451545D02*
X107148412Y-50408976D01*
X107148412Y-50408976D02*
X106955704Y-50371391D01*
X106955704Y-50371391D02*
X106858105Y-50328821D01*
X106858105Y-50328821D02*
X106808059Y-50283760D01*
X106808059Y-50283760D02*
X106755520Y-50191144D01*
X106755520Y-50191144D02*
X106750536Y-50096037D01*
X106750536Y-50096037D02*
X106793105Y-49998437D01*
X106793105Y-49998437D02*
X106838167Y-49948391D01*
X106838167Y-49948391D02*
X106930782Y-49895853D01*
X106930782Y-49895853D02*
X107168551Y-49883392D01*
X107168551Y-49883392D02*
X107313705Y-49923469D01*
X107839087Y-50849623D02*
X108029302Y-50839654D01*
X108029302Y-50839654D02*
X108121917Y-50787116D01*
X108121917Y-50787116D02*
X108166979Y-50737070D01*
X108166979Y-50737070D02*
X108254610Y-50589424D01*
X108254610Y-50589424D02*
X108292195Y-50396717D01*
X108292195Y-50396717D02*
X108272257Y-50016287D01*
X108272257Y-50016287D02*
X108219719Y-49923671D01*
X108219719Y-49923671D02*
X108169673Y-49878610D01*
X108169673Y-49878610D02*
X108072073Y-49836040D01*
X108072073Y-49836040D02*
X107881858Y-49846009D01*
X107881858Y-49846009D02*
X107789243Y-49898547D01*
X107789243Y-49898547D02*
X107744181Y-49948593D01*
X107744181Y-49948593D02*
X107701612Y-50046193D01*
X107701612Y-50046193D02*
X107714073Y-50283962D01*
X107714073Y-50283962D02*
X107766611Y-50376577D01*
X107766611Y-50376577D02*
X107816657Y-50421639D01*
X107816657Y-50421639D02*
X107914257Y-50464208D01*
X107914257Y-50464208D02*
X108104472Y-50454240D01*
X108104472Y-50454240D02*
X108197087Y-50401702D01*
X108197087Y-50401702D02*
X108242149Y-50351656D01*
X108242149Y-50351656D02*
X108284718Y-50254056D01*
X112915981Y-44964476D02*
X112915981Y-43964476D01*
X112915981Y-44440666D02*
X113487409Y-44440666D01*
X113487409Y-44964476D02*
X113487409Y-43964476D01*
X114392171Y-44297809D02*
X114392171Y-44964476D01*
X114154076Y-43916857D02*
X113915981Y-44631142D01*
X113915981Y-44631142D02*
X114535028Y-44631142D01*
X165651311Y-57828018D02*
X165651311Y-56828018D01*
X165651311Y-56828018D02*
X165889406Y-56828018D01*
X165889406Y-56828018D02*
X166032263Y-56875637D01*
X166032263Y-56875637D02*
X166127501Y-56970875D01*
X166127501Y-56970875D02*
X166175120Y-57066113D01*
X166175120Y-57066113D02*
X166222739Y-57256589D01*
X166222739Y-57256589D02*
X166222739Y-57399446D01*
X166222739Y-57399446D02*
X166175120Y-57589922D01*
X166175120Y-57589922D02*
X166127501Y-57685160D01*
X166127501Y-57685160D02*
X166032263Y-57780399D01*
X166032263Y-57780399D02*
X165889406Y-57828018D01*
X165889406Y-57828018D02*
X165651311Y-57828018D01*
X167175120Y-57828018D02*
X166603692Y-57828018D01*
X166889406Y-57828018D02*
X166889406Y-56828018D01*
X166889406Y-56828018D02*
X166794168Y-56970875D01*
X166794168Y-56970875D02*
X166698930Y-57066113D01*
X166698930Y-57066113D02*
X166603692Y-57113732D01*
X167746549Y-57256589D02*
X167651311Y-57208970D01*
X167651311Y-57208970D02*
X167603692Y-57161351D01*
X167603692Y-57161351D02*
X167556073Y-57066113D01*
X167556073Y-57066113D02*
X167556073Y-57018494D01*
X167556073Y-57018494D02*
X167603692Y-56923256D01*
X167603692Y-56923256D02*
X167651311Y-56875637D01*
X167651311Y-56875637D02*
X167746549Y-56828018D01*
X167746549Y-56828018D02*
X167937025Y-56828018D01*
X167937025Y-56828018D02*
X168032263Y-56875637D01*
X168032263Y-56875637D02*
X168079882Y-56923256D01*
X168079882Y-56923256D02*
X168127501Y-57018494D01*
X168127501Y-57018494D02*
X168127501Y-57066113D01*
X168127501Y-57066113D02*
X168079882Y-57161351D01*
X168079882Y-57161351D02*
X168032263Y-57208970D01*
X168032263Y-57208970D02*
X167937025Y-57256589D01*
X167937025Y-57256589D02*
X167746549Y-57256589D01*
X167746549Y-57256589D02*
X167651311Y-57304208D01*
X167651311Y-57304208D02*
X167603692Y-57351827D01*
X167603692Y-57351827D02*
X167556073Y-57447065D01*
X167556073Y-57447065D02*
X167556073Y-57637541D01*
X167556073Y-57637541D02*
X167603692Y-57732779D01*
X167603692Y-57732779D02*
X167651311Y-57780399D01*
X167651311Y-57780399D02*
X167746549Y-57828018D01*
X167746549Y-57828018D02*
X167937025Y-57828018D01*
X167937025Y-57828018D02*
X168032263Y-57780399D01*
X168032263Y-57780399D02*
X168079882Y-57732779D01*
X168079882Y-57732779D02*
X168127501Y-57637541D01*
X168127501Y-57637541D02*
X168127501Y-57447065D01*
X168127501Y-57447065D02*
X168079882Y-57351827D01*
X168079882Y-57351827D02*
X168032263Y-57304208D01*
X168032263Y-57304208D02*
X167937025Y-57256589D01*
X84860998Y-78229497D02*
X84773842Y-77233302D01*
X84773842Y-77233302D02*
X85011031Y-77212551D01*
X85011031Y-77212551D02*
X85157495Y-77247538D01*
X85157495Y-77247538D02*
X85260671Y-77334113D01*
X85260671Y-77334113D02*
X85316409Y-77424839D01*
X85316409Y-77424839D02*
X85380448Y-77610440D01*
X85380448Y-77610440D02*
X85392899Y-77752753D01*
X85392899Y-77752753D02*
X85362062Y-77946655D01*
X85362062Y-77946655D02*
X85322925Y-78045681D01*
X85322925Y-78045681D02*
X85236350Y-78148857D01*
X85236350Y-78148857D02*
X85098187Y-78208746D01*
X85098187Y-78208746D02*
X84860998Y-78229497D01*
X86244415Y-77104644D02*
X85770036Y-77146147D01*
X85770036Y-77146147D02*
X85764101Y-77624675D01*
X85764101Y-77624675D02*
X85807389Y-77573087D01*
X85807389Y-77573087D02*
X85898114Y-77517349D01*
X85898114Y-77517349D02*
X86135304Y-77496597D01*
X86135304Y-77496597D02*
X86234330Y-77535735D01*
X86234330Y-77535735D02*
X86285918Y-77579022D01*
X86285918Y-77579022D02*
X86341656Y-77669748D01*
X86341656Y-77669748D02*
X86362407Y-77906937D01*
X86362407Y-77906937D02*
X86323270Y-78005963D01*
X86323270Y-78005963D02*
X86279983Y-78057551D01*
X86279983Y-78057551D02*
X86189257Y-78113289D01*
X86189257Y-78113289D02*
X85952068Y-78134041D01*
X85952068Y-78134041D02*
X85853042Y-78094903D01*
X85853042Y-78094903D02*
X85801454Y-78051616D01*
X192418093Y-102292619D02*
X192418093Y-101292619D01*
X192418093Y-101768809D02*
X192989521Y-101768809D01*
X192989521Y-102292619D02*
X192989521Y-101292619D01*
X193989521Y-102292619D02*
X193418093Y-102292619D01*
X193703807Y-102292619D02*
X193703807Y-101292619D01*
X193703807Y-101292619D02*
X193608569Y-101435476D01*
X193608569Y-101435476D02*
X193513331Y-101530714D01*
X193513331Y-101530714D02*
X193418093Y-101578333D01*
X71017844Y-77120634D02*
X71164308Y-77155621D01*
X71164308Y-77155621D02*
X71401497Y-77134870D01*
X71401497Y-77134870D02*
X71492222Y-77079132D01*
X71492222Y-77079132D02*
X71535510Y-77027544D01*
X71535510Y-77027544D02*
X71574647Y-76928518D01*
X71574647Y-76928518D02*
X71566347Y-76833642D01*
X71566347Y-76833642D02*
X71510608Y-76742916D01*
X71510608Y-76742916D02*
X71459020Y-76699629D01*
X71459020Y-76699629D02*
X71359994Y-76660492D01*
X71359994Y-76660492D02*
X71166092Y-76629655D01*
X71166092Y-76629655D02*
X71067066Y-76590518D01*
X71067066Y-76590518D02*
X71015478Y-76547230D01*
X71015478Y-76547230D02*
X70959740Y-76456505D01*
X70959740Y-76456505D02*
X70951439Y-76361629D01*
X70951439Y-76361629D02*
X70990577Y-76262603D01*
X70990577Y-76262603D02*
X71033864Y-76211015D01*
X71033864Y-76211015D02*
X71124590Y-76155276D01*
X71124590Y-76155276D02*
X71361779Y-76134525D01*
X71361779Y-76134525D02*
X71508243Y-76169512D01*
X71891896Y-76183748D02*
X71935183Y-76132160D01*
X71935183Y-76132160D02*
X72025909Y-76076421D01*
X72025909Y-76076421D02*
X72263098Y-76055670D01*
X72263098Y-76055670D02*
X72362124Y-76094807D01*
X72362124Y-76094807D02*
X72413712Y-76138095D01*
X72413712Y-76138095D02*
X72469450Y-76228820D01*
X72469450Y-76228820D02*
X72477751Y-76323696D01*
X72477751Y-76323696D02*
X72442764Y-76470160D01*
X72442764Y-76470160D02*
X71923313Y-77089217D01*
X71923313Y-77089217D02*
X72540005Y-77035263D01*
X151144268Y-108919307D02*
X151191887Y-108776450D01*
X151191887Y-108776450D02*
X151191887Y-108538355D01*
X151191887Y-108538355D02*
X151144268Y-108443117D01*
X151144268Y-108443117D02*
X151096648Y-108395498D01*
X151096648Y-108395498D02*
X151001410Y-108347879D01*
X151001410Y-108347879D02*
X150906172Y-108347879D01*
X150906172Y-108347879D02*
X150810934Y-108395498D01*
X150810934Y-108395498D02*
X150763315Y-108443117D01*
X150763315Y-108443117D02*
X150715696Y-108538355D01*
X150715696Y-108538355D02*
X150668077Y-108728831D01*
X150668077Y-108728831D02*
X150620458Y-108824069D01*
X150620458Y-108824069D02*
X150572839Y-108871688D01*
X150572839Y-108871688D02*
X150477601Y-108919307D01*
X150477601Y-108919307D02*
X150382363Y-108919307D01*
X150382363Y-108919307D02*
X150287125Y-108871688D01*
X150287125Y-108871688D02*
X150239506Y-108824069D01*
X150239506Y-108824069D02*
X150191887Y-108728831D01*
X150191887Y-108728831D02*
X150191887Y-108490736D01*
X150191887Y-108490736D02*
X150239506Y-108347879D01*
X150191887Y-108014545D02*
X151191887Y-107776450D01*
X151191887Y-107776450D02*
X150477601Y-107585974D01*
X150477601Y-107585974D02*
X151191887Y-107395498D01*
X151191887Y-107395498D02*
X150191887Y-107157403D01*
X151191887Y-106252641D02*
X151191887Y-106824069D01*
X151191887Y-106538355D02*
X150191887Y-106538355D01*
X150191887Y-106538355D02*
X150334744Y-106633593D01*
X150334744Y-106633593D02*
X150429982Y-106728831D01*
X150429982Y-106728831D02*
X150477601Y-106824069D01*
X127856465Y-80992777D02*
X127999322Y-81040396D01*
X127999322Y-81040396D02*
X128237417Y-81040396D01*
X128237417Y-81040396D02*
X128332655Y-80992777D01*
X128332655Y-80992777D02*
X128380274Y-80945157D01*
X128380274Y-80945157D02*
X128427893Y-80849919D01*
X128427893Y-80849919D02*
X128427893Y-80754681D01*
X128427893Y-80754681D02*
X128380274Y-80659443D01*
X128380274Y-80659443D02*
X128332655Y-80611824D01*
X128332655Y-80611824D02*
X128237417Y-80564205D01*
X128237417Y-80564205D02*
X128046941Y-80516586D01*
X128046941Y-80516586D02*
X127951703Y-80468967D01*
X127951703Y-80468967D02*
X127904084Y-80421348D01*
X127904084Y-80421348D02*
X127856465Y-80326110D01*
X127856465Y-80326110D02*
X127856465Y-80230872D01*
X127856465Y-80230872D02*
X127904084Y-80135634D01*
X127904084Y-80135634D02*
X127951703Y-80088015D01*
X127951703Y-80088015D02*
X128046941Y-80040396D01*
X128046941Y-80040396D02*
X128285036Y-80040396D01*
X128285036Y-80040396D02*
X128427893Y-80088015D01*
X129380274Y-81040396D02*
X128808846Y-81040396D01*
X129094560Y-81040396D02*
X129094560Y-80040396D01*
X129094560Y-80040396D02*
X128999322Y-80183253D01*
X128999322Y-80183253D02*
X128904084Y-80278491D01*
X128904084Y-80278491D02*
X128808846Y-80326110D01*
X129999322Y-80040396D02*
X130094560Y-80040396D01*
X130094560Y-80040396D02*
X130189798Y-80088015D01*
X130189798Y-80088015D02*
X130237417Y-80135634D01*
X130237417Y-80135634D02*
X130285036Y-80230872D01*
X130285036Y-80230872D02*
X130332655Y-80421348D01*
X130332655Y-80421348D02*
X130332655Y-80659443D01*
X130332655Y-80659443D02*
X130285036Y-80849919D01*
X130285036Y-80849919D02*
X130237417Y-80945157D01*
X130237417Y-80945157D02*
X130189798Y-80992777D01*
X130189798Y-80992777D02*
X130094560Y-81040396D01*
X130094560Y-81040396D02*
X129999322Y-81040396D01*
X129999322Y-81040396D02*
X129904084Y-80992777D01*
X129904084Y-80992777D02*
X129856465Y-80945157D01*
X129856465Y-80945157D02*
X129808846Y-80849919D01*
X129808846Y-80849919D02*
X129761227Y-80659443D01*
X129761227Y-80659443D02*
X129761227Y-80421348D01*
X129761227Y-80421348D02*
X129808846Y-80230872D01*
X129808846Y-80230872D02*
X129856465Y-80135634D01*
X129856465Y-80135634D02*
X129904084Y-80088015D01*
X129904084Y-80088015D02*
X129999322Y-80040396D01*
X76086093Y-80270819D02*
X76086093Y-79270819D01*
X76086093Y-79747009D02*
X76657521Y-79747009D01*
X76657521Y-80270819D02*
X76657521Y-79270819D01*
X77086093Y-79366057D02*
X77133712Y-79318438D01*
X77133712Y-79318438D02*
X77228950Y-79270819D01*
X77228950Y-79270819D02*
X77467045Y-79270819D01*
X77467045Y-79270819D02*
X77562283Y-79318438D01*
X77562283Y-79318438D02*
X77609902Y-79366057D01*
X77609902Y-79366057D02*
X77657521Y-79461295D01*
X77657521Y-79461295D02*
X77657521Y-79556533D01*
X77657521Y-79556533D02*
X77609902Y-79699390D01*
X77609902Y-79699390D02*
X77038474Y-80270819D01*
X77038474Y-80270819D02*
X77657521Y-80270819D01*
X108720811Y-83038694D02*
X108865965Y-83078772D01*
X108865965Y-83078772D02*
X109103734Y-83066311D01*
X109103734Y-83066311D02*
X109196349Y-83013773D01*
X109196349Y-83013773D02*
X109241411Y-82963727D01*
X109241411Y-82963727D02*
X109283980Y-82866127D01*
X109283980Y-82866127D02*
X109278996Y-82771019D01*
X109278996Y-82771019D02*
X109226457Y-82678404D01*
X109226457Y-82678404D02*
X109176411Y-82633342D01*
X109176411Y-82633342D02*
X109078812Y-82590773D01*
X109078812Y-82590773D02*
X108886104Y-82553188D01*
X108886104Y-82553188D02*
X108788505Y-82510618D01*
X108788505Y-82510618D02*
X108738459Y-82465557D01*
X108738459Y-82465557D02*
X108685920Y-82372941D01*
X108685920Y-82372941D02*
X108680936Y-82277834D01*
X108680936Y-82277834D02*
X108723505Y-82180234D01*
X108723505Y-82180234D02*
X108768567Y-82130188D01*
X108768567Y-82130188D02*
X108861182Y-82077650D01*
X108861182Y-82077650D02*
X109098951Y-82065189D01*
X109098951Y-82065189D02*
X109244105Y-82105266D01*
X109574489Y-82040267D02*
X110240242Y-82005376D01*
X110240242Y-82005376D02*
X109864594Y-83026436D01*
X88289844Y-59340632D02*
X88436308Y-59375619D01*
X88436308Y-59375619D02*
X88673497Y-59354868D01*
X88673497Y-59354868D02*
X88764222Y-59299130D01*
X88764222Y-59299130D02*
X88807510Y-59247542D01*
X88807510Y-59247542D02*
X88846647Y-59148516D01*
X88846647Y-59148516D02*
X88838347Y-59053640D01*
X88838347Y-59053640D02*
X88782608Y-58962914D01*
X88782608Y-58962914D02*
X88731020Y-58919627D01*
X88731020Y-58919627D02*
X88631994Y-58880490D01*
X88631994Y-58880490D02*
X88438092Y-58849653D01*
X88438092Y-58849653D02*
X88339066Y-58810516D01*
X88339066Y-58810516D02*
X88287478Y-58767228D01*
X88287478Y-58767228D02*
X88231740Y-58676503D01*
X88231740Y-58676503D02*
X88223439Y-58581627D01*
X88223439Y-58581627D02*
X88262577Y-58482601D01*
X88262577Y-58482601D02*
X88305864Y-58431013D01*
X88305864Y-58431013D02*
X88396590Y-58375274D01*
X88396590Y-58375274D02*
X88633779Y-58354523D01*
X88633779Y-58354523D02*
X88780243Y-58389510D01*
X89629974Y-58267367D02*
X89440222Y-58283968D01*
X89440222Y-58283968D02*
X89349497Y-58339707D01*
X89349497Y-58339707D02*
X89306209Y-58391295D01*
X89306209Y-58391295D02*
X89223784Y-58541909D01*
X89223784Y-58541909D02*
X89192948Y-58735811D01*
X89192948Y-58735811D02*
X89226150Y-59115313D01*
X89226150Y-59115313D02*
X89281888Y-59206039D01*
X89281888Y-59206039D02*
X89333476Y-59249326D01*
X89333476Y-59249326D02*
X89432502Y-59288464D01*
X89432502Y-59288464D02*
X89622254Y-59271863D01*
X89622254Y-59271863D02*
X89712979Y-59216124D01*
X89712979Y-59216124D02*
X89756267Y-59164536D01*
X89756267Y-59164536D02*
X89795404Y-59065510D01*
X89795404Y-59065510D02*
X89774653Y-58828321D01*
X89774653Y-58828321D02*
X89718914Y-58737595D01*
X89718914Y-58737595D02*
X89667326Y-58694308D01*
X89667326Y-58694308D02*
X89568300Y-58655171D01*
X89568300Y-58655171D02*
X89378549Y-58671772D01*
X89378549Y-58671772D02*
X89287823Y-58727510D01*
X89287823Y-58727510D02*
X89244536Y-58779098D01*
X89244536Y-58779098D02*
X89205399Y-58878124D01*
X133337693Y-107468818D02*
X133337693Y-106468818D01*
X133337693Y-106945008D02*
X133909121Y-106945008D01*
X133909121Y-107468818D02*
X133909121Y-106468818D01*
X134813883Y-106468818D02*
X134623407Y-106468818D01*
X134623407Y-106468818D02*
X134528169Y-106516437D01*
X134528169Y-106516437D02*
X134480550Y-106564056D01*
X134480550Y-106564056D02*
X134385312Y-106706913D01*
X134385312Y-106706913D02*
X134337693Y-106897389D01*
X134337693Y-106897389D02*
X134337693Y-107278341D01*
X134337693Y-107278341D02*
X134385312Y-107373579D01*
X134385312Y-107373579D02*
X134432931Y-107421199D01*
X134432931Y-107421199D02*
X134528169Y-107468818D01*
X134528169Y-107468818D02*
X134718645Y-107468818D01*
X134718645Y-107468818D02*
X134813883Y-107421199D01*
X134813883Y-107421199D02*
X134861502Y-107373579D01*
X134861502Y-107373579D02*
X134909121Y-107278341D01*
X134909121Y-107278341D02*
X134909121Y-107040246D01*
X134909121Y-107040246D02*
X134861502Y-106945008D01*
X134861502Y-106945008D02*
X134813883Y-106897389D01*
X134813883Y-106897389D02*
X134718645Y-106849770D01*
X134718645Y-106849770D02*
X134528169Y-106849770D01*
X134528169Y-106849770D02*
X134432931Y-106897389D01*
X134432931Y-106897389D02*
X134385312Y-106945008D01*
X134385312Y-106945008D02*
X134337693Y-107040246D01*
X123125913Y-66819070D02*
X123125913Y-65819070D01*
X123125913Y-65819070D02*
X123364008Y-65819070D01*
X123364008Y-65819070D02*
X123506865Y-65866689D01*
X123506865Y-65866689D02*
X123602103Y-65961927D01*
X123602103Y-65961927D02*
X123649722Y-66057165D01*
X123649722Y-66057165D02*
X123697341Y-66247641D01*
X123697341Y-66247641D02*
X123697341Y-66390498D01*
X123697341Y-66390498D02*
X123649722Y-66580974D01*
X123649722Y-66580974D02*
X123602103Y-66676212D01*
X123602103Y-66676212D02*
X123506865Y-66771451D01*
X123506865Y-66771451D02*
X123364008Y-66819070D01*
X123364008Y-66819070D02*
X123125913Y-66819070D01*
X124649722Y-66819070D02*
X124078294Y-66819070D01*
X124364008Y-66819070D02*
X124364008Y-65819070D01*
X124364008Y-65819070D02*
X124268770Y-65961927D01*
X124268770Y-65961927D02*
X124173532Y-66057165D01*
X124173532Y-66057165D02*
X124078294Y-66104784D01*
X125602103Y-66819070D02*
X125030675Y-66819070D01*
X125316389Y-66819070D02*
X125316389Y-65819070D01*
X125316389Y-65819070D02*
X125221151Y-65961927D01*
X125221151Y-65961927D02*
X125125913Y-66057165D01*
X125125913Y-66057165D02*
X125030675Y-66104784D01*
X128186664Y-48429979D02*
X128329521Y-48477598D01*
X128329521Y-48477598D02*
X128567616Y-48477598D01*
X128567616Y-48477598D02*
X128662854Y-48429979D01*
X128662854Y-48429979D02*
X128710473Y-48382359D01*
X128710473Y-48382359D02*
X128758092Y-48287121D01*
X128758092Y-48287121D02*
X128758092Y-48191883D01*
X128758092Y-48191883D02*
X128710473Y-48096645D01*
X128710473Y-48096645D02*
X128662854Y-48049026D01*
X128662854Y-48049026D02*
X128567616Y-48001407D01*
X128567616Y-48001407D02*
X128377140Y-47953788D01*
X128377140Y-47953788D02*
X128281902Y-47906169D01*
X128281902Y-47906169D02*
X128234283Y-47858550D01*
X128234283Y-47858550D02*
X128186664Y-47763312D01*
X128186664Y-47763312D02*
X128186664Y-47668074D01*
X128186664Y-47668074D02*
X128234283Y-47572836D01*
X128234283Y-47572836D02*
X128281902Y-47525217D01*
X128281902Y-47525217D02*
X128377140Y-47477598D01*
X128377140Y-47477598D02*
X128615235Y-47477598D01*
X128615235Y-47477598D02*
X128758092Y-47525217D01*
X129710473Y-48477598D02*
X129139045Y-48477598D01*
X129424759Y-48477598D02*
X129424759Y-47477598D01*
X129424759Y-47477598D02*
X129329521Y-47620455D01*
X129329521Y-47620455D02*
X129234283Y-47715693D01*
X129234283Y-47715693D02*
X129139045Y-47763312D01*
X130091426Y-47572836D02*
X130139045Y-47525217D01*
X130139045Y-47525217D02*
X130234283Y-47477598D01*
X130234283Y-47477598D02*
X130472378Y-47477598D01*
X130472378Y-47477598D02*
X130567616Y-47525217D01*
X130567616Y-47525217D02*
X130615235Y-47572836D01*
X130615235Y-47572836D02*
X130662854Y-47668074D01*
X130662854Y-47668074D02*
X130662854Y-47763312D01*
X130662854Y-47763312D02*
X130615235Y-47906169D01*
X130615235Y-47906169D02*
X130043807Y-48477598D01*
X130043807Y-48477598D02*
X130662854Y-48477598D01*
X66929494Y-79798301D02*
X66842338Y-78802106D01*
X66842338Y-78802106D02*
X67079527Y-78781355D01*
X67079527Y-78781355D02*
X67225991Y-78816342D01*
X67225991Y-78816342D02*
X67329167Y-78902917D01*
X67329167Y-78902917D02*
X67384905Y-78993643D01*
X67384905Y-78993643D02*
X67448944Y-79179244D01*
X67448944Y-79179244D02*
X67461395Y-79321557D01*
X67461395Y-79321557D02*
X67430558Y-79515459D01*
X67430558Y-79515459D02*
X67391421Y-79614485D01*
X67391421Y-79614485D02*
X67304846Y-79717661D01*
X67304846Y-79717661D02*
X67166683Y-79777550D01*
X67166683Y-79777550D02*
X66929494Y-79798301D01*
X67799395Y-78813977D02*
X67842683Y-78762388D01*
X67842683Y-78762388D02*
X67933408Y-78706650D01*
X67933408Y-78706650D02*
X68170597Y-78685899D01*
X68170597Y-78685899D02*
X68269623Y-78725036D01*
X68269623Y-78725036D02*
X68321211Y-78768324D01*
X68321211Y-78768324D02*
X68376950Y-78859049D01*
X68376950Y-78859049D02*
X68385250Y-78953925D01*
X68385250Y-78953925D02*
X68350263Y-79100388D01*
X68350263Y-79100388D02*
X67830813Y-79719446D01*
X67830813Y-79719446D02*
X68447504Y-79665492D01*
X159098111Y-82389818D02*
X159098111Y-81389818D01*
X159098111Y-81389818D02*
X159336206Y-81389818D01*
X159336206Y-81389818D02*
X159479063Y-81437437D01*
X159479063Y-81437437D02*
X159574301Y-81532675D01*
X159574301Y-81532675D02*
X159621920Y-81627913D01*
X159621920Y-81627913D02*
X159669539Y-81818389D01*
X159669539Y-81818389D02*
X159669539Y-81961246D01*
X159669539Y-81961246D02*
X159621920Y-82151722D01*
X159621920Y-82151722D02*
X159574301Y-82246960D01*
X159574301Y-82246960D02*
X159479063Y-82342199D01*
X159479063Y-82342199D02*
X159336206Y-82389818D01*
X159336206Y-82389818D02*
X159098111Y-82389818D01*
X160621920Y-82389818D02*
X160050492Y-82389818D01*
X160336206Y-82389818D02*
X160336206Y-81389818D01*
X160336206Y-81389818D02*
X160240968Y-81532675D01*
X160240968Y-81532675D02*
X160145730Y-81627913D01*
X160145730Y-81627913D02*
X160050492Y-81675532D01*
X161479063Y-81389818D02*
X161288587Y-81389818D01*
X161288587Y-81389818D02*
X161193349Y-81437437D01*
X161193349Y-81437437D02*
X161145730Y-81485056D01*
X161145730Y-81485056D02*
X161050492Y-81627913D01*
X161050492Y-81627913D02*
X161002873Y-81818389D01*
X161002873Y-81818389D02*
X161002873Y-82199341D01*
X161002873Y-82199341D02*
X161050492Y-82294579D01*
X161050492Y-82294579D02*
X161098111Y-82342199D01*
X161098111Y-82342199D02*
X161193349Y-82389818D01*
X161193349Y-82389818D02*
X161383825Y-82389818D01*
X161383825Y-82389818D02*
X161479063Y-82342199D01*
X161479063Y-82342199D02*
X161526682Y-82294579D01*
X161526682Y-82294579D02*
X161574301Y-82199341D01*
X161574301Y-82199341D02*
X161574301Y-81961246D01*
X161574301Y-81961246D02*
X161526682Y-81866008D01*
X161526682Y-81866008D02*
X161479063Y-81818389D01*
X161479063Y-81818389D02*
X161383825Y-81770770D01*
X161383825Y-81770770D02*
X161193349Y-81770770D01*
X161193349Y-81770770D02*
X161098111Y-81818389D01*
X161098111Y-81818389D02*
X161050492Y-81866008D01*
X161050492Y-81866008D02*
X161002873Y-81961246D01*
X160416863Y-109390221D02*
X160524387Y-109495646D01*
X160524387Y-109495646D02*
X160738385Y-109600020D01*
X160738385Y-109600020D02*
X160844860Y-109598970D01*
X160844860Y-109598970D02*
X160908534Y-109577045D01*
X160908534Y-109577045D02*
X160993084Y-109512320D01*
X160993084Y-109512320D02*
X161034833Y-109426721D01*
X161034833Y-109426721D02*
X161033783Y-109320246D01*
X161033783Y-109320246D02*
X161011858Y-109256572D01*
X161011858Y-109256572D02*
X160947134Y-109172022D01*
X160947134Y-109172022D02*
X160796810Y-109045723D01*
X160796810Y-109045723D02*
X160732085Y-108961174D01*
X160732085Y-108961174D02*
X160710160Y-108897500D01*
X160710160Y-108897500D02*
X160709110Y-108791025D01*
X160709110Y-108791025D02*
X160750860Y-108705426D01*
X160750860Y-108705426D02*
X160835409Y-108640701D01*
X160835409Y-108640701D02*
X160899083Y-108618776D01*
X160899083Y-108618776D02*
X161005558Y-108617726D01*
X161005558Y-108617726D02*
X161219556Y-108722100D01*
X161219556Y-108722100D02*
X161327081Y-108827525D01*
X161648604Y-109037323D02*
X161712278Y-109015398D01*
X161712278Y-109015398D02*
X161818752Y-109014348D01*
X161818752Y-109014348D02*
X162032751Y-109118722D01*
X162032751Y-109118722D02*
X162097476Y-109203271D01*
X162097476Y-109203271D02*
X162119400Y-109266946D01*
X162119400Y-109266946D02*
X162120451Y-109373420D01*
X162120451Y-109373420D02*
X162078701Y-109459020D01*
X162078701Y-109459020D02*
X161973277Y-109566544D01*
X161973277Y-109566544D02*
X161209182Y-109829643D01*
X161209182Y-109829643D02*
X161765579Y-110101015D01*
X162760346Y-109473594D02*
X162845946Y-109515343D01*
X162845946Y-109515343D02*
X162910670Y-109599893D01*
X162910670Y-109599893D02*
X162932595Y-109663567D01*
X162932595Y-109663567D02*
X162933645Y-109770042D01*
X162933645Y-109770042D02*
X162892946Y-109962115D01*
X162892946Y-109962115D02*
X162788572Y-110176114D01*
X162788572Y-110176114D02*
X162662273Y-110326438D01*
X162662273Y-110326438D02*
X162577723Y-110391163D01*
X162577723Y-110391163D02*
X162514049Y-110413087D01*
X162514049Y-110413087D02*
X162407574Y-110414138D01*
X162407574Y-110414138D02*
X162321975Y-110372388D01*
X162321975Y-110372388D02*
X162257250Y-110287839D01*
X162257250Y-110287839D02*
X162235326Y-110224164D01*
X162235326Y-110224164D02*
X162234275Y-110117690D01*
X162234275Y-110117690D02*
X162274975Y-109925616D01*
X162274975Y-109925616D02*
X162379349Y-109711617D01*
X162379349Y-109711617D02*
X162505648Y-109561293D01*
X162505648Y-109561293D02*
X162590197Y-109496569D01*
X162590197Y-109496569D02*
X162653872Y-109474644D01*
X162653872Y-109474644D02*
X162760346Y-109473594D01*
X89610644Y-76460232D02*
X89757108Y-76495219D01*
X89757108Y-76495219D02*
X89994297Y-76474468D01*
X89994297Y-76474468D02*
X90085022Y-76418730D01*
X90085022Y-76418730D02*
X90128310Y-76367142D01*
X90128310Y-76367142D02*
X90167447Y-76268116D01*
X90167447Y-76268116D02*
X90159147Y-76173240D01*
X90159147Y-76173240D02*
X90103408Y-76082514D01*
X90103408Y-76082514D02*
X90051820Y-76039227D01*
X90051820Y-76039227D02*
X89952794Y-76000090D01*
X89952794Y-76000090D02*
X89758892Y-75969253D01*
X89758892Y-75969253D02*
X89659866Y-75930116D01*
X89659866Y-75930116D02*
X89608278Y-75886828D01*
X89608278Y-75886828D02*
X89552540Y-75796103D01*
X89552540Y-75796103D02*
X89544239Y-75701227D01*
X89544239Y-75701227D02*
X89583377Y-75602201D01*
X89583377Y-75602201D02*
X89626664Y-75550613D01*
X89626664Y-75550613D02*
X89717390Y-75494874D01*
X89717390Y-75494874D02*
X89954579Y-75474123D01*
X89954579Y-75474123D02*
X90101043Y-75509110D01*
X90998211Y-75382817D02*
X90523833Y-75424320D01*
X90523833Y-75424320D02*
X90517898Y-75902848D01*
X90517898Y-75902848D02*
X90561186Y-75851260D01*
X90561186Y-75851260D02*
X90651911Y-75795522D01*
X90651911Y-75795522D02*
X90889100Y-75774771D01*
X90889100Y-75774771D02*
X90988126Y-75813908D01*
X90988126Y-75813908D02*
X91039714Y-75857195D01*
X91039714Y-75857195D02*
X91095453Y-75947921D01*
X91095453Y-75947921D02*
X91116204Y-76185110D01*
X91116204Y-76185110D02*
X91077067Y-76284136D01*
X91077067Y-76284136D02*
X91033779Y-76335724D01*
X91033779Y-76335724D02*
X90943054Y-76391463D01*
X90943054Y-76391463D02*
X90705864Y-76412214D01*
X90705864Y-76412214D02*
X90606839Y-76373077D01*
X90606839Y-76373077D02*
X90555250Y-76329789D01*
X127958064Y-63974779D02*
X128100921Y-64022398D01*
X128100921Y-64022398D02*
X128339016Y-64022398D01*
X128339016Y-64022398D02*
X128434254Y-63974779D01*
X128434254Y-63974779D02*
X128481873Y-63927159D01*
X128481873Y-63927159D02*
X128529492Y-63831921D01*
X128529492Y-63831921D02*
X128529492Y-63736683D01*
X128529492Y-63736683D02*
X128481873Y-63641445D01*
X128481873Y-63641445D02*
X128434254Y-63593826D01*
X128434254Y-63593826D02*
X128339016Y-63546207D01*
X128339016Y-63546207D02*
X128148540Y-63498588D01*
X128148540Y-63498588D02*
X128053302Y-63450969D01*
X128053302Y-63450969D02*
X128005683Y-63403350D01*
X128005683Y-63403350D02*
X127958064Y-63308112D01*
X127958064Y-63308112D02*
X127958064Y-63212874D01*
X127958064Y-63212874D02*
X128005683Y-63117636D01*
X128005683Y-63117636D02*
X128053302Y-63070017D01*
X128053302Y-63070017D02*
X128148540Y-63022398D01*
X128148540Y-63022398D02*
X128386635Y-63022398D01*
X128386635Y-63022398D02*
X128529492Y-63070017D01*
X129481873Y-64022398D02*
X128910445Y-64022398D01*
X129196159Y-64022398D02*
X129196159Y-63022398D01*
X129196159Y-63022398D02*
X129100921Y-63165255D01*
X129100921Y-63165255D02*
X129005683Y-63260493D01*
X129005683Y-63260493D02*
X128910445Y-63308112D01*
X130434254Y-64022398D02*
X129862826Y-64022398D01*
X130148540Y-64022398D02*
X130148540Y-63022398D01*
X130148540Y-63022398D02*
X130053302Y-63165255D01*
X130053302Y-63165255D02*
X129958064Y-63260493D01*
X129958064Y-63260493D02*
X129862826Y-63308112D01*
X104254592Y-85886106D02*
X104202256Y-84887477D01*
X104202256Y-84887477D02*
X104440025Y-84875016D01*
X104440025Y-84875016D02*
X104585178Y-84915093D01*
X104585178Y-84915093D02*
X104685270Y-85005216D01*
X104685270Y-85005216D02*
X104737808Y-85097831D01*
X104737808Y-85097831D02*
X104795331Y-85285554D01*
X104795331Y-85285554D02*
X104802807Y-85428216D01*
X104802807Y-85428216D02*
X104765222Y-85620923D01*
X104765222Y-85620923D02*
X104722653Y-85718523D01*
X104722653Y-85718523D02*
X104632530Y-85818615D01*
X104632530Y-85818615D02*
X104492361Y-85873645D01*
X104492361Y-85873645D02*
X104254592Y-85886106D01*
X105105778Y-84840125D02*
X105771531Y-84805234D01*
X105771531Y-84805234D02*
X105395883Y-85826294D01*
X91210843Y-93579833D02*
X91357307Y-93614820D01*
X91357307Y-93614820D02*
X91594496Y-93594069D01*
X91594496Y-93594069D02*
X91685221Y-93538331D01*
X91685221Y-93538331D02*
X91728509Y-93486743D01*
X91728509Y-93486743D02*
X91767646Y-93387717D01*
X91767646Y-93387717D02*
X91759346Y-93292841D01*
X91759346Y-93292841D02*
X91703607Y-93202115D01*
X91703607Y-93202115D02*
X91652019Y-93158828D01*
X91652019Y-93158828D02*
X91552993Y-93119691D01*
X91552993Y-93119691D02*
X91359091Y-93088854D01*
X91359091Y-93088854D02*
X91260065Y-93049717D01*
X91260065Y-93049717D02*
X91208477Y-93006429D01*
X91208477Y-93006429D02*
X91152739Y-92915704D01*
X91152739Y-92915704D02*
X91144438Y-92820828D01*
X91144438Y-92820828D02*
X91183576Y-92721802D01*
X91183576Y-92721802D02*
X91226863Y-92670214D01*
X91226863Y-92670214D02*
X91317589Y-92614475D01*
X91317589Y-92614475D02*
X91554778Y-92593724D01*
X91554778Y-92593724D02*
X91701242Y-92628711D01*
X92580025Y-92838633D02*
X92638128Y-93502763D01*
X92309633Y-92479882D02*
X92134698Y-93212201D01*
X92134698Y-93212201D02*
X92751390Y-93158247D01*
X145472541Y-110870585D02*
X145489993Y-109870737D01*
X145489993Y-109870737D02*
X145728052Y-109874893D01*
X145728052Y-109874893D02*
X145870057Y-109924998D01*
X145870057Y-109924998D02*
X145963618Y-110021883D01*
X145963618Y-110021883D02*
X146009568Y-110117938D01*
X146009568Y-110117938D02*
X146053855Y-110309216D01*
X146053855Y-110309216D02*
X146051362Y-110452052D01*
X146051362Y-110452052D02*
X146000426Y-110641668D01*
X146000426Y-110641668D02*
X145951152Y-110736060D01*
X145951152Y-110736060D02*
X145854266Y-110829622D01*
X145854266Y-110829622D02*
X145710600Y-110874740D01*
X145710600Y-110874740D02*
X145472541Y-110870585D01*
X146996118Y-110897179D02*
X146424777Y-110887206D01*
X146710448Y-110892193D02*
X146727900Y-109892345D01*
X146727900Y-109892345D02*
X146630183Y-110033518D01*
X146630183Y-110033518D02*
X146533298Y-110127080D01*
X146533298Y-110127080D02*
X146437243Y-110173029D01*
X147472236Y-110905490D02*
X147662684Y-110908814D01*
X147662684Y-110908814D02*
X147758738Y-110862864D01*
X147758738Y-110862864D02*
X147807181Y-110816084D01*
X147807181Y-110816084D02*
X147904898Y-110674911D01*
X147904898Y-110674911D02*
X147955834Y-110485294D01*
X147955834Y-110485294D02*
X147962483Y-110104400D01*
X147962483Y-110104400D02*
X147916533Y-110008345D01*
X147916533Y-110008345D02*
X147869752Y-109959903D01*
X147869752Y-109959903D02*
X147775360Y-109910629D01*
X147775360Y-109910629D02*
X147584912Y-109907304D01*
X147584912Y-109907304D02*
X147488858Y-109953254D01*
X147488858Y-109953254D02*
X147440415Y-110000035D01*
X147440415Y-110000035D02*
X147391141Y-110094427D01*
X147391141Y-110094427D02*
X147386986Y-110332486D01*
X147386986Y-110332486D02*
X147432935Y-110428541D01*
X147432935Y-110428541D02*
X147479716Y-110476984D01*
X147479716Y-110476984D02*
X147574109Y-110526258D01*
X147574109Y-110526258D02*
X147764556Y-110529582D01*
X147764556Y-110529582D02*
X147860610Y-110483632D01*
X147860610Y-110483632D02*
X147909053Y-110436852D01*
X147909053Y-110436852D02*
X147958327Y-110342459D01*
X159047311Y-65524218D02*
X159047311Y-64524218D01*
X159047311Y-64524218D02*
X159285406Y-64524218D01*
X159285406Y-64524218D02*
X159428263Y-64571837D01*
X159428263Y-64571837D02*
X159523501Y-64667075D01*
X159523501Y-64667075D02*
X159571120Y-64762313D01*
X159571120Y-64762313D02*
X159618739Y-64952789D01*
X159618739Y-64952789D02*
X159618739Y-65095646D01*
X159618739Y-65095646D02*
X159571120Y-65286122D01*
X159571120Y-65286122D02*
X159523501Y-65381360D01*
X159523501Y-65381360D02*
X159428263Y-65476599D01*
X159428263Y-65476599D02*
X159285406Y-65524218D01*
X159285406Y-65524218D02*
X159047311Y-65524218D01*
X160571120Y-65524218D02*
X159999692Y-65524218D01*
X160285406Y-65524218D02*
X160285406Y-64524218D01*
X160285406Y-64524218D02*
X160190168Y-64667075D01*
X160190168Y-64667075D02*
X160094930Y-64762313D01*
X160094930Y-64762313D02*
X159999692Y-64809932D01*
X160904454Y-64524218D02*
X161571120Y-64524218D01*
X161571120Y-64524218D02*
X161142549Y-65524218D01*
X70103444Y-60229633D02*
X70249908Y-60264620D01*
X70249908Y-60264620D02*
X70487097Y-60243869D01*
X70487097Y-60243869D02*
X70577822Y-60188131D01*
X70577822Y-60188131D02*
X70621110Y-60136543D01*
X70621110Y-60136543D02*
X70660247Y-60037517D01*
X70660247Y-60037517D02*
X70651947Y-59942641D01*
X70651947Y-59942641D02*
X70596208Y-59851915D01*
X70596208Y-59851915D02*
X70544620Y-59808628D01*
X70544620Y-59808628D02*
X70445594Y-59769491D01*
X70445594Y-59769491D02*
X70251692Y-59738654D01*
X70251692Y-59738654D02*
X70152666Y-59699517D01*
X70152666Y-59699517D02*
X70101078Y-59656229D01*
X70101078Y-59656229D02*
X70045340Y-59565504D01*
X70045340Y-59565504D02*
X70037039Y-59470628D01*
X70037039Y-59470628D02*
X70076177Y-59371602D01*
X70076177Y-59371602D02*
X70119464Y-59320014D01*
X70119464Y-59320014D02*
X70210190Y-59264275D01*
X70210190Y-59264275D02*
X70447379Y-59243524D01*
X70447379Y-59243524D02*
X70593843Y-59278511D01*
X70921757Y-59202021D02*
X71538449Y-59148068D01*
X71538449Y-59148068D02*
X71239587Y-59556622D01*
X71239587Y-59556622D02*
X71381900Y-59544172D01*
X71381900Y-59544172D02*
X71480926Y-59583309D01*
X71480926Y-59583309D02*
X71532514Y-59626596D01*
X71532514Y-59626596D02*
X71588253Y-59717322D01*
X71588253Y-59717322D02*
X71609004Y-59954511D01*
X71609004Y-59954511D02*
X71569867Y-60053537D01*
X71569867Y-60053537D02*
X71526579Y-60105125D01*
X71526579Y-60105125D02*
X71435854Y-60160864D01*
X71435854Y-60160864D02*
X71151227Y-60185765D01*
X71151227Y-60185765D02*
X71052201Y-60146628D01*
X71052201Y-60146628D02*
X71000613Y-60103340D01*
X130981311Y-66057618D02*
X130981311Y-65057618D01*
X130981311Y-65057618D02*
X131219406Y-65057618D01*
X131219406Y-65057618D02*
X131362263Y-65105237D01*
X131362263Y-65105237D02*
X131457501Y-65200475D01*
X131457501Y-65200475D02*
X131505120Y-65295713D01*
X131505120Y-65295713D02*
X131552739Y-65486189D01*
X131552739Y-65486189D02*
X131552739Y-65629046D01*
X131552739Y-65629046D02*
X131505120Y-65819522D01*
X131505120Y-65819522D02*
X131457501Y-65914760D01*
X131457501Y-65914760D02*
X131362263Y-66009999D01*
X131362263Y-66009999D02*
X131219406Y-66057618D01*
X131219406Y-66057618D02*
X130981311Y-66057618D01*
X132505120Y-66057618D02*
X131933692Y-66057618D01*
X132219406Y-66057618D02*
X132219406Y-65057618D01*
X132219406Y-65057618D02*
X132124168Y-65200475D01*
X132124168Y-65200475D02*
X132028930Y-65295713D01*
X132028930Y-65295713D02*
X131933692Y-65343332D01*
X133362263Y-65390951D02*
X133362263Y-66057618D01*
X133124168Y-65009999D02*
X132886073Y-65724284D01*
X132886073Y-65724284D02*
X133505120Y-65724284D01*
X178256239Y-126928269D02*
X178694610Y-126029475D01*
X178694610Y-126029475D02*
X178908609Y-126133849D01*
X178908609Y-126133849D02*
X179016133Y-126239274D01*
X179016133Y-126239274D02*
X179059983Y-126366623D01*
X179059983Y-126366623D02*
X179061033Y-126473097D01*
X179061033Y-126473097D02*
X179020334Y-126665171D01*
X179020334Y-126665171D02*
X178957709Y-126793570D01*
X178957709Y-126793570D02*
X178831410Y-126943894D01*
X178831410Y-126943894D02*
X178746861Y-127008618D01*
X178746861Y-127008618D02*
X178619512Y-127052468D01*
X178619512Y-127052468D02*
X178470238Y-127032643D01*
X178470238Y-127032643D02*
X178256239Y-126928269D01*
X179508855Y-126532571D02*
X179572530Y-126510646D01*
X179572530Y-126510646D02*
X179679004Y-126509596D01*
X179679004Y-126509596D02*
X179893002Y-126613970D01*
X179893002Y-126613970D02*
X179957727Y-126698519D01*
X179957727Y-126698519D02*
X179979652Y-126762194D01*
X179979652Y-126762194D02*
X179980702Y-126868668D01*
X179980702Y-126868668D02*
X179938952Y-126954268D01*
X179938952Y-126954268D02*
X179833528Y-127061792D01*
X179833528Y-127061792D02*
X179069434Y-127324891D01*
X179069434Y-127324891D02*
X179625830Y-127596263D01*
X180481824Y-128013760D02*
X179968228Y-127763262D01*
X180225026Y-127888511D02*
X180663397Y-126989717D01*
X180663397Y-126989717D02*
X180515173Y-127076366D01*
X180515173Y-127076366D02*
X180387824Y-127120216D01*
X180387824Y-127120216D02*
X180281350Y-127121266D01*
X156908073Y-63682256D02*
X156765216Y-63634636D01*
X156765216Y-63634636D02*
X156527121Y-63634636D01*
X156527121Y-63634636D02*
X156431883Y-63682256D01*
X156431883Y-63682256D02*
X156384264Y-63729875D01*
X156384264Y-63729875D02*
X156336645Y-63825113D01*
X156336645Y-63825113D02*
X156336645Y-63920351D01*
X156336645Y-63920351D02*
X156384264Y-64015589D01*
X156384264Y-64015589D02*
X156431883Y-64063208D01*
X156431883Y-64063208D02*
X156527121Y-64110827D01*
X156527121Y-64110827D02*
X156717597Y-64158446D01*
X156717597Y-64158446D02*
X156812835Y-64206065D01*
X156812835Y-64206065D02*
X156860454Y-64253684D01*
X156860454Y-64253684D02*
X156908073Y-64348922D01*
X156908073Y-64348922D02*
X156908073Y-64444160D01*
X156908073Y-64444160D02*
X156860454Y-64539398D01*
X156860454Y-64539398D02*
X156812835Y-64587017D01*
X156812835Y-64587017D02*
X156717597Y-64634636D01*
X156717597Y-64634636D02*
X156479502Y-64634636D01*
X156479502Y-64634636D02*
X156336645Y-64587017D01*
X155384264Y-63634636D02*
X155955692Y-63634636D01*
X155669978Y-63634636D02*
X155669978Y-64634636D01*
X155669978Y-64634636D02*
X155765216Y-64491779D01*
X155765216Y-64491779D02*
X155860454Y-64396541D01*
X155860454Y-64396541D02*
X155955692Y-64348922D01*
X155050930Y-64634636D02*
X154384264Y-64634636D01*
X154384264Y-64634636D02*
X154812835Y-63634636D01*
X156983815Y-78745077D02*
X156840958Y-78697457D01*
X156840958Y-78697457D02*
X156602863Y-78697457D01*
X156602863Y-78697457D02*
X156507625Y-78745077D01*
X156507625Y-78745077D02*
X156460006Y-78792696D01*
X156460006Y-78792696D02*
X156412387Y-78887934D01*
X156412387Y-78887934D02*
X156412387Y-78983172D01*
X156412387Y-78983172D02*
X156460006Y-79078410D01*
X156460006Y-79078410D02*
X156507625Y-79126029D01*
X156507625Y-79126029D02*
X156602863Y-79173648D01*
X156602863Y-79173648D02*
X156793339Y-79221267D01*
X156793339Y-79221267D02*
X156888577Y-79268886D01*
X156888577Y-79268886D02*
X156936196Y-79316505D01*
X156936196Y-79316505D02*
X156983815Y-79411743D01*
X156983815Y-79411743D02*
X156983815Y-79506981D01*
X156983815Y-79506981D02*
X156936196Y-79602219D01*
X156936196Y-79602219D02*
X156888577Y-79649838D01*
X156888577Y-79649838D02*
X156793339Y-79697457D01*
X156793339Y-79697457D02*
X156555244Y-79697457D01*
X156555244Y-79697457D02*
X156412387Y-79649838D01*
X155460006Y-78697457D02*
X156031434Y-78697457D01*
X155745720Y-78697457D02*
X155745720Y-79697457D01*
X155745720Y-79697457D02*
X155840958Y-79554600D01*
X155840958Y-79554600D02*
X155936196Y-79459362D01*
X155936196Y-79459362D02*
X156031434Y-79411743D01*
X154602863Y-79697457D02*
X154793339Y-79697457D01*
X154793339Y-79697457D02*
X154888577Y-79649838D01*
X154888577Y-79649838D02*
X154936196Y-79602219D01*
X154936196Y-79602219D02*
X155031434Y-79459362D01*
X155031434Y-79459362D02*
X155079053Y-79268886D01*
X155079053Y-79268886D02*
X155079053Y-78887934D01*
X155079053Y-78887934D02*
X155031434Y-78792696D01*
X155031434Y-78792696D02*
X154983815Y-78745077D01*
X154983815Y-78745077D02*
X154888577Y-78697457D01*
X154888577Y-78697457D02*
X154698101Y-78697457D01*
X154698101Y-78697457D02*
X154602863Y-78745077D01*
X154602863Y-78745077D02*
X154555244Y-78792696D01*
X154555244Y-78792696D02*
X154507625Y-78887934D01*
X154507625Y-78887934D02*
X154507625Y-79126029D01*
X154507625Y-79126029D02*
X154555244Y-79221267D01*
X154555244Y-79221267D02*
X154602863Y-79268886D01*
X154602863Y-79268886D02*
X154698101Y-79316505D01*
X154698101Y-79316505D02*
X154888577Y-79316505D01*
X154888577Y-79316505D02*
X154983815Y-79268886D01*
X154983815Y-79268886D02*
X155031434Y-79221267D01*
X155031434Y-79221267D02*
X155079053Y-79126029D01*
X164118154Y-54783235D02*
X164261011Y-54830854D01*
X164261011Y-54830854D02*
X164499106Y-54830854D01*
X164499106Y-54830854D02*
X164594344Y-54783235D01*
X164594344Y-54783235D02*
X164641963Y-54735615D01*
X164641963Y-54735615D02*
X164689582Y-54640377D01*
X164689582Y-54640377D02*
X164689582Y-54545139D01*
X164689582Y-54545139D02*
X164641963Y-54449901D01*
X164641963Y-54449901D02*
X164594344Y-54402282D01*
X164594344Y-54402282D02*
X164499106Y-54354663D01*
X164499106Y-54354663D02*
X164308630Y-54307044D01*
X164308630Y-54307044D02*
X164213392Y-54259425D01*
X164213392Y-54259425D02*
X164165773Y-54211806D01*
X164165773Y-54211806D02*
X164118154Y-54116568D01*
X164118154Y-54116568D02*
X164118154Y-54021330D01*
X164118154Y-54021330D02*
X164165773Y-53926092D01*
X164165773Y-53926092D02*
X164213392Y-53878473D01*
X164213392Y-53878473D02*
X164308630Y-53830854D01*
X164308630Y-53830854D02*
X164546725Y-53830854D01*
X164546725Y-53830854D02*
X164689582Y-53878473D01*
X165641963Y-54830854D02*
X165070535Y-54830854D01*
X165356249Y-54830854D02*
X165356249Y-53830854D01*
X165356249Y-53830854D02*
X165261011Y-53973711D01*
X165261011Y-53973711D02*
X165165773Y-54068949D01*
X165165773Y-54068949D02*
X165070535Y-54116568D01*
X166213392Y-54259425D02*
X166118154Y-54211806D01*
X166118154Y-54211806D02*
X166070535Y-54164187D01*
X166070535Y-54164187D02*
X166022916Y-54068949D01*
X166022916Y-54068949D02*
X166022916Y-54021330D01*
X166022916Y-54021330D02*
X166070535Y-53926092D01*
X166070535Y-53926092D02*
X166118154Y-53878473D01*
X166118154Y-53878473D02*
X166213392Y-53830854D01*
X166213392Y-53830854D02*
X166403868Y-53830854D01*
X166403868Y-53830854D02*
X166499106Y-53878473D01*
X166499106Y-53878473D02*
X166546725Y-53926092D01*
X166546725Y-53926092D02*
X166594344Y-54021330D01*
X166594344Y-54021330D02*
X166594344Y-54068949D01*
X166594344Y-54068949D02*
X166546725Y-54164187D01*
X166546725Y-54164187D02*
X166499106Y-54211806D01*
X166499106Y-54211806D02*
X166403868Y-54259425D01*
X166403868Y-54259425D02*
X166213392Y-54259425D01*
X166213392Y-54259425D02*
X166118154Y-54307044D01*
X166118154Y-54307044D02*
X166070535Y-54354663D01*
X166070535Y-54354663D02*
X166022916Y-54449901D01*
X166022916Y-54449901D02*
X166022916Y-54640377D01*
X166022916Y-54640377D02*
X166070535Y-54735615D01*
X166070535Y-54735615D02*
X166118154Y-54783235D01*
X166118154Y-54783235D02*
X166213392Y-54830854D01*
X166213392Y-54830854D02*
X166403868Y-54830854D01*
X166403868Y-54830854D02*
X166499106Y-54783235D01*
X166499106Y-54783235D02*
X166546725Y-54735615D01*
X166546725Y-54735615D02*
X166594344Y-54640377D01*
X166594344Y-54640377D02*
X166594344Y-54449901D01*
X166594344Y-54449901D02*
X166546725Y-54354663D01*
X166546725Y-54354663D02*
X166499106Y-54307044D01*
X166499106Y-54307044D02*
X166403868Y-54259425D01*
X146526677Y-50897342D02*
X146669534Y-50944961D01*
X146669534Y-50944961D02*
X146907629Y-50944961D01*
X146907629Y-50944961D02*
X147002867Y-50897342D01*
X147002867Y-50897342D02*
X147050486Y-50849722D01*
X147050486Y-50849722D02*
X147098105Y-50754484D01*
X147098105Y-50754484D02*
X147098105Y-50659246D01*
X147098105Y-50659246D02*
X147050486Y-50564008D01*
X147050486Y-50564008D02*
X147002867Y-50516389D01*
X147002867Y-50516389D02*
X146907629Y-50468770D01*
X146907629Y-50468770D02*
X146717153Y-50421151D01*
X146717153Y-50421151D02*
X146621915Y-50373532D01*
X146621915Y-50373532D02*
X146574296Y-50325913D01*
X146574296Y-50325913D02*
X146526677Y-50230675D01*
X146526677Y-50230675D02*
X146526677Y-50135437D01*
X146526677Y-50135437D02*
X146574296Y-50040199D01*
X146574296Y-50040199D02*
X146621915Y-49992580D01*
X146621915Y-49992580D02*
X146717153Y-49944961D01*
X146717153Y-49944961D02*
X146955248Y-49944961D01*
X146955248Y-49944961D02*
X147098105Y-49992580D01*
X148050486Y-50944961D02*
X147479058Y-50944961D01*
X147764772Y-50944961D02*
X147764772Y-49944961D01*
X147764772Y-49944961D02*
X147669534Y-50087818D01*
X147669534Y-50087818D02*
X147574296Y-50183056D01*
X147574296Y-50183056D02*
X147479058Y-50230675D01*
X148955248Y-49944961D02*
X148479058Y-49944961D01*
X148479058Y-49944961D02*
X148431439Y-50421151D01*
X148431439Y-50421151D02*
X148479058Y-50373532D01*
X148479058Y-50373532D02*
X148574296Y-50325913D01*
X148574296Y-50325913D02*
X148812391Y-50325913D01*
X148812391Y-50325913D02*
X148907629Y-50373532D01*
X148907629Y-50373532D02*
X148955248Y-50421151D01*
X148955248Y-50421151D02*
X149002867Y-50516389D01*
X149002867Y-50516389D02*
X149002867Y-50754484D01*
X149002867Y-50754484D02*
X148955248Y-50849722D01*
X148955248Y-50849722D02*
X148907629Y-50897342D01*
X148907629Y-50897342D02*
X148812391Y-50944961D01*
X148812391Y-50944961D02*
X148574296Y-50944961D01*
X148574296Y-50944961D02*
X148479058Y-50897342D01*
X148479058Y-50897342D02*
X148431439Y-50849722D01*
X141125910Y-52819068D02*
X141125910Y-51819068D01*
X141125910Y-51819068D02*
X141364005Y-51819068D01*
X141364005Y-51819068D02*
X141506862Y-51866687D01*
X141506862Y-51866687D02*
X141602100Y-51961925D01*
X141602100Y-51961925D02*
X141649719Y-52057163D01*
X141649719Y-52057163D02*
X141697338Y-52247639D01*
X141697338Y-52247639D02*
X141697338Y-52390496D01*
X141697338Y-52390496D02*
X141649719Y-52580972D01*
X141649719Y-52580972D02*
X141602100Y-52676210D01*
X141602100Y-52676210D02*
X141506862Y-52771449D01*
X141506862Y-52771449D02*
X141364005Y-52819068D01*
X141364005Y-52819068D02*
X141125910Y-52819068D01*
X142649719Y-52819068D02*
X142078291Y-52819068D01*
X142364005Y-52819068D02*
X142364005Y-51819068D01*
X142364005Y-51819068D02*
X142268767Y-51961925D01*
X142268767Y-51961925D02*
X142173529Y-52057163D01*
X142173529Y-52057163D02*
X142078291Y-52104782D01*
X143554481Y-51819068D02*
X143078291Y-51819068D01*
X143078291Y-51819068D02*
X143030672Y-52295258D01*
X143030672Y-52295258D02*
X143078291Y-52247639D01*
X143078291Y-52247639D02*
X143173529Y-52200020D01*
X143173529Y-52200020D02*
X143411624Y-52200020D01*
X143411624Y-52200020D02*
X143506862Y-52247639D01*
X143506862Y-52247639D02*
X143554481Y-52295258D01*
X143554481Y-52295258D02*
X143602100Y-52390496D01*
X143602100Y-52390496D02*
X143602100Y-52628591D01*
X143602100Y-52628591D02*
X143554481Y-52723829D01*
X143554481Y-52723829D02*
X143506862Y-52771449D01*
X143506862Y-52771449D02*
X143411624Y-52819068D01*
X143411624Y-52819068D02*
X143173529Y-52819068D01*
X143173529Y-52819068D02*
X143078291Y-52771449D01*
X143078291Y-52771449D02*
X143030672Y-52723829D01*
X196126493Y-41129419D02*
X196126493Y-40129419D01*
X196126493Y-40605609D02*
X196697921Y-40605609D01*
X196697921Y-41129419D02*
X196697921Y-40129419D01*
X197650302Y-40129419D02*
X197174112Y-40129419D01*
X197174112Y-40129419D02*
X197126493Y-40605609D01*
X197126493Y-40605609D02*
X197174112Y-40557990D01*
X197174112Y-40557990D02*
X197269350Y-40510371D01*
X197269350Y-40510371D02*
X197507445Y-40510371D01*
X197507445Y-40510371D02*
X197602683Y-40557990D01*
X197602683Y-40557990D02*
X197650302Y-40605609D01*
X197650302Y-40605609D02*
X197697921Y-40700847D01*
X197697921Y-40700847D02*
X197697921Y-40938942D01*
X197697921Y-40938942D02*
X197650302Y-41034180D01*
X197650302Y-41034180D02*
X197602683Y-41081800D01*
X197602683Y-41081800D02*
X197507445Y-41129419D01*
X197507445Y-41129419D02*
X197269350Y-41129419D01*
X197269350Y-41129419D02*
X197174112Y-41081800D01*
X197174112Y-41081800D02*
X197126493Y-41034180D01*
D11*
X150595331Y-83264380D02*
X150595331Y-82550095D01*
X150595331Y-82550095D02*
X150642950Y-82407238D01*
X150642950Y-82407238D02*
X150738188Y-82312000D01*
X150738188Y-82312000D02*
X150881045Y-82264380D01*
X150881045Y-82264380D02*
X150976283Y-82264380D01*
X149642950Y-83264380D02*
X150119140Y-83264380D01*
X150119140Y-83264380D02*
X150166759Y-82788190D01*
X150166759Y-82788190D02*
X150119140Y-82835809D01*
X150119140Y-82835809D02*
X150023902Y-82883428D01*
X150023902Y-82883428D02*
X149785807Y-82883428D01*
X149785807Y-82883428D02*
X149690569Y-82835809D01*
X149690569Y-82835809D02*
X149642950Y-82788190D01*
X149642950Y-82788190D02*
X149595331Y-82692952D01*
X149595331Y-82692952D02*
X149595331Y-82454857D01*
X149595331Y-82454857D02*
X149642950Y-82359619D01*
X149642950Y-82359619D02*
X149690569Y-82312000D01*
X149690569Y-82312000D02*
X149785807Y-82264380D01*
X149785807Y-82264380D02*
X150023902Y-82264380D01*
X150023902Y-82264380D02*
X150119140Y-82312000D01*
X150119140Y-82312000D02*
X150166759Y-82359619D01*
D10*
X65447845Y-62862991D02*
X65360689Y-61866796D01*
X65360689Y-61866796D02*
X65597878Y-61846045D01*
X65597878Y-61846045D02*
X65744342Y-61881032D01*
X65744342Y-61881032D02*
X65847518Y-61967607D01*
X65847518Y-61967607D02*
X65903256Y-62058333D01*
X65903256Y-62058333D02*
X65967295Y-62243934D01*
X65967295Y-62243934D02*
X65979746Y-62386247D01*
X65979746Y-62386247D02*
X65948909Y-62580149D01*
X65948909Y-62580149D02*
X65909772Y-62679175D01*
X65909772Y-62679175D02*
X65823197Y-62782351D01*
X65823197Y-62782351D02*
X65685034Y-62842240D01*
X65685034Y-62842240D02*
X65447845Y-62862991D01*
X66262008Y-61787941D02*
X66878700Y-61733988D01*
X66878700Y-61733988D02*
X66579837Y-62142542D01*
X66579837Y-62142542D02*
X66722151Y-62130091D01*
X66722151Y-62130091D02*
X66821177Y-62169229D01*
X66821177Y-62169229D02*
X66872765Y-62212516D01*
X66872765Y-62212516D02*
X66928503Y-62303242D01*
X66928503Y-62303242D02*
X66949254Y-62540431D01*
X66949254Y-62540431D02*
X66910117Y-62639457D01*
X66910117Y-62639457D02*
X66866830Y-62691045D01*
X66866830Y-62691045D02*
X66776104Y-62746783D01*
X66776104Y-62746783D02*
X66491477Y-62771685D01*
X66491477Y-62771685D02*
X66392451Y-62732548D01*
X66392451Y-62732548D02*
X66340863Y-62689260D01*
X103364880Y-68909404D02*
X103312544Y-67910775D01*
X103312544Y-67910775D02*
X103550313Y-67898314D01*
X103550313Y-67898314D02*
X103695466Y-67938391D01*
X103695466Y-67938391D02*
X103795558Y-68028514D01*
X103795558Y-68028514D02*
X103848096Y-68121129D01*
X103848096Y-68121129D02*
X103905619Y-68308852D01*
X103905619Y-68308852D02*
X103913095Y-68451514D01*
X103913095Y-68451514D02*
X103875510Y-68644221D01*
X103875510Y-68644221D02*
X103832941Y-68741821D01*
X103832941Y-68741821D02*
X103742818Y-68841913D01*
X103742818Y-68841913D02*
X103602649Y-68896943D01*
X103602649Y-68896943D02*
X103364880Y-68909404D01*
X104476264Y-68278946D02*
X104378665Y-68236377D01*
X104378665Y-68236377D02*
X104328619Y-68191315D01*
X104328619Y-68191315D02*
X104276080Y-68098700D01*
X104276080Y-68098700D02*
X104273588Y-68051146D01*
X104273588Y-68051146D02*
X104316158Y-67953546D01*
X104316158Y-67953546D02*
X104361219Y-67903500D01*
X104361219Y-67903500D02*
X104453835Y-67850962D01*
X104453835Y-67850962D02*
X104644050Y-67840993D01*
X104644050Y-67840993D02*
X104741650Y-67883563D01*
X104741650Y-67883563D02*
X104791695Y-67928624D01*
X104791695Y-67928624D02*
X104844234Y-68021240D01*
X104844234Y-68021240D02*
X104846726Y-68068794D01*
X104846726Y-68068794D02*
X104804156Y-68166393D01*
X104804156Y-68166393D02*
X104759095Y-68216439D01*
X104759095Y-68216439D02*
X104666479Y-68268977D01*
X104666479Y-68268977D02*
X104476264Y-68278946D01*
X104476264Y-68278946D02*
X104383649Y-68331484D01*
X104383649Y-68331484D02*
X104338587Y-68381530D01*
X104338587Y-68381530D02*
X104296018Y-68479130D01*
X104296018Y-68479130D02*
X104305987Y-68669345D01*
X104305987Y-68669345D02*
X104358525Y-68761961D01*
X104358525Y-68761961D02*
X104408571Y-68807022D01*
X104408571Y-68807022D02*
X104506171Y-68849592D01*
X104506171Y-68849592D02*
X104696386Y-68839623D01*
X104696386Y-68839623D02*
X104789001Y-68787085D01*
X104789001Y-68787085D02*
X104834063Y-68737039D01*
X104834063Y-68737039D02*
X104876632Y-68639439D01*
X104876632Y-68639439D02*
X104866663Y-68449224D01*
X104866663Y-68449224D02*
X104814125Y-68356608D01*
X104814125Y-68356608D02*
X104764079Y-68311547D01*
X104764079Y-68311547D02*
X104666479Y-68268977D01*
X123125912Y-49819069D02*
X123125912Y-48819069D01*
X123125912Y-48819069D02*
X123364007Y-48819069D01*
X123364007Y-48819069D02*
X123506864Y-48866688D01*
X123506864Y-48866688D02*
X123602102Y-48961926D01*
X123602102Y-48961926D02*
X123649721Y-49057164D01*
X123649721Y-49057164D02*
X123697340Y-49247640D01*
X123697340Y-49247640D02*
X123697340Y-49390497D01*
X123697340Y-49390497D02*
X123649721Y-49580973D01*
X123649721Y-49580973D02*
X123602102Y-49676211D01*
X123602102Y-49676211D02*
X123506864Y-49771450D01*
X123506864Y-49771450D02*
X123364007Y-49819069D01*
X123364007Y-49819069D02*
X123125912Y-49819069D01*
X124649721Y-49819069D02*
X124078293Y-49819069D01*
X124364007Y-49819069D02*
X124364007Y-48819069D01*
X124364007Y-48819069D02*
X124268769Y-48961926D01*
X124268769Y-48961926D02*
X124173531Y-49057164D01*
X124173531Y-49057164D02*
X124078293Y-49104783D01*
X125030674Y-48914307D02*
X125078293Y-48866688D01*
X125078293Y-48866688D02*
X125173531Y-48819069D01*
X125173531Y-48819069D02*
X125411626Y-48819069D01*
X125411626Y-48819069D02*
X125506864Y-48866688D01*
X125506864Y-48866688D02*
X125554483Y-48914307D01*
X125554483Y-48914307D02*
X125602102Y-49009545D01*
X125602102Y-49009545D02*
X125602102Y-49104783D01*
X125602102Y-49104783D02*
X125554483Y-49247640D01*
X125554483Y-49247640D02*
X124983055Y-49819069D01*
X124983055Y-49819069D02*
X125602102Y-49819069D01*
X145634950Y-112449750D02*
X145777807Y-112497369D01*
X145777807Y-112497369D02*
X146015902Y-112497369D01*
X146015902Y-112497369D02*
X146111140Y-112449750D01*
X146111140Y-112449750D02*
X146158759Y-112402130D01*
X146158759Y-112402130D02*
X146206378Y-112306892D01*
X146206378Y-112306892D02*
X146206378Y-112211654D01*
X146206378Y-112211654D02*
X146158759Y-112116416D01*
X146158759Y-112116416D02*
X146111140Y-112068797D01*
X146111140Y-112068797D02*
X146015902Y-112021178D01*
X146015902Y-112021178D02*
X145825426Y-111973559D01*
X145825426Y-111973559D02*
X145730188Y-111925940D01*
X145730188Y-111925940D02*
X145682569Y-111878321D01*
X145682569Y-111878321D02*
X145634950Y-111783083D01*
X145634950Y-111783083D02*
X145634950Y-111687845D01*
X145634950Y-111687845D02*
X145682569Y-111592607D01*
X145682569Y-111592607D02*
X145730188Y-111544988D01*
X145730188Y-111544988D02*
X145825426Y-111497369D01*
X145825426Y-111497369D02*
X146063521Y-111497369D01*
X146063521Y-111497369D02*
X146206378Y-111544988D01*
X147158759Y-112497369D02*
X146587331Y-112497369D01*
X146873045Y-112497369D02*
X146873045Y-111497369D01*
X146873045Y-111497369D02*
X146777807Y-111640226D01*
X146777807Y-111640226D02*
X146682569Y-111735464D01*
X146682569Y-111735464D02*
X146587331Y-111783083D01*
X147634950Y-112497369D02*
X147825426Y-112497369D01*
X147825426Y-112497369D02*
X147920664Y-112449750D01*
X147920664Y-112449750D02*
X147968283Y-112402130D01*
X147968283Y-112402130D02*
X148063521Y-112259273D01*
X148063521Y-112259273D02*
X148111140Y-112068797D01*
X148111140Y-112068797D02*
X148111140Y-111687845D01*
X148111140Y-111687845D02*
X148063521Y-111592607D01*
X148063521Y-111592607D02*
X148015902Y-111544988D01*
X148015902Y-111544988D02*
X147920664Y-111497369D01*
X147920664Y-111497369D02*
X147730188Y-111497369D01*
X147730188Y-111497369D02*
X147634950Y-111544988D01*
X147634950Y-111544988D02*
X147587331Y-111592607D01*
X147587331Y-111592607D02*
X147539712Y-111687845D01*
X147539712Y-111687845D02*
X147539712Y-111925940D01*
X147539712Y-111925940D02*
X147587331Y-112021178D01*
X147587331Y-112021178D02*
X147634950Y-112068797D01*
X147634950Y-112068797D02*
X147730188Y-112116416D01*
X147730188Y-112116416D02*
X147920664Y-112116416D01*
X147920664Y-112116416D02*
X148015902Y-112068797D01*
X148015902Y-112068797D02*
X148063521Y-112021178D01*
X148063521Y-112021178D02*
X148111140Y-111925940D01*
X102475171Y-51932700D02*
X102422835Y-50934071D01*
X102422835Y-50934071D02*
X102660604Y-50921610D01*
X102660604Y-50921610D02*
X102805757Y-50961687D01*
X102805757Y-50961687D02*
X102905849Y-51051810D01*
X102905849Y-51051810D02*
X102958387Y-51144425D01*
X102958387Y-51144425D02*
X103015910Y-51332148D01*
X103015910Y-51332148D02*
X103023386Y-51474810D01*
X103023386Y-51474810D02*
X102985801Y-51667517D01*
X102985801Y-51667517D02*
X102943232Y-51765117D01*
X102943232Y-51765117D02*
X102853109Y-51865209D01*
X102853109Y-51865209D02*
X102712940Y-51920239D01*
X102712940Y-51920239D02*
X102475171Y-51932700D01*
X103521354Y-51877872D02*
X103711569Y-51867903D01*
X103711569Y-51867903D02*
X103804185Y-51815365D01*
X103804185Y-51815365D02*
X103849246Y-51765319D01*
X103849246Y-51765319D02*
X103936877Y-51617673D01*
X103936877Y-51617673D02*
X103974462Y-51424966D01*
X103974462Y-51424966D02*
X103954525Y-51044536D01*
X103954525Y-51044536D02*
X103901986Y-50951920D01*
X103901986Y-50951920D02*
X103851941Y-50906859D01*
X103851941Y-50906859D02*
X103754341Y-50864289D01*
X103754341Y-50864289D02*
X103564126Y-50874258D01*
X103564126Y-50874258D02*
X103471510Y-50926796D01*
X103471510Y-50926796D02*
X103426449Y-50976842D01*
X103426449Y-50976842D02*
X103383879Y-51074442D01*
X103383879Y-51074442D02*
X103396340Y-51312211D01*
X103396340Y-51312211D02*
X103448878Y-51404826D01*
X103448878Y-51404826D02*
X103498924Y-51449888D01*
X103498924Y-51449888D02*
X103596524Y-51492457D01*
X103596524Y-51492457D02*
X103786739Y-51482489D01*
X103786739Y-51482489D02*
X103879355Y-51429950D01*
X103879355Y-51429950D02*
X103924416Y-51379904D01*
X103924416Y-51379904D02*
X103966986Y-51282305D01*
X86342646Y-95164807D02*
X86255490Y-94168612D01*
X86255490Y-94168612D02*
X86492679Y-94147861D01*
X86492679Y-94147861D02*
X86639143Y-94182848D01*
X86639143Y-94182848D02*
X86742319Y-94269423D01*
X86742319Y-94269423D02*
X86798057Y-94360149D01*
X86798057Y-94360149D02*
X86862096Y-94545750D01*
X86862096Y-94545750D02*
X86874547Y-94688063D01*
X86874547Y-94688063D02*
X86843710Y-94881965D01*
X86843710Y-94881965D02*
X86804573Y-94980991D01*
X86804573Y-94980991D02*
X86717998Y-95084167D01*
X86717998Y-95084167D02*
X86579835Y-95144056D01*
X86579835Y-95144056D02*
X86342646Y-95164807D01*
X87707677Y-94376169D02*
X87765781Y-95040299D01*
X87437286Y-94017418D02*
X87262350Y-94749737D01*
X87262350Y-94749737D02*
X87879042Y-94695783D01*
D12*
X144700195Y-83364247D02*
X140690195Y-83364247D01*
X144700195Y-85364247D02*
X140690195Y-85364247D01*
X144700195Y-85364247D02*
X144700195Y-83364247D01*
D10*
X135402586Y-74112665D02*
X135402587Y-73512665D01*
X135402587Y-73512665D02*
X139902586Y-73512665D01*
X135402587Y-78212665D02*
X135402587Y-77712665D01*
X139902587Y-77512665D02*
X139902588Y-78212665D01*
X139902588Y-78212665D02*
X135402587Y-78212665D01*
X140402587Y-73012665D02*
X140402587Y-72012665D01*
X140902587Y-71512665D02*
X140402587Y-72012665D01*
X143902587Y-71512665D02*
X140902587Y-71512665D01*
X143902588Y-76012665D02*
X141402587Y-76012665D01*
X144402587Y-72012665D02*
X143902587Y-71512665D01*
X144402587Y-75512665D02*
X143902588Y-76012665D01*
X139902587Y-77512665D02*
G75*
G02*
X141402587Y-76012665I1500001J-1D01*
G01*
X140402587Y-73012665D02*
G75*
G02*
X139902586Y-73512665I-500003J3D01*
G01*
D12*
X126700201Y-80364252D02*
X122690201Y-80364252D01*
X126700201Y-82364252D02*
X122690201Y-82364252D01*
X126700201Y-82364252D02*
X126700201Y-80364252D01*
D10*
X140402585Y-66912667D02*
X140902584Y-66412667D01*
X140402585Y-70412667D02*
X140902585Y-70912667D01*
X140902584Y-66412667D02*
X143402585Y-66412667D01*
X140902585Y-70912667D02*
X143902585Y-70912667D01*
X143902585Y-70912667D02*
X144402585Y-70412667D01*
X144402585Y-69412667D02*
X144402585Y-70412667D01*
X144902584Y-64212667D02*
X149402585Y-64212667D01*
X144902585Y-64912667D02*
X144902584Y-64212667D01*
X149402585Y-64212667D02*
X149402585Y-64712667D01*
X149402585Y-68912667D02*
X144902586Y-68912667D01*
X149402586Y-68312667D02*
X149402585Y-68912667D01*
X144402585Y-69412667D02*
G75*
G02*
X144902586Y-68912667I500003J-3D01*
G01*
X144902585Y-64912667D02*
G75*
G02*
X143402585Y-66412667I-1500001J1D01*
G01*
X175202383Y-120240330D02*
X177175053Y-116195757D01*
X175741660Y-120503353D02*
X175202383Y-120240330D01*
X175815837Y-114420221D02*
X176046048Y-115088803D01*
X176944842Y-115527175D02*
X176046048Y-115088803D01*
X177130950Y-111723839D02*
X175815837Y-114420221D01*
X177799533Y-111493627D02*
X177130950Y-111723839D01*
X179426715Y-122300675D02*
X178977318Y-122081489D01*
X180770230Y-117949242D02*
X181399386Y-118256101D01*
X180945312Y-113027926D02*
X181175523Y-113696509D01*
X181175523Y-113696509D02*
X180079595Y-115943494D01*
X181399386Y-118256101D02*
X179426715Y-122300675D01*
X176944842Y-115527175D02*
G75*
G02*
X177175053Y-116195757I-219187J-449397D01*
G01*
X180770230Y-117949242D02*
G75*
G02*
X180079595Y-115943494I657558J1348192D01*
G01*
D12*
X86164551Y-57582502D02*
X82169810Y-57931996D01*
X86338862Y-59574891D02*
X82344119Y-59924386D01*
X86338862Y-59574891D02*
X86164551Y-57582502D01*
X167253174Y-114863171D02*
X163649010Y-113105303D01*
X167253174Y-114863171D02*
X168129916Y-113065583D01*
X168129916Y-113065583D02*
X164525752Y-111307715D01*
D10*
X96477459Y-55945697D02*
X100971292Y-55710185D01*
X96508861Y-56544874D02*
X96477459Y-55945697D01*
X96723438Y-60639255D02*
X96697270Y-60139941D01*
X101180636Y-59704702D02*
X101217271Y-60403744D01*
X101217271Y-60403744D02*
X96723438Y-60639255D01*
X101444439Y-55184702D02*
X101392103Y-54186072D01*
X101865250Y-53660591D02*
X101392103Y-54186072D01*
X104861138Y-53503582D02*
X101865250Y-53660591D01*
X105096650Y-57997416D02*
X102600076Y-58128255D01*
X105386621Y-53976729D02*
X104861138Y-53503582D01*
X105569797Y-57471932D02*
X105096650Y-57997416D01*
X101180636Y-59704702D02*
G75*
G02*
X102600076Y-58128254I1497954J78495D01*
G01*
X101444439Y-55184702D02*
G75*
G02*
X100971292Y-55710185I-499316J-26167D01*
G01*
D12*
X176870998Y-87112600D02*
X177470998Y-87112600D01*
X177170998Y-87412600D02*
X176870998Y-87112600D01*
X177470998Y-87112600D02*
X177170998Y-87412600D01*
X178570998Y-85312600D02*
X178570998Y-97112600D01*
X182670998Y-85312600D02*
X178570998Y-85312600D01*
X182670998Y-97112600D02*
X178570998Y-97112600D01*
X184170998Y-91212600D02*
X185170998Y-91212600D01*
X184670998Y-90712600D02*
X184670998Y-91712600D01*
X186670998Y-85312600D02*
X190770998Y-85312600D01*
X190770998Y-85312600D02*
X190770998Y-87712600D01*
X190770998Y-89912600D02*
X190770998Y-92512600D01*
X190770998Y-94712600D02*
X190770998Y-97112600D01*
X190770998Y-97112600D02*
X186670998Y-97112600D01*
X187670998Y-91212600D02*
G75*
G02*
X181670998Y-91212600I-3000000J0D01*
G01*
X181670998Y-91212600D02*
G75*
G02*
X187670998Y-91212600I3000000J0D01*
G01*
D10*
X61075491Y-84018169D02*
X65558367Y-83625968D01*
X61127784Y-84615886D02*
X61075491Y-84018169D01*
X61485122Y-88700284D02*
X61441545Y-88202187D01*
X65906990Y-87610747D02*
X65967999Y-88308083D01*
X65967999Y-88308083D02*
X61485122Y-88700284D01*
X66012886Y-83084293D02*
X65925730Y-82088098D01*
X66380250Y-81546423D02*
X65925730Y-82088098D01*
X69368834Y-81284956D02*
X66380250Y-81546423D01*
X69761035Y-85767832D02*
X67270549Y-85985721D01*
X69910509Y-81739475D02*
X69368834Y-81284956D01*
X70215554Y-85226157D02*
X69761035Y-85767832D01*
X65906990Y-87610747D02*
G75*
G02*
X67270549Y-85985721I1494294J130732D01*
G01*
X66012886Y-83084293D02*
G75*
G02*
X65558367Y-83625967I-498100J-43575D01*
G01*
D12*
X71196342Y-93021925D02*
X67201601Y-93371419D01*
X71370653Y-95014314D02*
X67375910Y-95363809D01*
X71370653Y-95014314D02*
X71196342Y-93021925D01*
D10*
X95587749Y-38968994D02*
X100081582Y-38733482D01*
X95619151Y-39568171D02*
X95587749Y-38968994D01*
X95833728Y-43662552D02*
X95807560Y-43163238D01*
X100290926Y-42727999D02*
X100327561Y-43427041D01*
X100327561Y-43427041D02*
X95833728Y-43662552D01*
X100554729Y-38207999D02*
X100502393Y-37209369D01*
X100975540Y-36683888D02*
X100502393Y-37209369D01*
X103971428Y-36526879D02*
X100975540Y-36683888D01*
X104206940Y-41020713D02*
X101710366Y-41151552D01*
X104496911Y-37000026D02*
X103971428Y-36526879D01*
X104680087Y-40495229D02*
X104206940Y-41020713D01*
X100290926Y-42727999D02*
G75*
G02*
X101710366Y-41151551I1497954J78495D01*
G01*
X100554729Y-38207999D02*
G75*
G02*
X100081582Y-38733482I-499316J-26167D01*
G01*
D12*
X169225598Y-54373200D02*
X165215598Y-54373200D01*
X169225598Y-56373200D02*
X165215598Y-56373200D01*
X169225598Y-56373200D02*
X169225598Y-54373200D01*
X87646198Y-74517812D02*
X83651457Y-74867306D01*
X87820509Y-76510201D02*
X83825766Y-76859696D01*
X87820509Y-76510201D02*
X87646198Y-74517812D01*
D10*
X59593842Y-67082861D02*
X64076718Y-66690660D01*
X59646135Y-67680578D02*
X59593842Y-67082861D01*
X60003473Y-71764976D02*
X59959896Y-71266879D01*
X64425341Y-70675439D02*
X64486350Y-71372775D01*
X64486350Y-71372775D02*
X60003473Y-71764976D01*
X64531237Y-66148985D02*
X64444081Y-65152790D01*
X64898601Y-64611115D02*
X64444081Y-65152790D01*
X67887185Y-64349648D02*
X64898601Y-64611115D01*
X68279386Y-68832524D02*
X65788900Y-69050413D01*
X68428860Y-64804167D02*
X67887185Y-64349648D01*
X68733905Y-68290849D02*
X68279386Y-68832524D01*
X64425341Y-70675439D02*
G75*
G02*
X65788900Y-69050413I1494294J130732D01*
G01*
X64531237Y-66148985D02*
G75*
G02*
X64076718Y-66690659I-498100J-43575D01*
G01*
X174853786Y-37986555D02*
X174853786Y-71006555D01*
X174853786Y-37986555D02*
X192633786Y-37986555D01*
X192633786Y-37986555D02*
X192633786Y-71006555D01*
X192633786Y-71006555D02*
X174853786Y-71006555D01*
D12*
X100527198Y-97784600D02*
X100527198Y-98609600D01*
X140973045Y-97687550D02*
X143373045Y-97687550D01*
X140973045Y-101787550D02*
X140973045Y-97687550D01*
X140973045Y-105787550D02*
X140973045Y-109887550D01*
X140973045Y-109887550D02*
X152773045Y-109887550D01*
X142773045Y-110987550D02*
X143073045Y-111287550D01*
X142773045Y-111587550D02*
X142773045Y-110987550D01*
X143073045Y-111287550D02*
X142773045Y-111587550D01*
X145573045Y-97687550D02*
X148173045Y-97687550D01*
X146373045Y-103787550D02*
X147373045Y-103787550D01*
X146873045Y-104287550D02*
X146873045Y-103287550D01*
X150373045Y-97687550D02*
X152773045Y-97687550D01*
X152773045Y-97687550D02*
X152773045Y-101787550D01*
X152773045Y-105787550D02*
X152773045Y-109887550D01*
X149873045Y-103787550D02*
G75*
G02*
X143873045Y-103787550I-3000000J0D01*
G01*
X143873045Y-103787550D02*
G75*
G02*
X149873045Y-103787550I3000000J0D01*
G01*
D10*
X117402591Y-70512666D02*
X121902592Y-70512666D01*
X117402592Y-71112666D02*
X117402591Y-70512666D01*
X117402592Y-75212666D02*
X117402592Y-74712665D01*
X121902592Y-74512666D02*
X121902592Y-75212666D01*
X121902592Y-75212666D02*
X117402592Y-75212666D01*
X122402592Y-70012666D02*
X122402592Y-69012666D01*
X122902592Y-68512666D02*
X122402592Y-69012666D01*
X125902592Y-68512666D02*
X122902592Y-68512666D01*
X125902592Y-73012666D02*
X123402592Y-73012666D01*
X126402592Y-69012666D02*
X125902592Y-68512666D01*
X126402592Y-72512666D02*
X125902592Y-73012666D01*
X121902592Y-74512666D02*
G75*
G02*
X123402592Y-73012666I1500001J-1D01*
G01*
X122402592Y-70012666D02*
G75*
G02*
X121902592Y-70512666I-500001J1D01*
G01*
X97367174Y-72922399D02*
X101861007Y-72686887D01*
X97398576Y-73521576D02*
X97367174Y-72922399D01*
X97613153Y-77615957D02*
X97586985Y-77116643D01*
X102070351Y-76681404D02*
X102106986Y-77380446D01*
X102106986Y-77380446D02*
X97613153Y-77615957D01*
X102334154Y-72161404D02*
X102281818Y-71162774D01*
X102754965Y-70637293D02*
X102281818Y-71162774D01*
X105750853Y-70480284D02*
X102754965Y-70637293D01*
X105986365Y-74974118D02*
X103489791Y-75104957D01*
X106276336Y-70953431D02*
X105750853Y-70480284D01*
X106459512Y-74448634D02*
X105986365Y-74974118D01*
X102070351Y-76681404D02*
G75*
G02*
X103489791Y-75104956I1497954J78495D01*
G01*
X102334154Y-72161404D02*
G75*
G02*
X101861007Y-72686887I-499316J-26167D01*
G01*
X76043698Y-48578746D02*
X80526574Y-48186545D01*
X76095991Y-49176463D02*
X76043698Y-48578746D01*
X76453329Y-53260861D02*
X76409752Y-52762764D01*
X80875197Y-52171324D02*
X80936206Y-52868660D01*
X80936206Y-52868660D02*
X76453329Y-53260861D01*
X80981093Y-47644870D02*
X80893937Y-46648675D01*
X81348457Y-46107000D02*
X80893937Y-46648675D01*
X84337041Y-45845533D02*
X81348457Y-46107000D01*
X84729242Y-50328409D02*
X82238756Y-50546298D01*
X84878716Y-46300052D02*
X84337041Y-45845533D01*
X85183761Y-49786734D02*
X84729242Y-50328409D01*
X80875197Y-52171324D02*
G75*
G02*
X82238756Y-50546298I1494294J130732D01*
G01*
X80981093Y-47644870D02*
G75*
G02*
X80526574Y-48186544I-498100J-43575D01*
G01*
D12*
X126700200Y-63364252D02*
X122690200Y-63364252D01*
X126700200Y-65364252D02*
X122690200Y-65364252D01*
X126700200Y-65364252D02*
X126700200Y-63364252D01*
D10*
X117402588Y-36512668D02*
X121902589Y-36512668D01*
X117402589Y-37112668D02*
X117402588Y-36512668D01*
X117402589Y-41212668D02*
X117402589Y-40712667D01*
X121902589Y-40512668D02*
X121902589Y-41212668D01*
X121902589Y-41212668D02*
X117402589Y-41212668D01*
X122402589Y-36012668D02*
X122402589Y-35012668D01*
X122902589Y-34512668D02*
X122402589Y-35012668D01*
X125902589Y-34512668D02*
X122902589Y-34512668D01*
X125902589Y-39012668D02*
X123402589Y-39012668D01*
X126402589Y-35012668D02*
X125902589Y-34512668D01*
X126402589Y-38512668D02*
X125902589Y-39012668D01*
X121902589Y-40512668D02*
G75*
G02*
X123402589Y-39012668I1500001J-1D01*
G01*
X122402589Y-36012668D02*
G75*
G02*
X121902589Y-36512668I-500001J1D01*
G01*
D12*
X69714694Y-76086616D02*
X65719953Y-76436110D01*
X69889005Y-78079005D02*
X65894262Y-78428500D01*
X69889005Y-78079005D02*
X69714694Y-76086616D01*
X162672398Y-78935000D02*
X158662398Y-78935000D01*
X162672398Y-80935000D02*
X158662398Y-80935000D01*
X162672398Y-80935000D02*
X162672398Y-78935000D01*
D10*
X162031586Y-104359567D02*
X162250772Y-103910170D01*
X163828908Y-100674512D02*
X164091931Y-100135235D01*
X164091931Y-100135235D02*
X168136504Y-102107905D01*
X166076160Y-106332238D02*
X162031586Y-104359567D01*
X166383019Y-105703082D02*
X166076160Y-106332238D01*
X168805086Y-101877694D02*
X169243458Y-100978900D01*
X169912040Y-100748689D02*
X169243458Y-100978900D01*
X170635752Y-106108375D02*
X168388767Y-105012447D01*
X171304335Y-105878164D02*
X170635752Y-106108375D01*
X172608422Y-102063802D02*
X169912040Y-100748689D01*
X172838634Y-102732385D02*
X172608422Y-102063802D01*
X166383019Y-105703082D02*
G75*
G02*
X168388767Y-105012447I1348192J-657558D01*
G01*
X168805086Y-101877694D02*
G75*
G02*
X168136504Y-102107905I-449397J219187D01*
G01*
X77525349Y-65514056D02*
X82008225Y-65121855D01*
X77577642Y-66111773D02*
X77525349Y-65514056D01*
X77934980Y-70196171D02*
X77891403Y-69698074D01*
X82356848Y-69106634D02*
X82417857Y-69803970D01*
X82417857Y-69803970D02*
X77934980Y-70196171D01*
X82462744Y-64580180D02*
X82375588Y-63583985D01*
X82830108Y-63042310D02*
X82375588Y-63583985D01*
X85818692Y-62780843D02*
X82830108Y-63042310D01*
X86210893Y-67263719D02*
X83720407Y-67481608D01*
X86360367Y-63235362D02*
X85818692Y-62780843D01*
X86665412Y-66722044D02*
X86210893Y-67263719D01*
X82356848Y-69106634D02*
G75*
G02*
X83720407Y-67481608I1494294J130732D01*
G01*
X82462744Y-64580180D02*
G75*
G02*
X82008225Y-65121854I-498100J-43575D01*
G01*
X117402587Y-53512669D02*
X121902588Y-53512669D01*
X117402588Y-54112669D02*
X117402587Y-53512669D01*
X117402588Y-58212669D02*
X117402588Y-57712668D01*
X121902588Y-57512669D02*
X121902588Y-58212669D01*
X121902588Y-58212669D02*
X117402588Y-58212669D01*
X122402588Y-53012669D02*
X122402588Y-52012669D01*
X122902588Y-51512669D02*
X122402588Y-52012669D01*
X125902588Y-51512669D02*
X122902588Y-51512669D01*
X125902588Y-56012669D02*
X123402588Y-56012669D01*
X126402588Y-52012669D02*
X125902588Y-51512669D01*
X126402588Y-55512669D02*
X125902588Y-56012669D01*
X121902588Y-57512669D02*
G75*
G02*
X123402588Y-56012669I1500001J-1D01*
G01*
X122402588Y-53012669D02*
G75*
G02*
X121902588Y-53512669I-500001J1D01*
G01*
D12*
X107167631Y-82273882D02*
X103163126Y-82483749D01*
X107272303Y-84271141D02*
X103267798Y-84481008D01*
X107272303Y-84271141D02*
X107167631Y-82273882D01*
D10*
X79006993Y-82449367D02*
X83489869Y-82057166D01*
X79059286Y-83047084D02*
X79006993Y-82449367D01*
X79416624Y-87131482D02*
X79373047Y-86633385D01*
X83838492Y-86041945D02*
X83899501Y-86739281D01*
X83899501Y-86739281D02*
X79416624Y-87131482D01*
X83944388Y-81515491D02*
X83857232Y-80519296D01*
X84311752Y-79977621D02*
X83857232Y-80519296D01*
X87300336Y-79716154D02*
X84311752Y-79977621D01*
X87692537Y-84199030D02*
X85202051Y-84416919D01*
X87842011Y-80170673D02*
X87300336Y-79716154D01*
X88147056Y-83657355D02*
X87692537Y-84199030D01*
X83838492Y-86041945D02*
G75*
G02*
X85202051Y-84416919I1494294J130732D01*
G01*
X83944388Y-81515491D02*
G75*
G02*
X83489869Y-82057165I-498100J-43575D01*
G01*
D12*
X149071674Y-109478369D02*
X145062285Y-109408385D01*
X149071674Y-109478369D02*
X149106579Y-107478674D01*
X149106579Y-107478674D02*
X145097190Y-107408690D01*
X162621598Y-62069400D02*
X158611598Y-62069400D01*
X162621598Y-64069400D02*
X158611598Y-64069400D01*
X162621598Y-64069400D02*
X162621598Y-62069400D01*
D10*
X58112196Y-50147551D02*
X62595072Y-49755350D01*
X58164489Y-50745268D02*
X58112196Y-50147551D01*
X58521827Y-54829666D02*
X58478250Y-54331569D01*
X62943695Y-53740129D02*
X63004704Y-54437465D01*
X63004704Y-54437465D02*
X58521827Y-54829666D01*
X63049591Y-49213675D02*
X62962435Y-48217480D01*
X63416955Y-47675805D02*
X62962435Y-48217480D01*
X66405539Y-47414338D02*
X63416955Y-47675805D01*
X66797740Y-51897214D02*
X64307254Y-52115103D01*
X66947214Y-47868857D02*
X66405539Y-47414338D01*
X67252259Y-51355539D02*
X66797740Y-51897214D01*
X62943695Y-53740129D02*
G75*
G02*
X64307254Y-52115103I1494294J130732D01*
G01*
X63049591Y-49213675D02*
G75*
G02*
X62595072Y-49755349I-498100J-43575D01*
G01*
D12*
X134555598Y-62602800D02*
X130545598Y-62602800D01*
X134555598Y-64602800D02*
X130545598Y-64602800D01*
X134555598Y-64602800D02*
X134555598Y-62602800D01*
X182106538Y-127187552D02*
X178502374Y-125429684D01*
X182106538Y-127187552D02*
X182983280Y-125389964D01*
X182983280Y-125389964D02*
X179379116Y-123632096D01*
X184787997Y-76701200D02*
X189147998Y-76701200D01*
X184787998Y-74141200D02*
X184787998Y-80261200D01*
X184787998Y-80261200D02*
X192607998Y-80261200D01*
X187047998Y-74901200D02*
X187047998Y-75901200D01*
X187047998Y-75401199D02*
X184787998Y-75401200D01*
X187047998Y-75901200D02*
X184787999Y-75901200D01*
X187047998Y-75901200D02*
X188647998Y-75901201D01*
X187047998Y-78501200D02*
X188647999Y-78501200D01*
X187047998Y-79501200D02*
X187047998Y-78501200D01*
X188647997Y-74901200D02*
X187047998Y-74901200D01*
X188647998Y-75901201D02*
X188647997Y-74901200D01*
X188647998Y-79501200D02*
X187047998Y-79501200D01*
X188647999Y-78501200D02*
X188647998Y-79501200D01*
X189147998Y-76701200D02*
X189147998Y-77701200D01*
X189147998Y-77701200D02*
X184787998Y-77701201D01*
X191007998Y-74141200D02*
X191007998Y-75061200D01*
X191007998Y-75061200D02*
X192607998Y-75061200D01*
X191007998Y-75341200D02*
X191007998Y-75061200D01*
X191007998Y-75341200D02*
X192222998Y-75341200D01*
X191007998Y-79341200D02*
X191007998Y-79061200D01*
X191007998Y-80261200D02*
X191007998Y-79341200D01*
X192607998Y-74141200D02*
X184787998Y-74141200D01*
X192607998Y-75061200D02*
X192607998Y-74141200D01*
X192607998Y-79341200D02*
X191007998Y-79341200D01*
X192607998Y-80261200D02*
X192607998Y-79341200D01*
X193727998Y-75491200D02*
X193727998Y-76491200D01*
X193727998Y-77651200D02*
X193727998Y-78651200D01*
X194227998Y-75991200D02*
X193227998Y-75991200D01*
D10*
X158402583Y-71912668D02*
X158902591Y-71412669D01*
X158402591Y-75412669D02*
X158902591Y-75912670D01*
X158902591Y-71412669D02*
X161402591Y-71412669D01*
X158902591Y-75912670D02*
X161902591Y-75912668D01*
X161902591Y-75912668D02*
X162402590Y-75412669D01*
X162402591Y-74412669D02*
X162402590Y-75412669D01*
X162902591Y-69212669D02*
X167402591Y-69212669D01*
X162902591Y-69912669D02*
X162902591Y-69212669D01*
X167402591Y-69212669D02*
X167402591Y-69712669D01*
X167402591Y-73312669D02*
X167402591Y-73912669D01*
X167402591Y-73912669D02*
X162902591Y-73912669D01*
X162402591Y-74412669D02*
G75*
G02*
X162902591Y-73912669I500001J-1D01*
G01*
X162902591Y-69912669D02*
G75*
G02*
X161402591Y-71412669I-1500001J1D01*
G01*
X158402580Y-88912668D02*
X158902588Y-88412669D01*
X158402588Y-92412669D02*
X158902588Y-92912670D01*
X158902588Y-88412669D02*
X161402588Y-88412669D01*
X158902588Y-92912670D02*
X161902588Y-92912668D01*
X161902588Y-92912668D02*
X162402587Y-92412669D01*
X162402588Y-91412669D02*
X162402587Y-92412669D01*
X162902588Y-86212669D02*
X167402588Y-86212669D01*
X162902588Y-86912669D02*
X162902588Y-86212669D01*
X167402588Y-86212669D02*
X167402588Y-86712669D01*
X167402588Y-90312669D02*
X167402588Y-90912669D01*
X167402588Y-90912669D02*
X162902588Y-90912669D01*
X162402588Y-91412669D02*
G75*
G02*
X162902588Y-90912669I500001J-1D01*
G01*
X162902588Y-86912669D02*
G75*
G02*
X161402588Y-88412669I-1500001J1D01*
G01*
D12*
X176616198Y-75084600D02*
X176616198Y-78384600D01*
X176616198Y-78384600D02*
X176916198Y-78384600D01*
X176916198Y-75084600D02*
X176616198Y-75084600D01*
X179116198Y-75084600D02*
X179416198Y-75084600D01*
X179416198Y-75084600D02*
X179416198Y-78384600D01*
X179416198Y-78384600D02*
X179116198Y-78384600D01*
D10*
X153402589Y-44512668D02*
X157902589Y-44512668D01*
X153402589Y-45112668D02*
X153402589Y-44512668D01*
X153402589Y-49212668D02*
X153402589Y-48712668D01*
X157902589Y-48512668D02*
X157902589Y-49212668D01*
X157902589Y-49212668D02*
X153402589Y-49212668D01*
X158402589Y-44012668D02*
X158402590Y-43012668D01*
X158902589Y-42512669D02*
X158402590Y-43012668D01*
X161902589Y-42512667D02*
X158902589Y-42512669D01*
X161902589Y-47012668D02*
X159402589Y-47012668D01*
X162402589Y-43012668D02*
X161902589Y-42512667D01*
X162402597Y-46512669D02*
X161902589Y-47012668D01*
X157902589Y-48512668D02*
G75*
G02*
X159402589Y-47012668I1500001J-1D01*
G01*
X158402589Y-44012668D02*
G75*
G02*
X157902589Y-44512668I-500001J1D01*
G01*
X135402588Y-40112668D02*
X135402589Y-39512668D01*
X135402589Y-39512668D02*
X139902588Y-39512668D01*
X135402589Y-44212668D02*
X135402589Y-43712668D01*
X139902589Y-43512668D02*
X139902590Y-44212668D01*
X139902590Y-44212668D02*
X135402589Y-44212668D01*
X140402589Y-39012668D02*
X140402589Y-38012668D01*
X140902589Y-37512668D02*
X140402589Y-38012668D01*
X143902589Y-37512668D02*
X140902589Y-37512668D01*
X143902590Y-42012668D02*
X141402589Y-42012668D01*
X144402589Y-38012668D02*
X143902589Y-37512668D01*
X144402589Y-41512668D02*
X143902590Y-42012668D01*
X139902589Y-43512668D02*
G75*
G02*
X141402589Y-42012668I1500001J-1D01*
G01*
X140402589Y-39012668D02*
G75*
G02*
X139902588Y-39512668I-500003J3D01*
G01*
D12*
X144700197Y-49364250D02*
X140690197Y-49364250D01*
X144700197Y-51364250D02*
X140690197Y-51364250D01*
X144700197Y-51364250D02*
X144700197Y-49364250D01*
D13*
X146173774Y-82221800D02*
G75*
G02*
X145770222Y-82221800I-201776J0D01*
G01*
X145770222Y-82221800D02*
G75*
G02*
X146173774Y-82221800I201776J0D01*
G01*
D12*
X68233045Y-59151306D02*
X64238304Y-59500800D01*
X68407356Y-61143695D02*
X64412613Y-61493190D01*
X68407356Y-61143695D02*
X68233045Y-59151306D01*
X106277919Y-65297180D02*
X102273414Y-65507047D01*
X106382591Y-67294439D02*
X102378086Y-67504306D01*
X106382591Y-67294439D02*
X106277919Y-65297180D01*
X126700199Y-46364251D02*
X122690199Y-46364251D01*
X126700199Y-48364251D02*
X122690199Y-48364251D01*
X126700199Y-48364251D02*
X126700199Y-46364251D01*
D10*
X139873045Y-96787550D02*
X140873045Y-96787550D01*
X139873045Y-97787550D02*
X139873045Y-96787550D01*
X139873045Y-110787550D02*
X139873045Y-109787550D01*
X140873045Y-110787550D02*
X139873045Y-110787550D01*
X152873045Y-96787550D02*
X153873045Y-96787550D01*
X153873045Y-96787550D02*
X153873045Y-97787550D01*
X153873045Y-109787550D02*
X153873045Y-110787550D01*
X153873045Y-110787550D02*
X152873045Y-110787550D01*
D12*
X105388210Y-48320476D02*
X101383705Y-48530343D01*
X105492882Y-50317735D02*
X101488377Y-50527602D01*
X105492882Y-50317735D02*
X105388210Y-48320476D01*
X89127846Y-91453122D02*
X85133105Y-91802616D01*
X89302157Y-93445511D02*
X85307414Y-93795006D01*
X89302157Y-93445511D02*
X89127846Y-91453122D01*
D13*
X109268974Y-87404600D02*
G75*
G02*
X108865422Y-87404600I-201776J0D01*
G01*
X108865422Y-87404600D02*
G75*
G02*
X109268974Y-87404600I201776J0D01*
G01*
D12*
X194854198Y-84523000D02*
X190844198Y-84523000D01*
X194854198Y-86523000D02*
X190844198Y-86523000D01*
X194854198Y-86523000D02*
X194854198Y-84523000D01*
%LPC*%
D14*
X178663786Y-42304555D02*
X177647786Y-42304555D01*
X177647786Y-41288555D01*
X178663786Y-41288555D01*
X178663786Y-42304555D01*
G36*
X178663786Y-42304555D02*
G01*
X177647786Y-42304555D01*
X177647786Y-41288555D01*
X178663786Y-41288555D01*
X178663786Y-42304555D01*
G37*
X178663786Y-44844555D02*
X177647786Y-44844555D01*
X177647786Y-43828555D01*
X178663786Y-43828555D01*
X178663786Y-44844555D01*
G36*
X178663786Y-44844555D02*
G01*
X177647786Y-44844555D01*
X177647786Y-43828555D01*
X178663786Y-43828555D01*
X178663786Y-44844555D01*
G37*
X178663786Y-47384555D02*
X177647786Y-47384555D01*
X177647786Y-46368555D01*
X178663786Y-46368555D01*
X178663786Y-47384555D01*
G36*
X178663786Y-47384555D02*
G01*
X177647786Y-47384555D01*
X177647786Y-46368555D01*
X178663786Y-46368555D01*
X178663786Y-47384555D01*
G37*
X178663786Y-49924555D02*
X177647786Y-49924555D01*
X177647786Y-48908555D01*
X178663786Y-48908555D01*
X178663786Y-49924555D01*
G36*
X178663786Y-49924555D02*
G01*
X177647786Y-49924555D01*
X177647786Y-48908555D01*
X178663786Y-48908555D01*
X178663786Y-49924555D01*
G37*
X178663786Y-52464555D02*
X177647786Y-52464555D01*
X177647786Y-51448555D01*
X178663786Y-51448555D01*
X178663786Y-52464555D01*
G36*
X178663786Y-52464555D02*
G01*
X177647786Y-52464555D01*
X177647786Y-51448555D01*
X178663786Y-51448555D01*
X178663786Y-52464555D01*
G37*
X178663786Y-55004554D02*
X177647786Y-55004555D01*
X177647786Y-53988555D01*
X178663786Y-53988555D01*
X178663786Y-55004554D01*
G36*
X178663786Y-55004554D02*
G01*
X177647786Y-55004555D01*
X177647786Y-53988555D01*
X178663786Y-53988555D01*
X178663786Y-55004554D01*
G37*
X178663786Y-57544555D02*
X177647786Y-57544555D01*
X177647786Y-56528555D01*
X178663786Y-56528555D01*
X178663786Y-57544555D01*
G36*
X178663786Y-57544555D02*
G01*
X177647786Y-57544555D01*
X177647786Y-56528555D01*
X178663786Y-56528555D01*
X178663786Y-57544555D01*
G37*
X178663786Y-60084555D02*
X177647786Y-60084555D01*
X177647786Y-59068555D01*
X178663786Y-59068555D01*
X178663786Y-60084555D01*
G36*
X178663786Y-60084555D02*
G01*
X177647786Y-60084555D01*
X177647786Y-59068555D01*
X178663786Y-59068555D01*
X178663786Y-60084555D01*
G37*
X178663786Y-62624555D02*
X177647786Y-62624555D01*
X177647786Y-61608555D01*
X178663786Y-61608555D01*
X178663786Y-62624555D01*
G36*
X178663786Y-62624555D02*
G01*
X177647786Y-62624555D01*
X177647786Y-61608555D01*
X178663786Y-61608555D01*
X178663786Y-62624555D01*
G37*
X178663786Y-65164555D02*
X177647786Y-65164555D01*
X177647786Y-64148555D01*
X178663786Y-64148555D01*
X178663786Y-65164555D01*
G36*
X178663786Y-65164555D02*
G01*
X177647786Y-65164555D01*
X177647786Y-64148555D01*
X178663786Y-64148555D01*
X178663786Y-65164555D01*
G37*
X178663786Y-67704555D02*
X177647786Y-67704555D01*
X177647786Y-66688555D01*
X178663786Y-66688555D01*
X178663786Y-67704555D01*
G36*
X178663786Y-67704555D02*
G01*
X177647786Y-67704555D01*
X177647786Y-66688555D01*
X178663786Y-66688555D01*
X178663786Y-67704555D01*
G37*
X178663786Y-70244555D02*
X177647786Y-70244555D01*
X177647786Y-69228555D01*
X178663786Y-69228555D01*
X178663786Y-70244555D01*
G36*
X178663786Y-70244555D02*
G01*
X177647786Y-70244555D01*
X177647786Y-69228555D01*
X178663786Y-69228555D01*
X178663786Y-70244555D01*
G37*
X189839786Y-42304555D02*
X188823786Y-42304555D01*
X188823786Y-41288555D01*
X189839786Y-41288555D01*
X189839786Y-42304555D01*
G36*
X189839786Y-42304555D02*
G01*
X188823786Y-42304555D01*
X188823786Y-41288555D01*
X189839786Y-41288555D01*
X189839786Y-42304555D01*
G37*
X189839786Y-44844555D02*
X188823786Y-44844555D01*
X188823786Y-43828555D01*
X189839786Y-43828555D01*
X189839786Y-44844555D01*
G36*
X189839786Y-44844555D02*
G01*
X188823786Y-44844555D01*
X188823786Y-43828555D01*
X189839786Y-43828555D01*
X189839786Y-44844555D01*
G37*
X189839786Y-47384555D02*
X188823786Y-47384555D01*
X188823786Y-46368555D01*
X189839786Y-46368555D01*
X189839786Y-47384555D01*
G36*
X189839786Y-47384555D02*
G01*
X188823786Y-47384555D01*
X188823786Y-46368555D01*
X189839786Y-46368555D01*
X189839786Y-47384555D01*
G37*
X189839786Y-49924555D02*
X188823786Y-49924555D01*
X188823786Y-48908555D01*
X189839786Y-48908555D01*
X189839786Y-49924555D01*
G36*
X189839786Y-49924555D02*
G01*
X188823786Y-49924555D01*
X188823786Y-48908555D01*
X189839786Y-48908555D01*
X189839786Y-49924555D01*
G37*
X189839786Y-52464555D02*
X188823786Y-52464555D01*
X188823786Y-51448555D01*
X189839786Y-51448555D01*
X189839786Y-52464555D01*
G36*
X189839786Y-52464555D02*
G01*
X188823786Y-52464555D01*
X188823786Y-51448555D01*
X189839786Y-51448555D01*
X189839786Y-52464555D01*
G37*
X189839786Y-55004555D02*
X188823786Y-55004555D01*
X188823786Y-53988555D01*
X189839786Y-53988555D01*
X189839786Y-55004555D01*
G36*
X189839786Y-55004555D02*
G01*
X188823786Y-55004555D01*
X188823786Y-53988555D01*
X189839786Y-53988555D01*
X189839786Y-55004555D01*
G37*
X189839786Y-57544555D02*
X188823786Y-57544555D01*
X188823786Y-56528556D01*
X189839786Y-56528555D01*
X189839786Y-57544555D01*
G36*
X189839786Y-57544555D02*
G01*
X188823786Y-57544555D01*
X188823786Y-56528556D01*
X189839786Y-56528555D01*
X189839786Y-57544555D01*
G37*
X189839786Y-60084555D02*
X188823786Y-60084555D01*
X188823786Y-59068555D01*
X189839786Y-59068555D01*
X189839786Y-60084555D01*
G36*
X189839786Y-60084555D02*
G01*
X188823786Y-60084555D01*
X188823786Y-59068555D01*
X189839786Y-59068555D01*
X189839786Y-60084555D01*
G37*
X189839786Y-62624555D02*
X188823786Y-62624555D01*
X188823786Y-61608555D01*
X189839786Y-61608555D01*
X189839786Y-62624555D01*
G36*
X189839786Y-62624555D02*
G01*
X188823786Y-62624555D01*
X188823786Y-61608555D01*
X189839786Y-61608555D01*
X189839786Y-62624555D01*
G37*
X189839786Y-65164555D02*
X188823786Y-65164555D01*
X188823786Y-64148555D01*
X189839786Y-64148555D01*
X189839786Y-65164555D01*
G36*
X189839786Y-65164555D02*
G01*
X188823786Y-65164555D01*
X188823786Y-64148555D01*
X189839786Y-64148555D01*
X189839786Y-65164555D01*
G37*
X189839786Y-67704555D02*
X188823786Y-67704555D01*
X188823786Y-66688555D01*
X189839786Y-66688555D01*
X189839786Y-67704555D01*
G36*
X189839786Y-67704555D02*
G01*
X188823786Y-67704555D01*
X188823786Y-66688555D01*
X189839786Y-66688555D01*
X189839786Y-67704555D01*
G37*
X189839786Y-70244555D02*
X188823786Y-70244555D01*
X188823786Y-69228555D01*
X189839786Y-69228555D01*
X189839786Y-70244555D01*
G36*
X189839786Y-70244555D02*
G01*
X188823786Y-70244555D01*
X188823786Y-69228555D01*
X189839786Y-69228555D01*
X189839786Y-70244555D01*
G37*
D15*
X143990195Y-84364247D03*
X140690195Y-84364247D03*
D16*
X136902587Y-79712665D03*
X136902587Y-79712665D03*
D17*
X137402586Y-75962665D03*
X142402587Y-73762665D03*
D18*
X142402587Y-79712665D03*
X142402587Y-79712665D03*
X142402587Y-79712665D03*
D17*
X147402587Y-75962665D03*
D16*
X147902587Y-79712665D03*
X147902587Y-79712665D03*
D19*
X145677587Y-73762665D03*
X134127587Y-75962665D03*
D15*
X125990201Y-81364252D03*
X122690201Y-81364252D03*
D16*
X147902585Y-62712667D03*
X147902585Y-62712667D03*
D17*
X147402586Y-66462667D03*
X142402585Y-68662667D03*
D18*
X142402585Y-62712667D03*
X142402585Y-62712667D03*
X142402585Y-62712667D03*
D17*
X137402585Y-66462667D03*
D16*
X136902585Y-62712667D03*
X136902585Y-62712667D03*
D19*
X139127585Y-68662667D03*
X150677585Y-66462667D03*
D16*
X181432463Y-121610040D03*
X181432463Y-121610040D03*
D17*
X178281171Y-119516752D03*
X178495680Y-114058365D03*
D18*
X183843504Y-116666673D03*
X183843504Y-116666673D03*
X183843504Y-116666673D03*
D17*
X182664882Y-110528811D03*
D16*
X186254546Y-111723306D03*
X186254546Y-111723306D03*
D20*
X179931345Y-111114814D03*
X176845506Y-122460302D03*
D21*
X85544408Y-58640577D03*
X82256966Y-58928191D03*
D22*
X167053401Y-113653133D03*
X164087381Y-112206509D03*
D16*
X98299887Y-62058696D03*
X98299887Y-62058696D03*
D17*
X98602941Y-58287667D03*
X103480950Y-55829002D03*
D18*
X103792349Y-61770848D03*
X103792349Y-61770848D03*
X103792349Y-61770848D03*
D17*
X108589237Y-57764307D03*
D16*
X109284811Y-61483000D03*
X109284811Y-61483000D03*
D23*
X106751462Y-55657602D03*
X95332430Y-58459067D03*
D24*
X177170998Y-88712600D03*
D25*
X177170998Y-93712600D03*
X177170998Y-91212601D03*
D26*
X184670997Y-96812600D03*
X184670999Y-85612600D03*
D25*
X191670998Y-93712600D03*
X191670998Y-88712600D03*
D16*
X63110147Y-90063842D03*
X63110147Y-90063842D03*
D17*
X63281407Y-86284535D03*
X68070642Y-83657127D03*
D18*
X68589219Y-89584486D03*
X68589219Y-89584486D03*
X68589219Y-89584486D03*
D17*
X73243358Y-85412977D03*
D16*
X74068290Y-89105129D03*
X74068290Y-89105129D03*
D27*
X71333180Y-83371692D03*
X60018874Y-86569970D03*
D21*
X70576199Y-94080000D03*
X67288757Y-94367614D03*
D16*
X97410177Y-45081993D03*
X97410177Y-45081993D03*
D17*
X97713231Y-41310964D03*
X102591240Y-38852299D03*
D18*
X102902639Y-44794145D03*
X102902639Y-44794145D03*
X102902639Y-44794145D03*
D17*
X107699527Y-40787604D03*
D16*
X108395101Y-44506297D03*
X108395101Y-44506297D03*
D23*
X105861752Y-38680899D03*
X94442720Y-41482364D03*
D28*
X113677886Y-45009657D03*
D15*
X168515598Y-55373200D03*
X165215598Y-55373200D03*
D21*
X87026055Y-75575887D03*
X83738613Y-75863501D03*
D28*
X193179998Y-102337800D03*
D16*
X61628498Y-73128534D03*
X61628498Y-73128534D03*
D17*
X61799758Y-69349227D03*
X66588993Y-66721819D03*
D18*
X67107570Y-72649178D03*
X67107570Y-72649178D03*
X67107570Y-72649178D03*
D17*
X71761709Y-68477669D03*
D16*
X72586641Y-72169821D03*
X72586641Y-72169821D03*
D27*
X69851531Y-66436384D03*
X58537225Y-69634662D03*
D29*
X191363786Y-41796555D03*
D30*
X189585786Y-41796555D03*
D31*
X177901786Y-41796555D03*
D29*
X176123786Y-41796555D03*
D32*
X176123786Y-41796555D03*
D29*
X191363786Y-44336555D03*
D30*
X189585786Y-44336555D03*
D31*
X177901786Y-44336555D03*
D29*
X176123786Y-44336555D03*
X191363786Y-46876555D03*
D30*
X189585786Y-46876555D03*
D31*
X177901786Y-46876555D03*
D29*
X176123786Y-46876555D03*
X191363786Y-49416555D03*
D30*
X189585786Y-49416555D03*
D31*
X177901786Y-49416555D03*
D29*
X176123786Y-49416555D03*
D30*
X189585786Y-51956555D03*
D31*
X177901786Y-51956555D03*
D29*
X176123786Y-51956555D03*
X191363786Y-51956556D03*
X191363786Y-54496554D03*
D30*
X189585786Y-54496555D03*
D31*
X177901786Y-54496555D03*
D29*
X176123786Y-54496555D03*
X191363786Y-57036555D03*
D30*
X189585786Y-57036555D03*
D31*
X177901786Y-57036555D03*
D29*
X176123786Y-57036556D03*
X176123786Y-59576554D03*
X191363786Y-59576555D03*
D30*
X189585786Y-59576555D03*
D31*
X177901786Y-59576555D03*
D29*
X191363786Y-62116555D03*
D30*
X189585786Y-62116555D03*
D31*
X177901786Y-62116555D03*
D29*
X176123786Y-62116555D03*
X191363786Y-64656555D03*
D30*
X189585786Y-64656555D03*
D31*
X177901786Y-64656555D03*
D29*
X176123786Y-64656555D03*
X191363786Y-67196555D03*
D30*
X189585786Y-67196555D03*
D31*
X177901786Y-67196555D03*
D29*
X176123786Y-67196555D03*
X191363786Y-69736555D03*
D30*
X189585786Y-69736555D03*
D31*
X177901786Y-69736555D03*
D29*
X176123786Y-69736555D03*
D33*
X188569786Y-41796555D03*
X188569786Y-44336555D03*
X188569786Y-46876555D03*
X188569786Y-49416555D03*
X188569786Y-51956555D03*
X188569786Y-54496555D03*
X188569786Y-57036555D03*
X188569786Y-59576555D03*
X188569786Y-62116555D03*
X188569786Y-64656555D03*
X188569786Y-67196555D03*
X188569786Y-69736555D03*
D34*
X178917786Y-69736555D03*
X178917786Y-67196555D03*
X178917786Y-64656555D03*
X178917786Y-62116555D03*
X178917786Y-59576555D03*
X178917786Y-57036555D03*
X178917786Y-54496555D03*
X178917786Y-51956555D03*
X178917786Y-49416555D03*
X178917786Y-46876555D03*
X178917786Y-44336555D03*
X178917786Y-41796555D03*
D35*
X101417198Y-90154600D03*
X101417198Y-91154600D03*
X101417198Y-92154600D03*
X101417198Y-96154600D03*
X101417198Y-97154600D03*
D24*
X144373045Y-111287550D03*
D25*
X149373045Y-111287550D03*
X146873046Y-111287550D03*
D36*
X152473045Y-103787551D03*
X141273045Y-103787549D03*
D25*
X149373045Y-96787550D03*
X144373045Y-96787550D03*
D37*
X180306799Y-37948800D03*
D38*
X187506799Y-37948801D03*
D39*
X185356799Y-39091801D03*
X182456799Y-39091801D03*
D37*
X187506799Y-40234801D03*
D38*
X180306799Y-40234801D03*
D40*
X186106800Y-40941801D03*
X183206799Y-40941801D03*
X181706799Y-40941801D03*
D16*
X118902592Y-76712666D03*
X118902592Y-76712666D03*
D17*
X119402592Y-72962666D03*
X124402592Y-70762666D03*
D18*
X124402592Y-76712666D03*
X124402592Y-76712666D03*
X124402592Y-76712666D03*
D17*
X129402592Y-72962666D03*
D16*
X129902592Y-76712666D03*
X129902592Y-76712666D03*
D19*
X127677592Y-70762666D03*
X116127592Y-72962666D03*
D28*
X76847998Y-80316000D03*
D16*
X99189602Y-79035398D03*
X99189602Y-79035398D03*
D17*
X99492656Y-75264369D03*
X104370665Y-72805704D03*
D18*
X104682064Y-78747550D03*
X104682064Y-78747550D03*
X104682064Y-78747550D03*
D17*
X109478952Y-74741009D03*
D16*
X110174526Y-78459702D03*
X110174526Y-78459702D03*
D23*
X107641177Y-72634304D03*
X96222145Y-75435769D03*
D16*
X78078354Y-54624419D03*
X78078354Y-54624419D03*
D17*
X78249614Y-50845112D03*
X83038849Y-48217704D03*
D18*
X83557426Y-54145063D03*
X83557426Y-54145063D03*
X83557426Y-54145063D03*
D17*
X88211565Y-49973554D03*
D16*
X89036497Y-53665706D03*
X89036497Y-53665706D03*
D27*
X86301387Y-47932269D03*
X74987081Y-51130547D03*
D28*
X134099598Y-108764000D03*
D15*
X125990200Y-64364252D03*
X122690200Y-64364252D03*
D16*
X118902589Y-42712668D03*
X118902589Y-42712668D03*
D17*
X119402589Y-38962668D03*
X124402589Y-36762668D03*
D18*
X124402589Y-42712668D03*
X124402589Y-42712668D03*
X124402589Y-42712668D03*
D17*
X129402589Y-38962668D03*
D16*
X129902589Y-42712668D03*
X129902589Y-42712668D03*
D19*
X127677589Y-36762668D03*
X116127589Y-38962668D03*
D21*
X69094551Y-77144691D03*
X65807109Y-77432305D03*
D15*
X161962398Y-79935000D03*
X158662398Y-79935000D03*
D16*
X162722221Y-106365315D03*
X162722221Y-106365315D03*
D17*
X164815509Y-103214023D03*
X170273896Y-103428532D03*
D18*
X167665588Y-108776356D03*
X167665588Y-108776356D03*
X167665588Y-108776356D03*
D17*
X173803450Y-107597734D03*
D16*
X172608955Y-111187398D03*
X172608955Y-111187398D03*
D41*
X173217447Y-104864197D03*
X161871959Y-101778358D03*
D16*
X79560005Y-71559729D03*
X79560005Y-71559729D03*
D17*
X79731265Y-67780422D03*
X84520500Y-65153014D03*
D18*
X85039077Y-71080373D03*
X85039077Y-71080373D03*
X85039077Y-71080373D03*
D17*
X89693216Y-66908864D03*
D16*
X90518148Y-70601016D03*
X90518148Y-70601016D03*
D27*
X87783038Y-64867579D03*
X76468732Y-68065857D03*
D16*
X118902588Y-59712669D03*
X118902588Y-59712669D03*
D17*
X119402588Y-55962669D03*
X124402588Y-53762669D03*
D18*
X124402588Y-59712669D03*
X124402588Y-59712669D03*
X124402588Y-59712669D03*
D17*
X129402588Y-55962669D03*
D16*
X129902588Y-59712669D03*
X129902588Y-59712669D03*
D19*
X127677588Y-53762669D03*
X116127588Y-55962669D03*
D42*
X106510940Y-83309670D03*
X103215462Y-83482378D03*
D16*
X81041649Y-88495040D03*
X81041649Y-88495040D03*
D17*
X81212909Y-84715733D03*
X86002144Y-82088325D03*
D18*
X86520721Y-88015684D03*
X86520721Y-88015684D03*
X86520721Y-88015684D03*
D17*
X91174860Y-83844175D03*
D16*
X91999792Y-87536327D03*
X91999792Y-87536327D03*
D27*
X89264682Y-81802890D03*
X77950376Y-85001168D03*
D43*
X148379235Y-108466130D03*
X145079737Y-108408538D03*
D15*
X161911598Y-63069400D03*
X158611598Y-63069400D03*
D16*
X60146852Y-56193224D03*
X60146852Y-56193224D03*
D17*
X60318112Y-52413917D03*
X65107347Y-49786509D03*
D18*
X65625924Y-55713868D03*
X65625924Y-55713868D03*
X65625924Y-55713868D03*
D17*
X70280063Y-51542359D03*
D16*
X71104995Y-55234511D03*
X71104995Y-55234511D03*
D27*
X68369885Y-49501074D03*
X57055579Y-52699352D03*
D15*
X133845598Y-63602800D03*
X130545598Y-63602800D03*
D22*
X181906765Y-125977514D03*
X178940745Y-124530890D03*
D44*
X191147998Y-76201200D03*
D45*
X191147998Y-78201200D03*
D16*
X165902591Y-67712668D03*
X165902591Y-67712668D03*
D17*
X165402591Y-71462669D03*
X160402591Y-73662669D03*
D18*
X160402591Y-67712669D03*
X160402591Y-67712669D03*
X160402591Y-67712669D03*
D17*
X155402591Y-71462669D03*
D16*
X154902591Y-67712669D03*
X154902591Y-67712669D03*
D19*
X157127591Y-73662669D03*
X168677591Y-71462669D03*
D16*
X165902588Y-84712668D03*
X165902588Y-84712668D03*
D17*
X165402588Y-88462669D03*
X160402588Y-90662669D03*
D18*
X160402588Y-84712669D03*
X160402588Y-84712669D03*
X160402588Y-84712669D03*
D17*
X155402588Y-88462669D03*
D16*
X154902588Y-84712669D03*
X154902588Y-84712669D03*
D19*
X157127588Y-90662669D03*
X168677588Y-88462669D03*
D46*
X178016198Y-75034600D03*
X178016198Y-78434600D03*
D47*
X141871598Y-56744800D03*
D48*
X151371598Y-56744800D03*
D47*
X160871598Y-56744800D03*
D16*
X154902589Y-50712669D03*
X154902589Y-50712669D03*
D17*
X155402589Y-46962668D03*
X160402589Y-44762668D03*
D18*
X160402589Y-50712668D03*
X160402589Y-50712668D03*
X160402589Y-50712668D03*
D17*
X165402589Y-46962668D03*
D16*
X165902589Y-50712668D03*
X165902589Y-50712668D03*
D19*
X163677589Y-44762668D03*
X152127589Y-46962668D03*
D16*
X136902589Y-45712668D03*
X136902589Y-45712668D03*
D17*
X137402588Y-41962668D03*
X142402589Y-39762668D03*
D18*
X142402589Y-45712668D03*
X142402589Y-45712668D03*
X142402589Y-45712668D03*
D17*
X147402589Y-41962668D03*
D16*
X147902589Y-45712668D03*
X147902589Y-45712668D03*
D19*
X145677589Y-39762668D03*
X134127589Y-41962668D03*
D15*
X143990197Y-50364250D03*
X140690197Y-50364250D03*
D28*
X196888398Y-41174600D03*
D49*
X147721998Y-82221800D03*
X150171998Y-82221800D03*
X152621998Y-82221800D03*
X155071998Y-82221800D03*
D21*
X67612902Y-60209381D03*
X64325460Y-60496995D03*
D42*
X105621228Y-66332968D03*
X102325750Y-66505676D03*
D15*
X125990199Y-47364251D03*
X122690199Y-47364251D03*
D16*
X152373045Y-103787550D03*
D50*
X152093045Y-107987550D03*
D18*
X146873045Y-103787550D03*
D50*
X141653045Y-107987550D03*
D16*
X141373045Y-103787550D03*
D51*
X146873045Y-97887550D03*
X151873045Y-99987550D03*
X141873045Y-99987550D03*
D42*
X104731519Y-49356264D03*
X101436041Y-49528972D03*
D21*
X88507703Y-92511197D03*
X85220261Y-92798811D03*
D52*
X110817198Y-87404600D03*
X113267198Y-87404600D03*
X115717198Y-87404600D03*
X118167198Y-87404600D03*
D39*
X185359399Y-39088200D03*
X182459399Y-39088200D03*
D15*
X194144198Y-85523000D03*
X190844198Y-85523000D03*
%LPD*%
M02*
