M48
; DRILL file {KiCad 8.0.4} date 2024-09-08T01:48:41+0200
; FORMAT={-:-/ absolute / metric / decimal}
; #@! TF.CreationDate,2024-09-08T01:48:41+02:00
; #@! TF.GenerationSoftware,Kicad,Pcbnew,8.0.4
; #@! TF.FileFunction,Plated,1,2,PTH
FMAT,2
METRIC
; #@! TA.AperFunction,Plated,PTH,ViaDrill
T1C0.300
; #@! TA.AperFunction,Plated,PTH,ComponentDrill
T2C0.300
; #@! TA.AperFunction,Plated,PTH,ComponentDrill
T3C0.750
; #@! TA.AperFunction,Plated,PTH,ComponentDrill
T4C0.813
; #@! TA.AperFunction,Plated,PTH,ComponentDrill
T5C1.000
; #@! TA.AperFunction,Plated,PTH,ComponentDrill
T6C1.500
%
G90
G05
T1
X62.779Y-48.259
X62.878Y-54.047
X64.261Y-65.194
X64.359Y-70.982
X65.742Y-82.13
X65.841Y-87.918
X72.41Y-53.128
X73.891Y-70.063
X75.373Y-86.999
X80.711Y-46.69
X80.809Y-52.478
X82.192Y-63.626
X82.291Y-69.414
X83.674Y-80.561
X83.772Y-86.349
X90.341Y-51.559
X91.823Y-68.494
X93.304Y-85.43
X100.214Y-43.032
X100.318Y-37.245
X101.104Y-60.009
X101.207Y-54.221
X101.994Y-76.986
X102.097Y-71.198
X107.632Y-47.439
X109.772Y-42.447
X110.662Y-59.423
X111.552Y-76.4
X121.273Y-85.193
X121.81Y-74.813
X121.81Y-57.813
X121.81Y-40.813
X122.216Y-52.038
X122.216Y-69.038
X122.216Y-35.038
X131.386Y-74.728
X131.386Y-40.728
X131.386Y-57.728
X137.07Y-88.942
X139.994Y-77.768
X140.29Y-60.77
X140.501Y-72.001
X140.587Y-43.773
X140.797Y-55.004
X141.094Y-38.006
X144.314Y-101.843
X144.821Y-96.076
X146.138Y-93.844
X149.569Y-77.85
X149.866Y-60.853
X150.163Y-43.855
X152.564Y-51.299
X153.89Y-101.925
X158.178Y-83.037
X158.771Y-66.047
X158.786Y-77.28
X159.364Y-49.057
X159.379Y-60.29
X159.972Y-43.301
X165.994Y-105.804
X167.751Y-83.286
X168.344Y-66.296
X168.891Y-100.792
X168.937Y-49.307
X170.903Y-86.301
X171.36Y-57.091
X174.496Y-53.363
X174.638Y-109.925
X175.814Y-115.14
X179.629Y-63.945
X179.629Y-66.511
X179.654Y-44.311
X179.667Y-74.628
X179.68Y-53.642
X179.68Y-59.526
X179.68Y-49.417
X179.68Y-51.957
X179.68Y-57.011
X179.754Y-54.497
X179.756Y-46.242
X180.186Y-101.546
X180.682Y-62.117
X181.227Y-64.657
X181.521Y-74.626
X181.61Y-42.533
X181.724Y-46.877
X183.858Y-40.133
X184.52Y-75.175
X184.88Y-109.778
X186.956Y-48.226
X187.681Y-62.117
X187.706Y-64.657
X187.729Y-52.601
X187.732Y-69.737
X187.732Y-49.417
X187.757Y-67.197
X187.782Y-44.311
X187.833Y-42.533
X187.833Y-46.877
X187.856Y-54.506
X188.57Y-47.994
T2
X64.325Y-60.497
X65.807Y-77.432
X67.289Y-94.368
X67.613Y-60.209
X69.095Y-77.145
X70.576Y-94.08
X82.257Y-58.928
X83.739Y-75.864
X85.22Y-92.799
X85.544Y-58.641
X87.026Y-75.576
X88.508Y-92.511
X101.436Y-49.529
X102.326Y-66.506
X103.215Y-83.482
X104.732Y-49.356
X105.621Y-66.333
X106.511Y-83.31
X122.69Y-47.364
X122.69Y-64.364
X122.69Y-81.364
X125.99Y-47.364
X125.99Y-64.364
X125.99Y-81.364
X140.759Y-84.334
X141.056Y-67.336
X141.353Y-50.339
X144.059Y-84.391
X144.355Y-67.394
X144.652Y-50.396
X145.08Y-108.409
X148.379Y-108.466
X158.829Y-89.615
X159.422Y-72.625
X160.015Y-55.636
X162.127Y-89.73
X162.72Y-72.741
X163.313Y-55.751
X164.087Y-112.207
X167.053Y-113.653
X178.941Y-124.531
X181.907Y-125.978
X186.975Y-83.884
X190.275Y-83.884
T3
X190.665Y-75.198
X190.665Y-77.198
T4
X176.124Y-41.797
X176.124Y-44.337
X176.124Y-46.877
X176.124Y-49.417
X176.124Y-51.957
X176.124Y-54.497
X176.124Y-57.037
X176.124Y-59.577
X176.124Y-62.117
X176.124Y-64.657
X176.124Y-67.197
X176.124Y-69.737
X191.364Y-41.797
X191.364Y-44.337
X191.364Y-46.877
X191.364Y-49.417
X191.364Y-51.957
X191.364Y-54.497
X191.364Y-57.037
X191.364Y-59.577
X191.364Y-62.117
X191.364Y-64.657
X191.364Y-67.197
X191.364Y-69.737
T5
X175.837Y-86.541
X175.837Y-89.041
X175.837Y-91.541
X190.337Y-86.541
X190.337Y-91.541
T6
X182.687Y-94.641G85X183.987Y-94.641
G05
X182.687Y-83.441G85X183.987Y-83.441
G05
M30
