G04 #@! TF.GenerationSoftware,KiCad,Pcbnew,8.0.5*
G04 #@! TF.CreationDate,2024-10-04T22:09:34+02:00*
G04 #@! TF.ProjectId,hookah,686f6f6b-6168-42e6-9b69-6361645f7063,1*
G04 #@! TF.SameCoordinates,Original*
G04 #@! TF.FileFunction,Profile,NP*
%FSLAX46Y46*%
G04 Gerber Fmt 4.6, Leading zero omitted, Abs format (unit mm)*
G04 Created by KiCad (PCBNEW 8.0.5) date 2024-10-04 22:09:34*
%MOMM*%
%LPD*%
G01*
G04 APERTURE LIST*
G04 #@! TA.AperFunction,Profile*
%ADD10C,0.150000*%
G04 #@! TD*
G04 APERTURE END LIST*
D10*
X90821971Y-42600451D02*
X90821970Y-33042954D01*
X168612503Y-125903418D02*
G75*
G02*
X168153869Y-124567170I440197J897918D01*
G01*
X169309667Y-119877581D02*
X155736946Y-113537382D01*
X155343305Y-113443843D02*
G75*
G02*
X155736943Y-113537389I-29605J-999557D01*
G01*
X134407586Y-32042955D02*
G75*
G02*
X135407645Y-33042955I14J-1000045D01*
G01*
X200154308Y-38529357D02*
X200154308Y-107143914D01*
X55763511Y-99773080D02*
G75*
G02*
X53588983Y-97780715I-174611J1992280D01*
G01*
X154051186Y-36395755D02*
X154051186Y-36529358D01*
X135217198Y-90404600D02*
X135217198Y-103404600D01*
X90821971Y-42600451D02*
G75*
G02*
X89909120Y-43596560I-1000071J151D01*
G01*
X54497915Y-46694727D02*
X89909127Y-43596646D01*
X200053102Y-107582285D02*
X187214274Y-133905782D01*
X169309667Y-119877581D02*
G75*
G02*
X169785228Y-121221931I-423267J-906019D01*
G01*
X55763511Y-99773080D02*
X98345580Y-96041630D01*
X136407586Y-35395755D02*
X153051186Y-35395756D01*
X53588921Y-97780715D02*
X53588921Y-47778596D01*
X136407586Y-35395755D02*
G75*
G02*
X135407545Y-34395755I14J1000055D01*
G01*
X185875334Y-134365337D02*
X168612503Y-125903418D01*
X199154308Y-37529357D02*
G75*
G02*
X200154343Y-38529357I-8J-1000043D01*
G01*
X130314998Y-107002455D02*
X98345580Y-107002498D01*
X103817198Y-90404600D02*
X103817198Y-103404600D01*
X103817198Y-90404600D02*
X135217198Y-90404600D01*
X153051186Y-35395756D02*
G75*
G02*
X154051244Y-36395755I14J-1000044D01*
G01*
X90821970Y-33042954D02*
G75*
G02*
X91821970Y-32042970I1000030J-46D01*
G01*
X131285410Y-113002017D02*
G75*
G02*
X130314945Y-112002455I29590J999617D01*
G01*
X155051186Y-37529357D02*
X199154308Y-37529357D01*
X130314998Y-112002455D02*
X130314998Y-107002455D01*
X200154308Y-107143914D02*
G75*
G02*
X200053106Y-107582287I-1000108J14D01*
G01*
X155343305Y-113443843D02*
X131285410Y-113002017D01*
X155051186Y-37529357D02*
G75*
G02*
X154051243Y-36529358I14J999957D01*
G01*
X103817198Y-103404600D02*
X135217198Y-103404600D01*
X98345580Y-107002498D02*
X98345580Y-96041630D01*
X135407586Y-33042955D02*
X135407586Y-34395755D01*
X168153838Y-124567155D02*
X169785249Y-121221941D01*
X91821970Y-32042954D02*
X134407586Y-32042955D01*
X53588921Y-47778596D02*
G75*
G02*
X54497911Y-46694677I996179J87696D01*
G01*
X187214274Y-133905782D02*
G75*
G02*
X185875348Y-134365308I-898774J438382D01*
G01*
M02*
