%TF.GenerationSoftware,KiCad,Pcbnew,8.0.5*%
%TF.CreationDate,2024-10-04T22:09:56+02:00*%
%TF.ProjectId,hookah,686f6f6b-6168-42e6-9b69-6361645f7063,1*%
%TF.SameCoordinates,Original*%
%TF.FileFunction,Drillmap*%
%TF.FilePolarity,Positive*%
%FSLAX45Y45*%
G04 Gerber Fmt 4.5, Leading zero omitted, Abs format (unit mm)*
G04 Created by KiCad (PCBNEW 8.0.5) date 2024-10-04 22:09:56*
%MOMM*%
%LPD*%
G01*
G04 APERTURE LIST*
%ADD10C,0.150000*%
%ADD11C,0.200000*%
%ADD12C,0.100000*%
%ADD13C,0.170180*%
%ADD14C,0.300000*%
%ADD15C,0.342900*%
%ADD16C,0.360000*%
%ADD17C,0.550000*%
G04 APERTURE END LIST*
D10*
X9082197Y-4260045D02*
X9082197Y-3304295D01*
X16861250Y-12590342D02*
G75*
G02*
X16815387Y-12456717I44020J89792D01*
G01*
X16930967Y-11987758D02*
X15573695Y-11353738D01*
X15534330Y-11344384D02*
G75*
G02*
X15573694Y-11353739I-2961J-99956D01*
G01*
X13440759Y-3204295D02*
G75*
G02*
X13540764Y-3304295I1J-100005D01*
G01*
X20015431Y-3852936D02*
X20015431Y-10714391D01*
X5576351Y-9977308D02*
G75*
G02*
X5358898Y-9778072I-17461J199228D01*
G01*
X15405119Y-3639575D02*
X15405119Y-3652936D01*
X13521720Y-9040460D02*
X13521720Y-10340460D01*
X9082197Y-4260045D02*
G75*
G02*
X8990912Y-4359656I-100007J15D01*
G01*
X5449792Y-4669473D02*
X8990913Y-4359665D01*
X20005310Y-10758229D02*
X18721427Y-13390578D01*
X16930967Y-11987758D02*
G75*
G02*
X16978523Y-12122193I-42327J-90602D01*
G01*
X5576351Y-9977308D02*
X9834558Y-9604163D01*
X13640759Y-3539575D02*
X15305119Y-3539576D01*
X5358892Y-9778072D02*
X5358892Y-4777860D01*
X13640759Y-3539575D02*
G75*
G02*
X13540754Y-3439575I1J100006D01*
G01*
X18587533Y-13436534D02*
X16861250Y-12590342D01*
X19915431Y-3752936D02*
G75*
G02*
X20015434Y-3852936I-1J-100004D01*
G01*
X13031500Y-10700246D02*
X9834558Y-10700250D01*
X10381720Y-9040460D02*
X10381720Y-10340460D01*
X10381720Y-9040460D02*
X13521720Y-9040460D01*
X15305119Y-3539576D02*
G75*
G02*
X15405124Y-3639575I1J-100004D01*
G01*
X9082197Y-3304295D02*
G75*
G02*
X9182197Y-3204297I100003J-5D01*
G01*
X13128541Y-11300202D02*
G75*
G02*
X13031494Y-11200245I2959J99962D01*
G01*
X15505119Y-3752936D02*
X19915431Y-3752936D01*
X13031500Y-11200245D02*
X13031500Y-10700246D01*
X20015431Y-10714391D02*
G75*
G02*
X20005311Y-10758229I-100011J1D01*
G01*
X15534330Y-11344384D02*
X13128541Y-11300202D01*
X15505119Y-3752936D02*
G75*
G02*
X15405124Y-3652936I1J99996D01*
G01*
X10381720Y-10340460D02*
X13521720Y-10340460D01*
X9834558Y-10700250D02*
X9834558Y-9604163D01*
X13540759Y-3304295D02*
X13540759Y-3439575D01*
X16815384Y-12456715D02*
X16978525Y-12122194D01*
X9182197Y-3204295D02*
X13440759Y-3204295D01*
X5358892Y-4777860D02*
G75*
G02*
X5449791Y-4669468I99618J8770D01*
G01*
X18721427Y-13390578D02*
G75*
G02*
X18587535Y-13436531I-89877J43838D01*
G01*
D11*
D12*
X18210680Y-3874180D02*
X18280680Y-3944180D01*
X18280680Y-3874180D02*
X18210680Y-3944180D01*
X18210940Y-3873820D02*
X18280940Y-3943820D01*
X18280940Y-3873820D02*
X18210940Y-3943820D01*
X18500680Y-3874180D02*
X18570680Y-3944180D01*
X18570680Y-3874180D02*
X18500680Y-3944180D01*
X18500940Y-3873820D02*
X18570940Y-3943820D01*
X18570940Y-3873820D02*
X18500940Y-3943820D01*
X14214834Y-10798755D02*
G75*
G02*
X14115774Y-10798755I-49530J0D01*
G01*
X14115774Y-10798755D02*
G75*
G02*
X14214834Y-10798755I49530J0D01*
G01*
X15258834Y-10798755D02*
G75*
G02*
X15159774Y-10798755I-49530J0D01*
G01*
X15159774Y-10798755D02*
G75*
G02*
X15258834Y-10798755I49530J0D01*
G01*
D13*
X6014685Y-5534232D02*
X6014685Y-5704412D01*
X5929595Y-5619322D02*
X6099775Y-5619322D01*
X6014685Y-5534232D02*
X6014685Y-5704412D01*
X5929595Y-5619322D02*
X6099775Y-5619322D01*
X6162850Y-7227763D02*
X6162850Y-7397943D01*
X6077760Y-7312853D02*
X6247940Y-7312853D01*
X6162850Y-7227763D02*
X6162850Y-7397943D01*
X6077760Y-7312853D02*
X6247940Y-7312853D01*
X6311015Y-8921294D02*
X6311015Y-9091474D01*
X6225925Y-9006384D02*
X6396105Y-9006384D01*
X6311015Y-8921294D02*
X6311015Y-9091474D01*
X6225925Y-9006384D02*
X6396105Y-9006384D01*
X7110499Y-5438361D02*
X7110499Y-5608541D01*
X7025409Y-5523451D02*
X7195589Y-5523451D01*
X7110499Y-5438361D02*
X7110499Y-5608541D01*
X7025409Y-5523451D02*
X7195589Y-5523451D01*
X7258664Y-7131892D02*
X7258664Y-7302072D01*
X7173574Y-7216982D02*
X7343754Y-7216982D01*
X7258664Y-7131892D02*
X7258664Y-7302072D01*
X7173574Y-7216982D02*
X7343754Y-7216982D01*
X7406829Y-8825423D02*
X7406829Y-8995603D01*
X7321739Y-8910513D02*
X7491919Y-8910513D01*
X7406829Y-8825423D02*
X7406829Y-8995603D01*
X7321739Y-8910513D02*
X7491919Y-8910513D01*
X7807835Y-5377352D02*
X7807835Y-5547532D01*
X7722745Y-5462442D02*
X7892925Y-5462442D01*
X7807835Y-5377352D02*
X7807835Y-5547532D01*
X7722745Y-5462442D02*
X7892925Y-5462442D01*
X7956000Y-7070883D02*
X7956000Y-7241063D01*
X7870910Y-7155973D02*
X8041090Y-7155973D01*
X7956000Y-7070883D02*
X7956000Y-7241063D01*
X7870910Y-7155973D02*
X8041090Y-7155973D01*
X8104165Y-8764414D02*
X8104165Y-8934594D01*
X8019075Y-8849504D02*
X8189255Y-8849504D01*
X8104165Y-8764414D02*
X8104165Y-8934594D01*
X8019075Y-8849504D02*
X8189255Y-8849504D01*
X8903650Y-5281481D02*
X8903650Y-5451661D01*
X8818560Y-5366571D02*
X8988740Y-5366571D01*
X8903650Y-5281481D02*
X8903650Y-5451661D01*
X8818560Y-5366571D02*
X8988740Y-5366571D01*
X9051815Y-6975012D02*
X9051815Y-7145192D01*
X8966725Y-7060102D02*
X9136905Y-7060102D01*
X9051815Y-6975012D02*
X9051815Y-7145192D01*
X8966725Y-7060102D02*
X9136905Y-7060102D01*
X9199979Y-8668543D02*
X9199979Y-8838723D01*
X9114889Y-8753633D02*
X9285069Y-8753633D01*
X9199979Y-8668543D02*
X9199979Y-8838723D01*
X9114889Y-8753633D02*
X9285069Y-8753633D01*
X9741018Y-4423109D02*
X9741018Y-4593289D01*
X9655928Y-4508199D02*
X9826108Y-4508199D01*
X9741018Y-4423109D02*
X9741018Y-4593289D01*
X9655928Y-4508199D02*
X9826108Y-4508199D01*
X9829989Y-6120780D02*
X9829989Y-6290960D01*
X9744899Y-6205870D02*
X9915079Y-6205870D01*
X9829989Y-6120780D02*
X9829989Y-6290960D01*
X9744899Y-6205870D02*
X9915079Y-6205870D01*
X9918960Y-7818450D02*
X9918960Y-7988630D01*
X9833870Y-7903540D02*
X10004050Y-7903540D01*
X9918960Y-7818450D02*
X9918960Y-7988630D01*
X9833870Y-7903540D02*
X10004050Y-7903540D01*
X10839510Y-4365540D02*
X10839510Y-4535720D01*
X10754420Y-4450630D02*
X10924600Y-4450630D01*
X10839510Y-4365540D02*
X10839510Y-4535720D01*
X10754420Y-4450630D02*
X10924600Y-4450630D01*
X10928481Y-6063210D02*
X10928481Y-6233390D01*
X10843391Y-6148300D02*
X11013571Y-6148300D01*
X10928481Y-6063210D02*
X10928481Y-6233390D01*
X10843391Y-6148300D02*
X11013571Y-6148300D01*
X11017453Y-7760880D02*
X11017453Y-7931060D01*
X10932363Y-7845970D02*
X11102543Y-7845970D01*
X11017453Y-7760880D02*
X11017453Y-7931060D01*
X10932363Y-7845970D02*
X11102543Y-7845970D01*
X11890259Y-5886177D02*
X11890259Y-6056357D01*
X11805169Y-5971267D02*
X11975349Y-5971267D01*
X11890259Y-5886177D02*
X11890259Y-6056357D01*
X11805169Y-5971267D02*
X11975349Y-5971267D01*
X11890259Y-4186177D02*
X11890259Y-4356357D01*
X11805169Y-4271267D02*
X11975349Y-4271267D01*
X11890259Y-4186177D02*
X11890259Y-4356357D01*
X11805169Y-4271267D02*
X11975349Y-4271267D01*
X11890259Y-7586177D02*
X11890259Y-7756357D01*
X11805169Y-7671267D02*
X11975349Y-7671267D01*
X11890259Y-7586177D02*
X11890259Y-7756357D01*
X11805169Y-7671267D02*
X11975349Y-7671267D01*
X12990259Y-5886177D02*
X12990259Y-6056357D01*
X12905169Y-5971267D02*
X13075349Y-5971267D01*
X12990259Y-5886177D02*
X12990259Y-6056357D01*
X12905169Y-5971267D02*
X13075349Y-5971267D01*
X12990259Y-4186177D02*
X12990259Y-4356357D01*
X12905169Y-4271267D02*
X13075349Y-4271267D01*
X12990259Y-4186177D02*
X12990259Y-4356357D01*
X12905169Y-4271267D02*
X13075349Y-4271267D01*
X12990259Y-7586177D02*
X12990259Y-7756357D01*
X12905169Y-7671267D02*
X13075349Y-7671267D01*
X12990259Y-7586177D02*
X12990259Y-7756357D01*
X12905169Y-7671267D02*
X13075349Y-7671267D01*
X13690258Y-6186177D02*
X13690258Y-6356357D01*
X13605168Y-6271267D02*
X13775348Y-6271267D01*
X13690258Y-6186177D02*
X13690258Y-6356357D01*
X13605168Y-6271267D02*
X13775348Y-6271267D01*
X13690259Y-7886176D02*
X13690259Y-8056356D01*
X13605169Y-7971266D02*
X13775349Y-7971266D01*
X13690259Y-7886176D02*
X13690259Y-8056356D01*
X13605169Y-7971266D02*
X13775349Y-7971266D01*
X13690259Y-4486177D02*
X13690259Y-4656357D01*
X13605169Y-4571267D02*
X13775349Y-4571267D01*
X13690259Y-4486177D02*
X13690259Y-4656357D01*
X13605169Y-4571267D02*
X13775349Y-4571267D01*
X14137304Y-10293665D02*
X14137304Y-10463845D01*
X14052214Y-10378755D02*
X14222394Y-10378755D01*
X14790258Y-6186177D02*
X14790258Y-6356357D01*
X14705168Y-6271267D02*
X14875348Y-6271267D01*
X14790258Y-6186177D02*
X14790258Y-6356357D01*
X14705168Y-6271267D02*
X14875348Y-6271267D01*
X14790259Y-7886176D02*
X14790259Y-8056356D01*
X14705169Y-7971266D02*
X14875349Y-7971266D01*
X14790259Y-7886176D02*
X14790259Y-8056356D01*
X14705169Y-7971266D02*
X14875349Y-7971266D01*
X14790259Y-4486177D02*
X14790259Y-4656357D01*
X14705169Y-4571267D02*
X14875349Y-4571267D01*
X14790259Y-4486177D02*
X14790259Y-4656357D01*
X14705169Y-4571267D02*
X14875349Y-4571267D01*
X15237304Y-10293665D02*
X15237304Y-10463845D01*
X15152214Y-10378755D02*
X15322394Y-10378755D01*
X15490259Y-8386177D02*
X15490259Y-8556357D01*
X15405169Y-8471267D02*
X15575349Y-8471267D01*
X15490259Y-8386177D02*
X15490259Y-8556357D01*
X15405169Y-8471267D02*
X15575349Y-8471267D01*
X15490259Y-4986177D02*
X15490259Y-5156357D01*
X15405169Y-5071267D02*
X15575349Y-5071267D01*
X15490259Y-4986177D02*
X15490259Y-5156357D01*
X15405169Y-5071267D02*
X15575349Y-5071267D01*
X15490259Y-6686177D02*
X15490259Y-6856357D01*
X15405169Y-6771267D02*
X15575349Y-6771267D01*
X15490259Y-6686177D02*
X15490259Y-6856357D01*
X15405169Y-6771267D02*
X15575349Y-6771267D01*
X16272222Y-10551442D02*
X16272222Y-10721622D01*
X16187132Y-10636532D02*
X16357312Y-10636532D01*
X16272222Y-10551442D02*
X16272222Y-10721622D01*
X16187132Y-10636532D02*
X16357312Y-10636532D01*
X16590259Y-8386177D02*
X16590259Y-8556357D01*
X16505169Y-8471267D02*
X16675349Y-8471267D01*
X16590259Y-8386177D02*
X16590259Y-8556357D01*
X16505169Y-8471267D02*
X16675349Y-8471267D01*
X16590259Y-4986177D02*
X16590259Y-5156357D01*
X16505169Y-5071267D02*
X16675349Y-5071267D01*
X16590259Y-4986177D02*
X16590259Y-5156357D01*
X16505169Y-5071267D02*
X16675349Y-5071267D01*
X16590259Y-6686177D02*
X16590259Y-6856357D01*
X16505169Y-6771267D02*
X16675349Y-6771267D01*
X16590259Y-6686177D02*
X16590259Y-6856357D01*
X16505169Y-6771267D02*
X16675349Y-6771267D01*
X17260896Y-11033650D02*
X17260896Y-11203830D01*
X17175806Y-11118740D02*
X17345986Y-11118740D01*
X17260896Y-11033650D02*
X17260896Y-11203830D01*
X17175806Y-11118740D02*
X17345986Y-11118740D01*
X18143246Y-12075914D02*
X18143246Y-12246094D01*
X18058156Y-12161004D02*
X18228336Y-12161004D01*
X18143246Y-12075914D02*
X18143246Y-12246094D01*
X18058156Y-12161004D02*
X18228336Y-12161004D01*
X18625455Y-11087241D02*
X18625455Y-11257421D01*
X18540365Y-11172331D02*
X18710545Y-11172331D01*
X18625455Y-11087241D02*
X18625455Y-11257421D01*
X18540365Y-11172331D02*
X18710545Y-11172331D01*
D14*
X6137878Y-5347459D02*
X6137878Y-5135325D01*
X5925744Y-5135325D01*
X5925744Y-5347459D01*
X6137878Y-5347459D01*
X6286043Y-7040990D02*
X6286043Y-6828856D01*
X6073909Y-6828856D01*
X6073909Y-7040990D01*
X6286043Y-7040990D01*
X6434208Y-8734521D02*
X6434208Y-8522387D01*
X6222074Y-8522387D01*
X6222074Y-8734521D01*
X6434208Y-8734521D01*
X6616802Y-5084718D02*
X6616802Y-4872584D01*
X6404668Y-4872584D01*
X6404668Y-5084718D01*
X6616802Y-5084718D01*
X6764966Y-6778249D02*
X6764966Y-6566115D01*
X6552832Y-6566115D01*
X6552832Y-6778249D01*
X6764966Y-6778249D01*
X6913131Y-8471780D02*
X6913131Y-8259646D01*
X6700997Y-8259646D01*
X6700997Y-8471780D01*
X6913131Y-8471780D01*
X7134073Y-5260303D02*
X7134073Y-5048169D01*
X6921939Y-5048169D01*
X6921939Y-5260303D01*
X7134073Y-5260303D01*
X7282238Y-6953834D02*
X7282238Y-6741700D01*
X7070104Y-6741700D01*
X7070104Y-6953834D01*
X7282238Y-6953834D01*
X7430403Y-8647365D02*
X7430403Y-8435231D01*
X7218269Y-8435231D01*
X7218269Y-8647365D01*
X7430403Y-8647365D01*
X7931028Y-5190578D02*
X7931028Y-4978444D01*
X7718894Y-4978444D01*
X7718894Y-5190578D01*
X7931028Y-5190578D01*
X8079193Y-6884109D02*
X8079193Y-6671975D01*
X7867059Y-6671975D01*
X7867059Y-6884109D01*
X8079193Y-6884109D01*
X8227358Y-8577640D02*
X8227358Y-8365506D01*
X8015224Y-8365506D01*
X8015224Y-8577640D01*
X8227358Y-8577640D01*
X8409952Y-4927837D02*
X8409952Y-4715703D01*
X8197818Y-4715703D01*
X8197818Y-4927837D01*
X8409952Y-4927837D01*
X8558117Y-6621368D02*
X8558117Y-6409234D01*
X8345983Y-6409234D01*
X8345983Y-6621368D01*
X8558117Y-6621368D01*
X8706281Y-8314899D02*
X8706281Y-8102765D01*
X8494147Y-8102765D01*
X8494147Y-8314899D01*
X8706281Y-8314899D01*
X8927224Y-5103422D02*
X8927224Y-4891288D01*
X8715090Y-4891288D01*
X8715090Y-5103422D01*
X8927224Y-5103422D01*
X9075389Y-6796953D02*
X9075389Y-6584819D01*
X8863255Y-6584819D01*
X8863255Y-6796953D01*
X9075389Y-6796953D01*
X9223553Y-8490485D02*
X9223553Y-8278350D01*
X9011419Y-8278350D01*
X9011419Y-8490485D01*
X9223553Y-8490485D01*
X9877390Y-4237163D02*
X9877390Y-4025029D01*
X9665256Y-4025029D01*
X9665256Y-4237163D01*
X9877390Y-4237163D01*
X9966361Y-5934834D02*
X9966361Y-5722700D01*
X9754227Y-5722700D01*
X9754227Y-5934834D01*
X9966361Y-5934834D01*
X10055333Y-7632504D02*
X10055333Y-7420370D01*
X9843199Y-7420370D01*
X9843199Y-7632504D01*
X10055333Y-7632504D01*
X10365191Y-3991297D02*
X10365191Y-3779163D01*
X10153057Y-3779163D01*
X10153057Y-3991297D01*
X10365191Y-3991297D01*
X10454162Y-5688967D02*
X10454162Y-5476833D01*
X10242028Y-5476833D01*
X10242028Y-5688967D01*
X10454162Y-5688967D01*
X10543134Y-7386637D02*
X10543134Y-7174503D01*
X10331000Y-7174503D01*
X10331000Y-7386637D01*
X10543134Y-7386637D01*
X10876020Y-4184827D02*
X10876020Y-3972693D01*
X10663886Y-3972693D01*
X10663886Y-4184827D01*
X10876020Y-4184827D01*
X10964991Y-5882498D02*
X10964991Y-5670364D01*
X10752857Y-5670364D01*
X10752857Y-5882498D01*
X10964991Y-5882498D01*
X11053962Y-7580168D02*
X11053962Y-7368034D01*
X10841828Y-7368034D01*
X10841828Y-7580168D01*
X11053962Y-7580168D01*
X12046326Y-5702334D02*
X12046326Y-5490200D01*
X11834192Y-5490200D01*
X11834192Y-5702334D01*
X12046326Y-5702334D01*
X12046326Y-4002334D02*
X12046326Y-3790200D01*
X11834192Y-3790200D01*
X11834192Y-4002334D01*
X12046326Y-4002334D01*
X12046326Y-7402334D02*
X12046326Y-7190200D01*
X11834192Y-7190200D01*
X11834192Y-7402334D01*
X12046326Y-7402334D01*
X12546326Y-5482334D02*
X12546326Y-5270200D01*
X12334192Y-5270200D01*
X12334192Y-5482334D01*
X12546326Y-5482334D01*
X12546326Y-3782334D02*
X12546326Y-3570200D01*
X12334192Y-3570200D01*
X12334192Y-3782334D01*
X12546326Y-3782334D01*
X12546326Y-7182334D02*
X12546326Y-6970200D01*
X12334192Y-6970200D01*
X12334192Y-7182334D01*
X12546326Y-7182334D01*
X13046326Y-5702334D02*
X13046326Y-5490200D01*
X12834192Y-5490200D01*
X12834192Y-5702334D01*
X13046326Y-5702334D01*
X13046326Y-4002334D02*
X13046326Y-3790200D01*
X12834192Y-3790200D01*
X12834192Y-4002334D01*
X13046326Y-4002334D01*
X13046326Y-7402334D02*
X13046326Y-7190200D01*
X12834192Y-7190200D01*
X12834192Y-7402334D01*
X13046326Y-7402334D01*
X13846325Y-6752334D02*
X13846325Y-6540200D01*
X13634191Y-6540200D01*
X13634191Y-6752334D01*
X13846325Y-6752334D01*
X13846326Y-7702333D02*
X13846326Y-7490199D01*
X13634192Y-7490199D01*
X13634192Y-7702333D01*
X13846326Y-7702333D01*
X13846326Y-4302334D02*
X13846326Y-4090200D01*
X13634192Y-4090200D01*
X13634192Y-4302334D01*
X13846326Y-4302334D01*
X14346325Y-6972334D02*
X14346325Y-6760200D01*
X14134191Y-6760200D01*
X14134191Y-6972334D01*
X14346325Y-6972334D01*
X14346326Y-7482333D02*
X14346326Y-7270199D01*
X14134192Y-7270199D01*
X14134192Y-7482333D01*
X14346326Y-7482333D01*
X14346326Y-4082334D02*
X14346326Y-3870200D01*
X14134192Y-3870200D01*
X14134192Y-4082334D01*
X14346326Y-4082334D01*
X14846326Y-6752334D02*
X14846326Y-6540200D01*
X14634192Y-6540200D01*
X14634192Y-6752334D01*
X14846326Y-6752334D01*
X14846326Y-7702333D02*
X14846326Y-7490199D01*
X14634192Y-7490199D01*
X14634192Y-7702333D01*
X14846326Y-7702333D01*
X14846326Y-4302334D02*
X14846326Y-4090200D01*
X14634192Y-4090200D01*
X14634192Y-4302334D01*
X14846326Y-4302334D01*
X15646326Y-8952334D02*
X15646326Y-8740200D01*
X15434192Y-8740200D01*
X15434192Y-8952334D01*
X15646326Y-8952334D01*
X15646326Y-4802334D02*
X15646326Y-4590200D01*
X15434192Y-4590200D01*
X15434192Y-4802334D01*
X15646326Y-4802334D01*
X15646326Y-7252334D02*
X15646326Y-7040200D01*
X15434192Y-7040200D01*
X15434192Y-7252334D01*
X15646326Y-7252334D01*
X16146326Y-9172334D02*
X16146326Y-8960200D01*
X15934192Y-8960200D01*
X15934192Y-9172334D01*
X16146326Y-9172334D01*
X16146326Y-4582334D02*
X16146326Y-4370200D01*
X15934192Y-4370200D01*
X15934192Y-4582334D01*
X16146326Y-4582334D01*
X16146326Y-7472334D02*
X16146326Y-7260200D01*
X15934192Y-7260200D01*
X15934192Y-7472334D01*
X16146326Y-7472334D01*
X16587618Y-10427469D02*
X16587618Y-10215335D01*
X16375484Y-10215335D01*
X16375484Y-10427469D01*
X16587618Y-10427469D01*
X16646326Y-8952334D02*
X16646326Y-8740200D01*
X16434192Y-8740200D01*
X16434192Y-8952334D01*
X16646326Y-8952334D01*
X16646326Y-4802334D02*
X16646326Y-4590200D01*
X16434192Y-4590200D01*
X16434192Y-4802334D01*
X16646326Y-4802334D01*
X16646326Y-7252334D02*
X16646326Y-7040200D01*
X16434192Y-7040200D01*
X16434192Y-7252334D01*
X16646326Y-7252334D01*
X17133457Y-10448920D02*
X17133457Y-10236786D01*
X16921323Y-10236786D01*
X16921323Y-10448920D01*
X17133457Y-10448920D01*
X17486412Y-10865840D02*
X17486412Y-10653706D01*
X17274278Y-10653706D01*
X17274278Y-10865840D01*
X17486412Y-10865840D01*
X17934184Y-12057742D02*
X17934184Y-11845608D01*
X17722050Y-11845608D01*
X17722050Y-12057742D01*
X17934184Y-12057742D01*
X17955635Y-11511903D02*
X17955635Y-11299769D01*
X17743501Y-11299769D01*
X17743501Y-11511903D01*
X17955635Y-11511903D01*
X18372555Y-11158948D02*
X18372555Y-10946814D01*
X18160421Y-10946814D01*
X18160421Y-11158948D01*
X18372555Y-11158948D01*
D15*
X6562592Y-5742837D02*
X6734042Y-5571387D01*
X6562592Y-5399937D01*
X6391142Y-5571387D01*
X6562592Y-5742837D01*
X6562592Y-5742837D02*
X6734042Y-5571387D01*
X6562592Y-5399937D01*
X6391142Y-5571387D01*
X6562592Y-5742837D01*
X6562592Y-5742837D02*
X6734042Y-5571387D01*
X6562592Y-5399937D01*
X6391142Y-5571387D01*
X6562592Y-5742837D01*
X6710757Y-7436368D02*
X6882207Y-7264918D01*
X6710757Y-7093468D01*
X6539307Y-7264918D01*
X6710757Y-7436368D01*
X6710757Y-7436368D02*
X6882207Y-7264918D01*
X6710757Y-7093468D01*
X6539307Y-7264918D01*
X6710757Y-7436368D01*
X6710757Y-7436368D02*
X6882207Y-7264918D01*
X6710757Y-7093468D01*
X6539307Y-7264918D01*
X6710757Y-7436368D01*
X6858922Y-9129899D02*
X7030372Y-8958449D01*
X6858922Y-8786999D01*
X6687472Y-8958449D01*
X6858922Y-9129899D01*
X6858922Y-9129899D02*
X7030372Y-8958449D01*
X6858922Y-8786999D01*
X6687472Y-8958449D01*
X6858922Y-9129899D01*
X6858922Y-9129899D02*
X7030372Y-8958449D01*
X6858922Y-8786999D01*
X6687472Y-8958449D01*
X6858922Y-9129899D01*
X8355743Y-5585956D02*
X8527193Y-5414506D01*
X8355743Y-5243056D01*
X8184293Y-5414506D01*
X8355743Y-5585956D01*
X8355743Y-5585956D02*
X8527193Y-5414506D01*
X8355743Y-5243056D01*
X8184293Y-5414506D01*
X8355743Y-5585956D01*
X8355743Y-5585956D02*
X8527193Y-5414506D01*
X8355743Y-5243056D01*
X8184293Y-5414506D01*
X8355743Y-5585956D01*
X8503908Y-7279487D02*
X8675358Y-7108037D01*
X8503908Y-6936587D01*
X8332458Y-7108037D01*
X8503908Y-7279487D01*
X8503908Y-7279487D02*
X8675358Y-7108037D01*
X8503908Y-6936587D01*
X8332458Y-7108037D01*
X8503908Y-7279487D01*
X8503908Y-7279487D02*
X8675358Y-7108037D01*
X8503908Y-6936587D01*
X8332458Y-7108037D01*
X8503908Y-7279487D01*
X8652072Y-8973018D02*
X8823522Y-8801568D01*
X8652072Y-8630118D01*
X8480622Y-8801568D01*
X8652072Y-8973018D01*
X8652072Y-8973018D02*
X8823522Y-8801568D01*
X8652072Y-8630118D01*
X8480622Y-8801568D01*
X8652072Y-8973018D01*
X8652072Y-8973018D02*
X8823522Y-8801568D01*
X8652072Y-8630118D01*
X8480622Y-8801568D01*
X8652072Y-8973018D01*
X10290264Y-4650865D02*
X10461714Y-4479415D01*
X10290264Y-4307965D01*
X10118814Y-4479415D01*
X10290264Y-4650865D01*
X10290264Y-4650865D02*
X10461714Y-4479415D01*
X10290264Y-4307965D01*
X10118814Y-4479415D01*
X10290264Y-4650865D01*
X10290264Y-4650865D02*
X10461714Y-4479415D01*
X10290264Y-4307965D01*
X10118814Y-4479415D01*
X10290264Y-4650865D01*
X10379235Y-6348535D02*
X10550685Y-6177085D01*
X10379235Y-6005635D01*
X10207785Y-6177085D01*
X10379235Y-6348535D01*
X10379235Y-6348535D02*
X10550685Y-6177085D01*
X10379235Y-6005635D01*
X10207785Y-6177085D01*
X10379235Y-6348535D01*
X10379235Y-6348535D02*
X10550685Y-6177085D01*
X10379235Y-6005635D01*
X10207785Y-6177085D01*
X10379235Y-6348535D01*
X10468206Y-8046205D02*
X10639656Y-7874755D01*
X10468206Y-7703305D01*
X10296756Y-7874755D01*
X10468206Y-8046205D01*
X10468206Y-8046205D02*
X10639656Y-7874755D01*
X10468206Y-7703305D01*
X10296756Y-7874755D01*
X10468206Y-8046205D01*
X10468206Y-8046205D02*
X10639656Y-7874755D01*
X10468206Y-7703305D01*
X10296756Y-7874755D01*
X10468206Y-8046205D01*
X12440259Y-6142717D02*
X12611709Y-5971267D01*
X12440259Y-5799817D01*
X12268809Y-5971267D01*
X12440259Y-6142717D01*
X12440259Y-6142717D02*
X12611709Y-5971267D01*
X12440259Y-5799817D01*
X12268809Y-5971267D01*
X12440259Y-6142717D01*
X12440259Y-6142717D02*
X12611709Y-5971267D01*
X12440259Y-5799817D01*
X12268809Y-5971267D01*
X12440259Y-6142717D01*
X12440259Y-4442717D02*
X12611709Y-4271267D01*
X12440259Y-4099817D01*
X12268809Y-4271267D01*
X12440259Y-4442717D01*
X12440259Y-4442717D02*
X12611709Y-4271267D01*
X12440259Y-4099817D01*
X12268809Y-4271267D01*
X12440259Y-4442717D01*
X12440259Y-4442717D02*
X12611709Y-4271267D01*
X12440259Y-4099817D01*
X12268809Y-4271267D01*
X12440259Y-4442717D01*
X12440259Y-7842717D02*
X12611709Y-7671267D01*
X12440259Y-7499817D01*
X12268809Y-7671267D01*
X12440259Y-7842717D01*
X12440259Y-7842717D02*
X12611709Y-7671267D01*
X12440259Y-7499817D01*
X12268809Y-7671267D01*
X12440259Y-7842717D01*
X12440259Y-7842717D02*
X12611709Y-7671267D01*
X12440259Y-7499817D01*
X12268809Y-7671267D01*
X12440259Y-7842717D01*
X14240258Y-6442717D02*
X14411708Y-6271267D01*
X14240258Y-6099817D01*
X14068808Y-6271267D01*
X14240258Y-6442717D01*
X14240258Y-6442717D02*
X14411708Y-6271267D01*
X14240258Y-6099817D01*
X14068808Y-6271267D01*
X14240258Y-6442717D01*
X14240258Y-6442717D02*
X14411708Y-6271267D01*
X14240258Y-6099817D01*
X14068808Y-6271267D01*
X14240258Y-6442717D01*
X14240259Y-8142716D02*
X14411709Y-7971266D01*
X14240259Y-7799816D01*
X14068809Y-7971266D01*
X14240259Y-8142716D01*
X14240259Y-8142716D02*
X14411709Y-7971266D01*
X14240259Y-7799816D01*
X14068809Y-7971266D01*
X14240259Y-8142716D01*
X14240259Y-8142716D02*
X14411709Y-7971266D01*
X14240259Y-7799816D01*
X14068809Y-7971266D01*
X14240259Y-8142716D01*
X14240259Y-4742717D02*
X14411709Y-4571267D01*
X14240259Y-4399817D01*
X14068809Y-4571267D01*
X14240259Y-4742717D01*
X14240259Y-4742717D02*
X14411709Y-4571267D01*
X14240259Y-4399817D01*
X14068809Y-4571267D01*
X14240259Y-4742717D01*
X14240259Y-4742717D02*
X14411709Y-4571267D01*
X14240259Y-4399817D01*
X14068809Y-4571267D01*
X14240259Y-4742717D01*
X14687304Y-10550205D02*
X14858754Y-10378755D01*
X14687304Y-10207305D01*
X14515854Y-10378755D01*
X14687304Y-10550205D01*
X16040259Y-8642717D02*
X16211709Y-8471267D01*
X16040259Y-8299817D01*
X15868809Y-8471267D01*
X16040259Y-8642717D01*
X16040259Y-8642717D02*
X16211709Y-8471267D01*
X16040259Y-8299817D01*
X15868809Y-8471267D01*
X16040259Y-8642717D01*
X16040259Y-8642717D02*
X16211709Y-8471267D01*
X16040259Y-8299817D01*
X15868809Y-8471267D01*
X16040259Y-8642717D01*
X16040259Y-5242717D02*
X16211709Y-5071267D01*
X16040259Y-4899817D01*
X15868809Y-5071267D01*
X16040259Y-5242717D01*
X16040259Y-5242717D02*
X16211709Y-5071267D01*
X16040259Y-4899817D01*
X15868809Y-5071267D01*
X16040259Y-5242717D01*
X16040259Y-5242717D02*
X16211709Y-5071267D01*
X16040259Y-4899817D01*
X15868809Y-5071267D01*
X16040259Y-5242717D01*
X16040259Y-6942717D02*
X16211709Y-6771267D01*
X16040259Y-6599817D01*
X15868809Y-6771267D01*
X16040259Y-6942717D01*
X16040259Y-6942717D02*
X16211709Y-6771267D01*
X16040259Y-6599817D01*
X15868809Y-6771267D01*
X16040259Y-6942717D01*
X16040259Y-6942717D02*
X16211709Y-6771267D01*
X16040259Y-6599817D01*
X15868809Y-6771267D01*
X16040259Y-6942717D01*
X16766559Y-11049086D02*
X16938009Y-10877636D01*
X16766559Y-10706186D01*
X16595109Y-10877636D01*
X16766559Y-11049086D01*
X16766559Y-11049086D02*
X16938009Y-10877636D01*
X16766559Y-10706186D01*
X16595109Y-10877636D01*
X16766559Y-11049086D01*
X16766559Y-11049086D02*
X16938009Y-10877636D01*
X16766559Y-10706186D01*
X16595109Y-10877636D01*
X16766559Y-11049086D01*
X18384350Y-11838117D02*
X18555800Y-11666667D01*
X18384350Y-11495217D01*
X18212900Y-11666667D01*
X18384350Y-11838117D01*
X18384350Y-11838117D02*
X18555800Y-11666667D01*
X18384350Y-11495217D01*
X18212900Y-11666667D01*
X18384350Y-11838117D01*
X18384350Y-11838117D02*
X18555800Y-11666667D01*
X18384350Y-11495217D01*
X18212900Y-11666667D01*
X18384350Y-11838117D01*
D16*
X7504800Y-7851600D02*
X7864800Y-8211600D01*
X7864800Y-7851600D02*
X7504800Y-8211600D01*
X7864800Y-8031600D02*
G75*
G02*
X7504800Y-8031600I-180000J0D01*
G01*
X7504800Y-8031600D02*
G75*
G02*
X7864800Y-8031600I180000J0D01*
G01*
X11187789Y-4320966D02*
X11547789Y-4680966D01*
X11547789Y-4320966D02*
X11187789Y-4680966D01*
X11547789Y-4500966D02*
G75*
G02*
X11187789Y-4500966I-180000J0D01*
G01*
X11187789Y-4500966D02*
G75*
G02*
X11547789Y-4500966I180000J0D01*
G01*
X13229960Y-10696400D02*
X13589960Y-11056400D01*
X13589960Y-10696400D02*
X13229960Y-11056400D01*
X13589960Y-10876400D02*
G75*
G02*
X13229960Y-10876400I-180000J0D01*
G01*
X13229960Y-10876400D02*
G75*
G02*
X13589960Y-10876400I180000J0D01*
G01*
X19138000Y-10053780D02*
X19498000Y-10413780D01*
X19498000Y-10053780D02*
X19138000Y-10413780D01*
X19498000Y-10233780D02*
G75*
G02*
X19138000Y-10233780I-180000J0D01*
G01*
X19138000Y-10233780D02*
G75*
G02*
X19498000Y-10233780I180000J0D01*
G01*
X19508840Y-3937460D02*
X19868840Y-4297460D01*
X19868840Y-3937460D02*
X19508840Y-4297460D01*
X19868840Y-4117460D02*
G75*
G02*
X19508840Y-4117460I-180000J0D01*
G01*
X19508840Y-4117460D02*
G75*
G02*
X19868840Y-4117460I180000J0D01*
G01*
D17*
X14862160Y-5399480D02*
X15412160Y-5949480D01*
X15412160Y-5399480D02*
X14862160Y-5949480D01*
X15137160Y-5399480D02*
X15137160Y-5949480D01*
X14862160Y-5674480D02*
X15412160Y-5674480D01*
D11*
X5611784Y-13765722D02*
X5611784Y-13565722D01*
X5611784Y-13565722D02*
X5659403Y-13565722D01*
X5659403Y-13565722D02*
X5687974Y-13575246D01*
X5687974Y-13575246D02*
X5707022Y-13594294D01*
X5707022Y-13594294D02*
X5716545Y-13613341D01*
X5716545Y-13613341D02*
X5726069Y-13651437D01*
X5726069Y-13651437D02*
X5726069Y-13680008D01*
X5726069Y-13680008D02*
X5716545Y-13718103D01*
X5716545Y-13718103D02*
X5707022Y-13737151D01*
X5707022Y-13737151D02*
X5687974Y-13756199D01*
X5687974Y-13756199D02*
X5659403Y-13765722D01*
X5659403Y-13765722D02*
X5611784Y-13765722D01*
X5811784Y-13765722D02*
X5811784Y-13632389D01*
X5811784Y-13670484D02*
X5821307Y-13651437D01*
X5821307Y-13651437D02*
X5830831Y-13641913D01*
X5830831Y-13641913D02*
X5849879Y-13632389D01*
X5849879Y-13632389D02*
X5868926Y-13632389D01*
X5935593Y-13765722D02*
X5935593Y-13632389D01*
X5935593Y-13565722D02*
X5926069Y-13575246D01*
X5926069Y-13575246D02*
X5935593Y-13584770D01*
X5935593Y-13584770D02*
X5945117Y-13575246D01*
X5945117Y-13575246D02*
X5935593Y-13565722D01*
X5935593Y-13565722D02*
X5935593Y-13584770D01*
X6059403Y-13765722D02*
X6040355Y-13756199D01*
X6040355Y-13756199D02*
X6030831Y-13737151D01*
X6030831Y-13737151D02*
X6030831Y-13565722D01*
X6164164Y-13765722D02*
X6145117Y-13756199D01*
X6145117Y-13756199D02*
X6135593Y-13737151D01*
X6135593Y-13737151D02*
X6135593Y-13565722D01*
X6392736Y-13765722D02*
X6392736Y-13565722D01*
X6392736Y-13565722D02*
X6459403Y-13708580D01*
X6459403Y-13708580D02*
X6526069Y-13565722D01*
X6526069Y-13565722D02*
X6526069Y-13765722D01*
X6707022Y-13765722D02*
X6707022Y-13660961D01*
X6707022Y-13660961D02*
X6697498Y-13641913D01*
X6697498Y-13641913D02*
X6678450Y-13632389D01*
X6678450Y-13632389D02*
X6640355Y-13632389D01*
X6640355Y-13632389D02*
X6621307Y-13641913D01*
X6707022Y-13756199D02*
X6687974Y-13765722D01*
X6687974Y-13765722D02*
X6640355Y-13765722D01*
X6640355Y-13765722D02*
X6621307Y-13756199D01*
X6621307Y-13756199D02*
X6611784Y-13737151D01*
X6611784Y-13737151D02*
X6611784Y-13718103D01*
X6611784Y-13718103D02*
X6621307Y-13699056D01*
X6621307Y-13699056D02*
X6640355Y-13689532D01*
X6640355Y-13689532D02*
X6687974Y-13689532D01*
X6687974Y-13689532D02*
X6707022Y-13680008D01*
X6802260Y-13632389D02*
X6802260Y-13832389D01*
X6802260Y-13641913D02*
X6821307Y-13632389D01*
X6821307Y-13632389D02*
X6859403Y-13632389D01*
X6859403Y-13632389D02*
X6878450Y-13641913D01*
X6878450Y-13641913D02*
X6887974Y-13651437D01*
X6887974Y-13651437D02*
X6897498Y-13670484D01*
X6897498Y-13670484D02*
X6897498Y-13727627D01*
X6897498Y-13727627D02*
X6887974Y-13746675D01*
X6887974Y-13746675D02*
X6878450Y-13756199D01*
X6878450Y-13756199D02*
X6859403Y-13765722D01*
X6859403Y-13765722D02*
X6821307Y-13765722D01*
X6821307Y-13765722D02*
X6802260Y-13756199D01*
X6983212Y-13746675D02*
X6992736Y-13756199D01*
X6992736Y-13756199D02*
X6983212Y-13765722D01*
X6983212Y-13765722D02*
X6973688Y-13756199D01*
X6973688Y-13756199D02*
X6983212Y-13746675D01*
X6983212Y-13746675D02*
X6983212Y-13765722D01*
X6983212Y-13641913D02*
X6992736Y-13651437D01*
X6992736Y-13651437D02*
X6983212Y-13660961D01*
X6983212Y-13660961D02*
X6973688Y-13651437D01*
X6973688Y-13651437D02*
X6983212Y-13641913D01*
X6983212Y-13641913D02*
X6983212Y-13660961D01*
D12*
X5281007Y-14059239D02*
X5351007Y-14129239D01*
X5351007Y-14059239D02*
X5281007Y-14129239D01*
D11*
X5649879Y-13985722D02*
X5668926Y-13985722D01*
X5668926Y-13985722D02*
X5687974Y-13995246D01*
X5687974Y-13995246D02*
X5697498Y-14004770D01*
X5697498Y-14004770D02*
X5707022Y-14023818D01*
X5707022Y-14023818D02*
X5716545Y-14061913D01*
X5716545Y-14061913D02*
X5716545Y-14109532D01*
X5716545Y-14109532D02*
X5707022Y-14147627D01*
X5707022Y-14147627D02*
X5697498Y-14166675D01*
X5697498Y-14166675D02*
X5687974Y-14176199D01*
X5687974Y-14176199D02*
X5668926Y-14185722D01*
X5668926Y-14185722D02*
X5649879Y-14185722D01*
X5649879Y-14185722D02*
X5630831Y-14176199D01*
X5630831Y-14176199D02*
X5621307Y-14166675D01*
X5621307Y-14166675D02*
X5611784Y-14147627D01*
X5611784Y-14147627D02*
X5602260Y-14109532D01*
X5602260Y-14109532D02*
X5602260Y-14061913D01*
X5602260Y-14061913D02*
X5611784Y-14023818D01*
X5611784Y-14023818D02*
X5621307Y-14004770D01*
X5621307Y-14004770D02*
X5630831Y-13995246D01*
X5630831Y-13995246D02*
X5649879Y-13985722D01*
X5802260Y-14166675D02*
X5811784Y-14176199D01*
X5811784Y-14176199D02*
X5802260Y-14185722D01*
X5802260Y-14185722D02*
X5792736Y-14176199D01*
X5792736Y-14176199D02*
X5802260Y-14166675D01*
X5802260Y-14166675D02*
X5802260Y-14185722D01*
X5878450Y-13985722D02*
X6011784Y-13985722D01*
X6011784Y-13985722D02*
X5926069Y-14185722D01*
X6126069Y-13985722D02*
X6145117Y-13985722D01*
X6145117Y-13985722D02*
X6164165Y-13995246D01*
X6164165Y-13995246D02*
X6173688Y-14004770D01*
X6173688Y-14004770D02*
X6183212Y-14023818D01*
X6183212Y-14023818D02*
X6192736Y-14061913D01*
X6192736Y-14061913D02*
X6192736Y-14109532D01*
X6192736Y-14109532D02*
X6183212Y-14147627D01*
X6183212Y-14147627D02*
X6173688Y-14166675D01*
X6173688Y-14166675D02*
X6164165Y-14176199D01*
X6164165Y-14176199D02*
X6145117Y-14185722D01*
X6145117Y-14185722D02*
X6126069Y-14185722D01*
X6126069Y-14185722D02*
X6107022Y-14176199D01*
X6107022Y-14176199D02*
X6097498Y-14166675D01*
X6097498Y-14166675D02*
X6087974Y-14147627D01*
X6087974Y-14147627D02*
X6078450Y-14109532D01*
X6078450Y-14109532D02*
X6078450Y-14061913D01*
X6078450Y-14061913D02*
X6087974Y-14023818D01*
X6087974Y-14023818D02*
X6097498Y-14004770D01*
X6097498Y-14004770D02*
X6107022Y-13995246D01*
X6107022Y-13995246D02*
X6126069Y-13985722D01*
X6316545Y-13985722D02*
X6335593Y-13985722D01*
X6335593Y-13985722D02*
X6354641Y-13995246D01*
X6354641Y-13995246D02*
X6364165Y-14004770D01*
X6364165Y-14004770D02*
X6373688Y-14023818D01*
X6373688Y-14023818D02*
X6383212Y-14061913D01*
X6383212Y-14061913D02*
X6383212Y-14109532D01*
X6383212Y-14109532D02*
X6373688Y-14147627D01*
X6373688Y-14147627D02*
X6364165Y-14166675D01*
X6364165Y-14166675D02*
X6354641Y-14176199D01*
X6354641Y-14176199D02*
X6335593Y-14185722D01*
X6335593Y-14185722D02*
X6316545Y-14185722D01*
X6316545Y-14185722D02*
X6297498Y-14176199D01*
X6297498Y-14176199D02*
X6287974Y-14166675D01*
X6287974Y-14166675D02*
X6278450Y-14147627D01*
X6278450Y-14147627D02*
X6268926Y-14109532D01*
X6268926Y-14109532D02*
X6268926Y-14061913D01*
X6268926Y-14061913D02*
X6278450Y-14023818D01*
X6278450Y-14023818D02*
X6287974Y-14004770D01*
X6287974Y-14004770D02*
X6297498Y-13995246D01*
X6297498Y-13995246D02*
X6316545Y-13985722D01*
X6468926Y-14185722D02*
X6468926Y-14052389D01*
X6468926Y-14071437D02*
X6478450Y-14061913D01*
X6478450Y-14061913D02*
X6497498Y-14052389D01*
X6497498Y-14052389D02*
X6526069Y-14052389D01*
X6526069Y-14052389D02*
X6545117Y-14061913D01*
X6545117Y-14061913D02*
X6554641Y-14080961D01*
X6554641Y-14080961D02*
X6554641Y-14185722D01*
X6554641Y-14080961D02*
X6564165Y-14061913D01*
X6564165Y-14061913D02*
X6583212Y-14052389D01*
X6583212Y-14052389D02*
X6611784Y-14052389D01*
X6611784Y-14052389D02*
X6630831Y-14061913D01*
X6630831Y-14061913D02*
X6640355Y-14080961D01*
X6640355Y-14080961D02*
X6640355Y-14185722D01*
X6735593Y-14185722D02*
X6735593Y-14052389D01*
X6735593Y-14071437D02*
X6745117Y-14061913D01*
X6745117Y-14061913D02*
X6764165Y-14052389D01*
X6764165Y-14052389D02*
X6792736Y-14052389D01*
X6792736Y-14052389D02*
X6811784Y-14061913D01*
X6811784Y-14061913D02*
X6821307Y-14080961D01*
X6821307Y-14080961D02*
X6821307Y-14185722D01*
X6821307Y-14080961D02*
X6830831Y-14061913D01*
X6830831Y-14061913D02*
X6849879Y-14052389D01*
X6849879Y-14052389D02*
X6878450Y-14052389D01*
X6878450Y-14052389D02*
X6897498Y-14061913D01*
X6897498Y-14061913D02*
X6907022Y-14080961D01*
X6907022Y-14080961D02*
X6907022Y-14185722D01*
X7297498Y-13976199D02*
X7126069Y-14233341D01*
X7554641Y-13985722D02*
X7573689Y-13985722D01*
X7573689Y-13985722D02*
X7592736Y-13995246D01*
X7592736Y-13995246D02*
X7602260Y-14004770D01*
X7602260Y-14004770D02*
X7611784Y-14023818D01*
X7611784Y-14023818D02*
X7621308Y-14061913D01*
X7621308Y-14061913D02*
X7621308Y-14109532D01*
X7621308Y-14109532D02*
X7611784Y-14147627D01*
X7611784Y-14147627D02*
X7602260Y-14166675D01*
X7602260Y-14166675D02*
X7592736Y-14176199D01*
X7592736Y-14176199D02*
X7573689Y-14185722D01*
X7573689Y-14185722D02*
X7554641Y-14185722D01*
X7554641Y-14185722D02*
X7535593Y-14176199D01*
X7535593Y-14176199D02*
X7526069Y-14166675D01*
X7526069Y-14166675D02*
X7516546Y-14147627D01*
X7516546Y-14147627D02*
X7507022Y-14109532D01*
X7507022Y-14109532D02*
X7507022Y-14061913D01*
X7507022Y-14061913D02*
X7516546Y-14023818D01*
X7516546Y-14023818D02*
X7526069Y-14004770D01*
X7526069Y-14004770D02*
X7535593Y-13995246D01*
X7535593Y-13995246D02*
X7554641Y-13985722D01*
X7707022Y-14166675D02*
X7716546Y-14176199D01*
X7716546Y-14176199D02*
X7707022Y-14185722D01*
X7707022Y-14185722D02*
X7697498Y-14176199D01*
X7697498Y-14176199D02*
X7707022Y-14166675D01*
X7707022Y-14166675D02*
X7707022Y-14185722D01*
X7840355Y-13985722D02*
X7859403Y-13985722D01*
X7859403Y-13985722D02*
X7878450Y-13995246D01*
X7878450Y-13995246D02*
X7887974Y-14004770D01*
X7887974Y-14004770D02*
X7897498Y-14023818D01*
X7897498Y-14023818D02*
X7907022Y-14061913D01*
X7907022Y-14061913D02*
X7907022Y-14109532D01*
X7907022Y-14109532D02*
X7897498Y-14147627D01*
X7897498Y-14147627D02*
X7887974Y-14166675D01*
X7887974Y-14166675D02*
X7878450Y-14176199D01*
X7878450Y-14176199D02*
X7859403Y-14185722D01*
X7859403Y-14185722D02*
X7840355Y-14185722D01*
X7840355Y-14185722D02*
X7821308Y-14176199D01*
X7821308Y-14176199D02*
X7811784Y-14166675D01*
X7811784Y-14166675D02*
X7802260Y-14147627D01*
X7802260Y-14147627D02*
X7792736Y-14109532D01*
X7792736Y-14109532D02*
X7792736Y-14061913D01*
X7792736Y-14061913D02*
X7802260Y-14023818D01*
X7802260Y-14023818D02*
X7811784Y-14004770D01*
X7811784Y-14004770D02*
X7821308Y-13995246D01*
X7821308Y-13995246D02*
X7840355Y-13985722D01*
X7983212Y-14004770D02*
X7992736Y-13995246D01*
X7992736Y-13995246D02*
X8011784Y-13985722D01*
X8011784Y-13985722D02*
X8059403Y-13985722D01*
X8059403Y-13985722D02*
X8078450Y-13995246D01*
X8078450Y-13995246D02*
X8087974Y-14004770D01*
X8087974Y-14004770D02*
X8097498Y-14023818D01*
X8097498Y-14023818D02*
X8097498Y-14042865D01*
X8097498Y-14042865D02*
X8087974Y-14071437D01*
X8087974Y-14071437D02*
X7973689Y-14185722D01*
X7973689Y-14185722D02*
X8097498Y-14185722D01*
X8164165Y-13985722D02*
X8297498Y-13985722D01*
X8297498Y-13985722D02*
X8211784Y-14185722D01*
X8459403Y-13985722D02*
X8421308Y-13985722D01*
X8421308Y-13985722D02*
X8402260Y-13995246D01*
X8402260Y-13995246D02*
X8392736Y-14004770D01*
X8392736Y-14004770D02*
X8373689Y-14033341D01*
X8373689Y-14033341D02*
X8364165Y-14071437D01*
X8364165Y-14071437D02*
X8364165Y-14147627D01*
X8364165Y-14147627D02*
X8373689Y-14166675D01*
X8373689Y-14166675D02*
X8383212Y-14176199D01*
X8383212Y-14176199D02*
X8402260Y-14185722D01*
X8402260Y-14185722D02*
X8440355Y-14185722D01*
X8440355Y-14185722D02*
X8459403Y-14176199D01*
X8459403Y-14176199D02*
X8468927Y-14166675D01*
X8468927Y-14166675D02*
X8478451Y-14147627D01*
X8478451Y-14147627D02*
X8478451Y-14100008D01*
X8478451Y-14100008D02*
X8468927Y-14080961D01*
X8468927Y-14080961D02*
X8459403Y-14071437D01*
X8459403Y-14071437D02*
X8440355Y-14061913D01*
X8440355Y-14061913D02*
X8402260Y-14061913D01*
X8402260Y-14061913D02*
X8383212Y-14071437D01*
X8383212Y-14071437D02*
X8373689Y-14080961D01*
X8373689Y-14080961D02*
X8364165Y-14100008D01*
X8554641Y-13985722D02*
X8554641Y-14023818D01*
X8630832Y-13985722D02*
X8630832Y-14023818D01*
X8926070Y-14261913D02*
X8916546Y-14252389D01*
X8916546Y-14252389D02*
X8897498Y-14223818D01*
X8897498Y-14223818D02*
X8887974Y-14204770D01*
X8887974Y-14204770D02*
X8878451Y-14176199D01*
X8878451Y-14176199D02*
X8868927Y-14128580D01*
X8868927Y-14128580D02*
X8868927Y-14090484D01*
X8868927Y-14090484D02*
X8878451Y-14042865D01*
X8878451Y-14042865D02*
X8887974Y-14014294D01*
X8887974Y-14014294D02*
X8897498Y-13995246D01*
X8897498Y-13995246D02*
X8916546Y-13966675D01*
X8916546Y-13966675D02*
X8926070Y-13957151D01*
X9087974Y-14052389D02*
X9087974Y-14185722D01*
X9040355Y-13976199D02*
X8992736Y-14119056D01*
X8992736Y-14119056D02*
X9116546Y-14119056D01*
X9345117Y-14185722D02*
X9345117Y-13985722D01*
X9430832Y-14185722D02*
X9430832Y-14080961D01*
X9430832Y-14080961D02*
X9421308Y-14061913D01*
X9421308Y-14061913D02*
X9402260Y-14052389D01*
X9402260Y-14052389D02*
X9373689Y-14052389D01*
X9373689Y-14052389D02*
X9354641Y-14061913D01*
X9354641Y-14061913D02*
X9345117Y-14071437D01*
X9554641Y-14185722D02*
X9535594Y-14176199D01*
X9535594Y-14176199D02*
X9526070Y-14166675D01*
X9526070Y-14166675D02*
X9516546Y-14147627D01*
X9516546Y-14147627D02*
X9516546Y-14090484D01*
X9516546Y-14090484D02*
X9526070Y-14071437D01*
X9526070Y-14071437D02*
X9535594Y-14061913D01*
X9535594Y-14061913D02*
X9554641Y-14052389D01*
X9554641Y-14052389D02*
X9583213Y-14052389D01*
X9583213Y-14052389D02*
X9602260Y-14061913D01*
X9602260Y-14061913D02*
X9611784Y-14071437D01*
X9611784Y-14071437D02*
X9621308Y-14090484D01*
X9621308Y-14090484D02*
X9621308Y-14147627D01*
X9621308Y-14147627D02*
X9611784Y-14166675D01*
X9611784Y-14166675D02*
X9602260Y-14176199D01*
X9602260Y-14176199D02*
X9583213Y-14185722D01*
X9583213Y-14185722D02*
X9554641Y-14185722D01*
X9735594Y-14185722D02*
X9716546Y-14176199D01*
X9716546Y-14176199D02*
X9707022Y-14157151D01*
X9707022Y-14157151D02*
X9707022Y-13985722D01*
X9887975Y-14176199D02*
X9868927Y-14185722D01*
X9868927Y-14185722D02*
X9830832Y-14185722D01*
X9830832Y-14185722D02*
X9811784Y-14176199D01*
X9811784Y-14176199D02*
X9802260Y-14157151D01*
X9802260Y-14157151D02*
X9802260Y-14080961D01*
X9802260Y-14080961D02*
X9811784Y-14061913D01*
X9811784Y-14061913D02*
X9830832Y-14052389D01*
X9830832Y-14052389D02*
X9868927Y-14052389D01*
X9868927Y-14052389D02*
X9887975Y-14061913D01*
X9887975Y-14061913D02*
X9897498Y-14080961D01*
X9897498Y-14080961D02*
X9897498Y-14100008D01*
X9897498Y-14100008D02*
X9802260Y-14119056D01*
X9973689Y-14176199D02*
X9992736Y-14185722D01*
X9992736Y-14185722D02*
X10030832Y-14185722D01*
X10030832Y-14185722D02*
X10049879Y-14176199D01*
X10049879Y-14176199D02*
X10059403Y-14157151D01*
X10059403Y-14157151D02*
X10059403Y-14147627D01*
X10059403Y-14147627D02*
X10049879Y-14128580D01*
X10049879Y-14128580D02*
X10030832Y-14119056D01*
X10030832Y-14119056D02*
X10002260Y-14119056D01*
X10002260Y-14119056D02*
X9983213Y-14109532D01*
X9983213Y-14109532D02*
X9973689Y-14090484D01*
X9973689Y-14090484D02*
X9973689Y-14080961D01*
X9973689Y-14080961D02*
X9983213Y-14061913D01*
X9983213Y-14061913D02*
X10002260Y-14052389D01*
X10002260Y-14052389D02*
X10030832Y-14052389D01*
X10030832Y-14052389D02*
X10049879Y-14061913D01*
X10126070Y-14261913D02*
X10135594Y-14252389D01*
X10135594Y-14252389D02*
X10154641Y-14223818D01*
X10154641Y-14223818D02*
X10164165Y-14204770D01*
X10164165Y-14204770D02*
X10173689Y-14176199D01*
X10173689Y-14176199D02*
X10183213Y-14128580D01*
X10183213Y-14128580D02*
X10183213Y-14090484D01*
X10183213Y-14090484D02*
X10173689Y-14042865D01*
X10173689Y-14042865D02*
X10164165Y-14014294D01*
X10164165Y-14014294D02*
X10154641Y-13995246D01*
X10154641Y-13995246D02*
X10135594Y-13966675D01*
X10135594Y-13966675D02*
X10126070Y-13957151D01*
X10487975Y-14261913D02*
X10478451Y-14252389D01*
X10478451Y-14252389D02*
X10459403Y-14223818D01*
X10459403Y-14223818D02*
X10449879Y-14204770D01*
X10449879Y-14204770D02*
X10440356Y-14176199D01*
X10440356Y-14176199D02*
X10430832Y-14128580D01*
X10430832Y-14128580D02*
X10430832Y-14090484D01*
X10430832Y-14090484D02*
X10440356Y-14042865D01*
X10440356Y-14042865D02*
X10449879Y-14014294D01*
X10449879Y-14014294D02*
X10459403Y-13995246D01*
X10459403Y-13995246D02*
X10478451Y-13966675D01*
X10478451Y-13966675D02*
X10487975Y-13957151D01*
X10564165Y-14052389D02*
X10564165Y-14185722D01*
X10564165Y-14071437D02*
X10573689Y-14061913D01*
X10573689Y-14061913D02*
X10592736Y-14052389D01*
X10592736Y-14052389D02*
X10621308Y-14052389D01*
X10621308Y-14052389D02*
X10640356Y-14061913D01*
X10640356Y-14061913D02*
X10649879Y-14080961D01*
X10649879Y-14080961D02*
X10649879Y-14185722D01*
X10773689Y-14185722D02*
X10754641Y-14176199D01*
X10754641Y-14176199D02*
X10745117Y-14166675D01*
X10745117Y-14166675D02*
X10735594Y-14147627D01*
X10735594Y-14147627D02*
X10735594Y-14090484D01*
X10735594Y-14090484D02*
X10745117Y-14071437D01*
X10745117Y-14071437D02*
X10754641Y-14061913D01*
X10754641Y-14061913D02*
X10773689Y-14052389D01*
X10773689Y-14052389D02*
X10802260Y-14052389D01*
X10802260Y-14052389D02*
X10821308Y-14061913D01*
X10821308Y-14061913D02*
X10830832Y-14071437D01*
X10830832Y-14071437D02*
X10840356Y-14090484D01*
X10840356Y-14090484D02*
X10840356Y-14147627D01*
X10840356Y-14147627D02*
X10830832Y-14166675D01*
X10830832Y-14166675D02*
X10821308Y-14176199D01*
X10821308Y-14176199D02*
X10802260Y-14185722D01*
X10802260Y-14185722D02*
X10773689Y-14185722D01*
X10897498Y-14052389D02*
X10973689Y-14052389D01*
X10926070Y-13985722D02*
X10926070Y-14157151D01*
X10926070Y-14157151D02*
X10935594Y-14176199D01*
X10935594Y-14176199D02*
X10954641Y-14185722D01*
X10954641Y-14185722D02*
X10973689Y-14185722D01*
X11192736Y-14052389D02*
X11192736Y-14252389D01*
X11192736Y-14061913D02*
X11211784Y-14052389D01*
X11211784Y-14052389D02*
X11249879Y-14052389D01*
X11249879Y-14052389D02*
X11268927Y-14061913D01*
X11268927Y-14061913D02*
X11278451Y-14071437D01*
X11278451Y-14071437D02*
X11287975Y-14090484D01*
X11287975Y-14090484D02*
X11287975Y-14147627D01*
X11287975Y-14147627D02*
X11278451Y-14166675D01*
X11278451Y-14166675D02*
X11268927Y-14176199D01*
X11268927Y-14176199D02*
X11249879Y-14185722D01*
X11249879Y-14185722D02*
X11211784Y-14185722D01*
X11211784Y-14185722D02*
X11192736Y-14176199D01*
X11402260Y-14185722D02*
X11383213Y-14176199D01*
X11383213Y-14176199D02*
X11373689Y-14157151D01*
X11373689Y-14157151D02*
X11373689Y-13985722D01*
X11564165Y-14185722D02*
X11564165Y-14080961D01*
X11564165Y-14080961D02*
X11554641Y-14061913D01*
X11554641Y-14061913D02*
X11535594Y-14052389D01*
X11535594Y-14052389D02*
X11497498Y-14052389D01*
X11497498Y-14052389D02*
X11478451Y-14061913D01*
X11564165Y-14176199D02*
X11545117Y-14185722D01*
X11545117Y-14185722D02*
X11497498Y-14185722D01*
X11497498Y-14185722D02*
X11478451Y-14176199D01*
X11478451Y-14176199D02*
X11468927Y-14157151D01*
X11468927Y-14157151D02*
X11468927Y-14138103D01*
X11468927Y-14138103D02*
X11478451Y-14119056D01*
X11478451Y-14119056D02*
X11497498Y-14109532D01*
X11497498Y-14109532D02*
X11545117Y-14109532D01*
X11545117Y-14109532D02*
X11564165Y-14100008D01*
X11630832Y-14052389D02*
X11707022Y-14052389D01*
X11659403Y-13985722D02*
X11659403Y-14157151D01*
X11659403Y-14157151D02*
X11668927Y-14176199D01*
X11668927Y-14176199D02*
X11687975Y-14185722D01*
X11687975Y-14185722D02*
X11707022Y-14185722D01*
X11849879Y-14176199D02*
X11830832Y-14185722D01*
X11830832Y-14185722D02*
X11792736Y-14185722D01*
X11792736Y-14185722D02*
X11773689Y-14176199D01*
X11773689Y-14176199D02*
X11764165Y-14157151D01*
X11764165Y-14157151D02*
X11764165Y-14080961D01*
X11764165Y-14080961D02*
X11773689Y-14061913D01*
X11773689Y-14061913D02*
X11792736Y-14052389D01*
X11792736Y-14052389D02*
X11830832Y-14052389D01*
X11830832Y-14052389D02*
X11849879Y-14061913D01*
X11849879Y-14061913D02*
X11859403Y-14080961D01*
X11859403Y-14080961D02*
X11859403Y-14100008D01*
X11859403Y-14100008D02*
X11764165Y-14119056D01*
X12030832Y-14185722D02*
X12030832Y-13985722D01*
X12030832Y-14176199D02*
X12011784Y-14185722D01*
X12011784Y-14185722D02*
X11973689Y-14185722D01*
X11973689Y-14185722D02*
X11954641Y-14176199D01*
X11954641Y-14176199D02*
X11945117Y-14166675D01*
X11945117Y-14166675D02*
X11935594Y-14147627D01*
X11935594Y-14147627D02*
X11935594Y-14090484D01*
X11935594Y-14090484D02*
X11945117Y-14071437D01*
X11945117Y-14071437D02*
X11954641Y-14061913D01*
X11954641Y-14061913D02*
X11973689Y-14052389D01*
X11973689Y-14052389D02*
X12011784Y-14052389D01*
X12011784Y-14052389D02*
X12030832Y-14061913D01*
X12107022Y-14261913D02*
X12116546Y-14252389D01*
X12116546Y-14252389D02*
X12135594Y-14223818D01*
X12135594Y-14223818D02*
X12145117Y-14204770D01*
X12145117Y-14204770D02*
X12154641Y-14176199D01*
X12154641Y-14176199D02*
X12164165Y-14128580D01*
X12164165Y-14128580D02*
X12164165Y-14090484D01*
X12164165Y-14090484D02*
X12154641Y-14042865D01*
X12154641Y-14042865D02*
X12145117Y-14014294D01*
X12145117Y-14014294D02*
X12135594Y-13995246D01*
X12135594Y-13995246D02*
X12116546Y-13966675D01*
X12116546Y-13966675D02*
X12107022Y-13957151D01*
D12*
X5351007Y-14358239D02*
G75*
G02*
X5251947Y-14358239I-49530J0D01*
G01*
X5251947Y-14358239D02*
G75*
G02*
X5351007Y-14358239I49530J0D01*
G01*
D11*
X5649879Y-14249722D02*
X5668926Y-14249722D01*
X5668926Y-14249722D02*
X5687974Y-14259246D01*
X5687974Y-14259246D02*
X5697498Y-14268770D01*
X5697498Y-14268770D02*
X5707022Y-14287818D01*
X5707022Y-14287818D02*
X5716545Y-14325913D01*
X5716545Y-14325913D02*
X5716545Y-14373532D01*
X5716545Y-14373532D02*
X5707022Y-14411627D01*
X5707022Y-14411627D02*
X5697498Y-14430675D01*
X5697498Y-14430675D02*
X5687974Y-14440199D01*
X5687974Y-14440199D02*
X5668926Y-14449722D01*
X5668926Y-14449722D02*
X5649879Y-14449722D01*
X5649879Y-14449722D02*
X5630831Y-14440199D01*
X5630831Y-14440199D02*
X5621307Y-14430675D01*
X5621307Y-14430675D02*
X5611784Y-14411627D01*
X5611784Y-14411627D02*
X5602260Y-14373532D01*
X5602260Y-14373532D02*
X5602260Y-14325913D01*
X5602260Y-14325913D02*
X5611784Y-14287818D01*
X5611784Y-14287818D02*
X5621307Y-14268770D01*
X5621307Y-14268770D02*
X5630831Y-14259246D01*
X5630831Y-14259246D02*
X5649879Y-14249722D01*
X5802260Y-14430675D02*
X5811784Y-14440199D01*
X5811784Y-14440199D02*
X5802260Y-14449722D01*
X5802260Y-14449722D02*
X5792736Y-14440199D01*
X5792736Y-14440199D02*
X5802260Y-14430675D01*
X5802260Y-14430675D02*
X5802260Y-14449722D01*
X5907022Y-14449722D02*
X5945117Y-14449722D01*
X5945117Y-14449722D02*
X5964165Y-14440199D01*
X5964165Y-14440199D02*
X5973688Y-14430675D01*
X5973688Y-14430675D02*
X5992736Y-14402103D01*
X5992736Y-14402103D02*
X6002260Y-14364008D01*
X6002260Y-14364008D02*
X6002260Y-14287818D01*
X6002260Y-14287818D02*
X5992736Y-14268770D01*
X5992736Y-14268770D02*
X5983212Y-14259246D01*
X5983212Y-14259246D02*
X5964165Y-14249722D01*
X5964165Y-14249722D02*
X5926069Y-14249722D01*
X5926069Y-14249722D02*
X5907022Y-14259246D01*
X5907022Y-14259246D02*
X5897498Y-14268770D01*
X5897498Y-14268770D02*
X5887974Y-14287818D01*
X5887974Y-14287818D02*
X5887974Y-14335437D01*
X5887974Y-14335437D02*
X5897498Y-14354484D01*
X5897498Y-14354484D02*
X5907022Y-14364008D01*
X5907022Y-14364008D02*
X5926069Y-14373532D01*
X5926069Y-14373532D02*
X5964165Y-14373532D01*
X5964165Y-14373532D02*
X5983212Y-14364008D01*
X5983212Y-14364008D02*
X5992736Y-14354484D01*
X5992736Y-14354484D02*
X6002260Y-14335437D01*
X6097498Y-14449722D02*
X6135593Y-14449722D01*
X6135593Y-14449722D02*
X6154641Y-14440199D01*
X6154641Y-14440199D02*
X6164165Y-14430675D01*
X6164165Y-14430675D02*
X6183212Y-14402103D01*
X6183212Y-14402103D02*
X6192736Y-14364008D01*
X6192736Y-14364008D02*
X6192736Y-14287818D01*
X6192736Y-14287818D02*
X6183212Y-14268770D01*
X6183212Y-14268770D02*
X6173688Y-14259246D01*
X6173688Y-14259246D02*
X6154641Y-14249722D01*
X6154641Y-14249722D02*
X6116545Y-14249722D01*
X6116545Y-14249722D02*
X6097498Y-14259246D01*
X6097498Y-14259246D02*
X6087974Y-14268770D01*
X6087974Y-14268770D02*
X6078450Y-14287818D01*
X6078450Y-14287818D02*
X6078450Y-14335437D01*
X6078450Y-14335437D02*
X6087974Y-14354484D01*
X6087974Y-14354484D02*
X6097498Y-14364008D01*
X6097498Y-14364008D02*
X6116545Y-14373532D01*
X6116545Y-14373532D02*
X6154641Y-14373532D01*
X6154641Y-14373532D02*
X6173688Y-14364008D01*
X6173688Y-14364008D02*
X6183212Y-14354484D01*
X6183212Y-14354484D02*
X6192736Y-14335437D01*
X6383212Y-14449722D02*
X6268926Y-14449722D01*
X6326069Y-14449722D02*
X6326069Y-14249722D01*
X6326069Y-14249722D02*
X6307022Y-14278294D01*
X6307022Y-14278294D02*
X6287974Y-14297341D01*
X6287974Y-14297341D02*
X6268926Y-14306865D01*
X6468926Y-14449722D02*
X6468926Y-14316389D01*
X6468926Y-14335437D02*
X6478450Y-14325913D01*
X6478450Y-14325913D02*
X6497498Y-14316389D01*
X6497498Y-14316389D02*
X6526069Y-14316389D01*
X6526069Y-14316389D02*
X6545117Y-14325913D01*
X6545117Y-14325913D02*
X6554641Y-14344961D01*
X6554641Y-14344961D02*
X6554641Y-14449722D01*
X6554641Y-14344961D02*
X6564165Y-14325913D01*
X6564165Y-14325913D02*
X6583212Y-14316389D01*
X6583212Y-14316389D02*
X6611784Y-14316389D01*
X6611784Y-14316389D02*
X6630831Y-14325913D01*
X6630831Y-14325913D02*
X6640355Y-14344961D01*
X6640355Y-14344961D02*
X6640355Y-14449722D01*
X6735593Y-14449722D02*
X6735593Y-14316389D01*
X6735593Y-14335437D02*
X6745117Y-14325913D01*
X6745117Y-14325913D02*
X6764165Y-14316389D01*
X6764165Y-14316389D02*
X6792736Y-14316389D01*
X6792736Y-14316389D02*
X6811784Y-14325913D01*
X6811784Y-14325913D02*
X6821307Y-14344961D01*
X6821307Y-14344961D02*
X6821307Y-14449722D01*
X6821307Y-14344961D02*
X6830831Y-14325913D01*
X6830831Y-14325913D02*
X6849879Y-14316389D01*
X6849879Y-14316389D02*
X6878450Y-14316389D01*
X6878450Y-14316389D02*
X6897498Y-14325913D01*
X6897498Y-14325913D02*
X6907022Y-14344961D01*
X6907022Y-14344961D02*
X6907022Y-14449722D01*
X7297498Y-14240199D02*
X7126069Y-14497341D01*
X7554641Y-14249722D02*
X7573689Y-14249722D01*
X7573689Y-14249722D02*
X7592736Y-14259246D01*
X7592736Y-14259246D02*
X7602260Y-14268770D01*
X7602260Y-14268770D02*
X7611784Y-14287818D01*
X7611784Y-14287818D02*
X7621308Y-14325913D01*
X7621308Y-14325913D02*
X7621308Y-14373532D01*
X7621308Y-14373532D02*
X7611784Y-14411627D01*
X7611784Y-14411627D02*
X7602260Y-14430675D01*
X7602260Y-14430675D02*
X7592736Y-14440199D01*
X7592736Y-14440199D02*
X7573689Y-14449722D01*
X7573689Y-14449722D02*
X7554641Y-14449722D01*
X7554641Y-14449722D02*
X7535593Y-14440199D01*
X7535593Y-14440199D02*
X7526069Y-14430675D01*
X7526069Y-14430675D02*
X7516546Y-14411627D01*
X7516546Y-14411627D02*
X7507022Y-14373532D01*
X7507022Y-14373532D02*
X7507022Y-14325913D01*
X7507022Y-14325913D02*
X7516546Y-14287818D01*
X7516546Y-14287818D02*
X7526069Y-14268770D01*
X7526069Y-14268770D02*
X7535593Y-14259246D01*
X7535593Y-14259246D02*
X7554641Y-14249722D01*
X7707022Y-14430675D02*
X7716546Y-14440199D01*
X7716546Y-14440199D02*
X7707022Y-14449722D01*
X7707022Y-14449722D02*
X7697498Y-14440199D01*
X7697498Y-14440199D02*
X7707022Y-14430675D01*
X7707022Y-14430675D02*
X7707022Y-14449722D01*
X7840355Y-14249722D02*
X7859403Y-14249722D01*
X7859403Y-14249722D02*
X7878450Y-14259246D01*
X7878450Y-14259246D02*
X7887974Y-14268770D01*
X7887974Y-14268770D02*
X7897498Y-14287818D01*
X7897498Y-14287818D02*
X7907022Y-14325913D01*
X7907022Y-14325913D02*
X7907022Y-14373532D01*
X7907022Y-14373532D02*
X7897498Y-14411627D01*
X7897498Y-14411627D02*
X7887974Y-14430675D01*
X7887974Y-14430675D02*
X7878450Y-14440199D01*
X7878450Y-14440199D02*
X7859403Y-14449722D01*
X7859403Y-14449722D02*
X7840355Y-14449722D01*
X7840355Y-14449722D02*
X7821308Y-14440199D01*
X7821308Y-14440199D02*
X7811784Y-14430675D01*
X7811784Y-14430675D02*
X7802260Y-14411627D01*
X7802260Y-14411627D02*
X7792736Y-14373532D01*
X7792736Y-14373532D02*
X7792736Y-14325913D01*
X7792736Y-14325913D02*
X7802260Y-14287818D01*
X7802260Y-14287818D02*
X7811784Y-14268770D01*
X7811784Y-14268770D02*
X7821308Y-14259246D01*
X7821308Y-14259246D02*
X7840355Y-14249722D01*
X7973689Y-14249722D02*
X8097498Y-14249722D01*
X8097498Y-14249722D02*
X8030831Y-14325913D01*
X8030831Y-14325913D02*
X8059403Y-14325913D01*
X8059403Y-14325913D02*
X8078450Y-14335437D01*
X8078450Y-14335437D02*
X8087974Y-14344961D01*
X8087974Y-14344961D02*
X8097498Y-14364008D01*
X8097498Y-14364008D02*
X8097498Y-14411627D01*
X8097498Y-14411627D02*
X8087974Y-14430675D01*
X8087974Y-14430675D02*
X8078450Y-14440199D01*
X8078450Y-14440199D02*
X8059403Y-14449722D01*
X8059403Y-14449722D02*
X8002260Y-14449722D01*
X8002260Y-14449722D02*
X7983212Y-14440199D01*
X7983212Y-14440199D02*
X7973689Y-14430675D01*
X8192736Y-14449722D02*
X8230831Y-14449722D01*
X8230831Y-14449722D02*
X8249879Y-14440199D01*
X8249879Y-14440199D02*
X8259403Y-14430675D01*
X8259403Y-14430675D02*
X8278450Y-14402103D01*
X8278450Y-14402103D02*
X8287974Y-14364008D01*
X8287974Y-14364008D02*
X8287974Y-14287818D01*
X8287974Y-14287818D02*
X8278450Y-14268770D01*
X8278450Y-14268770D02*
X8268927Y-14259246D01*
X8268927Y-14259246D02*
X8249879Y-14249722D01*
X8249879Y-14249722D02*
X8211784Y-14249722D01*
X8211784Y-14249722D02*
X8192736Y-14259246D01*
X8192736Y-14259246D02*
X8183212Y-14268770D01*
X8183212Y-14268770D02*
X8173689Y-14287818D01*
X8173689Y-14287818D02*
X8173689Y-14335437D01*
X8173689Y-14335437D02*
X8183212Y-14354484D01*
X8183212Y-14354484D02*
X8192736Y-14364008D01*
X8192736Y-14364008D02*
X8211784Y-14373532D01*
X8211784Y-14373532D02*
X8249879Y-14373532D01*
X8249879Y-14373532D02*
X8268927Y-14364008D01*
X8268927Y-14364008D02*
X8278450Y-14354484D01*
X8278450Y-14354484D02*
X8287974Y-14335437D01*
X8411784Y-14249722D02*
X8430832Y-14249722D01*
X8430832Y-14249722D02*
X8449879Y-14259246D01*
X8449879Y-14259246D02*
X8459403Y-14268770D01*
X8459403Y-14268770D02*
X8468927Y-14287818D01*
X8468927Y-14287818D02*
X8478451Y-14325913D01*
X8478451Y-14325913D02*
X8478451Y-14373532D01*
X8478451Y-14373532D02*
X8468927Y-14411627D01*
X8468927Y-14411627D02*
X8459403Y-14430675D01*
X8459403Y-14430675D02*
X8449879Y-14440199D01*
X8449879Y-14440199D02*
X8430832Y-14449722D01*
X8430832Y-14449722D02*
X8411784Y-14449722D01*
X8411784Y-14449722D02*
X8392736Y-14440199D01*
X8392736Y-14440199D02*
X8383212Y-14430675D01*
X8383212Y-14430675D02*
X8373689Y-14411627D01*
X8373689Y-14411627D02*
X8364165Y-14373532D01*
X8364165Y-14373532D02*
X8364165Y-14325913D01*
X8364165Y-14325913D02*
X8373689Y-14287818D01*
X8373689Y-14287818D02*
X8383212Y-14268770D01*
X8383212Y-14268770D02*
X8392736Y-14259246D01*
X8392736Y-14259246D02*
X8411784Y-14249722D01*
X8554641Y-14249722D02*
X8554641Y-14287818D01*
X8630832Y-14249722D02*
X8630832Y-14287818D01*
X8926070Y-14525913D02*
X8916546Y-14516389D01*
X8916546Y-14516389D02*
X8897498Y-14487818D01*
X8897498Y-14487818D02*
X8887974Y-14468770D01*
X8887974Y-14468770D02*
X8878451Y-14440199D01*
X8878451Y-14440199D02*
X8868927Y-14392580D01*
X8868927Y-14392580D02*
X8868927Y-14354484D01*
X8868927Y-14354484D02*
X8878451Y-14306865D01*
X8878451Y-14306865D02*
X8887974Y-14278294D01*
X8887974Y-14278294D02*
X8897498Y-14259246D01*
X8897498Y-14259246D02*
X8916546Y-14230675D01*
X8916546Y-14230675D02*
X8926070Y-14221151D01*
X8992736Y-14268770D02*
X9002260Y-14259246D01*
X9002260Y-14259246D02*
X9021308Y-14249722D01*
X9021308Y-14249722D02*
X9068927Y-14249722D01*
X9068927Y-14249722D02*
X9087974Y-14259246D01*
X9087974Y-14259246D02*
X9097498Y-14268770D01*
X9097498Y-14268770D02*
X9107022Y-14287818D01*
X9107022Y-14287818D02*
X9107022Y-14306865D01*
X9107022Y-14306865D02*
X9097498Y-14335437D01*
X9097498Y-14335437D02*
X8983213Y-14449722D01*
X8983213Y-14449722D02*
X9107022Y-14449722D01*
X9345117Y-14449722D02*
X9345117Y-14249722D01*
X9430832Y-14449722D02*
X9430832Y-14344961D01*
X9430832Y-14344961D02*
X9421308Y-14325913D01*
X9421308Y-14325913D02*
X9402260Y-14316389D01*
X9402260Y-14316389D02*
X9373689Y-14316389D01*
X9373689Y-14316389D02*
X9354641Y-14325913D01*
X9354641Y-14325913D02*
X9345117Y-14335437D01*
X9554641Y-14449722D02*
X9535594Y-14440199D01*
X9535594Y-14440199D02*
X9526070Y-14430675D01*
X9526070Y-14430675D02*
X9516546Y-14411627D01*
X9516546Y-14411627D02*
X9516546Y-14354484D01*
X9516546Y-14354484D02*
X9526070Y-14335437D01*
X9526070Y-14335437D02*
X9535594Y-14325913D01*
X9535594Y-14325913D02*
X9554641Y-14316389D01*
X9554641Y-14316389D02*
X9583213Y-14316389D01*
X9583213Y-14316389D02*
X9602260Y-14325913D01*
X9602260Y-14325913D02*
X9611784Y-14335437D01*
X9611784Y-14335437D02*
X9621308Y-14354484D01*
X9621308Y-14354484D02*
X9621308Y-14411627D01*
X9621308Y-14411627D02*
X9611784Y-14430675D01*
X9611784Y-14430675D02*
X9602260Y-14440199D01*
X9602260Y-14440199D02*
X9583213Y-14449722D01*
X9583213Y-14449722D02*
X9554641Y-14449722D01*
X9735594Y-14449722D02*
X9716546Y-14440199D01*
X9716546Y-14440199D02*
X9707022Y-14421151D01*
X9707022Y-14421151D02*
X9707022Y-14249722D01*
X9887975Y-14440199D02*
X9868927Y-14449722D01*
X9868927Y-14449722D02*
X9830832Y-14449722D01*
X9830832Y-14449722D02*
X9811784Y-14440199D01*
X9811784Y-14440199D02*
X9802260Y-14421151D01*
X9802260Y-14421151D02*
X9802260Y-14344961D01*
X9802260Y-14344961D02*
X9811784Y-14325913D01*
X9811784Y-14325913D02*
X9830832Y-14316389D01*
X9830832Y-14316389D02*
X9868927Y-14316389D01*
X9868927Y-14316389D02*
X9887975Y-14325913D01*
X9887975Y-14325913D02*
X9897498Y-14344961D01*
X9897498Y-14344961D02*
X9897498Y-14364008D01*
X9897498Y-14364008D02*
X9802260Y-14383056D01*
X9973689Y-14440199D02*
X9992736Y-14449722D01*
X9992736Y-14449722D02*
X10030832Y-14449722D01*
X10030832Y-14449722D02*
X10049879Y-14440199D01*
X10049879Y-14440199D02*
X10059403Y-14421151D01*
X10059403Y-14421151D02*
X10059403Y-14411627D01*
X10059403Y-14411627D02*
X10049879Y-14392580D01*
X10049879Y-14392580D02*
X10030832Y-14383056D01*
X10030832Y-14383056D02*
X10002260Y-14383056D01*
X10002260Y-14383056D02*
X9983213Y-14373532D01*
X9983213Y-14373532D02*
X9973689Y-14354484D01*
X9973689Y-14354484D02*
X9973689Y-14344961D01*
X9973689Y-14344961D02*
X9983213Y-14325913D01*
X9983213Y-14325913D02*
X10002260Y-14316389D01*
X10002260Y-14316389D02*
X10030832Y-14316389D01*
X10030832Y-14316389D02*
X10049879Y-14325913D01*
X10126070Y-14525913D02*
X10135594Y-14516389D01*
X10135594Y-14516389D02*
X10154641Y-14487818D01*
X10154641Y-14487818D02*
X10164165Y-14468770D01*
X10164165Y-14468770D02*
X10173689Y-14440199D01*
X10173689Y-14440199D02*
X10183213Y-14392580D01*
X10183213Y-14392580D02*
X10183213Y-14354484D01*
X10183213Y-14354484D02*
X10173689Y-14306865D01*
X10173689Y-14306865D02*
X10164165Y-14278294D01*
X10164165Y-14278294D02*
X10154641Y-14259246D01*
X10154641Y-14259246D02*
X10135594Y-14230675D01*
X10135594Y-14230675D02*
X10126070Y-14221151D01*
X10487975Y-14525913D02*
X10478451Y-14516389D01*
X10478451Y-14516389D02*
X10459403Y-14487818D01*
X10459403Y-14487818D02*
X10449879Y-14468770D01*
X10449879Y-14468770D02*
X10440356Y-14440199D01*
X10440356Y-14440199D02*
X10430832Y-14392580D01*
X10430832Y-14392580D02*
X10430832Y-14354484D01*
X10430832Y-14354484D02*
X10440356Y-14306865D01*
X10440356Y-14306865D02*
X10449879Y-14278294D01*
X10449879Y-14278294D02*
X10459403Y-14259246D01*
X10459403Y-14259246D02*
X10478451Y-14230675D01*
X10478451Y-14230675D02*
X10487975Y-14221151D01*
X10564165Y-14316389D02*
X10564165Y-14449722D01*
X10564165Y-14335437D02*
X10573689Y-14325913D01*
X10573689Y-14325913D02*
X10592736Y-14316389D01*
X10592736Y-14316389D02*
X10621308Y-14316389D01*
X10621308Y-14316389D02*
X10640356Y-14325913D01*
X10640356Y-14325913D02*
X10649879Y-14344961D01*
X10649879Y-14344961D02*
X10649879Y-14449722D01*
X10773689Y-14449722D02*
X10754641Y-14440199D01*
X10754641Y-14440199D02*
X10745117Y-14430675D01*
X10745117Y-14430675D02*
X10735594Y-14411627D01*
X10735594Y-14411627D02*
X10735594Y-14354484D01*
X10735594Y-14354484D02*
X10745117Y-14335437D01*
X10745117Y-14335437D02*
X10754641Y-14325913D01*
X10754641Y-14325913D02*
X10773689Y-14316389D01*
X10773689Y-14316389D02*
X10802260Y-14316389D01*
X10802260Y-14316389D02*
X10821308Y-14325913D01*
X10821308Y-14325913D02*
X10830832Y-14335437D01*
X10830832Y-14335437D02*
X10840356Y-14354484D01*
X10840356Y-14354484D02*
X10840356Y-14411627D01*
X10840356Y-14411627D02*
X10830832Y-14430675D01*
X10830832Y-14430675D02*
X10821308Y-14440199D01*
X10821308Y-14440199D02*
X10802260Y-14449722D01*
X10802260Y-14449722D02*
X10773689Y-14449722D01*
X10897498Y-14316389D02*
X10973689Y-14316389D01*
X10926070Y-14249722D02*
X10926070Y-14421151D01*
X10926070Y-14421151D02*
X10935594Y-14440199D01*
X10935594Y-14440199D02*
X10954641Y-14449722D01*
X10954641Y-14449722D02*
X10973689Y-14449722D01*
X11192736Y-14316389D02*
X11192736Y-14516389D01*
X11192736Y-14325913D02*
X11211784Y-14316389D01*
X11211784Y-14316389D02*
X11249879Y-14316389D01*
X11249879Y-14316389D02*
X11268927Y-14325913D01*
X11268927Y-14325913D02*
X11278451Y-14335437D01*
X11278451Y-14335437D02*
X11287975Y-14354484D01*
X11287975Y-14354484D02*
X11287975Y-14411627D01*
X11287975Y-14411627D02*
X11278451Y-14430675D01*
X11278451Y-14430675D02*
X11268927Y-14440199D01*
X11268927Y-14440199D02*
X11249879Y-14449722D01*
X11249879Y-14449722D02*
X11211784Y-14449722D01*
X11211784Y-14449722D02*
X11192736Y-14440199D01*
X11402260Y-14449722D02*
X11383213Y-14440199D01*
X11383213Y-14440199D02*
X11373689Y-14421151D01*
X11373689Y-14421151D02*
X11373689Y-14249722D01*
X11564165Y-14449722D02*
X11564165Y-14344961D01*
X11564165Y-14344961D02*
X11554641Y-14325913D01*
X11554641Y-14325913D02*
X11535594Y-14316389D01*
X11535594Y-14316389D02*
X11497498Y-14316389D01*
X11497498Y-14316389D02*
X11478451Y-14325913D01*
X11564165Y-14440199D02*
X11545117Y-14449722D01*
X11545117Y-14449722D02*
X11497498Y-14449722D01*
X11497498Y-14449722D02*
X11478451Y-14440199D01*
X11478451Y-14440199D02*
X11468927Y-14421151D01*
X11468927Y-14421151D02*
X11468927Y-14402103D01*
X11468927Y-14402103D02*
X11478451Y-14383056D01*
X11478451Y-14383056D02*
X11497498Y-14373532D01*
X11497498Y-14373532D02*
X11545117Y-14373532D01*
X11545117Y-14373532D02*
X11564165Y-14364008D01*
X11630832Y-14316389D02*
X11707022Y-14316389D01*
X11659403Y-14249722D02*
X11659403Y-14421151D01*
X11659403Y-14421151D02*
X11668927Y-14440199D01*
X11668927Y-14440199D02*
X11687975Y-14449722D01*
X11687975Y-14449722D02*
X11707022Y-14449722D01*
X11849879Y-14440199D02*
X11830832Y-14449722D01*
X11830832Y-14449722D02*
X11792736Y-14449722D01*
X11792736Y-14449722D02*
X11773689Y-14440199D01*
X11773689Y-14440199D02*
X11764165Y-14421151D01*
X11764165Y-14421151D02*
X11764165Y-14344961D01*
X11764165Y-14344961D02*
X11773689Y-14325913D01*
X11773689Y-14325913D02*
X11792736Y-14316389D01*
X11792736Y-14316389D02*
X11830832Y-14316389D01*
X11830832Y-14316389D02*
X11849879Y-14325913D01*
X11849879Y-14325913D02*
X11859403Y-14344961D01*
X11859403Y-14344961D02*
X11859403Y-14364008D01*
X11859403Y-14364008D02*
X11764165Y-14383056D01*
X12030832Y-14449722D02*
X12030832Y-14249722D01*
X12030832Y-14440199D02*
X12011784Y-14449722D01*
X12011784Y-14449722D02*
X11973689Y-14449722D01*
X11973689Y-14449722D02*
X11954641Y-14440199D01*
X11954641Y-14440199D02*
X11945117Y-14430675D01*
X11945117Y-14430675D02*
X11935594Y-14411627D01*
X11935594Y-14411627D02*
X11935594Y-14354484D01*
X11935594Y-14354484D02*
X11945117Y-14335437D01*
X11945117Y-14335437D02*
X11954641Y-14325913D01*
X11954641Y-14325913D02*
X11973689Y-14316389D01*
X11973689Y-14316389D02*
X12011784Y-14316389D01*
X12011784Y-14316389D02*
X12030832Y-14325913D01*
X12107022Y-14525913D02*
X12116546Y-14516389D01*
X12116546Y-14516389D02*
X12135594Y-14487818D01*
X12135594Y-14487818D02*
X12145117Y-14468770D01*
X12145117Y-14468770D02*
X12154641Y-14440199D01*
X12154641Y-14440199D02*
X12164165Y-14392580D01*
X12164165Y-14392580D02*
X12164165Y-14354484D01*
X12164165Y-14354484D02*
X12154641Y-14306865D01*
X12154641Y-14306865D02*
X12145117Y-14278294D01*
X12145117Y-14278294D02*
X12135594Y-14259246D01*
X12135594Y-14259246D02*
X12116546Y-14230675D01*
X12116546Y-14230675D02*
X12107022Y-14221151D01*
D13*
X5265917Y-14537149D02*
X5265917Y-14707329D01*
X5180827Y-14622239D02*
X5351007Y-14622239D01*
D11*
X5716545Y-14713722D02*
X5602260Y-14713722D01*
X5659403Y-14713722D02*
X5659403Y-14513722D01*
X5659403Y-14513722D02*
X5640355Y-14542294D01*
X5640355Y-14542294D02*
X5621307Y-14561341D01*
X5621307Y-14561341D02*
X5602260Y-14570865D01*
X5802260Y-14694675D02*
X5811784Y-14704199D01*
X5811784Y-14704199D02*
X5802260Y-14713722D01*
X5802260Y-14713722D02*
X5792736Y-14704199D01*
X5792736Y-14704199D02*
X5802260Y-14694675D01*
X5802260Y-14694675D02*
X5802260Y-14713722D01*
X5878450Y-14513722D02*
X6011784Y-14513722D01*
X6011784Y-14513722D02*
X5926069Y-14713722D01*
X6126069Y-14513722D02*
X6145117Y-14513722D01*
X6145117Y-14513722D02*
X6164165Y-14523246D01*
X6164165Y-14523246D02*
X6173688Y-14532770D01*
X6173688Y-14532770D02*
X6183212Y-14551818D01*
X6183212Y-14551818D02*
X6192736Y-14589913D01*
X6192736Y-14589913D02*
X6192736Y-14637532D01*
X6192736Y-14637532D02*
X6183212Y-14675627D01*
X6183212Y-14675627D02*
X6173688Y-14694675D01*
X6173688Y-14694675D02*
X6164165Y-14704199D01*
X6164165Y-14704199D02*
X6145117Y-14713722D01*
X6145117Y-14713722D02*
X6126069Y-14713722D01*
X6126069Y-14713722D02*
X6107022Y-14704199D01*
X6107022Y-14704199D02*
X6097498Y-14694675D01*
X6097498Y-14694675D02*
X6087974Y-14675627D01*
X6087974Y-14675627D02*
X6078450Y-14637532D01*
X6078450Y-14637532D02*
X6078450Y-14589913D01*
X6078450Y-14589913D02*
X6087974Y-14551818D01*
X6087974Y-14551818D02*
X6097498Y-14532770D01*
X6097498Y-14532770D02*
X6107022Y-14523246D01*
X6107022Y-14523246D02*
X6126069Y-14513722D01*
X6268926Y-14532770D02*
X6278450Y-14523246D01*
X6278450Y-14523246D02*
X6297498Y-14513722D01*
X6297498Y-14513722D02*
X6345117Y-14513722D01*
X6345117Y-14513722D02*
X6364165Y-14523246D01*
X6364165Y-14523246D02*
X6373688Y-14532770D01*
X6373688Y-14532770D02*
X6383212Y-14551818D01*
X6383212Y-14551818D02*
X6383212Y-14570865D01*
X6383212Y-14570865D02*
X6373688Y-14599437D01*
X6373688Y-14599437D02*
X6259403Y-14713722D01*
X6259403Y-14713722D02*
X6383212Y-14713722D01*
X6468926Y-14713722D02*
X6468926Y-14580389D01*
X6468926Y-14599437D02*
X6478450Y-14589913D01*
X6478450Y-14589913D02*
X6497498Y-14580389D01*
X6497498Y-14580389D02*
X6526069Y-14580389D01*
X6526069Y-14580389D02*
X6545117Y-14589913D01*
X6545117Y-14589913D02*
X6554641Y-14608961D01*
X6554641Y-14608961D02*
X6554641Y-14713722D01*
X6554641Y-14608961D02*
X6564165Y-14589913D01*
X6564165Y-14589913D02*
X6583212Y-14580389D01*
X6583212Y-14580389D02*
X6611784Y-14580389D01*
X6611784Y-14580389D02*
X6630831Y-14589913D01*
X6630831Y-14589913D02*
X6640355Y-14608961D01*
X6640355Y-14608961D02*
X6640355Y-14713722D01*
X6735593Y-14713722D02*
X6735593Y-14580389D01*
X6735593Y-14599437D02*
X6745117Y-14589913D01*
X6745117Y-14589913D02*
X6764165Y-14580389D01*
X6764165Y-14580389D02*
X6792736Y-14580389D01*
X6792736Y-14580389D02*
X6811784Y-14589913D01*
X6811784Y-14589913D02*
X6821307Y-14608961D01*
X6821307Y-14608961D02*
X6821307Y-14713722D01*
X6821307Y-14608961D02*
X6830831Y-14589913D01*
X6830831Y-14589913D02*
X6849879Y-14580389D01*
X6849879Y-14580389D02*
X6878450Y-14580389D01*
X6878450Y-14580389D02*
X6897498Y-14589913D01*
X6897498Y-14589913D02*
X6907022Y-14608961D01*
X6907022Y-14608961D02*
X6907022Y-14713722D01*
X7297498Y-14504199D02*
X7126069Y-14761341D01*
X7554641Y-14513722D02*
X7573689Y-14513722D01*
X7573689Y-14513722D02*
X7592736Y-14523246D01*
X7592736Y-14523246D02*
X7602260Y-14532770D01*
X7602260Y-14532770D02*
X7611784Y-14551818D01*
X7611784Y-14551818D02*
X7621308Y-14589913D01*
X7621308Y-14589913D02*
X7621308Y-14637532D01*
X7621308Y-14637532D02*
X7611784Y-14675627D01*
X7611784Y-14675627D02*
X7602260Y-14694675D01*
X7602260Y-14694675D02*
X7592736Y-14704199D01*
X7592736Y-14704199D02*
X7573689Y-14713722D01*
X7573689Y-14713722D02*
X7554641Y-14713722D01*
X7554641Y-14713722D02*
X7535593Y-14704199D01*
X7535593Y-14704199D02*
X7526069Y-14694675D01*
X7526069Y-14694675D02*
X7516546Y-14675627D01*
X7516546Y-14675627D02*
X7507022Y-14637532D01*
X7507022Y-14637532D02*
X7507022Y-14589913D01*
X7507022Y-14589913D02*
X7516546Y-14551818D01*
X7516546Y-14551818D02*
X7526069Y-14532770D01*
X7526069Y-14532770D02*
X7535593Y-14523246D01*
X7535593Y-14523246D02*
X7554641Y-14513722D01*
X7707022Y-14694675D02*
X7716546Y-14704199D01*
X7716546Y-14704199D02*
X7707022Y-14713722D01*
X7707022Y-14713722D02*
X7697498Y-14704199D01*
X7697498Y-14704199D02*
X7707022Y-14694675D01*
X7707022Y-14694675D02*
X7707022Y-14713722D01*
X7840355Y-14513722D02*
X7859403Y-14513722D01*
X7859403Y-14513722D02*
X7878450Y-14523246D01*
X7878450Y-14523246D02*
X7887974Y-14532770D01*
X7887974Y-14532770D02*
X7897498Y-14551818D01*
X7897498Y-14551818D02*
X7907022Y-14589913D01*
X7907022Y-14589913D02*
X7907022Y-14637532D01*
X7907022Y-14637532D02*
X7897498Y-14675627D01*
X7897498Y-14675627D02*
X7887974Y-14694675D01*
X7887974Y-14694675D02*
X7878450Y-14704199D01*
X7878450Y-14704199D02*
X7859403Y-14713722D01*
X7859403Y-14713722D02*
X7840355Y-14713722D01*
X7840355Y-14713722D02*
X7821308Y-14704199D01*
X7821308Y-14704199D02*
X7811784Y-14694675D01*
X7811784Y-14694675D02*
X7802260Y-14675627D01*
X7802260Y-14675627D02*
X7792736Y-14637532D01*
X7792736Y-14637532D02*
X7792736Y-14589913D01*
X7792736Y-14589913D02*
X7802260Y-14551818D01*
X7802260Y-14551818D02*
X7811784Y-14532770D01*
X7811784Y-14532770D02*
X7821308Y-14523246D01*
X7821308Y-14523246D02*
X7840355Y-14513722D01*
X8078450Y-14513722D02*
X8040355Y-14513722D01*
X8040355Y-14513722D02*
X8021308Y-14523246D01*
X8021308Y-14523246D02*
X8011784Y-14532770D01*
X8011784Y-14532770D02*
X7992736Y-14561341D01*
X7992736Y-14561341D02*
X7983212Y-14599437D01*
X7983212Y-14599437D02*
X7983212Y-14675627D01*
X7983212Y-14675627D02*
X7992736Y-14694675D01*
X7992736Y-14694675D02*
X8002260Y-14704199D01*
X8002260Y-14704199D02*
X8021308Y-14713722D01*
X8021308Y-14713722D02*
X8059403Y-14713722D01*
X8059403Y-14713722D02*
X8078450Y-14704199D01*
X8078450Y-14704199D02*
X8087974Y-14694675D01*
X8087974Y-14694675D02*
X8097498Y-14675627D01*
X8097498Y-14675627D02*
X8097498Y-14628008D01*
X8097498Y-14628008D02*
X8087974Y-14608961D01*
X8087974Y-14608961D02*
X8078450Y-14599437D01*
X8078450Y-14599437D02*
X8059403Y-14589913D01*
X8059403Y-14589913D02*
X8021308Y-14589913D01*
X8021308Y-14589913D02*
X8002260Y-14599437D01*
X8002260Y-14599437D02*
X7992736Y-14608961D01*
X7992736Y-14608961D02*
X7983212Y-14628008D01*
X8164165Y-14513722D02*
X8297498Y-14513722D01*
X8297498Y-14513722D02*
X8211784Y-14713722D01*
X8411784Y-14513722D02*
X8430832Y-14513722D01*
X8430832Y-14513722D02*
X8449879Y-14523246D01*
X8449879Y-14523246D02*
X8459403Y-14532770D01*
X8459403Y-14532770D02*
X8468927Y-14551818D01*
X8468927Y-14551818D02*
X8478451Y-14589913D01*
X8478451Y-14589913D02*
X8478451Y-14637532D01*
X8478451Y-14637532D02*
X8468927Y-14675627D01*
X8468927Y-14675627D02*
X8459403Y-14694675D01*
X8459403Y-14694675D02*
X8449879Y-14704199D01*
X8449879Y-14704199D02*
X8430832Y-14713722D01*
X8430832Y-14713722D02*
X8411784Y-14713722D01*
X8411784Y-14713722D02*
X8392736Y-14704199D01*
X8392736Y-14704199D02*
X8383212Y-14694675D01*
X8383212Y-14694675D02*
X8373689Y-14675627D01*
X8373689Y-14675627D02*
X8364165Y-14637532D01*
X8364165Y-14637532D02*
X8364165Y-14589913D01*
X8364165Y-14589913D02*
X8373689Y-14551818D01*
X8373689Y-14551818D02*
X8383212Y-14532770D01*
X8383212Y-14532770D02*
X8392736Y-14523246D01*
X8392736Y-14523246D02*
X8411784Y-14513722D01*
X8554641Y-14513722D02*
X8554641Y-14551818D01*
X8630832Y-14513722D02*
X8630832Y-14551818D01*
X8926070Y-14789913D02*
X8916546Y-14780389D01*
X8916546Y-14780389D02*
X8897498Y-14751818D01*
X8897498Y-14751818D02*
X8887974Y-14732770D01*
X8887974Y-14732770D02*
X8878451Y-14704199D01*
X8878451Y-14704199D02*
X8868927Y-14656580D01*
X8868927Y-14656580D02*
X8868927Y-14618484D01*
X8868927Y-14618484D02*
X8878451Y-14570865D01*
X8878451Y-14570865D02*
X8887974Y-14542294D01*
X8887974Y-14542294D02*
X8897498Y-14523246D01*
X8897498Y-14523246D02*
X8916546Y-14494675D01*
X8916546Y-14494675D02*
X8926070Y-14485151D01*
X9030832Y-14599437D02*
X9011784Y-14589913D01*
X9011784Y-14589913D02*
X9002260Y-14580389D01*
X9002260Y-14580389D02*
X8992736Y-14561341D01*
X8992736Y-14561341D02*
X8992736Y-14551818D01*
X8992736Y-14551818D02*
X9002260Y-14532770D01*
X9002260Y-14532770D02*
X9011784Y-14523246D01*
X9011784Y-14523246D02*
X9030832Y-14513722D01*
X9030832Y-14513722D02*
X9068927Y-14513722D01*
X9068927Y-14513722D02*
X9087974Y-14523246D01*
X9087974Y-14523246D02*
X9097498Y-14532770D01*
X9097498Y-14532770D02*
X9107022Y-14551818D01*
X9107022Y-14551818D02*
X9107022Y-14561341D01*
X9107022Y-14561341D02*
X9097498Y-14580389D01*
X9097498Y-14580389D02*
X9087974Y-14589913D01*
X9087974Y-14589913D02*
X9068927Y-14599437D01*
X9068927Y-14599437D02*
X9030832Y-14599437D01*
X9030832Y-14599437D02*
X9011784Y-14608961D01*
X9011784Y-14608961D02*
X9002260Y-14618484D01*
X9002260Y-14618484D02*
X8992736Y-14637532D01*
X8992736Y-14637532D02*
X8992736Y-14675627D01*
X8992736Y-14675627D02*
X9002260Y-14694675D01*
X9002260Y-14694675D02*
X9011784Y-14704199D01*
X9011784Y-14704199D02*
X9030832Y-14713722D01*
X9030832Y-14713722D02*
X9068927Y-14713722D01*
X9068927Y-14713722D02*
X9087974Y-14704199D01*
X9087974Y-14704199D02*
X9097498Y-14694675D01*
X9097498Y-14694675D02*
X9107022Y-14675627D01*
X9107022Y-14675627D02*
X9107022Y-14637532D01*
X9107022Y-14637532D02*
X9097498Y-14618484D01*
X9097498Y-14618484D02*
X9087974Y-14608961D01*
X9087974Y-14608961D02*
X9068927Y-14599437D01*
X9183213Y-14532770D02*
X9192736Y-14523246D01*
X9192736Y-14523246D02*
X9211784Y-14513722D01*
X9211784Y-14513722D02*
X9259403Y-14513722D01*
X9259403Y-14513722D02*
X9278451Y-14523246D01*
X9278451Y-14523246D02*
X9287974Y-14532770D01*
X9287974Y-14532770D02*
X9297498Y-14551818D01*
X9297498Y-14551818D02*
X9297498Y-14570865D01*
X9297498Y-14570865D02*
X9287974Y-14599437D01*
X9287974Y-14599437D02*
X9173689Y-14713722D01*
X9173689Y-14713722D02*
X9297498Y-14713722D01*
X9535594Y-14713722D02*
X9535594Y-14513722D01*
X9621308Y-14713722D02*
X9621308Y-14608961D01*
X9621308Y-14608961D02*
X9611784Y-14589913D01*
X9611784Y-14589913D02*
X9592736Y-14580389D01*
X9592736Y-14580389D02*
X9564165Y-14580389D01*
X9564165Y-14580389D02*
X9545117Y-14589913D01*
X9545117Y-14589913D02*
X9535594Y-14599437D01*
X9745117Y-14713722D02*
X9726070Y-14704199D01*
X9726070Y-14704199D02*
X9716546Y-14694675D01*
X9716546Y-14694675D02*
X9707022Y-14675627D01*
X9707022Y-14675627D02*
X9707022Y-14618484D01*
X9707022Y-14618484D02*
X9716546Y-14599437D01*
X9716546Y-14599437D02*
X9726070Y-14589913D01*
X9726070Y-14589913D02*
X9745117Y-14580389D01*
X9745117Y-14580389D02*
X9773689Y-14580389D01*
X9773689Y-14580389D02*
X9792736Y-14589913D01*
X9792736Y-14589913D02*
X9802260Y-14599437D01*
X9802260Y-14599437D02*
X9811784Y-14618484D01*
X9811784Y-14618484D02*
X9811784Y-14675627D01*
X9811784Y-14675627D02*
X9802260Y-14694675D01*
X9802260Y-14694675D02*
X9792736Y-14704199D01*
X9792736Y-14704199D02*
X9773689Y-14713722D01*
X9773689Y-14713722D02*
X9745117Y-14713722D01*
X9926070Y-14713722D02*
X9907022Y-14704199D01*
X9907022Y-14704199D02*
X9897498Y-14685151D01*
X9897498Y-14685151D02*
X9897498Y-14513722D01*
X10078451Y-14704199D02*
X10059403Y-14713722D01*
X10059403Y-14713722D02*
X10021308Y-14713722D01*
X10021308Y-14713722D02*
X10002260Y-14704199D01*
X10002260Y-14704199D02*
X9992736Y-14685151D01*
X9992736Y-14685151D02*
X9992736Y-14608961D01*
X9992736Y-14608961D02*
X10002260Y-14589913D01*
X10002260Y-14589913D02*
X10021308Y-14580389D01*
X10021308Y-14580389D02*
X10059403Y-14580389D01*
X10059403Y-14580389D02*
X10078451Y-14589913D01*
X10078451Y-14589913D02*
X10087975Y-14608961D01*
X10087975Y-14608961D02*
X10087975Y-14628008D01*
X10087975Y-14628008D02*
X9992736Y-14647056D01*
X10164165Y-14704199D02*
X10183213Y-14713722D01*
X10183213Y-14713722D02*
X10221308Y-14713722D01*
X10221308Y-14713722D02*
X10240356Y-14704199D01*
X10240356Y-14704199D02*
X10249879Y-14685151D01*
X10249879Y-14685151D02*
X10249879Y-14675627D01*
X10249879Y-14675627D02*
X10240356Y-14656580D01*
X10240356Y-14656580D02*
X10221308Y-14647056D01*
X10221308Y-14647056D02*
X10192736Y-14647056D01*
X10192736Y-14647056D02*
X10173689Y-14637532D01*
X10173689Y-14637532D02*
X10164165Y-14618484D01*
X10164165Y-14618484D02*
X10164165Y-14608961D01*
X10164165Y-14608961D02*
X10173689Y-14589913D01*
X10173689Y-14589913D02*
X10192736Y-14580389D01*
X10192736Y-14580389D02*
X10221308Y-14580389D01*
X10221308Y-14580389D02*
X10240356Y-14589913D01*
X10316546Y-14789913D02*
X10326070Y-14780389D01*
X10326070Y-14780389D02*
X10345117Y-14751818D01*
X10345117Y-14751818D02*
X10354641Y-14732770D01*
X10354641Y-14732770D02*
X10364165Y-14704199D01*
X10364165Y-14704199D02*
X10373689Y-14656580D01*
X10373689Y-14656580D02*
X10373689Y-14618484D01*
X10373689Y-14618484D02*
X10364165Y-14570865D01*
X10364165Y-14570865D02*
X10354641Y-14542294D01*
X10354641Y-14542294D02*
X10345117Y-14523246D01*
X10345117Y-14523246D02*
X10326070Y-14494675D01*
X10326070Y-14494675D02*
X10316546Y-14485151D01*
X10678451Y-14789913D02*
X10668927Y-14780389D01*
X10668927Y-14780389D02*
X10649879Y-14751818D01*
X10649879Y-14751818D02*
X10640356Y-14732770D01*
X10640356Y-14732770D02*
X10630832Y-14704199D01*
X10630832Y-14704199D02*
X10621308Y-14656580D01*
X10621308Y-14656580D02*
X10621308Y-14618484D01*
X10621308Y-14618484D02*
X10630832Y-14570865D01*
X10630832Y-14570865D02*
X10640356Y-14542294D01*
X10640356Y-14542294D02*
X10649879Y-14523246D01*
X10649879Y-14523246D02*
X10668927Y-14494675D01*
X10668927Y-14494675D02*
X10678451Y-14485151D01*
X10754641Y-14580389D02*
X10754641Y-14713722D01*
X10754641Y-14599437D02*
X10764165Y-14589913D01*
X10764165Y-14589913D02*
X10783213Y-14580389D01*
X10783213Y-14580389D02*
X10811784Y-14580389D01*
X10811784Y-14580389D02*
X10830832Y-14589913D01*
X10830832Y-14589913D02*
X10840356Y-14608961D01*
X10840356Y-14608961D02*
X10840356Y-14713722D01*
X10964165Y-14713722D02*
X10945117Y-14704199D01*
X10945117Y-14704199D02*
X10935594Y-14694675D01*
X10935594Y-14694675D02*
X10926070Y-14675627D01*
X10926070Y-14675627D02*
X10926070Y-14618484D01*
X10926070Y-14618484D02*
X10935594Y-14599437D01*
X10935594Y-14599437D02*
X10945117Y-14589913D01*
X10945117Y-14589913D02*
X10964165Y-14580389D01*
X10964165Y-14580389D02*
X10992737Y-14580389D01*
X10992737Y-14580389D02*
X11011784Y-14589913D01*
X11011784Y-14589913D02*
X11021308Y-14599437D01*
X11021308Y-14599437D02*
X11030832Y-14618484D01*
X11030832Y-14618484D02*
X11030832Y-14675627D01*
X11030832Y-14675627D02*
X11021308Y-14694675D01*
X11021308Y-14694675D02*
X11011784Y-14704199D01*
X11011784Y-14704199D02*
X10992737Y-14713722D01*
X10992737Y-14713722D02*
X10964165Y-14713722D01*
X11087975Y-14580389D02*
X11164165Y-14580389D01*
X11116546Y-14513722D02*
X11116546Y-14685151D01*
X11116546Y-14685151D02*
X11126070Y-14704199D01*
X11126070Y-14704199D02*
X11145117Y-14713722D01*
X11145117Y-14713722D02*
X11164165Y-14713722D01*
X11383213Y-14580389D02*
X11383213Y-14780389D01*
X11383213Y-14589913D02*
X11402260Y-14580389D01*
X11402260Y-14580389D02*
X11440356Y-14580389D01*
X11440356Y-14580389D02*
X11459403Y-14589913D01*
X11459403Y-14589913D02*
X11468927Y-14599437D01*
X11468927Y-14599437D02*
X11478451Y-14618484D01*
X11478451Y-14618484D02*
X11478451Y-14675627D01*
X11478451Y-14675627D02*
X11468927Y-14694675D01*
X11468927Y-14694675D02*
X11459403Y-14704199D01*
X11459403Y-14704199D02*
X11440356Y-14713722D01*
X11440356Y-14713722D02*
X11402260Y-14713722D01*
X11402260Y-14713722D02*
X11383213Y-14704199D01*
X11592736Y-14713722D02*
X11573689Y-14704199D01*
X11573689Y-14704199D02*
X11564165Y-14685151D01*
X11564165Y-14685151D02*
X11564165Y-14513722D01*
X11754641Y-14713722D02*
X11754641Y-14608961D01*
X11754641Y-14608961D02*
X11745117Y-14589913D01*
X11745117Y-14589913D02*
X11726070Y-14580389D01*
X11726070Y-14580389D02*
X11687975Y-14580389D01*
X11687975Y-14580389D02*
X11668927Y-14589913D01*
X11754641Y-14704199D02*
X11735594Y-14713722D01*
X11735594Y-14713722D02*
X11687975Y-14713722D01*
X11687975Y-14713722D02*
X11668927Y-14704199D01*
X11668927Y-14704199D02*
X11659403Y-14685151D01*
X11659403Y-14685151D02*
X11659403Y-14666103D01*
X11659403Y-14666103D02*
X11668927Y-14647056D01*
X11668927Y-14647056D02*
X11687975Y-14637532D01*
X11687975Y-14637532D02*
X11735594Y-14637532D01*
X11735594Y-14637532D02*
X11754641Y-14628008D01*
X11821308Y-14580389D02*
X11897498Y-14580389D01*
X11849879Y-14513722D02*
X11849879Y-14685151D01*
X11849879Y-14685151D02*
X11859403Y-14704199D01*
X11859403Y-14704199D02*
X11878451Y-14713722D01*
X11878451Y-14713722D02*
X11897498Y-14713722D01*
X12040356Y-14704199D02*
X12021308Y-14713722D01*
X12021308Y-14713722D02*
X11983213Y-14713722D01*
X11983213Y-14713722D02*
X11964165Y-14704199D01*
X11964165Y-14704199D02*
X11954641Y-14685151D01*
X11954641Y-14685151D02*
X11954641Y-14608961D01*
X11954641Y-14608961D02*
X11964165Y-14589913D01*
X11964165Y-14589913D02*
X11983213Y-14580389D01*
X11983213Y-14580389D02*
X12021308Y-14580389D01*
X12021308Y-14580389D02*
X12040356Y-14589913D01*
X12040356Y-14589913D02*
X12049879Y-14608961D01*
X12049879Y-14608961D02*
X12049879Y-14628008D01*
X12049879Y-14628008D02*
X11954641Y-14647056D01*
X12221308Y-14713722D02*
X12221308Y-14513722D01*
X12221308Y-14704199D02*
X12202260Y-14713722D01*
X12202260Y-14713722D02*
X12164165Y-14713722D01*
X12164165Y-14713722D02*
X12145117Y-14704199D01*
X12145117Y-14704199D02*
X12135594Y-14694675D01*
X12135594Y-14694675D02*
X12126070Y-14675627D01*
X12126070Y-14675627D02*
X12126070Y-14618484D01*
X12126070Y-14618484D02*
X12135594Y-14599437D01*
X12135594Y-14599437D02*
X12145117Y-14589913D01*
X12145117Y-14589913D02*
X12164165Y-14580389D01*
X12164165Y-14580389D02*
X12202260Y-14580389D01*
X12202260Y-14580389D02*
X12221308Y-14589913D01*
X12297498Y-14789913D02*
X12307022Y-14780389D01*
X12307022Y-14780389D02*
X12326070Y-14751818D01*
X12326070Y-14751818D02*
X12335594Y-14732770D01*
X12335594Y-14732770D02*
X12345117Y-14704199D01*
X12345117Y-14704199D02*
X12354641Y-14656580D01*
X12354641Y-14656580D02*
X12354641Y-14618484D01*
X12354641Y-14618484D02*
X12345117Y-14570865D01*
X12345117Y-14570865D02*
X12335594Y-14542294D01*
X12335594Y-14542294D02*
X12326070Y-14523246D01*
X12326070Y-14523246D02*
X12307022Y-14494675D01*
X12307022Y-14494675D02*
X12297498Y-14485151D01*
X5321718Y-14983130D02*
X5321718Y-14841707D01*
X5180295Y-14841707D01*
X5180295Y-14983130D01*
X5321718Y-14983130D01*
X5592736Y-14803902D02*
X5716545Y-14803902D01*
X5716545Y-14803902D02*
X5649879Y-14880093D01*
X5649879Y-14880093D02*
X5678450Y-14880093D01*
X5678450Y-14880093D02*
X5697498Y-14889617D01*
X5697498Y-14889617D02*
X5707022Y-14899141D01*
X5707022Y-14899141D02*
X5716545Y-14918188D01*
X5716545Y-14918188D02*
X5716545Y-14965807D01*
X5716545Y-14965807D02*
X5707022Y-14984855D01*
X5707022Y-14984855D02*
X5697498Y-14994379D01*
X5697498Y-14994379D02*
X5678450Y-15003902D01*
X5678450Y-15003902D02*
X5621307Y-15003902D01*
X5621307Y-15003902D02*
X5602260Y-14994379D01*
X5602260Y-14994379D02*
X5592736Y-14984855D01*
X5802260Y-14984855D02*
X5811784Y-14994379D01*
X5811784Y-14994379D02*
X5802260Y-15003902D01*
X5802260Y-15003902D02*
X5792736Y-14994379D01*
X5792736Y-14994379D02*
X5802260Y-14984855D01*
X5802260Y-14984855D02*
X5802260Y-15003902D01*
X5935593Y-14803902D02*
X5954641Y-14803902D01*
X5954641Y-14803902D02*
X5973688Y-14813426D01*
X5973688Y-14813426D02*
X5983212Y-14822950D01*
X5983212Y-14822950D02*
X5992736Y-14841998D01*
X5992736Y-14841998D02*
X6002260Y-14880093D01*
X6002260Y-14880093D02*
X6002260Y-14927712D01*
X6002260Y-14927712D02*
X5992736Y-14965807D01*
X5992736Y-14965807D02*
X5983212Y-14984855D01*
X5983212Y-14984855D02*
X5973688Y-14994379D01*
X5973688Y-14994379D02*
X5954641Y-15003902D01*
X5954641Y-15003902D02*
X5935593Y-15003902D01*
X5935593Y-15003902D02*
X5916545Y-14994379D01*
X5916545Y-14994379D02*
X5907022Y-14984855D01*
X5907022Y-14984855D02*
X5897498Y-14965807D01*
X5897498Y-14965807D02*
X5887974Y-14927712D01*
X5887974Y-14927712D02*
X5887974Y-14880093D01*
X5887974Y-14880093D02*
X5897498Y-14841998D01*
X5897498Y-14841998D02*
X5907022Y-14822950D01*
X5907022Y-14822950D02*
X5916545Y-14813426D01*
X5916545Y-14813426D02*
X5935593Y-14803902D01*
X6126069Y-14803902D02*
X6145117Y-14803902D01*
X6145117Y-14803902D02*
X6164165Y-14813426D01*
X6164165Y-14813426D02*
X6173688Y-14822950D01*
X6173688Y-14822950D02*
X6183212Y-14841998D01*
X6183212Y-14841998D02*
X6192736Y-14880093D01*
X6192736Y-14880093D02*
X6192736Y-14927712D01*
X6192736Y-14927712D02*
X6183212Y-14965807D01*
X6183212Y-14965807D02*
X6173688Y-14984855D01*
X6173688Y-14984855D02*
X6164165Y-14994379D01*
X6164165Y-14994379D02*
X6145117Y-15003902D01*
X6145117Y-15003902D02*
X6126069Y-15003902D01*
X6126069Y-15003902D02*
X6107022Y-14994379D01*
X6107022Y-14994379D02*
X6097498Y-14984855D01*
X6097498Y-14984855D02*
X6087974Y-14965807D01*
X6087974Y-14965807D02*
X6078450Y-14927712D01*
X6078450Y-14927712D02*
X6078450Y-14880093D01*
X6078450Y-14880093D02*
X6087974Y-14841998D01*
X6087974Y-14841998D02*
X6097498Y-14822950D01*
X6097498Y-14822950D02*
X6107022Y-14813426D01*
X6107022Y-14813426D02*
X6126069Y-14803902D01*
X6316545Y-14803902D02*
X6335593Y-14803902D01*
X6335593Y-14803902D02*
X6354641Y-14813426D01*
X6354641Y-14813426D02*
X6364165Y-14822950D01*
X6364165Y-14822950D02*
X6373688Y-14841998D01*
X6373688Y-14841998D02*
X6383212Y-14880093D01*
X6383212Y-14880093D02*
X6383212Y-14927712D01*
X6383212Y-14927712D02*
X6373688Y-14965807D01*
X6373688Y-14965807D02*
X6364165Y-14984855D01*
X6364165Y-14984855D02*
X6354641Y-14994379D01*
X6354641Y-14994379D02*
X6335593Y-15003902D01*
X6335593Y-15003902D02*
X6316545Y-15003902D01*
X6316545Y-15003902D02*
X6297498Y-14994379D01*
X6297498Y-14994379D02*
X6287974Y-14984855D01*
X6287974Y-14984855D02*
X6278450Y-14965807D01*
X6278450Y-14965807D02*
X6268926Y-14927712D01*
X6268926Y-14927712D02*
X6268926Y-14880093D01*
X6268926Y-14880093D02*
X6278450Y-14841998D01*
X6278450Y-14841998D02*
X6287974Y-14822950D01*
X6287974Y-14822950D02*
X6297498Y-14813426D01*
X6297498Y-14813426D02*
X6316545Y-14803902D01*
X6468926Y-15003902D02*
X6468926Y-14870569D01*
X6468926Y-14889617D02*
X6478450Y-14880093D01*
X6478450Y-14880093D02*
X6497498Y-14870569D01*
X6497498Y-14870569D02*
X6526069Y-14870569D01*
X6526069Y-14870569D02*
X6545117Y-14880093D01*
X6545117Y-14880093D02*
X6554641Y-14899141D01*
X6554641Y-14899141D02*
X6554641Y-15003902D01*
X6554641Y-14899141D02*
X6564165Y-14880093D01*
X6564165Y-14880093D02*
X6583212Y-14870569D01*
X6583212Y-14870569D02*
X6611784Y-14870569D01*
X6611784Y-14870569D02*
X6630831Y-14880093D01*
X6630831Y-14880093D02*
X6640355Y-14899141D01*
X6640355Y-14899141D02*
X6640355Y-15003902D01*
X6735593Y-15003902D02*
X6735593Y-14870569D01*
X6735593Y-14889617D02*
X6745117Y-14880093D01*
X6745117Y-14880093D02*
X6764165Y-14870569D01*
X6764165Y-14870569D02*
X6792736Y-14870569D01*
X6792736Y-14870569D02*
X6811784Y-14880093D01*
X6811784Y-14880093D02*
X6821307Y-14899141D01*
X6821307Y-14899141D02*
X6821307Y-15003902D01*
X6821307Y-14899141D02*
X6830831Y-14880093D01*
X6830831Y-14880093D02*
X6849879Y-14870569D01*
X6849879Y-14870569D02*
X6878450Y-14870569D01*
X6878450Y-14870569D02*
X6897498Y-14880093D01*
X6897498Y-14880093D02*
X6907022Y-14899141D01*
X6907022Y-14899141D02*
X6907022Y-15003902D01*
X7297498Y-14794379D02*
X7126069Y-15051521D01*
X7554641Y-14803902D02*
X7573689Y-14803902D01*
X7573689Y-14803902D02*
X7592736Y-14813426D01*
X7592736Y-14813426D02*
X7602260Y-14822950D01*
X7602260Y-14822950D02*
X7611784Y-14841998D01*
X7611784Y-14841998D02*
X7621308Y-14880093D01*
X7621308Y-14880093D02*
X7621308Y-14927712D01*
X7621308Y-14927712D02*
X7611784Y-14965807D01*
X7611784Y-14965807D02*
X7602260Y-14984855D01*
X7602260Y-14984855D02*
X7592736Y-14994379D01*
X7592736Y-14994379D02*
X7573689Y-15003902D01*
X7573689Y-15003902D02*
X7554641Y-15003902D01*
X7554641Y-15003902D02*
X7535593Y-14994379D01*
X7535593Y-14994379D02*
X7526069Y-14984855D01*
X7526069Y-14984855D02*
X7516546Y-14965807D01*
X7516546Y-14965807D02*
X7507022Y-14927712D01*
X7507022Y-14927712D02*
X7507022Y-14880093D01*
X7507022Y-14880093D02*
X7516546Y-14841998D01*
X7516546Y-14841998D02*
X7526069Y-14822950D01*
X7526069Y-14822950D02*
X7535593Y-14813426D01*
X7535593Y-14813426D02*
X7554641Y-14803902D01*
X7707022Y-14984855D02*
X7716546Y-14994379D01*
X7716546Y-14994379D02*
X7707022Y-15003902D01*
X7707022Y-15003902D02*
X7697498Y-14994379D01*
X7697498Y-14994379D02*
X7707022Y-14984855D01*
X7707022Y-14984855D02*
X7707022Y-15003902D01*
X7907022Y-15003902D02*
X7792736Y-15003902D01*
X7849879Y-15003902D02*
X7849879Y-14803902D01*
X7849879Y-14803902D02*
X7830831Y-14832474D01*
X7830831Y-14832474D02*
X7811784Y-14851521D01*
X7811784Y-14851521D02*
X7792736Y-14861045D01*
X8097498Y-15003902D02*
X7983212Y-15003902D01*
X8040355Y-15003902D02*
X8040355Y-14803902D01*
X8040355Y-14803902D02*
X8021308Y-14832474D01*
X8021308Y-14832474D02*
X8002260Y-14851521D01*
X8002260Y-14851521D02*
X7983212Y-14861045D01*
X8211784Y-14889617D02*
X8192736Y-14880093D01*
X8192736Y-14880093D02*
X8183212Y-14870569D01*
X8183212Y-14870569D02*
X8173689Y-14851521D01*
X8173689Y-14851521D02*
X8173689Y-14841998D01*
X8173689Y-14841998D02*
X8183212Y-14822950D01*
X8183212Y-14822950D02*
X8192736Y-14813426D01*
X8192736Y-14813426D02*
X8211784Y-14803902D01*
X8211784Y-14803902D02*
X8249879Y-14803902D01*
X8249879Y-14803902D02*
X8268927Y-14813426D01*
X8268927Y-14813426D02*
X8278450Y-14822950D01*
X8278450Y-14822950D02*
X8287974Y-14841998D01*
X8287974Y-14841998D02*
X8287974Y-14851521D01*
X8287974Y-14851521D02*
X8278450Y-14870569D01*
X8278450Y-14870569D02*
X8268927Y-14880093D01*
X8268927Y-14880093D02*
X8249879Y-14889617D01*
X8249879Y-14889617D02*
X8211784Y-14889617D01*
X8211784Y-14889617D02*
X8192736Y-14899141D01*
X8192736Y-14899141D02*
X8183212Y-14908664D01*
X8183212Y-14908664D02*
X8173689Y-14927712D01*
X8173689Y-14927712D02*
X8173689Y-14965807D01*
X8173689Y-14965807D02*
X8183212Y-14984855D01*
X8183212Y-14984855D02*
X8192736Y-14994379D01*
X8192736Y-14994379D02*
X8211784Y-15003902D01*
X8211784Y-15003902D02*
X8249879Y-15003902D01*
X8249879Y-15003902D02*
X8268927Y-14994379D01*
X8268927Y-14994379D02*
X8278450Y-14984855D01*
X8278450Y-14984855D02*
X8287974Y-14965807D01*
X8287974Y-14965807D02*
X8287974Y-14927712D01*
X8287974Y-14927712D02*
X8278450Y-14908664D01*
X8278450Y-14908664D02*
X8268927Y-14899141D01*
X8268927Y-14899141D02*
X8249879Y-14889617D01*
X8478451Y-15003902D02*
X8364165Y-15003902D01*
X8421308Y-15003902D02*
X8421308Y-14803902D01*
X8421308Y-14803902D02*
X8402260Y-14832474D01*
X8402260Y-14832474D02*
X8383212Y-14851521D01*
X8383212Y-14851521D02*
X8364165Y-14861045D01*
X8554641Y-14803902D02*
X8554641Y-14841998D01*
X8630832Y-14803902D02*
X8630832Y-14841998D01*
X8926070Y-15080093D02*
X8916546Y-15070569D01*
X8916546Y-15070569D02*
X8897498Y-15041998D01*
X8897498Y-15041998D02*
X8887974Y-15022950D01*
X8887974Y-15022950D02*
X8878451Y-14994379D01*
X8878451Y-14994379D02*
X8868927Y-14946760D01*
X8868927Y-14946760D02*
X8868927Y-14908664D01*
X8868927Y-14908664D02*
X8878451Y-14861045D01*
X8878451Y-14861045D02*
X8887974Y-14832474D01*
X8887974Y-14832474D02*
X8897498Y-14813426D01*
X8897498Y-14813426D02*
X8916546Y-14784855D01*
X8916546Y-14784855D02*
X8926070Y-14775331D01*
X9087974Y-14803902D02*
X9049879Y-14803902D01*
X9049879Y-14803902D02*
X9030832Y-14813426D01*
X9030832Y-14813426D02*
X9021308Y-14822950D01*
X9021308Y-14822950D02*
X9002260Y-14851521D01*
X9002260Y-14851521D02*
X8992736Y-14889617D01*
X8992736Y-14889617D02*
X8992736Y-14965807D01*
X8992736Y-14965807D02*
X9002260Y-14984855D01*
X9002260Y-14984855D02*
X9011784Y-14994379D01*
X9011784Y-14994379D02*
X9030832Y-15003902D01*
X9030832Y-15003902D02*
X9068927Y-15003902D01*
X9068927Y-15003902D02*
X9087974Y-14994379D01*
X9087974Y-14994379D02*
X9097498Y-14984855D01*
X9097498Y-14984855D02*
X9107022Y-14965807D01*
X9107022Y-14965807D02*
X9107022Y-14918188D01*
X9107022Y-14918188D02*
X9097498Y-14899141D01*
X9097498Y-14899141D02*
X9087974Y-14889617D01*
X9087974Y-14889617D02*
X9068927Y-14880093D01*
X9068927Y-14880093D02*
X9030832Y-14880093D01*
X9030832Y-14880093D02*
X9011784Y-14889617D01*
X9011784Y-14889617D02*
X9002260Y-14899141D01*
X9002260Y-14899141D02*
X8992736Y-14918188D01*
X9230832Y-14803902D02*
X9249879Y-14803902D01*
X9249879Y-14803902D02*
X9268927Y-14813426D01*
X9268927Y-14813426D02*
X9278451Y-14822950D01*
X9278451Y-14822950D02*
X9287974Y-14841998D01*
X9287974Y-14841998D02*
X9297498Y-14880093D01*
X9297498Y-14880093D02*
X9297498Y-14927712D01*
X9297498Y-14927712D02*
X9287974Y-14965807D01*
X9287974Y-14965807D02*
X9278451Y-14984855D01*
X9278451Y-14984855D02*
X9268927Y-14994379D01*
X9268927Y-14994379D02*
X9249879Y-15003902D01*
X9249879Y-15003902D02*
X9230832Y-15003902D01*
X9230832Y-15003902D02*
X9211784Y-14994379D01*
X9211784Y-14994379D02*
X9202260Y-14984855D01*
X9202260Y-14984855D02*
X9192736Y-14965807D01*
X9192736Y-14965807D02*
X9183213Y-14927712D01*
X9183213Y-14927712D02*
X9183213Y-14880093D01*
X9183213Y-14880093D02*
X9192736Y-14841998D01*
X9192736Y-14841998D02*
X9202260Y-14822950D01*
X9202260Y-14822950D02*
X9211784Y-14813426D01*
X9211784Y-14813426D02*
X9230832Y-14803902D01*
X9535594Y-15003902D02*
X9535594Y-14803902D01*
X9621308Y-15003902D02*
X9621308Y-14899141D01*
X9621308Y-14899141D02*
X9611784Y-14880093D01*
X9611784Y-14880093D02*
X9592736Y-14870569D01*
X9592736Y-14870569D02*
X9564165Y-14870569D01*
X9564165Y-14870569D02*
X9545117Y-14880093D01*
X9545117Y-14880093D02*
X9535594Y-14889617D01*
X9745117Y-15003902D02*
X9726070Y-14994379D01*
X9726070Y-14994379D02*
X9716546Y-14984855D01*
X9716546Y-14984855D02*
X9707022Y-14965807D01*
X9707022Y-14965807D02*
X9707022Y-14908664D01*
X9707022Y-14908664D02*
X9716546Y-14889617D01*
X9716546Y-14889617D02*
X9726070Y-14880093D01*
X9726070Y-14880093D02*
X9745117Y-14870569D01*
X9745117Y-14870569D02*
X9773689Y-14870569D01*
X9773689Y-14870569D02*
X9792736Y-14880093D01*
X9792736Y-14880093D02*
X9802260Y-14889617D01*
X9802260Y-14889617D02*
X9811784Y-14908664D01*
X9811784Y-14908664D02*
X9811784Y-14965807D01*
X9811784Y-14965807D02*
X9802260Y-14984855D01*
X9802260Y-14984855D02*
X9792736Y-14994379D01*
X9792736Y-14994379D02*
X9773689Y-15003902D01*
X9773689Y-15003902D02*
X9745117Y-15003902D01*
X9926070Y-15003902D02*
X9907022Y-14994379D01*
X9907022Y-14994379D02*
X9897498Y-14975331D01*
X9897498Y-14975331D02*
X9897498Y-14803902D01*
X10078451Y-14994379D02*
X10059403Y-15003902D01*
X10059403Y-15003902D02*
X10021308Y-15003902D01*
X10021308Y-15003902D02*
X10002260Y-14994379D01*
X10002260Y-14994379D02*
X9992736Y-14975331D01*
X9992736Y-14975331D02*
X9992736Y-14899141D01*
X9992736Y-14899141D02*
X10002260Y-14880093D01*
X10002260Y-14880093D02*
X10021308Y-14870569D01*
X10021308Y-14870569D02*
X10059403Y-14870569D01*
X10059403Y-14870569D02*
X10078451Y-14880093D01*
X10078451Y-14880093D02*
X10087975Y-14899141D01*
X10087975Y-14899141D02*
X10087975Y-14918188D01*
X10087975Y-14918188D02*
X9992736Y-14937236D01*
X10164165Y-14994379D02*
X10183213Y-15003902D01*
X10183213Y-15003902D02*
X10221308Y-15003902D01*
X10221308Y-15003902D02*
X10240356Y-14994379D01*
X10240356Y-14994379D02*
X10249879Y-14975331D01*
X10249879Y-14975331D02*
X10249879Y-14965807D01*
X10249879Y-14965807D02*
X10240356Y-14946760D01*
X10240356Y-14946760D02*
X10221308Y-14937236D01*
X10221308Y-14937236D02*
X10192736Y-14937236D01*
X10192736Y-14937236D02*
X10173689Y-14927712D01*
X10173689Y-14927712D02*
X10164165Y-14908664D01*
X10164165Y-14908664D02*
X10164165Y-14899141D01*
X10164165Y-14899141D02*
X10173689Y-14880093D01*
X10173689Y-14880093D02*
X10192736Y-14870569D01*
X10192736Y-14870569D02*
X10221308Y-14870569D01*
X10221308Y-14870569D02*
X10240356Y-14880093D01*
X10316546Y-15080093D02*
X10326070Y-15070569D01*
X10326070Y-15070569D02*
X10345117Y-15041998D01*
X10345117Y-15041998D02*
X10354641Y-15022950D01*
X10354641Y-15022950D02*
X10364165Y-14994379D01*
X10364165Y-14994379D02*
X10373689Y-14946760D01*
X10373689Y-14946760D02*
X10373689Y-14908664D01*
X10373689Y-14908664D02*
X10364165Y-14861045D01*
X10364165Y-14861045D02*
X10354641Y-14832474D01*
X10354641Y-14832474D02*
X10345117Y-14813426D01*
X10345117Y-14813426D02*
X10326070Y-14784855D01*
X10326070Y-14784855D02*
X10316546Y-14775331D01*
X10678451Y-15080093D02*
X10668927Y-15070569D01*
X10668927Y-15070569D02*
X10649879Y-15041998D01*
X10649879Y-15041998D02*
X10640356Y-15022950D01*
X10640356Y-15022950D02*
X10630832Y-14994379D01*
X10630832Y-14994379D02*
X10621308Y-14946760D01*
X10621308Y-14946760D02*
X10621308Y-14908664D01*
X10621308Y-14908664D02*
X10630832Y-14861045D01*
X10630832Y-14861045D02*
X10640356Y-14832474D01*
X10640356Y-14832474D02*
X10649879Y-14813426D01*
X10649879Y-14813426D02*
X10668927Y-14784855D01*
X10668927Y-14784855D02*
X10678451Y-14775331D01*
X10754641Y-14870569D02*
X10754641Y-15003902D01*
X10754641Y-14889617D02*
X10764165Y-14880093D01*
X10764165Y-14880093D02*
X10783213Y-14870569D01*
X10783213Y-14870569D02*
X10811784Y-14870569D01*
X10811784Y-14870569D02*
X10830832Y-14880093D01*
X10830832Y-14880093D02*
X10840356Y-14899141D01*
X10840356Y-14899141D02*
X10840356Y-15003902D01*
X10964165Y-15003902D02*
X10945117Y-14994379D01*
X10945117Y-14994379D02*
X10935594Y-14984855D01*
X10935594Y-14984855D02*
X10926070Y-14965807D01*
X10926070Y-14965807D02*
X10926070Y-14908664D01*
X10926070Y-14908664D02*
X10935594Y-14889617D01*
X10935594Y-14889617D02*
X10945117Y-14880093D01*
X10945117Y-14880093D02*
X10964165Y-14870569D01*
X10964165Y-14870569D02*
X10992737Y-14870569D01*
X10992737Y-14870569D02*
X11011784Y-14880093D01*
X11011784Y-14880093D02*
X11021308Y-14889617D01*
X11021308Y-14889617D02*
X11030832Y-14908664D01*
X11030832Y-14908664D02*
X11030832Y-14965807D01*
X11030832Y-14965807D02*
X11021308Y-14984855D01*
X11021308Y-14984855D02*
X11011784Y-14994379D01*
X11011784Y-14994379D02*
X10992737Y-15003902D01*
X10992737Y-15003902D02*
X10964165Y-15003902D01*
X11087975Y-14870569D02*
X11164165Y-14870569D01*
X11116546Y-14803902D02*
X11116546Y-14975331D01*
X11116546Y-14975331D02*
X11126070Y-14994379D01*
X11126070Y-14994379D02*
X11145117Y-15003902D01*
X11145117Y-15003902D02*
X11164165Y-15003902D01*
X11383213Y-14870569D02*
X11383213Y-15070569D01*
X11383213Y-14880093D02*
X11402260Y-14870569D01*
X11402260Y-14870569D02*
X11440356Y-14870569D01*
X11440356Y-14870569D02*
X11459403Y-14880093D01*
X11459403Y-14880093D02*
X11468927Y-14889617D01*
X11468927Y-14889617D02*
X11478451Y-14908664D01*
X11478451Y-14908664D02*
X11478451Y-14965807D01*
X11478451Y-14965807D02*
X11468927Y-14984855D01*
X11468927Y-14984855D02*
X11459403Y-14994379D01*
X11459403Y-14994379D02*
X11440356Y-15003902D01*
X11440356Y-15003902D02*
X11402260Y-15003902D01*
X11402260Y-15003902D02*
X11383213Y-14994379D01*
X11592736Y-15003902D02*
X11573689Y-14994379D01*
X11573689Y-14994379D02*
X11564165Y-14975331D01*
X11564165Y-14975331D02*
X11564165Y-14803902D01*
X11754641Y-15003902D02*
X11754641Y-14899141D01*
X11754641Y-14899141D02*
X11745117Y-14880093D01*
X11745117Y-14880093D02*
X11726070Y-14870569D01*
X11726070Y-14870569D02*
X11687975Y-14870569D01*
X11687975Y-14870569D02*
X11668927Y-14880093D01*
X11754641Y-14994379D02*
X11735594Y-15003902D01*
X11735594Y-15003902D02*
X11687975Y-15003902D01*
X11687975Y-15003902D02*
X11668927Y-14994379D01*
X11668927Y-14994379D02*
X11659403Y-14975331D01*
X11659403Y-14975331D02*
X11659403Y-14956283D01*
X11659403Y-14956283D02*
X11668927Y-14937236D01*
X11668927Y-14937236D02*
X11687975Y-14927712D01*
X11687975Y-14927712D02*
X11735594Y-14927712D01*
X11735594Y-14927712D02*
X11754641Y-14918188D01*
X11821308Y-14870569D02*
X11897498Y-14870569D01*
X11849879Y-14803902D02*
X11849879Y-14975331D01*
X11849879Y-14975331D02*
X11859403Y-14994379D01*
X11859403Y-14994379D02*
X11878451Y-15003902D01*
X11878451Y-15003902D02*
X11897498Y-15003902D01*
X12040356Y-14994379D02*
X12021308Y-15003902D01*
X12021308Y-15003902D02*
X11983213Y-15003902D01*
X11983213Y-15003902D02*
X11964165Y-14994379D01*
X11964165Y-14994379D02*
X11954641Y-14975331D01*
X11954641Y-14975331D02*
X11954641Y-14899141D01*
X11954641Y-14899141D02*
X11964165Y-14880093D01*
X11964165Y-14880093D02*
X11983213Y-14870569D01*
X11983213Y-14870569D02*
X12021308Y-14870569D01*
X12021308Y-14870569D02*
X12040356Y-14880093D01*
X12040356Y-14880093D02*
X12049879Y-14899141D01*
X12049879Y-14899141D02*
X12049879Y-14918188D01*
X12049879Y-14918188D02*
X11954641Y-14937236D01*
X12221308Y-15003902D02*
X12221308Y-14803902D01*
X12221308Y-14994379D02*
X12202260Y-15003902D01*
X12202260Y-15003902D02*
X12164165Y-15003902D01*
X12164165Y-15003902D02*
X12145117Y-14994379D01*
X12145117Y-14994379D02*
X12135594Y-14984855D01*
X12135594Y-14984855D02*
X12126070Y-14965807D01*
X12126070Y-14965807D02*
X12126070Y-14908664D01*
X12126070Y-14908664D02*
X12135594Y-14889617D01*
X12135594Y-14889617D02*
X12145117Y-14880093D01*
X12145117Y-14880093D02*
X12164165Y-14870569D01*
X12164165Y-14870569D02*
X12202260Y-14870569D01*
X12202260Y-14870569D02*
X12221308Y-14880093D01*
X12297498Y-15080093D02*
X12307022Y-15070569D01*
X12307022Y-15070569D02*
X12326070Y-15041998D01*
X12326070Y-15041998D02*
X12335594Y-15022950D01*
X12335594Y-15022950D02*
X12345117Y-14994379D01*
X12345117Y-14994379D02*
X12354641Y-14946760D01*
X12354641Y-14946760D02*
X12354641Y-14908664D01*
X12354641Y-14908664D02*
X12345117Y-14861045D01*
X12345117Y-14861045D02*
X12335594Y-14832474D01*
X12335594Y-14832474D02*
X12326070Y-14813426D01*
X12326070Y-14813426D02*
X12307022Y-14784855D01*
X12307022Y-14784855D02*
X12297498Y-14775331D01*
X5251007Y-15332419D02*
X5351007Y-15232419D01*
X5251007Y-15132419D01*
X5151007Y-15232419D01*
X5251007Y-15332419D01*
X5592736Y-15123902D02*
X5716545Y-15123902D01*
X5716545Y-15123902D02*
X5649879Y-15200093D01*
X5649879Y-15200093D02*
X5678450Y-15200093D01*
X5678450Y-15200093D02*
X5697498Y-15209617D01*
X5697498Y-15209617D02*
X5707022Y-15219141D01*
X5707022Y-15219141D02*
X5716545Y-15238188D01*
X5716545Y-15238188D02*
X5716545Y-15285807D01*
X5716545Y-15285807D02*
X5707022Y-15304855D01*
X5707022Y-15304855D02*
X5697498Y-15314379D01*
X5697498Y-15314379D02*
X5678450Y-15323902D01*
X5678450Y-15323902D02*
X5621307Y-15323902D01*
X5621307Y-15323902D02*
X5602260Y-15314379D01*
X5602260Y-15314379D02*
X5592736Y-15304855D01*
X5802260Y-15304855D02*
X5811784Y-15314379D01*
X5811784Y-15314379D02*
X5802260Y-15323902D01*
X5802260Y-15323902D02*
X5792736Y-15314379D01*
X5792736Y-15314379D02*
X5802260Y-15304855D01*
X5802260Y-15304855D02*
X5802260Y-15323902D01*
X5983212Y-15190569D02*
X5983212Y-15323902D01*
X5935593Y-15114379D02*
X5887974Y-15257236D01*
X5887974Y-15257236D02*
X6011784Y-15257236D01*
X6078450Y-15142950D02*
X6087974Y-15133426D01*
X6087974Y-15133426D02*
X6107022Y-15123902D01*
X6107022Y-15123902D02*
X6154641Y-15123902D01*
X6154641Y-15123902D02*
X6173688Y-15133426D01*
X6173688Y-15133426D02*
X6183212Y-15142950D01*
X6183212Y-15142950D02*
X6192736Y-15161998D01*
X6192736Y-15161998D02*
X6192736Y-15181045D01*
X6192736Y-15181045D02*
X6183212Y-15209617D01*
X6183212Y-15209617D02*
X6068926Y-15323902D01*
X6068926Y-15323902D02*
X6192736Y-15323902D01*
X6287974Y-15323902D02*
X6326069Y-15323902D01*
X6326069Y-15323902D02*
X6345117Y-15314379D01*
X6345117Y-15314379D02*
X6354641Y-15304855D01*
X6354641Y-15304855D02*
X6373688Y-15276283D01*
X6373688Y-15276283D02*
X6383212Y-15238188D01*
X6383212Y-15238188D02*
X6383212Y-15161998D01*
X6383212Y-15161998D02*
X6373688Y-15142950D01*
X6373688Y-15142950D02*
X6364165Y-15133426D01*
X6364165Y-15133426D02*
X6345117Y-15123902D01*
X6345117Y-15123902D02*
X6307022Y-15123902D01*
X6307022Y-15123902D02*
X6287974Y-15133426D01*
X6287974Y-15133426D02*
X6278450Y-15142950D01*
X6278450Y-15142950D02*
X6268926Y-15161998D01*
X6268926Y-15161998D02*
X6268926Y-15209617D01*
X6268926Y-15209617D02*
X6278450Y-15228664D01*
X6278450Y-15228664D02*
X6287974Y-15238188D01*
X6287974Y-15238188D02*
X6307022Y-15247712D01*
X6307022Y-15247712D02*
X6345117Y-15247712D01*
X6345117Y-15247712D02*
X6364165Y-15238188D01*
X6364165Y-15238188D02*
X6373688Y-15228664D01*
X6373688Y-15228664D02*
X6383212Y-15209617D01*
X6468926Y-15323902D02*
X6468926Y-15190569D01*
X6468926Y-15209617D02*
X6478450Y-15200093D01*
X6478450Y-15200093D02*
X6497498Y-15190569D01*
X6497498Y-15190569D02*
X6526069Y-15190569D01*
X6526069Y-15190569D02*
X6545117Y-15200093D01*
X6545117Y-15200093D02*
X6554641Y-15219141D01*
X6554641Y-15219141D02*
X6554641Y-15323902D01*
X6554641Y-15219141D02*
X6564165Y-15200093D01*
X6564165Y-15200093D02*
X6583212Y-15190569D01*
X6583212Y-15190569D02*
X6611784Y-15190569D01*
X6611784Y-15190569D02*
X6630831Y-15200093D01*
X6630831Y-15200093D02*
X6640355Y-15219141D01*
X6640355Y-15219141D02*
X6640355Y-15323902D01*
X6735593Y-15323902D02*
X6735593Y-15190569D01*
X6735593Y-15209617D02*
X6745117Y-15200093D01*
X6745117Y-15200093D02*
X6764165Y-15190569D01*
X6764165Y-15190569D02*
X6792736Y-15190569D01*
X6792736Y-15190569D02*
X6811784Y-15200093D01*
X6811784Y-15200093D02*
X6821307Y-15219141D01*
X6821307Y-15219141D02*
X6821307Y-15323902D01*
X6821307Y-15219141D02*
X6830831Y-15200093D01*
X6830831Y-15200093D02*
X6849879Y-15190569D01*
X6849879Y-15190569D02*
X6878450Y-15190569D01*
X6878450Y-15190569D02*
X6897498Y-15200093D01*
X6897498Y-15200093D02*
X6907022Y-15219141D01*
X6907022Y-15219141D02*
X6907022Y-15323902D01*
X7297498Y-15114379D02*
X7126069Y-15371521D01*
X7554641Y-15123902D02*
X7573689Y-15123902D01*
X7573689Y-15123902D02*
X7592736Y-15133426D01*
X7592736Y-15133426D02*
X7602260Y-15142950D01*
X7602260Y-15142950D02*
X7611784Y-15161998D01*
X7611784Y-15161998D02*
X7621308Y-15200093D01*
X7621308Y-15200093D02*
X7621308Y-15247712D01*
X7621308Y-15247712D02*
X7611784Y-15285807D01*
X7611784Y-15285807D02*
X7602260Y-15304855D01*
X7602260Y-15304855D02*
X7592736Y-15314379D01*
X7592736Y-15314379D02*
X7573689Y-15323902D01*
X7573689Y-15323902D02*
X7554641Y-15323902D01*
X7554641Y-15323902D02*
X7535593Y-15314379D01*
X7535593Y-15314379D02*
X7526069Y-15304855D01*
X7526069Y-15304855D02*
X7516546Y-15285807D01*
X7516546Y-15285807D02*
X7507022Y-15247712D01*
X7507022Y-15247712D02*
X7507022Y-15200093D01*
X7507022Y-15200093D02*
X7516546Y-15161998D01*
X7516546Y-15161998D02*
X7526069Y-15142950D01*
X7526069Y-15142950D02*
X7535593Y-15133426D01*
X7535593Y-15133426D02*
X7554641Y-15123902D01*
X7707022Y-15304855D02*
X7716546Y-15314379D01*
X7716546Y-15314379D02*
X7707022Y-15323902D01*
X7707022Y-15323902D02*
X7697498Y-15314379D01*
X7697498Y-15314379D02*
X7707022Y-15304855D01*
X7707022Y-15304855D02*
X7707022Y-15323902D01*
X7907022Y-15323902D02*
X7792736Y-15323902D01*
X7849879Y-15323902D02*
X7849879Y-15123902D01*
X7849879Y-15123902D02*
X7830831Y-15152474D01*
X7830831Y-15152474D02*
X7811784Y-15171521D01*
X7811784Y-15171521D02*
X7792736Y-15181045D01*
X7973689Y-15123902D02*
X8097498Y-15123902D01*
X8097498Y-15123902D02*
X8030831Y-15200093D01*
X8030831Y-15200093D02*
X8059403Y-15200093D01*
X8059403Y-15200093D02*
X8078450Y-15209617D01*
X8078450Y-15209617D02*
X8087974Y-15219141D01*
X8087974Y-15219141D02*
X8097498Y-15238188D01*
X8097498Y-15238188D02*
X8097498Y-15285807D01*
X8097498Y-15285807D02*
X8087974Y-15304855D01*
X8087974Y-15304855D02*
X8078450Y-15314379D01*
X8078450Y-15314379D02*
X8059403Y-15323902D01*
X8059403Y-15323902D02*
X8002260Y-15323902D01*
X8002260Y-15323902D02*
X7983212Y-15314379D01*
X7983212Y-15314379D02*
X7973689Y-15304855D01*
X8278450Y-15123902D02*
X8183212Y-15123902D01*
X8183212Y-15123902D02*
X8173689Y-15219141D01*
X8173689Y-15219141D02*
X8183212Y-15209617D01*
X8183212Y-15209617D02*
X8202260Y-15200093D01*
X8202260Y-15200093D02*
X8249879Y-15200093D01*
X8249879Y-15200093D02*
X8268927Y-15209617D01*
X8268927Y-15209617D02*
X8278450Y-15219141D01*
X8278450Y-15219141D02*
X8287974Y-15238188D01*
X8287974Y-15238188D02*
X8287974Y-15285807D01*
X8287974Y-15285807D02*
X8278450Y-15304855D01*
X8278450Y-15304855D02*
X8268927Y-15314379D01*
X8268927Y-15314379D02*
X8249879Y-15323902D01*
X8249879Y-15323902D02*
X8202260Y-15323902D01*
X8202260Y-15323902D02*
X8183212Y-15314379D01*
X8183212Y-15314379D02*
X8173689Y-15304855D01*
X8411784Y-15123902D02*
X8430832Y-15123902D01*
X8430832Y-15123902D02*
X8449879Y-15133426D01*
X8449879Y-15133426D02*
X8459403Y-15142950D01*
X8459403Y-15142950D02*
X8468927Y-15161998D01*
X8468927Y-15161998D02*
X8478451Y-15200093D01*
X8478451Y-15200093D02*
X8478451Y-15247712D01*
X8478451Y-15247712D02*
X8468927Y-15285807D01*
X8468927Y-15285807D02*
X8459403Y-15304855D01*
X8459403Y-15304855D02*
X8449879Y-15314379D01*
X8449879Y-15314379D02*
X8430832Y-15323902D01*
X8430832Y-15323902D02*
X8411784Y-15323902D01*
X8411784Y-15323902D02*
X8392736Y-15314379D01*
X8392736Y-15314379D02*
X8383212Y-15304855D01*
X8383212Y-15304855D02*
X8373689Y-15285807D01*
X8373689Y-15285807D02*
X8364165Y-15247712D01*
X8364165Y-15247712D02*
X8364165Y-15200093D01*
X8364165Y-15200093D02*
X8373689Y-15161998D01*
X8373689Y-15161998D02*
X8383212Y-15142950D01*
X8383212Y-15142950D02*
X8392736Y-15133426D01*
X8392736Y-15133426D02*
X8411784Y-15123902D01*
X8554641Y-15123902D02*
X8554641Y-15161998D01*
X8630832Y-15123902D02*
X8630832Y-15161998D01*
X8926070Y-15400093D02*
X8916546Y-15390569D01*
X8916546Y-15390569D02*
X8897498Y-15361998D01*
X8897498Y-15361998D02*
X8887974Y-15342950D01*
X8887974Y-15342950D02*
X8878451Y-15314379D01*
X8878451Y-15314379D02*
X8868927Y-15266760D01*
X8868927Y-15266760D02*
X8868927Y-15228664D01*
X8868927Y-15228664D02*
X8878451Y-15181045D01*
X8878451Y-15181045D02*
X8887974Y-15152474D01*
X8887974Y-15152474D02*
X8897498Y-15133426D01*
X8897498Y-15133426D02*
X8916546Y-15104855D01*
X8916546Y-15104855D02*
X8926070Y-15095331D01*
X9087974Y-15123902D02*
X9049879Y-15123902D01*
X9049879Y-15123902D02*
X9030832Y-15133426D01*
X9030832Y-15133426D02*
X9021308Y-15142950D01*
X9021308Y-15142950D02*
X9002260Y-15171521D01*
X9002260Y-15171521D02*
X8992736Y-15209617D01*
X8992736Y-15209617D02*
X8992736Y-15285807D01*
X8992736Y-15285807D02*
X9002260Y-15304855D01*
X9002260Y-15304855D02*
X9011784Y-15314379D01*
X9011784Y-15314379D02*
X9030832Y-15323902D01*
X9030832Y-15323902D02*
X9068927Y-15323902D01*
X9068927Y-15323902D02*
X9087974Y-15314379D01*
X9087974Y-15314379D02*
X9097498Y-15304855D01*
X9097498Y-15304855D02*
X9107022Y-15285807D01*
X9107022Y-15285807D02*
X9107022Y-15238188D01*
X9107022Y-15238188D02*
X9097498Y-15219141D01*
X9097498Y-15219141D02*
X9087974Y-15209617D01*
X9087974Y-15209617D02*
X9068927Y-15200093D01*
X9068927Y-15200093D02*
X9030832Y-15200093D01*
X9030832Y-15200093D02*
X9011784Y-15209617D01*
X9011784Y-15209617D02*
X9002260Y-15219141D01*
X9002260Y-15219141D02*
X8992736Y-15238188D01*
X9297498Y-15323902D02*
X9183213Y-15323902D01*
X9240355Y-15323902D02*
X9240355Y-15123902D01*
X9240355Y-15123902D02*
X9221308Y-15152474D01*
X9221308Y-15152474D02*
X9202260Y-15171521D01*
X9202260Y-15171521D02*
X9183213Y-15181045D01*
X9535594Y-15323902D02*
X9535594Y-15123902D01*
X9621308Y-15323902D02*
X9621308Y-15219141D01*
X9621308Y-15219141D02*
X9611784Y-15200093D01*
X9611784Y-15200093D02*
X9592736Y-15190569D01*
X9592736Y-15190569D02*
X9564165Y-15190569D01*
X9564165Y-15190569D02*
X9545117Y-15200093D01*
X9545117Y-15200093D02*
X9535594Y-15209617D01*
X9745117Y-15323902D02*
X9726070Y-15314379D01*
X9726070Y-15314379D02*
X9716546Y-15304855D01*
X9716546Y-15304855D02*
X9707022Y-15285807D01*
X9707022Y-15285807D02*
X9707022Y-15228664D01*
X9707022Y-15228664D02*
X9716546Y-15209617D01*
X9716546Y-15209617D02*
X9726070Y-15200093D01*
X9726070Y-15200093D02*
X9745117Y-15190569D01*
X9745117Y-15190569D02*
X9773689Y-15190569D01*
X9773689Y-15190569D02*
X9792736Y-15200093D01*
X9792736Y-15200093D02*
X9802260Y-15209617D01*
X9802260Y-15209617D02*
X9811784Y-15228664D01*
X9811784Y-15228664D02*
X9811784Y-15285807D01*
X9811784Y-15285807D02*
X9802260Y-15304855D01*
X9802260Y-15304855D02*
X9792736Y-15314379D01*
X9792736Y-15314379D02*
X9773689Y-15323902D01*
X9773689Y-15323902D02*
X9745117Y-15323902D01*
X9926070Y-15323902D02*
X9907022Y-15314379D01*
X9907022Y-15314379D02*
X9897498Y-15295331D01*
X9897498Y-15295331D02*
X9897498Y-15123902D01*
X10078451Y-15314379D02*
X10059403Y-15323902D01*
X10059403Y-15323902D02*
X10021308Y-15323902D01*
X10021308Y-15323902D02*
X10002260Y-15314379D01*
X10002260Y-15314379D02*
X9992736Y-15295331D01*
X9992736Y-15295331D02*
X9992736Y-15219141D01*
X9992736Y-15219141D02*
X10002260Y-15200093D01*
X10002260Y-15200093D02*
X10021308Y-15190569D01*
X10021308Y-15190569D02*
X10059403Y-15190569D01*
X10059403Y-15190569D02*
X10078451Y-15200093D01*
X10078451Y-15200093D02*
X10087975Y-15219141D01*
X10087975Y-15219141D02*
X10087975Y-15238188D01*
X10087975Y-15238188D02*
X9992736Y-15257236D01*
X10164165Y-15314379D02*
X10183213Y-15323902D01*
X10183213Y-15323902D02*
X10221308Y-15323902D01*
X10221308Y-15323902D02*
X10240356Y-15314379D01*
X10240356Y-15314379D02*
X10249879Y-15295331D01*
X10249879Y-15295331D02*
X10249879Y-15285807D01*
X10249879Y-15285807D02*
X10240356Y-15266760D01*
X10240356Y-15266760D02*
X10221308Y-15257236D01*
X10221308Y-15257236D02*
X10192736Y-15257236D01*
X10192736Y-15257236D02*
X10173689Y-15247712D01*
X10173689Y-15247712D02*
X10164165Y-15228664D01*
X10164165Y-15228664D02*
X10164165Y-15219141D01*
X10164165Y-15219141D02*
X10173689Y-15200093D01*
X10173689Y-15200093D02*
X10192736Y-15190569D01*
X10192736Y-15190569D02*
X10221308Y-15190569D01*
X10221308Y-15190569D02*
X10240356Y-15200093D01*
X10316546Y-15400093D02*
X10326070Y-15390569D01*
X10326070Y-15390569D02*
X10345117Y-15361998D01*
X10345117Y-15361998D02*
X10354641Y-15342950D01*
X10354641Y-15342950D02*
X10364165Y-15314379D01*
X10364165Y-15314379D02*
X10373689Y-15266760D01*
X10373689Y-15266760D02*
X10373689Y-15228664D01*
X10373689Y-15228664D02*
X10364165Y-15181045D01*
X10364165Y-15181045D02*
X10354641Y-15152474D01*
X10354641Y-15152474D02*
X10345117Y-15133426D01*
X10345117Y-15133426D02*
X10326070Y-15104855D01*
X10326070Y-15104855D02*
X10316546Y-15095331D01*
X10678451Y-15400093D02*
X10668927Y-15390569D01*
X10668927Y-15390569D02*
X10649879Y-15361998D01*
X10649879Y-15361998D02*
X10640356Y-15342950D01*
X10640356Y-15342950D02*
X10630832Y-15314379D01*
X10630832Y-15314379D02*
X10621308Y-15266760D01*
X10621308Y-15266760D02*
X10621308Y-15228664D01*
X10621308Y-15228664D02*
X10630832Y-15181045D01*
X10630832Y-15181045D02*
X10640356Y-15152474D01*
X10640356Y-15152474D02*
X10649879Y-15133426D01*
X10649879Y-15133426D02*
X10668927Y-15104855D01*
X10668927Y-15104855D02*
X10678451Y-15095331D01*
X10754641Y-15190569D02*
X10754641Y-15323902D01*
X10754641Y-15209617D02*
X10764165Y-15200093D01*
X10764165Y-15200093D02*
X10783213Y-15190569D01*
X10783213Y-15190569D02*
X10811784Y-15190569D01*
X10811784Y-15190569D02*
X10830832Y-15200093D01*
X10830832Y-15200093D02*
X10840356Y-15219141D01*
X10840356Y-15219141D02*
X10840356Y-15323902D01*
X10964165Y-15323902D02*
X10945117Y-15314379D01*
X10945117Y-15314379D02*
X10935594Y-15304855D01*
X10935594Y-15304855D02*
X10926070Y-15285807D01*
X10926070Y-15285807D02*
X10926070Y-15228664D01*
X10926070Y-15228664D02*
X10935594Y-15209617D01*
X10935594Y-15209617D02*
X10945117Y-15200093D01*
X10945117Y-15200093D02*
X10964165Y-15190569D01*
X10964165Y-15190569D02*
X10992737Y-15190569D01*
X10992737Y-15190569D02*
X11011784Y-15200093D01*
X11011784Y-15200093D02*
X11021308Y-15209617D01*
X11021308Y-15209617D02*
X11030832Y-15228664D01*
X11030832Y-15228664D02*
X11030832Y-15285807D01*
X11030832Y-15285807D02*
X11021308Y-15304855D01*
X11021308Y-15304855D02*
X11011784Y-15314379D01*
X11011784Y-15314379D02*
X10992737Y-15323902D01*
X10992737Y-15323902D02*
X10964165Y-15323902D01*
X11087975Y-15190569D02*
X11164165Y-15190569D01*
X11116546Y-15123902D02*
X11116546Y-15295331D01*
X11116546Y-15295331D02*
X11126070Y-15314379D01*
X11126070Y-15314379D02*
X11145117Y-15323902D01*
X11145117Y-15323902D02*
X11164165Y-15323902D01*
X11383213Y-15190569D02*
X11383213Y-15390569D01*
X11383213Y-15200093D02*
X11402260Y-15190569D01*
X11402260Y-15190569D02*
X11440356Y-15190569D01*
X11440356Y-15190569D02*
X11459403Y-15200093D01*
X11459403Y-15200093D02*
X11468927Y-15209617D01*
X11468927Y-15209617D02*
X11478451Y-15228664D01*
X11478451Y-15228664D02*
X11478451Y-15285807D01*
X11478451Y-15285807D02*
X11468927Y-15304855D01*
X11468927Y-15304855D02*
X11459403Y-15314379D01*
X11459403Y-15314379D02*
X11440356Y-15323902D01*
X11440356Y-15323902D02*
X11402260Y-15323902D01*
X11402260Y-15323902D02*
X11383213Y-15314379D01*
X11592736Y-15323902D02*
X11573689Y-15314379D01*
X11573689Y-15314379D02*
X11564165Y-15295331D01*
X11564165Y-15295331D02*
X11564165Y-15123902D01*
X11754641Y-15323902D02*
X11754641Y-15219141D01*
X11754641Y-15219141D02*
X11745117Y-15200093D01*
X11745117Y-15200093D02*
X11726070Y-15190569D01*
X11726070Y-15190569D02*
X11687975Y-15190569D01*
X11687975Y-15190569D02*
X11668927Y-15200093D01*
X11754641Y-15314379D02*
X11735594Y-15323902D01*
X11735594Y-15323902D02*
X11687975Y-15323902D01*
X11687975Y-15323902D02*
X11668927Y-15314379D01*
X11668927Y-15314379D02*
X11659403Y-15295331D01*
X11659403Y-15295331D02*
X11659403Y-15276283D01*
X11659403Y-15276283D02*
X11668927Y-15257236D01*
X11668927Y-15257236D02*
X11687975Y-15247712D01*
X11687975Y-15247712D02*
X11735594Y-15247712D01*
X11735594Y-15247712D02*
X11754641Y-15238188D01*
X11821308Y-15190569D02*
X11897498Y-15190569D01*
X11849879Y-15123902D02*
X11849879Y-15295331D01*
X11849879Y-15295331D02*
X11859403Y-15314379D01*
X11859403Y-15314379D02*
X11878451Y-15323902D01*
X11878451Y-15323902D02*
X11897498Y-15323902D01*
X12040356Y-15314379D02*
X12021308Y-15323902D01*
X12021308Y-15323902D02*
X11983213Y-15323902D01*
X11983213Y-15323902D02*
X11964165Y-15314379D01*
X11964165Y-15314379D02*
X11954641Y-15295331D01*
X11954641Y-15295331D02*
X11954641Y-15219141D01*
X11954641Y-15219141D02*
X11964165Y-15200093D01*
X11964165Y-15200093D02*
X11983213Y-15190569D01*
X11983213Y-15190569D02*
X12021308Y-15190569D01*
X12021308Y-15190569D02*
X12040356Y-15200093D01*
X12040356Y-15200093D02*
X12049879Y-15219141D01*
X12049879Y-15219141D02*
X12049879Y-15238188D01*
X12049879Y-15238188D02*
X11954641Y-15257236D01*
X12221308Y-15323902D02*
X12221308Y-15123902D01*
X12221308Y-15314379D02*
X12202260Y-15323902D01*
X12202260Y-15323902D02*
X12164165Y-15323902D01*
X12164165Y-15323902D02*
X12145117Y-15314379D01*
X12145117Y-15314379D02*
X12135594Y-15304855D01*
X12135594Y-15304855D02*
X12126070Y-15285807D01*
X12126070Y-15285807D02*
X12126070Y-15228664D01*
X12126070Y-15228664D02*
X12135594Y-15209617D01*
X12135594Y-15209617D02*
X12145117Y-15200093D01*
X12145117Y-15200093D02*
X12164165Y-15190569D01*
X12164165Y-15190569D02*
X12202260Y-15190569D01*
X12202260Y-15190569D02*
X12221308Y-15200093D01*
X12297498Y-15400093D02*
X12307022Y-15390569D01*
X12307022Y-15390569D02*
X12326070Y-15361998D01*
X12326070Y-15361998D02*
X12335594Y-15342950D01*
X12335594Y-15342950D02*
X12345117Y-15314379D01*
X12345117Y-15314379D02*
X12354641Y-15266760D01*
X12354641Y-15266760D02*
X12354641Y-15228664D01*
X12354641Y-15228664D02*
X12345117Y-15181045D01*
X12345117Y-15181045D02*
X12335594Y-15152474D01*
X12335594Y-15152474D02*
X12326070Y-15133426D01*
X12326070Y-15133426D02*
X12307022Y-15104855D01*
X12307022Y-15104855D02*
X12297498Y-15095331D01*
X5151007Y-15452419D02*
X5351007Y-15652419D01*
X5351007Y-15452419D02*
X5151007Y-15652419D01*
X5351007Y-15552419D02*
G75*
G02*
X5151007Y-15552419I-100000J0D01*
G01*
X5151007Y-15552419D02*
G75*
G02*
X5351007Y-15552419I100000J0D01*
G01*
X5592736Y-15443902D02*
X5716545Y-15443902D01*
X5716545Y-15443902D02*
X5649879Y-15520093D01*
X5649879Y-15520093D02*
X5678450Y-15520093D01*
X5678450Y-15520093D02*
X5697498Y-15529617D01*
X5697498Y-15529617D02*
X5707022Y-15539141D01*
X5707022Y-15539141D02*
X5716545Y-15558188D01*
X5716545Y-15558188D02*
X5716545Y-15605807D01*
X5716545Y-15605807D02*
X5707022Y-15624855D01*
X5707022Y-15624855D02*
X5697498Y-15634379D01*
X5697498Y-15634379D02*
X5678450Y-15643902D01*
X5678450Y-15643902D02*
X5621307Y-15643902D01*
X5621307Y-15643902D02*
X5602260Y-15634379D01*
X5602260Y-15634379D02*
X5592736Y-15624855D01*
X5802260Y-15624855D02*
X5811784Y-15634379D01*
X5811784Y-15634379D02*
X5802260Y-15643902D01*
X5802260Y-15643902D02*
X5792736Y-15634379D01*
X5792736Y-15634379D02*
X5802260Y-15624855D01*
X5802260Y-15624855D02*
X5802260Y-15643902D01*
X5983212Y-15443902D02*
X5945117Y-15443902D01*
X5945117Y-15443902D02*
X5926069Y-15453426D01*
X5926069Y-15453426D02*
X5916545Y-15462950D01*
X5916545Y-15462950D02*
X5897498Y-15491521D01*
X5897498Y-15491521D02*
X5887974Y-15529617D01*
X5887974Y-15529617D02*
X5887974Y-15605807D01*
X5887974Y-15605807D02*
X5897498Y-15624855D01*
X5897498Y-15624855D02*
X5907022Y-15634379D01*
X5907022Y-15634379D02*
X5926069Y-15643902D01*
X5926069Y-15643902D02*
X5964165Y-15643902D01*
X5964165Y-15643902D02*
X5983212Y-15634379D01*
X5983212Y-15634379D02*
X5992736Y-15624855D01*
X5992736Y-15624855D02*
X6002260Y-15605807D01*
X6002260Y-15605807D02*
X6002260Y-15558188D01*
X6002260Y-15558188D02*
X5992736Y-15539141D01*
X5992736Y-15539141D02*
X5983212Y-15529617D01*
X5983212Y-15529617D02*
X5964165Y-15520093D01*
X5964165Y-15520093D02*
X5926069Y-15520093D01*
X5926069Y-15520093D02*
X5907022Y-15529617D01*
X5907022Y-15529617D02*
X5897498Y-15539141D01*
X5897498Y-15539141D02*
X5887974Y-15558188D01*
X6126069Y-15443902D02*
X6145117Y-15443902D01*
X6145117Y-15443902D02*
X6164165Y-15453426D01*
X6164165Y-15453426D02*
X6173688Y-15462950D01*
X6173688Y-15462950D02*
X6183212Y-15481998D01*
X6183212Y-15481998D02*
X6192736Y-15520093D01*
X6192736Y-15520093D02*
X6192736Y-15567712D01*
X6192736Y-15567712D02*
X6183212Y-15605807D01*
X6183212Y-15605807D02*
X6173688Y-15624855D01*
X6173688Y-15624855D02*
X6164165Y-15634379D01*
X6164165Y-15634379D02*
X6145117Y-15643902D01*
X6145117Y-15643902D02*
X6126069Y-15643902D01*
X6126069Y-15643902D02*
X6107022Y-15634379D01*
X6107022Y-15634379D02*
X6097498Y-15624855D01*
X6097498Y-15624855D02*
X6087974Y-15605807D01*
X6087974Y-15605807D02*
X6078450Y-15567712D01*
X6078450Y-15567712D02*
X6078450Y-15520093D01*
X6078450Y-15520093D02*
X6087974Y-15481998D01*
X6087974Y-15481998D02*
X6097498Y-15462950D01*
X6097498Y-15462950D02*
X6107022Y-15453426D01*
X6107022Y-15453426D02*
X6126069Y-15443902D01*
X6316545Y-15443902D02*
X6335593Y-15443902D01*
X6335593Y-15443902D02*
X6354641Y-15453426D01*
X6354641Y-15453426D02*
X6364165Y-15462950D01*
X6364165Y-15462950D02*
X6373688Y-15481998D01*
X6373688Y-15481998D02*
X6383212Y-15520093D01*
X6383212Y-15520093D02*
X6383212Y-15567712D01*
X6383212Y-15567712D02*
X6373688Y-15605807D01*
X6373688Y-15605807D02*
X6364165Y-15624855D01*
X6364165Y-15624855D02*
X6354641Y-15634379D01*
X6354641Y-15634379D02*
X6335593Y-15643902D01*
X6335593Y-15643902D02*
X6316545Y-15643902D01*
X6316545Y-15643902D02*
X6297498Y-15634379D01*
X6297498Y-15634379D02*
X6287974Y-15624855D01*
X6287974Y-15624855D02*
X6278450Y-15605807D01*
X6278450Y-15605807D02*
X6268926Y-15567712D01*
X6268926Y-15567712D02*
X6268926Y-15520093D01*
X6268926Y-15520093D02*
X6278450Y-15481998D01*
X6278450Y-15481998D02*
X6287974Y-15462950D01*
X6287974Y-15462950D02*
X6297498Y-15453426D01*
X6297498Y-15453426D02*
X6316545Y-15443902D01*
X6468926Y-15643902D02*
X6468926Y-15510569D01*
X6468926Y-15529617D02*
X6478450Y-15520093D01*
X6478450Y-15520093D02*
X6497498Y-15510569D01*
X6497498Y-15510569D02*
X6526069Y-15510569D01*
X6526069Y-15510569D02*
X6545117Y-15520093D01*
X6545117Y-15520093D02*
X6554641Y-15539141D01*
X6554641Y-15539141D02*
X6554641Y-15643902D01*
X6554641Y-15539141D02*
X6564165Y-15520093D01*
X6564165Y-15520093D02*
X6583212Y-15510569D01*
X6583212Y-15510569D02*
X6611784Y-15510569D01*
X6611784Y-15510569D02*
X6630831Y-15520093D01*
X6630831Y-15520093D02*
X6640355Y-15539141D01*
X6640355Y-15539141D02*
X6640355Y-15643902D01*
X6735593Y-15643902D02*
X6735593Y-15510569D01*
X6735593Y-15529617D02*
X6745117Y-15520093D01*
X6745117Y-15520093D02*
X6764165Y-15510569D01*
X6764165Y-15510569D02*
X6792736Y-15510569D01*
X6792736Y-15510569D02*
X6811784Y-15520093D01*
X6811784Y-15520093D02*
X6821307Y-15539141D01*
X6821307Y-15539141D02*
X6821307Y-15643902D01*
X6821307Y-15539141D02*
X6830831Y-15520093D01*
X6830831Y-15520093D02*
X6849879Y-15510569D01*
X6849879Y-15510569D02*
X6878450Y-15510569D01*
X6878450Y-15510569D02*
X6897498Y-15520093D01*
X6897498Y-15520093D02*
X6907022Y-15539141D01*
X6907022Y-15539141D02*
X6907022Y-15643902D01*
X7297498Y-15434379D02*
X7126069Y-15691521D01*
X7554641Y-15443902D02*
X7573689Y-15443902D01*
X7573689Y-15443902D02*
X7592736Y-15453426D01*
X7592736Y-15453426D02*
X7602260Y-15462950D01*
X7602260Y-15462950D02*
X7611784Y-15481998D01*
X7611784Y-15481998D02*
X7621308Y-15520093D01*
X7621308Y-15520093D02*
X7621308Y-15567712D01*
X7621308Y-15567712D02*
X7611784Y-15605807D01*
X7611784Y-15605807D02*
X7602260Y-15624855D01*
X7602260Y-15624855D02*
X7592736Y-15634379D01*
X7592736Y-15634379D02*
X7573689Y-15643902D01*
X7573689Y-15643902D02*
X7554641Y-15643902D01*
X7554641Y-15643902D02*
X7535593Y-15634379D01*
X7535593Y-15634379D02*
X7526069Y-15624855D01*
X7526069Y-15624855D02*
X7516546Y-15605807D01*
X7516546Y-15605807D02*
X7507022Y-15567712D01*
X7507022Y-15567712D02*
X7507022Y-15520093D01*
X7507022Y-15520093D02*
X7516546Y-15481998D01*
X7516546Y-15481998D02*
X7526069Y-15462950D01*
X7526069Y-15462950D02*
X7535593Y-15453426D01*
X7535593Y-15453426D02*
X7554641Y-15443902D01*
X7707022Y-15624855D02*
X7716546Y-15634379D01*
X7716546Y-15634379D02*
X7707022Y-15643902D01*
X7707022Y-15643902D02*
X7697498Y-15634379D01*
X7697498Y-15634379D02*
X7707022Y-15624855D01*
X7707022Y-15624855D02*
X7707022Y-15643902D01*
X7907022Y-15643902D02*
X7792736Y-15643902D01*
X7849879Y-15643902D02*
X7849879Y-15443902D01*
X7849879Y-15443902D02*
X7830831Y-15472474D01*
X7830831Y-15472474D02*
X7811784Y-15491521D01*
X7811784Y-15491521D02*
X7792736Y-15501045D01*
X8078450Y-15510569D02*
X8078450Y-15643902D01*
X8030831Y-15434379D02*
X7983212Y-15577236D01*
X7983212Y-15577236D02*
X8107022Y-15577236D01*
X8287974Y-15643902D02*
X8173689Y-15643902D01*
X8230831Y-15643902D02*
X8230831Y-15443902D01*
X8230831Y-15443902D02*
X8211784Y-15472474D01*
X8211784Y-15472474D02*
X8192736Y-15491521D01*
X8192736Y-15491521D02*
X8173689Y-15501045D01*
X8354641Y-15443902D02*
X8487974Y-15443902D01*
X8487974Y-15443902D02*
X8402260Y-15643902D01*
X8554641Y-15443902D02*
X8554641Y-15481998D01*
X8630832Y-15443902D02*
X8630832Y-15481998D01*
X8926070Y-15720093D02*
X8916546Y-15710569D01*
X8916546Y-15710569D02*
X8897498Y-15681998D01*
X8897498Y-15681998D02*
X8887974Y-15662950D01*
X8887974Y-15662950D02*
X8878451Y-15634379D01*
X8878451Y-15634379D02*
X8868927Y-15586760D01*
X8868927Y-15586760D02*
X8868927Y-15548664D01*
X8868927Y-15548664D02*
X8878451Y-15501045D01*
X8878451Y-15501045D02*
X8887974Y-15472474D01*
X8887974Y-15472474D02*
X8897498Y-15453426D01*
X8897498Y-15453426D02*
X8916546Y-15424855D01*
X8916546Y-15424855D02*
X8926070Y-15415331D01*
X9097498Y-15443902D02*
X9002260Y-15443902D01*
X9002260Y-15443902D02*
X8992736Y-15539141D01*
X8992736Y-15539141D02*
X9002260Y-15529617D01*
X9002260Y-15529617D02*
X9021308Y-15520093D01*
X9021308Y-15520093D02*
X9068927Y-15520093D01*
X9068927Y-15520093D02*
X9087974Y-15529617D01*
X9087974Y-15529617D02*
X9097498Y-15539141D01*
X9097498Y-15539141D02*
X9107022Y-15558188D01*
X9107022Y-15558188D02*
X9107022Y-15605807D01*
X9107022Y-15605807D02*
X9097498Y-15624855D01*
X9097498Y-15624855D02*
X9087974Y-15634379D01*
X9087974Y-15634379D02*
X9068927Y-15643902D01*
X9068927Y-15643902D02*
X9021308Y-15643902D01*
X9021308Y-15643902D02*
X9002260Y-15634379D01*
X9002260Y-15634379D02*
X8992736Y-15624855D01*
X9345117Y-15643902D02*
X9345117Y-15443902D01*
X9430832Y-15643902D02*
X9430832Y-15539141D01*
X9430832Y-15539141D02*
X9421308Y-15520093D01*
X9421308Y-15520093D02*
X9402260Y-15510569D01*
X9402260Y-15510569D02*
X9373689Y-15510569D01*
X9373689Y-15510569D02*
X9354641Y-15520093D01*
X9354641Y-15520093D02*
X9345117Y-15529617D01*
X9554641Y-15643902D02*
X9535594Y-15634379D01*
X9535594Y-15634379D02*
X9526070Y-15624855D01*
X9526070Y-15624855D02*
X9516546Y-15605807D01*
X9516546Y-15605807D02*
X9516546Y-15548664D01*
X9516546Y-15548664D02*
X9526070Y-15529617D01*
X9526070Y-15529617D02*
X9535594Y-15520093D01*
X9535594Y-15520093D02*
X9554641Y-15510569D01*
X9554641Y-15510569D02*
X9583213Y-15510569D01*
X9583213Y-15510569D02*
X9602260Y-15520093D01*
X9602260Y-15520093D02*
X9611784Y-15529617D01*
X9611784Y-15529617D02*
X9621308Y-15548664D01*
X9621308Y-15548664D02*
X9621308Y-15605807D01*
X9621308Y-15605807D02*
X9611784Y-15624855D01*
X9611784Y-15624855D02*
X9602260Y-15634379D01*
X9602260Y-15634379D02*
X9583213Y-15643902D01*
X9583213Y-15643902D02*
X9554641Y-15643902D01*
X9735594Y-15643902D02*
X9716546Y-15634379D01*
X9716546Y-15634379D02*
X9707022Y-15615331D01*
X9707022Y-15615331D02*
X9707022Y-15443902D01*
X9887975Y-15634379D02*
X9868927Y-15643902D01*
X9868927Y-15643902D02*
X9830832Y-15643902D01*
X9830832Y-15643902D02*
X9811784Y-15634379D01*
X9811784Y-15634379D02*
X9802260Y-15615331D01*
X9802260Y-15615331D02*
X9802260Y-15539141D01*
X9802260Y-15539141D02*
X9811784Y-15520093D01*
X9811784Y-15520093D02*
X9830832Y-15510569D01*
X9830832Y-15510569D02*
X9868927Y-15510569D01*
X9868927Y-15510569D02*
X9887975Y-15520093D01*
X9887975Y-15520093D02*
X9897498Y-15539141D01*
X9897498Y-15539141D02*
X9897498Y-15558188D01*
X9897498Y-15558188D02*
X9802260Y-15577236D01*
X9973689Y-15634379D02*
X9992736Y-15643902D01*
X9992736Y-15643902D02*
X10030832Y-15643902D01*
X10030832Y-15643902D02*
X10049879Y-15634379D01*
X10049879Y-15634379D02*
X10059403Y-15615331D01*
X10059403Y-15615331D02*
X10059403Y-15605807D01*
X10059403Y-15605807D02*
X10049879Y-15586760D01*
X10049879Y-15586760D02*
X10030832Y-15577236D01*
X10030832Y-15577236D02*
X10002260Y-15577236D01*
X10002260Y-15577236D02*
X9983213Y-15567712D01*
X9983213Y-15567712D02*
X9973689Y-15548664D01*
X9973689Y-15548664D02*
X9973689Y-15539141D01*
X9973689Y-15539141D02*
X9983213Y-15520093D01*
X9983213Y-15520093D02*
X10002260Y-15510569D01*
X10002260Y-15510569D02*
X10030832Y-15510569D01*
X10030832Y-15510569D02*
X10049879Y-15520093D01*
X10126070Y-15720093D02*
X10135594Y-15710569D01*
X10135594Y-15710569D02*
X10154641Y-15681998D01*
X10154641Y-15681998D02*
X10164165Y-15662950D01*
X10164165Y-15662950D02*
X10173689Y-15634379D01*
X10173689Y-15634379D02*
X10183213Y-15586760D01*
X10183213Y-15586760D02*
X10183213Y-15548664D01*
X10183213Y-15548664D02*
X10173689Y-15501045D01*
X10173689Y-15501045D02*
X10164165Y-15472474D01*
X10164165Y-15472474D02*
X10154641Y-15453426D01*
X10154641Y-15453426D02*
X10135594Y-15424855D01*
X10135594Y-15424855D02*
X10126070Y-15415331D01*
X10487975Y-15720093D02*
X10478451Y-15710569D01*
X10478451Y-15710569D02*
X10459403Y-15681998D01*
X10459403Y-15681998D02*
X10449879Y-15662950D01*
X10449879Y-15662950D02*
X10440356Y-15634379D01*
X10440356Y-15634379D02*
X10430832Y-15586760D01*
X10430832Y-15586760D02*
X10430832Y-15548664D01*
X10430832Y-15548664D02*
X10440356Y-15501045D01*
X10440356Y-15501045D02*
X10449879Y-15472474D01*
X10449879Y-15472474D02*
X10459403Y-15453426D01*
X10459403Y-15453426D02*
X10478451Y-15424855D01*
X10478451Y-15424855D02*
X10487975Y-15415331D01*
X10564165Y-15510569D02*
X10564165Y-15643902D01*
X10564165Y-15529617D02*
X10573689Y-15520093D01*
X10573689Y-15520093D02*
X10592736Y-15510569D01*
X10592736Y-15510569D02*
X10621308Y-15510569D01*
X10621308Y-15510569D02*
X10640356Y-15520093D01*
X10640356Y-15520093D02*
X10649879Y-15539141D01*
X10649879Y-15539141D02*
X10649879Y-15643902D01*
X10773689Y-15643902D02*
X10754641Y-15634379D01*
X10754641Y-15634379D02*
X10745117Y-15624855D01*
X10745117Y-15624855D02*
X10735594Y-15605807D01*
X10735594Y-15605807D02*
X10735594Y-15548664D01*
X10735594Y-15548664D02*
X10745117Y-15529617D01*
X10745117Y-15529617D02*
X10754641Y-15520093D01*
X10754641Y-15520093D02*
X10773689Y-15510569D01*
X10773689Y-15510569D02*
X10802260Y-15510569D01*
X10802260Y-15510569D02*
X10821308Y-15520093D01*
X10821308Y-15520093D02*
X10830832Y-15529617D01*
X10830832Y-15529617D02*
X10840356Y-15548664D01*
X10840356Y-15548664D02*
X10840356Y-15605807D01*
X10840356Y-15605807D02*
X10830832Y-15624855D01*
X10830832Y-15624855D02*
X10821308Y-15634379D01*
X10821308Y-15634379D02*
X10802260Y-15643902D01*
X10802260Y-15643902D02*
X10773689Y-15643902D01*
X10897498Y-15510569D02*
X10973689Y-15510569D01*
X10926070Y-15443902D02*
X10926070Y-15615331D01*
X10926070Y-15615331D02*
X10935594Y-15634379D01*
X10935594Y-15634379D02*
X10954641Y-15643902D01*
X10954641Y-15643902D02*
X10973689Y-15643902D01*
X11192736Y-15510569D02*
X11192736Y-15710569D01*
X11192736Y-15520093D02*
X11211784Y-15510569D01*
X11211784Y-15510569D02*
X11249879Y-15510569D01*
X11249879Y-15510569D02*
X11268927Y-15520093D01*
X11268927Y-15520093D02*
X11278451Y-15529617D01*
X11278451Y-15529617D02*
X11287975Y-15548664D01*
X11287975Y-15548664D02*
X11287975Y-15605807D01*
X11287975Y-15605807D02*
X11278451Y-15624855D01*
X11278451Y-15624855D02*
X11268927Y-15634379D01*
X11268927Y-15634379D02*
X11249879Y-15643902D01*
X11249879Y-15643902D02*
X11211784Y-15643902D01*
X11211784Y-15643902D02*
X11192736Y-15634379D01*
X11402260Y-15643902D02*
X11383213Y-15634379D01*
X11383213Y-15634379D02*
X11373689Y-15615331D01*
X11373689Y-15615331D02*
X11373689Y-15443902D01*
X11564165Y-15643902D02*
X11564165Y-15539141D01*
X11564165Y-15539141D02*
X11554641Y-15520093D01*
X11554641Y-15520093D02*
X11535594Y-15510569D01*
X11535594Y-15510569D02*
X11497498Y-15510569D01*
X11497498Y-15510569D02*
X11478451Y-15520093D01*
X11564165Y-15634379D02*
X11545117Y-15643902D01*
X11545117Y-15643902D02*
X11497498Y-15643902D01*
X11497498Y-15643902D02*
X11478451Y-15634379D01*
X11478451Y-15634379D02*
X11468927Y-15615331D01*
X11468927Y-15615331D02*
X11468927Y-15596283D01*
X11468927Y-15596283D02*
X11478451Y-15577236D01*
X11478451Y-15577236D02*
X11497498Y-15567712D01*
X11497498Y-15567712D02*
X11545117Y-15567712D01*
X11545117Y-15567712D02*
X11564165Y-15558188D01*
X11630832Y-15510569D02*
X11707022Y-15510569D01*
X11659403Y-15443902D02*
X11659403Y-15615331D01*
X11659403Y-15615331D02*
X11668927Y-15634379D01*
X11668927Y-15634379D02*
X11687975Y-15643902D01*
X11687975Y-15643902D02*
X11707022Y-15643902D01*
X11849879Y-15634379D02*
X11830832Y-15643902D01*
X11830832Y-15643902D02*
X11792736Y-15643902D01*
X11792736Y-15643902D02*
X11773689Y-15634379D01*
X11773689Y-15634379D02*
X11764165Y-15615331D01*
X11764165Y-15615331D02*
X11764165Y-15539141D01*
X11764165Y-15539141D02*
X11773689Y-15520093D01*
X11773689Y-15520093D02*
X11792736Y-15510569D01*
X11792736Y-15510569D02*
X11830832Y-15510569D01*
X11830832Y-15510569D02*
X11849879Y-15520093D01*
X11849879Y-15520093D02*
X11859403Y-15539141D01*
X11859403Y-15539141D02*
X11859403Y-15558188D01*
X11859403Y-15558188D02*
X11764165Y-15577236D01*
X12030832Y-15643902D02*
X12030832Y-15443902D01*
X12030832Y-15634379D02*
X12011784Y-15643902D01*
X12011784Y-15643902D02*
X11973689Y-15643902D01*
X11973689Y-15643902D02*
X11954641Y-15634379D01*
X11954641Y-15634379D02*
X11945117Y-15624855D01*
X11945117Y-15624855D02*
X11935594Y-15605807D01*
X11935594Y-15605807D02*
X11935594Y-15548664D01*
X11935594Y-15548664D02*
X11945117Y-15529617D01*
X11945117Y-15529617D02*
X11954641Y-15520093D01*
X11954641Y-15520093D02*
X11973689Y-15510569D01*
X11973689Y-15510569D02*
X12011784Y-15510569D01*
X12011784Y-15510569D02*
X12030832Y-15520093D01*
X12107022Y-15720093D02*
X12116546Y-15710569D01*
X12116546Y-15710569D02*
X12135594Y-15681998D01*
X12135594Y-15681998D02*
X12145117Y-15662950D01*
X12145117Y-15662950D02*
X12154641Y-15634379D01*
X12154641Y-15634379D02*
X12164165Y-15586760D01*
X12164165Y-15586760D02*
X12164165Y-15548664D01*
X12164165Y-15548664D02*
X12154641Y-15501045D01*
X12154641Y-15501045D02*
X12145117Y-15472474D01*
X12145117Y-15472474D02*
X12135594Y-15453426D01*
X12135594Y-15453426D02*
X12116546Y-15424855D01*
X12116546Y-15424855D02*
X12107022Y-15415331D01*
X5151007Y-15772419D02*
X5351007Y-15972419D01*
X5351007Y-15772419D02*
X5151007Y-15972419D01*
X5251007Y-15772419D02*
X5251007Y-15972419D01*
X5151007Y-15872419D02*
X5351007Y-15872419D01*
X5707022Y-15763902D02*
X5611784Y-15763902D01*
X5611784Y-15763902D02*
X5602260Y-15859141D01*
X5602260Y-15859141D02*
X5611784Y-15849617D01*
X5611784Y-15849617D02*
X5630831Y-15840093D01*
X5630831Y-15840093D02*
X5678450Y-15840093D01*
X5678450Y-15840093D02*
X5697498Y-15849617D01*
X5697498Y-15849617D02*
X5707022Y-15859141D01*
X5707022Y-15859141D02*
X5716545Y-15878188D01*
X5716545Y-15878188D02*
X5716545Y-15925807D01*
X5716545Y-15925807D02*
X5707022Y-15944855D01*
X5707022Y-15944855D02*
X5697498Y-15954379D01*
X5697498Y-15954379D02*
X5678450Y-15963902D01*
X5678450Y-15963902D02*
X5630831Y-15963902D01*
X5630831Y-15963902D02*
X5611784Y-15954379D01*
X5611784Y-15954379D02*
X5602260Y-15944855D01*
X5802260Y-15944855D02*
X5811784Y-15954379D01*
X5811784Y-15954379D02*
X5802260Y-15963902D01*
X5802260Y-15963902D02*
X5792736Y-15954379D01*
X5792736Y-15954379D02*
X5802260Y-15944855D01*
X5802260Y-15944855D02*
X5802260Y-15963902D01*
X5992736Y-15763902D02*
X5897498Y-15763902D01*
X5897498Y-15763902D02*
X5887974Y-15859141D01*
X5887974Y-15859141D02*
X5897498Y-15849617D01*
X5897498Y-15849617D02*
X5916545Y-15840093D01*
X5916545Y-15840093D02*
X5964165Y-15840093D01*
X5964165Y-15840093D02*
X5983212Y-15849617D01*
X5983212Y-15849617D02*
X5992736Y-15859141D01*
X5992736Y-15859141D02*
X6002260Y-15878188D01*
X6002260Y-15878188D02*
X6002260Y-15925807D01*
X6002260Y-15925807D02*
X5992736Y-15944855D01*
X5992736Y-15944855D02*
X5983212Y-15954379D01*
X5983212Y-15954379D02*
X5964165Y-15963902D01*
X5964165Y-15963902D02*
X5916545Y-15963902D01*
X5916545Y-15963902D02*
X5897498Y-15954379D01*
X5897498Y-15954379D02*
X5887974Y-15944855D01*
X6126069Y-15763902D02*
X6145117Y-15763902D01*
X6145117Y-15763902D02*
X6164165Y-15773426D01*
X6164165Y-15773426D02*
X6173688Y-15782950D01*
X6173688Y-15782950D02*
X6183212Y-15801998D01*
X6183212Y-15801998D02*
X6192736Y-15840093D01*
X6192736Y-15840093D02*
X6192736Y-15887712D01*
X6192736Y-15887712D02*
X6183212Y-15925807D01*
X6183212Y-15925807D02*
X6173688Y-15944855D01*
X6173688Y-15944855D02*
X6164165Y-15954379D01*
X6164165Y-15954379D02*
X6145117Y-15963902D01*
X6145117Y-15963902D02*
X6126069Y-15963902D01*
X6126069Y-15963902D02*
X6107022Y-15954379D01*
X6107022Y-15954379D02*
X6097498Y-15944855D01*
X6097498Y-15944855D02*
X6087974Y-15925807D01*
X6087974Y-15925807D02*
X6078450Y-15887712D01*
X6078450Y-15887712D02*
X6078450Y-15840093D01*
X6078450Y-15840093D02*
X6087974Y-15801998D01*
X6087974Y-15801998D02*
X6097498Y-15782950D01*
X6097498Y-15782950D02*
X6107022Y-15773426D01*
X6107022Y-15773426D02*
X6126069Y-15763902D01*
X6316545Y-15763902D02*
X6335593Y-15763902D01*
X6335593Y-15763902D02*
X6354641Y-15773426D01*
X6354641Y-15773426D02*
X6364165Y-15782950D01*
X6364165Y-15782950D02*
X6373688Y-15801998D01*
X6373688Y-15801998D02*
X6383212Y-15840093D01*
X6383212Y-15840093D02*
X6383212Y-15887712D01*
X6383212Y-15887712D02*
X6373688Y-15925807D01*
X6373688Y-15925807D02*
X6364165Y-15944855D01*
X6364165Y-15944855D02*
X6354641Y-15954379D01*
X6354641Y-15954379D02*
X6335593Y-15963902D01*
X6335593Y-15963902D02*
X6316545Y-15963902D01*
X6316545Y-15963902D02*
X6297498Y-15954379D01*
X6297498Y-15954379D02*
X6287974Y-15944855D01*
X6287974Y-15944855D02*
X6278450Y-15925807D01*
X6278450Y-15925807D02*
X6268926Y-15887712D01*
X6268926Y-15887712D02*
X6268926Y-15840093D01*
X6268926Y-15840093D02*
X6278450Y-15801998D01*
X6278450Y-15801998D02*
X6287974Y-15782950D01*
X6287974Y-15782950D02*
X6297498Y-15773426D01*
X6297498Y-15773426D02*
X6316545Y-15763902D01*
X6468926Y-15963902D02*
X6468926Y-15830569D01*
X6468926Y-15849617D02*
X6478450Y-15840093D01*
X6478450Y-15840093D02*
X6497498Y-15830569D01*
X6497498Y-15830569D02*
X6526069Y-15830569D01*
X6526069Y-15830569D02*
X6545117Y-15840093D01*
X6545117Y-15840093D02*
X6554641Y-15859141D01*
X6554641Y-15859141D02*
X6554641Y-15963902D01*
X6554641Y-15859141D02*
X6564165Y-15840093D01*
X6564165Y-15840093D02*
X6583212Y-15830569D01*
X6583212Y-15830569D02*
X6611784Y-15830569D01*
X6611784Y-15830569D02*
X6630831Y-15840093D01*
X6630831Y-15840093D02*
X6640355Y-15859141D01*
X6640355Y-15859141D02*
X6640355Y-15963902D01*
X6735593Y-15963902D02*
X6735593Y-15830569D01*
X6735593Y-15849617D02*
X6745117Y-15840093D01*
X6745117Y-15840093D02*
X6764165Y-15830569D01*
X6764165Y-15830569D02*
X6792736Y-15830569D01*
X6792736Y-15830569D02*
X6811784Y-15840093D01*
X6811784Y-15840093D02*
X6821307Y-15859141D01*
X6821307Y-15859141D02*
X6821307Y-15963902D01*
X6821307Y-15859141D02*
X6830831Y-15840093D01*
X6830831Y-15840093D02*
X6849879Y-15830569D01*
X6849879Y-15830569D02*
X6878450Y-15830569D01*
X6878450Y-15830569D02*
X6897498Y-15840093D01*
X6897498Y-15840093D02*
X6907022Y-15859141D01*
X6907022Y-15859141D02*
X6907022Y-15963902D01*
X7297498Y-15754379D02*
X7126069Y-16011521D01*
X7554641Y-15763902D02*
X7573689Y-15763902D01*
X7573689Y-15763902D02*
X7592736Y-15773426D01*
X7592736Y-15773426D02*
X7602260Y-15782950D01*
X7602260Y-15782950D02*
X7611784Y-15801998D01*
X7611784Y-15801998D02*
X7621308Y-15840093D01*
X7621308Y-15840093D02*
X7621308Y-15887712D01*
X7621308Y-15887712D02*
X7611784Y-15925807D01*
X7611784Y-15925807D02*
X7602260Y-15944855D01*
X7602260Y-15944855D02*
X7592736Y-15954379D01*
X7592736Y-15954379D02*
X7573689Y-15963902D01*
X7573689Y-15963902D02*
X7554641Y-15963902D01*
X7554641Y-15963902D02*
X7535593Y-15954379D01*
X7535593Y-15954379D02*
X7526069Y-15944855D01*
X7526069Y-15944855D02*
X7516546Y-15925807D01*
X7516546Y-15925807D02*
X7507022Y-15887712D01*
X7507022Y-15887712D02*
X7507022Y-15840093D01*
X7507022Y-15840093D02*
X7516546Y-15801998D01*
X7516546Y-15801998D02*
X7526069Y-15782950D01*
X7526069Y-15782950D02*
X7535593Y-15773426D01*
X7535593Y-15773426D02*
X7554641Y-15763902D01*
X7707022Y-15944855D02*
X7716546Y-15954379D01*
X7716546Y-15954379D02*
X7707022Y-15963902D01*
X7707022Y-15963902D02*
X7697498Y-15954379D01*
X7697498Y-15954379D02*
X7707022Y-15944855D01*
X7707022Y-15944855D02*
X7707022Y-15963902D01*
X7792736Y-15782950D02*
X7802260Y-15773426D01*
X7802260Y-15773426D02*
X7821308Y-15763902D01*
X7821308Y-15763902D02*
X7868927Y-15763902D01*
X7868927Y-15763902D02*
X7887974Y-15773426D01*
X7887974Y-15773426D02*
X7897498Y-15782950D01*
X7897498Y-15782950D02*
X7907022Y-15801998D01*
X7907022Y-15801998D02*
X7907022Y-15821045D01*
X7907022Y-15821045D02*
X7897498Y-15849617D01*
X7897498Y-15849617D02*
X7783212Y-15963902D01*
X7783212Y-15963902D02*
X7907022Y-15963902D01*
X8097498Y-15963902D02*
X7983212Y-15963902D01*
X8040355Y-15963902D02*
X8040355Y-15763902D01*
X8040355Y-15763902D02*
X8021308Y-15792474D01*
X8021308Y-15792474D02*
X8002260Y-15811521D01*
X8002260Y-15811521D02*
X7983212Y-15821045D01*
X8268927Y-15763902D02*
X8230831Y-15763902D01*
X8230831Y-15763902D02*
X8211784Y-15773426D01*
X8211784Y-15773426D02*
X8202260Y-15782950D01*
X8202260Y-15782950D02*
X8183212Y-15811521D01*
X8183212Y-15811521D02*
X8173689Y-15849617D01*
X8173689Y-15849617D02*
X8173689Y-15925807D01*
X8173689Y-15925807D02*
X8183212Y-15944855D01*
X8183212Y-15944855D02*
X8192736Y-15954379D01*
X8192736Y-15954379D02*
X8211784Y-15963902D01*
X8211784Y-15963902D02*
X8249879Y-15963902D01*
X8249879Y-15963902D02*
X8268927Y-15954379D01*
X8268927Y-15954379D02*
X8278450Y-15944855D01*
X8278450Y-15944855D02*
X8287974Y-15925807D01*
X8287974Y-15925807D02*
X8287974Y-15878188D01*
X8287974Y-15878188D02*
X8278450Y-15859141D01*
X8278450Y-15859141D02*
X8268927Y-15849617D01*
X8268927Y-15849617D02*
X8249879Y-15840093D01*
X8249879Y-15840093D02*
X8211784Y-15840093D01*
X8211784Y-15840093D02*
X8192736Y-15849617D01*
X8192736Y-15849617D02*
X8183212Y-15859141D01*
X8183212Y-15859141D02*
X8173689Y-15878188D01*
X8468927Y-15763902D02*
X8373689Y-15763902D01*
X8373689Y-15763902D02*
X8364165Y-15859141D01*
X8364165Y-15859141D02*
X8373689Y-15849617D01*
X8373689Y-15849617D02*
X8392736Y-15840093D01*
X8392736Y-15840093D02*
X8440355Y-15840093D01*
X8440355Y-15840093D02*
X8459403Y-15849617D01*
X8459403Y-15849617D02*
X8468927Y-15859141D01*
X8468927Y-15859141D02*
X8478451Y-15878188D01*
X8478451Y-15878188D02*
X8478451Y-15925807D01*
X8478451Y-15925807D02*
X8468927Y-15944855D01*
X8468927Y-15944855D02*
X8459403Y-15954379D01*
X8459403Y-15954379D02*
X8440355Y-15963902D01*
X8440355Y-15963902D02*
X8392736Y-15963902D01*
X8392736Y-15963902D02*
X8373689Y-15954379D01*
X8373689Y-15954379D02*
X8364165Y-15944855D01*
X8554641Y-15763902D02*
X8554641Y-15801998D01*
X8630832Y-15763902D02*
X8630832Y-15801998D01*
X8926070Y-16040093D02*
X8916546Y-16030569D01*
X8916546Y-16030569D02*
X8897498Y-16001998D01*
X8897498Y-16001998D02*
X8887974Y-15982950D01*
X8887974Y-15982950D02*
X8878451Y-15954379D01*
X8878451Y-15954379D02*
X8868927Y-15906760D01*
X8868927Y-15906760D02*
X8868927Y-15868664D01*
X8868927Y-15868664D02*
X8878451Y-15821045D01*
X8878451Y-15821045D02*
X8887974Y-15792474D01*
X8887974Y-15792474D02*
X8897498Y-15773426D01*
X8897498Y-15773426D02*
X8916546Y-15744855D01*
X8916546Y-15744855D02*
X8926070Y-15735331D01*
X9107022Y-15963902D02*
X8992736Y-15963902D01*
X9049879Y-15963902D02*
X9049879Y-15763902D01*
X9049879Y-15763902D02*
X9030832Y-15792474D01*
X9030832Y-15792474D02*
X9011784Y-15811521D01*
X9011784Y-15811521D02*
X8992736Y-15821045D01*
X9345117Y-15963902D02*
X9345117Y-15763902D01*
X9430832Y-15963902D02*
X9430832Y-15859141D01*
X9430832Y-15859141D02*
X9421308Y-15840093D01*
X9421308Y-15840093D02*
X9402260Y-15830569D01*
X9402260Y-15830569D02*
X9373689Y-15830569D01*
X9373689Y-15830569D02*
X9354641Y-15840093D01*
X9354641Y-15840093D02*
X9345117Y-15849617D01*
X9554641Y-15963902D02*
X9535594Y-15954379D01*
X9535594Y-15954379D02*
X9526070Y-15944855D01*
X9526070Y-15944855D02*
X9516546Y-15925807D01*
X9516546Y-15925807D02*
X9516546Y-15868664D01*
X9516546Y-15868664D02*
X9526070Y-15849617D01*
X9526070Y-15849617D02*
X9535594Y-15840093D01*
X9535594Y-15840093D02*
X9554641Y-15830569D01*
X9554641Y-15830569D02*
X9583213Y-15830569D01*
X9583213Y-15830569D02*
X9602260Y-15840093D01*
X9602260Y-15840093D02*
X9611784Y-15849617D01*
X9611784Y-15849617D02*
X9621308Y-15868664D01*
X9621308Y-15868664D02*
X9621308Y-15925807D01*
X9621308Y-15925807D02*
X9611784Y-15944855D01*
X9611784Y-15944855D02*
X9602260Y-15954379D01*
X9602260Y-15954379D02*
X9583213Y-15963902D01*
X9583213Y-15963902D02*
X9554641Y-15963902D01*
X9735594Y-15963902D02*
X9716546Y-15954379D01*
X9716546Y-15954379D02*
X9707022Y-15935331D01*
X9707022Y-15935331D02*
X9707022Y-15763902D01*
X9887975Y-15954379D02*
X9868927Y-15963902D01*
X9868927Y-15963902D02*
X9830832Y-15963902D01*
X9830832Y-15963902D02*
X9811784Y-15954379D01*
X9811784Y-15954379D02*
X9802260Y-15935331D01*
X9802260Y-15935331D02*
X9802260Y-15859141D01*
X9802260Y-15859141D02*
X9811784Y-15840093D01*
X9811784Y-15840093D02*
X9830832Y-15830569D01*
X9830832Y-15830569D02*
X9868927Y-15830569D01*
X9868927Y-15830569D02*
X9887975Y-15840093D01*
X9887975Y-15840093D02*
X9897498Y-15859141D01*
X9897498Y-15859141D02*
X9897498Y-15878188D01*
X9897498Y-15878188D02*
X9802260Y-15897236D01*
X9964165Y-16040093D02*
X9973689Y-16030569D01*
X9973689Y-16030569D02*
X9992736Y-16001998D01*
X9992736Y-16001998D02*
X10002260Y-15982950D01*
X10002260Y-15982950D02*
X10011784Y-15954379D01*
X10011784Y-15954379D02*
X10021308Y-15906760D01*
X10021308Y-15906760D02*
X10021308Y-15868664D01*
X10021308Y-15868664D02*
X10011784Y-15821045D01*
X10011784Y-15821045D02*
X10002260Y-15792474D01*
X10002260Y-15792474D02*
X9992736Y-15773426D01*
X9992736Y-15773426D02*
X9973689Y-15744855D01*
X9973689Y-15744855D02*
X9964165Y-15735331D01*
X10326070Y-16040093D02*
X10316546Y-16030569D01*
X10316546Y-16030569D02*
X10297498Y-16001998D01*
X10297498Y-16001998D02*
X10287975Y-15982950D01*
X10287975Y-15982950D02*
X10278451Y-15954379D01*
X10278451Y-15954379D02*
X10268927Y-15906760D01*
X10268927Y-15906760D02*
X10268927Y-15868664D01*
X10268927Y-15868664D02*
X10278451Y-15821045D01*
X10278451Y-15821045D02*
X10287975Y-15792474D01*
X10287975Y-15792474D02*
X10297498Y-15773426D01*
X10297498Y-15773426D02*
X10316546Y-15744855D01*
X10316546Y-15744855D02*
X10326070Y-15735331D01*
X10402260Y-15830569D02*
X10402260Y-15963902D01*
X10402260Y-15849617D02*
X10411784Y-15840093D01*
X10411784Y-15840093D02*
X10430832Y-15830569D01*
X10430832Y-15830569D02*
X10459403Y-15830569D01*
X10459403Y-15830569D02*
X10478451Y-15840093D01*
X10478451Y-15840093D02*
X10487975Y-15859141D01*
X10487975Y-15859141D02*
X10487975Y-15963902D01*
X10611784Y-15963902D02*
X10592736Y-15954379D01*
X10592736Y-15954379D02*
X10583213Y-15944855D01*
X10583213Y-15944855D02*
X10573689Y-15925807D01*
X10573689Y-15925807D02*
X10573689Y-15868664D01*
X10573689Y-15868664D02*
X10583213Y-15849617D01*
X10583213Y-15849617D02*
X10592736Y-15840093D01*
X10592736Y-15840093D02*
X10611784Y-15830569D01*
X10611784Y-15830569D02*
X10640356Y-15830569D01*
X10640356Y-15830569D02*
X10659403Y-15840093D01*
X10659403Y-15840093D02*
X10668927Y-15849617D01*
X10668927Y-15849617D02*
X10678451Y-15868664D01*
X10678451Y-15868664D02*
X10678451Y-15925807D01*
X10678451Y-15925807D02*
X10668927Y-15944855D01*
X10668927Y-15944855D02*
X10659403Y-15954379D01*
X10659403Y-15954379D02*
X10640356Y-15963902D01*
X10640356Y-15963902D02*
X10611784Y-15963902D01*
X10735594Y-15830569D02*
X10811784Y-15830569D01*
X10764165Y-15763902D02*
X10764165Y-15935331D01*
X10764165Y-15935331D02*
X10773689Y-15954379D01*
X10773689Y-15954379D02*
X10792736Y-15963902D01*
X10792736Y-15963902D02*
X10811784Y-15963902D01*
X11030832Y-15830569D02*
X11030832Y-16030569D01*
X11030832Y-15840093D02*
X11049879Y-15830569D01*
X11049879Y-15830569D02*
X11087975Y-15830569D01*
X11087975Y-15830569D02*
X11107022Y-15840093D01*
X11107022Y-15840093D02*
X11116546Y-15849617D01*
X11116546Y-15849617D02*
X11126070Y-15868664D01*
X11126070Y-15868664D02*
X11126070Y-15925807D01*
X11126070Y-15925807D02*
X11116546Y-15944855D01*
X11116546Y-15944855D02*
X11107022Y-15954379D01*
X11107022Y-15954379D02*
X11087975Y-15963902D01*
X11087975Y-15963902D02*
X11049879Y-15963902D01*
X11049879Y-15963902D02*
X11030832Y-15954379D01*
X11240355Y-15963902D02*
X11221308Y-15954379D01*
X11221308Y-15954379D02*
X11211784Y-15935331D01*
X11211784Y-15935331D02*
X11211784Y-15763902D01*
X11402260Y-15963902D02*
X11402260Y-15859141D01*
X11402260Y-15859141D02*
X11392736Y-15840093D01*
X11392736Y-15840093D02*
X11373689Y-15830569D01*
X11373689Y-15830569D02*
X11335594Y-15830569D01*
X11335594Y-15830569D02*
X11316546Y-15840093D01*
X11402260Y-15954379D02*
X11383213Y-15963902D01*
X11383213Y-15963902D02*
X11335594Y-15963902D01*
X11335594Y-15963902D02*
X11316546Y-15954379D01*
X11316546Y-15954379D02*
X11307022Y-15935331D01*
X11307022Y-15935331D02*
X11307022Y-15916283D01*
X11307022Y-15916283D02*
X11316546Y-15897236D01*
X11316546Y-15897236D02*
X11335594Y-15887712D01*
X11335594Y-15887712D02*
X11383213Y-15887712D01*
X11383213Y-15887712D02*
X11402260Y-15878188D01*
X11468927Y-15830569D02*
X11545117Y-15830569D01*
X11497498Y-15763902D02*
X11497498Y-15935331D01*
X11497498Y-15935331D02*
X11507022Y-15954379D01*
X11507022Y-15954379D02*
X11526070Y-15963902D01*
X11526070Y-15963902D02*
X11545117Y-15963902D01*
X11687975Y-15954379D02*
X11668927Y-15963902D01*
X11668927Y-15963902D02*
X11630832Y-15963902D01*
X11630832Y-15963902D02*
X11611784Y-15954379D01*
X11611784Y-15954379D02*
X11602260Y-15935331D01*
X11602260Y-15935331D02*
X11602260Y-15859141D01*
X11602260Y-15859141D02*
X11611784Y-15840093D01*
X11611784Y-15840093D02*
X11630832Y-15830569D01*
X11630832Y-15830569D02*
X11668927Y-15830569D01*
X11668927Y-15830569D02*
X11687975Y-15840093D01*
X11687975Y-15840093D02*
X11697498Y-15859141D01*
X11697498Y-15859141D02*
X11697498Y-15878188D01*
X11697498Y-15878188D02*
X11602260Y-15897236D01*
X11868927Y-15963902D02*
X11868927Y-15763902D01*
X11868927Y-15954379D02*
X11849879Y-15963902D01*
X11849879Y-15963902D02*
X11811784Y-15963902D01*
X11811784Y-15963902D02*
X11792736Y-15954379D01*
X11792736Y-15954379D02*
X11783213Y-15944855D01*
X11783213Y-15944855D02*
X11773689Y-15925807D01*
X11773689Y-15925807D02*
X11773689Y-15868664D01*
X11773689Y-15868664D02*
X11783213Y-15849617D01*
X11783213Y-15849617D02*
X11792736Y-15840093D01*
X11792736Y-15840093D02*
X11811784Y-15830569D01*
X11811784Y-15830569D02*
X11849879Y-15830569D01*
X11849879Y-15830569D02*
X11868927Y-15840093D01*
X11945117Y-16040093D02*
X11954641Y-16030569D01*
X11954641Y-16030569D02*
X11973689Y-16001998D01*
X11973689Y-16001998D02*
X11983213Y-15982950D01*
X11983213Y-15982950D02*
X11992736Y-15954379D01*
X11992736Y-15954379D02*
X12002260Y-15906760D01*
X12002260Y-15906760D02*
X12002260Y-15868664D01*
X12002260Y-15868664D02*
X11992736Y-15821045D01*
X11992736Y-15821045D02*
X11983213Y-15792474D01*
X11983213Y-15792474D02*
X11973689Y-15773426D01*
X11973689Y-15773426D02*
X11954641Y-15744855D01*
X11954641Y-15744855D02*
X11945117Y-15735331D01*
M02*
