M48
; DRILL file {KiCad 8.0.4} date 2024-08-27T16:31:31+0200
; FORMAT={-:-/ absolute / metric / decimal}
; #@! TF.CreationDate,2024-08-27T16:31:31+02:00
; #@! TF.GenerationSoftware,Kicad,Pcbnew,8.0.4
; #@! TF.FileFunction,NonPlated,1,2,NPTH
FMAT,2
METRIC
; #@! TA.AperFunction,NonPlated,NPTH,ComponentDrill
T1C0.700
; #@! TA.AperFunction,NonPlated,NPTH,ComponentDrill
T2C0.800
; #@! TA.AperFunction,NonPlated,NPTH,ComponentDrill
T3C1.700
; #@! TA.AperFunction,NonPlated,NPTH,ComponentDrill
T4C1.900
; #@! TA.AperFunction,NonPlated,NPTH,ComponentDrill
T5C2.200
; #@! TA.AperFunction,NonPlated,NPTH,ComponentDrill
T6C3.000
; #@! TA.AperFunction,NonPlated,NPTH,ComponentDrill
T7C4.000
%
G90
G05
T1
X164.738Y-53.642
X164.738Y-53.642
X167.638Y-53.642
X167.638Y-53.642
T2
X172.894Y-53.189
X172.894Y-53.189
T3
X38.914Y-69.587
X40.574Y-88.564
X42.235Y-107.542
X49.035Y-68.701
X50.696Y-87.679
X52.356Y-106.657
X57.846Y-67.981
X59.502Y-86.909
X61.158Y-105.836
X67.967Y-67.095
X69.623Y-86.023
X71.279Y-104.951
X78.286Y-57.455
X79.28Y-76.429
X80.275Y-95.403
X88.432Y-56.923
X89.426Y-75.897
X90.421Y-94.871
X101.142Y-93.042
X101.142Y-55.042
X101.142Y-74.042
X111.302Y-93.042
X111.302Y-55.042
X111.302Y-74.042
X120.362Y-95.953
X120.694Y-76.956
X121.025Y-57.959
X129.407Y-122.115
X130.521Y-96.131
X130.852Y-77.133
X131.184Y-58.136
X139.566Y-122.292
X139.574Y-101.201
X140.238Y-82.212
X140.901Y-63.224
X149.728Y-101.555
X150.391Y-82.567
X151.054Y-63.578
X151.35Y-124.583
X160.835Y-128.224
X171.461Y-135.257
X178.519Y-142.566
T4
X38.496Y-69.624
X40.156Y-88.601
X41.816Y-107.579
X49.454Y-68.665
X51.114Y-87.642
X52.774Y-106.62
X57.428Y-68.017
X59.084Y-86.945
X60.74Y-105.873
X68.386Y-67.059
X70.042Y-85.986
X71.698Y-104.914
X77.866Y-57.477
X78.861Y-76.451
X79.855Y-95.425
X88.851Y-56.901
X89.846Y-75.875
X90.84Y-94.849
X100.722Y-93.042
X100.722Y-55.042
X100.722Y-74.042
X111.722Y-93.042
X111.722Y-55.042
X111.722Y-74.042
X119.942Y-95.946
X120.274Y-76.949
X120.606Y-57.952
X128.987Y-122.108
X130.941Y-96.138
X131.272Y-77.141
X131.604Y-58.144
X139.155Y-101.186
X139.818Y-82.198
X139.985Y-122.3
X140.481Y-63.209
X150.148Y-101.57
X150.811Y-82.582
X150.958Y-124.433
X151.474Y-63.593
X161.227Y-128.375
X171.169Y-134.955
X178.811Y-142.868
T5
X56.757Y-106.529
X71.666Y-60.199
X95.441Y-88.088
X136.665Y-56.846
X165.265Y-63.146
X171.463Y-125.045
T6
X39.316Y-73.266
X39.958Y-66.946
X40.977Y-92.243
X41.002Y-64.305
X41.618Y-85.923
X42.637Y-111.221
X42.662Y-83.282
X43.278Y-104.901
X44.322Y-102.26
X44.489Y-75.022
X46.062Y-63.862
X46.149Y-93.999
X47.549Y-66.282
X47.723Y-82.84
X47.81Y-112.977
X49.209Y-85.259
X49.278Y-72.394
X49.383Y-101.817
X50.869Y-104.237
X50.938Y-91.372
X52.599Y-110.349
X58.248Y-71.66
X58.89Y-65.34
X59.904Y-90.587
X59.934Y-62.699
X60.546Y-84.268
X61.56Y-109.515
X61.59Y-81.626
X62.202Y-103.195
X63.246Y-100.554
X63.421Y-73.416
X64.994Y-62.256
X65.077Y-92.343
X66.481Y-64.676
X66.65Y-81.184
X66.733Y-111.271
X68.137Y-83.603
X68.21Y-70.788
X68.306Y-100.111
X69.793Y-102.531
X69.866Y-89.716
X71.522Y-108.644
X78.559Y-61.146
X79.421Y-54.852
X79.554Y-80.12
X80.415Y-73.826
X80.548Y-99.094
X80.556Y-52.249
X81.41Y-92.8
X81.551Y-71.223
X82.545Y-90.197
X83.668Y-63.081
X84.662Y-82.055
X85.629Y-51.983
X85.656Y-101.029
X86.624Y-70.957
X87.031Y-54.453
X87.618Y-89.931
X88.025Y-73.427
X88.546Y-60.623
X89.019Y-92.401
X89.54Y-79.597
X90.534Y-98.571
X101.222Y-96.742
X101.222Y-58.742
X101.222Y-77.742
X102.412Y-90.502
X102.412Y-52.502
X102.412Y-71.502
X103.682Y-87.962
X103.682Y-49.962
X103.682Y-68.962
X106.222Y-98.942
X106.222Y-60.942
X106.222Y-79.942
X108.762Y-87.962
X108.762Y-49.962
X108.762Y-68.962
X110.032Y-90.502
X110.032Y-52.502
X110.032Y-71.502
X111.222Y-96.742
X111.222Y-58.742
X111.222Y-77.742
X120.378Y-99.654
X120.709Y-80.657
X121.041Y-61.66
X121.676Y-93.436
X122.008Y-74.439
X122.34Y-55.442
X122.991Y-90.918
X123.322Y-71.921
X123.654Y-52.924
X125.339Y-101.941
X125.67Y-82.944
X126.002Y-63.947
X128.07Y-91.007
X128.401Y-72.01
X128.733Y-53.013
X129.295Y-93.569
X129.422Y-125.816
X129.627Y-74.572
X129.958Y-55.575
X130.376Y-99.829
X130.708Y-80.832
X130.721Y-119.598
X131.039Y-61.834
X132.035Y-117.08
X134.383Y-128.103
X137.115Y-117.169
X138.34Y-119.731
X139.421Y-125.99
X139.525Y-104.901
X140.188Y-85.913
X140.851Y-66.924
X140.932Y-98.707
X141.595Y-79.718
X142.258Y-60.73
X142.29Y-96.212
X142.953Y-77.224
X143.616Y-58.236
X144.445Y-107.274
X145.109Y-88.286
X145.772Y-69.298
X147.367Y-96.39
X148.03Y-77.401
X148.548Y-98.973
X148.693Y-58.413
X149.211Y-79.984
X149.519Y-105.25
X149.874Y-60.996
X150.099Y-128.066
X150.182Y-86.262
X150.845Y-67.273
X153.446Y-122.667
X153.978Y-131.912
X155.542Y-120.751
X159.435Y-131.65
X160.284Y-122.571
X160.56Y-125.398
X168.855Y-137.885
X170.746Y-143.01
X174.171Y-134.406
X175.802Y-145.079
X176.88Y-133.556
X179.464Y-139.888
X180.409Y-137.21
T7
X43.975Y-69.144
X45.635Y-88.122
X47.295Y-107.099
X62.907Y-67.538
X64.563Y-86.466
X66.219Y-105.393
X83.359Y-57.189
X84.353Y-76.163
X85.348Y-95.137
X106.222Y-93.042
X106.222Y-55.042
X106.222Y-74.042
X125.442Y-96.042
X125.773Y-77.045
X126.105Y-58.048
X134.486Y-122.204
X144.651Y-101.378
X145.314Y-82.39
X145.977Y-63.401
X156.093Y-126.404
X174.99Y-138.912
M30
