M48
; DRILL file {KiCad 8.0.4} date 2024-08-27T16:31:31+0200
; FORMAT={-:-/ absolute / metric / decimal}
; #@! TF.CreationDate,2024-08-27T16:31:31+02:00
; #@! TF.GenerationSoftware,Kicad,Pcbnew,8.0.4
; #@! TF.FileFunction,Plated,1,2,PTH
FMAT,2
METRIC
; #@! TA.AperFunction,Plated,PTH,ViaDrill
T1C0.300
; #@! TA.AperFunction,Plated,PTH,ComponentDrill
T2C0.300
; #@! TA.AperFunction,Plated,PTH,ComponentDrill
T3C0.750
; #@! TA.AperFunction,Plated,PTH,ComponentDrill
T4C0.813
; #@! TA.AperFunction,Plated,PTH,ComponentDrill
T5C1.000
; #@! TA.AperFunction,Plated,PTH,ComponentDrill
T6C1.500
%
G90
G05
T1
X36.579Y-65.691
X37.239Y-71.319
X38.163Y-84.089
X38.899Y-90.297
X39.846Y-103.319
X40.564Y-109.325
X44.793Y-77.389
X46.313Y-95.91
X47.981Y-114.999
X50.671Y-64.433
X52.15Y-83.529
X53.835Y-102.35
X55.697Y-63.917
X55.83Y-111.737
X56.222Y-69.608
X56.248Y-115.933
X57.348Y-82.815
X57.873Y-88.506
X58.999Y-101.687
X59.524Y-107.378
X63.61Y-75.387
X65.261Y-94.285
X66.912Y-113.157
X69.447Y-63.006
X71.098Y-81.903
X72.749Y-100.775
X76.293Y-53.295
X76.619Y-59.001
X77.233Y-72.244
X77.559Y-77.949
X78.249Y-91.217
X78.307Y-86.305
X78.575Y-96.923
X80.06Y-86.407
X83.801Y-65.034
X84.741Y-83.983
X85.757Y-102.956
X90.067Y-52.864
X91.006Y-71.812
X92.022Y-90.786
X99.294Y-50.922
X99.322Y-56.637
X99.38Y-70.051
X99.407Y-75.766
X99.431Y-89.05
X99.458Y-94.765
X106.178Y-63.038
X106.263Y-82.167
X106.314Y-101.166
X113.072Y-51.212
X113.157Y-70.341
X113.208Y-89.34
X114.401Y-98.294
X114.426Y-102.16
X118.572Y-97.399
X118.645Y-91.685
X118.928Y-78.502
X119.001Y-72.787
X119.233Y-59.401
X119.305Y-53.686
X125.316Y-103.919
X125.671Y-85.021
X125.976Y-65.92
X126.262Y-104.847
X127.64Y-123.561
X127.713Y-117.847
X132.415Y-92.215
X132.771Y-73.318
X133.075Y-54.217
X133.476Y-101.901
X133.501Y-113.559
X134.384Y-130.081
X137.737Y-102.577
X137.909Y-96.864
X138.448Y-83.628
X138.62Y-77.916
X139.083Y-64.604
X139.255Y-58.891
X141.483Y-118.377
X142.567Y-112.015
X144.365Y-109.213
X145.076Y-90.265
X145.711Y-71.24
X149.14Y-125.333
X151.163Y-119.988
X151.667Y-97.635
X152.379Y-78.687
X152.616Y-107.113
X153.014Y-59.662
X153.247Y-133.766
X156.488Y-53.641
X156.996Y-53.082
X161.709Y-91.263
X162.051Y-82.876
X162.074Y-65.833
X162.074Y-68.347
X162.074Y-73.427
X162.099Y-70.887
X162.099Y-78.507
X162.125Y-75.967
X162.147Y-80.24
X162.15Y-59.818
X162.15Y-83.587
X162.254Y-55.647
X162.37Y-91.34
X162.407Y-63.267
X162.432Y-58.187
X163.31Y-75.084
X163.31Y-100.763
X163.818Y-80.24
X163.818Y-110.689
X163.921Y-125.196
X164.376Y-78.507
X164.376Y-111.212
X166.18Y-55.5
X167.052Y-90.171
X168.466Y-77.497
X168.466Y-105.701
X168.974Y-82.876
X169.152Y-118.619
X169.179Y-134.986
X169.338Y-144.364
X169.812Y-111.152
X169.821Y-80.849
X169.99Y-110.263
X169.999Y-83.587
X170.027Y-63.267
X170.027Y-58.187
X170.052Y-61.723
X170.117Y-60.733
X170.244Y-75.084
X170.25Y-56.389
X170.447Y-77.497
X173.272Y-130.996
X175.121Y-54.662
X182.633Y-141.109
T2
X47.508Y-77.051
X49.005Y-96.093
X50.795Y-76.763
X50.875Y-115.128
X52.293Y-95.805
X54.162Y-114.841
X66.395Y-75.526
X68.533Y-94.455
X69.683Y-75.238
X69.763Y-113.402
X71.821Y-94.168
X73.051Y-113.114
X86.605Y-65.341
X87.656Y-84.315
X88.562Y-103.279
X89.9Y-65.168
X90.951Y-84.142
X91.858Y-103.106
X109.296Y-63.28
X109.481Y-82.265
X109.55Y-101.355
X112.596Y-63.28
X112.781Y-82.265
X112.85Y-101.355
X128.025Y-104.351
X128.433Y-85.331
X128.689Y-66.283
X131.324Y-104.409
X131.733Y-85.389
X131.989Y-66.34
X137.069Y-130.523
X140.369Y-130.58
X147.146Y-109.762
X147.888Y-90.701
X148.525Y-71.712
X150.444Y-109.877
X151.186Y-90.816
X151.823Y-71.827
X155.718Y-135.057
X158.798Y-136.239
X170.935Y-146.648
X170.98Y-101.196
X170.98Y-104.496
X173.228Y-149.022
T3
X175.298Y-90.146
X175.298Y-92.146
T4
X158.546Y-55.647
X158.546Y-58.187
X158.546Y-60.727
X158.546Y-63.267
X158.546Y-65.807
X158.546Y-68.347
X158.546Y-70.887
X158.546Y-73.427
X158.546Y-75.967
X158.546Y-78.507
X158.546Y-81.047
X158.546Y-83.587
X173.786Y-55.647
X173.786Y-58.187
X173.786Y-60.727
X173.786Y-63.267
X173.786Y-65.807
X173.786Y-68.347
X173.786Y-70.887
X173.786Y-73.427
X173.786Y-75.967
X173.786Y-78.507
X173.786Y-81.047
X173.786Y-83.587
T5
X158.955Y-100.701
X158.955Y-103.201
X158.955Y-105.701
X173.455Y-100.701
X173.455Y-105.701
T6
X165.805Y-97.601G85X167.105Y-97.601
G05
X165.805Y-108.801G85X167.105Y-108.801
G05
M30
