G04 #@! TF.GenerationSoftware,KiCad,Pcbnew,8.0.4*
G04 #@! TF.CreationDate,2024-08-27T16:31:29+02:00*
G04 #@! TF.ProjectId,totem_0_3,746f7465-6d5f-4305-9f33-2e6b69636164,0.3*
G04 #@! TF.SameCoordinates,Original*
G04 #@! TF.FileFunction,Profile,NP*
%FSLAX46Y46*%
G04 Gerber Fmt 4.6, Leading zero omitted, Abs format (unit mm)*
G04 Created by KiCad (PCBNEW 8.0.4) date 2024-08-27 16:31:29*
%MOMM*%
%LPD*%
G01*
G04 APERTURE LIST*
G04 #@! TA.AperFunction,Profile*
%ADD10C,0.100000*%
G04 #@! TD*
G04 APERTURE END LIST*
D10*
X174774000Y-153518800D02*
X191157000Y-137034200D01*
X177237800Y-51791800D02*
X136674000Y-51791800D01*
X37868000Y-119000200D02*
X80743200Y-114987000D01*
X116735000Y-45111600D02*
X95754600Y-45111600D01*
X72005600Y-46915000D02*
X72589800Y-56592400D01*
X124354659Y-132293925D02*
X143405000Y-132868600D01*
X191157000Y-137034200D02*
X177237800Y-123191200D01*
X72589800Y-56592400D02*
X32813400Y-59945200D01*
X95780000Y-45975200D02*
X72005600Y-46915000D01*
X143405000Y-132868600D02*
X161032600Y-139777400D01*
X136674000Y-51791800D02*
X136674000Y-45924400D01*
X124381081Y-106890750D02*
X124354659Y-132293925D01*
X95754600Y-45111600D02*
X95780000Y-45975200D01*
X32813400Y-59945200D02*
X37868000Y-119000200D01*
X136674000Y-45924400D02*
X116760400Y-45924400D01*
X177237800Y-123191200D02*
X177237800Y-51791800D01*
X80743200Y-106770100D02*
X124381081Y-106890750D01*
X161032600Y-139777400D02*
X174774000Y-153518800D01*
X80743200Y-114987000D02*
X80743200Y-106770100D01*
X116760400Y-45924400D02*
X116735000Y-45111600D01*
M02*
