%TF.GenerationSoftware,KiCad,Pcbnew,8.0.4*%
%TF.CreationDate,2024-08-27T16:31:32+02:00*%
%TF.ProjectId,totem_0_3,746f7465-6d5f-4305-9f33-2e6b69636164,0.3*%
%TF.SameCoordinates,Original*%
%TF.FileFunction,Drillmap*%
%TF.FilePolarity,Positive*%
%FSLAX45Y45*%
G04 Gerber Fmt 4.5, Leading zero omitted, Abs format (unit mm)*
G04 Created by KiCad (PCBNEW 8.0.4) date 2024-08-27 16:31:32*
%MOMM*%
%LPD*%
G01*
G04 APERTURE LIST*
%ADD10C,0.100000*%
%ADD11C,0.200000*%
%ADD12C,0.150000*%
G04 APERTURE END LIST*
D10*
X17477400Y-15351880D02*
X19115700Y-13703420D01*
X17723780Y-5179180D02*
X13667400Y-5179180D01*
X3786800Y-11900020D02*
X8074320Y-11498700D01*
X11673500Y-4511160D02*
X9575460Y-4511160D01*
X7200560Y-4691500D02*
X7258980Y-5659240D01*
X12435466Y-13229392D02*
X14340500Y-13286860D01*
X19115700Y-13703420D02*
X17723780Y-12319120D01*
X7258980Y-5659240D02*
X3281340Y-5994520D01*
X9578000Y-4597520D02*
X7200560Y-4691500D01*
X14340500Y-13286860D02*
X16103260Y-13977740D01*
X13667400Y-5179180D02*
X13667400Y-4592440D01*
X12438108Y-10689075D02*
X12435466Y-13229392D01*
X9575460Y-4511160D02*
X9578000Y-4597520D01*
X3281340Y-5994520D02*
X3786800Y-11900020D01*
X13667400Y-4592440D02*
X11676040Y-4592440D01*
X17723780Y-12319120D02*
X17723780Y-5179180D01*
X8074320Y-10677010D02*
X12438108Y-10689075D01*
X16103260Y-13977740D02*
X17477400Y-15351880D01*
X8074320Y-11498700D02*
X8074320Y-10677010D01*
X11676040Y-4592440D02*
X11673500Y-4511160D01*
D11*
D10*
X3642930Y-6554088D02*
X3672930Y-6584088D01*
X3672930Y-6554088D02*
X3642930Y-6584088D01*
X3708861Y-7116903D02*
X3738861Y-7146903D01*
X3738861Y-7116903D02*
X3708861Y-7146903D01*
X3801339Y-8393862D02*
X3831339Y-8423862D01*
X3831339Y-8393862D02*
X3801339Y-8423862D01*
X3874893Y-9014654D02*
X3904893Y-9044654D01*
X3904893Y-9014654D02*
X3874893Y-9044654D01*
X3969585Y-10316916D02*
X3999585Y-10346916D01*
X3999585Y-10316916D02*
X3969585Y-10346916D01*
X4041367Y-10917465D02*
X4071367Y-10947465D01*
X4071367Y-10917465D02*
X4041367Y-10947465D01*
X4464294Y-7723933D02*
X4494294Y-7753933D01*
X4494294Y-7723933D02*
X4464294Y-7753933D01*
X4616274Y-9576029D02*
X4646274Y-9606029D01*
X4646274Y-9576029D02*
X4616274Y-9606029D01*
X4783137Y-11484895D02*
X4813137Y-11514895D01*
X4813137Y-11484895D02*
X4783137Y-11514895D01*
X5052105Y-6428251D02*
X5082105Y-6458251D01*
X5082105Y-6428251D02*
X5052105Y-6458251D01*
X5199973Y-8337882D02*
X5229973Y-8367882D01*
X5229973Y-8337882D02*
X5199973Y-8367882D01*
X5368543Y-10220020D02*
X5398543Y-10250020D01*
X5398543Y-10220020D02*
X5368543Y-10250020D01*
X5554698Y-6376732D02*
X5584698Y-6406732D01*
X5584698Y-6376732D02*
X5554698Y-6406732D01*
X5567955Y-11158713D02*
X5597955Y-11188713D01*
X5597955Y-11158713D02*
X5567955Y-11188713D01*
X5607225Y-6945819D02*
X5637225Y-6975819D01*
X5637225Y-6945819D02*
X5607225Y-6975819D01*
X5609764Y-11578305D02*
X5639764Y-11608305D01*
X5639764Y-11578305D02*
X5609764Y-11608305D01*
X5719798Y-8266492D02*
X5749798Y-8296492D01*
X5749798Y-8266492D02*
X5719798Y-8296492D01*
X5772325Y-8835580D02*
X5802325Y-8865580D01*
X5802325Y-8835580D02*
X5772325Y-8865580D01*
X5884898Y-10153712D02*
X5914898Y-10183712D01*
X5914898Y-10153712D02*
X5884898Y-10183712D01*
X5937425Y-10722799D02*
X5967425Y-10752799D01*
X5967425Y-10722799D02*
X5937425Y-10752799D01*
X6346014Y-7523708D02*
X6376014Y-7553708D01*
X6376014Y-7523708D02*
X6346014Y-7553708D01*
X6511114Y-9413469D02*
X6541114Y-9443469D01*
X6541114Y-9413469D02*
X6511114Y-9443469D01*
X6676215Y-11300688D02*
X6706215Y-11330688D01*
X6706215Y-11300688D02*
X6676215Y-11330688D01*
X6929713Y-6285562D02*
X6959713Y-6315562D01*
X6959713Y-6285562D02*
X6929713Y-6315562D01*
X7094813Y-8175322D02*
X7124813Y-8205322D01*
X7124813Y-8175322D02*
X7094813Y-8205322D01*
X7259913Y-10062542D02*
X7289913Y-10092542D01*
X7289913Y-10062542D02*
X7259913Y-10092542D01*
X7614297Y-5314528D02*
X7644297Y-5344528D01*
X7644297Y-5314528D02*
X7614297Y-5344528D01*
X7646932Y-5885102D02*
X7676932Y-5915102D01*
X7676932Y-5885102D02*
X7646932Y-5915102D01*
X7708277Y-7209368D02*
X7738277Y-7239368D01*
X7738277Y-7209368D02*
X7708277Y-7239368D01*
X7740912Y-7779942D02*
X7770912Y-7809942D01*
X7770912Y-7779942D02*
X7740912Y-7809942D01*
X7809877Y-9106748D02*
X7839877Y-9136748D01*
X7839877Y-9106748D02*
X7809877Y-9136748D01*
X7815720Y-8615516D02*
X7845720Y-8645516D01*
X7845720Y-8615516D02*
X7815720Y-8645516D01*
X7842512Y-9677323D02*
X7872512Y-9707323D01*
X7872512Y-9677323D02*
X7842512Y-9707323D01*
X7990980Y-8625676D02*
X8020980Y-8655676D01*
X8020980Y-8625676D02*
X7990980Y-8655676D01*
X8365103Y-6488423D02*
X8395103Y-6518423D01*
X8395103Y-6488423D02*
X8365103Y-6518423D01*
X8459083Y-8383263D02*
X8489083Y-8413263D01*
X8489083Y-8383263D02*
X8459083Y-8413263D01*
X8560683Y-10280643D02*
X8590683Y-10310643D01*
X8590683Y-10280643D02*
X8560683Y-10310643D01*
X8991656Y-5271402D02*
X9021656Y-5301402D01*
X9021656Y-5271402D02*
X8991656Y-5301402D01*
X9085636Y-7166242D02*
X9115636Y-7196242D01*
X9115636Y-7166242D02*
X9085636Y-7196242D01*
X9187236Y-9063622D02*
X9217236Y-9093622D01*
X9217236Y-9063622D02*
X9187236Y-9093622D01*
X9914423Y-5077176D02*
X9944423Y-5107176D01*
X9944423Y-5077176D02*
X9914423Y-5107176D01*
X9917152Y-5648676D02*
X9947152Y-5678676D01*
X9947152Y-5648676D02*
X9917152Y-5678676D01*
X9922995Y-6990098D02*
X9952995Y-7020098D01*
X9952995Y-6990098D02*
X9922995Y-7020098D01*
X9925724Y-7561598D02*
X9955724Y-7591598D01*
X9955724Y-7561598D02*
X9925724Y-7591598D01*
X9928075Y-8890018D02*
X9958075Y-8920018D01*
X9958075Y-8890018D02*
X9928075Y-8920018D01*
X9930804Y-9461518D02*
X9960804Y-9491518D01*
X9960804Y-9461518D02*
X9930804Y-9491518D01*
X10602763Y-6288756D02*
X10632763Y-6318756D01*
X10632763Y-6288756D02*
X10602763Y-6318756D01*
X10611335Y-8201678D02*
X10641335Y-8231678D01*
X10641335Y-8201678D02*
X10611335Y-8231678D01*
X10616415Y-10101598D02*
X10646415Y-10131598D01*
X10646415Y-10101598D02*
X10616415Y-10131598D01*
X11292152Y-5106194D02*
X11322152Y-5136194D01*
X11322152Y-5106194D02*
X11292152Y-5136194D01*
X11300723Y-7019116D02*
X11330723Y-7049116D01*
X11330723Y-7019116D02*
X11300723Y-7049116D01*
X11305803Y-8919036D02*
X11335803Y-8949036D01*
X11335803Y-8919036D02*
X11305803Y-8949036D01*
X11425060Y-9814396D02*
X11455060Y-9844396D01*
X11455060Y-9814396D02*
X11425060Y-9844396D01*
X11427600Y-10201000D02*
X11457600Y-10231000D01*
X11457600Y-10201000D02*
X11427600Y-10231000D01*
X11842246Y-9724932D02*
X11872246Y-9754932D01*
X11872246Y-9724932D02*
X11842246Y-9754932D01*
X11849492Y-9153471D02*
X11879492Y-9183471D01*
X11879492Y-9153471D02*
X11849492Y-9183471D01*
X11877806Y-7835171D02*
X11907806Y-7865171D01*
X11907806Y-7835171D02*
X11877806Y-7865171D01*
X11885052Y-7263711D02*
X11915052Y-7293711D01*
X11915052Y-7263711D02*
X11885052Y-7293711D01*
X11908286Y-5925092D02*
X11938286Y-5955092D01*
X11938286Y-5925092D02*
X11908286Y-5955092D01*
X11915532Y-5353631D02*
X11945532Y-5383631D01*
X11945532Y-5353631D02*
X11915532Y-5383631D01*
X12516582Y-10376880D02*
X12546582Y-10406880D01*
X12546582Y-10376880D02*
X12516582Y-10406880D01*
X12552142Y-8487120D02*
X12582142Y-8517120D01*
X12582142Y-8487120D02*
X12552142Y-8517120D01*
X12582622Y-6577040D02*
X12612622Y-6607040D01*
X12612622Y-6577040D02*
X12582622Y-6607040D01*
X12611240Y-10469716D02*
X12641240Y-10499716D01*
X12641240Y-10469716D02*
X12611240Y-10499716D01*
X12749026Y-12341132D02*
X12779026Y-12371132D01*
X12779026Y-12341132D02*
X12749026Y-12371132D01*
X12756272Y-11769671D02*
X12786272Y-11799671D01*
X12786272Y-11769671D02*
X12756272Y-11799671D01*
X13226504Y-9206529D02*
X13256504Y-9236529D01*
X13256504Y-9206529D02*
X13226504Y-9236529D01*
X13262064Y-7316769D02*
X13292064Y-7346769D01*
X13292064Y-7316769D02*
X13262064Y-7346769D01*
X13292544Y-5406689D02*
X13322544Y-5436689D01*
X13322544Y-5406689D02*
X13292544Y-5436689D01*
X13332600Y-10175076D02*
X13362600Y-10205076D01*
X13362600Y-10175076D02*
X13332600Y-10205076D01*
X13335140Y-11340936D02*
X13365140Y-11370936D01*
X13365140Y-11340936D02*
X13335140Y-11370936D01*
X13423362Y-12993080D02*
X13453362Y-13023080D01*
X13453362Y-12993080D02*
X13423362Y-13023080D01*
X13758652Y-10242679D02*
X13788652Y-10272679D01*
X13788652Y-10242679D02*
X13758652Y-10272679D01*
X13775869Y-9671432D02*
X13805869Y-9701432D01*
X13805869Y-9671432D02*
X13775869Y-9701432D01*
X13829772Y-8347839D02*
X13859772Y-8377839D01*
X13859772Y-8347839D02*
X13829772Y-8377839D01*
X13846990Y-7776592D02*
X13876990Y-7806592D01*
X13876990Y-7776592D02*
X13846990Y-7806592D01*
X13893272Y-6445379D02*
X13923272Y-6475379D01*
X13923272Y-6445379D02*
X13893272Y-6475379D01*
X13910490Y-5874131D02*
X13940490Y-5904131D01*
X13940490Y-5874131D02*
X13910490Y-5904131D01*
X14133284Y-11822729D02*
X14163284Y-11852729D01*
X14163284Y-11822729D02*
X14133284Y-11852729D01*
X14241680Y-11186520D02*
X14271680Y-11216520D01*
X14271680Y-11186520D02*
X14241680Y-11216520D01*
X14421507Y-10906296D02*
X14451507Y-10936296D01*
X14451507Y-10906296D02*
X14421507Y-10936296D01*
X14492627Y-9011456D02*
X14522627Y-9041456D01*
X14522627Y-9011456D02*
X14492627Y-9041456D01*
X14556127Y-7108996D02*
X14586127Y-7138996D01*
X14586127Y-7108996D02*
X14556127Y-7138996D01*
X14899023Y-12518289D02*
X14929023Y-12548289D01*
X14929023Y-12518289D02*
X14899023Y-12548289D01*
X15101283Y-11983770D02*
X15131283Y-12013770D01*
X15131283Y-11983770D02*
X15101283Y-12013770D01*
X15151747Y-9748514D02*
X15181747Y-9778514D01*
X15181747Y-9748514D02*
X15151747Y-9778514D01*
X15222866Y-7853674D02*
X15252866Y-7883674D01*
X15252866Y-7853674D02*
X15222866Y-7883674D01*
X15246620Y-10696300D02*
X15276620Y-10726300D01*
X15276620Y-10696300D02*
X15246620Y-10726300D01*
X15286366Y-5951214D02*
X15316366Y-5981214D01*
X15316366Y-5951214D02*
X15286366Y-5981214D01*
X15309712Y-13361557D02*
X15339712Y-13391557D01*
X15339712Y-13361557D02*
X15309712Y-13391557D01*
X15633840Y-5349076D02*
X15663840Y-5379076D01*
X15663840Y-5349076D02*
X15633840Y-5379076D01*
X15684640Y-5293196D02*
X15714640Y-5323196D01*
X15714640Y-5293196D02*
X15684640Y-5323196D01*
X16155940Y-9111340D02*
X16185940Y-9141340D01*
X16185940Y-9111340D02*
X16155940Y-9141340D01*
X16190100Y-8272616D02*
X16220100Y-8302616D01*
X16220100Y-8272616D02*
X16190100Y-8302616D01*
X16192400Y-6568276D02*
X16222400Y-6598276D01*
X16222400Y-6568276D02*
X16192400Y-6598276D01*
X16192400Y-6819736D02*
X16222400Y-6849736D01*
X16222400Y-6819736D02*
X16192400Y-6849736D01*
X16192400Y-7327736D02*
X16222400Y-7357736D01*
X16222400Y-7327736D02*
X16192400Y-7357736D01*
X16194940Y-7073736D02*
X16224940Y-7103736D01*
X16224940Y-7073736D02*
X16194940Y-7103736D01*
X16194940Y-7835736D02*
X16224940Y-7865736D01*
X16224940Y-7835736D02*
X16194940Y-7865736D01*
X16197480Y-7581736D02*
X16227480Y-7611736D01*
X16227480Y-7581736D02*
X16197480Y-7611736D01*
X16199736Y-8008980D02*
X16229736Y-8038980D01*
X16229736Y-8008980D02*
X16199736Y-8038980D01*
X16200020Y-5966820D02*
X16230020Y-5996820D01*
X16230020Y-5966820D02*
X16200020Y-5996820D01*
X16200020Y-8343736D02*
X16230020Y-8373736D01*
X16230020Y-8343736D02*
X16200020Y-8373736D01*
X16210420Y-5549736D02*
X16240420Y-5579736D01*
X16240420Y-5549736D02*
X16210420Y-5579736D01*
X16221980Y-9118960D02*
X16251980Y-9148960D01*
X16251980Y-9118960D02*
X16221980Y-9148960D01*
X16225660Y-6311736D02*
X16255660Y-6341736D01*
X16255660Y-6311736D02*
X16225660Y-6341736D01*
X16228200Y-5803736D02*
X16258200Y-5833736D01*
X16258200Y-5803736D02*
X16228200Y-5833736D01*
X16315960Y-7493360D02*
X16345960Y-7523360D01*
X16345960Y-7493360D02*
X16315960Y-7523360D01*
X16315960Y-10061300D02*
X16345960Y-10091300D01*
X16345960Y-10061300D02*
X16315960Y-10091300D01*
X16366760Y-8008980D02*
X16396760Y-8038980D01*
X16396760Y-8008980D02*
X16366760Y-8038980D01*
X16366760Y-11053916D02*
X16396760Y-11083916D01*
X16396760Y-11053916D02*
X16366760Y-11083916D01*
X16377104Y-12504595D02*
X16407104Y-12534595D01*
X16407104Y-12504595D02*
X16377104Y-12534595D01*
X16422640Y-7835736D02*
X16452640Y-7865736D01*
X16452640Y-7835736D02*
X16422640Y-7865736D01*
X16422640Y-11106203D02*
X16452640Y-11136203D01*
X16452640Y-11106203D02*
X16422640Y-11136203D01*
X16602980Y-5535020D02*
X16632980Y-5565020D01*
X16632980Y-5535020D02*
X16602980Y-5565020D01*
X16690240Y-9002120D02*
X16720240Y-9032120D01*
X16720240Y-9002120D02*
X16690240Y-9032120D01*
X16831580Y-7734660D02*
X16861580Y-7764660D01*
X16861580Y-7734660D02*
X16831580Y-7764660D01*
X16831580Y-10555140D02*
X16861580Y-10585140D01*
X16861580Y-10555140D02*
X16831580Y-10585140D01*
X16882380Y-8272616D02*
X16912380Y-8302616D01*
X16912380Y-8272616D02*
X16882380Y-8302616D01*
X16900160Y-11846920D02*
X16930160Y-11876920D01*
X16930160Y-11846920D02*
X16900160Y-11876920D01*
X16902950Y-13483608D02*
X16932950Y-13513608D01*
X16932950Y-13483608D02*
X16902950Y-13513608D01*
X16918780Y-14421433D02*
X16948780Y-14451433D01*
X16948780Y-14421433D02*
X16918780Y-14451433D01*
X16966200Y-11100160D02*
X16996200Y-11130160D01*
X16996200Y-11100160D02*
X16966200Y-11130160D01*
X16967100Y-8069940D02*
X16997100Y-8099940D01*
X16997100Y-8069940D02*
X16967100Y-8099940D01*
X16983980Y-11011260D02*
X17013980Y-11041260D01*
X17013980Y-11011260D02*
X16983980Y-11041260D01*
X16984880Y-8343736D02*
X17014880Y-8373736D01*
X17014880Y-8343736D02*
X16984880Y-8373736D01*
X16987660Y-6311736D02*
X17017660Y-6341736D01*
X17017660Y-6311736D02*
X16987660Y-6341736D01*
X16987660Y-5803736D02*
X17017660Y-5833736D01*
X17017660Y-5803736D02*
X16987660Y-5833736D01*
X16990200Y-6157320D02*
X17020200Y-6187320D01*
X17020200Y-6157320D02*
X16990200Y-6187320D01*
X16996680Y-6058260D02*
X17026680Y-6088260D01*
X17026680Y-6058260D02*
X16996680Y-6088260D01*
X17009380Y-7493360D02*
X17039380Y-7523360D01*
X17039380Y-7493360D02*
X17009380Y-7523360D01*
X17009996Y-5623920D02*
X17039996Y-5653920D01*
X17039996Y-5623920D02*
X17009996Y-5653920D01*
X17029700Y-7734660D02*
X17059700Y-7764660D01*
X17059700Y-7734660D02*
X17029700Y-7764660D01*
X17312157Y-13084648D02*
X17342157Y-13114648D01*
X17342157Y-13084648D02*
X17312157Y-13114648D01*
X17497060Y-5451200D02*
X17527060Y-5481200D01*
X17527060Y-5451200D02*
X17497060Y-5481200D01*
X18248334Y-14095861D02*
X18278334Y-14125861D01*
X18278334Y-14095861D02*
X18248334Y-14125861D01*
X4765801Y-7705057D02*
G75*
G02*
X4735801Y-7705057I-15000J0D01*
G01*
X4735801Y-7705057D02*
G75*
G02*
X4765801Y-7705057I15000J0D01*
G01*
X4915546Y-9609255D02*
G75*
G02*
X4885546Y-9609255I-15000J0D01*
G01*
X4885546Y-9609255D02*
G75*
G02*
X4915546Y-9609255I15000J0D01*
G01*
X5094546Y-7676296D02*
G75*
G02*
X5064546Y-7676296I-15000J0D01*
G01*
X5064546Y-7676296D02*
G75*
G02*
X5094546Y-7676296I15000J0D01*
G01*
X5102485Y-11512826D02*
G75*
G02*
X5072485Y-11512826I-15000J0D01*
G01*
X5072485Y-11512826D02*
G75*
G02*
X5102485Y-11512826I15000J0D01*
G01*
X5244291Y-9580494D02*
G75*
G02*
X5214291Y-9580494I-15000J0D01*
G01*
X5214291Y-9580494D02*
G75*
G02*
X5244291Y-9580494I15000J0D01*
G01*
X5431229Y-11484065D02*
G75*
G02*
X5401229Y-11484065I-15000J0D01*
G01*
X5401229Y-11484065D02*
G75*
G02*
X5431229Y-11484065I15000J0D01*
G01*
X6654538Y-7552563D02*
G75*
G02*
X6624538Y-7552563I-15000J0D01*
G01*
X6624538Y-7552563D02*
G75*
G02*
X6654538Y-7552563I15000J0D01*
G01*
X6868308Y-9445521D02*
G75*
G02*
X6838308Y-9445521I-15000J0D01*
G01*
X6838308Y-9445521D02*
G75*
G02*
X6868308Y-9445521I15000J0D01*
G01*
X6983282Y-7523802D02*
G75*
G02*
X6953282Y-7523802I-15000J0D01*
G01*
X6953282Y-7523802D02*
G75*
G02*
X6983282Y-7523802I15000J0D01*
G01*
X6991329Y-11340173D02*
G75*
G02*
X6961329Y-11340173I-15000J0D01*
G01*
X6961329Y-11340173D02*
G75*
G02*
X6991329Y-11340173I15000J0D01*
G01*
X7197052Y-9416759D02*
G75*
G02*
X7167052Y-9416759I-15000J0D01*
G01*
X7167052Y-9416759D02*
G75*
G02*
X7197052Y-9416759I15000J0D01*
G01*
X7320074Y-11311411D02*
G75*
G02*
X7290074Y-11311411I-15000J0D01*
G01*
X7290074Y-11311411D02*
G75*
G02*
X7320074Y-11311411I15000J0D01*
G01*
X8675463Y-6534112D02*
G75*
G02*
X8645463Y-6534112I-15000J0D01*
G01*
X8645463Y-6534112D02*
G75*
G02*
X8675463Y-6534112I15000J0D01*
G01*
X8780587Y-8431507D02*
G75*
G02*
X8750587Y-8431507I-15000J0D01*
G01*
X8750587Y-8431507D02*
G75*
G02*
X8780587Y-8431507I15000J0D01*
G01*
X8871225Y-10327861D02*
G75*
G02*
X8841225Y-10327861I-15000J0D01*
G01*
X8841225Y-10327861D02*
G75*
G02*
X8871225Y-10327861I15000J0D01*
G01*
X9005011Y-6516842D02*
G75*
G02*
X8975011Y-6516842I-15000J0D01*
G01*
X8975011Y-6516842D02*
G75*
G02*
X9005011Y-6516842I15000J0D01*
G01*
X9110135Y-8414236D02*
G75*
G02*
X9080135Y-8414236I-15000J0D01*
G01*
X9080135Y-8414236D02*
G75*
G02*
X9110135Y-8414236I15000J0D01*
G01*
X9200773Y-10310590D02*
G75*
G02*
X9170773Y-10310590I-15000J0D01*
G01*
X9170773Y-10310590D02*
G75*
G02*
X9200773Y-10310590I15000J0D01*
G01*
X10944610Y-6328022D02*
G75*
G02*
X10914610Y-6328022I-15000J0D01*
G01*
X10914610Y-6328022D02*
G75*
G02*
X10944610Y-6328022I15000J0D01*
G01*
X10963063Y-8226536D02*
G75*
G02*
X10933063Y-8226536I-15000J0D01*
G01*
X10933063Y-8226536D02*
G75*
G02*
X10963063Y-8226536I15000J0D01*
G01*
X10970010Y-10135482D02*
G75*
G02*
X10940010Y-10135482I-15000J0D01*
G01*
X10940010Y-10135482D02*
G75*
G02*
X10970010Y-10135482I15000J0D01*
G01*
X11274609Y-6328022D02*
G75*
G02*
X11244609Y-6328022I-15000J0D01*
G01*
X11244609Y-6328022D02*
G75*
G02*
X11274609Y-6328022I15000J0D01*
G01*
X11293063Y-8226536D02*
G75*
G02*
X11263063Y-8226536I-15000J0D01*
G01*
X11263063Y-8226536D02*
G75*
G02*
X11293063Y-8226536I15000J0D01*
G01*
X11300010Y-10135482D02*
G75*
G02*
X11270010Y-10135482I-15000J0D01*
G01*
X11270010Y-10135482D02*
G75*
G02*
X11300010Y-10135482I15000J0D01*
G01*
X12817494Y-10435138D02*
G75*
G02*
X12787494Y-10435138I-15000J0D01*
G01*
X12787494Y-10435138D02*
G75*
G02*
X12817494Y-10435138I15000J0D01*
G01*
X12858315Y-8533101D02*
G75*
G02*
X12828315Y-8533101I-15000J0D01*
G01*
X12828315Y-8533101D02*
G75*
G02*
X12858315Y-8533101I15000J0D01*
G01*
X12883943Y-6628258D02*
G75*
G02*
X12853943Y-6628258I-15000J0D01*
G01*
X12853943Y-6628258D02*
G75*
G02*
X12883943Y-6628258I15000J0D01*
G01*
X13147444Y-10440898D02*
G75*
G02*
X13117444Y-10440898I-15000J0D01*
G01*
X13117444Y-10440898D02*
G75*
G02*
X13147444Y-10440898I15000J0D01*
G01*
X13188265Y-8538861D02*
G75*
G02*
X13158265Y-8538861I-15000J0D01*
G01*
X13158265Y-8538861D02*
G75*
G02*
X13188265Y-8538861I15000J0D01*
G01*
X13213893Y-6634018D02*
G75*
G02*
X13183893Y-6634018I-15000J0D01*
G01*
X13183893Y-6634018D02*
G75*
G02*
X13213893Y-6634018I15000J0D01*
G01*
X13721916Y-13052281D02*
G75*
G02*
X13691916Y-13052281I-15000J0D01*
G01*
X13691916Y-13052281D02*
G75*
G02*
X13721916Y-13052281I15000J0D01*
G01*
X14051866Y-13058041D02*
G75*
G02*
X14021866Y-13058041I-15000J0D01*
G01*
X14021866Y-13058041D02*
G75*
G02*
X14051866Y-13058041I15000J0D01*
G01*
X14729577Y-10976165D02*
G75*
G02*
X14699577Y-10976165I-15000J0D01*
G01*
X14699577Y-10976165D02*
G75*
G02*
X14729577Y-10976165I15000J0D01*
G01*
X14803765Y-9070053D02*
G75*
G02*
X14773765Y-9070053I-15000J0D01*
G01*
X14773765Y-9070053D02*
G75*
G02*
X14803765Y-9070053I15000J0D01*
G01*
X14867533Y-7171202D02*
G75*
G02*
X14837533Y-7171202I-15000J0D01*
G01*
X14837533Y-7171202D02*
G75*
G02*
X14867533Y-7171202I15000J0D01*
G01*
X15059376Y-10987682D02*
G75*
G02*
X15029376Y-10987682I-15000J0D01*
G01*
X15029376Y-10987682D02*
G75*
G02*
X15059376Y-10987682I15000J0D01*
G01*
X15133564Y-9081570D02*
G75*
G02*
X15103564Y-9081570I-15000J0D01*
G01*
X15103564Y-9081570D02*
G75*
G02*
X15133564Y-9081570I15000J0D01*
G01*
X15197332Y-7182719D02*
G75*
G02*
X15167332Y-7182719I-15000J0D01*
G01*
X15167332Y-7182719D02*
G75*
G02*
X15197332Y-7182719I15000J0D01*
G01*
X15586762Y-13505650D02*
G75*
G02*
X15556762Y-13505650I-15000J0D01*
G01*
X15556762Y-13505650D02*
G75*
G02*
X15586762Y-13505650I15000J0D01*
G01*
X15894844Y-13623912D02*
G75*
G02*
X15864844Y-13623912I-15000J0D01*
G01*
X15864844Y-13623912D02*
G75*
G02*
X15894844Y-13623912I15000J0D01*
G01*
X17108521Y-14664818D02*
G75*
G02*
X17078521Y-14664818I-15000J0D01*
G01*
X17078521Y-14664818D02*
G75*
G02*
X17108521Y-14664818I15000J0D01*
G01*
X17113040Y-10119580D02*
G75*
G02*
X17083040Y-10119580I-15000J0D01*
G01*
X17083040Y-10119580D02*
G75*
G02*
X17113040Y-10119580I15000J0D01*
G01*
X17113040Y-10449580D02*
G75*
G02*
X17083040Y-10449580I-15000J0D01*
G01*
X17083040Y-10449580D02*
G75*
G02*
X17113040Y-10449580I15000J0D01*
G01*
X17337758Y-14902200D02*
G75*
G02*
X17307758Y-14902200I-15000J0D01*
G01*
X17307758Y-14902200D02*
G75*
G02*
X17337758Y-14902200I15000J0D01*
G01*
X17529840Y-8977080D02*
X17529840Y-9052080D01*
X17492340Y-9014580D02*
X17567340Y-9014580D01*
X17529840Y-9177080D02*
X17529840Y-9252080D01*
X17492340Y-9214580D02*
X17567340Y-9214580D01*
X15883317Y-5593473D02*
X15883317Y-5535999D01*
X15825843Y-5535999D01*
X15825843Y-5593473D01*
X15883317Y-5593473D01*
X15883317Y-5847473D02*
X15883317Y-5789999D01*
X15825843Y-5789999D01*
X15825843Y-5847473D01*
X15883317Y-5847473D01*
X15883317Y-6101473D02*
X15883317Y-6043999D01*
X15825843Y-6043999D01*
X15825843Y-6101473D01*
X15883317Y-6101473D01*
X15883317Y-6355473D02*
X15883317Y-6297999D01*
X15825843Y-6297999D01*
X15825843Y-6355473D01*
X15883317Y-6355473D01*
X15883317Y-6609473D02*
X15883317Y-6551999D01*
X15825843Y-6551999D01*
X15825843Y-6609473D01*
X15883317Y-6609473D01*
X15883317Y-6863473D02*
X15883317Y-6805999D01*
X15825843Y-6805999D01*
X15825843Y-6863473D01*
X15883317Y-6863473D01*
X15883317Y-7117473D02*
X15883317Y-7059999D01*
X15825843Y-7059999D01*
X15825843Y-7117473D01*
X15883317Y-7117473D01*
X15883317Y-7371473D02*
X15883317Y-7313999D01*
X15825843Y-7313999D01*
X15825843Y-7371473D01*
X15883317Y-7371473D01*
X15883317Y-7625473D02*
X15883317Y-7567999D01*
X15825843Y-7567999D01*
X15825843Y-7625473D01*
X15883317Y-7625473D01*
X15883317Y-7879473D02*
X15883317Y-7821999D01*
X15825843Y-7821999D01*
X15825843Y-7879473D01*
X15883317Y-7879473D01*
X15883317Y-8133473D02*
X15883317Y-8075999D01*
X15825843Y-8075999D01*
X15825843Y-8133473D01*
X15883317Y-8133473D01*
X15883317Y-8387473D02*
X15883317Y-8329999D01*
X15825843Y-8329999D01*
X15825843Y-8387473D01*
X15883317Y-8387473D01*
X17407317Y-5593473D02*
X17407317Y-5535999D01*
X17349843Y-5535999D01*
X17349843Y-5593473D01*
X17407317Y-5593473D01*
X17407317Y-5847473D02*
X17407317Y-5789999D01*
X17349843Y-5789999D01*
X17349843Y-5847473D01*
X17407317Y-5847473D01*
X17407317Y-6101473D02*
X17407317Y-6043999D01*
X17349843Y-6043999D01*
X17349843Y-6101473D01*
X17407317Y-6101473D01*
X17407317Y-6355473D02*
X17407317Y-6297999D01*
X17349843Y-6297999D01*
X17349843Y-6355473D01*
X17407317Y-6355473D01*
X17407317Y-6609473D02*
X17407317Y-6551999D01*
X17349843Y-6551999D01*
X17349843Y-6609473D01*
X17407317Y-6609473D01*
X17407317Y-6863473D02*
X17407317Y-6805999D01*
X17349843Y-6805999D01*
X17349843Y-6863473D01*
X17407317Y-6863473D01*
X17407317Y-7117473D02*
X17407317Y-7059999D01*
X17349843Y-7059999D01*
X17349843Y-7117473D01*
X17407317Y-7117473D01*
X17407317Y-7371473D02*
X17407317Y-7313999D01*
X17349843Y-7313999D01*
X17349843Y-7371473D01*
X17407317Y-7371473D01*
X17407317Y-7625473D02*
X17407317Y-7567999D01*
X17349843Y-7567999D01*
X17349843Y-7625473D01*
X17407317Y-7625473D01*
X17407317Y-7879473D02*
X17407317Y-7821999D01*
X17349843Y-7821999D01*
X17349843Y-7879473D01*
X17407317Y-7879473D01*
X17407317Y-8133473D02*
X17407317Y-8075999D01*
X17349843Y-8075999D01*
X17349843Y-8133473D01*
X17407317Y-8133473D01*
X17407317Y-8387473D02*
X17407317Y-8329999D01*
X17349843Y-8329999D01*
X17349843Y-8387473D01*
X17407317Y-8387473D01*
X15895520Y-10120140D02*
X15945520Y-10070140D01*
X15895520Y-10020140D01*
X15845520Y-10070140D01*
X15895520Y-10120140D01*
X15895520Y-10370140D02*
X15945520Y-10320140D01*
X15895520Y-10270140D01*
X15845520Y-10320140D01*
X15895520Y-10370140D01*
X15895520Y-10620140D02*
X15945520Y-10570140D01*
X15895520Y-10520140D01*
X15845520Y-10570140D01*
X15895520Y-10620140D01*
X17345520Y-10120140D02*
X17395520Y-10070140D01*
X17345520Y-10020140D01*
X17295520Y-10070140D01*
X17345520Y-10120140D01*
X17345520Y-10620140D02*
X17395520Y-10570140D01*
X17345520Y-10520140D01*
X17295520Y-10570140D01*
X17345520Y-10620140D01*
D12*
X16570520Y-9685140D02*
X16720520Y-9835140D01*
X16720520Y-9685140D02*
X16570520Y-9835140D01*
X16720520Y-9760140D02*
G75*
G02*
X16570520Y-9760140I-75000J0D01*
G01*
X16570520Y-9760140D02*
G75*
G02*
X16720520Y-9760140I75000J0D01*
G01*
D10*
X16580520Y-9835140D02*
X16710520Y-9835140D01*
X16710520Y-9685140D02*
G75*
G02*
X16710520Y-9835140I0J-75000D01*
G01*
X16710520Y-9685140D02*
X16580520Y-9685140D01*
X16580520Y-9685140D02*
G75*
G03*
X16580520Y-9835140I0J-75000D01*
G01*
D12*
X16570520Y-10805140D02*
X16720520Y-10955140D01*
X16720520Y-10805140D02*
X16570520Y-10955140D01*
X16720520Y-10880140D02*
G75*
G02*
X16570520Y-10880140I-75000J0D01*
G01*
X16570520Y-10880140D02*
G75*
G02*
X16720520Y-10880140I75000J0D01*
G01*
D10*
X16580520Y-10955140D02*
X16710520Y-10955140D01*
X16710520Y-10805140D02*
G75*
G02*
X16710520Y-10955140I0J-75000D01*
G01*
X16710520Y-10805140D02*
X16580520Y-10805140D01*
X16580520Y-10805140D02*
G75*
G03*
X16580520Y-10955140I0J-75000D01*
G01*
D11*
X3537117Y-15668364D02*
X3537117Y-15468364D01*
X3537117Y-15468364D02*
X3584736Y-15468364D01*
X3584736Y-15468364D02*
X3613307Y-15477888D01*
X3613307Y-15477888D02*
X3632355Y-15496935D01*
X3632355Y-15496935D02*
X3641879Y-15515983D01*
X3641879Y-15515983D02*
X3651402Y-15554078D01*
X3651402Y-15554078D02*
X3651402Y-15582649D01*
X3651402Y-15582649D02*
X3641879Y-15620745D01*
X3641879Y-15620745D02*
X3632355Y-15639792D01*
X3632355Y-15639792D02*
X3613307Y-15658840D01*
X3613307Y-15658840D02*
X3584736Y-15668364D01*
X3584736Y-15668364D02*
X3537117Y-15668364D01*
X3737117Y-15668364D02*
X3737117Y-15535030D01*
X3737117Y-15573126D02*
X3746641Y-15554078D01*
X3746641Y-15554078D02*
X3756164Y-15544554D01*
X3756164Y-15544554D02*
X3775212Y-15535030D01*
X3775212Y-15535030D02*
X3794260Y-15535030D01*
X3860926Y-15668364D02*
X3860926Y-15535030D01*
X3860926Y-15468364D02*
X3851402Y-15477888D01*
X3851402Y-15477888D02*
X3860926Y-15487411D01*
X3860926Y-15487411D02*
X3870450Y-15477888D01*
X3870450Y-15477888D02*
X3860926Y-15468364D01*
X3860926Y-15468364D02*
X3860926Y-15487411D01*
X3984736Y-15668364D02*
X3965688Y-15658840D01*
X3965688Y-15658840D02*
X3956164Y-15639792D01*
X3956164Y-15639792D02*
X3956164Y-15468364D01*
X4089498Y-15668364D02*
X4070450Y-15658840D01*
X4070450Y-15658840D02*
X4060926Y-15639792D01*
X4060926Y-15639792D02*
X4060926Y-15468364D01*
X4318069Y-15668364D02*
X4318069Y-15468364D01*
X4318069Y-15468364D02*
X4384736Y-15611221D01*
X4384736Y-15611221D02*
X4451403Y-15468364D01*
X4451403Y-15468364D02*
X4451403Y-15668364D01*
X4632355Y-15668364D02*
X4632355Y-15563602D01*
X4632355Y-15563602D02*
X4622831Y-15544554D01*
X4622831Y-15544554D02*
X4603784Y-15535030D01*
X4603784Y-15535030D02*
X4565688Y-15535030D01*
X4565688Y-15535030D02*
X4546641Y-15544554D01*
X4632355Y-15658840D02*
X4613307Y-15668364D01*
X4613307Y-15668364D02*
X4565688Y-15668364D01*
X4565688Y-15668364D02*
X4546641Y-15658840D01*
X4546641Y-15658840D02*
X4537117Y-15639792D01*
X4537117Y-15639792D02*
X4537117Y-15620745D01*
X4537117Y-15620745D02*
X4546641Y-15601697D01*
X4546641Y-15601697D02*
X4565688Y-15592173D01*
X4565688Y-15592173D02*
X4613307Y-15592173D01*
X4613307Y-15592173D02*
X4632355Y-15582649D01*
X4727593Y-15535030D02*
X4727593Y-15735030D01*
X4727593Y-15544554D02*
X4746641Y-15535030D01*
X4746641Y-15535030D02*
X4784736Y-15535030D01*
X4784736Y-15535030D02*
X4803784Y-15544554D01*
X4803784Y-15544554D02*
X4813307Y-15554078D01*
X4813307Y-15554078D02*
X4822831Y-15573126D01*
X4822831Y-15573126D02*
X4822831Y-15630268D01*
X4822831Y-15630268D02*
X4813307Y-15649316D01*
X4813307Y-15649316D02*
X4803784Y-15658840D01*
X4803784Y-15658840D02*
X4784736Y-15668364D01*
X4784736Y-15668364D02*
X4746641Y-15668364D01*
X4746641Y-15668364D02*
X4727593Y-15658840D01*
X4908545Y-15649316D02*
X4918069Y-15658840D01*
X4918069Y-15658840D02*
X4908545Y-15668364D01*
X4908545Y-15668364D02*
X4899022Y-15658840D01*
X4899022Y-15658840D02*
X4908545Y-15649316D01*
X4908545Y-15649316D02*
X4908545Y-15668364D01*
X4908545Y-15544554D02*
X4918069Y-15554078D01*
X4918069Y-15554078D02*
X4908545Y-15563602D01*
X4908545Y-15563602D02*
X4899022Y-15554078D01*
X4899022Y-15554078D02*
X4908545Y-15544554D01*
X4908545Y-15544554D02*
X4908545Y-15563602D01*
D10*
X3246340Y-15981880D02*
X3276340Y-16011880D01*
X3276340Y-15981880D02*
X3246340Y-16011880D01*
D11*
X3575212Y-15888364D02*
X3594260Y-15888364D01*
X3594260Y-15888364D02*
X3613307Y-15897888D01*
X3613307Y-15897888D02*
X3622831Y-15907411D01*
X3622831Y-15907411D02*
X3632355Y-15926459D01*
X3632355Y-15926459D02*
X3641879Y-15964554D01*
X3641879Y-15964554D02*
X3641879Y-16012173D01*
X3641879Y-16012173D02*
X3632355Y-16050268D01*
X3632355Y-16050268D02*
X3622831Y-16069316D01*
X3622831Y-16069316D02*
X3613307Y-16078840D01*
X3613307Y-16078840D02*
X3594260Y-16088364D01*
X3594260Y-16088364D02*
X3575212Y-16088364D01*
X3575212Y-16088364D02*
X3556164Y-16078840D01*
X3556164Y-16078840D02*
X3546641Y-16069316D01*
X3546641Y-16069316D02*
X3537117Y-16050268D01*
X3537117Y-16050268D02*
X3527593Y-16012173D01*
X3527593Y-16012173D02*
X3527593Y-15964554D01*
X3527593Y-15964554D02*
X3537117Y-15926459D01*
X3537117Y-15926459D02*
X3546641Y-15907411D01*
X3546641Y-15907411D02*
X3556164Y-15897888D01*
X3556164Y-15897888D02*
X3575212Y-15888364D01*
X3727593Y-16069316D02*
X3737117Y-16078840D01*
X3737117Y-16078840D02*
X3727593Y-16088364D01*
X3727593Y-16088364D02*
X3718069Y-16078840D01*
X3718069Y-16078840D02*
X3727593Y-16069316D01*
X3727593Y-16069316D02*
X3727593Y-16088364D01*
X3803783Y-15888364D02*
X3927593Y-15888364D01*
X3927593Y-15888364D02*
X3860926Y-15964554D01*
X3860926Y-15964554D02*
X3889498Y-15964554D01*
X3889498Y-15964554D02*
X3908545Y-15974078D01*
X3908545Y-15974078D02*
X3918069Y-15983602D01*
X3918069Y-15983602D02*
X3927593Y-16002649D01*
X3927593Y-16002649D02*
X3927593Y-16050268D01*
X3927593Y-16050268D02*
X3918069Y-16069316D01*
X3918069Y-16069316D02*
X3908545Y-16078840D01*
X3908545Y-16078840D02*
X3889498Y-16088364D01*
X3889498Y-16088364D02*
X3832355Y-16088364D01*
X3832355Y-16088364D02*
X3813307Y-16078840D01*
X3813307Y-16078840D02*
X3803783Y-16069316D01*
X4051402Y-15888364D02*
X4070450Y-15888364D01*
X4070450Y-15888364D02*
X4089498Y-15897888D01*
X4089498Y-15897888D02*
X4099022Y-15907411D01*
X4099022Y-15907411D02*
X4108545Y-15926459D01*
X4108545Y-15926459D02*
X4118069Y-15964554D01*
X4118069Y-15964554D02*
X4118069Y-16012173D01*
X4118069Y-16012173D02*
X4108545Y-16050268D01*
X4108545Y-16050268D02*
X4099022Y-16069316D01*
X4099022Y-16069316D02*
X4089498Y-16078840D01*
X4089498Y-16078840D02*
X4070450Y-16088364D01*
X4070450Y-16088364D02*
X4051402Y-16088364D01*
X4051402Y-16088364D02*
X4032355Y-16078840D01*
X4032355Y-16078840D02*
X4022831Y-16069316D01*
X4022831Y-16069316D02*
X4013307Y-16050268D01*
X4013307Y-16050268D02*
X4003783Y-16012173D01*
X4003783Y-16012173D02*
X4003783Y-15964554D01*
X4003783Y-15964554D02*
X4013307Y-15926459D01*
X4013307Y-15926459D02*
X4022831Y-15907411D01*
X4022831Y-15907411D02*
X4032355Y-15897888D01*
X4032355Y-15897888D02*
X4051402Y-15888364D01*
X4241879Y-15888364D02*
X4260926Y-15888364D01*
X4260926Y-15888364D02*
X4279974Y-15897888D01*
X4279974Y-15897888D02*
X4289498Y-15907411D01*
X4289498Y-15907411D02*
X4299022Y-15926459D01*
X4299022Y-15926459D02*
X4308545Y-15964554D01*
X4308545Y-15964554D02*
X4308545Y-16012173D01*
X4308545Y-16012173D02*
X4299022Y-16050268D01*
X4299022Y-16050268D02*
X4289498Y-16069316D01*
X4289498Y-16069316D02*
X4279974Y-16078840D01*
X4279974Y-16078840D02*
X4260926Y-16088364D01*
X4260926Y-16088364D02*
X4241879Y-16088364D01*
X4241879Y-16088364D02*
X4222831Y-16078840D01*
X4222831Y-16078840D02*
X4213307Y-16069316D01*
X4213307Y-16069316D02*
X4203784Y-16050268D01*
X4203784Y-16050268D02*
X4194260Y-16012173D01*
X4194260Y-16012173D02*
X4194260Y-15964554D01*
X4194260Y-15964554D02*
X4203784Y-15926459D01*
X4203784Y-15926459D02*
X4213307Y-15907411D01*
X4213307Y-15907411D02*
X4222831Y-15897888D01*
X4222831Y-15897888D02*
X4241879Y-15888364D01*
X4394260Y-16088364D02*
X4394260Y-15955030D01*
X4394260Y-15974078D02*
X4403784Y-15964554D01*
X4403784Y-15964554D02*
X4422831Y-15955030D01*
X4422831Y-15955030D02*
X4451403Y-15955030D01*
X4451403Y-15955030D02*
X4470450Y-15964554D01*
X4470450Y-15964554D02*
X4479974Y-15983602D01*
X4479974Y-15983602D02*
X4479974Y-16088364D01*
X4479974Y-15983602D02*
X4489498Y-15964554D01*
X4489498Y-15964554D02*
X4508545Y-15955030D01*
X4508545Y-15955030D02*
X4537117Y-15955030D01*
X4537117Y-15955030D02*
X4556165Y-15964554D01*
X4556165Y-15964554D02*
X4565688Y-15983602D01*
X4565688Y-15983602D02*
X4565688Y-16088364D01*
X4660926Y-16088364D02*
X4660926Y-15955030D01*
X4660926Y-15974078D02*
X4670450Y-15964554D01*
X4670450Y-15964554D02*
X4689498Y-15955030D01*
X4689498Y-15955030D02*
X4718069Y-15955030D01*
X4718069Y-15955030D02*
X4737117Y-15964554D01*
X4737117Y-15964554D02*
X4746641Y-15983602D01*
X4746641Y-15983602D02*
X4746641Y-16088364D01*
X4746641Y-15983602D02*
X4756165Y-15964554D01*
X4756165Y-15964554D02*
X4775212Y-15955030D01*
X4775212Y-15955030D02*
X4803784Y-15955030D01*
X4803784Y-15955030D02*
X4822831Y-15964554D01*
X4822831Y-15964554D02*
X4832355Y-15983602D01*
X4832355Y-15983602D02*
X4832355Y-16088364D01*
X5222831Y-15878840D02*
X5051403Y-16135983D01*
X5479974Y-15888364D02*
X5499022Y-15888364D01*
X5499022Y-15888364D02*
X5518069Y-15897888D01*
X5518069Y-15897888D02*
X5527593Y-15907411D01*
X5527593Y-15907411D02*
X5537117Y-15926459D01*
X5537117Y-15926459D02*
X5546641Y-15964554D01*
X5546641Y-15964554D02*
X5546641Y-16012173D01*
X5546641Y-16012173D02*
X5537117Y-16050268D01*
X5537117Y-16050268D02*
X5527593Y-16069316D01*
X5527593Y-16069316D02*
X5518069Y-16078840D01*
X5518069Y-16078840D02*
X5499022Y-16088364D01*
X5499022Y-16088364D02*
X5479974Y-16088364D01*
X5479974Y-16088364D02*
X5460927Y-16078840D01*
X5460927Y-16078840D02*
X5451403Y-16069316D01*
X5451403Y-16069316D02*
X5441879Y-16050268D01*
X5441879Y-16050268D02*
X5432355Y-16012173D01*
X5432355Y-16012173D02*
X5432355Y-15964554D01*
X5432355Y-15964554D02*
X5441879Y-15926459D01*
X5441879Y-15926459D02*
X5451403Y-15907411D01*
X5451403Y-15907411D02*
X5460927Y-15897888D01*
X5460927Y-15897888D02*
X5479974Y-15888364D01*
X5632355Y-16069316D02*
X5641879Y-16078840D01*
X5641879Y-16078840D02*
X5632355Y-16088364D01*
X5632355Y-16088364D02*
X5622831Y-16078840D01*
X5622831Y-16078840D02*
X5632355Y-16069316D01*
X5632355Y-16069316D02*
X5632355Y-16088364D01*
X5765688Y-15888364D02*
X5784736Y-15888364D01*
X5784736Y-15888364D02*
X5803784Y-15897888D01*
X5803784Y-15897888D02*
X5813307Y-15907411D01*
X5813307Y-15907411D02*
X5822831Y-15926459D01*
X5822831Y-15926459D02*
X5832355Y-15964554D01*
X5832355Y-15964554D02*
X5832355Y-16012173D01*
X5832355Y-16012173D02*
X5822831Y-16050268D01*
X5822831Y-16050268D02*
X5813307Y-16069316D01*
X5813307Y-16069316D02*
X5803784Y-16078840D01*
X5803784Y-16078840D02*
X5784736Y-16088364D01*
X5784736Y-16088364D02*
X5765688Y-16088364D01*
X5765688Y-16088364D02*
X5746641Y-16078840D01*
X5746641Y-16078840D02*
X5737117Y-16069316D01*
X5737117Y-16069316D02*
X5727593Y-16050268D01*
X5727593Y-16050268D02*
X5718069Y-16012173D01*
X5718069Y-16012173D02*
X5718069Y-15964554D01*
X5718069Y-15964554D02*
X5727593Y-15926459D01*
X5727593Y-15926459D02*
X5737117Y-15907411D01*
X5737117Y-15907411D02*
X5746641Y-15897888D01*
X5746641Y-15897888D02*
X5765688Y-15888364D01*
X6022831Y-16088364D02*
X5908546Y-16088364D01*
X5965688Y-16088364D02*
X5965688Y-15888364D01*
X5965688Y-15888364D02*
X5946641Y-15916935D01*
X5946641Y-15916935D02*
X5927593Y-15935983D01*
X5927593Y-15935983D02*
X5908546Y-15945507D01*
X6213307Y-16088364D02*
X6099022Y-16088364D01*
X6156165Y-16088364D02*
X6156165Y-15888364D01*
X6156165Y-15888364D02*
X6137117Y-15916935D01*
X6137117Y-15916935D02*
X6118069Y-15935983D01*
X6118069Y-15935983D02*
X6099022Y-15945507D01*
X6327593Y-15974078D02*
X6308546Y-15964554D01*
X6308546Y-15964554D02*
X6299022Y-15955030D01*
X6299022Y-15955030D02*
X6289498Y-15935983D01*
X6289498Y-15935983D02*
X6289498Y-15926459D01*
X6289498Y-15926459D02*
X6299022Y-15907411D01*
X6299022Y-15907411D02*
X6308546Y-15897888D01*
X6308546Y-15897888D02*
X6327593Y-15888364D01*
X6327593Y-15888364D02*
X6365688Y-15888364D01*
X6365688Y-15888364D02*
X6384736Y-15897888D01*
X6384736Y-15897888D02*
X6394260Y-15907411D01*
X6394260Y-15907411D02*
X6403784Y-15926459D01*
X6403784Y-15926459D02*
X6403784Y-15935983D01*
X6403784Y-15935983D02*
X6394260Y-15955030D01*
X6394260Y-15955030D02*
X6384736Y-15964554D01*
X6384736Y-15964554D02*
X6365688Y-15974078D01*
X6365688Y-15974078D02*
X6327593Y-15974078D01*
X6327593Y-15974078D02*
X6308546Y-15983602D01*
X6308546Y-15983602D02*
X6299022Y-15993126D01*
X6299022Y-15993126D02*
X6289498Y-16012173D01*
X6289498Y-16012173D02*
X6289498Y-16050268D01*
X6289498Y-16050268D02*
X6299022Y-16069316D01*
X6299022Y-16069316D02*
X6308546Y-16078840D01*
X6308546Y-16078840D02*
X6327593Y-16088364D01*
X6327593Y-16088364D02*
X6365688Y-16088364D01*
X6365688Y-16088364D02*
X6384736Y-16078840D01*
X6384736Y-16078840D02*
X6394260Y-16069316D01*
X6394260Y-16069316D02*
X6403784Y-16050268D01*
X6403784Y-16050268D02*
X6403784Y-16012173D01*
X6403784Y-16012173D02*
X6394260Y-15993126D01*
X6394260Y-15993126D02*
X6384736Y-15983602D01*
X6384736Y-15983602D02*
X6365688Y-15974078D01*
X6479974Y-15888364D02*
X6479974Y-15926459D01*
X6556165Y-15888364D02*
X6556165Y-15926459D01*
X6851403Y-16164554D02*
X6841879Y-16155030D01*
X6841879Y-16155030D02*
X6822831Y-16126459D01*
X6822831Y-16126459D02*
X6813308Y-16107411D01*
X6813308Y-16107411D02*
X6803784Y-16078840D01*
X6803784Y-16078840D02*
X6794260Y-16031221D01*
X6794260Y-16031221D02*
X6794260Y-15993126D01*
X6794260Y-15993126D02*
X6803784Y-15945507D01*
X6803784Y-15945507D02*
X6813308Y-15916935D01*
X6813308Y-15916935D02*
X6822831Y-15897888D01*
X6822831Y-15897888D02*
X6841879Y-15869316D01*
X6841879Y-15869316D02*
X6851403Y-15859792D01*
X7032355Y-16088364D02*
X6918069Y-16088364D01*
X6975212Y-16088364D02*
X6975212Y-15888364D01*
X6975212Y-15888364D02*
X6956165Y-15916935D01*
X6956165Y-15916935D02*
X6937117Y-15935983D01*
X6937117Y-15935983D02*
X6918069Y-15945507D01*
X7099022Y-15888364D02*
X7222831Y-15888364D01*
X7222831Y-15888364D02*
X7156165Y-15964554D01*
X7156165Y-15964554D02*
X7184736Y-15964554D01*
X7184736Y-15964554D02*
X7203784Y-15974078D01*
X7203784Y-15974078D02*
X7213308Y-15983602D01*
X7213308Y-15983602D02*
X7222831Y-16002649D01*
X7222831Y-16002649D02*
X7222831Y-16050268D01*
X7222831Y-16050268D02*
X7213308Y-16069316D01*
X7213308Y-16069316D02*
X7203784Y-16078840D01*
X7203784Y-16078840D02*
X7184736Y-16088364D01*
X7184736Y-16088364D02*
X7127593Y-16088364D01*
X7127593Y-16088364D02*
X7108546Y-16078840D01*
X7108546Y-16078840D02*
X7099022Y-16069316D01*
X7394260Y-15888364D02*
X7356165Y-15888364D01*
X7356165Y-15888364D02*
X7337117Y-15897888D01*
X7337117Y-15897888D02*
X7327593Y-15907411D01*
X7327593Y-15907411D02*
X7308546Y-15935983D01*
X7308546Y-15935983D02*
X7299022Y-15974078D01*
X7299022Y-15974078D02*
X7299022Y-16050268D01*
X7299022Y-16050268D02*
X7308546Y-16069316D01*
X7308546Y-16069316D02*
X7318069Y-16078840D01*
X7318069Y-16078840D02*
X7337117Y-16088364D01*
X7337117Y-16088364D02*
X7375212Y-16088364D01*
X7375212Y-16088364D02*
X7394260Y-16078840D01*
X7394260Y-16078840D02*
X7403784Y-16069316D01*
X7403784Y-16069316D02*
X7413308Y-16050268D01*
X7413308Y-16050268D02*
X7413308Y-16002649D01*
X7413308Y-16002649D02*
X7403784Y-15983602D01*
X7403784Y-15983602D02*
X7394260Y-15974078D01*
X7394260Y-15974078D02*
X7375212Y-15964554D01*
X7375212Y-15964554D02*
X7337117Y-15964554D01*
X7337117Y-15964554D02*
X7318069Y-15974078D01*
X7318069Y-15974078D02*
X7308546Y-15983602D01*
X7308546Y-15983602D02*
X7299022Y-16002649D01*
X7651403Y-16088364D02*
X7651403Y-15888364D01*
X7737117Y-16088364D02*
X7737117Y-15983602D01*
X7737117Y-15983602D02*
X7727593Y-15964554D01*
X7727593Y-15964554D02*
X7708546Y-15955030D01*
X7708546Y-15955030D02*
X7679974Y-15955030D01*
X7679974Y-15955030D02*
X7660927Y-15964554D01*
X7660927Y-15964554D02*
X7651403Y-15974078D01*
X7860927Y-16088364D02*
X7841879Y-16078840D01*
X7841879Y-16078840D02*
X7832355Y-16069316D01*
X7832355Y-16069316D02*
X7822831Y-16050268D01*
X7822831Y-16050268D02*
X7822831Y-15993126D01*
X7822831Y-15993126D02*
X7832355Y-15974078D01*
X7832355Y-15974078D02*
X7841879Y-15964554D01*
X7841879Y-15964554D02*
X7860927Y-15955030D01*
X7860927Y-15955030D02*
X7889498Y-15955030D01*
X7889498Y-15955030D02*
X7908546Y-15964554D01*
X7908546Y-15964554D02*
X7918070Y-15974078D01*
X7918070Y-15974078D02*
X7927593Y-15993126D01*
X7927593Y-15993126D02*
X7927593Y-16050268D01*
X7927593Y-16050268D02*
X7918070Y-16069316D01*
X7918070Y-16069316D02*
X7908546Y-16078840D01*
X7908546Y-16078840D02*
X7889498Y-16088364D01*
X7889498Y-16088364D02*
X7860927Y-16088364D01*
X8041879Y-16088364D02*
X8022831Y-16078840D01*
X8022831Y-16078840D02*
X8013308Y-16059792D01*
X8013308Y-16059792D02*
X8013308Y-15888364D01*
X8194260Y-16078840D02*
X8175212Y-16088364D01*
X8175212Y-16088364D02*
X8137117Y-16088364D01*
X8137117Y-16088364D02*
X8118070Y-16078840D01*
X8118070Y-16078840D02*
X8108546Y-16059792D01*
X8108546Y-16059792D02*
X8108546Y-15983602D01*
X8108546Y-15983602D02*
X8118070Y-15964554D01*
X8118070Y-15964554D02*
X8137117Y-15955030D01*
X8137117Y-15955030D02*
X8175212Y-15955030D01*
X8175212Y-15955030D02*
X8194260Y-15964554D01*
X8194260Y-15964554D02*
X8203784Y-15983602D01*
X8203784Y-15983602D02*
X8203784Y-16002649D01*
X8203784Y-16002649D02*
X8108546Y-16021697D01*
X8279974Y-16078840D02*
X8299022Y-16088364D01*
X8299022Y-16088364D02*
X8337117Y-16088364D01*
X8337117Y-16088364D02*
X8356165Y-16078840D01*
X8356165Y-16078840D02*
X8365689Y-16059792D01*
X8365689Y-16059792D02*
X8365689Y-16050268D01*
X8365689Y-16050268D02*
X8356165Y-16031221D01*
X8356165Y-16031221D02*
X8337117Y-16021697D01*
X8337117Y-16021697D02*
X8308546Y-16021697D01*
X8308546Y-16021697D02*
X8289498Y-16012173D01*
X8289498Y-16012173D02*
X8279974Y-15993126D01*
X8279974Y-15993126D02*
X8279974Y-15983602D01*
X8279974Y-15983602D02*
X8289498Y-15964554D01*
X8289498Y-15964554D02*
X8308546Y-15955030D01*
X8308546Y-15955030D02*
X8337117Y-15955030D01*
X8337117Y-15955030D02*
X8356165Y-15964554D01*
X8432355Y-16164554D02*
X8441879Y-16155030D01*
X8441879Y-16155030D02*
X8460927Y-16126459D01*
X8460927Y-16126459D02*
X8470451Y-16107411D01*
X8470451Y-16107411D02*
X8479974Y-16078840D01*
X8479974Y-16078840D02*
X8489498Y-16031221D01*
X8489498Y-16031221D02*
X8489498Y-15993126D01*
X8489498Y-15993126D02*
X8479974Y-15945507D01*
X8479974Y-15945507D02*
X8470451Y-15916935D01*
X8470451Y-15916935D02*
X8460927Y-15897888D01*
X8460927Y-15897888D02*
X8441879Y-15869316D01*
X8441879Y-15869316D02*
X8432355Y-15859792D01*
D10*
X3276340Y-16260880D02*
G75*
G02*
X3246340Y-16260880I-15000J0D01*
G01*
X3246340Y-16260880D02*
G75*
G02*
X3276340Y-16260880I15000J0D01*
G01*
D11*
X3575212Y-16152364D02*
X3594260Y-16152364D01*
X3594260Y-16152364D02*
X3613307Y-16161888D01*
X3613307Y-16161888D02*
X3622831Y-16171411D01*
X3622831Y-16171411D02*
X3632355Y-16190459D01*
X3632355Y-16190459D02*
X3641879Y-16228554D01*
X3641879Y-16228554D02*
X3641879Y-16276173D01*
X3641879Y-16276173D02*
X3632355Y-16314268D01*
X3632355Y-16314268D02*
X3622831Y-16333316D01*
X3622831Y-16333316D02*
X3613307Y-16342840D01*
X3613307Y-16342840D02*
X3594260Y-16352364D01*
X3594260Y-16352364D02*
X3575212Y-16352364D01*
X3575212Y-16352364D02*
X3556164Y-16342840D01*
X3556164Y-16342840D02*
X3546641Y-16333316D01*
X3546641Y-16333316D02*
X3537117Y-16314268D01*
X3537117Y-16314268D02*
X3527593Y-16276173D01*
X3527593Y-16276173D02*
X3527593Y-16228554D01*
X3527593Y-16228554D02*
X3537117Y-16190459D01*
X3537117Y-16190459D02*
X3546641Y-16171411D01*
X3546641Y-16171411D02*
X3556164Y-16161888D01*
X3556164Y-16161888D02*
X3575212Y-16152364D01*
X3727593Y-16333316D02*
X3737117Y-16342840D01*
X3737117Y-16342840D02*
X3727593Y-16352364D01*
X3727593Y-16352364D02*
X3718069Y-16342840D01*
X3718069Y-16342840D02*
X3727593Y-16333316D01*
X3727593Y-16333316D02*
X3727593Y-16352364D01*
X3803783Y-16152364D02*
X3927593Y-16152364D01*
X3927593Y-16152364D02*
X3860926Y-16228554D01*
X3860926Y-16228554D02*
X3889498Y-16228554D01*
X3889498Y-16228554D02*
X3908545Y-16238078D01*
X3908545Y-16238078D02*
X3918069Y-16247602D01*
X3918069Y-16247602D02*
X3927593Y-16266649D01*
X3927593Y-16266649D02*
X3927593Y-16314268D01*
X3927593Y-16314268D02*
X3918069Y-16333316D01*
X3918069Y-16333316D02*
X3908545Y-16342840D01*
X3908545Y-16342840D02*
X3889498Y-16352364D01*
X3889498Y-16352364D02*
X3832355Y-16352364D01*
X3832355Y-16352364D02*
X3813307Y-16342840D01*
X3813307Y-16342840D02*
X3803783Y-16333316D01*
X4051402Y-16152364D02*
X4070450Y-16152364D01*
X4070450Y-16152364D02*
X4089498Y-16161888D01*
X4089498Y-16161888D02*
X4099022Y-16171411D01*
X4099022Y-16171411D02*
X4108545Y-16190459D01*
X4108545Y-16190459D02*
X4118069Y-16228554D01*
X4118069Y-16228554D02*
X4118069Y-16276173D01*
X4118069Y-16276173D02*
X4108545Y-16314268D01*
X4108545Y-16314268D02*
X4099022Y-16333316D01*
X4099022Y-16333316D02*
X4089498Y-16342840D01*
X4089498Y-16342840D02*
X4070450Y-16352364D01*
X4070450Y-16352364D02*
X4051402Y-16352364D01*
X4051402Y-16352364D02*
X4032355Y-16342840D01*
X4032355Y-16342840D02*
X4022831Y-16333316D01*
X4022831Y-16333316D02*
X4013307Y-16314268D01*
X4013307Y-16314268D02*
X4003783Y-16276173D01*
X4003783Y-16276173D02*
X4003783Y-16228554D01*
X4003783Y-16228554D02*
X4013307Y-16190459D01*
X4013307Y-16190459D02*
X4022831Y-16171411D01*
X4022831Y-16171411D02*
X4032355Y-16161888D01*
X4032355Y-16161888D02*
X4051402Y-16152364D01*
X4241879Y-16152364D02*
X4260926Y-16152364D01*
X4260926Y-16152364D02*
X4279974Y-16161888D01*
X4279974Y-16161888D02*
X4289498Y-16171411D01*
X4289498Y-16171411D02*
X4299022Y-16190459D01*
X4299022Y-16190459D02*
X4308545Y-16228554D01*
X4308545Y-16228554D02*
X4308545Y-16276173D01*
X4308545Y-16276173D02*
X4299022Y-16314268D01*
X4299022Y-16314268D02*
X4289498Y-16333316D01*
X4289498Y-16333316D02*
X4279974Y-16342840D01*
X4279974Y-16342840D02*
X4260926Y-16352364D01*
X4260926Y-16352364D02*
X4241879Y-16352364D01*
X4241879Y-16352364D02*
X4222831Y-16342840D01*
X4222831Y-16342840D02*
X4213307Y-16333316D01*
X4213307Y-16333316D02*
X4203784Y-16314268D01*
X4203784Y-16314268D02*
X4194260Y-16276173D01*
X4194260Y-16276173D02*
X4194260Y-16228554D01*
X4194260Y-16228554D02*
X4203784Y-16190459D01*
X4203784Y-16190459D02*
X4213307Y-16171411D01*
X4213307Y-16171411D02*
X4222831Y-16161888D01*
X4222831Y-16161888D02*
X4241879Y-16152364D01*
X4394260Y-16352364D02*
X4394260Y-16219030D01*
X4394260Y-16238078D02*
X4403784Y-16228554D01*
X4403784Y-16228554D02*
X4422831Y-16219030D01*
X4422831Y-16219030D02*
X4451403Y-16219030D01*
X4451403Y-16219030D02*
X4470450Y-16228554D01*
X4470450Y-16228554D02*
X4479974Y-16247602D01*
X4479974Y-16247602D02*
X4479974Y-16352364D01*
X4479974Y-16247602D02*
X4489498Y-16228554D01*
X4489498Y-16228554D02*
X4508545Y-16219030D01*
X4508545Y-16219030D02*
X4537117Y-16219030D01*
X4537117Y-16219030D02*
X4556165Y-16228554D01*
X4556165Y-16228554D02*
X4565688Y-16247602D01*
X4565688Y-16247602D02*
X4565688Y-16352364D01*
X4660926Y-16352364D02*
X4660926Y-16219030D01*
X4660926Y-16238078D02*
X4670450Y-16228554D01*
X4670450Y-16228554D02*
X4689498Y-16219030D01*
X4689498Y-16219030D02*
X4718069Y-16219030D01*
X4718069Y-16219030D02*
X4737117Y-16228554D01*
X4737117Y-16228554D02*
X4746641Y-16247602D01*
X4746641Y-16247602D02*
X4746641Y-16352364D01*
X4746641Y-16247602D02*
X4756165Y-16228554D01*
X4756165Y-16228554D02*
X4775212Y-16219030D01*
X4775212Y-16219030D02*
X4803784Y-16219030D01*
X4803784Y-16219030D02*
X4822831Y-16228554D01*
X4822831Y-16228554D02*
X4832355Y-16247602D01*
X4832355Y-16247602D02*
X4832355Y-16352364D01*
X5222831Y-16142840D02*
X5051403Y-16399983D01*
X5479974Y-16152364D02*
X5499022Y-16152364D01*
X5499022Y-16152364D02*
X5518069Y-16161888D01*
X5518069Y-16161888D02*
X5527593Y-16171411D01*
X5527593Y-16171411D02*
X5537117Y-16190459D01*
X5537117Y-16190459D02*
X5546641Y-16228554D01*
X5546641Y-16228554D02*
X5546641Y-16276173D01*
X5546641Y-16276173D02*
X5537117Y-16314268D01*
X5537117Y-16314268D02*
X5527593Y-16333316D01*
X5527593Y-16333316D02*
X5518069Y-16342840D01*
X5518069Y-16342840D02*
X5499022Y-16352364D01*
X5499022Y-16352364D02*
X5479974Y-16352364D01*
X5479974Y-16352364D02*
X5460927Y-16342840D01*
X5460927Y-16342840D02*
X5451403Y-16333316D01*
X5451403Y-16333316D02*
X5441879Y-16314268D01*
X5441879Y-16314268D02*
X5432355Y-16276173D01*
X5432355Y-16276173D02*
X5432355Y-16228554D01*
X5432355Y-16228554D02*
X5441879Y-16190459D01*
X5441879Y-16190459D02*
X5451403Y-16171411D01*
X5451403Y-16171411D02*
X5460927Y-16161888D01*
X5460927Y-16161888D02*
X5479974Y-16152364D01*
X5632355Y-16333316D02*
X5641879Y-16342840D01*
X5641879Y-16342840D02*
X5632355Y-16352364D01*
X5632355Y-16352364D02*
X5622831Y-16342840D01*
X5622831Y-16342840D02*
X5632355Y-16333316D01*
X5632355Y-16333316D02*
X5632355Y-16352364D01*
X5765688Y-16152364D02*
X5784736Y-16152364D01*
X5784736Y-16152364D02*
X5803784Y-16161888D01*
X5803784Y-16161888D02*
X5813307Y-16171411D01*
X5813307Y-16171411D02*
X5822831Y-16190459D01*
X5822831Y-16190459D02*
X5832355Y-16228554D01*
X5832355Y-16228554D02*
X5832355Y-16276173D01*
X5832355Y-16276173D02*
X5822831Y-16314268D01*
X5822831Y-16314268D02*
X5813307Y-16333316D01*
X5813307Y-16333316D02*
X5803784Y-16342840D01*
X5803784Y-16342840D02*
X5784736Y-16352364D01*
X5784736Y-16352364D02*
X5765688Y-16352364D01*
X5765688Y-16352364D02*
X5746641Y-16342840D01*
X5746641Y-16342840D02*
X5737117Y-16333316D01*
X5737117Y-16333316D02*
X5727593Y-16314268D01*
X5727593Y-16314268D02*
X5718069Y-16276173D01*
X5718069Y-16276173D02*
X5718069Y-16228554D01*
X5718069Y-16228554D02*
X5727593Y-16190459D01*
X5727593Y-16190459D02*
X5737117Y-16171411D01*
X5737117Y-16171411D02*
X5746641Y-16161888D01*
X5746641Y-16161888D02*
X5765688Y-16152364D01*
X6022831Y-16352364D02*
X5908546Y-16352364D01*
X5965688Y-16352364D02*
X5965688Y-16152364D01*
X5965688Y-16152364D02*
X5946641Y-16180935D01*
X5946641Y-16180935D02*
X5927593Y-16199983D01*
X5927593Y-16199983D02*
X5908546Y-16209507D01*
X6213307Y-16352364D02*
X6099022Y-16352364D01*
X6156165Y-16352364D02*
X6156165Y-16152364D01*
X6156165Y-16152364D02*
X6137117Y-16180935D01*
X6137117Y-16180935D02*
X6118069Y-16199983D01*
X6118069Y-16199983D02*
X6099022Y-16209507D01*
X6327593Y-16238078D02*
X6308546Y-16228554D01*
X6308546Y-16228554D02*
X6299022Y-16219030D01*
X6299022Y-16219030D02*
X6289498Y-16199983D01*
X6289498Y-16199983D02*
X6289498Y-16190459D01*
X6289498Y-16190459D02*
X6299022Y-16171411D01*
X6299022Y-16171411D02*
X6308546Y-16161888D01*
X6308546Y-16161888D02*
X6327593Y-16152364D01*
X6327593Y-16152364D02*
X6365688Y-16152364D01*
X6365688Y-16152364D02*
X6384736Y-16161888D01*
X6384736Y-16161888D02*
X6394260Y-16171411D01*
X6394260Y-16171411D02*
X6403784Y-16190459D01*
X6403784Y-16190459D02*
X6403784Y-16199983D01*
X6403784Y-16199983D02*
X6394260Y-16219030D01*
X6394260Y-16219030D02*
X6384736Y-16228554D01*
X6384736Y-16228554D02*
X6365688Y-16238078D01*
X6365688Y-16238078D02*
X6327593Y-16238078D01*
X6327593Y-16238078D02*
X6308546Y-16247602D01*
X6308546Y-16247602D02*
X6299022Y-16257126D01*
X6299022Y-16257126D02*
X6289498Y-16276173D01*
X6289498Y-16276173D02*
X6289498Y-16314268D01*
X6289498Y-16314268D02*
X6299022Y-16333316D01*
X6299022Y-16333316D02*
X6308546Y-16342840D01*
X6308546Y-16342840D02*
X6327593Y-16352364D01*
X6327593Y-16352364D02*
X6365688Y-16352364D01*
X6365688Y-16352364D02*
X6384736Y-16342840D01*
X6384736Y-16342840D02*
X6394260Y-16333316D01*
X6394260Y-16333316D02*
X6403784Y-16314268D01*
X6403784Y-16314268D02*
X6403784Y-16276173D01*
X6403784Y-16276173D02*
X6394260Y-16257126D01*
X6394260Y-16257126D02*
X6384736Y-16247602D01*
X6384736Y-16247602D02*
X6365688Y-16238078D01*
X6479974Y-16152364D02*
X6479974Y-16190459D01*
X6556165Y-16152364D02*
X6556165Y-16190459D01*
X6851403Y-16428554D02*
X6841879Y-16419030D01*
X6841879Y-16419030D02*
X6822831Y-16390459D01*
X6822831Y-16390459D02*
X6813308Y-16371411D01*
X6813308Y-16371411D02*
X6803784Y-16342840D01*
X6803784Y-16342840D02*
X6794260Y-16295221D01*
X6794260Y-16295221D02*
X6794260Y-16257126D01*
X6794260Y-16257126D02*
X6803784Y-16209507D01*
X6803784Y-16209507D02*
X6813308Y-16180935D01*
X6813308Y-16180935D02*
X6822831Y-16161888D01*
X6822831Y-16161888D02*
X6841879Y-16133316D01*
X6841879Y-16133316D02*
X6851403Y-16123792D01*
X7013308Y-16219030D02*
X7013308Y-16352364D01*
X6965688Y-16142840D02*
X6918069Y-16285697D01*
X6918069Y-16285697D02*
X7041879Y-16285697D01*
X7203784Y-16219030D02*
X7203784Y-16352364D01*
X7156165Y-16142840D02*
X7108546Y-16285697D01*
X7108546Y-16285697D02*
X7232355Y-16285697D01*
X7460927Y-16352364D02*
X7460927Y-16152364D01*
X7546641Y-16352364D02*
X7546641Y-16247602D01*
X7546641Y-16247602D02*
X7537117Y-16228554D01*
X7537117Y-16228554D02*
X7518070Y-16219030D01*
X7518070Y-16219030D02*
X7489498Y-16219030D01*
X7489498Y-16219030D02*
X7470450Y-16228554D01*
X7470450Y-16228554D02*
X7460927Y-16238078D01*
X7670450Y-16352364D02*
X7651403Y-16342840D01*
X7651403Y-16342840D02*
X7641879Y-16333316D01*
X7641879Y-16333316D02*
X7632355Y-16314268D01*
X7632355Y-16314268D02*
X7632355Y-16257126D01*
X7632355Y-16257126D02*
X7641879Y-16238078D01*
X7641879Y-16238078D02*
X7651403Y-16228554D01*
X7651403Y-16228554D02*
X7670450Y-16219030D01*
X7670450Y-16219030D02*
X7699022Y-16219030D01*
X7699022Y-16219030D02*
X7718070Y-16228554D01*
X7718070Y-16228554D02*
X7727593Y-16238078D01*
X7727593Y-16238078D02*
X7737117Y-16257126D01*
X7737117Y-16257126D02*
X7737117Y-16314268D01*
X7737117Y-16314268D02*
X7727593Y-16333316D01*
X7727593Y-16333316D02*
X7718070Y-16342840D01*
X7718070Y-16342840D02*
X7699022Y-16352364D01*
X7699022Y-16352364D02*
X7670450Y-16352364D01*
X7851403Y-16352364D02*
X7832355Y-16342840D01*
X7832355Y-16342840D02*
X7822831Y-16323792D01*
X7822831Y-16323792D02*
X7822831Y-16152364D01*
X8003784Y-16342840D02*
X7984736Y-16352364D01*
X7984736Y-16352364D02*
X7946641Y-16352364D01*
X7946641Y-16352364D02*
X7927593Y-16342840D01*
X7927593Y-16342840D02*
X7918070Y-16323792D01*
X7918070Y-16323792D02*
X7918070Y-16247602D01*
X7918070Y-16247602D02*
X7927593Y-16228554D01*
X7927593Y-16228554D02*
X7946641Y-16219030D01*
X7946641Y-16219030D02*
X7984736Y-16219030D01*
X7984736Y-16219030D02*
X8003784Y-16228554D01*
X8003784Y-16228554D02*
X8013308Y-16247602D01*
X8013308Y-16247602D02*
X8013308Y-16266649D01*
X8013308Y-16266649D02*
X7918070Y-16285697D01*
X8089498Y-16342840D02*
X8108546Y-16352364D01*
X8108546Y-16352364D02*
X8146641Y-16352364D01*
X8146641Y-16352364D02*
X8165689Y-16342840D01*
X8165689Y-16342840D02*
X8175212Y-16323792D01*
X8175212Y-16323792D02*
X8175212Y-16314268D01*
X8175212Y-16314268D02*
X8165689Y-16295221D01*
X8165689Y-16295221D02*
X8146641Y-16285697D01*
X8146641Y-16285697D02*
X8118070Y-16285697D01*
X8118070Y-16285697D02*
X8099022Y-16276173D01*
X8099022Y-16276173D02*
X8089498Y-16257126D01*
X8089498Y-16257126D02*
X8089498Y-16247602D01*
X8089498Y-16247602D02*
X8099022Y-16228554D01*
X8099022Y-16228554D02*
X8118070Y-16219030D01*
X8118070Y-16219030D02*
X8146641Y-16219030D01*
X8146641Y-16219030D02*
X8165689Y-16228554D01*
X8241879Y-16428554D02*
X8251403Y-16419030D01*
X8251403Y-16419030D02*
X8270451Y-16390459D01*
X8270451Y-16390459D02*
X8279974Y-16371411D01*
X8279974Y-16371411D02*
X8289498Y-16342840D01*
X8289498Y-16342840D02*
X8299022Y-16295221D01*
X8299022Y-16295221D02*
X8299022Y-16257126D01*
X8299022Y-16257126D02*
X8289498Y-16209507D01*
X8289498Y-16209507D02*
X8279974Y-16180935D01*
X8279974Y-16180935D02*
X8270451Y-16161888D01*
X8270451Y-16161888D02*
X8251403Y-16133316D01*
X8251403Y-16133316D02*
X8241879Y-16123792D01*
D10*
X3238840Y-16487380D02*
X3238840Y-16562380D01*
X3201340Y-16524880D02*
X3276340Y-16524880D01*
D11*
X3575212Y-16416364D02*
X3594260Y-16416364D01*
X3594260Y-16416364D02*
X3613307Y-16425888D01*
X3613307Y-16425888D02*
X3622831Y-16435411D01*
X3622831Y-16435411D02*
X3632355Y-16454459D01*
X3632355Y-16454459D02*
X3641879Y-16492554D01*
X3641879Y-16492554D02*
X3641879Y-16540173D01*
X3641879Y-16540173D02*
X3632355Y-16578268D01*
X3632355Y-16578268D02*
X3622831Y-16597316D01*
X3622831Y-16597316D02*
X3613307Y-16606840D01*
X3613307Y-16606840D02*
X3594260Y-16616364D01*
X3594260Y-16616364D02*
X3575212Y-16616364D01*
X3575212Y-16616364D02*
X3556164Y-16606840D01*
X3556164Y-16606840D02*
X3546641Y-16597316D01*
X3546641Y-16597316D02*
X3537117Y-16578268D01*
X3537117Y-16578268D02*
X3527593Y-16540173D01*
X3527593Y-16540173D02*
X3527593Y-16492554D01*
X3527593Y-16492554D02*
X3537117Y-16454459D01*
X3537117Y-16454459D02*
X3546641Y-16435411D01*
X3546641Y-16435411D02*
X3556164Y-16425888D01*
X3556164Y-16425888D02*
X3575212Y-16416364D01*
X3727593Y-16597316D02*
X3737117Y-16606840D01*
X3737117Y-16606840D02*
X3727593Y-16616364D01*
X3727593Y-16616364D02*
X3718069Y-16606840D01*
X3718069Y-16606840D02*
X3727593Y-16597316D01*
X3727593Y-16597316D02*
X3727593Y-16616364D01*
X3803783Y-16416364D02*
X3937117Y-16416364D01*
X3937117Y-16416364D02*
X3851402Y-16616364D01*
X4108545Y-16416364D02*
X4013307Y-16416364D01*
X4013307Y-16416364D02*
X4003783Y-16511602D01*
X4003783Y-16511602D02*
X4013307Y-16502078D01*
X4013307Y-16502078D02*
X4032355Y-16492554D01*
X4032355Y-16492554D02*
X4079974Y-16492554D01*
X4079974Y-16492554D02*
X4099022Y-16502078D01*
X4099022Y-16502078D02*
X4108545Y-16511602D01*
X4108545Y-16511602D02*
X4118069Y-16530649D01*
X4118069Y-16530649D02*
X4118069Y-16578268D01*
X4118069Y-16578268D02*
X4108545Y-16597316D01*
X4108545Y-16597316D02*
X4099022Y-16606840D01*
X4099022Y-16606840D02*
X4079974Y-16616364D01*
X4079974Y-16616364D02*
X4032355Y-16616364D01*
X4032355Y-16616364D02*
X4013307Y-16606840D01*
X4013307Y-16606840D02*
X4003783Y-16597316D01*
X4241879Y-16416364D02*
X4260926Y-16416364D01*
X4260926Y-16416364D02*
X4279974Y-16425888D01*
X4279974Y-16425888D02*
X4289498Y-16435411D01*
X4289498Y-16435411D02*
X4299022Y-16454459D01*
X4299022Y-16454459D02*
X4308545Y-16492554D01*
X4308545Y-16492554D02*
X4308545Y-16540173D01*
X4308545Y-16540173D02*
X4299022Y-16578268D01*
X4299022Y-16578268D02*
X4289498Y-16597316D01*
X4289498Y-16597316D02*
X4279974Y-16606840D01*
X4279974Y-16606840D02*
X4260926Y-16616364D01*
X4260926Y-16616364D02*
X4241879Y-16616364D01*
X4241879Y-16616364D02*
X4222831Y-16606840D01*
X4222831Y-16606840D02*
X4213307Y-16597316D01*
X4213307Y-16597316D02*
X4203784Y-16578268D01*
X4203784Y-16578268D02*
X4194260Y-16540173D01*
X4194260Y-16540173D02*
X4194260Y-16492554D01*
X4194260Y-16492554D02*
X4203784Y-16454459D01*
X4203784Y-16454459D02*
X4213307Y-16435411D01*
X4213307Y-16435411D02*
X4222831Y-16425888D01*
X4222831Y-16425888D02*
X4241879Y-16416364D01*
X4394260Y-16616364D02*
X4394260Y-16483030D01*
X4394260Y-16502078D02*
X4403784Y-16492554D01*
X4403784Y-16492554D02*
X4422831Y-16483030D01*
X4422831Y-16483030D02*
X4451403Y-16483030D01*
X4451403Y-16483030D02*
X4470450Y-16492554D01*
X4470450Y-16492554D02*
X4479974Y-16511602D01*
X4479974Y-16511602D02*
X4479974Y-16616364D01*
X4479974Y-16511602D02*
X4489498Y-16492554D01*
X4489498Y-16492554D02*
X4508545Y-16483030D01*
X4508545Y-16483030D02*
X4537117Y-16483030D01*
X4537117Y-16483030D02*
X4556165Y-16492554D01*
X4556165Y-16492554D02*
X4565688Y-16511602D01*
X4565688Y-16511602D02*
X4565688Y-16616364D01*
X4660926Y-16616364D02*
X4660926Y-16483030D01*
X4660926Y-16502078D02*
X4670450Y-16492554D01*
X4670450Y-16492554D02*
X4689498Y-16483030D01*
X4689498Y-16483030D02*
X4718069Y-16483030D01*
X4718069Y-16483030D02*
X4737117Y-16492554D01*
X4737117Y-16492554D02*
X4746641Y-16511602D01*
X4746641Y-16511602D02*
X4746641Y-16616364D01*
X4746641Y-16511602D02*
X4756165Y-16492554D01*
X4756165Y-16492554D02*
X4775212Y-16483030D01*
X4775212Y-16483030D02*
X4803784Y-16483030D01*
X4803784Y-16483030D02*
X4822831Y-16492554D01*
X4822831Y-16492554D02*
X4832355Y-16511602D01*
X4832355Y-16511602D02*
X4832355Y-16616364D01*
X5222831Y-16406840D02*
X5051403Y-16663983D01*
X5479974Y-16416364D02*
X5499022Y-16416364D01*
X5499022Y-16416364D02*
X5518069Y-16425888D01*
X5518069Y-16425888D02*
X5527593Y-16435411D01*
X5527593Y-16435411D02*
X5537117Y-16454459D01*
X5537117Y-16454459D02*
X5546641Y-16492554D01*
X5546641Y-16492554D02*
X5546641Y-16540173D01*
X5546641Y-16540173D02*
X5537117Y-16578268D01*
X5537117Y-16578268D02*
X5527593Y-16597316D01*
X5527593Y-16597316D02*
X5518069Y-16606840D01*
X5518069Y-16606840D02*
X5499022Y-16616364D01*
X5499022Y-16616364D02*
X5479974Y-16616364D01*
X5479974Y-16616364D02*
X5460927Y-16606840D01*
X5460927Y-16606840D02*
X5451403Y-16597316D01*
X5451403Y-16597316D02*
X5441879Y-16578268D01*
X5441879Y-16578268D02*
X5432355Y-16540173D01*
X5432355Y-16540173D02*
X5432355Y-16492554D01*
X5432355Y-16492554D02*
X5441879Y-16454459D01*
X5441879Y-16454459D02*
X5451403Y-16435411D01*
X5451403Y-16435411D02*
X5460927Y-16425888D01*
X5460927Y-16425888D02*
X5479974Y-16416364D01*
X5632355Y-16597316D02*
X5641879Y-16606840D01*
X5641879Y-16606840D02*
X5632355Y-16616364D01*
X5632355Y-16616364D02*
X5622831Y-16606840D01*
X5622831Y-16606840D02*
X5632355Y-16597316D01*
X5632355Y-16597316D02*
X5632355Y-16616364D01*
X5765688Y-16416364D02*
X5784736Y-16416364D01*
X5784736Y-16416364D02*
X5803784Y-16425888D01*
X5803784Y-16425888D02*
X5813307Y-16435411D01*
X5813307Y-16435411D02*
X5822831Y-16454459D01*
X5822831Y-16454459D02*
X5832355Y-16492554D01*
X5832355Y-16492554D02*
X5832355Y-16540173D01*
X5832355Y-16540173D02*
X5822831Y-16578268D01*
X5822831Y-16578268D02*
X5813307Y-16597316D01*
X5813307Y-16597316D02*
X5803784Y-16606840D01*
X5803784Y-16606840D02*
X5784736Y-16616364D01*
X5784736Y-16616364D02*
X5765688Y-16616364D01*
X5765688Y-16616364D02*
X5746641Y-16606840D01*
X5746641Y-16606840D02*
X5737117Y-16597316D01*
X5737117Y-16597316D02*
X5727593Y-16578268D01*
X5727593Y-16578268D02*
X5718069Y-16540173D01*
X5718069Y-16540173D02*
X5718069Y-16492554D01*
X5718069Y-16492554D02*
X5727593Y-16454459D01*
X5727593Y-16454459D02*
X5737117Y-16435411D01*
X5737117Y-16435411D02*
X5746641Y-16425888D01*
X5746641Y-16425888D02*
X5765688Y-16416364D01*
X5908546Y-16435411D02*
X5918069Y-16425888D01*
X5918069Y-16425888D02*
X5937117Y-16416364D01*
X5937117Y-16416364D02*
X5984736Y-16416364D01*
X5984736Y-16416364D02*
X6003784Y-16425888D01*
X6003784Y-16425888D02*
X6013307Y-16435411D01*
X6013307Y-16435411D02*
X6022831Y-16454459D01*
X6022831Y-16454459D02*
X6022831Y-16473507D01*
X6022831Y-16473507D02*
X6013307Y-16502078D01*
X6013307Y-16502078D02*
X5899022Y-16616364D01*
X5899022Y-16616364D02*
X6022831Y-16616364D01*
X6118069Y-16616364D02*
X6156165Y-16616364D01*
X6156165Y-16616364D02*
X6175212Y-16606840D01*
X6175212Y-16606840D02*
X6184736Y-16597316D01*
X6184736Y-16597316D02*
X6203784Y-16568745D01*
X6203784Y-16568745D02*
X6213307Y-16530649D01*
X6213307Y-16530649D02*
X6213307Y-16454459D01*
X6213307Y-16454459D02*
X6203784Y-16435411D01*
X6203784Y-16435411D02*
X6194260Y-16425888D01*
X6194260Y-16425888D02*
X6175212Y-16416364D01*
X6175212Y-16416364D02*
X6137117Y-16416364D01*
X6137117Y-16416364D02*
X6118069Y-16425888D01*
X6118069Y-16425888D02*
X6108546Y-16435411D01*
X6108546Y-16435411D02*
X6099022Y-16454459D01*
X6099022Y-16454459D02*
X6099022Y-16502078D01*
X6099022Y-16502078D02*
X6108546Y-16521126D01*
X6108546Y-16521126D02*
X6118069Y-16530649D01*
X6118069Y-16530649D02*
X6137117Y-16540173D01*
X6137117Y-16540173D02*
X6175212Y-16540173D01*
X6175212Y-16540173D02*
X6194260Y-16530649D01*
X6194260Y-16530649D02*
X6203784Y-16521126D01*
X6203784Y-16521126D02*
X6213307Y-16502078D01*
X6394260Y-16416364D02*
X6299022Y-16416364D01*
X6299022Y-16416364D02*
X6289498Y-16511602D01*
X6289498Y-16511602D02*
X6299022Y-16502078D01*
X6299022Y-16502078D02*
X6318069Y-16492554D01*
X6318069Y-16492554D02*
X6365688Y-16492554D01*
X6365688Y-16492554D02*
X6384736Y-16502078D01*
X6384736Y-16502078D02*
X6394260Y-16511602D01*
X6394260Y-16511602D02*
X6403784Y-16530649D01*
X6403784Y-16530649D02*
X6403784Y-16578268D01*
X6403784Y-16578268D02*
X6394260Y-16597316D01*
X6394260Y-16597316D02*
X6384736Y-16606840D01*
X6384736Y-16606840D02*
X6365688Y-16616364D01*
X6365688Y-16616364D02*
X6318069Y-16616364D01*
X6318069Y-16616364D02*
X6299022Y-16606840D01*
X6299022Y-16606840D02*
X6289498Y-16597316D01*
X6479974Y-16416364D02*
X6479974Y-16454459D01*
X6556165Y-16416364D02*
X6556165Y-16454459D01*
X6851403Y-16692554D02*
X6841879Y-16683030D01*
X6841879Y-16683030D02*
X6822831Y-16654459D01*
X6822831Y-16654459D02*
X6813308Y-16635411D01*
X6813308Y-16635411D02*
X6803784Y-16606840D01*
X6803784Y-16606840D02*
X6794260Y-16559221D01*
X6794260Y-16559221D02*
X6794260Y-16521126D01*
X6794260Y-16521126D02*
X6803784Y-16473507D01*
X6803784Y-16473507D02*
X6813308Y-16444935D01*
X6813308Y-16444935D02*
X6822831Y-16425888D01*
X6822831Y-16425888D02*
X6841879Y-16397316D01*
X6841879Y-16397316D02*
X6851403Y-16387792D01*
X6918069Y-16435411D02*
X6927593Y-16425888D01*
X6927593Y-16425888D02*
X6946641Y-16416364D01*
X6946641Y-16416364D02*
X6994260Y-16416364D01*
X6994260Y-16416364D02*
X7013308Y-16425888D01*
X7013308Y-16425888D02*
X7022831Y-16435411D01*
X7022831Y-16435411D02*
X7032355Y-16454459D01*
X7032355Y-16454459D02*
X7032355Y-16473507D01*
X7032355Y-16473507D02*
X7022831Y-16502078D01*
X7022831Y-16502078D02*
X6908546Y-16616364D01*
X6908546Y-16616364D02*
X7032355Y-16616364D01*
X7270450Y-16616364D02*
X7270450Y-16416364D01*
X7356165Y-16616364D02*
X7356165Y-16511602D01*
X7356165Y-16511602D02*
X7346641Y-16492554D01*
X7346641Y-16492554D02*
X7327593Y-16483030D01*
X7327593Y-16483030D02*
X7299022Y-16483030D01*
X7299022Y-16483030D02*
X7279974Y-16492554D01*
X7279974Y-16492554D02*
X7270450Y-16502078D01*
X7479974Y-16616364D02*
X7460927Y-16606840D01*
X7460927Y-16606840D02*
X7451403Y-16597316D01*
X7451403Y-16597316D02*
X7441879Y-16578268D01*
X7441879Y-16578268D02*
X7441879Y-16521126D01*
X7441879Y-16521126D02*
X7451403Y-16502078D01*
X7451403Y-16502078D02*
X7460927Y-16492554D01*
X7460927Y-16492554D02*
X7479974Y-16483030D01*
X7479974Y-16483030D02*
X7508546Y-16483030D01*
X7508546Y-16483030D02*
X7527593Y-16492554D01*
X7527593Y-16492554D02*
X7537117Y-16502078D01*
X7537117Y-16502078D02*
X7546641Y-16521126D01*
X7546641Y-16521126D02*
X7546641Y-16578268D01*
X7546641Y-16578268D02*
X7537117Y-16597316D01*
X7537117Y-16597316D02*
X7527593Y-16606840D01*
X7527593Y-16606840D02*
X7508546Y-16616364D01*
X7508546Y-16616364D02*
X7479974Y-16616364D01*
X7660927Y-16616364D02*
X7641879Y-16606840D01*
X7641879Y-16606840D02*
X7632355Y-16587792D01*
X7632355Y-16587792D02*
X7632355Y-16416364D01*
X7813308Y-16606840D02*
X7794260Y-16616364D01*
X7794260Y-16616364D02*
X7756165Y-16616364D01*
X7756165Y-16616364D02*
X7737117Y-16606840D01*
X7737117Y-16606840D02*
X7727593Y-16587792D01*
X7727593Y-16587792D02*
X7727593Y-16511602D01*
X7727593Y-16511602D02*
X7737117Y-16492554D01*
X7737117Y-16492554D02*
X7756165Y-16483030D01*
X7756165Y-16483030D02*
X7794260Y-16483030D01*
X7794260Y-16483030D02*
X7813308Y-16492554D01*
X7813308Y-16492554D02*
X7822831Y-16511602D01*
X7822831Y-16511602D02*
X7822831Y-16530649D01*
X7822831Y-16530649D02*
X7727593Y-16549697D01*
X7899022Y-16606840D02*
X7918070Y-16616364D01*
X7918070Y-16616364D02*
X7956165Y-16616364D01*
X7956165Y-16616364D02*
X7975212Y-16606840D01*
X7975212Y-16606840D02*
X7984736Y-16587792D01*
X7984736Y-16587792D02*
X7984736Y-16578268D01*
X7984736Y-16578268D02*
X7975212Y-16559221D01*
X7975212Y-16559221D02*
X7956165Y-16549697D01*
X7956165Y-16549697D02*
X7927593Y-16549697D01*
X7927593Y-16549697D02*
X7908546Y-16540173D01*
X7908546Y-16540173D02*
X7899022Y-16521126D01*
X7899022Y-16521126D02*
X7899022Y-16511602D01*
X7899022Y-16511602D02*
X7908546Y-16492554D01*
X7908546Y-16492554D02*
X7927593Y-16483030D01*
X7927593Y-16483030D02*
X7956165Y-16483030D01*
X7956165Y-16483030D02*
X7975212Y-16492554D01*
X8051403Y-16692554D02*
X8060927Y-16683030D01*
X8060927Y-16683030D02*
X8079974Y-16654459D01*
X8079974Y-16654459D02*
X8089498Y-16635411D01*
X8089498Y-16635411D02*
X8099022Y-16606840D01*
X8099022Y-16606840D02*
X8108546Y-16559221D01*
X8108546Y-16559221D02*
X8108546Y-16521126D01*
X8108546Y-16521126D02*
X8099022Y-16473507D01*
X8099022Y-16473507D02*
X8089498Y-16444935D01*
X8089498Y-16444935D02*
X8079974Y-16425888D01*
X8079974Y-16425888D02*
X8060927Y-16397316D01*
X8060927Y-16397316D02*
X8051403Y-16387792D01*
D10*
X3264437Y-16817617D02*
X3264437Y-16760143D01*
X3206963Y-16760143D01*
X3206963Y-16817617D01*
X3264437Y-16817617D01*
D11*
X3575212Y-16680364D02*
X3594260Y-16680364D01*
X3594260Y-16680364D02*
X3613307Y-16689888D01*
X3613307Y-16689888D02*
X3622831Y-16699411D01*
X3622831Y-16699411D02*
X3632355Y-16718459D01*
X3632355Y-16718459D02*
X3641879Y-16756554D01*
X3641879Y-16756554D02*
X3641879Y-16804173D01*
X3641879Y-16804173D02*
X3632355Y-16842269D01*
X3632355Y-16842269D02*
X3622831Y-16861316D01*
X3622831Y-16861316D02*
X3613307Y-16870840D01*
X3613307Y-16870840D02*
X3594260Y-16880364D01*
X3594260Y-16880364D02*
X3575212Y-16880364D01*
X3575212Y-16880364D02*
X3556164Y-16870840D01*
X3556164Y-16870840D02*
X3546641Y-16861316D01*
X3546641Y-16861316D02*
X3537117Y-16842269D01*
X3537117Y-16842269D02*
X3527593Y-16804173D01*
X3527593Y-16804173D02*
X3527593Y-16756554D01*
X3527593Y-16756554D02*
X3537117Y-16718459D01*
X3537117Y-16718459D02*
X3546641Y-16699411D01*
X3546641Y-16699411D02*
X3556164Y-16689888D01*
X3556164Y-16689888D02*
X3575212Y-16680364D01*
X3727593Y-16861316D02*
X3737117Y-16870840D01*
X3737117Y-16870840D02*
X3727593Y-16880364D01*
X3727593Y-16880364D02*
X3718069Y-16870840D01*
X3718069Y-16870840D02*
X3727593Y-16861316D01*
X3727593Y-16861316D02*
X3727593Y-16880364D01*
X3851402Y-16766078D02*
X3832355Y-16756554D01*
X3832355Y-16756554D02*
X3822831Y-16747030D01*
X3822831Y-16747030D02*
X3813307Y-16727983D01*
X3813307Y-16727983D02*
X3813307Y-16718459D01*
X3813307Y-16718459D02*
X3822831Y-16699411D01*
X3822831Y-16699411D02*
X3832355Y-16689888D01*
X3832355Y-16689888D02*
X3851402Y-16680364D01*
X3851402Y-16680364D02*
X3889498Y-16680364D01*
X3889498Y-16680364D02*
X3908545Y-16689888D01*
X3908545Y-16689888D02*
X3918069Y-16699411D01*
X3918069Y-16699411D02*
X3927593Y-16718459D01*
X3927593Y-16718459D02*
X3927593Y-16727983D01*
X3927593Y-16727983D02*
X3918069Y-16747030D01*
X3918069Y-16747030D02*
X3908545Y-16756554D01*
X3908545Y-16756554D02*
X3889498Y-16766078D01*
X3889498Y-16766078D02*
X3851402Y-16766078D01*
X3851402Y-16766078D02*
X3832355Y-16775602D01*
X3832355Y-16775602D02*
X3822831Y-16785126D01*
X3822831Y-16785126D02*
X3813307Y-16804173D01*
X3813307Y-16804173D02*
X3813307Y-16842269D01*
X3813307Y-16842269D02*
X3822831Y-16861316D01*
X3822831Y-16861316D02*
X3832355Y-16870840D01*
X3832355Y-16870840D02*
X3851402Y-16880364D01*
X3851402Y-16880364D02*
X3889498Y-16880364D01*
X3889498Y-16880364D02*
X3908545Y-16870840D01*
X3908545Y-16870840D02*
X3918069Y-16861316D01*
X3918069Y-16861316D02*
X3927593Y-16842269D01*
X3927593Y-16842269D02*
X3927593Y-16804173D01*
X3927593Y-16804173D02*
X3918069Y-16785126D01*
X3918069Y-16785126D02*
X3908545Y-16775602D01*
X3908545Y-16775602D02*
X3889498Y-16766078D01*
X4118069Y-16880364D02*
X4003783Y-16880364D01*
X4060926Y-16880364D02*
X4060926Y-16680364D01*
X4060926Y-16680364D02*
X4041879Y-16708935D01*
X4041879Y-16708935D02*
X4022831Y-16727983D01*
X4022831Y-16727983D02*
X4003783Y-16737507D01*
X4184736Y-16680364D02*
X4308545Y-16680364D01*
X4308545Y-16680364D02*
X4241879Y-16756554D01*
X4241879Y-16756554D02*
X4270450Y-16756554D01*
X4270450Y-16756554D02*
X4289498Y-16766078D01*
X4289498Y-16766078D02*
X4299022Y-16775602D01*
X4299022Y-16775602D02*
X4308545Y-16794650D01*
X4308545Y-16794650D02*
X4308545Y-16842269D01*
X4308545Y-16842269D02*
X4299022Y-16861316D01*
X4299022Y-16861316D02*
X4289498Y-16870840D01*
X4289498Y-16870840D02*
X4270450Y-16880364D01*
X4270450Y-16880364D02*
X4213307Y-16880364D01*
X4213307Y-16880364D02*
X4194260Y-16870840D01*
X4194260Y-16870840D02*
X4184736Y-16861316D01*
X4394260Y-16880364D02*
X4394260Y-16747030D01*
X4394260Y-16766078D02*
X4403784Y-16756554D01*
X4403784Y-16756554D02*
X4422831Y-16747030D01*
X4422831Y-16747030D02*
X4451403Y-16747030D01*
X4451403Y-16747030D02*
X4470450Y-16756554D01*
X4470450Y-16756554D02*
X4479974Y-16775602D01*
X4479974Y-16775602D02*
X4479974Y-16880364D01*
X4479974Y-16775602D02*
X4489498Y-16756554D01*
X4489498Y-16756554D02*
X4508545Y-16747030D01*
X4508545Y-16747030D02*
X4537117Y-16747030D01*
X4537117Y-16747030D02*
X4556165Y-16756554D01*
X4556165Y-16756554D02*
X4565688Y-16775602D01*
X4565688Y-16775602D02*
X4565688Y-16880364D01*
X4660926Y-16880364D02*
X4660926Y-16747030D01*
X4660926Y-16766078D02*
X4670450Y-16756554D01*
X4670450Y-16756554D02*
X4689498Y-16747030D01*
X4689498Y-16747030D02*
X4718069Y-16747030D01*
X4718069Y-16747030D02*
X4737117Y-16756554D01*
X4737117Y-16756554D02*
X4746641Y-16775602D01*
X4746641Y-16775602D02*
X4746641Y-16880364D01*
X4746641Y-16775602D02*
X4756165Y-16756554D01*
X4756165Y-16756554D02*
X4775212Y-16747030D01*
X4775212Y-16747030D02*
X4803784Y-16747030D01*
X4803784Y-16747030D02*
X4822831Y-16756554D01*
X4822831Y-16756554D02*
X4832355Y-16775602D01*
X4832355Y-16775602D02*
X4832355Y-16880364D01*
X5222831Y-16670840D02*
X5051403Y-16927983D01*
X5479974Y-16680364D02*
X5499022Y-16680364D01*
X5499022Y-16680364D02*
X5518069Y-16689888D01*
X5518069Y-16689888D02*
X5527593Y-16699411D01*
X5527593Y-16699411D02*
X5537117Y-16718459D01*
X5537117Y-16718459D02*
X5546641Y-16756554D01*
X5546641Y-16756554D02*
X5546641Y-16804173D01*
X5546641Y-16804173D02*
X5537117Y-16842269D01*
X5537117Y-16842269D02*
X5527593Y-16861316D01*
X5527593Y-16861316D02*
X5518069Y-16870840D01*
X5518069Y-16870840D02*
X5499022Y-16880364D01*
X5499022Y-16880364D02*
X5479974Y-16880364D01*
X5479974Y-16880364D02*
X5460927Y-16870840D01*
X5460927Y-16870840D02*
X5451403Y-16861316D01*
X5451403Y-16861316D02*
X5441879Y-16842269D01*
X5441879Y-16842269D02*
X5432355Y-16804173D01*
X5432355Y-16804173D02*
X5432355Y-16756554D01*
X5432355Y-16756554D02*
X5441879Y-16718459D01*
X5441879Y-16718459D02*
X5451403Y-16699411D01*
X5451403Y-16699411D02*
X5460927Y-16689888D01*
X5460927Y-16689888D02*
X5479974Y-16680364D01*
X5632355Y-16861316D02*
X5641879Y-16870840D01*
X5641879Y-16870840D02*
X5632355Y-16880364D01*
X5632355Y-16880364D02*
X5622831Y-16870840D01*
X5622831Y-16870840D02*
X5632355Y-16861316D01*
X5632355Y-16861316D02*
X5632355Y-16880364D01*
X5765688Y-16680364D02*
X5784736Y-16680364D01*
X5784736Y-16680364D02*
X5803784Y-16689888D01*
X5803784Y-16689888D02*
X5813307Y-16699411D01*
X5813307Y-16699411D02*
X5822831Y-16718459D01*
X5822831Y-16718459D02*
X5832355Y-16756554D01*
X5832355Y-16756554D02*
X5832355Y-16804173D01*
X5832355Y-16804173D02*
X5822831Y-16842269D01*
X5822831Y-16842269D02*
X5813307Y-16861316D01*
X5813307Y-16861316D02*
X5803784Y-16870840D01*
X5803784Y-16870840D02*
X5784736Y-16880364D01*
X5784736Y-16880364D02*
X5765688Y-16880364D01*
X5765688Y-16880364D02*
X5746641Y-16870840D01*
X5746641Y-16870840D02*
X5737117Y-16861316D01*
X5737117Y-16861316D02*
X5727593Y-16842269D01*
X5727593Y-16842269D02*
X5718069Y-16804173D01*
X5718069Y-16804173D02*
X5718069Y-16756554D01*
X5718069Y-16756554D02*
X5727593Y-16718459D01*
X5727593Y-16718459D02*
X5737117Y-16699411D01*
X5737117Y-16699411D02*
X5746641Y-16689888D01*
X5746641Y-16689888D02*
X5765688Y-16680364D01*
X5899022Y-16680364D02*
X6022831Y-16680364D01*
X6022831Y-16680364D02*
X5956165Y-16756554D01*
X5956165Y-16756554D02*
X5984736Y-16756554D01*
X5984736Y-16756554D02*
X6003784Y-16766078D01*
X6003784Y-16766078D02*
X6013307Y-16775602D01*
X6013307Y-16775602D02*
X6022831Y-16794650D01*
X6022831Y-16794650D02*
X6022831Y-16842269D01*
X6022831Y-16842269D02*
X6013307Y-16861316D01*
X6013307Y-16861316D02*
X6003784Y-16870840D01*
X6003784Y-16870840D02*
X5984736Y-16880364D01*
X5984736Y-16880364D02*
X5927593Y-16880364D01*
X5927593Y-16880364D02*
X5908546Y-16870840D01*
X5908546Y-16870840D02*
X5899022Y-16861316D01*
X6099022Y-16699411D02*
X6108546Y-16689888D01*
X6108546Y-16689888D02*
X6127593Y-16680364D01*
X6127593Y-16680364D02*
X6175212Y-16680364D01*
X6175212Y-16680364D02*
X6194260Y-16689888D01*
X6194260Y-16689888D02*
X6203784Y-16699411D01*
X6203784Y-16699411D02*
X6213307Y-16718459D01*
X6213307Y-16718459D02*
X6213307Y-16737507D01*
X6213307Y-16737507D02*
X6203784Y-16766078D01*
X6203784Y-16766078D02*
X6089498Y-16880364D01*
X6089498Y-16880364D02*
X6213307Y-16880364D01*
X6337117Y-16680364D02*
X6356165Y-16680364D01*
X6356165Y-16680364D02*
X6375212Y-16689888D01*
X6375212Y-16689888D02*
X6384736Y-16699411D01*
X6384736Y-16699411D02*
X6394260Y-16718459D01*
X6394260Y-16718459D02*
X6403784Y-16756554D01*
X6403784Y-16756554D02*
X6403784Y-16804173D01*
X6403784Y-16804173D02*
X6394260Y-16842269D01*
X6394260Y-16842269D02*
X6384736Y-16861316D01*
X6384736Y-16861316D02*
X6375212Y-16870840D01*
X6375212Y-16870840D02*
X6356165Y-16880364D01*
X6356165Y-16880364D02*
X6337117Y-16880364D01*
X6337117Y-16880364D02*
X6318069Y-16870840D01*
X6318069Y-16870840D02*
X6308546Y-16861316D01*
X6308546Y-16861316D02*
X6299022Y-16842269D01*
X6299022Y-16842269D02*
X6289498Y-16804173D01*
X6289498Y-16804173D02*
X6289498Y-16756554D01*
X6289498Y-16756554D02*
X6299022Y-16718459D01*
X6299022Y-16718459D02*
X6308546Y-16699411D01*
X6308546Y-16699411D02*
X6318069Y-16689888D01*
X6318069Y-16689888D02*
X6337117Y-16680364D01*
X6479974Y-16680364D02*
X6479974Y-16718459D01*
X6556165Y-16680364D02*
X6556165Y-16718459D01*
X6851403Y-16956554D02*
X6841879Y-16947030D01*
X6841879Y-16947030D02*
X6822831Y-16918459D01*
X6822831Y-16918459D02*
X6813308Y-16899411D01*
X6813308Y-16899411D02*
X6803784Y-16870840D01*
X6803784Y-16870840D02*
X6794260Y-16823221D01*
X6794260Y-16823221D02*
X6794260Y-16785126D01*
X6794260Y-16785126D02*
X6803784Y-16737507D01*
X6803784Y-16737507D02*
X6813308Y-16708935D01*
X6813308Y-16708935D02*
X6822831Y-16689888D01*
X6822831Y-16689888D02*
X6841879Y-16661316D01*
X6841879Y-16661316D02*
X6851403Y-16651792D01*
X6918069Y-16699411D02*
X6927593Y-16689888D01*
X6927593Y-16689888D02*
X6946641Y-16680364D01*
X6946641Y-16680364D02*
X6994260Y-16680364D01*
X6994260Y-16680364D02*
X7013308Y-16689888D01*
X7013308Y-16689888D02*
X7022831Y-16699411D01*
X7022831Y-16699411D02*
X7032355Y-16718459D01*
X7032355Y-16718459D02*
X7032355Y-16737507D01*
X7032355Y-16737507D02*
X7022831Y-16766078D01*
X7022831Y-16766078D02*
X6908546Y-16880364D01*
X6908546Y-16880364D02*
X7032355Y-16880364D01*
X7203784Y-16747030D02*
X7203784Y-16880364D01*
X7156165Y-16670840D02*
X7108546Y-16813697D01*
X7108546Y-16813697D02*
X7232355Y-16813697D01*
X7460927Y-16880364D02*
X7460927Y-16680364D01*
X7546641Y-16880364D02*
X7546641Y-16775602D01*
X7546641Y-16775602D02*
X7537117Y-16756554D01*
X7537117Y-16756554D02*
X7518070Y-16747030D01*
X7518070Y-16747030D02*
X7489498Y-16747030D01*
X7489498Y-16747030D02*
X7470450Y-16756554D01*
X7470450Y-16756554D02*
X7460927Y-16766078D01*
X7670450Y-16880364D02*
X7651403Y-16870840D01*
X7651403Y-16870840D02*
X7641879Y-16861316D01*
X7641879Y-16861316D02*
X7632355Y-16842269D01*
X7632355Y-16842269D02*
X7632355Y-16785126D01*
X7632355Y-16785126D02*
X7641879Y-16766078D01*
X7641879Y-16766078D02*
X7651403Y-16756554D01*
X7651403Y-16756554D02*
X7670450Y-16747030D01*
X7670450Y-16747030D02*
X7699022Y-16747030D01*
X7699022Y-16747030D02*
X7718070Y-16756554D01*
X7718070Y-16756554D02*
X7727593Y-16766078D01*
X7727593Y-16766078D02*
X7737117Y-16785126D01*
X7737117Y-16785126D02*
X7737117Y-16842269D01*
X7737117Y-16842269D02*
X7727593Y-16861316D01*
X7727593Y-16861316D02*
X7718070Y-16870840D01*
X7718070Y-16870840D02*
X7699022Y-16880364D01*
X7699022Y-16880364D02*
X7670450Y-16880364D01*
X7851403Y-16880364D02*
X7832355Y-16870840D01*
X7832355Y-16870840D02*
X7822831Y-16851792D01*
X7822831Y-16851792D02*
X7822831Y-16680364D01*
X8003784Y-16870840D02*
X7984736Y-16880364D01*
X7984736Y-16880364D02*
X7946641Y-16880364D01*
X7946641Y-16880364D02*
X7927593Y-16870840D01*
X7927593Y-16870840D02*
X7918070Y-16851792D01*
X7918070Y-16851792D02*
X7918070Y-16775602D01*
X7918070Y-16775602D02*
X7927593Y-16756554D01*
X7927593Y-16756554D02*
X7946641Y-16747030D01*
X7946641Y-16747030D02*
X7984736Y-16747030D01*
X7984736Y-16747030D02*
X8003784Y-16756554D01*
X8003784Y-16756554D02*
X8013308Y-16775602D01*
X8013308Y-16775602D02*
X8013308Y-16794650D01*
X8013308Y-16794650D02*
X7918070Y-16813697D01*
X8089498Y-16870840D02*
X8108546Y-16880364D01*
X8108546Y-16880364D02*
X8146641Y-16880364D01*
X8146641Y-16880364D02*
X8165689Y-16870840D01*
X8165689Y-16870840D02*
X8175212Y-16851792D01*
X8175212Y-16851792D02*
X8175212Y-16842269D01*
X8175212Y-16842269D02*
X8165689Y-16823221D01*
X8165689Y-16823221D02*
X8146641Y-16813697D01*
X8146641Y-16813697D02*
X8118070Y-16813697D01*
X8118070Y-16813697D02*
X8099022Y-16804173D01*
X8099022Y-16804173D02*
X8089498Y-16785126D01*
X8089498Y-16785126D02*
X8089498Y-16775602D01*
X8089498Y-16775602D02*
X8099022Y-16756554D01*
X8099022Y-16756554D02*
X8118070Y-16747030D01*
X8118070Y-16747030D02*
X8146641Y-16747030D01*
X8146641Y-16747030D02*
X8165689Y-16756554D01*
X8241879Y-16956554D02*
X8251403Y-16947030D01*
X8251403Y-16947030D02*
X8270451Y-16918459D01*
X8270451Y-16918459D02*
X8279974Y-16899411D01*
X8279974Y-16899411D02*
X8289498Y-16870840D01*
X8289498Y-16870840D02*
X8299022Y-16823221D01*
X8299022Y-16823221D02*
X8299022Y-16785126D01*
X8299022Y-16785126D02*
X8289498Y-16737507D01*
X8289498Y-16737507D02*
X8279974Y-16708935D01*
X8279974Y-16708935D02*
X8270451Y-16689888D01*
X8270451Y-16689888D02*
X8251403Y-16661316D01*
X8251403Y-16661316D02*
X8241879Y-16651792D01*
D10*
X3226340Y-17102880D02*
X3276340Y-17052880D01*
X3226340Y-17002880D01*
X3176340Y-17052880D01*
X3226340Y-17102880D01*
D11*
X3641879Y-17144364D02*
X3527593Y-17144364D01*
X3584736Y-17144364D02*
X3584736Y-16944364D01*
X3584736Y-16944364D02*
X3565688Y-16972935D01*
X3565688Y-16972935D02*
X3546641Y-16991983D01*
X3546641Y-16991983D02*
X3527593Y-17001507D01*
X3727593Y-17125316D02*
X3737117Y-17134840D01*
X3737117Y-17134840D02*
X3727593Y-17144364D01*
X3727593Y-17144364D02*
X3718069Y-17134840D01*
X3718069Y-17134840D02*
X3727593Y-17125316D01*
X3727593Y-17125316D02*
X3727593Y-17144364D01*
X3860926Y-16944364D02*
X3879974Y-16944364D01*
X3879974Y-16944364D02*
X3899022Y-16953888D01*
X3899022Y-16953888D02*
X3908545Y-16963411D01*
X3908545Y-16963411D02*
X3918069Y-16982459D01*
X3918069Y-16982459D02*
X3927593Y-17020554D01*
X3927593Y-17020554D02*
X3927593Y-17068173D01*
X3927593Y-17068173D02*
X3918069Y-17106269D01*
X3918069Y-17106269D02*
X3908545Y-17125316D01*
X3908545Y-17125316D02*
X3899022Y-17134840D01*
X3899022Y-17134840D02*
X3879974Y-17144364D01*
X3879974Y-17144364D02*
X3860926Y-17144364D01*
X3860926Y-17144364D02*
X3841879Y-17134840D01*
X3841879Y-17134840D02*
X3832355Y-17125316D01*
X3832355Y-17125316D02*
X3822831Y-17106269D01*
X3822831Y-17106269D02*
X3813307Y-17068173D01*
X3813307Y-17068173D02*
X3813307Y-17020554D01*
X3813307Y-17020554D02*
X3822831Y-16982459D01*
X3822831Y-16982459D02*
X3832355Y-16963411D01*
X3832355Y-16963411D02*
X3841879Y-16953888D01*
X3841879Y-16953888D02*
X3860926Y-16944364D01*
X4051402Y-16944364D02*
X4070450Y-16944364D01*
X4070450Y-16944364D02*
X4089498Y-16953888D01*
X4089498Y-16953888D02*
X4099022Y-16963411D01*
X4099022Y-16963411D02*
X4108545Y-16982459D01*
X4108545Y-16982459D02*
X4118069Y-17020554D01*
X4118069Y-17020554D02*
X4118069Y-17068173D01*
X4118069Y-17068173D02*
X4108545Y-17106269D01*
X4108545Y-17106269D02*
X4099022Y-17125316D01*
X4099022Y-17125316D02*
X4089498Y-17134840D01*
X4089498Y-17134840D02*
X4070450Y-17144364D01*
X4070450Y-17144364D02*
X4051402Y-17144364D01*
X4051402Y-17144364D02*
X4032355Y-17134840D01*
X4032355Y-17134840D02*
X4022831Y-17125316D01*
X4022831Y-17125316D02*
X4013307Y-17106269D01*
X4013307Y-17106269D02*
X4003783Y-17068173D01*
X4003783Y-17068173D02*
X4003783Y-17020554D01*
X4003783Y-17020554D02*
X4013307Y-16982459D01*
X4013307Y-16982459D02*
X4022831Y-16963411D01*
X4022831Y-16963411D02*
X4032355Y-16953888D01*
X4032355Y-16953888D02*
X4051402Y-16944364D01*
X4241879Y-16944364D02*
X4260926Y-16944364D01*
X4260926Y-16944364D02*
X4279974Y-16953888D01*
X4279974Y-16953888D02*
X4289498Y-16963411D01*
X4289498Y-16963411D02*
X4299022Y-16982459D01*
X4299022Y-16982459D02*
X4308545Y-17020554D01*
X4308545Y-17020554D02*
X4308545Y-17068173D01*
X4308545Y-17068173D02*
X4299022Y-17106269D01*
X4299022Y-17106269D02*
X4289498Y-17125316D01*
X4289498Y-17125316D02*
X4279974Y-17134840D01*
X4279974Y-17134840D02*
X4260926Y-17144364D01*
X4260926Y-17144364D02*
X4241879Y-17144364D01*
X4241879Y-17144364D02*
X4222831Y-17134840D01*
X4222831Y-17134840D02*
X4213307Y-17125316D01*
X4213307Y-17125316D02*
X4203784Y-17106269D01*
X4203784Y-17106269D02*
X4194260Y-17068173D01*
X4194260Y-17068173D02*
X4194260Y-17020554D01*
X4194260Y-17020554D02*
X4203784Y-16982459D01*
X4203784Y-16982459D02*
X4213307Y-16963411D01*
X4213307Y-16963411D02*
X4222831Y-16953888D01*
X4222831Y-16953888D02*
X4241879Y-16944364D01*
X4394260Y-17144364D02*
X4394260Y-17011030D01*
X4394260Y-17030078D02*
X4403784Y-17020554D01*
X4403784Y-17020554D02*
X4422831Y-17011030D01*
X4422831Y-17011030D02*
X4451403Y-17011030D01*
X4451403Y-17011030D02*
X4470450Y-17020554D01*
X4470450Y-17020554D02*
X4479974Y-17039602D01*
X4479974Y-17039602D02*
X4479974Y-17144364D01*
X4479974Y-17039602D02*
X4489498Y-17020554D01*
X4489498Y-17020554D02*
X4508545Y-17011030D01*
X4508545Y-17011030D02*
X4537117Y-17011030D01*
X4537117Y-17011030D02*
X4556165Y-17020554D01*
X4556165Y-17020554D02*
X4565688Y-17039602D01*
X4565688Y-17039602D02*
X4565688Y-17144364D01*
X4660926Y-17144364D02*
X4660926Y-17011030D01*
X4660926Y-17030078D02*
X4670450Y-17020554D01*
X4670450Y-17020554D02*
X4689498Y-17011030D01*
X4689498Y-17011030D02*
X4718069Y-17011030D01*
X4718069Y-17011030D02*
X4737117Y-17020554D01*
X4737117Y-17020554D02*
X4746641Y-17039602D01*
X4746641Y-17039602D02*
X4746641Y-17144364D01*
X4746641Y-17039602D02*
X4756165Y-17020554D01*
X4756165Y-17020554D02*
X4775212Y-17011030D01*
X4775212Y-17011030D02*
X4803784Y-17011030D01*
X4803784Y-17011030D02*
X4822831Y-17020554D01*
X4822831Y-17020554D02*
X4832355Y-17039602D01*
X4832355Y-17039602D02*
X4832355Y-17144364D01*
X5222831Y-16934840D02*
X5051403Y-17191983D01*
X5479974Y-16944364D02*
X5499022Y-16944364D01*
X5499022Y-16944364D02*
X5518069Y-16953888D01*
X5518069Y-16953888D02*
X5527593Y-16963411D01*
X5527593Y-16963411D02*
X5537117Y-16982459D01*
X5537117Y-16982459D02*
X5546641Y-17020554D01*
X5546641Y-17020554D02*
X5546641Y-17068173D01*
X5546641Y-17068173D02*
X5537117Y-17106269D01*
X5537117Y-17106269D02*
X5527593Y-17125316D01*
X5527593Y-17125316D02*
X5518069Y-17134840D01*
X5518069Y-17134840D02*
X5499022Y-17144364D01*
X5499022Y-17144364D02*
X5479974Y-17144364D01*
X5479974Y-17144364D02*
X5460927Y-17134840D01*
X5460927Y-17134840D02*
X5451403Y-17125316D01*
X5451403Y-17125316D02*
X5441879Y-17106269D01*
X5441879Y-17106269D02*
X5432355Y-17068173D01*
X5432355Y-17068173D02*
X5432355Y-17020554D01*
X5432355Y-17020554D02*
X5441879Y-16982459D01*
X5441879Y-16982459D02*
X5451403Y-16963411D01*
X5451403Y-16963411D02*
X5460927Y-16953888D01*
X5460927Y-16953888D02*
X5479974Y-16944364D01*
X5632355Y-17125316D02*
X5641879Y-17134840D01*
X5641879Y-17134840D02*
X5632355Y-17144364D01*
X5632355Y-17144364D02*
X5622831Y-17134840D01*
X5622831Y-17134840D02*
X5632355Y-17125316D01*
X5632355Y-17125316D02*
X5632355Y-17144364D01*
X5765688Y-16944364D02*
X5784736Y-16944364D01*
X5784736Y-16944364D02*
X5803784Y-16953888D01*
X5803784Y-16953888D02*
X5813307Y-16963411D01*
X5813307Y-16963411D02*
X5822831Y-16982459D01*
X5822831Y-16982459D02*
X5832355Y-17020554D01*
X5832355Y-17020554D02*
X5832355Y-17068173D01*
X5832355Y-17068173D02*
X5822831Y-17106269D01*
X5822831Y-17106269D02*
X5813307Y-17125316D01*
X5813307Y-17125316D02*
X5803784Y-17134840D01*
X5803784Y-17134840D02*
X5784736Y-17144364D01*
X5784736Y-17144364D02*
X5765688Y-17144364D01*
X5765688Y-17144364D02*
X5746641Y-17134840D01*
X5746641Y-17134840D02*
X5737117Y-17125316D01*
X5737117Y-17125316D02*
X5727593Y-17106269D01*
X5727593Y-17106269D02*
X5718069Y-17068173D01*
X5718069Y-17068173D02*
X5718069Y-17020554D01*
X5718069Y-17020554D02*
X5727593Y-16982459D01*
X5727593Y-16982459D02*
X5737117Y-16963411D01*
X5737117Y-16963411D02*
X5746641Y-16953888D01*
X5746641Y-16953888D02*
X5765688Y-16944364D01*
X5899022Y-16944364D02*
X6022831Y-16944364D01*
X6022831Y-16944364D02*
X5956165Y-17020554D01*
X5956165Y-17020554D02*
X5984736Y-17020554D01*
X5984736Y-17020554D02*
X6003784Y-17030078D01*
X6003784Y-17030078D02*
X6013307Y-17039602D01*
X6013307Y-17039602D02*
X6022831Y-17058650D01*
X6022831Y-17058650D02*
X6022831Y-17106269D01*
X6022831Y-17106269D02*
X6013307Y-17125316D01*
X6013307Y-17125316D02*
X6003784Y-17134840D01*
X6003784Y-17134840D02*
X5984736Y-17144364D01*
X5984736Y-17144364D02*
X5927593Y-17144364D01*
X5927593Y-17144364D02*
X5908546Y-17134840D01*
X5908546Y-17134840D02*
X5899022Y-17125316D01*
X6118069Y-17144364D02*
X6156165Y-17144364D01*
X6156165Y-17144364D02*
X6175212Y-17134840D01*
X6175212Y-17134840D02*
X6184736Y-17125316D01*
X6184736Y-17125316D02*
X6203784Y-17096745D01*
X6203784Y-17096745D02*
X6213307Y-17058650D01*
X6213307Y-17058650D02*
X6213307Y-16982459D01*
X6213307Y-16982459D02*
X6203784Y-16963411D01*
X6203784Y-16963411D02*
X6194260Y-16953888D01*
X6194260Y-16953888D02*
X6175212Y-16944364D01*
X6175212Y-16944364D02*
X6137117Y-16944364D01*
X6137117Y-16944364D02*
X6118069Y-16953888D01*
X6118069Y-16953888D02*
X6108546Y-16963411D01*
X6108546Y-16963411D02*
X6099022Y-16982459D01*
X6099022Y-16982459D02*
X6099022Y-17030078D01*
X6099022Y-17030078D02*
X6108546Y-17049126D01*
X6108546Y-17049126D02*
X6118069Y-17058650D01*
X6118069Y-17058650D02*
X6137117Y-17068173D01*
X6137117Y-17068173D02*
X6175212Y-17068173D01*
X6175212Y-17068173D02*
X6194260Y-17058650D01*
X6194260Y-17058650D02*
X6203784Y-17049126D01*
X6203784Y-17049126D02*
X6213307Y-17030078D01*
X6384736Y-17011030D02*
X6384736Y-17144364D01*
X6337117Y-16934840D02*
X6289498Y-17077697D01*
X6289498Y-17077697D02*
X6413307Y-17077697D01*
X6479974Y-16944364D02*
X6479974Y-16982459D01*
X6556165Y-16944364D02*
X6556165Y-16982459D01*
X6851403Y-17220554D02*
X6841879Y-17211030D01*
X6841879Y-17211030D02*
X6822831Y-17182459D01*
X6822831Y-17182459D02*
X6813308Y-17163411D01*
X6813308Y-17163411D02*
X6803784Y-17134840D01*
X6803784Y-17134840D02*
X6794260Y-17087221D01*
X6794260Y-17087221D02*
X6794260Y-17049126D01*
X6794260Y-17049126D02*
X6803784Y-17001507D01*
X6803784Y-17001507D02*
X6813308Y-16972935D01*
X6813308Y-16972935D02*
X6822831Y-16953888D01*
X6822831Y-16953888D02*
X6841879Y-16925316D01*
X6841879Y-16925316D02*
X6851403Y-16915792D01*
X7022831Y-16944364D02*
X6927593Y-16944364D01*
X6927593Y-16944364D02*
X6918069Y-17039602D01*
X6918069Y-17039602D02*
X6927593Y-17030078D01*
X6927593Y-17030078D02*
X6946641Y-17020554D01*
X6946641Y-17020554D02*
X6994260Y-17020554D01*
X6994260Y-17020554D02*
X7013308Y-17030078D01*
X7013308Y-17030078D02*
X7022831Y-17039602D01*
X7022831Y-17039602D02*
X7032355Y-17058650D01*
X7032355Y-17058650D02*
X7032355Y-17106269D01*
X7032355Y-17106269D02*
X7022831Y-17125316D01*
X7022831Y-17125316D02*
X7013308Y-17134840D01*
X7013308Y-17134840D02*
X6994260Y-17144364D01*
X6994260Y-17144364D02*
X6946641Y-17144364D01*
X6946641Y-17144364D02*
X6927593Y-17134840D01*
X6927593Y-17134840D02*
X6918069Y-17125316D01*
X7270450Y-17144364D02*
X7270450Y-16944364D01*
X7356165Y-17144364D02*
X7356165Y-17039602D01*
X7356165Y-17039602D02*
X7346641Y-17020554D01*
X7346641Y-17020554D02*
X7327593Y-17011030D01*
X7327593Y-17011030D02*
X7299022Y-17011030D01*
X7299022Y-17011030D02*
X7279974Y-17020554D01*
X7279974Y-17020554D02*
X7270450Y-17030078D01*
X7479974Y-17144364D02*
X7460927Y-17134840D01*
X7460927Y-17134840D02*
X7451403Y-17125316D01*
X7451403Y-17125316D02*
X7441879Y-17106269D01*
X7441879Y-17106269D02*
X7441879Y-17049126D01*
X7441879Y-17049126D02*
X7451403Y-17030078D01*
X7451403Y-17030078D02*
X7460927Y-17020554D01*
X7460927Y-17020554D02*
X7479974Y-17011030D01*
X7479974Y-17011030D02*
X7508546Y-17011030D01*
X7508546Y-17011030D02*
X7527593Y-17020554D01*
X7527593Y-17020554D02*
X7537117Y-17030078D01*
X7537117Y-17030078D02*
X7546641Y-17049126D01*
X7546641Y-17049126D02*
X7546641Y-17106269D01*
X7546641Y-17106269D02*
X7537117Y-17125316D01*
X7537117Y-17125316D02*
X7527593Y-17134840D01*
X7527593Y-17134840D02*
X7508546Y-17144364D01*
X7508546Y-17144364D02*
X7479974Y-17144364D01*
X7660927Y-17144364D02*
X7641879Y-17134840D01*
X7641879Y-17134840D02*
X7632355Y-17115792D01*
X7632355Y-17115792D02*
X7632355Y-16944364D01*
X7813308Y-17134840D02*
X7794260Y-17144364D01*
X7794260Y-17144364D02*
X7756165Y-17144364D01*
X7756165Y-17144364D02*
X7737117Y-17134840D01*
X7737117Y-17134840D02*
X7727593Y-17115792D01*
X7727593Y-17115792D02*
X7727593Y-17039602D01*
X7727593Y-17039602D02*
X7737117Y-17020554D01*
X7737117Y-17020554D02*
X7756165Y-17011030D01*
X7756165Y-17011030D02*
X7794260Y-17011030D01*
X7794260Y-17011030D02*
X7813308Y-17020554D01*
X7813308Y-17020554D02*
X7822831Y-17039602D01*
X7822831Y-17039602D02*
X7822831Y-17058650D01*
X7822831Y-17058650D02*
X7727593Y-17077697D01*
X7899022Y-17134840D02*
X7918070Y-17144364D01*
X7918070Y-17144364D02*
X7956165Y-17144364D01*
X7956165Y-17144364D02*
X7975212Y-17134840D01*
X7975212Y-17134840D02*
X7984736Y-17115792D01*
X7984736Y-17115792D02*
X7984736Y-17106269D01*
X7984736Y-17106269D02*
X7975212Y-17087221D01*
X7975212Y-17087221D02*
X7956165Y-17077697D01*
X7956165Y-17077697D02*
X7927593Y-17077697D01*
X7927593Y-17077697D02*
X7908546Y-17068173D01*
X7908546Y-17068173D02*
X7899022Y-17049126D01*
X7899022Y-17049126D02*
X7899022Y-17039602D01*
X7899022Y-17039602D02*
X7908546Y-17020554D01*
X7908546Y-17020554D02*
X7927593Y-17011030D01*
X7927593Y-17011030D02*
X7956165Y-17011030D01*
X7956165Y-17011030D02*
X7975212Y-17020554D01*
X8051403Y-17220554D02*
X8060927Y-17211030D01*
X8060927Y-17211030D02*
X8079974Y-17182459D01*
X8079974Y-17182459D02*
X8089498Y-17163411D01*
X8089498Y-17163411D02*
X8099022Y-17134840D01*
X8099022Y-17134840D02*
X8108546Y-17087221D01*
X8108546Y-17087221D02*
X8108546Y-17049126D01*
X8108546Y-17049126D02*
X8099022Y-17001507D01*
X8099022Y-17001507D02*
X8089498Y-16972935D01*
X8089498Y-16972935D02*
X8079974Y-16953888D01*
X8079974Y-16953888D02*
X8060927Y-16925316D01*
X8060927Y-16925316D02*
X8051403Y-16915792D01*
D12*
X3126340Y-17241880D02*
X3276340Y-17391880D01*
X3276340Y-17241880D02*
X3126340Y-17391880D01*
X3276340Y-17316880D02*
G75*
G02*
X3126340Y-17316880I-75000J0D01*
G01*
X3126340Y-17316880D02*
G75*
G02*
X3276340Y-17316880I75000J0D01*
G01*
D11*
X3641879Y-17408364D02*
X3527593Y-17408364D01*
X3584736Y-17408364D02*
X3584736Y-17208364D01*
X3584736Y-17208364D02*
X3565688Y-17236935D01*
X3565688Y-17236935D02*
X3546641Y-17255983D01*
X3546641Y-17255983D02*
X3527593Y-17265507D01*
X3727593Y-17389316D02*
X3737117Y-17398840D01*
X3737117Y-17398840D02*
X3727593Y-17408364D01*
X3727593Y-17408364D02*
X3718069Y-17398840D01*
X3718069Y-17398840D02*
X3727593Y-17389316D01*
X3727593Y-17389316D02*
X3727593Y-17408364D01*
X3918069Y-17208364D02*
X3822831Y-17208364D01*
X3822831Y-17208364D02*
X3813307Y-17303602D01*
X3813307Y-17303602D02*
X3822831Y-17294078D01*
X3822831Y-17294078D02*
X3841879Y-17284554D01*
X3841879Y-17284554D02*
X3889498Y-17284554D01*
X3889498Y-17284554D02*
X3908545Y-17294078D01*
X3908545Y-17294078D02*
X3918069Y-17303602D01*
X3918069Y-17303602D02*
X3927593Y-17322650D01*
X3927593Y-17322650D02*
X3927593Y-17370269D01*
X3927593Y-17370269D02*
X3918069Y-17389316D01*
X3918069Y-17389316D02*
X3908545Y-17398840D01*
X3908545Y-17398840D02*
X3889498Y-17408364D01*
X3889498Y-17408364D02*
X3841879Y-17408364D01*
X3841879Y-17408364D02*
X3822831Y-17398840D01*
X3822831Y-17398840D02*
X3813307Y-17389316D01*
X4051402Y-17208364D02*
X4070450Y-17208364D01*
X4070450Y-17208364D02*
X4089498Y-17217888D01*
X4089498Y-17217888D02*
X4099022Y-17227411D01*
X4099022Y-17227411D02*
X4108545Y-17246459D01*
X4108545Y-17246459D02*
X4118069Y-17284554D01*
X4118069Y-17284554D02*
X4118069Y-17332173D01*
X4118069Y-17332173D02*
X4108545Y-17370269D01*
X4108545Y-17370269D02*
X4099022Y-17389316D01*
X4099022Y-17389316D02*
X4089498Y-17398840D01*
X4089498Y-17398840D02*
X4070450Y-17408364D01*
X4070450Y-17408364D02*
X4051402Y-17408364D01*
X4051402Y-17408364D02*
X4032355Y-17398840D01*
X4032355Y-17398840D02*
X4022831Y-17389316D01*
X4022831Y-17389316D02*
X4013307Y-17370269D01*
X4013307Y-17370269D02*
X4003783Y-17332173D01*
X4003783Y-17332173D02*
X4003783Y-17284554D01*
X4003783Y-17284554D02*
X4013307Y-17246459D01*
X4013307Y-17246459D02*
X4022831Y-17227411D01*
X4022831Y-17227411D02*
X4032355Y-17217888D01*
X4032355Y-17217888D02*
X4051402Y-17208364D01*
X4241879Y-17208364D02*
X4260926Y-17208364D01*
X4260926Y-17208364D02*
X4279974Y-17217888D01*
X4279974Y-17217888D02*
X4289498Y-17227411D01*
X4289498Y-17227411D02*
X4299022Y-17246459D01*
X4299022Y-17246459D02*
X4308545Y-17284554D01*
X4308545Y-17284554D02*
X4308545Y-17332173D01*
X4308545Y-17332173D02*
X4299022Y-17370269D01*
X4299022Y-17370269D02*
X4289498Y-17389316D01*
X4289498Y-17389316D02*
X4279974Y-17398840D01*
X4279974Y-17398840D02*
X4260926Y-17408364D01*
X4260926Y-17408364D02*
X4241879Y-17408364D01*
X4241879Y-17408364D02*
X4222831Y-17398840D01*
X4222831Y-17398840D02*
X4213307Y-17389316D01*
X4213307Y-17389316D02*
X4203784Y-17370269D01*
X4203784Y-17370269D02*
X4194260Y-17332173D01*
X4194260Y-17332173D02*
X4194260Y-17284554D01*
X4194260Y-17284554D02*
X4203784Y-17246459D01*
X4203784Y-17246459D02*
X4213307Y-17227411D01*
X4213307Y-17227411D02*
X4222831Y-17217888D01*
X4222831Y-17217888D02*
X4241879Y-17208364D01*
X4394260Y-17408364D02*
X4394260Y-17275030D01*
X4394260Y-17294078D02*
X4403784Y-17284554D01*
X4403784Y-17284554D02*
X4422831Y-17275030D01*
X4422831Y-17275030D02*
X4451403Y-17275030D01*
X4451403Y-17275030D02*
X4470450Y-17284554D01*
X4470450Y-17284554D02*
X4479974Y-17303602D01*
X4479974Y-17303602D02*
X4479974Y-17408364D01*
X4479974Y-17303602D02*
X4489498Y-17284554D01*
X4489498Y-17284554D02*
X4508545Y-17275030D01*
X4508545Y-17275030D02*
X4537117Y-17275030D01*
X4537117Y-17275030D02*
X4556165Y-17284554D01*
X4556165Y-17284554D02*
X4565688Y-17303602D01*
X4565688Y-17303602D02*
X4565688Y-17408364D01*
X4660926Y-17408364D02*
X4660926Y-17275030D01*
X4660926Y-17294078D02*
X4670450Y-17284554D01*
X4670450Y-17284554D02*
X4689498Y-17275030D01*
X4689498Y-17275030D02*
X4718069Y-17275030D01*
X4718069Y-17275030D02*
X4737117Y-17284554D01*
X4737117Y-17284554D02*
X4746641Y-17303602D01*
X4746641Y-17303602D02*
X4746641Y-17408364D01*
X4746641Y-17303602D02*
X4756165Y-17284554D01*
X4756165Y-17284554D02*
X4775212Y-17275030D01*
X4775212Y-17275030D02*
X4803784Y-17275030D01*
X4803784Y-17275030D02*
X4822831Y-17284554D01*
X4822831Y-17284554D02*
X4832355Y-17303602D01*
X4832355Y-17303602D02*
X4832355Y-17408364D01*
X5222831Y-17198840D02*
X5051403Y-17455983D01*
X5479974Y-17208364D02*
X5499022Y-17208364D01*
X5499022Y-17208364D02*
X5518069Y-17217888D01*
X5518069Y-17217888D02*
X5527593Y-17227411D01*
X5527593Y-17227411D02*
X5537117Y-17246459D01*
X5537117Y-17246459D02*
X5546641Y-17284554D01*
X5546641Y-17284554D02*
X5546641Y-17332173D01*
X5546641Y-17332173D02*
X5537117Y-17370269D01*
X5537117Y-17370269D02*
X5527593Y-17389316D01*
X5527593Y-17389316D02*
X5518069Y-17398840D01*
X5518069Y-17398840D02*
X5499022Y-17408364D01*
X5499022Y-17408364D02*
X5479974Y-17408364D01*
X5479974Y-17408364D02*
X5460927Y-17398840D01*
X5460927Y-17398840D02*
X5451403Y-17389316D01*
X5451403Y-17389316D02*
X5441879Y-17370269D01*
X5441879Y-17370269D02*
X5432355Y-17332173D01*
X5432355Y-17332173D02*
X5432355Y-17284554D01*
X5432355Y-17284554D02*
X5441879Y-17246459D01*
X5441879Y-17246459D02*
X5451403Y-17227411D01*
X5451403Y-17227411D02*
X5460927Y-17217888D01*
X5460927Y-17217888D02*
X5479974Y-17208364D01*
X5632355Y-17389316D02*
X5641879Y-17398840D01*
X5641879Y-17398840D02*
X5632355Y-17408364D01*
X5632355Y-17408364D02*
X5622831Y-17398840D01*
X5622831Y-17398840D02*
X5632355Y-17389316D01*
X5632355Y-17389316D02*
X5632355Y-17408364D01*
X5765688Y-17208364D02*
X5784736Y-17208364D01*
X5784736Y-17208364D02*
X5803784Y-17217888D01*
X5803784Y-17217888D02*
X5813307Y-17227411D01*
X5813307Y-17227411D02*
X5822831Y-17246459D01*
X5822831Y-17246459D02*
X5832355Y-17284554D01*
X5832355Y-17284554D02*
X5832355Y-17332173D01*
X5832355Y-17332173D02*
X5822831Y-17370269D01*
X5822831Y-17370269D02*
X5813307Y-17389316D01*
X5813307Y-17389316D02*
X5803784Y-17398840D01*
X5803784Y-17398840D02*
X5784736Y-17408364D01*
X5784736Y-17408364D02*
X5765688Y-17408364D01*
X5765688Y-17408364D02*
X5746641Y-17398840D01*
X5746641Y-17398840D02*
X5737117Y-17389316D01*
X5737117Y-17389316D02*
X5727593Y-17370269D01*
X5727593Y-17370269D02*
X5718069Y-17332173D01*
X5718069Y-17332173D02*
X5718069Y-17284554D01*
X5718069Y-17284554D02*
X5727593Y-17246459D01*
X5727593Y-17246459D02*
X5737117Y-17227411D01*
X5737117Y-17227411D02*
X5746641Y-17217888D01*
X5746641Y-17217888D02*
X5765688Y-17208364D01*
X6013307Y-17208364D02*
X5918069Y-17208364D01*
X5918069Y-17208364D02*
X5908546Y-17303602D01*
X5908546Y-17303602D02*
X5918069Y-17294078D01*
X5918069Y-17294078D02*
X5937117Y-17284554D01*
X5937117Y-17284554D02*
X5984736Y-17284554D01*
X5984736Y-17284554D02*
X6003784Y-17294078D01*
X6003784Y-17294078D02*
X6013307Y-17303602D01*
X6013307Y-17303602D02*
X6022831Y-17322650D01*
X6022831Y-17322650D02*
X6022831Y-17370269D01*
X6022831Y-17370269D02*
X6013307Y-17389316D01*
X6013307Y-17389316D02*
X6003784Y-17398840D01*
X6003784Y-17398840D02*
X5984736Y-17408364D01*
X5984736Y-17408364D02*
X5937117Y-17408364D01*
X5937117Y-17408364D02*
X5918069Y-17398840D01*
X5918069Y-17398840D02*
X5908546Y-17389316D01*
X6118069Y-17408364D02*
X6156165Y-17408364D01*
X6156165Y-17408364D02*
X6175212Y-17398840D01*
X6175212Y-17398840D02*
X6184736Y-17389316D01*
X6184736Y-17389316D02*
X6203784Y-17360745D01*
X6203784Y-17360745D02*
X6213307Y-17322650D01*
X6213307Y-17322650D02*
X6213307Y-17246459D01*
X6213307Y-17246459D02*
X6203784Y-17227411D01*
X6203784Y-17227411D02*
X6194260Y-17217888D01*
X6194260Y-17217888D02*
X6175212Y-17208364D01*
X6175212Y-17208364D02*
X6137117Y-17208364D01*
X6137117Y-17208364D02*
X6118069Y-17217888D01*
X6118069Y-17217888D02*
X6108546Y-17227411D01*
X6108546Y-17227411D02*
X6099022Y-17246459D01*
X6099022Y-17246459D02*
X6099022Y-17294078D01*
X6099022Y-17294078D02*
X6108546Y-17313126D01*
X6108546Y-17313126D02*
X6118069Y-17322650D01*
X6118069Y-17322650D02*
X6137117Y-17332173D01*
X6137117Y-17332173D02*
X6175212Y-17332173D01*
X6175212Y-17332173D02*
X6194260Y-17322650D01*
X6194260Y-17322650D02*
X6203784Y-17313126D01*
X6203784Y-17313126D02*
X6213307Y-17294078D01*
X6403784Y-17408364D02*
X6289498Y-17408364D01*
X6346641Y-17408364D02*
X6346641Y-17208364D01*
X6346641Y-17208364D02*
X6327593Y-17236935D01*
X6327593Y-17236935D02*
X6308546Y-17255983D01*
X6308546Y-17255983D02*
X6289498Y-17265507D01*
X6479974Y-17208364D02*
X6479974Y-17246459D01*
X6556165Y-17208364D02*
X6556165Y-17246459D01*
X6851403Y-17484554D02*
X6841879Y-17475030D01*
X6841879Y-17475030D02*
X6822831Y-17446459D01*
X6822831Y-17446459D02*
X6813308Y-17427411D01*
X6813308Y-17427411D02*
X6803784Y-17398840D01*
X6803784Y-17398840D02*
X6794260Y-17351221D01*
X6794260Y-17351221D02*
X6794260Y-17313126D01*
X6794260Y-17313126D02*
X6803784Y-17265507D01*
X6803784Y-17265507D02*
X6813308Y-17236935D01*
X6813308Y-17236935D02*
X6822831Y-17217888D01*
X6822831Y-17217888D02*
X6841879Y-17189316D01*
X6841879Y-17189316D02*
X6851403Y-17179792D01*
X6965688Y-17208364D02*
X6984736Y-17208364D01*
X6984736Y-17208364D02*
X7003784Y-17217888D01*
X7003784Y-17217888D02*
X7013308Y-17227411D01*
X7013308Y-17227411D02*
X7022831Y-17246459D01*
X7022831Y-17246459D02*
X7032355Y-17284554D01*
X7032355Y-17284554D02*
X7032355Y-17332173D01*
X7032355Y-17332173D02*
X7022831Y-17370269D01*
X7022831Y-17370269D02*
X7013308Y-17389316D01*
X7013308Y-17389316D02*
X7003784Y-17398840D01*
X7003784Y-17398840D02*
X6984736Y-17408364D01*
X6984736Y-17408364D02*
X6965688Y-17408364D01*
X6965688Y-17408364D02*
X6946641Y-17398840D01*
X6946641Y-17398840D02*
X6937117Y-17389316D01*
X6937117Y-17389316D02*
X6927593Y-17370269D01*
X6927593Y-17370269D02*
X6918069Y-17332173D01*
X6918069Y-17332173D02*
X6918069Y-17284554D01*
X6918069Y-17284554D02*
X6927593Y-17246459D01*
X6927593Y-17246459D02*
X6937117Y-17227411D01*
X6937117Y-17227411D02*
X6946641Y-17217888D01*
X6946641Y-17217888D02*
X6965688Y-17208364D01*
X7270450Y-17408364D02*
X7270450Y-17208364D01*
X7356165Y-17408364D02*
X7356165Y-17303602D01*
X7356165Y-17303602D02*
X7346641Y-17284554D01*
X7346641Y-17284554D02*
X7327593Y-17275030D01*
X7327593Y-17275030D02*
X7299022Y-17275030D01*
X7299022Y-17275030D02*
X7279974Y-17284554D01*
X7279974Y-17284554D02*
X7270450Y-17294078D01*
X7479974Y-17408364D02*
X7460927Y-17398840D01*
X7460927Y-17398840D02*
X7451403Y-17389316D01*
X7451403Y-17389316D02*
X7441879Y-17370269D01*
X7441879Y-17370269D02*
X7441879Y-17313126D01*
X7441879Y-17313126D02*
X7451403Y-17294078D01*
X7451403Y-17294078D02*
X7460927Y-17284554D01*
X7460927Y-17284554D02*
X7479974Y-17275030D01*
X7479974Y-17275030D02*
X7508546Y-17275030D01*
X7508546Y-17275030D02*
X7527593Y-17284554D01*
X7527593Y-17284554D02*
X7537117Y-17294078D01*
X7537117Y-17294078D02*
X7546641Y-17313126D01*
X7546641Y-17313126D02*
X7546641Y-17370269D01*
X7546641Y-17370269D02*
X7537117Y-17389316D01*
X7537117Y-17389316D02*
X7527593Y-17398840D01*
X7527593Y-17398840D02*
X7508546Y-17408364D01*
X7508546Y-17408364D02*
X7479974Y-17408364D01*
X7660927Y-17408364D02*
X7641879Y-17398840D01*
X7641879Y-17398840D02*
X7632355Y-17379792D01*
X7632355Y-17379792D02*
X7632355Y-17208364D01*
X7813308Y-17398840D02*
X7794260Y-17408364D01*
X7794260Y-17408364D02*
X7756165Y-17408364D01*
X7756165Y-17408364D02*
X7737117Y-17398840D01*
X7737117Y-17398840D02*
X7727593Y-17379792D01*
X7727593Y-17379792D02*
X7727593Y-17303602D01*
X7727593Y-17303602D02*
X7737117Y-17284554D01*
X7737117Y-17284554D02*
X7756165Y-17275030D01*
X7756165Y-17275030D02*
X7794260Y-17275030D01*
X7794260Y-17275030D02*
X7813308Y-17284554D01*
X7813308Y-17284554D02*
X7822831Y-17303602D01*
X7822831Y-17303602D02*
X7822831Y-17322650D01*
X7822831Y-17322650D02*
X7727593Y-17341697D01*
X7899022Y-17398840D02*
X7918070Y-17408364D01*
X7918070Y-17408364D02*
X7956165Y-17408364D01*
X7956165Y-17408364D02*
X7975212Y-17398840D01*
X7975212Y-17398840D02*
X7984736Y-17379792D01*
X7984736Y-17379792D02*
X7984736Y-17370269D01*
X7984736Y-17370269D02*
X7975212Y-17351221D01*
X7975212Y-17351221D02*
X7956165Y-17341697D01*
X7956165Y-17341697D02*
X7927593Y-17341697D01*
X7927593Y-17341697D02*
X7908546Y-17332173D01*
X7908546Y-17332173D02*
X7899022Y-17313126D01*
X7899022Y-17313126D02*
X7899022Y-17303602D01*
X7899022Y-17303602D02*
X7908546Y-17284554D01*
X7908546Y-17284554D02*
X7927593Y-17275030D01*
X7927593Y-17275030D02*
X7956165Y-17275030D01*
X7956165Y-17275030D02*
X7975212Y-17284554D01*
X8222832Y-17332173D02*
X8375213Y-17332173D01*
X8299022Y-17408364D02*
X8299022Y-17255983D01*
X8613308Y-17227411D02*
X8622832Y-17217888D01*
X8622832Y-17217888D02*
X8641879Y-17208364D01*
X8641879Y-17208364D02*
X8689498Y-17208364D01*
X8689498Y-17208364D02*
X8708546Y-17217888D01*
X8708546Y-17217888D02*
X8718070Y-17227411D01*
X8718070Y-17227411D02*
X8727594Y-17246459D01*
X8727594Y-17246459D02*
X8727594Y-17265507D01*
X8727594Y-17265507D02*
X8718070Y-17294078D01*
X8718070Y-17294078D02*
X8603784Y-17408364D01*
X8603784Y-17408364D02*
X8727594Y-17408364D01*
X8956165Y-17398840D02*
X8975213Y-17408364D01*
X8975213Y-17408364D02*
X9013308Y-17408364D01*
X9013308Y-17408364D02*
X9032356Y-17398840D01*
X9032356Y-17398840D02*
X9041879Y-17379792D01*
X9041879Y-17379792D02*
X9041879Y-17370269D01*
X9041879Y-17370269D02*
X9032356Y-17351221D01*
X9032356Y-17351221D02*
X9013308Y-17341697D01*
X9013308Y-17341697D02*
X8984736Y-17341697D01*
X8984736Y-17341697D02*
X8965689Y-17332173D01*
X8965689Y-17332173D02*
X8956165Y-17313126D01*
X8956165Y-17313126D02*
X8956165Y-17303602D01*
X8956165Y-17303602D02*
X8965689Y-17284554D01*
X8965689Y-17284554D02*
X8984736Y-17275030D01*
X8984736Y-17275030D02*
X9013308Y-17275030D01*
X9013308Y-17275030D02*
X9032356Y-17284554D01*
X9156165Y-17408364D02*
X9137117Y-17398840D01*
X9137117Y-17398840D02*
X9127594Y-17379792D01*
X9127594Y-17379792D02*
X9127594Y-17208364D01*
X9260927Y-17408364D02*
X9241879Y-17398840D01*
X9241879Y-17398840D02*
X9232356Y-17389316D01*
X9232356Y-17389316D02*
X9222832Y-17370269D01*
X9222832Y-17370269D02*
X9222832Y-17313126D01*
X9222832Y-17313126D02*
X9232356Y-17294078D01*
X9232356Y-17294078D02*
X9241879Y-17284554D01*
X9241879Y-17284554D02*
X9260927Y-17275030D01*
X9260927Y-17275030D02*
X9289498Y-17275030D01*
X9289498Y-17275030D02*
X9308546Y-17284554D01*
X9308546Y-17284554D02*
X9318070Y-17294078D01*
X9318070Y-17294078D02*
X9327594Y-17313126D01*
X9327594Y-17313126D02*
X9327594Y-17370269D01*
X9327594Y-17370269D02*
X9318070Y-17389316D01*
X9318070Y-17389316D02*
X9308546Y-17398840D01*
X9308546Y-17398840D02*
X9289498Y-17408364D01*
X9289498Y-17408364D02*
X9260927Y-17408364D01*
X9384737Y-17275030D02*
X9460927Y-17275030D01*
X9413308Y-17208364D02*
X9413308Y-17379792D01*
X9413308Y-17379792D02*
X9422832Y-17398840D01*
X9422832Y-17398840D02*
X9441879Y-17408364D01*
X9441879Y-17408364D02*
X9460927Y-17408364D01*
X9518070Y-17398840D02*
X9537117Y-17408364D01*
X9537117Y-17408364D02*
X9575213Y-17408364D01*
X9575213Y-17408364D02*
X9594260Y-17398840D01*
X9594260Y-17398840D02*
X9603784Y-17379792D01*
X9603784Y-17379792D02*
X9603784Y-17370269D01*
X9603784Y-17370269D02*
X9594260Y-17351221D01*
X9594260Y-17351221D02*
X9575213Y-17341697D01*
X9575213Y-17341697D02*
X9546641Y-17341697D01*
X9546641Y-17341697D02*
X9527594Y-17332173D01*
X9527594Y-17332173D02*
X9518070Y-17313126D01*
X9518070Y-17313126D02*
X9518070Y-17303602D01*
X9518070Y-17303602D02*
X9527594Y-17284554D01*
X9527594Y-17284554D02*
X9546641Y-17275030D01*
X9546641Y-17275030D02*
X9575213Y-17275030D01*
X9575213Y-17275030D02*
X9594260Y-17284554D01*
X9670451Y-17484554D02*
X9679975Y-17475030D01*
X9679975Y-17475030D02*
X9699022Y-17446459D01*
X9699022Y-17446459D02*
X9708546Y-17427411D01*
X9708546Y-17427411D02*
X9718070Y-17398840D01*
X9718070Y-17398840D02*
X9727594Y-17351221D01*
X9727594Y-17351221D02*
X9727594Y-17313126D01*
X9727594Y-17313126D02*
X9718070Y-17265507D01*
X9718070Y-17265507D02*
X9708546Y-17236935D01*
X9708546Y-17236935D02*
X9699022Y-17217888D01*
X9699022Y-17217888D02*
X9679975Y-17189316D01*
X9679975Y-17189316D02*
X9670451Y-17179792D01*
M02*
