G04 #@! TF.GenerationSoftware,KiCad,Pcbnew,8.0.4*
G04 #@! TF.CreationDate,2024-08-27T16:31:29+02:00*
G04 #@! TF.ProjectId,totem_0_3,746f7465-6d5f-4305-9f33-2e6b69636164,0.3*
G04 #@! TF.SameCoordinates,Original*
G04 #@! TF.FileFunction,Paste,Top*
G04 #@! TF.FilePolarity,Positive*
%FSLAX46Y46*%
G04 Gerber Fmt 4.6, Leading zero omitted, Abs format (unit mm)*
G04 Created by KiCad (PCBNEW 8.0.4) date 2024-08-27 16:31:29*
%MOMM*%
%LPD*%
G01*
G04 APERTURE LIST*
G04 Aperture macros list*
%AMRotRect*
0 Rectangle, with rotation*
0 The origin of the aperture is its center*
0 $1 length*
0 $2 width*
0 $3 Rotation angle, in degrees counterclockwise*
0 Add horizontal line*
21,1,$1,$2,0,0,$3*%
G04 Aperture macros list end*
%ADD10RotRect,2.000000X2.000000X178.000000*%
%ADD11RotRect,1.800000X2.000000X178.000000*%
%ADD12RotRect,2.000000X2.000000X185.000000*%
%ADD13RotRect,1.800000X2.000000X185.000000*%
%ADD14R,0.600000X1.000000*%
%ADD15R,1.000000X0.600000*%
%ADD16R,1.100000X0.600000*%
%ADD17RotRect,2.000000X2.000000X183.000000*%
%ADD18RotRect,1.800000X2.000000X183.000000*%
%ADD19R,2.000000X2.000000*%
%ADD20R,1.800000X2.000000*%
%ADD21RotRect,2.000000X2.000000X179.000000*%
%ADD22RotRect,1.800000X2.000000X179.000000*%
%ADD23C,1.524000*%
%ADD24R,1.524000X1.524000*%
%ADD25RotRect,2.000000X2.000000X134.000000*%
%ADD26RotRect,1.800000X2.000000X134.000000*%
%ADD27RotRect,2.000000X2.000000X159.000000*%
%ADD28RotRect,1.800000X2.000000X159.000000*%
%ADD29R,0.900000X1.700000*%
G04 APERTURE END LIST*
D10*
X139232019Y-96105668D03*
X152617256Y-105358442D03*
D11*
X141647117Y-107176698D03*
D10*
X151635759Y-99080365D03*
D12*
X56885314Y-62965495D03*
X71298408Y-70518051D03*
D13*
X60631629Y-73659677D03*
D12*
X69559123Y-64406383D03*
D14*
X163988400Y-55492400D03*
X165488400Y-55492400D03*
X168388400Y-55492400D03*
D15*
X162588400Y-54785400D03*
D16*
X169788400Y-54785400D03*
X162588400Y-52499400D03*
D15*
X169788400Y-52499400D03*
D17*
X77500616Y-52409391D03*
X91641350Y-60460356D03*
D18*
X80871427Y-63227803D03*
D17*
X90116418Y-54291711D03*
D19*
X100621522Y-68961942D03*
X114321522Y-77741942D03*
D20*
X103421522Y-79941942D03*
D19*
X113121522Y-71501942D03*
D10*
X140558201Y-58128814D03*
X153943438Y-67381588D03*
D11*
X142973299Y-69199844D03*
D10*
X152961941Y-61103511D03*
D12*
X39613575Y-83549151D03*
X54026669Y-91101707D03*
D13*
X43359890Y-94243333D03*
D12*
X52287384Y-84990039D03*
D19*
X100621521Y-49961941D03*
X114321521Y-58741941D03*
D20*
X103421521Y-60941941D03*
D19*
X113121521Y-52501941D03*
D21*
X120594221Y-52870765D03*
X134138902Y-61888526D03*
D22*
X123202167Y-63897960D03*
D21*
X133047988Y-55628533D03*
D23*
X173785803Y-55647359D03*
X158545803Y-55647359D03*
D24*
X158545803Y-55647359D03*
D23*
X173785803Y-58187359D03*
X158545803Y-58187359D03*
X173785803Y-60727359D03*
X158545803Y-60727359D03*
X173785803Y-63267359D03*
X158545803Y-63267359D03*
X173785803Y-65807359D03*
X158545803Y-65807359D03*
X173785803Y-68347359D03*
X158545803Y-68347359D03*
X173785803Y-70887359D03*
X158545803Y-70887359D03*
X173785803Y-73427359D03*
X158545803Y-73427359D03*
X173785803Y-75967359D03*
X158545803Y-75967359D03*
X173785803Y-78507359D03*
X158545803Y-78507359D03*
X173785803Y-81047359D03*
X158545803Y-81047359D03*
X173785803Y-83587359D03*
X158545803Y-83587359D03*
D21*
X128975821Y-117026818D03*
X142520502Y-126044579D03*
D22*
X131583767Y-128054013D03*
D21*
X141429588Y-119784586D03*
D17*
X78495001Y-71383348D03*
X92635735Y-79434313D03*
D18*
X81865812Y-82201760D03*
D17*
X91110803Y-73265668D03*
D25*
X174754234Y-131354428D03*
X177955251Y-147308483D03*
D26*
X168800927Y-140995928D03*
D25*
X181610341Y-142110607D03*
D10*
X139895110Y-77117243D03*
X153280347Y-86370017D03*
D11*
X142310208Y-88188273D03*
D10*
X152298850Y-80091940D03*
D12*
X41273892Y-102526660D03*
X55686986Y-110079216D03*
D13*
X45020207Y-113220842D03*
D12*
X53947701Y-103967548D03*
X60197231Y-100820894D03*
X74610325Y-108373450D03*
D13*
X63943546Y-111515076D03*
D12*
X72871040Y-102261782D03*
D19*
X100621519Y-87961939D03*
X114321519Y-96741939D03*
D20*
X103421519Y-98941939D03*
D19*
X113121519Y-90501939D03*
D17*
X79489383Y-90357314D03*
X93630117Y-98408279D03*
D18*
X82860194Y-101175726D03*
D17*
X92105185Y-92239634D03*
D27*
X152685033Y-119654164D03*
X162328613Y-132760641D03*
D28*
X151364178Y-130908307D03*
D27*
X163444534Y-126505058D03*
D12*
X37953258Y-64571642D03*
X52366352Y-72124198D03*
D13*
X41699573Y-75265824D03*
D12*
X50627067Y-66012530D03*
D21*
X119931033Y-90864982D03*
X133475714Y-99882743D03*
D22*
X122538979Y-101892177D03*
D21*
X132384800Y-93622750D03*
X120262627Y-71867874D03*
X133807308Y-80885635D03*
D22*
X122870573Y-82895069D03*
D21*
X132716394Y-74625642D03*
D12*
X58541271Y-81893195D03*
X72954365Y-89445751D03*
D13*
X62287586Y-92587377D03*
D12*
X71215080Y-83334083D03*
D29*
X171194400Y-53188800D03*
X174594400Y-53188800D03*
M02*
