  0
SECTION
  2
HEADER
  9
$ACADVER
  1
AC1014
  9
$HANDSEED
  5
FFFF
  9
$INSUNITS
 70
     4
  9
$MEASUREMENT
 70
     1
  0
ENDSEC
  0
SECTION
  2
TABLES
  0
TABLE
  2
VPORT
  5
8
330
0
100
AcDbSymbolTable
 70
     4
  0
VPORT
  5
2E
330
8
100
AcDbSymbolTableRecord
100
AcDbViewportTableRecord
  2
*ACTIVE
 70
     0
 10
0.0
 20
0.0
 11
1.0
 21
1.0
 12
210.0
 22
148.5
 13
0.0
 23
0.0
 14
10.0
 24
10.0
 15
10.0
 25
10.0
 16
0.0
 26
0.0
 36
1.0
 17
0.0
 27
0.0
 37
0.0
 40
341.0
 41
1.24
 42
50.0
 43
0.0
 44
0.0
 50
0.0
 51
0.0
 71
     0
 72
   100
 73
     1
 74
     3
 75
     0
 76
     0
 77
     0
 78
     0
  0
ENDTAB
  0
TABLE
  2
LTYPE
  5
5
330
0
100
AcDbSymbolTable
 70
     1
  0
LTYPE
  5
14
330
5
100
AcDbSymbolTableRecord
100
AcDbLinetypeTableRecord
  2
BYBLOCK
 70
     0
  3

 72
    65
 73
     0
 40
0.0
  0
LTYPE
  5
15
330
5
100
AcDbSymbolTableRecord
100
AcDbLinetypeTableRecord
  2
BYLAYER
 70
     0
  3

 72
    65
 73
     0
 40
0.0
  0
LTYPE
  5
16
330
5
100
AcDbSymbolTableRecord
100
AcDbLinetypeTableRecord
  2
CONTINUOUS
 70
     0
  3
Solid line
 72
    65
 73
     0
 40
0.0
  0
ENDTAB
  0
TABLE
  2
LAYER
  5
2
100
AcDbSymbolTable
 70
1
  0
LAYER
  5
50
100
AcDbSymbolTableRecord
100
AcDbLayerTableRecord
  2
0
 70
0
  6
CONTINUOUS
  0
ENDTAB
  0
TABLE
  2
STYLE
  5
3
330
0
100
AcDbSymbolTable
 70
     1
  0
STYLE
  5
11
330
3
100
AcDbSymbolTableRecord
100
AcDbTextStyleTableRecord
  2
STANDARD
 70
     0
 40
0.0
 41
1.0
 50
0.0
 71
     0
 42
2.5
  3
txt
  4

  0
ENDTAB
  0
TABLE
  2
VIEW
  5
6
330
0
100
AcDbSymbolTable
 70
     0
  0
ENDTAB
  0
TABLE
  2
UCS
  5
7
330
0
100
AcDbSymbolTable
 70
     0
  0
ENDTAB
  0
TABLE
  2
APPID
  5
9
330
0
100
AcDbSymbolTable
 70
     2
  0
APPID
  5
12
330
9
100
AcDbSymbolTableRecord
100
AcDbRegAppTableRecord
  2
ACAD
 70
     0
  0
ENDTAB
  0
TABLE
  2
DIMSTYLE
  5
A
330
0
100
AcDbSymbolTable
 70
     1
  0
DIMSTYLE
105
27
330
A
100
AcDbSymbolTableRecord
100
AcDbDimStyleTableRecord
  2
ISO-25
 70
     0
  3

  4

  5

  6

  7

 40
1.0
 41
2.5
 42
0.625
 43
3.75
 44
1.25
 45
0.0
 46
0.0
 47
0.0
 48
0.0
140
2.5
141
2.5
142
0.0
143
0.03937007874016
144
1.0
145
0.0
146
1.0
147
0.625
 71
     0
 72
     0
 73
     0
 74
     0
 75
     0
 76
     0
 77
     1
 78
     8
170
     0
171
     3
172
     1
173
     0
174
     0
175
     0
176
     0
177
     0
178
     0
270
     2
271
     2
272
     2
273
     2
274
     3
340
11
275
     0
280
     0
281
     0
282
     0
283
     0
284
     8
285
     0
286
     0
287
     3
288
     0
  0
ENDTAB
  0
TABLE
  2
BLOCK_RECORD
  5
1
330
0
100
AcDbSymbolTable
 70
     1
  0
BLOCK_RECORD
  5
1F
330
1
100
AcDbSymbolTableRecord
100
AcDbBlockTableRecord
  2
*MODEL_SPACE
  0
BLOCK_RECORD
  5
1B
330
1
100
AcDbSymbolTableRecord
100
AcDbBlockTableRecord
  2
*PAPER_SPACE
  0
ENDTAB
  0
ENDSEC
  0
SECTION
  2
BLOCKS
  0
BLOCK
  5
20
330
1F
100
AcDbEntity
  8
0
100
AcDbBlockBegin
  2
*MODEL_SPACE
 70
     0
 10
0.0
 20
0.0
 30
0.0
  3
*MODEL_SPACE
  1

  0
ENDBLK
  5
21
330
1F
100
AcDbEntity
  8
0
100
AcDbBlockEnd
  0
BLOCK
  5
1C
330
1B
100
AcDbEntity
 67
     1
  8
0
100
AcDbBlockBegin
  2
*PAPER_SPACE
  1

  0
ENDBLK
  5
1D
330
1B
100
AcDbEntity
 67
     1
  8
0
100
AcDbBlockEnd
  0
ENDSEC
  0
SECTION
  2
ENTITIES
  0
LWPOLYLINE
  5
100
100
AcDbEntity
  8
0
 62
7
100
AcDbPolyline
 90
4
 70
1
 10
230.202600
 20
194.146100
 30
0.0
 10
238.864000
 20
194.146100
 30
0.0
 10
238.864000
 20
187.186500
 30
0.0
 10
230.202600
 20
187.186500
 30
0.0
  0
LWPOLYLINE
  5
101
100
AcDbEntity
  8
0
 62
7
100
AcDbPolyline
 90
2
 70
0
 10
227.662400
 20
233.338700
 30
0.0
 10
232.005800
 20
233.338700
 30
0.0
  0
LWPOLYLINE
  5
102
100
AcDbEntity
  8
0
 62
7
100
AcDbPolyline
 90
2
 70
0
 10
220.702800
 20
197.829500
 30
0.0
 10
238.482800
 20
197.829500
 30
0.0
  0
LWPOLYLINE
  5
103
100
AcDbEntity
  8
0
 62
7
100
AcDbPolyline
 90
2
 70
0
 10
220.702800
 20
230.849500
 30
0.0
 10
220.702800
 20
197.829500
 30
0.0
  0
LWPOLYLINE
  5
104
100
AcDbEntity
  8
0
 62
7
100
AcDbPolyline
 90
2
 70
0
 10
238.508200
 20
230.849500
 30
0.0
 10
220.702800
 20
230.849500
 30
0.0
  0
LWPOLYLINE
  5
105
100
AcDbEntity
  8
0
 62
7
100
AcDbPolyline
 90
4
 70
1
 10
222.557200
 20
193.333300
 30
0.0
 10
225.910000
 20
193.333300
 30
0.0
 10
225.910000
 20
188.507300
 30
0.0
 10
222.557200
 20
188.507300
 30
0.0
  0
LWPOLYLINE
  5
106
100
AcDbEntity
  8
0
 62
7
100
AcDbPolyline
 90
2
 70
0
 10
232.005800
 20
233.338700
 30
0.0
 10
232.005800
 20
230.849500
 30
0.0
  0
LWPOLYLINE
  5
107
100
AcDbEntity
  8
0
 62
7
100
AcDbPolyline
 90
2
 70
0
 10
238.482800
 20
197.829500
 30
0.0
 10
238.508200
 20
230.849500
 30
0.0
  0
LWPOLYLINE
  5
108
100
AcDbEntity
  8
0
 62
7
100
AcDbPolyline
 90
2
 70
0
 10
227.662400
 20
230.849500
 30
0.0
 10
227.662400
 20
233.338700
 30
0.0
  0
LWPOLYLINE
  5
109
100
AcDbEntity
  8
0
 62
7
100
AcDbPolyline
 90
4
 70
1
 10
199.794800
 20
157.945800
 30
0.0
 10
185.794800
 20
157.945800
 30
0.0
 10
185.794800
 20
171.945800
 30
0.0
 10
199.794800
 20
171.945800
 30
0.0
  0
LWPOLYLINE
  5
10a
100
AcDbEntity
  8
0
 62
7
100
AcDbPolyline
 90
4
 70
0
 10
195.334800
 20
161.935800
 30
0.0
 10
190.134800
 20
161.935800
 30
0.0
 10
190.134800
 20
158.735800
 30
0.0
 10
195.334800
 20
158.735800
 30
0.0
  0
LWPOLYLINE
  5
10b
100
AcDbEntity
  8
0
 62
7
100
AcDbPolyline
 90
2
 70
0
 10
195.334800
 20
161.935800
 30
0.0
 10
195.334800
 20
158.735800
 30
0.0
  0
LWPOLYLINE
  5
10c
100
AcDbEntity
  8
0
 62
7
100
AcDbPolyline
 90
2
 70
0
 10
199.634800
 20
171.935800
 30
0.0
 10
185.834800
 20
171.935800
 30
0.0
  0
LWPOLYLINE
  5
10d
100
AcDbEntity
  8
0
 62
7
100
AcDbPolyline
 90
2
 70
0
 10
185.834800
 20
158.135800
 30
0.0
 10
199.634800
 20
158.135800
 30
0.0
  0
LWPOLYLINE
  5
10e
100
AcDbEntity
  8
0
 62
7
100
AcDbPolyline
 90
2
 70
0
 10
185.834800
 20
158.135800
 30
0.0
 10
185.834800
 20
171.935800
 30
0.0
  0
LWPOLYLINE
  5
10f
100
AcDbEntity
  8
0
 62
7
100
AcDbPolyline
 90
2
 70
0
 10
199.634800
 20
171.935800
 30
0.0
 10
199.634800
 20
158.135800
 30
0.0
  0
LWPOLYLINE
  5
110
100
AcDbEntity
  8
0
 62
7
100
AcDbPolyline
 90
2
 70
0
 10
195.764300
 20
196.610700
 30
0.0
 10
180.764300
 20
196.610700
 30
0.0
  0
LWPOLYLINE
  5
111
100
AcDbEntity
  8
0
 62
7
100
AcDbPolyline
 90
2
 70
0
 10
195.764300
 20
181.610700
 30
0.0
 10
195.764300
 20
196.610700
 30
0.0
  0
LWPOLYLINE
  5
112
100
AcDbEntity
  8
0
 62
7
100
AcDbPolyline
 90
3
 70
0
 10
180.764300
 20
196.610700
 30
0.0
 10
180.764300
 20
181.610700
 30
0.0
 10
195.764300
 20
181.610700
 30
0.0
  0
LWPOLYLINE
  5
113
100
AcDbEntity
  8
0
 62
7
100
AcDbPolyline
 90
2
 70
0
 10
195.764300
 20
213.610700
 30
0.0
 10
180.764300
 20
213.610700
 30
0.0
  0
LWPOLYLINE
  5
114
100
AcDbEntity
  8
0
 62
7
100
AcDbPolyline
 90
2
 70
0
 10
195.764300
 20
198.610700
 30
0.0
 10
195.764300
 20
213.610700
 30
0.0
  0
LWPOLYLINE
  5
115
100
AcDbEntity
  8
0
 62
7
100
AcDbPolyline
 90
3
 70
0
 10
180.764300
 20
213.610700
 30
0.0
 10
180.764300
 20
198.610700
 30
0.0
 10
195.764300
 20
198.610700
 30
0.0
  0
LWPOLYLINE
  5
116
100
AcDbEntity
  8
0
 62
7
100
AcDbPolyline
 90
2
 70
0
 10
239.734000
 20
155.609800
 30
0.0
 10
226.252100
 20
162.185400
 30
0.0
  0
LWPOLYLINE
  5
117
100
AcDbEntity
  8
0
 62
7
100
AcDbPolyline
 90
2
 70
0
 10
233.158400
 20
142.127900
 30
0.0
 10
239.734000
 20
155.609800
 30
0.0
  0
LWPOLYLINE
  5
118
100
AcDbEntity
  8
0
 62
7
100
AcDbPolyline
 90
3
 70
0
 10
226.252100
 20
162.185400
 30
0.0
 10
219.676500
 20
148.703500
 30
0.0
 10
233.158400
 20
142.127900
 30
0.0
  0
LWPOLYLINE
  5
119
100
AcDbEntity
  8
0
 62
7
100
AcDbPolyline
 90
3
 70
0
 10
157.536400
 20
199.955300
 30
0.0
 10
156.751300
 20
214.934700
 30
0.0
 10
141.771900
 20
214.149700
 30
0.0
  0
LWPOLYLINE
  5
11a
100
AcDbEntity
  8
0
 62
7
100
AcDbPolyline
 90
2
 70
0
 10
142.556900
 20
199.170300
 30
0.0
 10
157.536400
 20
199.955300
 30
0.0
  0
LWPOLYLINE
  5
11b
100
AcDbEntity
  8
0
 62
7
100
AcDbPolyline
 90
2
 70
0
 10
141.771900
 20
214.149700
 30
0.0
 10
142.556900
 20
199.170300
 30
0.0
  0
LWPOLYLINE
  5
11c
100
AcDbEntity
  8
0
 62
7
100
AcDbPolyline
 90
4
 70
1
 10
237.442800
 20
170.550700
 30
0.0
 10
223.442800
 20
170.550700
 30
0.0
 10
223.442800
 20
184.550700
 30
0.0
 10
237.442800
 20
184.550700
 30
0.0
  0
LWPOLYLINE
  5
11d
100
AcDbEntity
  8
0
 62
7
100
AcDbPolyline
 90
3
 70
0
 10
122.576100
 20
172.421100
 30
0.0
 10
121.268800
 20
187.364000
 30
0.0
 10
106.325900
 20
186.056700
 30
0.0
  0
LWPOLYLINE
  5
11e
100
AcDbEntity
  8
0
 62
7
100
AcDbPolyline
 90
2
 70
0
 10
107.633200
 20
171.113700
 30
0.0
 10
122.576100
 20
172.421100
 30
0.0
  0
LWPOLYLINE
  5
11f
100
AcDbEntity
  8
0
 62
7
100
AcDbPolyline
 90
2
 70
0
 10
106.325900
 20
186.056700
 30
0.0
 10
107.633200
 20
171.113700
 30
0.0
  0
LWPOLYLINE
  5
120
100
AcDbEntity
  8
0
 62
7
100
AcDbPolyline
 90
3
 70
0
 10
156.646600
 20
216.932000
 30
0.0
 10
155.861600
 20
231.911400
 30
0.0
 10
140.882200
 20
231.126400
 30
0.0
  0
LWPOLYLINE
  5
121
100
AcDbEntity
  8
0
 62
7
100
AcDbPolyline
 90
2
 70
0
 10
141.667200
 20
216.147000
 30
0.0
 10
156.646600
 20
216.932000
 30
0.0
  0
SPLINE
  5
122
100
AcDbEntity
  8
0
 62
7
100
AcDbSpline
 70
8
 71
3
 72
8
 73
4
 74
0
 40
0
 40
0
 40
0
 40
0
 40
1
 40
1
 40
1
 40
1
 10
159.539600
 20
225.613700
 30
0.0
 10
158.811568
 20
225.613700
 30
0.0
 10
158.155223
 20
225.175144
 30
0.0
 10
157.876617
 20
224.502530
 30
0.0
  0
SPLINE
  5
123
100
AcDbEntity
  8
0
 62
7
100
AcDbSpline
 70
8
 71
3
 72
8
 73
4
 74
0
 40
0
 40
0
 40
0
 40
0
 40
1
 40
1
 40
1
 40
1
 10
157.876617
 20
224.502530
 30
0.0
 10
157.598011
 20
223.829916
 30
0.0
 10
157.752011
 20
223.055704
 30
0.0
 10
158.266808
 20
222.540908
 30
0.0
  0
SPLINE
  5
124
100
AcDbEntity
  8
0
 62
7
100
AcDbSpline
 70
8
 71
3
 72
8
 73
4
 74
0
 40
0
 40
0
 40
0
 40
0
 40
1
 40
1
 40
1
 40
1
 10
158.266808
 20
222.540908
 30
0.0
 10
158.781604
 20
222.026111
 30
0.0
 10
159.555816
 20
221.872111
 30
0.0
 10
160.228430
 20
222.150717
 30
0.0
  0
SPLINE
  5
125
100
AcDbEntity
  8
0
 62
7
100
AcDbSpline
 70
8
 71
3
 72
8
 73
4
 74
0
 40
0
 40
0
 40
0
 40
0
 40
1
 40
1
 40
1
 40
1
 10
160.228430
 20
222.150717
 30
0.0
 10
160.901044
 20
222.429323
 30
0.0
 10
161.339600
 20
223.085668
 30
0.0
 10
161.339600
 20
223.813700
 30
0.0
  0
SPLINE
  5
126
100
AcDbEntity
  8
0
 62
7
100
AcDbSpline
 70
8
 71
3
 72
8
 73
4
 74
0
 40
0
 40
0
 40
0
 40
0
 40
1
 40
1
 40
1
 40
1
 10
161.339600
 20
223.813700
 30
0.0
 10
161.339600
 20
224.291090
 30
0.0
 10
161.149958
 20
224.748927
 30
0.0
 10
160.812392
 20
225.086492
 30
0.0
  0
SPLINE
  5
127
100
AcDbEntity
  8
0
 62
7
100
AcDbSpline
 70
8
 71
3
 72
8
 73
4
 74
0
 40
0
 40
0
 40
0
 40
0
 40
1
 40
1
 40
1
 40
1
 10
160.812392
 20
225.086492
 30
0.0
 10
160.474827
 20
225.424058
 30
0.0
 10
160.016990
 20
225.613700
 30
0.0
 10
159.539600
 20
225.613700
 30
0.0
  0
LWPOLYLINE
  5
128
100
AcDbEntity
  8
0
 62
7
100
AcDbPolyline
 90
2
 70
0
 10
140.882200
 20
231.126400
 30
0.0
 10
141.667200
 20
216.147000
 30
0.0
  0
SPLINE
  5
129
100
AcDbEntity
  8
0
 62
7
100
AcDbSpline
 70
8
 71
3
 72
8
 73
4
 74
0
 40
0
 40
0
 40
0
 40
0
 40
1
 40
1
 40
1
 40
1
 10
239.041800
 20
168.285500
 30
0.0
 10
238.313768
 20
168.285500
 30
0.0
 10
237.657423
 20
167.846944
 30
0.0
 10
237.378817
 20
167.174330
 30
0.0
  0
SPLINE
  5
12a
100
AcDbEntity
  8
0
 62
7
100
AcDbSpline
 70
8
 71
3
 72
8
 73
4
 74
0
 40
0
 40
0
 40
0
 40
0
 40
1
 40
1
 40
1
 40
1
 10
237.378817
 20
167.174330
 30
0.0
 10
237.100211
 20
166.501716
 30
0.0
 10
237.254211
 20
165.727504
 30
0.0
 10
237.769008
 20
165.212708
 30
0.0
  0
SPLINE
  5
12b
100
AcDbEntity
  8
0
 62
7
100
AcDbSpline
 70
8
 71
3
 72
8
 73
4
 74
0
 40
0
 40
0
 40
0
 40
0
 40
1
 40
1
 40
1
 40
1
 10
237.769008
 20
165.212708
 30
0.0
 10
238.283804
 20
164.697911
 30
0.0
 10
239.058016
 20
164.543911
 30
0.0
 10
239.730630
 20
164.822517
 30
0.0
  0
SPLINE
  5
12c
100
AcDbEntity
  8
0
 62
7
100
AcDbSpline
 70
8
 71
3
 72
8
 73
4
 74
0
 40
0
 40
0
 40
0
 40
0
 40
1
 40
1
 40
1
 40
1
 10
239.730630
 20
164.822517
 30
0.0
 10
240.403244
 20
165.101123
 30
0.0
 10
240.841800
 20
165.757468
 30
0.0
 10
240.841800
 20
166.485500
 30
0.0
  0
SPLINE
  5
12d
100
AcDbEntity
  8
0
 62
7
100
AcDbSpline
 70
8
 71
3
 72
8
 73
4
 74
0
 40
0
 40
0
 40
0
 40
0
 40
1
 40
1
 40
1
 40
1
 10
240.841800
 20
166.485500
 30
0.0
 10
240.841800
 20
166.962890
 30
0.0
 10
240.652158
 20
167.420727
 30
0.0
 10
240.314592
 20
167.758292
 30
0.0
  0
SPLINE
  5
12e
100
AcDbEntity
  8
0
 62
7
100
AcDbSpline
 70
8
 71
3
 72
8
 73
4
 74
0
 40
0
 40
0
 40
0
 40
0
 40
1
 40
1
 40
1
 40
1
 10
240.314592
 20
167.758292
 30
0.0
 10
239.977027
 20
168.095858
 30
0.0
 10
239.519190
 20
168.285500
 30
0.0
 10
239.041800
 20
168.285500
 30
0.0
  0
LWPOLYLINE
  5
12f
100
AcDbEntity
  8
0
 62
7
100
AcDbPolyline
 90
1
 70
1
 10
159.539600
 20
225.613700
 30
0.0
  0
LWPOLYLINE
  5
130
100
AcDbEntity
  8
0
 62
7
100
AcDbPolyline
 90
1
 70
1
 10
239.041800
 20
168.285500
 30
0.0
  0
LWPOLYLINE
  5
131
100
AcDbEntity
  8
0
 62
7
100
AcDbPolyline
 90
3
 70
0
 10
121.094500
 20
189.356400
 30
0.0
 10
119.787100
 20
204.299300
 30
0.0
 10
104.844200
 20
202.992000
 30
0.0
  0
LWPOLYLINE
  5
132
100
AcDbEntity
  8
0
 62
7
100
AcDbPolyline
 90
2
 70
0
 10
106.151500
 20
188.049000
 30
0.0
 10
121.094500
 20
189.356400
 30
0.0
  0
LWPOLYLINE
  5
133
100
AcDbEntity
  8
0
 62
7
100
AcDbPolyline
 90
2
 70
0
 10
104.844200
 20
202.992000
 30
0.0
 10
106.151500
 20
188.049000
 30
0.0
  0
LWPOLYLINE
  5
134
100
AcDbEntity
  8
0
 62
7
100
AcDbPolyline
 90
3
 70
0
 10
177.764400
 20
184.610700
 30
0.0
 10
177.764400
 20
199.610700
 30
0.0
 10
162.764400
 20
199.610700
 30
0.0
  0
LWPOLYLINE
  5
135
100
AcDbEntity
  8
0
 62
7
100
AcDbPolyline
 90
2
 70
0
 10
162.764400
 20
184.610700
 30
0.0
 10
177.764400
 20
184.610700
 30
0.0
  0
SPLINE
  5
136
100
AcDbEntity
  8
0
 62
7
100
AcDbSpline
 70
8
 71
3
 72
8
 73
4
 74
0
 40
0
 40
0
 40
0
 40
0
 40
1
 40
1
 40
1
 40
1
 10
122.709800
 20
190.307300
 30
0.0
 10
121.981768
 20
190.307300
 30
0.0
 10
121.325423
 20
189.868744
 30
0.0
 10
121.046817
 20
189.196130
 30
0.0
  0
SPLINE
  5
137
100
AcDbEntity
  8
0
 62
7
100
AcDbSpline
 70
8
 71
3
 72
8
 73
4
 74
0
 40
0
 40
0
 40
0
 40
0
 40
1
 40
1
 40
1
 40
1
 10
121.046817
 20
189.196130
 30
0.0
 10
120.768211
 20
188.523516
 30
0.0
 10
120.922211
 20
187.749304
 30
0.0
 10
121.437008
 20
187.234508
 30
0.0
  0
SPLINE
  5
138
100
AcDbEntity
  8
0
 62
7
100
AcDbSpline
 70
8
 71
3
 72
8
 73
4
 74
0
 40
0
 40
0
 40
0
 40
0
 40
1
 40
1
 40
1
 40
1
 10
121.437008
 20
187.234508
 30
0.0
 10
121.951804
 20
186.719711
 30
0.0
 10
122.726016
 20
186.565711
 30
0.0
 10
123.398630
 20
186.844317
 30
0.0
  0
SPLINE
  5
139
100
AcDbEntity
  8
0
 62
7
100
AcDbSpline
 70
8
 71
3
 72
8
 73
4
 74
0
 40
0
 40
0
 40
0
 40
0
 40
1
 40
1
 40
1
 40
1
 10
123.398630
 20
186.844317
 30
0.0
 10
124.071244
 20
187.122923
 30
0.0
 10
124.509800
 20
187.779268
 30
0.0
 10
124.509800
 20
188.507300
 30
0.0
  0
SPLINE
  5
13a
100
AcDbEntity
  8
0
 62
7
100
AcDbSpline
 70
8
 71
3
 72
8
 73
4
 74
0
 40
0
 40
0
 40
0
 40
0
 40
1
 40
1
 40
1
 40
1
 10
124.509800
 20
188.507300
 30
0.0
 10
124.509800
 20
188.984690
 30
0.0
 10
124.320158
 20
189.442527
 30
0.0
 10
123.982592
 20
189.780092
 30
0.0
  0
SPLINE
  5
13b
100
AcDbEntity
  8
0
 62
7
100
AcDbSpline
 70
8
 71
3
 72
8
 73
4
 74
0
 40
0
 40
0
 40
0
 40
0
 40
1
 40
1
 40
1
 40
1
 10
123.982592
 20
189.780092
 30
0.0
 10
123.645027
 20
190.117658
 30
0.0
 10
123.187190
 20
190.307300
 30
0.0
 10
122.709800
 20
190.307300
 30
0.0
  0
LWPOLYLINE
  5
13c
100
AcDbEntity
  8
0
 62
7
100
AcDbPolyline
 90
2
 70
0
 10
162.764400
 20
199.610700
 30
0.0
 10
162.764400
 20
184.610700
 30
0.0
  0
LWPOLYLINE
  5
13d
100
AcDbEntity
  8
0
 62
7
100
AcDbPolyline
 90
1
 70
1
 10
122.709800
 20
190.307300
 30
0.0
  0
LWPOLYLINE
  5
13e
100
AcDbEntity
  8
0
 62
7
100
AcDbPolyline
 90
3
 70
0
 10
158.426100
 20
182.978600
 30
0.0
 10
157.641000
 20
197.958000
 30
0.0
 10
142.661600
 20
197.173000
 30
0.0
  0
LWPOLYLINE
  5
13f
100
AcDbEntity
  8
0
 62
7
100
AcDbPolyline
 90
2
 70
0
 10
143.446600
 20
182.193600
 30
0.0
 10
158.426100
 20
182.978600
 30
0.0
  0
LWPOLYLINE
  5
140
100
AcDbEntity
  8
0
 62
7
100
AcDbPolyline
 90
2
 70
0
 10
142.661600
 20
197.173000
 30
0.0
 10
143.446600
 20
182.193600
 30
0.0
  0
LWPOLYLINE
  5
141
100
AcDbEntity
  8
0
 62
7
100
AcDbPolyline
 90
3
 70
0
 10
137.544300
 20
207.860500
 30
0.0
 10
136.237000
 20
222.803400
 30
0.0
 10
121.294100
 20
221.496100
 30
0.0
  0
LWPOLYLINE
  5
142
100
AcDbEntity
  8
0
 62
7
100
AcDbPolyline
 90
2
 70
0
 10
122.601400
 20
206.553200
 30
0.0
 10
137.544300
 20
207.860500
 30
0.0
  0
SPLINE
  5
143
100
AcDbEntity
  8
0
 62
7
100
AcDbSpline
 70
8
 71
3
 72
8
 73
4
 74
0
 40
0
 40
0
 40
0
 40
0
 40
1
 40
1
 40
1
 40
1
 10
179.961400
 20
161.859300
 30
0.0
 10
179.233368
 20
161.859300
 30
0.0
 10
178.577023
 20
161.420744
 30
0.0
 10
178.298417
 20
160.748130
 30
0.0
  0
SPLINE
  5
144
100
AcDbEntity
  8
0
 62
7
100
AcDbSpline
 70
8
 71
3
 72
8
 73
4
 74
0
 40
0
 40
0
 40
0
 40
0
 40
1
 40
1
 40
1
 40
1
 10
178.298417
 20
160.748130
 30
0.0
 10
178.019811
 20
160.075516
 30
0.0
 10
178.173811
 20
159.301304
 30
0.0
 10
178.688608
 20
158.786508
 30
0.0
  0
SPLINE
  5
145
100
AcDbEntity
  8
0
 62
7
100
AcDbSpline
 70
8
 71
3
 72
8
 73
4
 74
0
 40
0
 40
0
 40
0
 40
0
 40
1
 40
1
 40
1
 40
1
 10
178.688608
 20
158.786508
 30
0.0
 10
179.203404
 20
158.271711
 30
0.0
 10
179.977616
 20
158.117711
 30
0.0
 10
180.650230
 20
158.396317
 30
0.0
  0
SPLINE
  5
146
100
AcDbEntity
  8
0
 62
7
100
AcDbSpline
 70
8
 71
3
 72
8
 73
4
 74
0
 40
0
 40
0
 40
0
 40
0
 40
1
 40
1
 40
1
 40
1
 10
180.650230
 20
158.396317
 30
0.0
 10
181.322844
 20
158.674923
 30
0.0
 10
181.761400
 20
159.331268
 30
0.0
 10
181.761400
 20
160.059300
 30
0.0
  0
SPLINE
  5
147
100
AcDbEntity
  8
0
 62
7
100
AcDbSpline
 70
8
 71
3
 72
8
 73
4
 74
0
 40
0
 40
0
 40
0
 40
0
 40
1
 40
1
 40
1
 40
1
 10
181.761400
 20
160.059300
 30
0.0
 10
181.761400
 20
160.536690
 30
0.0
 10
181.571758
 20
160.994527
 30
0.0
 10
181.234192
 20
161.332092
 30
0.0
  0
SPLINE
  5
148
100
AcDbEntity
  8
0
 62
7
100
AcDbSpline
 70
8
 71
3
 72
8
 73
4
 74
0
 40
0
 40
0
 40
0
 40
0
 40
1
 40
1
 40
1
 40
1
 10
181.234192
 20
161.332092
 30
0.0
 10
180.896627
 20
161.669658
 30
0.0
 10
180.438790
 20
161.859300
 30
0.0
 10
179.961400
 20
161.859300
 30
0.0
  0
LWPOLYLINE
  5
149
100
AcDbEntity
  8
0
 62
7
100
AcDbPolyline
 90
2
 70
0
 10
121.294100
 20
221.496100
 30
0.0
 10
122.601400
 20
206.553200
 30
0.0
  0
LWPOLYLINE
  5
14a
100
AcDbEntity
  8
0
 62
7
100
AcDbPolyline
 90
1
 70
1
 10
179.961400
 20
161.859300
 30
0.0
  0
LWPOLYLINE
  5
14b
100
AcDbEntity
  8
0
 62
7
100
AcDbPolyline
 90
3
 70
0
 10
177.764300
 20
218.610700
 30
0.0
 10
177.764300
 20
233.610700
 30
0.0
 10
162.764300
 20
233.610700
 30
0.0
  0
LWPOLYLINE
  5
14c
100
AcDbEntity
  8
0
 62
7
100
AcDbPolyline
 90
2
 70
0
 10
162.764300
 20
218.610700
 30
0.0
 10
177.764300
 20
218.610700
 30
0.0
  0
LWPOLYLINE
  5
14d
100
AcDbEntity
  8
0
 62
7
100
AcDbPolyline
 90
2
 70
0
 10
162.764300
 20
233.610700
 30
0.0
 10
162.764300
 20
218.610700
 30
0.0
  0
LWPOLYLINE
  5
14e
100
AcDbEntity
  8
0
 62
7
100
AcDbPolyline
 90
2
 70
0
 10
223.556100
 20
163.500200
 30
0.0
 10
210.074200
 20
170.075700
 30
0.0
  0
LWPOLYLINE
  5
14f
100
AcDbEntity
  8
0
 62
7
100
AcDbPolyline
 90
2
 70
0
 10
216.980500
 20
150.018200
 30
0.0
 10
223.556100
 20
163.500200
 30
0.0
  0
LWPOLYLINE
  5
150
100
AcDbEntity
  8
0
 62
7
100
AcDbPolyline
 90
3
 70
0
 10
210.074200
 20
170.075700
 30
0.0
 10
203.498600
 20
156.593800
 30
0.0
 10
216.980500
 20
150.018200
 30
0.0
  0
LWPOLYLINE
  5
151
100
AcDbEntity
  8
0
 62
7
100
AcDbPolyline
 90
3
 70
0
 10
139.026000
 20
190.925200
 30
0.0
 10
137.718600
 20
205.868100
 30
0.0
 10
122.775700
 20
204.560800
 30
0.0
  0
LWPOLYLINE
  5
152
100
AcDbEntity
  8
0
 62
7
100
AcDbPolyline
 90
2
 70
0
 10
124.083000
 20
189.617800
 30
0.0
 10
139.026000
 20
190.925200
 30
0.0
  0
LWPOLYLINE
  5
153
100
AcDbEntity
  8
0
 62
7
100
AcDbPolyline
 90
2
 70
0
 10
122.775700
 20
204.560800
 30
0.0
 10
124.083000
 20
189.617800
 30
0.0
  0
LWPOLYLINE
  5
154
100
AcDbEntity
  8
0
 62
7
100
AcDbPolyline
 90
3
 70
0
 10
177.764300
 20
201.610700
 30
0.0
 10
177.764300
 20
216.610700
 30
0.0
 10
162.764300
 20
216.610700
 30
0.0
  0
LWPOLYLINE
  5
155
100
AcDbEntity
  8
0
 62
7
100
AcDbPolyline
 90
2
 70
0
 10
162.764300
 20
201.610700
 30
0.0
 10
177.764300
 20
201.610700
 30
0.0
  0
LWPOLYLINE
  5
156
100
AcDbEntity
  8
0
 62
7
100
AcDbPolyline
 90
2
 70
0
 10
162.764300
 20
216.610700
 30
0.0
 10
162.764300
 20
201.610700
 30
0.0
  0
LWPOLYLINE
  5
157
100
AcDbEntity
  8
0
 62
7
100
AcDbPolyline
 90
3
 70
0
 10
140.507600
 20
173.989900
 30
0.0
 10
139.200300
 20
188.932800
 30
0.0
 10
124.257400
 20
187.625500
 30
0.0
  0
LWPOLYLINE
  5
158
100
AcDbEntity
  8
0
 62
7
100
AcDbPolyline
 90
2
 70
0
 10
125.564700
 20
172.682500
 30
0.0
 10
140.507600
 20
173.989900
 30
0.0
  0
LWPOLYLINE
  5
159
100
AcDbEntity
  8
0
 62
7
100
AcDbPolyline
 90
2
 70
0
 10
124.257400
 20
187.625500
 30
0.0
 10
125.564700
 20
172.682500
 30
0.0
  0
LWPOLYLINE
  5
15a
100
AcDbEntity
  8
0
 62
7
100
AcDbPolyline
 90
3
 70
0
 10
119.612800
 20
206.291700
 30
0.0
 10
118.305500
 20
221.234600
 30
0.0
 10
103.362600
 20
219.927300
 30
0.0
  0
LWPOLYLINE
  5
15b
100
AcDbEntity
  8
0
 62
7
100
AcDbPolyline
 90
2
 70
0
 10
104.669900
 20
204.984300
 30
0.0
 10
119.612800
 20
206.291700
 30
0.0
  0
LWPOLYLINE
  5
15c
100
AcDbEntity
  8
0
 62
7
100
AcDbPolyline
 90
2
 70
0
 10
103.362600
 20
219.927300
 30
0.0
 10
104.669900
 20
204.984300
 30
0.0
  0
LWPOLYLINE
  5
15d
100
AcDbEntity
  8
0
 62
7
100
AcDbPolyline
 90
3
 70
0
 10
213.764400
 20
193.610700
 30
0.0
 10
213.764400
 20
208.610700
 30
0.0
 10
198.764400
 20
208.610700
 30
0.0
  0
LWPOLYLINE
  5
15e
100
AcDbEntity
  8
0
 62
7
100
AcDbPolyline
 90
2
 70
0
 10
198.764400
 20
193.610700
 30
0.0
 10
213.764400
 20
193.610700
 30
0.0
  0
LWPOLYLINE
  5
15f
100
AcDbEntity
  8
0
 62
7
100
AcDbPolyline
 90
2
 70
0
 10
198.764400
 20
208.610700
 30
0.0
 10
198.764400
 20
193.610700
 30
0.0
  0
LWPOLYLINE
  5
160
100
AcDbEntity
  8
0
 62
7
100
AcDbPolyline
 90
3
 70
0
 10
213.764400
 20
176.610700
 30
0.0
 10
213.764400
 20
191.610700
 30
0.0
 10
198.764400
 20
191.610700
 30
0.0
  0
LWPOLYLINE
  5
161
100
AcDbEntity
  8
0
 62
7
100
AcDbPolyline
 90
2
 70
0
 10
198.764400
 20
176.610700
 30
0.0
 10
213.764400
 20
176.610700
 30
0.0
  0
LWPOLYLINE
  5
162
100
AcDbEntity
  8
0
 62
7
100
AcDbPolyline
 90
2
 70
0
 10
198.764400
 20
191.610700
 30
0.0
 10
198.764400
 20
176.610700
 30
0.0
  0
LWPOLYLINE
  5
163
100
AcDbEntity
  8
0
 62
7
100
AcDbPolyline
 90
3
 70
0
 10
213.764300
 20
210.610700
 30
0.0
 10
213.764300
 20
225.610700
 30
0.0
 10
198.764300
 20
225.610700
 30
0.0
  0
LWPOLYLINE
  5
164
100
AcDbEntity
  8
0
 62
7
100
AcDbPolyline
 90
2
 70
0
 10
198.764300
 20
210.610700
 30
0.0
 10
213.764300
 20
210.610700
 30
0.0
  0
LWPOLYLINE
  5
165
100
AcDbEntity
  8
0
 62
7
100
AcDbPolyline
 90
2
 70
0
 10
198.764300
 20
225.610700
 30
0.0
 10
198.764300
 20
210.610700
 30
0.0
  0
LWPOLYLINE
  5
166
100
AcDbEntity
  8
0
 62
7
100
AcDbPolyline
 90
2
 70
0
 10
195.764400
 20
230.610700
 30
0.0
 10
180.764300
 20
230.610700
 30
0.0
  0
LWPOLYLINE
  5
167
100
AcDbEntity
  8
0
 62
7
100
AcDbPolyline
 90
2
 70
0
 10
195.764300
 20
215.610700
 30
0.0
 10
195.764400
 20
230.610700
 30
0.0
  0
SPLINE
  5
168
100
AcDbEntity
  8
0
 62
7
100
AcDbSpline
 70
8
 71
3
 72
8
 73
4
 74
0
 40
0
 40
0
 40
0
 40
0
 40
1
 40
1
 40
1
 40
1
 10
242.750200
 20
229.448700
 30
0.0
 10
242.022168
 20
229.448700
 30
0.0
 10
241.365823
 20
229.010144
 30
0.0
 10
241.087217
 20
228.337530
 30
0.0
  0
SPLINE
  5
169
100
AcDbEntity
  8
0
 62
7
100
AcDbSpline
 70
8
 71
3
 72
8
 73
4
 74
0
 40
0
 40
0
 40
0
 40
0
 40
1
 40
1
 40
1
 40
1
 10
241.087217
 20
228.337530
 30
0.0
 10
240.808611
 20
227.664916
 30
0.0
 10
240.962611
 20
226.890704
 30
0.0
 10
241.477408
 20
226.375908
 30
0.0
  0
SPLINE
  5
16a
100
AcDbEntity
  8
0
 62
7
100
AcDbSpline
 70
8
 71
3
 72
8
 73
4
 74
0
 40
0
 40
0
 40
0
 40
0
 40
1
 40
1
 40
1
 40
1
 10
241.477408
 20
226.375908
 30
0.0
 10
241.992204
 20
225.861111
 30
0.0
 10
242.766416
 20
225.707111
 30
0.0
 10
243.439030
 20
225.985717
 30
0.0
  0
SPLINE
  5
16b
100
AcDbEntity
  8
0
 62
7
100
AcDbSpline
 70
8
 71
3
 72
8
 73
4
 74
0
 40
0
 40
0
 40
0
 40
0
 40
1
 40
1
 40
1
 40
1
 10
243.439030
 20
225.985717
 30
0.0
 10
244.111644
 20
226.264323
 30
0.0
 10
244.550200
 20
226.920668
 30
0.0
 10
244.550200
 20
227.648700
 30
0.0
  0
SPLINE
  5
16c
100
AcDbEntity
  8
0
 62
7
100
AcDbSpline
 70
8
 71
3
 72
8
 73
4
 74
0
 40
0
 40
0
 40
0
 40
0
 40
1
 40
1
 40
1
 40
1
 10
244.550200
 20
227.648700
 30
0.0
 10
244.550200
 20
228.126090
 30
0.0
 10
244.360558
 20
228.583927
 30
0.0
 10
244.022992
 20
228.921492
 30
0.0
  0
SPLINE
  5
16d
100
AcDbEntity
  8
0
 62
7
100
AcDbSpline
 70
8
 71
3
 72
8
 73
4
 74
0
 40
0
 40
0
 40
0
 40
0
 40
1
 40
1
 40
1
 40
1
 10
244.022992
 20
228.921492
 30
0.0
 10
243.685427
 20
229.259058
 30
0.0
 10
243.227590
 20
229.448700
 30
0.0
 10
242.750200
 20
229.448700
 30
0.0
  0
LWPOLYLINE
  5
16e
100
AcDbEntity
  8
0
 62
7
100
AcDbPolyline
 90
3
 70
0
 10
180.764300
 20
230.610700
 30
0.0
 10
180.764300
 20
215.610700
 30
0.0
 10
195.764300
 20
215.610700
 30
0.0
  0
SPLINE
  5
16f
100
AcDbEntity
  8
0
 62
7
100
AcDbSpline
 70
8
 71
3
 72
8
 73
4
 74
0
 40
0
 40
0
 40
0
 40
0
 40
1
 40
1
 40
1
 40
1
 10
99.450600
 20
171.042600
 30
0.0
 10
99.450616
 20
170.481802
 30
0.0
 10
99.686078
 20
169.946774
 30
0.0
 10
100.099584
 20
169.567950
 30
0.0
  0
SPLINE
  5
170
100
AcDbEntity
  8
0
 62
7
100
AcDbSpline
 70
8
 71
3
 72
8
 73
4
 74
0
 40
0
 40
0
 40
0
 40
0
 40
1
 40
1
 40
1
 40
1
 10
100.099584
 20
169.567950
 30
0.0
 10
100.513090
 20
169.189127
 30
0.0
 10
101.066646
 20
169.001314
 30
0.0
 10
101.625300
 20
169.050300
 30
0.0
  0
LWPOLYLINE
  5
171
100
AcDbEntity
  8
0
 62
7
100
AcDbPolyline
 90
1
 70
1
 10
242.750200
 20
229.448700
 30
0.0
  0
SPLINE
  5
172
100
AcDbEntity
  8
0
 62
7
100
AcDbSpline
 70
8
 71
3
 72
8
 73
4
 74
0
 40
0
 40
0
 40
0
 40
0
 40
1
 40
1
 40
1
 40
1
 10
214.015600
 20
144.256200
 30
0.0
 10
213.773838
 20
143.760489
 30
0.0
 10
213.979060
 20
143.162627
 30
0.0
 10
214.474300
 20
142.919900
 30
0.0
  0
LWPOLYLINE
  5
173
100
AcDbEntity
  8
0
 62
7
100
AcDbPolyline
 90
2
 70
0
 10
136.683700
 20
226.222900
 30
0.0
 10
136.683700
 20
235.780400
 30
0.0
  0
SPLINE
  5
174
100
AcDbEntity
  8
0
 62
7
100
AcDbSpline
 70
8
 71
3
 72
8
 73
4
 74
0
 40
0
 40
0
 40
0
 40
0
 40
1
 40
1
 40
1
 40
1
 10
201.598700
 20
155.286000
 30
0.0
 10
201.475238
 20
155.343652
 30
0.0
 10
201.341299
 20
155.375469
 30
0.0
 10
201.205100
 20
155.379500
 30
0.0
  0
SPLINE
  5
175
100
AcDbEntity
  8
0
 62
7
100
AcDbSpline
 70
8
 71
3
 72
8
 73
4
 74
0
 40
0
 40
0
 40
0
 40
0
 40
1
 40
1
 40
1
 40
1
 10
181.269300
 20
235.780400
 30
0.0
 10
181.269327
 20
236.045625
 30
0.0
 10
181.163978
 20
236.299994
 30
0.0
 10
180.976436
 20
236.487536
 30
0.0
  0
SPLINE
  5
176
100
AcDbEntity
  8
0
 62
7
100
AcDbSpline
 70
8
 71
3
 72
8
 73
4
 74
0
 40
0
 40
0
 40
0
 40
0
 40
1
 40
1
 40
1
 40
1
 10
180.976436
 20
236.487536
 30
0.0
 10
180.788894
 20
236.675078
 30
0.0
 10
180.534525
 20
236.780427
 30
0.0
 10
180.269300
 20
236.780400
 30
0.0
  0
LWPOLYLINE
  5
177
100
AcDbEntity
  8
0
 62
7
100
AcDbPolyline
 90
2
 70
0
 10
215.171400
 20
148.945800
 30
0.0
 10
201.598700
 20
155.286000
 30
0.0
  0
LWPOLYLINE
  5
178
100
AcDbEntity
  8
0
 62
7
100
AcDbPolyline
 90
2
 70
0
 10
246.016100
 20
230.294000
 30
0.0
 10
246.016100
 20
161.679400
 30
0.0
  0
LWPOLYLINE
  5
179
100
AcDbEntity
  8
0
 62
7
100
AcDbPolyline
 90
2
 70
0
 10
199.912900
 20
232.427600
 30
0.0
 10
199.912900
 20
232.294000
 30
0.0
  0
SPLINE
  5
17a
100
AcDbEntity
  8
0
 62
7
100
AcDbSpline
 70
8
 71
3
 72
8
 73
4
 74
0
 40
0
 40
0
 40
0
 40
0
 40
1
 40
1
 40
1
 40
1
 10
135.770900
 20
225.226800
 30
0.0
 10
136.287378
 20
225.272009
 30
0.0
 10
136.683653
 20
225.704447
 30
0.0
 10
136.683700
 20
226.222900
 30
0.0
  0
LWPOLYLINE
  5
17b
100
AcDbEntity
  8
0
 62
7
100
AcDbPolyline
 90
2
 70
0
 10
181.079000
 20
178.418700
 30
0.0
 10
181.079000
 20
165.418700
 30
0.0
  0
LWPOLYLINE
  5
17c
100
AcDbEntity
  8
0
 62
7
100
AcDbPolyline
 90
2
 70
0
 10
100.359700
 20
222.128600
 30
0.0
 10
135.770900
 20
225.226700
 30
0.0
  0
SPLINE
  5
17d
100
AcDbEntity
  8
0
 62
7
100
AcDbSpline
 70
8
 71
3
 72
8
 73
4
 74
0
 40
0
 40
0
 40
0
 40
0
 40
1
 40
1
 40
1
 40
1
 10
215.647000
 20
147.601400
 30
0.0
 10
215.764538
 20
147.842394
 30
0.0
 10
215.780372
 20
148.120495
 30
0.0
 10
215.690949
 20
148.373272
 30
0.0
  0
SPLINE
  5
17e
100
AcDbEntity
  8
0
 62
7
100
AcDbSpline
 70
8
 71
3
 72
8
 73
4
 74
0
 40
0
 40
0
 40
0
 40
0
 40
1
 40
1
 40
1
 40
1
 10
215.690949
 20
148.373272
 30
0.0
 10
215.601525
 20
148.626050
 30
0.0
 10
215.414335
 20
148.832328
 30
0.0
 10
215.171400
 20
148.945800
 30
0.0
  0
LWPOLYLINE
  5
17f
100
AcDbEntity
  8
0
 62
7
100
AcDbPolyline
 90
2
 70
0
 10
245.914900
 20
161.241100
 30
0.0
 10
233.076000
 20
134.917600
 30
0.0
  0
LWPOLYLINE
  5
180
100
AcDbEntity
  8
0
 62
7
100
AcDbPolyline
 90
2
 70
0
 10
101.625300
 20
169.050300
 30
0.0
 10
144.207300
 20
172.781700
 30
0.0
  0
LWPOLYLINE
  5
181
100
AcDbEntity
  8
0
 62
7
100
AcDbPolyline
 90
2
 70
0
 10
182.269300
 20
233.427600
 30
0.0
 10
198.912900
 20
233.427600
 30
0.0
  0
SPLINE
  5
182
100
AcDbEntity
  8
0
 62
7
100
AcDbSpline
 70
8
 71
3
 72
8
 73
4
 74
0
 40
0
 40
0
 40
0
 40
0
 40
1
 40
1
 40
1
 40
1
 10
181.269400
 20
234.427600
 30
0.0
 10
181.269400
 20
233.875354
 30
0.0
 10
181.717054
 20
233.427655
 30
0.0
 10
182.269300
 20
233.427600
 30
0.0
  0
LWPOLYLINE
  5
183
100
AcDbEntity
  8
0
 62
7
100
AcDbPolyline
 90
2
 70
0
 10
99.450700
 20
171.042600
 30
0.0
 10
99.450700
 20
221.044700
 30
0.0
  0
SPLINE
  5
184
100
AcDbEntity
  8
0
 62
7
100
AcDbSpline
 70
8
 71
3
 72
8
 73
4
 74
0
 40
0
 40
0
 40
0
 40
0
 40
1
 40
1
 40
1
 40
1
 10
246.016000
 20
230.294000
 30
0.0
 10
246.016027
 20
230.559207
 30
0.0
 10
245.910692
 20
230.813561
 30
0.0
 10
245.723171
 20
231.001101
 30
0.0
  0
SPLINE
  5
185
100
AcDbEntity
  8
0
 62
7
100
AcDbSpline
 70
8
 71
3
 72
8
 73
4
 74
0
 40
0
 40
0
 40
0
 40
0
 40
1
 40
1
 40
1
 40
1
 10
245.723171
 20
231.001101
 30
0.0
 10
245.535651
 20
231.188640
 30
0.0
 10
245.281307
 20
231.294000
 30
0.0
 10
245.016100
 20
231.294000
 30
0.0
  0
LWPOLYLINE
  5
186
100
AcDbEntity
  8
0
 62
7
100
AcDbPolyline
 90
2
 70
0
 10
231.737100
 20
134.458000
 30
0.0
 10
214.474300
 20
142.919900
 30
0.0
  0
LWPOLYLINE
  5
187
100
AcDbEntity
  8
0
 62
7
100
AcDbPolyline
 90
2
 70
0
 10
176.176800
 20
161.820900
 30
0.0
 10
144.207300
 20
161.820800
 30
0.0
  0
LWPOLYLINE
  5
188
100
AcDbEntity
  8
0
 62
7
100
AcDbPolyline
 90
2
 70
0
 10
149.679000
 20
178.418700
 30
0.0
 10
149.679000
 20
165.418700
 30
0.0
  0
SPLINE
  5
189
100
AcDbEntity
  8
0
 62
7
100
AcDbSpline
 70
8
 71
3
 72
8
 73
4
 74
0
 40
0
 40
0
 40
0
 40
0
 40
1
 40
1
 40
1
 40
1
 10
199.912900
 20
232.427600
 30
0.0
 10
199.912927
 20
232.692825
 30
0.0
 10
199.807578
 20
232.947194
 30
0.0
 10
199.620036
 20
233.134736
 30
0.0
  0
SPLINE
  5
18a
100
AcDbEntity
  8
0
 62
7
100
AcDbSpline
 70
8
 71
3
 72
8
 73
4
 74
0
 40
0
 40
0
 40
0
 40
0
 40
1
 40
1
 40
1
 40
1
 10
199.620036
 20
233.134736
 30
0.0
 10
199.432494
 20
233.322278
 30
0.0
 10
199.178125
 20
233.427627
 30
0.0
 10
198.912900
 20
233.427600
 30
0.0
  0
SPLINE
  5
18b
100
AcDbEntity
  8
0
 62
7
100
AcDbSpline
 70
8
 71
3
 72
8
 73
4
 74
0
 40
0
 40
0
 40
0
 40
0
 40
1
 40
1
 40
1
 40
1
 10
137.683700
 20
236.780400
 30
0.0
 10
137.418484
 20
236.780400
 30
0.0
 10
137.164130
 20
236.675043
 30
0.0
 10
136.976593
 20
236.487507
 30
0.0
  0
SPLINE
  5
18c
100
AcDbEntity
  8
0
 62
7
100
AcDbSpline
 70
8
 71
3
 72
8
 73
4
 74
0
 40
0
 40
0
 40
0
 40
0
 40
1
 40
1
 40
1
 40
1
 10
136.976593
 20
236.487507
 30
0.0
 10
136.789057
 20
236.299970
 30
0.0
 10
136.683700
 20
236.045616
 30
0.0
 10
136.683700
 20
235.780400
 30
0.0
  0
SPLINE
  5
18d
100
AcDbEntity
  8
0
 62
7
100
AcDbSpline
 70
8
 71
3
 72
8
 73
4
 74
0
 40
0
 40
0
 40
0
 40
0
 40
1
 40
1
 40
1
 40
1
 10
176.176800
 20
156.820900
 30
0.0
 10
176.176779
 20
156.280127
 30
0.0
 10
176.606663
 20
155.837307
 30
0.0
 10
177.147200
 20
155.821300
 30
0.0
  0
LWPOLYLINE
  5
18e
100
AcDbEntity
  8
0
 62
7
100
AcDbPolyline
 90
2
 70
0
 10
149.679000
 20
178.418700
 30
0.0
 10
181.079000
 20
178.418700
 30
0.0
  0
LWPOLYLINE
  5
18f
100
AcDbEntity
  8
0
 62
7
100
AcDbPolyline
 90
2
 70
0
 10
200.912900
 20
231.294000
 30
0.0
 10
245.016100
 20
231.294000
 30
0.0
  0
SPLINE
  5
190
100
AcDbEntity
  8
0
 62
7
100
AcDbSpline
 70
8
 71
3
 72
8
 73
4
 74
0
 40
0
 40
0
 40
0
 40
0
 40
1
 40
1
 40
1
 40
1
 10
245.914900
 20
161.241100
 30
0.0
 10
245.981482
 20
161.377618
 30
0.0
 10
246.016091
 20
161.527510
 30
0.0
 10
246.016100
 20
161.679400
 30
0.0
  0
LWPOLYLINE
  5
191
100
AcDbEntity
  8
0
 62
7
100
AcDbPolyline
 90
2
 70
0
 10
176.176800
 20
156.820900
 30
0.0
 10
176.176800
 20
161.820900
 30
0.0
  0
SPLINE
  5
192
100
AcDbEntity
  8
0
 62
7
100
AcDbSpline
 70
8
 71
3
 72
8
 73
4
 74
0
 40
0
 40
0
 40
0
 40
0
 40
1
 40
1
 40
1
 40
1
 10
199.912900
 20
232.294000
 30
0.0
 10
199.912955
 20
231.741738
 30
0.0
 10
200.360638
 20
231.294055
 30
0.0
 10
200.912900
 20
231.294000
 30
0.0
  0
LWPOLYLINE
  5
193
100
AcDbEntity
  8
0
 62
7
100
AcDbPolyline
 90
2
 70
0
 10
201.205100
 20
155.379500
 30
0.0
 10
177.147200
 20
155.821300
 30
0.0
  0
LWPOLYLINE
  5
194
100
AcDbEntity
  8
0
 62
7
100
AcDbPolyline
 90
2
 70
0
 10
149.679000
 20
165.418700
 30
0.0
 10
181.079000
 20
165.418700
 30
0.0
  0
LWPOLYLINE
  5
195
100
AcDbEntity
  8
0
 62
7
100
AcDbPolyline
 90
2
 70
0
 10
144.207300
 20
161.820800
 30
0.0
 10
144.207300
 20
172.781700
 30
0.0
  0
LWPOLYLINE
  5
196
100
AcDbEntity
  8
0
 62
7
100
AcDbPolyline
 90
2
 70
0
 10
181.269300
 20
235.780400
 30
0.0
 10
181.269300
 20
234.427600
 30
0.0
  0
LWPOLYLINE
  5
197
100
AcDbEntity
  8
0
 62
7
100
AcDbPolyline
 90
2
 70
0
 10
214.015600
 20
144.256200
 30
0.0
 10
215.647000
 20
147.601400
 30
0.0
  0
SPLINE
  5
198
100
AcDbEntity
  8
0
 62
7
100
AcDbSpline
 70
8
 71
3
 72
8
 73
4
 74
0
 40
0
 40
0
 40
0
 40
0
 40
1
 40
1
 40
1
 40
1
 10
100.359700
 20
222.128600
 30
0.0
 10
100.095385
 20
222.105505
 30
0.0
 10
99.851087
 20
221.978306
 30
0.0
 10
99.680596
 20
221.775011
 30
0.0
  0
SPLINE
  5
199
100
AcDbEntity
  8
0
 62
7
100
AcDbSpline
 70
8
 71
3
 72
8
 73
4
 74
0
 40
0
 40
0
 40
0
 40
0
 40
1
 40
1
 40
1
 40
1
 10
99.680596
 20
221.775011
 30
0.0
 10
99.510106
 20
221.571717
 30
0.0
 10
99.427404
 20
221.308997
 30
0.0
 10
99.450700
 20
221.044700
 30
0.0
  0
SPLINE
  5
19a
100
AcDbEntity
  8
0
 62
7
100
AcDbSpline
 70
8
 71
3
 72
8
 73
4
 74
0
 40
0
 40
0
 40
0
 40
0
 40
1
 40
1
 40
1
 40
1
 10
231.737100
 20
134.458000
 30
0.0
 10
231.975554
 20
134.341131
 30
0.0
 10
232.250700
 20
134.323906
 30
0.0
 10
232.501867
 20
134.410124
 30
0.0
  0
SPLINE
  5
19b
100
AcDbEntity
  8
0
 62
7
100
AcDbSpline
 70
8
 71
3
 72
8
 73
4
 74
0
 40
0
 40
0
 40
0
 40
0
 40
1
 40
1
 40
1
 40
1
 10
232.501867
 20
134.410124
 30
0.0
 10
232.753034
 20
134.496341
 30
0.0
 10
232.959595
 20
134.678920
 30
0.0
 10
233.076000
 20
134.917600
 30
0.0
  0
LWPOLYLINE
  5
19c
100
AcDbEntity
  8
0
 62
7
100
AcDbPolyline
 90
2
 70
0
 10
137.683700
 20
236.780400
 30
0.0
 10
180.269300
 20
236.780400
 30
0.0
  0
ENDSEC
  0
SECTION
  2
OBJECTS
  0
DICTIONARY
  5
C
330
0
100
AcDbDictionary
  3
ACAD_GROUP
350
D
  3
ACAD_MLINESTYLE
350
17
  0
DICTIONARY
  5
D
330
C
100
AcDbDictionary
  0
DICTIONARY
  5
1A
330
C
100
AcDbDictionary
  0
DICTIONARY
  5
17
330
C
100
AcDbDictionary
  3
STANDARD
350
18
  0
DICTIONARY
  5
19
330
C
100
AcDbDictionary
  0
ENDSEC
  0
EOF
