<?xml version="1.0" standalone="no"?>
 <!DOCTYPE svg PUBLIC "-//W3C//DTD SVG 1.1//EN" 
 "http://www.w3.org/Graphics/SVG/1.1/DTD/svg11.dtd"> 
<svg
  xmlns:svg="http://www.w3.org/2000/svg"
  xmlns="http://www.w3.org/2000/svg"
  xmlns:xlink="http://www.w3.org/1999/xlink"
  version="1.1"
  width="489.3818mm" height="311.9628mm" viewBox="0.0000 0.0000 489.3818 311.9628">
<title>SVG Image created as hookah-brd.svg date 2024/09/22 20:22:08 </title>
  <desc>Image generated by PCBNEW </desc>
<g style="fill:#000000; fill-opacity:1.0000;stroke:#000000; stroke-opacity:1.0000;
stroke-linecap:round; stroke-linejoin:round;"
 transform="translate(0 0) scale(1 1)">
<path style="fill:none; 
stroke:#000000; stroke-width:0.1500; stroke-opacity:1; 
stroke-linecap:round; stroke-linejoin:round;fill:none"
d="M 230.2026,117.8167
238.8640,117.8167
238.8640,124.7763
230.2026,124.7763
Z" /> 
</g>
<g style="fill:none; 
stroke:#000000; stroke-width:0.1500; stroke-opacity:1; 
stroke-linecap:round; stroke-linejoin:round;">
<path d="M227.6624 78.6241
L232.0058 78.6241
" />
<path d="M220.7028 114.1333
L238.4828 114.1333
" />
<path d="M220.7028 81.1133
L220.7028 114.1333
" />
<path d="M238.5082 81.1133
L220.7028 81.1133
" />
<path style="fill:none; 
stroke:#000000; stroke-width:0.1500; stroke-opacity:1; 
stroke-linecap:round; stroke-linejoin:round;fill:none"
d="M 222.5572,118.6295
225.9100,118.6295
225.9100,123.4555
222.5572,123.4555
Z" /> 
<path d="M232.0058 78.6241
L232.0058 81.1133
" />
<path d="M238.4828 114.1333
L238.5082 81.1133
" />
<path d="M227.6624 81.1133
L227.6624 78.6241
" />
<path style="fill:none; 
stroke:#000000; stroke-width:0.1500; stroke-opacity:1; 
stroke-linecap:round; stroke-linejoin:round;fill:none"
d="M 199.7948,154.0170
185.7948,154.0170
185.7948,140.0170
199.7948,140.0170
Z" /> 
<path d="M195.3348 150.0270
L190.1348 150.0270
" />
<path d="M190.1348 150.0270
L190.1348 153.2270
" />
<path d="M190.1348 153.2270
L195.3348 153.2270
" />
<path d="M195.3348 150.0270
L195.3348 153.2270
" />
<path d="M199.6348 140.0270
L185.8348 140.0270
" />
<path d="M185.8348 153.8270
L199.6348 153.8270
" />
<path d="M185.8348 153.8270
L185.8348 140.0270
" />
<path d="M199.6348 140.0270
L199.6348 153.8270
" />
<path d="M195.7643 115.3521
L180.7643 115.3521
" />
<path d="M195.7643 130.3521
L195.7643 115.3521
" />
<path d="M180.7643 115.3521
L180.7643 130.3521
" />
<path d="M180.7643 130.3521
L195.7643 130.3521
" />
<path d="M195.7643 98.3521
L180.7643 98.3521
" />
<path d="M195.7643 113.3521
L195.7643 98.3521
" />
<path d="M180.7643 98.3521
L180.7643 113.3521
" />
<path d="M180.7643 113.3521
L195.7643 113.3521
" />
<path d="M239.7340 156.3530
L226.2521 149.7774
" />
<path d="M233.1584 169.8349
L239.7340 156.3530
" />
<path d="M226.2521 149.7774
L219.6765 163.2593
" />
<path d="M219.6765 163.2593
L233.1584 169.8349
" />
<path d="M157.5364 112.0075
L156.7513 97.0281
" />
<path d="M156.7513 97.0281
L141.7719 97.8131
" />
<path d="M142.5569 112.7925
L157.5364 112.0075
" />
<path d="M141.7719 97.8131
L142.5569 112.7925
" />
<path style="fill:none; 
stroke:#000000; stroke-width:0.1500; stroke-opacity:1; 
stroke-linecap:round; stroke-linejoin:round;fill:none"
d="M 237.4428,141.4121
223.4428,141.4121
223.4428,127.4121
237.4428,127.4121
Z" /> 
<path d="M122.5761 139.5417
L121.2688 124.5988
" />
<path d="M121.2688 124.5988
L106.3259 125.9061
" />
<path d="M107.6332 140.8491
L122.5761 139.5417
" />
<path d="M106.3259 125.9061
L107.6332 140.8491
" />
<path d="M156.6466 95.0308
L155.8616 80.0514
" />
<path d="M155.8616 80.0514
L140.8822 80.8364
" />
<path d="M141.6672 95.8158
L156.6466 95.0308
" />
<path d="M140.8822 80.8364
L141.6672 95.8158
" />
</g>
<g style="fill:none; 
stroke:#000000; stroke-width:0.1000; stroke-opacity:1; 
stroke-linecap:round; stroke-linejoin:round;">
<circle cx="159.5396" cy="88.1491" r="1.8000" /> 
<circle cx="239.0418" cy="145.4773" r="1.8000" /> 
</g>
<g style="fill:none; 
stroke:#000000; stroke-width:0.1500; stroke-opacity:1; 
stroke-linecap:round; stroke-linejoin:round;">
<path d="M121.0945 122.6064
L119.7871 107.6635
" />
<path d="M119.7871 107.6635
L104.8442 108.9708
" />
<path d="M106.1515 123.9138
L121.0945 122.6064
" />
<path d="M104.8442 108.9708
L106.1515 123.9138
" />
<path d="M177.7644 127.3521
L177.7644 112.3521
" />
<path d="M177.7644 112.3521
L162.7644 112.3521
" />
<path d="M162.7644 127.3521
L177.7644 127.3521
" />
<path d="M162.7644 112.3521
L162.7644 127.3521
" />
</g>
<g style="fill:none; 
stroke:#000000; stroke-width:0.1000; stroke-opacity:1; 
stroke-linecap:round; stroke-linejoin:round;">
<circle cx="122.7098" cy="123.4555" r="1.8000" /> 
</g>
<g style="fill:none; 
stroke:#000000; stroke-width:0.1500; stroke-opacity:1; 
stroke-linecap:round; stroke-linejoin:round;">
<path d="M158.4261 128.9842
L157.6410 114.0048
" />
<path d="M157.6410 114.0048
L142.6616 114.7898
" />
<path d="M143.4466 129.7692
L158.4261 128.9842
" />
<path d="M142.6616 114.7898
L143.4466 129.7692
" />
<path d="M137.5443 104.1023
L136.2370 89.1594
" />
<path d="M136.2370 89.1594
L121.2941 90.4667
" />
<path d="M122.6014 105.4096
L137.5443 104.1023
" />
<path d="M121.2941 90.4667
L122.6014 105.4096
" />
</g>
<g style="fill:none; 
stroke:#000000; stroke-width:0.1000; stroke-opacity:1; 
stroke-linecap:round; stroke-linejoin:round;">
<circle cx="179.9614" cy="151.9035" r="1.8000" /> 
</g>
<g style="fill:none; 
stroke:#000000; stroke-width:0.1500; stroke-opacity:1; 
stroke-linecap:round; stroke-linejoin:round;">
<path d="M177.7643 93.3521
L177.7643 78.3521
" />
<path d="M177.7643 78.3521
L162.7643 78.3521
" />
<path d="M162.7643 93.3521
L177.7643 93.3521
" />
<path d="M162.7643 78.3521
L162.7643 93.3521
" />
<path d="M223.5561 148.4626
L210.0742 141.8871
" />
<path d="M216.9805 161.9446
L223.5561 148.4626
" />
<path d="M210.0742 141.8871
L203.4986 155.3690
" />
<path d="M203.4986 155.3690
L216.9805 161.9446
" />
<path d="M139.0260 121.0376
L137.7186 106.0947
" />
<path d="M137.7186 106.0947
L122.7757 107.4020
" />
<path d="M124.0830 122.3450
L139.0260 121.0376
" />
<path d="M122.7757 107.4020
L124.0830 122.3450
" />
<path d="M177.7643 110.3521
L177.7643 95.3521
" />
<path d="M177.7643 95.3521
L162.7643 95.3521
" />
<path d="M162.7643 110.3521
L177.7643 110.3521
" />
<path d="M162.7643 95.3521
L162.7643 110.3521
" />
<path d="M140.5076 137.9729
L139.2003 123.0300
" />
<path d="M139.2003 123.0300
L124.2574 124.3373
" />
<path d="M125.5647 139.2803
L140.5076 137.9729
" />
<path d="M124.2574 124.3373
L125.5647 139.2803
" />
<path d="M119.6128 105.6711
L118.3055 90.7282
" />
<path d="M118.3055 90.7282
L103.3626 92.0355
" />
<path d="M104.6699 106.9785
L119.6128 105.6711
" />
<path d="M103.3626 92.0355
L104.6699 106.9785
" />
<path d="M213.7644 118.3521
L213.7644 103.3521
" />
<path d="M213.7644 103.3521
L198.7644 103.3521
" />
<path d="M198.7644 118.3521
L213.7644 118.3521
" />
<path d="M198.7644 103.3521
L198.7644 118.3521
" />
<path d="M213.7644 135.3521
L213.7644 120.3521
" />
<path d="M213.7644 120.3521
L198.7644 120.3521
" />
<path d="M198.7644 135.3521
L213.7644 135.3521
" />
<path d="M198.7644 120.3521
L198.7644 135.3521
" />
<path d="M213.7643 101.3521
L213.7643 86.3521
" />
<path d="M213.7643 86.3521
L198.7643 86.3521
" />
<path d="M198.7643 101.3521
L213.7643 101.3521
" />
<path d="M198.7643 86.3521
L198.7643 101.3521
" />
<path d="M195.7644 81.3521
L180.7643 81.3521
" />
<path d="M195.7643 96.3521
L195.7644 81.3521
" />
<path d="M180.7643 81.3521
L180.7643 96.3521
" />
<path d="M180.7643 96.3521
L195.7643 96.3521
" />
</g>
<g style="fill:none; 
stroke:#000000; stroke-width:0.1000; stroke-opacity:1; 
stroke-linecap:round; stroke-linejoin:round;">
<circle cx="242.7502" cy="84.3141" r="1.8000" /> 
</g>
<g style="fill:none; 
stroke:#000000; stroke-width:0.1500; stroke-opacity:1; 
stroke-linecap:round; stroke-linejoin:round;">
<path d="M99.4506 140.9202 A2.0000 2.0000 0.0 0 0 101.6253 142.9125" />
<path d="M136.6837 85.7399
L136.6837 76.1824
" />
<path d="M214.0156 167.7066 A1.0000 1.0000 0.0 0 0 214.4743 169.0429" />
<path d="M215.1714 163.0170
L201.5987 156.6768
" />
<path d="M201.5987 156.6768 A1.0002 1.0002 0.0 0 0 201.2051 156.5833" />
<path d="M181.2693 76.1824 A0.9999 0.9999 0.0 0 0 180.2693 75.1824" />
<path d="M246.0161 81.6688
L246.0161 150.2834
" />
<path d="M199.9129 79.5352
L199.9129 79.6688
" />
<path d="M181.0790 133.5441
L181.0790 146.5441
" />
<path d="M135.7709 86.7360 A1.0000 1.0000 0.0 0 0 136.6837 85.7399" />
<path d="M100.3597 89.8342
L135.7709 86.7361
" />
<path d="M245.9149 150.7217
L233.0760 177.0452
" />
<path d="M215.6470 164.3614 A1.0000 1.0000 0.0 0 0 215.1714 163.0170" />
<path d="M101.6253 142.9125
L144.2073 139.1811
" />
<path d="M182.2693 78.5352
L198.9129 78.5352
" />
<path d="M99.4507 140.9202
L99.4507 90.9181
" />
<path d="M181.2694 77.5352 A1.0000 1.0000 0.0 0 0 182.2693 78.5352" />
<path d="M231.7371 177.5048
L214.4743 169.0429
" />
<path d="M246.0160 81.6688 A0.9999 0.9999 0.0 0 0 245.0161 80.6688" />
<path d="M176.1768 150.1419
L144.2073 150.1420
" />
<path d="M149.6790 133.5441
L149.6790 146.5441
" />
<path d="M149.6790 133.5441
L181.0790 133.5441
" />
<path d="M199.9129 79.5352 A0.9999 0.9999 0.0 0 0 198.9129 78.5352" />
<path d="M137.6837 75.1824 A1.0000 1.0000 0.0 0 0 136.6837 76.1824" />
<path d="M176.1768 155.1419 A1.0000 1.0000 0.0 0 0 177.1472 156.1415" />
<path d="M200.9129 80.6688
L245.0161 80.6688
" />
<path d="M176.1768 155.1419
L176.1768 150.1419
" />
<path d="M245.9149 150.7217 A1.0000 1.0000 0.0 0 0 246.0161 150.2834" />
<path d="M201.2051 156.5833
L177.1472 156.1415
" />
<path d="M199.9129 79.6688 A1.0001 1.0001 0.0 0 0 200.9129 80.6688" />
<path d="M149.6790 146.5441
L181.0790 146.5441
" />
<path d="M144.2073 150.1420
L144.2073 139.1811
" />
<path d="M181.2693 76.1824
L181.2693 77.5352
" />
<path d="M214.0156 167.7066
L215.6470 164.3614
" />
<path d="M137.6837 75.1824
L180.2693 75.1824
" />
<path d="M100.3597 89.8342 A0.9999 0.9999 0.0 0 0 99.4507 90.9181" />
<path d="M231.7371 177.5048 A1.0000 1.0000 0.0 0 0 233.0760 177.0452" />
</g> 
</svg>
