G04 #@! TF.GenerationSoftware,KiCad,Pcbnew,8.0.4*
G04 #@! TF.CreationDate,2024-08-09T12:35:51+02:00*
G04 #@! TF.ProjectId,totem_0_3,746f7465-6d5f-4305-9f33-2e6b69636164,0.3*
G04 #@! TF.SameCoordinates,Original*
G04 #@! TF.FileFunction,Paste,Top*
G04 #@! TF.FilePolarity,Positive*
%FSLAX46Y46*%
G04 Gerber Fmt 4.6, Leading zero omitted, Abs format (unit mm)*
G04 Created by KiCad (PCBNEW 8.0.4) date 2024-08-09 12:35:51*
%MOMM*%
%LPD*%
G01*
G04 APERTURE LIST*
G04 Aperture macros list*
%AMRotRect*
0 Rectangle, with rotation*
0 The origin of the aperture is its center*
0 $1 length*
0 $2 width*
0 $3 Rotation angle, in degrees counterclockwise*
0 Add horizontal line*
21,1,$1,$2,0,0,$3*%
G04 Aperture macros list end*
%ADD10R,1.000000X0.700000*%
%ADD11R,2.800000X1.000000*%
%ADD12RotRect,2.600000X2.600000X150.000000*%
%ADD13RotRect,2.600000X2.600000X165.000000*%
%ADD14R,2.600000X2.600000*%
%ADD15RotRect,2.600000X2.600000X190.000000*%
%ADD16RotRect,2.600000X2.600000X184.000000*%
G04 APERTURE END LIST*
D10*
X213940800Y-290526400D03*
X213940800Y-287526400D03*
X213940800Y-286026400D03*
D11*
X215840800Y-292126400D03*
X215840800Y-284176400D03*
D12*
X208995751Y-309604892D03*
X197893158Y-305735148D03*
D13*
X189437898Y-300545617D03*
X177712053Y-299681294D03*
D14*
X161535118Y-308620241D03*
X173085118Y-306420241D03*
D15*
X100051558Y-288016939D03*
X89059054Y-292189153D03*
D14*
X191111160Y-278730884D03*
X179561160Y-280930884D03*
X173111195Y-276010782D03*
X161561195Y-278210782D03*
X155111182Y-267574301D03*
X143561182Y-269774301D03*
D16*
X125093090Y-280556611D03*
X136461490Y-277556282D03*
D15*
X119153616Y-292408890D03*
X108161112Y-296581104D03*
D14*
X191111159Y-261730664D03*
X179561159Y-263930664D03*
X173111195Y-259010562D03*
X161561195Y-261210562D03*
X155111183Y-250574083D03*
X143561183Y-252774083D03*
D16*
X123907215Y-263597804D03*
X135275615Y-260597475D03*
D15*
X116201558Y-275666937D03*
X105209054Y-279839151D03*
D14*
X191111159Y-244730444D03*
X179561159Y-246930444D03*
X173111195Y-242010342D03*
X161561195Y-244210342D03*
X155111184Y-233573862D03*
X143561184Y-235773862D03*
D16*
X122721339Y-246638996D03*
X134089739Y-243638667D03*
D15*
X113249502Y-258924992D03*
X102256998Y-263097206D03*
M02*
