M48
; DRILL file {KiCad 8.0.4} date 2024-08-09T12:36:01+0200
; FORMAT={-:-/ absolute / metric / decimal}
; #@! TF.CreationDate,2024-08-09T12:36:01+02:00
; #@! TF.GenerationSoftware,Kicad,Pcbnew,8.0.4
; #@! TF.FileFunction,Plated,1,2,PTH
FMAT,2
METRIC
; #@! TA.AperFunction,Plated,PTH,ViaDrill
T1C0.300
; #@! TA.AperFunction,Plated,PTH,ComponentDrill
T2C1.092
; #@! TA.AperFunction,Plated,PTH,ComponentDrill
T3C1.250
; #@! TA.AperFunction,Plated,PTH,ComponentDrill
T4C1.300
; #@! TA.AperFunction,Plated,PTH,ComponentDrill
T5C3.200
%
G90
G05
T1
X102.066Y-292.096
X113.808Y-262.815
X116.764Y-279.574
X119.402Y-283.516
X122.303Y-291.854
X134.191Y-246.88
X135.396Y-264.11
X136.583Y-281.087
X139.722Y-285.421
X153.54Y-235.481
X153.54Y-252.499
X153.54Y-269.39
X157.883Y-247.702
X169.983Y-310.47
X171.447Y-243.863
X171.447Y-277.899
X171.574Y-260.881
X189.47Y-246.519
X189.481Y-263.548
X189.481Y-280.566
X192.589Y-300.546
X208.996Y-304.847
X212.655Y-286.084
X212.823Y-287.526
T2
X200.421Y-249.369
X200.421Y-239.209
X200.421Y-241.749
X200.421Y-244.289
X200.421Y-246.829
X200.421Y-251.909
X200.421Y-254.449
X200.421Y-256.989
X200.421Y-259.529
X200.421Y-262.069
X200.421Y-264.609
X200.421Y-267.149
X202.961Y-262.069
X215.661Y-239.209
X215.661Y-241.749
X215.661Y-244.289
X215.661Y-246.829
X215.661Y-249.369
X215.661Y-251.909
X215.661Y-254.449
X215.661Y-259.529
X215.661Y-262.069
X215.661Y-264.609
X215.661Y-267.149
X215.661Y-256.989
T3
X153.707Y-284.356
X158.707Y-284.356
T4
X214.398Y-272.24
X214.398Y-278.74
T5
X101.007Y-306.37
X102.29Y-238.884
X193.055Y-239.082
X213.509Y-303.455
M30
