G04 #@! TF.GenerationSoftware,KiCad,Pcbnew,8.0.4*
G04 #@! TF.CreationDate,2024-08-09T12:35:52+02:00*
G04 #@! TF.ProjectId,totem_0_3,746f7465-6d5f-4305-9f33-2e6b69636164,0.3*
G04 #@! TF.SameCoordinates,Original*
G04 #@! TF.FileFunction,Paste,Bot*
G04 #@! TF.FilePolarity,Positive*
%FSLAX46Y46*%
G04 Gerber Fmt 4.6, Leading zero omitted, Abs format (unit mm)*
G04 Created by KiCad (PCBNEW 8.0.4) date 2024-08-09 12:35:52*
%MOMM*%
%LPD*%
G01*
G04 APERTURE LIST*
G04 Aperture macros list*
%AMRotRect*
0 Rectangle, with rotation*
0 The origin of the aperture is its center*
0 $1 length*
0 $2 width*
0 $3 Rotation angle, in degrees counterclockwise*
0 Add horizontal line*
21,1,$1,$2,0,0,$3*%
G04 Aperture macros list end*
%ADD10R,1.000000X0.700000*%
%ADD11R,2.800000X1.000000*%
%ADD12RotRect,2.600000X2.600000X150.000000*%
%ADD13RotRect,2.600000X2.600000X165.000000*%
%ADD14R,2.600000X2.600000*%
%ADD15RotRect,2.600000X2.600000X190.000000*%
%ADD16RotRect,2.600000X2.600000X184.000000*%
G04 APERTURE END LIST*
D10*
X213940800Y-286087600D03*
X213940800Y-289087600D03*
X213940800Y-290587600D03*
D11*
X215840800Y-284487600D03*
X215840800Y-292437600D03*
D12*
X203323285Y-306329892D03*
X212225878Y-314010148D03*
D13*
X183111084Y-298850352D03*
X193698126Y-303964749D03*
D14*
X168085118Y-308620241D03*
X156535118Y-306420241D03*
D15*
X93601067Y-289154335D03*
X105357622Y-289315275D03*
D14*
X184561160Y-278730884D03*
X196111160Y-280930884D03*
X166561195Y-276010782D03*
X178111195Y-278210782D03*
X148561182Y-267574301D03*
X160111182Y-269774301D03*
D16*
X141602775Y-279402141D03*
X129927446Y-278013187D03*
D15*
X112703125Y-293546286D03*
X124459680Y-293707226D03*
D14*
X184561159Y-261730664D03*
X196111159Y-263930664D03*
X166561195Y-259010562D03*
X178111195Y-261210562D03*
X148561183Y-250574083D03*
X160111183Y-252774083D03*
D16*
X140416900Y-262443334D03*
X128741571Y-261054380D03*
D15*
X109751067Y-276804333D03*
X121507622Y-276965273D03*
D14*
X184561159Y-244730444D03*
X196111159Y-246930444D03*
X166561195Y-242010342D03*
X178111195Y-244210342D03*
X148561184Y-233573862D03*
X160111184Y-235773862D03*
D16*
X139231024Y-245484526D03*
X127555695Y-244095572D03*
D15*
X106799011Y-260062388D03*
X118555566Y-260223328D03*
M02*
