%TF.GenerationSoftware,KiCad,Pcbnew,8.0.4*%
%TF.CreationDate,2024-08-09T12:36:02+02:00*%
%TF.ProjectId,totem_0_3,746f7465-6d5f-4305-9f33-2e6b69636164,0.3*%
%TF.SameCoordinates,Original*%
%TF.FileFunction,Drillmap*%
%TF.FilePolarity,Positive*%
%FSLAX45Y45*%
G04 Gerber Fmt 4.5, Leading zero omitted, Abs format (unit mm)*
G04 Created by KiCad (PCBNEW 8.0.4) date 2024-08-09 12:36:02*
%MOMM*%
%LPD*%
G01*
G04 APERTURE LIST*
%ADD10C,0.010000*%
%ADD11C,0.100000*%
%ADD12C,0.200000*%
%ADD13C,0.109220*%
%ADD14C,0.125000*%
%ADD15C,0.130000*%
%ADD16C,0.320000*%
G04 APERTURE END LIST*
D10*
X9057973Y-30459630D02*
X9733895Y-30340391D01*
X14210384Y-23115150D02*
X14210384Y-23501089D01*
X9833732Y-30994794D02*
X15556846Y-30994794D01*
X16160350Y-23501089D02*
X16160350Y-23115150D01*
X16130463Y-23085517D02*
X16120663Y-23085517D01*
X16101034Y-23085517D01*
X16072242Y-23085517D01*
X16034950Y-23085517D01*
X15989825Y-23085517D01*
X15937530Y-23085517D01*
X15878732Y-23085517D01*
X15814094Y-23085517D01*
X15744282Y-23085517D01*
X15669962Y-23085517D01*
X15591797Y-23085517D01*
X15510453Y-23085517D01*
X15426595Y-23085517D01*
X15340887Y-23085517D01*
X15253996Y-23085517D01*
X15166585Y-23085517D01*
X15079320Y-23085517D01*
X14992866Y-23085517D01*
X14907887Y-23085517D01*
X14825049Y-23085517D01*
X14745017Y-23085517D01*
X14668455Y-23085517D01*
X14596029Y-23085517D01*
X14528403Y-23085517D01*
X14466243Y-23085517D01*
X14410214Y-23085517D01*
X14360980Y-23085517D01*
X14319207Y-23085517D01*
X14285558Y-23085517D01*
X14260701Y-23085517D01*
X14245299Y-23085517D01*
X14240017Y-23085517D01*
X14240017Y-23085517D02*
X14238504Y-23085556D01*
X14237010Y-23085672D01*
X14235536Y-23085862D01*
X14234084Y-23086125D01*
X14232657Y-23086459D01*
X14231256Y-23086861D01*
X14229883Y-23087331D01*
X14228540Y-23087865D01*
X14227230Y-23088463D01*
X14225953Y-23089122D01*
X14224712Y-23089840D01*
X14223509Y-23090615D01*
X14222346Y-23091445D01*
X14221225Y-23092329D01*
X14220147Y-23093264D01*
X14219115Y-23094249D01*
X14218130Y-23095281D01*
X14217195Y-23096358D01*
X14216311Y-23097480D01*
X14215481Y-23098643D01*
X14214706Y-23099846D01*
X14213988Y-23101087D01*
X14213329Y-23102364D01*
X14212732Y-23103674D01*
X14212197Y-23105017D01*
X14211728Y-23106390D01*
X14211325Y-23107791D01*
X14210991Y-23109218D01*
X14210728Y-23110669D01*
X14210538Y-23112143D01*
X14210423Y-23113638D01*
X14210384Y-23115150D01*
X21798086Y-24924025D02*
X21798086Y-24919654D01*
X21798086Y-24908089D01*
X21798086Y-24889810D01*
X21798086Y-24865297D01*
X21798086Y-24835032D01*
X21798086Y-24799497D01*
X21798086Y-24759170D01*
X21798086Y-24714535D01*
X21798086Y-24666071D01*
X21798086Y-24614259D01*
X21798086Y-24559581D01*
X21798086Y-24502517D01*
X21798086Y-24443549D01*
X21798086Y-24383157D01*
X21798086Y-24321822D01*
X21798086Y-24260026D01*
X21798086Y-24198248D01*
X21798086Y-24136971D01*
X21798086Y-24076674D01*
X21798086Y-24017840D01*
X21798086Y-23960949D01*
X21798086Y-23906481D01*
X21798086Y-23854918D01*
X21798086Y-23806741D01*
X21798086Y-23762431D01*
X21798086Y-23722468D01*
X21798086Y-23687334D01*
X21798086Y-23657510D01*
X21798086Y-23633476D01*
X21798086Y-23615713D01*
X21798086Y-23604703D01*
X21798086Y-23600926D01*
X21797386Y-30693168D02*
X21797737Y-29164025D01*
X15586479Y-31145077D02*
X15597179Y-31145077D01*
X15609404Y-31145077D01*
X15623106Y-31145077D01*
X15638237Y-31145077D01*
X15654747Y-31145077D01*
X15672590Y-31145077D01*
X15691716Y-31145077D01*
X15712079Y-31145077D01*
X15733629Y-31145077D01*
X15756318Y-31145077D01*
X15780098Y-31145077D01*
X15804921Y-31145077D01*
X15830739Y-31145077D01*
X15857504Y-31145077D01*
X15885167Y-31145077D01*
X15913680Y-31145077D01*
X15942995Y-31145077D01*
X15973064Y-31145077D01*
X16003839Y-31145077D01*
X16035271Y-31145077D01*
X16067313Y-31145077D01*
X16099915Y-31145077D01*
X16133031Y-31145077D01*
X16166611Y-31145077D01*
X16200607Y-31145077D01*
X16234972Y-31145077D01*
X16269657Y-31145077D01*
X16304614Y-31145077D01*
X16339795Y-31145077D01*
X16375151Y-31145077D01*
X16410635Y-31145077D01*
X16446198Y-31145077D01*
D11*
X21797946Y-30693488D02*
G75*
G02*
X21732933Y-30781385I-404184J230964D01*
G01*
D10*
X16446198Y-31145077D02*
X16487884Y-31145085D01*
X16529653Y-31145135D01*
X16571582Y-31145272D01*
X16613754Y-31145538D01*
X16656247Y-31145978D01*
X16699141Y-31146633D01*
X16742516Y-31147548D01*
X16786453Y-31148765D01*
X16831030Y-31150328D01*
X16876327Y-31152280D01*
X16922425Y-31154664D01*
X16969404Y-31157523D01*
X17017342Y-31160901D01*
X17066321Y-31164841D01*
X17116419Y-31169386D01*
X17167717Y-31174579D01*
X17220295Y-31180463D01*
X17274231Y-31187082D01*
X17329608Y-31194479D01*
X17386503Y-31202697D01*
X17444997Y-31211779D01*
X17505169Y-31221769D01*
X17567101Y-31232709D01*
X17630870Y-31244644D01*
X17696558Y-31257615D01*
X17764244Y-31271667D01*
X17834008Y-31286842D01*
X17905929Y-31303185D01*
X17980089Y-31320737D01*
X18056565Y-31339542D01*
X18135439Y-31359644D01*
X18216790Y-31381086D01*
D11*
X21541722Y-31041361D02*
G75*
G02*
X21732934Y-30781387I1591940J-970573D01*
G01*
D10*
X15556846Y-30994794D02*
X15556846Y-31115444D01*
X15556846Y-31115444D02*
X15556884Y-31116957D01*
X15556996Y-31118451D01*
X15557182Y-31119925D01*
X15557439Y-31121377D01*
X15557765Y-31122804D01*
X15558160Y-31124205D01*
X15558620Y-31125578D01*
X15559144Y-31126920D01*
X15559731Y-31128231D01*
X15560379Y-31129508D01*
X15561086Y-31130749D01*
X15561850Y-31131952D01*
X15562670Y-31133115D01*
X15563543Y-31134236D01*
X15564469Y-31135314D01*
X15565445Y-31136346D01*
X15566469Y-31137331D01*
X15567540Y-31138266D01*
X15568657Y-31139150D01*
X15569816Y-31139980D01*
X15571018Y-31140755D01*
X15572259Y-31141473D01*
X15573538Y-31142132D01*
X15574854Y-31142729D01*
X15576204Y-31143264D01*
X15577587Y-31143733D01*
X15579002Y-31144136D01*
X15580445Y-31144470D01*
X15581917Y-31144733D01*
X15583414Y-31144923D01*
X15584935Y-31145038D01*
X15586479Y-31145077D01*
X21798086Y-24924025D02*
X21797737Y-29164025D01*
X9733896Y-28563450D02*
X8754232Y-28736311D01*
X9833732Y-23501089D02*
X9828572Y-23501220D01*
X9823483Y-23501606D01*
X9818470Y-23502242D01*
X9813540Y-23503122D01*
X9808698Y-23504239D01*
X9803951Y-23505587D01*
X9799305Y-23507159D01*
X9794766Y-23508950D01*
X9790340Y-23510952D01*
X9786034Y-23513160D01*
X9781853Y-23515567D01*
X9777803Y-23518167D01*
X9773891Y-23520954D01*
X9770123Y-23523921D01*
X9766506Y-23527062D01*
X9763044Y-23530370D01*
X9759744Y-23533840D01*
X9756613Y-23537464D01*
X9753656Y-23541237D01*
X9750880Y-23545152D01*
X9748291Y-23549203D01*
X9745895Y-23553384D01*
X9743698Y-23557688D01*
X9741706Y-23562109D01*
X9739926Y-23566641D01*
X9738363Y-23571276D01*
X9737023Y-23576010D01*
X9735914Y-23580835D01*
X9735040Y-23585746D01*
X9734408Y-23590735D01*
X9734025Y-23595797D01*
X9733895Y-23600926D01*
X21698250Y-23501089D02*
X21611978Y-23501089D01*
X21504221Y-23501089D01*
X21376567Y-23501089D01*
X21230606Y-23501089D01*
X21067925Y-23501089D01*
X20890114Y-23501089D01*
X20698760Y-23501089D01*
X20495453Y-23501089D01*
X20281781Y-23501089D01*
X20059333Y-23501089D01*
X19829697Y-23501089D01*
X19594461Y-23501089D01*
X19355215Y-23501089D01*
X19113547Y-23501089D01*
X18871046Y-23501089D01*
X18629300Y-23501089D01*
X18389898Y-23501089D01*
X18154427Y-23501089D01*
X17924478Y-23501089D01*
X17701639Y-23501089D01*
X17487497Y-23501089D01*
X17283642Y-23501089D01*
X17091663Y-23501089D01*
X16913147Y-23501089D01*
X16749683Y-23501089D01*
X16602861Y-23501089D01*
X16474269Y-23501089D01*
X16365494Y-23501089D01*
X16278126Y-23501089D01*
X16213754Y-23501089D01*
X16173966Y-23501089D01*
X16160350Y-23501089D01*
X9023754Y-30435642D02*
X9024054Y-30437146D01*
X9024425Y-30438616D01*
X9024864Y-30440051D01*
X9025369Y-30441447D01*
X9025938Y-30442805D01*
X9026569Y-30444123D01*
X9027260Y-30445400D01*
X9028009Y-30446633D01*
X9028814Y-30447822D01*
X9029672Y-30448965D01*
X9030582Y-30450060D01*
X9031542Y-30451107D01*
X9032550Y-30452104D01*
X9033602Y-30453050D01*
X9034699Y-30453942D01*
X9035836Y-30454780D01*
X9037013Y-30455562D01*
X9038227Y-30456287D01*
X9039476Y-30456953D01*
X9040759Y-30457560D01*
X9042072Y-30458104D01*
X9043414Y-30458586D01*
X9044783Y-30459003D01*
X9046177Y-30459355D01*
X9047594Y-30459640D01*
X9049031Y-30459855D01*
X9050487Y-30460001D01*
X9051959Y-30460076D01*
X9053446Y-30460077D01*
X9054945Y-30460004D01*
X9056455Y-30459856D01*
X9057973Y-30459630D01*
X20696113Y-32505742D02*
X21541722Y-31041361D01*
X8754232Y-28736311D02*
X8752727Y-28736611D01*
X8751257Y-28736982D01*
X8749823Y-28737421D01*
X8748426Y-28737926D01*
X8747068Y-28738495D01*
X8745750Y-28739126D01*
X8744474Y-28739817D01*
X8743240Y-28740566D01*
X8742051Y-28741371D01*
X8740908Y-28742229D01*
X8739813Y-28743140D01*
X8738766Y-28744099D01*
X8737769Y-28745107D01*
X8736824Y-28746160D01*
X8735931Y-28747256D01*
X8735093Y-28748393D01*
X8734311Y-28749570D01*
X8733586Y-28750784D01*
X8732920Y-28752034D01*
X8732314Y-28753316D01*
X8731769Y-28754629D01*
X8731287Y-28755971D01*
X8730870Y-28757340D01*
X8730518Y-28758734D01*
X8730234Y-28760151D01*
X8730018Y-28761588D01*
X8729872Y-28763044D01*
X8729797Y-28764517D01*
X8729796Y-28766004D01*
X8729869Y-28767503D01*
X8730017Y-28769012D01*
X8730243Y-28770530D01*
X8730243Y-28770530D02*
X9023754Y-30435642D01*
X14210384Y-23501089D02*
X14202228Y-23501089D01*
X14169471Y-23501089D01*
X14113745Y-23501089D01*
X14036680Y-23501089D01*
X13939905Y-23501089D01*
X13825050Y-23501089D01*
X13693747Y-23501089D01*
X13547625Y-23501089D01*
X13388315Y-23501089D01*
X13217447Y-23501089D01*
X13036650Y-23501089D01*
X12847556Y-23501089D01*
X12651795Y-23501089D01*
X12450996Y-23501089D01*
X12246790Y-23501089D01*
X12040807Y-23501089D01*
X11834678Y-23501089D01*
X11630033Y-23501089D01*
X11428502Y-23501089D01*
X11231715Y-23501089D01*
X11041303Y-23501089D01*
X10858895Y-23501089D01*
X10686122Y-23501089D01*
X10524615Y-23501089D01*
X10376003Y-23501089D01*
X10241916Y-23501089D01*
X10123986Y-23501089D01*
X10023842Y-23501089D01*
X9943114Y-23501089D01*
X9883433Y-23501089D01*
X9846429Y-23501089D01*
X9833732Y-23501089D01*
X21798086Y-23600926D02*
X21797955Y-23595766D01*
X21797569Y-23590677D01*
X21796933Y-23585664D01*
X21796053Y-23580734D01*
X21794936Y-23575892D01*
X21793588Y-23571145D01*
X21792016Y-23566499D01*
X21790225Y-23561960D01*
X21788223Y-23557534D01*
X21786015Y-23553228D01*
X21783608Y-23549047D01*
X21781008Y-23544997D01*
X21778221Y-23541085D01*
X21775254Y-23537317D01*
X21772114Y-23533699D01*
X21768805Y-23530238D01*
X21765336Y-23526938D01*
X21761711Y-23523807D01*
X21757938Y-23520850D01*
X21754023Y-23518074D01*
X21749972Y-23515485D01*
X21745791Y-23513089D01*
X21741487Y-23510892D01*
X21737066Y-23508900D01*
X21732535Y-23507120D01*
X21727899Y-23505557D01*
X21723166Y-23504217D01*
X21718340Y-23503108D01*
X21713430Y-23502234D01*
X21708440Y-23501602D01*
X21703378Y-23501219D01*
X21698250Y-23501089D01*
X19889663Y-32074294D02*
X19918555Y-32090984D01*
X19947711Y-32107826D01*
X19977073Y-32124787D01*
X20006582Y-32141833D01*
X20036180Y-32158930D01*
X20065809Y-32176044D01*
X20095411Y-32193142D01*
X20124927Y-32210191D01*
X20154299Y-32227155D01*
X20183468Y-32244002D01*
X20212376Y-32260698D01*
X20240965Y-32277209D01*
X20269177Y-32293501D01*
X20296953Y-32309541D01*
X20324235Y-32325295D01*
X20350964Y-32340729D01*
X20377082Y-32355810D01*
X20402532Y-32370504D01*
X20427253Y-32384777D01*
X20451189Y-32398595D01*
X20474281Y-32411924D01*
X20496470Y-32424732D01*
X20517699Y-32436984D01*
X20537909Y-32448646D01*
X20557041Y-32459686D01*
X20575037Y-32470068D01*
X20591839Y-32479760D01*
X20607388Y-32488727D01*
X20621627Y-32496936D01*
X20634497Y-32504353D01*
X20645940Y-32510945D01*
X20655896Y-32516678D01*
X9733895Y-23600926D02*
X9733896Y-28563450D01*
X9733895Y-30894958D02*
X9734026Y-30900117D01*
X9734412Y-30905207D01*
X9735048Y-30910219D01*
X9735928Y-30915150D01*
X9737045Y-30919992D01*
X9738393Y-30924739D01*
X9739965Y-30929385D01*
X9741756Y-30933924D01*
X9743758Y-30938349D01*
X9745966Y-30942656D01*
X9748373Y-30946837D01*
X9750973Y-30950886D01*
X9753760Y-30954798D01*
X9756727Y-30958566D01*
X9759868Y-30962184D01*
X9763176Y-30965646D01*
X9766645Y-30968945D01*
X9770270Y-30972077D01*
X9774043Y-30975033D01*
X9777958Y-30977809D01*
X9782009Y-30980398D01*
X9786190Y-30982794D01*
X9790494Y-30984991D01*
X9794915Y-30986983D01*
X9799446Y-30988764D01*
X9804082Y-30990327D01*
X9808816Y-30991666D01*
X9813641Y-30992776D01*
X9818552Y-30993649D01*
X9823541Y-30994281D01*
X9828603Y-30994665D01*
X9833732Y-30994794D01*
X18216790Y-31381086D02*
X18297999Y-31403190D01*
X18376452Y-31425252D01*
X18452239Y-31447274D01*
X18525449Y-31469256D01*
X18596169Y-31491200D01*
X18664490Y-31513108D01*
X18730500Y-31534980D01*
X18794287Y-31556819D01*
X18855942Y-31578625D01*
X18915552Y-31600399D01*
X18973207Y-31622144D01*
X19028995Y-31643861D01*
X19083006Y-31665550D01*
X19135327Y-31687213D01*
X19186049Y-31708852D01*
X19235260Y-31730468D01*
X19283049Y-31752063D01*
X19329504Y-31773637D01*
X19374715Y-31795191D01*
X19418771Y-31816729D01*
X19461759Y-31838250D01*
X19503771Y-31859756D01*
X19544893Y-31881248D01*
X19585216Y-31902729D01*
X19624827Y-31924198D01*
X19663816Y-31945658D01*
X19702272Y-31967110D01*
X19740284Y-31988555D01*
X19777939Y-32009994D01*
X19815329Y-32031430D01*
X19852540Y-32052863D01*
X19889663Y-32074294D01*
X20655896Y-32516678D02*
X20657230Y-32517400D01*
X20658584Y-32518047D01*
X20659956Y-32518619D01*
X20661343Y-32519116D01*
X20662742Y-32519540D01*
X20664152Y-32519891D01*
X20665570Y-32520169D01*
X20666992Y-32520376D01*
X20668417Y-32520513D01*
X20669842Y-32520579D01*
X20671265Y-32520576D01*
X20672683Y-32520504D01*
X20674093Y-32520364D01*
X20675493Y-32520157D01*
X20676881Y-32519883D01*
X20678253Y-32519544D01*
X20679609Y-32519140D01*
X20680944Y-32518671D01*
X20682256Y-32518138D01*
X20683543Y-32517542D01*
X20684803Y-32516885D01*
X20686032Y-32516165D01*
X20687229Y-32515385D01*
X20688391Y-32514545D01*
X20689514Y-32513645D01*
X20690598Y-32512686D01*
X20691639Y-32511670D01*
X20692634Y-32510596D01*
X20693582Y-32509465D01*
X20694479Y-32508279D01*
X20695324Y-32507038D01*
X20696113Y-32505742D01*
X9733895Y-30340391D02*
X9733895Y-30894958D01*
X16160350Y-23115150D02*
X16160311Y-23113638D01*
X16160195Y-23112143D01*
X16160005Y-23110669D01*
X16159742Y-23109218D01*
X16159408Y-23107791D01*
X16159006Y-23106390D01*
X16158536Y-23105017D01*
X16158002Y-23103674D01*
X16157404Y-23102363D01*
X16156745Y-23101087D01*
X16156028Y-23099846D01*
X16155253Y-23098643D01*
X16154422Y-23097480D01*
X16153538Y-23096358D01*
X16152603Y-23095280D01*
X16151619Y-23094248D01*
X16150586Y-23093264D01*
X16149509Y-23092328D01*
X16148387Y-23091445D01*
X16147224Y-23090614D01*
X16146021Y-23089839D01*
X16144780Y-23089121D01*
X16143504Y-23088463D01*
X16142193Y-23087865D01*
X16140850Y-23087331D01*
X16139477Y-23086861D01*
X16138076Y-23086459D01*
X16136649Y-23086125D01*
X16135198Y-23085862D01*
X16133724Y-23085672D01*
X16132229Y-23085556D01*
X16130717Y-23085517D01*
D12*
D11*
X10191581Y-29194579D02*
X10221581Y-29224579D01*
X10221581Y-29194579D02*
X10191581Y-29224579D01*
X11365846Y-26266486D02*
X11395846Y-26296486D01*
X11395846Y-26266486D02*
X11365846Y-26296486D01*
X11661361Y-27942432D02*
X11691361Y-27972432D01*
X11691361Y-27942432D02*
X11661361Y-27972432D01*
X11925200Y-28336600D02*
X11955200Y-28366600D01*
X11955200Y-28336600D02*
X11925200Y-28366600D01*
X12215303Y-29170356D02*
X12245303Y-29200356D01*
X12245303Y-29170356D02*
X12215303Y-29200356D01*
X13404111Y-24673033D02*
X13434111Y-24703033D01*
X13434111Y-24673033D02*
X13404111Y-24703033D01*
X13524595Y-26396026D02*
X13554595Y-26426026D01*
X13554595Y-26396026D02*
X13524595Y-26426026D01*
X13643306Y-28093680D02*
X13673306Y-28123680D01*
X13673306Y-28093680D02*
X13643306Y-28123680D01*
X13957200Y-28527100D02*
X13987200Y-28557100D01*
X13987200Y-28527100D02*
X13957200Y-28557100D01*
X15338974Y-23533092D02*
X15368974Y-23563092D01*
X15368974Y-23533092D02*
X15338974Y-23563092D01*
X15338974Y-25234892D02*
X15368974Y-25264892D01*
X15368974Y-25234892D02*
X15338974Y-25264892D01*
X15338974Y-26923992D02*
X15368974Y-26953992D01*
X15368974Y-26923992D02*
X15338974Y-26953992D01*
X15773300Y-24755200D02*
X15803300Y-24785200D01*
X15803300Y-24755200D02*
X15773300Y-24785200D01*
X16983296Y-31032024D02*
X17013296Y-31062024D01*
X17013296Y-31032024D02*
X16983296Y-31062024D01*
X17129675Y-24371292D02*
X17159675Y-24401292D01*
X17159675Y-24371292D02*
X17129675Y-24401292D01*
X17129675Y-27774892D02*
X17159675Y-27804892D01*
X17159675Y-27774892D02*
X17129675Y-27804892D01*
X17142374Y-26073092D02*
X17172374Y-26103092D01*
X17172374Y-26073092D02*
X17142374Y-26103092D01*
X18932045Y-24636918D02*
X18962045Y-24666918D01*
X18962045Y-24636918D02*
X18932045Y-24666918D01*
X18933074Y-26339792D02*
X18963074Y-26369792D01*
X18963074Y-26339792D02*
X18933074Y-26369792D01*
X18933074Y-28041592D02*
X18963074Y-28071592D01*
X18963074Y-28041592D02*
X18933074Y-28071592D01*
X19243896Y-30039562D02*
X19273896Y-30069562D01*
X19273896Y-30039562D02*
X19243896Y-30069562D01*
X20884575Y-30469678D02*
X20914575Y-30499678D01*
X20914575Y-30469678D02*
X20884575Y-30499678D01*
X21250496Y-28593394D02*
X21280496Y-28623394D01*
X21280496Y-28593394D02*
X21250496Y-28623394D01*
X21267320Y-28737640D02*
X21297320Y-28767640D01*
X21297320Y-28737640D02*
X21267320Y-28767640D01*
D13*
X20096673Y-24936894D02*
G75*
G02*
X19987453Y-24936894I-54610J0D01*
G01*
X19987453Y-24936894D02*
G75*
G02*
X20096673Y-24936894I54610J0D01*
G01*
X20096673Y-23920894D02*
G75*
G02*
X19987453Y-23920894I-54610J0D01*
G01*
X19987453Y-23920894D02*
G75*
G02*
X20096673Y-23920894I54610J0D01*
G01*
X20096673Y-24174894D02*
G75*
G02*
X19987453Y-24174894I-54610J0D01*
G01*
X19987453Y-24174894D02*
G75*
G02*
X20096673Y-24174894I54610J0D01*
G01*
X20096673Y-24428894D02*
G75*
G02*
X19987453Y-24428894I-54610J0D01*
G01*
X19987453Y-24428894D02*
G75*
G02*
X20096673Y-24428894I54610J0D01*
G01*
X20096673Y-24682894D02*
G75*
G02*
X19987453Y-24682894I-54610J0D01*
G01*
X19987453Y-24682894D02*
G75*
G02*
X20096673Y-24682894I54610J0D01*
G01*
X20096673Y-25190894D02*
G75*
G02*
X19987453Y-25190894I-54610J0D01*
G01*
X19987453Y-25190894D02*
G75*
G02*
X20096673Y-25190894I54610J0D01*
G01*
X20096673Y-25444894D02*
G75*
G02*
X19987453Y-25444894I-54610J0D01*
G01*
X19987453Y-25444894D02*
G75*
G02*
X20096673Y-25444894I54610J0D01*
G01*
X20096673Y-25698894D02*
G75*
G02*
X19987453Y-25698894I-54610J0D01*
G01*
X19987453Y-25698894D02*
G75*
G02*
X20096673Y-25698894I54610J0D01*
G01*
X20096673Y-25952894D02*
G75*
G02*
X19987453Y-25952894I-54610J0D01*
G01*
X19987453Y-25952894D02*
G75*
G02*
X20096673Y-25952894I54610J0D01*
G01*
X20096673Y-26206894D02*
G75*
G02*
X19987453Y-26206894I-54610J0D01*
G01*
X19987453Y-26206894D02*
G75*
G02*
X20096673Y-26206894I54610J0D01*
G01*
X20096673Y-26460894D02*
G75*
G02*
X19987453Y-26460894I-54610J0D01*
G01*
X19987453Y-26460894D02*
G75*
G02*
X20096673Y-26460894I54610J0D01*
G01*
X20096673Y-26714894D02*
G75*
G02*
X19987453Y-26714894I-54610J0D01*
G01*
X19987453Y-26714894D02*
G75*
G02*
X20096673Y-26714894I54610J0D01*
G01*
X20350673Y-26206894D02*
G75*
G02*
X20241453Y-26206894I-54610J0D01*
G01*
X20241453Y-26206894D02*
G75*
G02*
X20350673Y-26206894I54610J0D01*
G01*
X21620673Y-23920894D02*
G75*
G02*
X21511453Y-23920894I-54610J0D01*
G01*
X21511453Y-23920894D02*
G75*
G02*
X21620673Y-23920894I54610J0D01*
G01*
X21620673Y-24174894D02*
G75*
G02*
X21511453Y-24174894I-54610J0D01*
G01*
X21511453Y-24174894D02*
G75*
G02*
X21620673Y-24174894I54610J0D01*
G01*
X21620673Y-24428894D02*
G75*
G02*
X21511453Y-24428894I-54610J0D01*
G01*
X21511453Y-24428894D02*
G75*
G02*
X21620673Y-24428894I54610J0D01*
G01*
X21620673Y-24682894D02*
G75*
G02*
X21511453Y-24682894I-54610J0D01*
G01*
X21511453Y-24682894D02*
G75*
G02*
X21620673Y-24682894I54610J0D01*
G01*
X21620673Y-24936894D02*
G75*
G02*
X21511453Y-24936894I-54610J0D01*
G01*
X21511453Y-24936894D02*
G75*
G02*
X21620673Y-24936894I54610J0D01*
G01*
X21620673Y-25190894D02*
G75*
G02*
X21511453Y-25190894I-54610J0D01*
G01*
X21511453Y-25190894D02*
G75*
G02*
X21620673Y-25190894I54610J0D01*
G01*
X21620673Y-25444894D02*
G75*
G02*
X21511453Y-25444894I-54610J0D01*
G01*
X21511453Y-25444894D02*
G75*
G02*
X21620673Y-25444894I54610J0D01*
G01*
X21620673Y-25952894D02*
G75*
G02*
X21511453Y-25952894I-54610J0D01*
G01*
X21511453Y-25952894D02*
G75*
G02*
X21620673Y-25952894I54610J0D01*
G01*
X21620673Y-26206894D02*
G75*
G02*
X21511453Y-26206894I-54610J0D01*
G01*
X21511453Y-26206894D02*
G75*
G02*
X21620673Y-26206894I54610J0D01*
G01*
X21620673Y-26460894D02*
G75*
G02*
X21511453Y-26460894I-54610J0D01*
G01*
X21511453Y-26460894D02*
G75*
G02*
X21620673Y-26460894I54610J0D01*
G01*
X21620673Y-26714894D02*
G75*
G02*
X21511453Y-26714894I-54610J0D01*
G01*
X21511453Y-26714894D02*
G75*
G02*
X21620673Y-26714894I54610J0D01*
G01*
X21620673Y-25698894D02*
G75*
G02*
X21511453Y-25698894I-54610J0D01*
G01*
X21511453Y-25698894D02*
G75*
G02*
X21620673Y-25698894I54610J0D01*
G01*
D14*
X15370695Y-28373089D02*
X15370695Y-28498089D01*
X15308195Y-28435589D02*
X15433195Y-28435589D01*
X15870695Y-28373089D02*
X15870695Y-28498089D01*
X15808195Y-28435589D02*
X15933195Y-28435589D01*
D15*
X21485762Y-27269922D02*
X21485762Y-27177998D01*
X21393838Y-27177998D01*
X21393838Y-27269922D01*
X21485762Y-27269922D01*
X21485762Y-27919922D02*
X21485762Y-27827998D01*
X21393838Y-27827998D01*
X21393838Y-27919922D01*
X21485762Y-27919922D01*
D16*
X10100696Y-30797024D02*
X10260696Y-30637024D01*
X10100696Y-30477024D01*
X9940696Y-30637024D01*
X10100696Y-30797024D01*
X10229018Y-24048430D02*
X10389018Y-23888430D01*
X10229018Y-23728430D01*
X10069018Y-23888430D01*
X10229018Y-24048430D01*
X19305463Y-24068194D02*
X19465463Y-23908194D01*
X19305463Y-23748194D01*
X19145463Y-23908194D01*
X19305463Y-24068194D01*
X21350900Y-30505500D02*
X21510900Y-30345500D01*
X21350900Y-30185500D01*
X21190900Y-30345500D01*
X21350900Y-30505500D01*
D12*
X8987697Y-32836776D02*
X8987697Y-32636776D01*
X8987697Y-32636776D02*
X9035316Y-32636776D01*
X9035316Y-32636776D02*
X9063888Y-32646299D01*
X9063888Y-32646299D02*
X9082935Y-32665347D01*
X9082935Y-32665347D02*
X9092459Y-32684395D01*
X9092459Y-32684395D02*
X9101983Y-32722490D01*
X9101983Y-32722490D02*
X9101983Y-32751061D01*
X9101983Y-32751061D02*
X9092459Y-32789157D01*
X9092459Y-32789157D02*
X9082935Y-32808204D01*
X9082935Y-32808204D02*
X9063888Y-32827252D01*
X9063888Y-32827252D02*
X9035316Y-32836776D01*
X9035316Y-32836776D02*
X8987697Y-32836776D01*
X9187697Y-32836776D02*
X9187697Y-32703442D01*
X9187697Y-32741538D02*
X9197221Y-32722490D01*
X9197221Y-32722490D02*
X9206745Y-32712966D01*
X9206745Y-32712966D02*
X9225792Y-32703442D01*
X9225792Y-32703442D02*
X9244840Y-32703442D01*
X9311507Y-32836776D02*
X9311507Y-32703442D01*
X9311507Y-32636776D02*
X9301983Y-32646299D01*
X9301983Y-32646299D02*
X9311507Y-32655823D01*
X9311507Y-32655823D02*
X9321031Y-32646299D01*
X9321031Y-32646299D02*
X9311507Y-32636776D01*
X9311507Y-32636776D02*
X9311507Y-32655823D01*
X9435316Y-32836776D02*
X9416269Y-32827252D01*
X9416269Y-32827252D02*
X9406745Y-32808204D01*
X9406745Y-32808204D02*
X9406745Y-32636776D01*
X9540078Y-32836776D02*
X9521031Y-32827252D01*
X9521031Y-32827252D02*
X9511507Y-32808204D01*
X9511507Y-32808204D02*
X9511507Y-32636776D01*
X9768650Y-32836776D02*
X9768650Y-32636776D01*
X9768650Y-32636776D02*
X9835316Y-32779633D01*
X9835316Y-32779633D02*
X9901983Y-32636776D01*
X9901983Y-32636776D02*
X9901983Y-32836776D01*
X10082935Y-32836776D02*
X10082935Y-32732014D01*
X10082935Y-32732014D02*
X10073412Y-32712966D01*
X10073412Y-32712966D02*
X10054364Y-32703442D01*
X10054364Y-32703442D02*
X10016269Y-32703442D01*
X10016269Y-32703442D02*
X9997221Y-32712966D01*
X10082935Y-32827252D02*
X10063888Y-32836776D01*
X10063888Y-32836776D02*
X10016269Y-32836776D01*
X10016269Y-32836776D02*
X9997221Y-32827252D01*
X9997221Y-32827252D02*
X9987697Y-32808204D01*
X9987697Y-32808204D02*
X9987697Y-32789157D01*
X9987697Y-32789157D02*
X9997221Y-32770109D01*
X9997221Y-32770109D02*
X10016269Y-32760585D01*
X10016269Y-32760585D02*
X10063888Y-32760585D01*
X10063888Y-32760585D02*
X10082935Y-32751061D01*
X10178173Y-32703442D02*
X10178173Y-32903442D01*
X10178173Y-32712966D02*
X10197221Y-32703442D01*
X10197221Y-32703442D02*
X10235316Y-32703442D01*
X10235316Y-32703442D02*
X10254364Y-32712966D01*
X10254364Y-32712966D02*
X10263888Y-32722490D01*
X10263888Y-32722490D02*
X10273412Y-32741538D01*
X10273412Y-32741538D02*
X10273412Y-32798680D01*
X10273412Y-32798680D02*
X10263888Y-32817728D01*
X10263888Y-32817728D02*
X10254364Y-32827252D01*
X10254364Y-32827252D02*
X10235316Y-32836776D01*
X10235316Y-32836776D02*
X10197221Y-32836776D01*
X10197221Y-32836776D02*
X10178173Y-32827252D01*
X10359126Y-32817728D02*
X10368650Y-32827252D01*
X10368650Y-32827252D02*
X10359126Y-32836776D01*
X10359126Y-32836776D02*
X10349602Y-32827252D01*
X10349602Y-32827252D02*
X10359126Y-32817728D01*
X10359126Y-32817728D02*
X10359126Y-32836776D01*
X10359126Y-32712966D02*
X10368650Y-32722490D01*
X10368650Y-32722490D02*
X10359126Y-32732014D01*
X10359126Y-32732014D02*
X10349602Y-32722490D01*
X10349602Y-32722490D02*
X10359126Y-32712966D01*
X10359126Y-32712966D02*
X10359126Y-32732014D01*
D11*
X8696920Y-33150292D02*
X8726920Y-33180292D01*
X8726920Y-33150292D02*
X8696920Y-33180292D01*
D12*
X9025792Y-33056776D02*
X9044840Y-33056776D01*
X9044840Y-33056776D02*
X9063888Y-33066299D01*
X9063888Y-33066299D02*
X9073412Y-33075823D01*
X9073412Y-33075823D02*
X9082935Y-33094871D01*
X9082935Y-33094871D02*
X9092459Y-33132966D01*
X9092459Y-33132966D02*
X9092459Y-33180585D01*
X9092459Y-33180585D02*
X9082935Y-33218680D01*
X9082935Y-33218680D02*
X9073412Y-33237728D01*
X9073412Y-33237728D02*
X9063888Y-33247252D01*
X9063888Y-33247252D02*
X9044840Y-33256776D01*
X9044840Y-33256776D02*
X9025792Y-33256776D01*
X9025792Y-33256776D02*
X9006745Y-33247252D01*
X9006745Y-33247252D02*
X8997221Y-33237728D01*
X8997221Y-33237728D02*
X8987697Y-33218680D01*
X8987697Y-33218680D02*
X8978173Y-33180585D01*
X8978173Y-33180585D02*
X8978173Y-33132966D01*
X8978173Y-33132966D02*
X8987697Y-33094871D01*
X8987697Y-33094871D02*
X8997221Y-33075823D01*
X8997221Y-33075823D02*
X9006745Y-33066299D01*
X9006745Y-33066299D02*
X9025792Y-33056776D01*
X9178173Y-33237728D02*
X9187697Y-33247252D01*
X9187697Y-33247252D02*
X9178173Y-33256776D01*
X9178173Y-33256776D02*
X9168650Y-33247252D01*
X9168650Y-33247252D02*
X9178173Y-33237728D01*
X9178173Y-33237728D02*
X9178173Y-33256776D01*
X9254364Y-33056776D02*
X9378173Y-33056776D01*
X9378173Y-33056776D02*
X9311507Y-33132966D01*
X9311507Y-33132966D02*
X9340078Y-33132966D01*
X9340078Y-33132966D02*
X9359126Y-33142490D01*
X9359126Y-33142490D02*
X9368650Y-33152014D01*
X9368650Y-33152014D02*
X9378173Y-33171061D01*
X9378173Y-33171061D02*
X9378173Y-33218680D01*
X9378173Y-33218680D02*
X9368650Y-33237728D01*
X9368650Y-33237728D02*
X9359126Y-33247252D01*
X9359126Y-33247252D02*
X9340078Y-33256776D01*
X9340078Y-33256776D02*
X9282935Y-33256776D01*
X9282935Y-33256776D02*
X9263888Y-33247252D01*
X9263888Y-33247252D02*
X9254364Y-33237728D01*
X9501983Y-33056776D02*
X9521031Y-33056776D01*
X9521031Y-33056776D02*
X9540078Y-33066299D01*
X9540078Y-33066299D02*
X9549602Y-33075823D01*
X9549602Y-33075823D02*
X9559126Y-33094871D01*
X9559126Y-33094871D02*
X9568650Y-33132966D01*
X9568650Y-33132966D02*
X9568650Y-33180585D01*
X9568650Y-33180585D02*
X9559126Y-33218680D01*
X9559126Y-33218680D02*
X9549602Y-33237728D01*
X9549602Y-33237728D02*
X9540078Y-33247252D01*
X9540078Y-33247252D02*
X9521031Y-33256776D01*
X9521031Y-33256776D02*
X9501983Y-33256776D01*
X9501983Y-33256776D02*
X9482935Y-33247252D01*
X9482935Y-33247252D02*
X9473412Y-33237728D01*
X9473412Y-33237728D02*
X9463888Y-33218680D01*
X9463888Y-33218680D02*
X9454364Y-33180585D01*
X9454364Y-33180585D02*
X9454364Y-33132966D01*
X9454364Y-33132966D02*
X9463888Y-33094871D01*
X9463888Y-33094871D02*
X9473412Y-33075823D01*
X9473412Y-33075823D02*
X9482935Y-33066299D01*
X9482935Y-33066299D02*
X9501983Y-33056776D01*
X9692459Y-33056776D02*
X9711507Y-33056776D01*
X9711507Y-33056776D02*
X9730554Y-33066299D01*
X9730554Y-33066299D02*
X9740078Y-33075823D01*
X9740078Y-33075823D02*
X9749602Y-33094871D01*
X9749602Y-33094871D02*
X9759126Y-33132966D01*
X9759126Y-33132966D02*
X9759126Y-33180585D01*
X9759126Y-33180585D02*
X9749602Y-33218680D01*
X9749602Y-33218680D02*
X9740078Y-33237728D01*
X9740078Y-33237728D02*
X9730554Y-33247252D01*
X9730554Y-33247252D02*
X9711507Y-33256776D01*
X9711507Y-33256776D02*
X9692459Y-33256776D01*
X9692459Y-33256776D02*
X9673412Y-33247252D01*
X9673412Y-33247252D02*
X9663888Y-33237728D01*
X9663888Y-33237728D02*
X9654364Y-33218680D01*
X9654364Y-33218680D02*
X9644840Y-33180585D01*
X9644840Y-33180585D02*
X9644840Y-33132966D01*
X9644840Y-33132966D02*
X9654364Y-33094871D01*
X9654364Y-33094871D02*
X9663888Y-33075823D01*
X9663888Y-33075823D02*
X9673412Y-33066299D01*
X9673412Y-33066299D02*
X9692459Y-33056776D01*
X9844840Y-33256776D02*
X9844840Y-33123442D01*
X9844840Y-33142490D02*
X9854364Y-33132966D01*
X9854364Y-33132966D02*
X9873412Y-33123442D01*
X9873412Y-33123442D02*
X9901983Y-33123442D01*
X9901983Y-33123442D02*
X9921031Y-33132966D01*
X9921031Y-33132966D02*
X9930554Y-33152014D01*
X9930554Y-33152014D02*
X9930554Y-33256776D01*
X9930554Y-33152014D02*
X9940078Y-33132966D01*
X9940078Y-33132966D02*
X9959126Y-33123442D01*
X9959126Y-33123442D02*
X9987697Y-33123442D01*
X9987697Y-33123442D02*
X10006745Y-33132966D01*
X10006745Y-33132966D02*
X10016269Y-33152014D01*
X10016269Y-33152014D02*
X10016269Y-33256776D01*
X10111507Y-33256776D02*
X10111507Y-33123442D01*
X10111507Y-33142490D02*
X10121031Y-33132966D01*
X10121031Y-33132966D02*
X10140078Y-33123442D01*
X10140078Y-33123442D02*
X10168650Y-33123442D01*
X10168650Y-33123442D02*
X10187697Y-33132966D01*
X10187697Y-33132966D02*
X10197221Y-33152014D01*
X10197221Y-33152014D02*
X10197221Y-33256776D01*
X10197221Y-33152014D02*
X10206745Y-33132966D01*
X10206745Y-33132966D02*
X10225793Y-33123442D01*
X10225793Y-33123442D02*
X10254364Y-33123442D01*
X10254364Y-33123442D02*
X10273412Y-33132966D01*
X10273412Y-33132966D02*
X10282935Y-33152014D01*
X10282935Y-33152014D02*
X10282935Y-33256776D01*
X10673412Y-33047252D02*
X10501983Y-33304395D01*
X10930555Y-33056776D02*
X10949602Y-33056776D01*
X10949602Y-33056776D02*
X10968650Y-33066299D01*
X10968650Y-33066299D02*
X10978174Y-33075823D01*
X10978174Y-33075823D02*
X10987697Y-33094871D01*
X10987697Y-33094871D02*
X10997221Y-33132966D01*
X10997221Y-33132966D02*
X10997221Y-33180585D01*
X10997221Y-33180585D02*
X10987697Y-33218680D01*
X10987697Y-33218680D02*
X10978174Y-33237728D01*
X10978174Y-33237728D02*
X10968650Y-33247252D01*
X10968650Y-33247252D02*
X10949602Y-33256776D01*
X10949602Y-33256776D02*
X10930555Y-33256776D01*
X10930555Y-33256776D02*
X10911507Y-33247252D01*
X10911507Y-33247252D02*
X10901983Y-33237728D01*
X10901983Y-33237728D02*
X10892459Y-33218680D01*
X10892459Y-33218680D02*
X10882936Y-33180585D01*
X10882936Y-33180585D02*
X10882936Y-33132966D01*
X10882936Y-33132966D02*
X10892459Y-33094871D01*
X10892459Y-33094871D02*
X10901983Y-33075823D01*
X10901983Y-33075823D02*
X10911507Y-33066299D01*
X10911507Y-33066299D02*
X10930555Y-33056776D01*
X11082936Y-33237728D02*
X11092459Y-33247252D01*
X11092459Y-33247252D02*
X11082936Y-33256776D01*
X11082936Y-33256776D02*
X11073412Y-33247252D01*
X11073412Y-33247252D02*
X11082936Y-33237728D01*
X11082936Y-33237728D02*
X11082936Y-33256776D01*
X11216269Y-33056776D02*
X11235316Y-33056776D01*
X11235316Y-33056776D02*
X11254364Y-33066299D01*
X11254364Y-33066299D02*
X11263888Y-33075823D01*
X11263888Y-33075823D02*
X11273412Y-33094871D01*
X11273412Y-33094871D02*
X11282935Y-33132966D01*
X11282935Y-33132966D02*
X11282935Y-33180585D01*
X11282935Y-33180585D02*
X11273412Y-33218680D01*
X11273412Y-33218680D02*
X11263888Y-33237728D01*
X11263888Y-33237728D02*
X11254364Y-33247252D01*
X11254364Y-33247252D02*
X11235316Y-33256776D01*
X11235316Y-33256776D02*
X11216269Y-33256776D01*
X11216269Y-33256776D02*
X11197221Y-33247252D01*
X11197221Y-33247252D02*
X11187697Y-33237728D01*
X11187697Y-33237728D02*
X11178174Y-33218680D01*
X11178174Y-33218680D02*
X11168650Y-33180585D01*
X11168650Y-33180585D02*
X11168650Y-33132966D01*
X11168650Y-33132966D02*
X11178174Y-33094871D01*
X11178174Y-33094871D02*
X11187697Y-33075823D01*
X11187697Y-33075823D02*
X11197221Y-33066299D01*
X11197221Y-33066299D02*
X11216269Y-33056776D01*
X11473412Y-33256776D02*
X11359126Y-33256776D01*
X11416269Y-33256776D02*
X11416269Y-33056776D01*
X11416269Y-33056776D02*
X11397221Y-33085347D01*
X11397221Y-33085347D02*
X11378174Y-33104395D01*
X11378174Y-33104395D02*
X11359126Y-33113918D01*
X11663888Y-33256776D02*
X11549602Y-33256776D01*
X11606745Y-33256776D02*
X11606745Y-33056776D01*
X11606745Y-33056776D02*
X11587697Y-33085347D01*
X11587697Y-33085347D02*
X11568650Y-33104395D01*
X11568650Y-33104395D02*
X11549602Y-33113918D01*
X11778174Y-33142490D02*
X11759126Y-33132966D01*
X11759126Y-33132966D02*
X11749602Y-33123442D01*
X11749602Y-33123442D02*
X11740078Y-33104395D01*
X11740078Y-33104395D02*
X11740078Y-33094871D01*
X11740078Y-33094871D02*
X11749602Y-33075823D01*
X11749602Y-33075823D02*
X11759126Y-33066299D01*
X11759126Y-33066299D02*
X11778174Y-33056776D01*
X11778174Y-33056776D02*
X11816269Y-33056776D01*
X11816269Y-33056776D02*
X11835316Y-33066299D01*
X11835316Y-33066299D02*
X11844840Y-33075823D01*
X11844840Y-33075823D02*
X11854364Y-33094871D01*
X11854364Y-33094871D02*
X11854364Y-33104395D01*
X11854364Y-33104395D02*
X11844840Y-33123442D01*
X11844840Y-33123442D02*
X11835316Y-33132966D01*
X11835316Y-33132966D02*
X11816269Y-33142490D01*
X11816269Y-33142490D02*
X11778174Y-33142490D01*
X11778174Y-33142490D02*
X11759126Y-33152014D01*
X11759126Y-33152014D02*
X11749602Y-33161538D01*
X11749602Y-33161538D02*
X11740078Y-33180585D01*
X11740078Y-33180585D02*
X11740078Y-33218680D01*
X11740078Y-33218680D02*
X11749602Y-33237728D01*
X11749602Y-33237728D02*
X11759126Y-33247252D01*
X11759126Y-33247252D02*
X11778174Y-33256776D01*
X11778174Y-33256776D02*
X11816269Y-33256776D01*
X11816269Y-33256776D02*
X11835316Y-33247252D01*
X11835316Y-33247252D02*
X11844840Y-33237728D01*
X11844840Y-33237728D02*
X11854364Y-33218680D01*
X11854364Y-33218680D02*
X11854364Y-33180585D01*
X11854364Y-33180585D02*
X11844840Y-33161538D01*
X11844840Y-33161538D02*
X11835316Y-33152014D01*
X11835316Y-33152014D02*
X11816269Y-33142490D01*
X11930555Y-33056776D02*
X11930555Y-33094871D01*
X12006745Y-33056776D02*
X12006745Y-33094871D01*
X12301983Y-33332966D02*
X12292459Y-33323442D01*
X12292459Y-33323442D02*
X12273412Y-33294871D01*
X12273412Y-33294871D02*
X12263888Y-33275823D01*
X12263888Y-33275823D02*
X12254364Y-33247252D01*
X12254364Y-33247252D02*
X12244840Y-33199633D01*
X12244840Y-33199633D02*
X12244840Y-33161538D01*
X12244840Y-33161538D02*
X12254364Y-33113918D01*
X12254364Y-33113918D02*
X12263888Y-33085347D01*
X12263888Y-33085347D02*
X12273412Y-33066299D01*
X12273412Y-33066299D02*
X12292459Y-33037728D01*
X12292459Y-33037728D02*
X12301983Y-33028204D01*
X12368650Y-33075823D02*
X12378174Y-33066299D01*
X12378174Y-33066299D02*
X12397221Y-33056776D01*
X12397221Y-33056776D02*
X12444840Y-33056776D01*
X12444840Y-33056776D02*
X12463888Y-33066299D01*
X12463888Y-33066299D02*
X12473412Y-33075823D01*
X12473412Y-33075823D02*
X12482936Y-33094871D01*
X12482936Y-33094871D02*
X12482936Y-33113918D01*
X12482936Y-33113918D02*
X12473412Y-33142490D01*
X12473412Y-33142490D02*
X12359126Y-33256776D01*
X12359126Y-33256776D02*
X12482936Y-33256776D01*
X12654364Y-33123442D02*
X12654364Y-33256776D01*
X12606745Y-33047252D02*
X12559126Y-33190109D01*
X12559126Y-33190109D02*
X12682936Y-33190109D01*
X12911507Y-33256776D02*
X12911507Y-33056776D01*
X12997221Y-33256776D02*
X12997221Y-33152014D01*
X12997221Y-33152014D02*
X12987698Y-33132966D01*
X12987698Y-33132966D02*
X12968650Y-33123442D01*
X12968650Y-33123442D02*
X12940078Y-33123442D01*
X12940078Y-33123442D02*
X12921031Y-33132966D01*
X12921031Y-33132966D02*
X12911507Y-33142490D01*
X13121031Y-33256776D02*
X13101983Y-33247252D01*
X13101983Y-33247252D02*
X13092459Y-33237728D01*
X13092459Y-33237728D02*
X13082936Y-33218680D01*
X13082936Y-33218680D02*
X13082936Y-33161538D01*
X13082936Y-33161538D02*
X13092459Y-33142490D01*
X13092459Y-33142490D02*
X13101983Y-33132966D01*
X13101983Y-33132966D02*
X13121031Y-33123442D01*
X13121031Y-33123442D02*
X13149602Y-33123442D01*
X13149602Y-33123442D02*
X13168650Y-33132966D01*
X13168650Y-33132966D02*
X13178174Y-33142490D01*
X13178174Y-33142490D02*
X13187698Y-33161538D01*
X13187698Y-33161538D02*
X13187698Y-33218680D01*
X13187698Y-33218680D02*
X13178174Y-33237728D01*
X13178174Y-33237728D02*
X13168650Y-33247252D01*
X13168650Y-33247252D02*
X13149602Y-33256776D01*
X13149602Y-33256776D02*
X13121031Y-33256776D01*
X13301983Y-33256776D02*
X13282936Y-33247252D01*
X13282936Y-33247252D02*
X13273412Y-33228204D01*
X13273412Y-33228204D02*
X13273412Y-33056776D01*
X13454364Y-33247252D02*
X13435317Y-33256776D01*
X13435317Y-33256776D02*
X13397221Y-33256776D01*
X13397221Y-33256776D02*
X13378174Y-33247252D01*
X13378174Y-33247252D02*
X13368650Y-33228204D01*
X13368650Y-33228204D02*
X13368650Y-33152014D01*
X13368650Y-33152014D02*
X13378174Y-33132966D01*
X13378174Y-33132966D02*
X13397221Y-33123442D01*
X13397221Y-33123442D02*
X13435317Y-33123442D01*
X13435317Y-33123442D02*
X13454364Y-33132966D01*
X13454364Y-33132966D02*
X13463888Y-33152014D01*
X13463888Y-33152014D02*
X13463888Y-33171061D01*
X13463888Y-33171061D02*
X13368650Y-33190109D01*
X13540079Y-33247252D02*
X13559126Y-33256776D01*
X13559126Y-33256776D02*
X13597221Y-33256776D01*
X13597221Y-33256776D02*
X13616269Y-33247252D01*
X13616269Y-33247252D02*
X13625793Y-33228204D01*
X13625793Y-33228204D02*
X13625793Y-33218680D01*
X13625793Y-33218680D02*
X13616269Y-33199633D01*
X13616269Y-33199633D02*
X13597221Y-33190109D01*
X13597221Y-33190109D02*
X13568650Y-33190109D01*
X13568650Y-33190109D02*
X13549602Y-33180585D01*
X13549602Y-33180585D02*
X13540079Y-33161538D01*
X13540079Y-33161538D02*
X13540079Y-33152014D01*
X13540079Y-33152014D02*
X13549602Y-33132966D01*
X13549602Y-33132966D02*
X13568650Y-33123442D01*
X13568650Y-33123442D02*
X13597221Y-33123442D01*
X13597221Y-33123442D02*
X13616269Y-33132966D01*
X13692460Y-33332966D02*
X13701983Y-33323442D01*
X13701983Y-33323442D02*
X13721031Y-33294871D01*
X13721031Y-33294871D02*
X13730555Y-33275823D01*
X13730555Y-33275823D02*
X13740079Y-33247252D01*
X13740079Y-33247252D02*
X13749602Y-33199633D01*
X13749602Y-33199633D02*
X13749602Y-33161538D01*
X13749602Y-33161538D02*
X13740079Y-33113918D01*
X13740079Y-33113918D02*
X13730555Y-33085347D01*
X13730555Y-33085347D02*
X13721031Y-33066299D01*
X13721031Y-33066299D02*
X13701983Y-33037728D01*
X13701983Y-33037728D02*
X13692460Y-33028204D01*
D13*
X8726920Y-33429292D02*
G75*
G02*
X8617700Y-33429292I-54610J0D01*
G01*
X8617700Y-33429292D02*
G75*
G02*
X8726920Y-33429292I54610J0D01*
G01*
D12*
X9092459Y-33520776D02*
X8978173Y-33520776D01*
X9035316Y-33520776D02*
X9035316Y-33320776D01*
X9035316Y-33320776D02*
X9016269Y-33349347D01*
X9016269Y-33349347D02*
X8997221Y-33368395D01*
X8997221Y-33368395D02*
X8978173Y-33377918D01*
X9178173Y-33501728D02*
X9187697Y-33511252D01*
X9187697Y-33511252D02*
X9178173Y-33520776D01*
X9178173Y-33520776D02*
X9168650Y-33511252D01*
X9168650Y-33511252D02*
X9178173Y-33501728D01*
X9178173Y-33501728D02*
X9178173Y-33520776D01*
X9311507Y-33320776D02*
X9330554Y-33320776D01*
X9330554Y-33320776D02*
X9349602Y-33330299D01*
X9349602Y-33330299D02*
X9359126Y-33339823D01*
X9359126Y-33339823D02*
X9368650Y-33358871D01*
X9368650Y-33358871D02*
X9378173Y-33396966D01*
X9378173Y-33396966D02*
X9378173Y-33444585D01*
X9378173Y-33444585D02*
X9368650Y-33482680D01*
X9368650Y-33482680D02*
X9359126Y-33501728D01*
X9359126Y-33501728D02*
X9349602Y-33511252D01*
X9349602Y-33511252D02*
X9330554Y-33520776D01*
X9330554Y-33520776D02*
X9311507Y-33520776D01*
X9311507Y-33520776D02*
X9292459Y-33511252D01*
X9292459Y-33511252D02*
X9282935Y-33501728D01*
X9282935Y-33501728D02*
X9273412Y-33482680D01*
X9273412Y-33482680D02*
X9263888Y-33444585D01*
X9263888Y-33444585D02*
X9263888Y-33396966D01*
X9263888Y-33396966D02*
X9273412Y-33358871D01*
X9273412Y-33358871D02*
X9282935Y-33339823D01*
X9282935Y-33339823D02*
X9292459Y-33330299D01*
X9292459Y-33330299D02*
X9311507Y-33320776D01*
X9473412Y-33520776D02*
X9511507Y-33520776D01*
X9511507Y-33520776D02*
X9530554Y-33511252D01*
X9530554Y-33511252D02*
X9540078Y-33501728D01*
X9540078Y-33501728D02*
X9559126Y-33473157D01*
X9559126Y-33473157D02*
X9568650Y-33435061D01*
X9568650Y-33435061D02*
X9568650Y-33358871D01*
X9568650Y-33358871D02*
X9559126Y-33339823D01*
X9559126Y-33339823D02*
X9549602Y-33330299D01*
X9549602Y-33330299D02*
X9530554Y-33320776D01*
X9530554Y-33320776D02*
X9492459Y-33320776D01*
X9492459Y-33320776D02*
X9473412Y-33330299D01*
X9473412Y-33330299D02*
X9463888Y-33339823D01*
X9463888Y-33339823D02*
X9454364Y-33358871D01*
X9454364Y-33358871D02*
X9454364Y-33406490D01*
X9454364Y-33406490D02*
X9463888Y-33425538D01*
X9463888Y-33425538D02*
X9473412Y-33435061D01*
X9473412Y-33435061D02*
X9492459Y-33444585D01*
X9492459Y-33444585D02*
X9530554Y-33444585D01*
X9530554Y-33444585D02*
X9549602Y-33435061D01*
X9549602Y-33435061D02*
X9559126Y-33425538D01*
X9559126Y-33425538D02*
X9568650Y-33406490D01*
X9644840Y-33339823D02*
X9654364Y-33330299D01*
X9654364Y-33330299D02*
X9673412Y-33320776D01*
X9673412Y-33320776D02*
X9721031Y-33320776D01*
X9721031Y-33320776D02*
X9740078Y-33330299D01*
X9740078Y-33330299D02*
X9749602Y-33339823D01*
X9749602Y-33339823D02*
X9759126Y-33358871D01*
X9759126Y-33358871D02*
X9759126Y-33377918D01*
X9759126Y-33377918D02*
X9749602Y-33406490D01*
X9749602Y-33406490D02*
X9635316Y-33520776D01*
X9635316Y-33520776D02*
X9759126Y-33520776D01*
X9844840Y-33520776D02*
X9844840Y-33387442D01*
X9844840Y-33406490D02*
X9854364Y-33396966D01*
X9854364Y-33396966D02*
X9873412Y-33387442D01*
X9873412Y-33387442D02*
X9901983Y-33387442D01*
X9901983Y-33387442D02*
X9921031Y-33396966D01*
X9921031Y-33396966D02*
X9930554Y-33416014D01*
X9930554Y-33416014D02*
X9930554Y-33520776D01*
X9930554Y-33416014D02*
X9940078Y-33396966D01*
X9940078Y-33396966D02*
X9959126Y-33387442D01*
X9959126Y-33387442D02*
X9987697Y-33387442D01*
X9987697Y-33387442D02*
X10006745Y-33396966D01*
X10006745Y-33396966D02*
X10016269Y-33416014D01*
X10016269Y-33416014D02*
X10016269Y-33520776D01*
X10111507Y-33520776D02*
X10111507Y-33387442D01*
X10111507Y-33406490D02*
X10121031Y-33396966D01*
X10121031Y-33396966D02*
X10140078Y-33387442D01*
X10140078Y-33387442D02*
X10168650Y-33387442D01*
X10168650Y-33387442D02*
X10187697Y-33396966D01*
X10187697Y-33396966D02*
X10197221Y-33416014D01*
X10197221Y-33416014D02*
X10197221Y-33520776D01*
X10197221Y-33416014D02*
X10206745Y-33396966D01*
X10206745Y-33396966D02*
X10225793Y-33387442D01*
X10225793Y-33387442D02*
X10254364Y-33387442D01*
X10254364Y-33387442D02*
X10273412Y-33396966D01*
X10273412Y-33396966D02*
X10282935Y-33416014D01*
X10282935Y-33416014D02*
X10282935Y-33520776D01*
X10673412Y-33311252D02*
X10501983Y-33568395D01*
X10930555Y-33320776D02*
X10949602Y-33320776D01*
X10949602Y-33320776D02*
X10968650Y-33330299D01*
X10968650Y-33330299D02*
X10978174Y-33339823D01*
X10978174Y-33339823D02*
X10987697Y-33358871D01*
X10987697Y-33358871D02*
X10997221Y-33396966D01*
X10997221Y-33396966D02*
X10997221Y-33444585D01*
X10997221Y-33444585D02*
X10987697Y-33482680D01*
X10987697Y-33482680D02*
X10978174Y-33501728D01*
X10978174Y-33501728D02*
X10968650Y-33511252D01*
X10968650Y-33511252D02*
X10949602Y-33520776D01*
X10949602Y-33520776D02*
X10930555Y-33520776D01*
X10930555Y-33520776D02*
X10911507Y-33511252D01*
X10911507Y-33511252D02*
X10901983Y-33501728D01*
X10901983Y-33501728D02*
X10892459Y-33482680D01*
X10892459Y-33482680D02*
X10882936Y-33444585D01*
X10882936Y-33444585D02*
X10882936Y-33396966D01*
X10882936Y-33396966D02*
X10892459Y-33358871D01*
X10892459Y-33358871D02*
X10901983Y-33339823D01*
X10901983Y-33339823D02*
X10911507Y-33330299D01*
X10911507Y-33330299D02*
X10930555Y-33320776D01*
X11082936Y-33501728D02*
X11092459Y-33511252D01*
X11092459Y-33511252D02*
X11082936Y-33520776D01*
X11082936Y-33520776D02*
X11073412Y-33511252D01*
X11073412Y-33511252D02*
X11082936Y-33501728D01*
X11082936Y-33501728D02*
X11082936Y-33520776D01*
X11216269Y-33320776D02*
X11235316Y-33320776D01*
X11235316Y-33320776D02*
X11254364Y-33330299D01*
X11254364Y-33330299D02*
X11263888Y-33339823D01*
X11263888Y-33339823D02*
X11273412Y-33358871D01*
X11273412Y-33358871D02*
X11282935Y-33396966D01*
X11282935Y-33396966D02*
X11282935Y-33444585D01*
X11282935Y-33444585D02*
X11273412Y-33482680D01*
X11273412Y-33482680D02*
X11263888Y-33501728D01*
X11263888Y-33501728D02*
X11254364Y-33511252D01*
X11254364Y-33511252D02*
X11235316Y-33520776D01*
X11235316Y-33520776D02*
X11216269Y-33520776D01*
X11216269Y-33520776D02*
X11197221Y-33511252D01*
X11197221Y-33511252D02*
X11187697Y-33501728D01*
X11187697Y-33501728D02*
X11178174Y-33482680D01*
X11178174Y-33482680D02*
X11168650Y-33444585D01*
X11168650Y-33444585D02*
X11168650Y-33396966D01*
X11168650Y-33396966D02*
X11178174Y-33358871D01*
X11178174Y-33358871D02*
X11187697Y-33339823D01*
X11187697Y-33339823D02*
X11197221Y-33330299D01*
X11197221Y-33330299D02*
X11216269Y-33320776D01*
X11454364Y-33387442D02*
X11454364Y-33520776D01*
X11406745Y-33311252D02*
X11359126Y-33454109D01*
X11359126Y-33454109D02*
X11482935Y-33454109D01*
X11540078Y-33320776D02*
X11663888Y-33320776D01*
X11663888Y-33320776D02*
X11597221Y-33396966D01*
X11597221Y-33396966D02*
X11625793Y-33396966D01*
X11625793Y-33396966D02*
X11644840Y-33406490D01*
X11644840Y-33406490D02*
X11654364Y-33416014D01*
X11654364Y-33416014D02*
X11663888Y-33435061D01*
X11663888Y-33435061D02*
X11663888Y-33482680D01*
X11663888Y-33482680D02*
X11654364Y-33501728D01*
X11654364Y-33501728D02*
X11644840Y-33511252D01*
X11644840Y-33511252D02*
X11625793Y-33520776D01*
X11625793Y-33520776D02*
X11568650Y-33520776D01*
X11568650Y-33520776D02*
X11549602Y-33511252D01*
X11549602Y-33511252D02*
X11540078Y-33501728D01*
X11787697Y-33320776D02*
X11806745Y-33320776D01*
X11806745Y-33320776D02*
X11825793Y-33330299D01*
X11825793Y-33330299D02*
X11835316Y-33339823D01*
X11835316Y-33339823D02*
X11844840Y-33358871D01*
X11844840Y-33358871D02*
X11854364Y-33396966D01*
X11854364Y-33396966D02*
X11854364Y-33444585D01*
X11854364Y-33444585D02*
X11844840Y-33482680D01*
X11844840Y-33482680D02*
X11835316Y-33501728D01*
X11835316Y-33501728D02*
X11825793Y-33511252D01*
X11825793Y-33511252D02*
X11806745Y-33520776D01*
X11806745Y-33520776D02*
X11787697Y-33520776D01*
X11787697Y-33520776D02*
X11768650Y-33511252D01*
X11768650Y-33511252D02*
X11759126Y-33501728D01*
X11759126Y-33501728D02*
X11749602Y-33482680D01*
X11749602Y-33482680D02*
X11740078Y-33444585D01*
X11740078Y-33444585D02*
X11740078Y-33396966D01*
X11740078Y-33396966D02*
X11749602Y-33358871D01*
X11749602Y-33358871D02*
X11759126Y-33339823D01*
X11759126Y-33339823D02*
X11768650Y-33330299D01*
X11768650Y-33330299D02*
X11787697Y-33320776D01*
X11930555Y-33320776D02*
X11930555Y-33358871D01*
X12006745Y-33320776D02*
X12006745Y-33358871D01*
X12301983Y-33596966D02*
X12292459Y-33587442D01*
X12292459Y-33587442D02*
X12273412Y-33558871D01*
X12273412Y-33558871D02*
X12263888Y-33539823D01*
X12263888Y-33539823D02*
X12254364Y-33511252D01*
X12254364Y-33511252D02*
X12244840Y-33463633D01*
X12244840Y-33463633D02*
X12244840Y-33425538D01*
X12244840Y-33425538D02*
X12254364Y-33377918D01*
X12254364Y-33377918D02*
X12263888Y-33349347D01*
X12263888Y-33349347D02*
X12273412Y-33330299D01*
X12273412Y-33330299D02*
X12292459Y-33301728D01*
X12292459Y-33301728D02*
X12301983Y-33292204D01*
X12368650Y-33339823D02*
X12378174Y-33330299D01*
X12378174Y-33330299D02*
X12397221Y-33320776D01*
X12397221Y-33320776D02*
X12444840Y-33320776D01*
X12444840Y-33320776D02*
X12463888Y-33330299D01*
X12463888Y-33330299D02*
X12473412Y-33339823D01*
X12473412Y-33339823D02*
X12482936Y-33358871D01*
X12482936Y-33358871D02*
X12482936Y-33377918D01*
X12482936Y-33377918D02*
X12473412Y-33406490D01*
X12473412Y-33406490D02*
X12359126Y-33520776D01*
X12359126Y-33520776D02*
X12482936Y-33520776D01*
X12663888Y-33320776D02*
X12568650Y-33320776D01*
X12568650Y-33320776D02*
X12559126Y-33416014D01*
X12559126Y-33416014D02*
X12568650Y-33406490D01*
X12568650Y-33406490D02*
X12587697Y-33396966D01*
X12587697Y-33396966D02*
X12635317Y-33396966D01*
X12635317Y-33396966D02*
X12654364Y-33406490D01*
X12654364Y-33406490D02*
X12663888Y-33416014D01*
X12663888Y-33416014D02*
X12673412Y-33435061D01*
X12673412Y-33435061D02*
X12673412Y-33482680D01*
X12673412Y-33482680D02*
X12663888Y-33501728D01*
X12663888Y-33501728D02*
X12654364Y-33511252D01*
X12654364Y-33511252D02*
X12635317Y-33520776D01*
X12635317Y-33520776D02*
X12587697Y-33520776D01*
X12587697Y-33520776D02*
X12568650Y-33511252D01*
X12568650Y-33511252D02*
X12559126Y-33501728D01*
X12911507Y-33520776D02*
X12911507Y-33320776D01*
X12997221Y-33520776D02*
X12997221Y-33416014D01*
X12997221Y-33416014D02*
X12987698Y-33396966D01*
X12987698Y-33396966D02*
X12968650Y-33387442D01*
X12968650Y-33387442D02*
X12940078Y-33387442D01*
X12940078Y-33387442D02*
X12921031Y-33396966D01*
X12921031Y-33396966D02*
X12911507Y-33406490D01*
X13121031Y-33520776D02*
X13101983Y-33511252D01*
X13101983Y-33511252D02*
X13092459Y-33501728D01*
X13092459Y-33501728D02*
X13082936Y-33482680D01*
X13082936Y-33482680D02*
X13082936Y-33425538D01*
X13082936Y-33425538D02*
X13092459Y-33406490D01*
X13092459Y-33406490D02*
X13101983Y-33396966D01*
X13101983Y-33396966D02*
X13121031Y-33387442D01*
X13121031Y-33387442D02*
X13149602Y-33387442D01*
X13149602Y-33387442D02*
X13168650Y-33396966D01*
X13168650Y-33396966D02*
X13178174Y-33406490D01*
X13178174Y-33406490D02*
X13187698Y-33425538D01*
X13187698Y-33425538D02*
X13187698Y-33482680D01*
X13187698Y-33482680D02*
X13178174Y-33501728D01*
X13178174Y-33501728D02*
X13168650Y-33511252D01*
X13168650Y-33511252D02*
X13149602Y-33520776D01*
X13149602Y-33520776D02*
X13121031Y-33520776D01*
X13301983Y-33520776D02*
X13282936Y-33511252D01*
X13282936Y-33511252D02*
X13273412Y-33492204D01*
X13273412Y-33492204D02*
X13273412Y-33320776D01*
X13454364Y-33511252D02*
X13435317Y-33520776D01*
X13435317Y-33520776D02*
X13397221Y-33520776D01*
X13397221Y-33520776D02*
X13378174Y-33511252D01*
X13378174Y-33511252D02*
X13368650Y-33492204D01*
X13368650Y-33492204D02*
X13368650Y-33416014D01*
X13368650Y-33416014D02*
X13378174Y-33396966D01*
X13378174Y-33396966D02*
X13397221Y-33387442D01*
X13397221Y-33387442D02*
X13435317Y-33387442D01*
X13435317Y-33387442D02*
X13454364Y-33396966D01*
X13454364Y-33396966D02*
X13463888Y-33416014D01*
X13463888Y-33416014D02*
X13463888Y-33435061D01*
X13463888Y-33435061D02*
X13368650Y-33454109D01*
X13540079Y-33511252D02*
X13559126Y-33520776D01*
X13559126Y-33520776D02*
X13597221Y-33520776D01*
X13597221Y-33520776D02*
X13616269Y-33511252D01*
X13616269Y-33511252D02*
X13625793Y-33492204D01*
X13625793Y-33492204D02*
X13625793Y-33482680D01*
X13625793Y-33482680D02*
X13616269Y-33463633D01*
X13616269Y-33463633D02*
X13597221Y-33454109D01*
X13597221Y-33454109D02*
X13568650Y-33454109D01*
X13568650Y-33454109D02*
X13549602Y-33444585D01*
X13549602Y-33444585D02*
X13540079Y-33425538D01*
X13540079Y-33425538D02*
X13540079Y-33416014D01*
X13540079Y-33416014D02*
X13549602Y-33396966D01*
X13549602Y-33396966D02*
X13568650Y-33387442D01*
X13568650Y-33387442D02*
X13597221Y-33387442D01*
X13597221Y-33387442D02*
X13616269Y-33396966D01*
X13692460Y-33596966D02*
X13701983Y-33587442D01*
X13701983Y-33587442D02*
X13721031Y-33558871D01*
X13721031Y-33558871D02*
X13730555Y-33539823D01*
X13730555Y-33539823D02*
X13740079Y-33511252D01*
X13740079Y-33511252D02*
X13749602Y-33463633D01*
X13749602Y-33463633D02*
X13749602Y-33425538D01*
X13749602Y-33425538D02*
X13740079Y-33377918D01*
X13740079Y-33377918D02*
X13730555Y-33349347D01*
X13730555Y-33349347D02*
X13721031Y-33330299D01*
X13721031Y-33330299D02*
X13701983Y-33301728D01*
X13701983Y-33301728D02*
X13692460Y-33292204D01*
D14*
X8664420Y-33630792D02*
X8664420Y-33755792D01*
X8601920Y-33693292D02*
X8726920Y-33693292D01*
D12*
X9092459Y-33784776D02*
X8978173Y-33784776D01*
X9035316Y-33784776D02*
X9035316Y-33584776D01*
X9035316Y-33584776D02*
X9016269Y-33613347D01*
X9016269Y-33613347D02*
X8997221Y-33632395D01*
X8997221Y-33632395D02*
X8978173Y-33641919D01*
X9178173Y-33765728D02*
X9187697Y-33775252D01*
X9187697Y-33775252D02*
X9178173Y-33784776D01*
X9178173Y-33784776D02*
X9168650Y-33775252D01*
X9168650Y-33775252D02*
X9178173Y-33765728D01*
X9178173Y-33765728D02*
X9178173Y-33784776D01*
X9263888Y-33603823D02*
X9273412Y-33594300D01*
X9273412Y-33594300D02*
X9292459Y-33584776D01*
X9292459Y-33584776D02*
X9340078Y-33584776D01*
X9340078Y-33584776D02*
X9359126Y-33594300D01*
X9359126Y-33594300D02*
X9368650Y-33603823D01*
X9368650Y-33603823D02*
X9378173Y-33622871D01*
X9378173Y-33622871D02*
X9378173Y-33641919D01*
X9378173Y-33641919D02*
X9368650Y-33670490D01*
X9368650Y-33670490D02*
X9254364Y-33784776D01*
X9254364Y-33784776D02*
X9378173Y-33784776D01*
X9559126Y-33584776D02*
X9463888Y-33584776D01*
X9463888Y-33584776D02*
X9454364Y-33680014D01*
X9454364Y-33680014D02*
X9463888Y-33670490D01*
X9463888Y-33670490D02*
X9482935Y-33660966D01*
X9482935Y-33660966D02*
X9530554Y-33660966D01*
X9530554Y-33660966D02*
X9549602Y-33670490D01*
X9549602Y-33670490D02*
X9559126Y-33680014D01*
X9559126Y-33680014D02*
X9568650Y-33699061D01*
X9568650Y-33699061D02*
X9568650Y-33746680D01*
X9568650Y-33746680D02*
X9559126Y-33765728D01*
X9559126Y-33765728D02*
X9549602Y-33775252D01*
X9549602Y-33775252D02*
X9530554Y-33784776D01*
X9530554Y-33784776D02*
X9482935Y-33784776D01*
X9482935Y-33784776D02*
X9463888Y-33775252D01*
X9463888Y-33775252D02*
X9454364Y-33765728D01*
X9692459Y-33584776D02*
X9711507Y-33584776D01*
X9711507Y-33584776D02*
X9730554Y-33594300D01*
X9730554Y-33594300D02*
X9740078Y-33603823D01*
X9740078Y-33603823D02*
X9749602Y-33622871D01*
X9749602Y-33622871D02*
X9759126Y-33660966D01*
X9759126Y-33660966D02*
X9759126Y-33708585D01*
X9759126Y-33708585D02*
X9749602Y-33746680D01*
X9749602Y-33746680D02*
X9740078Y-33765728D01*
X9740078Y-33765728D02*
X9730554Y-33775252D01*
X9730554Y-33775252D02*
X9711507Y-33784776D01*
X9711507Y-33784776D02*
X9692459Y-33784776D01*
X9692459Y-33784776D02*
X9673412Y-33775252D01*
X9673412Y-33775252D02*
X9663888Y-33765728D01*
X9663888Y-33765728D02*
X9654364Y-33746680D01*
X9654364Y-33746680D02*
X9644840Y-33708585D01*
X9644840Y-33708585D02*
X9644840Y-33660966D01*
X9644840Y-33660966D02*
X9654364Y-33622871D01*
X9654364Y-33622871D02*
X9663888Y-33603823D01*
X9663888Y-33603823D02*
X9673412Y-33594300D01*
X9673412Y-33594300D02*
X9692459Y-33584776D01*
X9844840Y-33784776D02*
X9844840Y-33651442D01*
X9844840Y-33670490D02*
X9854364Y-33660966D01*
X9854364Y-33660966D02*
X9873412Y-33651442D01*
X9873412Y-33651442D02*
X9901983Y-33651442D01*
X9901983Y-33651442D02*
X9921031Y-33660966D01*
X9921031Y-33660966D02*
X9930554Y-33680014D01*
X9930554Y-33680014D02*
X9930554Y-33784776D01*
X9930554Y-33680014D02*
X9940078Y-33660966D01*
X9940078Y-33660966D02*
X9959126Y-33651442D01*
X9959126Y-33651442D02*
X9987697Y-33651442D01*
X9987697Y-33651442D02*
X10006745Y-33660966D01*
X10006745Y-33660966D02*
X10016269Y-33680014D01*
X10016269Y-33680014D02*
X10016269Y-33784776D01*
X10111507Y-33784776D02*
X10111507Y-33651442D01*
X10111507Y-33670490D02*
X10121031Y-33660966D01*
X10121031Y-33660966D02*
X10140078Y-33651442D01*
X10140078Y-33651442D02*
X10168650Y-33651442D01*
X10168650Y-33651442D02*
X10187697Y-33660966D01*
X10187697Y-33660966D02*
X10197221Y-33680014D01*
X10197221Y-33680014D02*
X10197221Y-33784776D01*
X10197221Y-33680014D02*
X10206745Y-33660966D01*
X10206745Y-33660966D02*
X10225793Y-33651442D01*
X10225793Y-33651442D02*
X10254364Y-33651442D01*
X10254364Y-33651442D02*
X10273412Y-33660966D01*
X10273412Y-33660966D02*
X10282935Y-33680014D01*
X10282935Y-33680014D02*
X10282935Y-33784776D01*
X10673412Y-33575252D02*
X10501983Y-33832395D01*
X10930555Y-33584776D02*
X10949602Y-33584776D01*
X10949602Y-33584776D02*
X10968650Y-33594300D01*
X10968650Y-33594300D02*
X10978174Y-33603823D01*
X10978174Y-33603823D02*
X10987697Y-33622871D01*
X10987697Y-33622871D02*
X10997221Y-33660966D01*
X10997221Y-33660966D02*
X10997221Y-33708585D01*
X10997221Y-33708585D02*
X10987697Y-33746680D01*
X10987697Y-33746680D02*
X10978174Y-33765728D01*
X10978174Y-33765728D02*
X10968650Y-33775252D01*
X10968650Y-33775252D02*
X10949602Y-33784776D01*
X10949602Y-33784776D02*
X10930555Y-33784776D01*
X10930555Y-33784776D02*
X10911507Y-33775252D01*
X10911507Y-33775252D02*
X10901983Y-33765728D01*
X10901983Y-33765728D02*
X10892459Y-33746680D01*
X10892459Y-33746680D02*
X10882936Y-33708585D01*
X10882936Y-33708585D02*
X10882936Y-33660966D01*
X10882936Y-33660966D02*
X10892459Y-33622871D01*
X10892459Y-33622871D02*
X10901983Y-33603823D01*
X10901983Y-33603823D02*
X10911507Y-33594300D01*
X10911507Y-33594300D02*
X10930555Y-33584776D01*
X11082936Y-33765728D02*
X11092459Y-33775252D01*
X11092459Y-33775252D02*
X11082936Y-33784776D01*
X11082936Y-33784776D02*
X11073412Y-33775252D01*
X11073412Y-33775252D02*
X11082936Y-33765728D01*
X11082936Y-33765728D02*
X11082936Y-33784776D01*
X11216269Y-33584776D02*
X11235316Y-33584776D01*
X11235316Y-33584776D02*
X11254364Y-33594300D01*
X11254364Y-33594300D02*
X11263888Y-33603823D01*
X11263888Y-33603823D02*
X11273412Y-33622871D01*
X11273412Y-33622871D02*
X11282935Y-33660966D01*
X11282935Y-33660966D02*
X11282935Y-33708585D01*
X11282935Y-33708585D02*
X11273412Y-33746680D01*
X11273412Y-33746680D02*
X11263888Y-33765728D01*
X11263888Y-33765728D02*
X11254364Y-33775252D01*
X11254364Y-33775252D02*
X11235316Y-33784776D01*
X11235316Y-33784776D02*
X11216269Y-33784776D01*
X11216269Y-33784776D02*
X11197221Y-33775252D01*
X11197221Y-33775252D02*
X11187697Y-33765728D01*
X11187697Y-33765728D02*
X11178174Y-33746680D01*
X11178174Y-33746680D02*
X11168650Y-33708585D01*
X11168650Y-33708585D02*
X11168650Y-33660966D01*
X11168650Y-33660966D02*
X11178174Y-33622871D01*
X11178174Y-33622871D02*
X11187697Y-33603823D01*
X11187697Y-33603823D02*
X11197221Y-33594300D01*
X11197221Y-33594300D02*
X11216269Y-33584776D01*
X11454364Y-33651442D02*
X11454364Y-33784776D01*
X11406745Y-33575252D02*
X11359126Y-33718109D01*
X11359126Y-33718109D02*
X11482935Y-33718109D01*
X11568650Y-33784776D02*
X11606745Y-33784776D01*
X11606745Y-33784776D02*
X11625793Y-33775252D01*
X11625793Y-33775252D02*
X11635316Y-33765728D01*
X11635316Y-33765728D02*
X11654364Y-33737157D01*
X11654364Y-33737157D02*
X11663888Y-33699061D01*
X11663888Y-33699061D02*
X11663888Y-33622871D01*
X11663888Y-33622871D02*
X11654364Y-33603823D01*
X11654364Y-33603823D02*
X11644840Y-33594300D01*
X11644840Y-33594300D02*
X11625793Y-33584776D01*
X11625793Y-33584776D02*
X11587697Y-33584776D01*
X11587697Y-33584776D02*
X11568650Y-33594300D01*
X11568650Y-33594300D02*
X11559126Y-33603823D01*
X11559126Y-33603823D02*
X11549602Y-33622871D01*
X11549602Y-33622871D02*
X11549602Y-33670490D01*
X11549602Y-33670490D02*
X11559126Y-33689538D01*
X11559126Y-33689538D02*
X11568650Y-33699061D01*
X11568650Y-33699061D02*
X11587697Y-33708585D01*
X11587697Y-33708585D02*
X11625793Y-33708585D01*
X11625793Y-33708585D02*
X11644840Y-33699061D01*
X11644840Y-33699061D02*
X11654364Y-33689538D01*
X11654364Y-33689538D02*
X11663888Y-33670490D01*
X11740078Y-33603823D02*
X11749602Y-33594300D01*
X11749602Y-33594300D02*
X11768650Y-33584776D01*
X11768650Y-33584776D02*
X11816269Y-33584776D01*
X11816269Y-33584776D02*
X11835316Y-33594300D01*
X11835316Y-33594300D02*
X11844840Y-33603823D01*
X11844840Y-33603823D02*
X11854364Y-33622871D01*
X11854364Y-33622871D02*
X11854364Y-33641919D01*
X11854364Y-33641919D02*
X11844840Y-33670490D01*
X11844840Y-33670490D02*
X11730555Y-33784776D01*
X11730555Y-33784776D02*
X11854364Y-33784776D01*
X11930555Y-33584776D02*
X11930555Y-33622871D01*
X12006745Y-33584776D02*
X12006745Y-33622871D01*
X12301983Y-33860966D02*
X12292459Y-33851442D01*
X12292459Y-33851442D02*
X12273412Y-33822871D01*
X12273412Y-33822871D02*
X12263888Y-33803823D01*
X12263888Y-33803823D02*
X12254364Y-33775252D01*
X12254364Y-33775252D02*
X12244840Y-33727633D01*
X12244840Y-33727633D02*
X12244840Y-33689538D01*
X12244840Y-33689538D02*
X12254364Y-33641919D01*
X12254364Y-33641919D02*
X12263888Y-33613347D01*
X12263888Y-33613347D02*
X12273412Y-33594300D01*
X12273412Y-33594300D02*
X12292459Y-33565728D01*
X12292459Y-33565728D02*
X12301983Y-33556204D01*
X12368650Y-33603823D02*
X12378174Y-33594300D01*
X12378174Y-33594300D02*
X12397221Y-33584776D01*
X12397221Y-33584776D02*
X12444840Y-33584776D01*
X12444840Y-33584776D02*
X12463888Y-33594300D01*
X12463888Y-33594300D02*
X12473412Y-33603823D01*
X12473412Y-33603823D02*
X12482936Y-33622871D01*
X12482936Y-33622871D02*
X12482936Y-33641919D01*
X12482936Y-33641919D02*
X12473412Y-33670490D01*
X12473412Y-33670490D02*
X12359126Y-33784776D01*
X12359126Y-33784776D02*
X12482936Y-33784776D01*
X12721031Y-33784776D02*
X12721031Y-33584776D01*
X12806745Y-33784776D02*
X12806745Y-33680014D01*
X12806745Y-33680014D02*
X12797221Y-33660966D01*
X12797221Y-33660966D02*
X12778174Y-33651442D01*
X12778174Y-33651442D02*
X12749602Y-33651442D01*
X12749602Y-33651442D02*
X12730555Y-33660966D01*
X12730555Y-33660966D02*
X12721031Y-33670490D01*
X12930555Y-33784776D02*
X12911507Y-33775252D01*
X12911507Y-33775252D02*
X12901983Y-33765728D01*
X12901983Y-33765728D02*
X12892459Y-33746680D01*
X12892459Y-33746680D02*
X12892459Y-33689538D01*
X12892459Y-33689538D02*
X12901983Y-33670490D01*
X12901983Y-33670490D02*
X12911507Y-33660966D01*
X12911507Y-33660966D02*
X12930555Y-33651442D01*
X12930555Y-33651442D02*
X12959126Y-33651442D01*
X12959126Y-33651442D02*
X12978174Y-33660966D01*
X12978174Y-33660966D02*
X12987698Y-33670490D01*
X12987698Y-33670490D02*
X12997221Y-33689538D01*
X12997221Y-33689538D02*
X12997221Y-33746680D01*
X12997221Y-33746680D02*
X12987698Y-33765728D01*
X12987698Y-33765728D02*
X12978174Y-33775252D01*
X12978174Y-33775252D02*
X12959126Y-33784776D01*
X12959126Y-33784776D02*
X12930555Y-33784776D01*
X13111507Y-33784776D02*
X13092459Y-33775252D01*
X13092459Y-33775252D02*
X13082936Y-33756204D01*
X13082936Y-33756204D02*
X13082936Y-33584776D01*
X13263888Y-33775252D02*
X13244840Y-33784776D01*
X13244840Y-33784776D02*
X13206745Y-33784776D01*
X13206745Y-33784776D02*
X13187698Y-33775252D01*
X13187698Y-33775252D02*
X13178174Y-33756204D01*
X13178174Y-33756204D02*
X13178174Y-33680014D01*
X13178174Y-33680014D02*
X13187698Y-33660966D01*
X13187698Y-33660966D02*
X13206745Y-33651442D01*
X13206745Y-33651442D02*
X13244840Y-33651442D01*
X13244840Y-33651442D02*
X13263888Y-33660966D01*
X13263888Y-33660966D02*
X13273412Y-33680014D01*
X13273412Y-33680014D02*
X13273412Y-33699061D01*
X13273412Y-33699061D02*
X13178174Y-33718109D01*
X13349602Y-33775252D02*
X13368650Y-33784776D01*
X13368650Y-33784776D02*
X13406745Y-33784776D01*
X13406745Y-33784776D02*
X13425793Y-33775252D01*
X13425793Y-33775252D02*
X13435317Y-33756204D01*
X13435317Y-33756204D02*
X13435317Y-33746680D01*
X13435317Y-33746680D02*
X13425793Y-33727633D01*
X13425793Y-33727633D02*
X13406745Y-33718109D01*
X13406745Y-33718109D02*
X13378174Y-33718109D01*
X13378174Y-33718109D02*
X13359126Y-33708585D01*
X13359126Y-33708585D02*
X13349602Y-33689538D01*
X13349602Y-33689538D02*
X13349602Y-33680014D01*
X13349602Y-33680014D02*
X13359126Y-33660966D01*
X13359126Y-33660966D02*
X13378174Y-33651442D01*
X13378174Y-33651442D02*
X13406745Y-33651442D01*
X13406745Y-33651442D02*
X13425793Y-33660966D01*
X13501983Y-33860966D02*
X13511507Y-33851442D01*
X13511507Y-33851442D02*
X13530555Y-33822871D01*
X13530555Y-33822871D02*
X13540079Y-33803823D01*
X13540079Y-33803823D02*
X13549602Y-33775252D01*
X13549602Y-33775252D02*
X13559126Y-33727633D01*
X13559126Y-33727633D02*
X13559126Y-33689538D01*
X13559126Y-33689538D02*
X13549602Y-33641919D01*
X13549602Y-33641919D02*
X13540079Y-33613347D01*
X13540079Y-33613347D02*
X13530555Y-33594300D01*
X13530555Y-33594300D02*
X13511507Y-33565728D01*
X13511507Y-33565728D02*
X13501983Y-33556204D01*
D15*
X8707883Y-34003254D02*
X8707883Y-33911330D01*
X8615958Y-33911330D01*
X8615958Y-34003254D01*
X8707883Y-34003254D01*
D12*
X9092459Y-34048776D02*
X8978173Y-34048776D01*
X9035316Y-34048776D02*
X9035316Y-33848776D01*
X9035316Y-33848776D02*
X9016269Y-33877347D01*
X9016269Y-33877347D02*
X8997221Y-33896395D01*
X8997221Y-33896395D02*
X8978173Y-33905919D01*
X9178173Y-34029728D02*
X9187697Y-34039252D01*
X9187697Y-34039252D02*
X9178173Y-34048776D01*
X9178173Y-34048776D02*
X9168650Y-34039252D01*
X9168650Y-34039252D02*
X9178173Y-34029728D01*
X9178173Y-34029728D02*
X9178173Y-34048776D01*
X9254364Y-33848776D02*
X9378173Y-33848776D01*
X9378173Y-33848776D02*
X9311507Y-33924966D01*
X9311507Y-33924966D02*
X9340078Y-33924966D01*
X9340078Y-33924966D02*
X9359126Y-33934490D01*
X9359126Y-33934490D02*
X9368650Y-33944014D01*
X9368650Y-33944014D02*
X9378173Y-33963061D01*
X9378173Y-33963061D02*
X9378173Y-34010680D01*
X9378173Y-34010680D02*
X9368650Y-34029728D01*
X9368650Y-34029728D02*
X9359126Y-34039252D01*
X9359126Y-34039252D02*
X9340078Y-34048776D01*
X9340078Y-34048776D02*
X9282935Y-34048776D01*
X9282935Y-34048776D02*
X9263888Y-34039252D01*
X9263888Y-34039252D02*
X9254364Y-34029728D01*
X9501983Y-33848776D02*
X9521031Y-33848776D01*
X9521031Y-33848776D02*
X9540078Y-33858300D01*
X9540078Y-33858300D02*
X9549602Y-33867823D01*
X9549602Y-33867823D02*
X9559126Y-33886871D01*
X9559126Y-33886871D02*
X9568650Y-33924966D01*
X9568650Y-33924966D02*
X9568650Y-33972585D01*
X9568650Y-33972585D02*
X9559126Y-34010680D01*
X9559126Y-34010680D02*
X9549602Y-34029728D01*
X9549602Y-34029728D02*
X9540078Y-34039252D01*
X9540078Y-34039252D02*
X9521031Y-34048776D01*
X9521031Y-34048776D02*
X9501983Y-34048776D01*
X9501983Y-34048776D02*
X9482935Y-34039252D01*
X9482935Y-34039252D02*
X9473412Y-34029728D01*
X9473412Y-34029728D02*
X9463888Y-34010680D01*
X9463888Y-34010680D02*
X9454364Y-33972585D01*
X9454364Y-33972585D02*
X9454364Y-33924966D01*
X9454364Y-33924966D02*
X9463888Y-33886871D01*
X9463888Y-33886871D02*
X9473412Y-33867823D01*
X9473412Y-33867823D02*
X9482935Y-33858300D01*
X9482935Y-33858300D02*
X9501983Y-33848776D01*
X9692459Y-33848776D02*
X9711507Y-33848776D01*
X9711507Y-33848776D02*
X9730554Y-33858300D01*
X9730554Y-33858300D02*
X9740078Y-33867823D01*
X9740078Y-33867823D02*
X9749602Y-33886871D01*
X9749602Y-33886871D02*
X9759126Y-33924966D01*
X9759126Y-33924966D02*
X9759126Y-33972585D01*
X9759126Y-33972585D02*
X9749602Y-34010680D01*
X9749602Y-34010680D02*
X9740078Y-34029728D01*
X9740078Y-34029728D02*
X9730554Y-34039252D01*
X9730554Y-34039252D02*
X9711507Y-34048776D01*
X9711507Y-34048776D02*
X9692459Y-34048776D01*
X9692459Y-34048776D02*
X9673412Y-34039252D01*
X9673412Y-34039252D02*
X9663888Y-34029728D01*
X9663888Y-34029728D02*
X9654364Y-34010680D01*
X9654364Y-34010680D02*
X9644840Y-33972585D01*
X9644840Y-33972585D02*
X9644840Y-33924966D01*
X9644840Y-33924966D02*
X9654364Y-33886871D01*
X9654364Y-33886871D02*
X9663888Y-33867823D01*
X9663888Y-33867823D02*
X9673412Y-33858300D01*
X9673412Y-33858300D02*
X9692459Y-33848776D01*
X9844840Y-34048776D02*
X9844840Y-33915442D01*
X9844840Y-33934490D02*
X9854364Y-33924966D01*
X9854364Y-33924966D02*
X9873412Y-33915442D01*
X9873412Y-33915442D02*
X9901983Y-33915442D01*
X9901983Y-33915442D02*
X9921031Y-33924966D01*
X9921031Y-33924966D02*
X9930554Y-33944014D01*
X9930554Y-33944014D02*
X9930554Y-34048776D01*
X9930554Y-33944014D02*
X9940078Y-33924966D01*
X9940078Y-33924966D02*
X9959126Y-33915442D01*
X9959126Y-33915442D02*
X9987697Y-33915442D01*
X9987697Y-33915442D02*
X10006745Y-33924966D01*
X10006745Y-33924966D02*
X10016269Y-33944014D01*
X10016269Y-33944014D02*
X10016269Y-34048776D01*
X10111507Y-34048776D02*
X10111507Y-33915442D01*
X10111507Y-33934490D02*
X10121031Y-33924966D01*
X10121031Y-33924966D02*
X10140078Y-33915442D01*
X10140078Y-33915442D02*
X10168650Y-33915442D01*
X10168650Y-33915442D02*
X10187697Y-33924966D01*
X10187697Y-33924966D02*
X10197221Y-33944014D01*
X10197221Y-33944014D02*
X10197221Y-34048776D01*
X10197221Y-33944014D02*
X10206745Y-33924966D01*
X10206745Y-33924966D02*
X10225793Y-33915442D01*
X10225793Y-33915442D02*
X10254364Y-33915442D01*
X10254364Y-33915442D02*
X10273412Y-33924966D01*
X10273412Y-33924966D02*
X10282935Y-33944014D01*
X10282935Y-33944014D02*
X10282935Y-34048776D01*
X10673412Y-33839252D02*
X10501983Y-34096395D01*
X10930555Y-33848776D02*
X10949602Y-33848776D01*
X10949602Y-33848776D02*
X10968650Y-33858300D01*
X10968650Y-33858300D02*
X10978174Y-33867823D01*
X10978174Y-33867823D02*
X10987697Y-33886871D01*
X10987697Y-33886871D02*
X10997221Y-33924966D01*
X10997221Y-33924966D02*
X10997221Y-33972585D01*
X10997221Y-33972585D02*
X10987697Y-34010680D01*
X10987697Y-34010680D02*
X10978174Y-34029728D01*
X10978174Y-34029728D02*
X10968650Y-34039252D01*
X10968650Y-34039252D02*
X10949602Y-34048776D01*
X10949602Y-34048776D02*
X10930555Y-34048776D01*
X10930555Y-34048776D02*
X10911507Y-34039252D01*
X10911507Y-34039252D02*
X10901983Y-34029728D01*
X10901983Y-34029728D02*
X10892459Y-34010680D01*
X10892459Y-34010680D02*
X10882936Y-33972585D01*
X10882936Y-33972585D02*
X10882936Y-33924966D01*
X10882936Y-33924966D02*
X10892459Y-33886871D01*
X10892459Y-33886871D02*
X10901983Y-33867823D01*
X10901983Y-33867823D02*
X10911507Y-33858300D01*
X10911507Y-33858300D02*
X10930555Y-33848776D01*
X11082936Y-34029728D02*
X11092459Y-34039252D01*
X11092459Y-34039252D02*
X11082936Y-34048776D01*
X11082936Y-34048776D02*
X11073412Y-34039252D01*
X11073412Y-34039252D02*
X11082936Y-34029728D01*
X11082936Y-34029728D02*
X11082936Y-34048776D01*
X11216269Y-33848776D02*
X11235316Y-33848776D01*
X11235316Y-33848776D02*
X11254364Y-33858300D01*
X11254364Y-33858300D02*
X11263888Y-33867823D01*
X11263888Y-33867823D02*
X11273412Y-33886871D01*
X11273412Y-33886871D02*
X11282935Y-33924966D01*
X11282935Y-33924966D02*
X11282935Y-33972585D01*
X11282935Y-33972585D02*
X11273412Y-34010680D01*
X11273412Y-34010680D02*
X11263888Y-34029728D01*
X11263888Y-34029728D02*
X11254364Y-34039252D01*
X11254364Y-34039252D02*
X11235316Y-34048776D01*
X11235316Y-34048776D02*
X11216269Y-34048776D01*
X11216269Y-34048776D02*
X11197221Y-34039252D01*
X11197221Y-34039252D02*
X11187697Y-34029728D01*
X11187697Y-34029728D02*
X11178174Y-34010680D01*
X11178174Y-34010680D02*
X11168650Y-33972585D01*
X11168650Y-33972585D02*
X11168650Y-33924966D01*
X11168650Y-33924966D02*
X11178174Y-33886871D01*
X11178174Y-33886871D02*
X11187697Y-33867823D01*
X11187697Y-33867823D02*
X11197221Y-33858300D01*
X11197221Y-33858300D02*
X11216269Y-33848776D01*
X11463888Y-33848776D02*
X11368650Y-33848776D01*
X11368650Y-33848776D02*
X11359126Y-33944014D01*
X11359126Y-33944014D02*
X11368650Y-33934490D01*
X11368650Y-33934490D02*
X11387697Y-33924966D01*
X11387697Y-33924966D02*
X11435316Y-33924966D01*
X11435316Y-33924966D02*
X11454364Y-33934490D01*
X11454364Y-33934490D02*
X11463888Y-33944014D01*
X11463888Y-33944014D02*
X11473412Y-33963061D01*
X11473412Y-33963061D02*
X11473412Y-34010680D01*
X11473412Y-34010680D02*
X11463888Y-34029728D01*
X11463888Y-34029728D02*
X11454364Y-34039252D01*
X11454364Y-34039252D02*
X11435316Y-34048776D01*
X11435316Y-34048776D02*
X11387697Y-34048776D01*
X11387697Y-34048776D02*
X11368650Y-34039252D01*
X11368650Y-34039252D02*
X11359126Y-34029728D01*
X11663888Y-34048776D02*
X11549602Y-34048776D01*
X11606745Y-34048776D02*
X11606745Y-33848776D01*
X11606745Y-33848776D02*
X11587697Y-33877347D01*
X11587697Y-33877347D02*
X11568650Y-33896395D01*
X11568650Y-33896395D02*
X11549602Y-33905919D01*
X11740078Y-33867823D02*
X11749602Y-33858300D01*
X11749602Y-33858300D02*
X11768650Y-33848776D01*
X11768650Y-33848776D02*
X11816269Y-33848776D01*
X11816269Y-33848776D02*
X11835316Y-33858300D01*
X11835316Y-33858300D02*
X11844840Y-33867823D01*
X11844840Y-33867823D02*
X11854364Y-33886871D01*
X11854364Y-33886871D02*
X11854364Y-33905919D01*
X11854364Y-33905919D02*
X11844840Y-33934490D01*
X11844840Y-33934490D02*
X11730555Y-34048776D01*
X11730555Y-34048776D02*
X11854364Y-34048776D01*
X11930555Y-33848776D02*
X11930555Y-33886871D01*
X12006745Y-33848776D02*
X12006745Y-33886871D01*
X12301983Y-34124966D02*
X12292459Y-34115442D01*
X12292459Y-34115442D02*
X12273412Y-34086871D01*
X12273412Y-34086871D02*
X12263888Y-34067823D01*
X12263888Y-34067823D02*
X12254364Y-34039252D01*
X12254364Y-34039252D02*
X12244840Y-33991633D01*
X12244840Y-33991633D02*
X12244840Y-33953538D01*
X12244840Y-33953538D02*
X12254364Y-33905919D01*
X12254364Y-33905919D02*
X12263888Y-33877347D01*
X12263888Y-33877347D02*
X12273412Y-33858300D01*
X12273412Y-33858300D02*
X12292459Y-33829728D01*
X12292459Y-33829728D02*
X12301983Y-33820204D01*
X12368650Y-33867823D02*
X12378174Y-33858300D01*
X12378174Y-33858300D02*
X12397221Y-33848776D01*
X12397221Y-33848776D02*
X12444840Y-33848776D01*
X12444840Y-33848776D02*
X12463888Y-33858300D01*
X12463888Y-33858300D02*
X12473412Y-33867823D01*
X12473412Y-33867823D02*
X12482936Y-33886871D01*
X12482936Y-33886871D02*
X12482936Y-33905919D01*
X12482936Y-33905919D02*
X12473412Y-33934490D01*
X12473412Y-33934490D02*
X12359126Y-34048776D01*
X12359126Y-34048776D02*
X12482936Y-34048776D01*
X12721031Y-34048776D02*
X12721031Y-33848776D01*
X12806745Y-34048776D02*
X12806745Y-33944014D01*
X12806745Y-33944014D02*
X12797221Y-33924966D01*
X12797221Y-33924966D02*
X12778174Y-33915442D01*
X12778174Y-33915442D02*
X12749602Y-33915442D01*
X12749602Y-33915442D02*
X12730555Y-33924966D01*
X12730555Y-33924966D02*
X12721031Y-33934490D01*
X12930555Y-34048776D02*
X12911507Y-34039252D01*
X12911507Y-34039252D02*
X12901983Y-34029728D01*
X12901983Y-34029728D02*
X12892459Y-34010680D01*
X12892459Y-34010680D02*
X12892459Y-33953538D01*
X12892459Y-33953538D02*
X12901983Y-33934490D01*
X12901983Y-33934490D02*
X12911507Y-33924966D01*
X12911507Y-33924966D02*
X12930555Y-33915442D01*
X12930555Y-33915442D02*
X12959126Y-33915442D01*
X12959126Y-33915442D02*
X12978174Y-33924966D01*
X12978174Y-33924966D02*
X12987698Y-33934490D01*
X12987698Y-33934490D02*
X12997221Y-33953538D01*
X12997221Y-33953538D02*
X12997221Y-34010680D01*
X12997221Y-34010680D02*
X12987698Y-34029728D01*
X12987698Y-34029728D02*
X12978174Y-34039252D01*
X12978174Y-34039252D02*
X12959126Y-34048776D01*
X12959126Y-34048776D02*
X12930555Y-34048776D01*
X13111507Y-34048776D02*
X13092459Y-34039252D01*
X13092459Y-34039252D02*
X13082936Y-34020204D01*
X13082936Y-34020204D02*
X13082936Y-33848776D01*
X13263888Y-34039252D02*
X13244840Y-34048776D01*
X13244840Y-34048776D02*
X13206745Y-34048776D01*
X13206745Y-34048776D02*
X13187698Y-34039252D01*
X13187698Y-34039252D02*
X13178174Y-34020204D01*
X13178174Y-34020204D02*
X13178174Y-33944014D01*
X13178174Y-33944014D02*
X13187698Y-33924966D01*
X13187698Y-33924966D02*
X13206745Y-33915442D01*
X13206745Y-33915442D02*
X13244840Y-33915442D01*
X13244840Y-33915442D02*
X13263888Y-33924966D01*
X13263888Y-33924966D02*
X13273412Y-33944014D01*
X13273412Y-33944014D02*
X13273412Y-33963061D01*
X13273412Y-33963061D02*
X13178174Y-33982109D01*
X13349602Y-34039252D02*
X13368650Y-34048776D01*
X13368650Y-34048776D02*
X13406745Y-34048776D01*
X13406745Y-34048776D02*
X13425793Y-34039252D01*
X13425793Y-34039252D02*
X13435317Y-34020204D01*
X13435317Y-34020204D02*
X13435317Y-34010680D01*
X13435317Y-34010680D02*
X13425793Y-33991633D01*
X13425793Y-33991633D02*
X13406745Y-33982109D01*
X13406745Y-33982109D02*
X13378174Y-33982109D01*
X13378174Y-33982109D02*
X13359126Y-33972585D01*
X13359126Y-33972585D02*
X13349602Y-33953538D01*
X13349602Y-33953538D02*
X13349602Y-33944014D01*
X13349602Y-33944014D02*
X13359126Y-33924966D01*
X13359126Y-33924966D02*
X13378174Y-33915442D01*
X13378174Y-33915442D02*
X13406745Y-33915442D01*
X13406745Y-33915442D02*
X13425793Y-33924966D01*
X13501983Y-34124966D02*
X13511507Y-34115442D01*
X13511507Y-34115442D02*
X13530555Y-34086871D01*
X13530555Y-34086871D02*
X13540079Y-34067823D01*
X13540079Y-34067823D02*
X13549602Y-34039252D01*
X13549602Y-34039252D02*
X13559126Y-33991633D01*
X13559126Y-33991633D02*
X13559126Y-33953538D01*
X13559126Y-33953538D02*
X13549602Y-33905919D01*
X13549602Y-33905919D02*
X13540079Y-33877347D01*
X13540079Y-33877347D02*
X13530555Y-33858300D01*
X13530555Y-33858300D02*
X13511507Y-33829728D01*
X13511507Y-33829728D02*
X13501983Y-33820204D01*
X8626920Y-34321292D02*
X8726920Y-34221292D01*
X8626920Y-34121292D01*
X8526920Y-34221292D01*
X8626920Y-34321292D01*
X8968650Y-34112776D02*
X9092459Y-34112776D01*
X9092459Y-34112776D02*
X9025792Y-34188966D01*
X9025792Y-34188966D02*
X9054364Y-34188966D01*
X9054364Y-34188966D02*
X9073412Y-34198490D01*
X9073412Y-34198490D02*
X9082935Y-34208014D01*
X9082935Y-34208014D02*
X9092459Y-34227061D01*
X9092459Y-34227061D02*
X9092459Y-34274680D01*
X9092459Y-34274680D02*
X9082935Y-34293728D01*
X9082935Y-34293728D02*
X9073412Y-34303252D01*
X9073412Y-34303252D02*
X9054364Y-34312776D01*
X9054364Y-34312776D02*
X8997221Y-34312776D01*
X8997221Y-34312776D02*
X8978173Y-34303252D01*
X8978173Y-34303252D02*
X8968650Y-34293728D01*
X9178173Y-34293728D02*
X9187697Y-34303252D01*
X9187697Y-34303252D02*
X9178173Y-34312776D01*
X9178173Y-34312776D02*
X9168650Y-34303252D01*
X9168650Y-34303252D02*
X9178173Y-34293728D01*
X9178173Y-34293728D02*
X9178173Y-34312776D01*
X9263888Y-34131823D02*
X9273412Y-34122300D01*
X9273412Y-34122300D02*
X9292459Y-34112776D01*
X9292459Y-34112776D02*
X9340078Y-34112776D01*
X9340078Y-34112776D02*
X9359126Y-34122300D01*
X9359126Y-34122300D02*
X9368650Y-34131823D01*
X9368650Y-34131823D02*
X9378173Y-34150871D01*
X9378173Y-34150871D02*
X9378173Y-34169919D01*
X9378173Y-34169919D02*
X9368650Y-34198490D01*
X9368650Y-34198490D02*
X9254364Y-34312776D01*
X9254364Y-34312776D02*
X9378173Y-34312776D01*
X9501983Y-34112776D02*
X9521031Y-34112776D01*
X9521031Y-34112776D02*
X9540078Y-34122300D01*
X9540078Y-34122300D02*
X9549602Y-34131823D01*
X9549602Y-34131823D02*
X9559126Y-34150871D01*
X9559126Y-34150871D02*
X9568650Y-34188966D01*
X9568650Y-34188966D02*
X9568650Y-34236585D01*
X9568650Y-34236585D02*
X9559126Y-34274680D01*
X9559126Y-34274680D02*
X9549602Y-34293728D01*
X9549602Y-34293728D02*
X9540078Y-34303252D01*
X9540078Y-34303252D02*
X9521031Y-34312776D01*
X9521031Y-34312776D02*
X9501983Y-34312776D01*
X9501983Y-34312776D02*
X9482935Y-34303252D01*
X9482935Y-34303252D02*
X9473412Y-34293728D01*
X9473412Y-34293728D02*
X9463888Y-34274680D01*
X9463888Y-34274680D02*
X9454364Y-34236585D01*
X9454364Y-34236585D02*
X9454364Y-34188966D01*
X9454364Y-34188966D02*
X9463888Y-34150871D01*
X9463888Y-34150871D02*
X9473412Y-34131823D01*
X9473412Y-34131823D02*
X9482935Y-34122300D01*
X9482935Y-34122300D02*
X9501983Y-34112776D01*
X9692459Y-34112776D02*
X9711507Y-34112776D01*
X9711507Y-34112776D02*
X9730554Y-34122300D01*
X9730554Y-34122300D02*
X9740078Y-34131823D01*
X9740078Y-34131823D02*
X9749602Y-34150871D01*
X9749602Y-34150871D02*
X9759126Y-34188966D01*
X9759126Y-34188966D02*
X9759126Y-34236585D01*
X9759126Y-34236585D02*
X9749602Y-34274680D01*
X9749602Y-34274680D02*
X9740078Y-34293728D01*
X9740078Y-34293728D02*
X9730554Y-34303252D01*
X9730554Y-34303252D02*
X9711507Y-34312776D01*
X9711507Y-34312776D02*
X9692459Y-34312776D01*
X9692459Y-34312776D02*
X9673412Y-34303252D01*
X9673412Y-34303252D02*
X9663888Y-34293728D01*
X9663888Y-34293728D02*
X9654364Y-34274680D01*
X9654364Y-34274680D02*
X9644840Y-34236585D01*
X9644840Y-34236585D02*
X9644840Y-34188966D01*
X9644840Y-34188966D02*
X9654364Y-34150871D01*
X9654364Y-34150871D02*
X9663888Y-34131823D01*
X9663888Y-34131823D02*
X9673412Y-34122300D01*
X9673412Y-34122300D02*
X9692459Y-34112776D01*
X9844840Y-34312776D02*
X9844840Y-34179442D01*
X9844840Y-34198490D02*
X9854364Y-34188966D01*
X9854364Y-34188966D02*
X9873412Y-34179442D01*
X9873412Y-34179442D02*
X9901983Y-34179442D01*
X9901983Y-34179442D02*
X9921031Y-34188966D01*
X9921031Y-34188966D02*
X9930554Y-34208014D01*
X9930554Y-34208014D02*
X9930554Y-34312776D01*
X9930554Y-34208014D02*
X9940078Y-34188966D01*
X9940078Y-34188966D02*
X9959126Y-34179442D01*
X9959126Y-34179442D02*
X9987697Y-34179442D01*
X9987697Y-34179442D02*
X10006745Y-34188966D01*
X10006745Y-34188966D02*
X10016269Y-34208014D01*
X10016269Y-34208014D02*
X10016269Y-34312776D01*
X10111507Y-34312776D02*
X10111507Y-34179442D01*
X10111507Y-34198490D02*
X10121031Y-34188966D01*
X10121031Y-34188966D02*
X10140078Y-34179442D01*
X10140078Y-34179442D02*
X10168650Y-34179442D01*
X10168650Y-34179442D02*
X10187697Y-34188966D01*
X10187697Y-34188966D02*
X10197221Y-34208014D01*
X10197221Y-34208014D02*
X10197221Y-34312776D01*
X10197221Y-34208014D02*
X10206745Y-34188966D01*
X10206745Y-34188966D02*
X10225793Y-34179442D01*
X10225793Y-34179442D02*
X10254364Y-34179442D01*
X10254364Y-34179442D02*
X10273412Y-34188966D01*
X10273412Y-34188966D02*
X10282935Y-34208014D01*
X10282935Y-34208014D02*
X10282935Y-34312776D01*
X10673412Y-34103252D02*
X10501983Y-34360395D01*
X10930555Y-34112776D02*
X10949602Y-34112776D01*
X10949602Y-34112776D02*
X10968650Y-34122300D01*
X10968650Y-34122300D02*
X10978174Y-34131823D01*
X10978174Y-34131823D02*
X10987697Y-34150871D01*
X10987697Y-34150871D02*
X10997221Y-34188966D01*
X10997221Y-34188966D02*
X10997221Y-34236585D01*
X10997221Y-34236585D02*
X10987697Y-34274680D01*
X10987697Y-34274680D02*
X10978174Y-34293728D01*
X10978174Y-34293728D02*
X10968650Y-34303252D01*
X10968650Y-34303252D02*
X10949602Y-34312776D01*
X10949602Y-34312776D02*
X10930555Y-34312776D01*
X10930555Y-34312776D02*
X10911507Y-34303252D01*
X10911507Y-34303252D02*
X10901983Y-34293728D01*
X10901983Y-34293728D02*
X10892459Y-34274680D01*
X10892459Y-34274680D02*
X10882936Y-34236585D01*
X10882936Y-34236585D02*
X10882936Y-34188966D01*
X10882936Y-34188966D02*
X10892459Y-34150871D01*
X10892459Y-34150871D02*
X10901983Y-34131823D01*
X10901983Y-34131823D02*
X10911507Y-34122300D01*
X10911507Y-34122300D02*
X10930555Y-34112776D01*
X11082936Y-34293728D02*
X11092459Y-34303252D01*
X11092459Y-34303252D02*
X11082936Y-34312776D01*
X11082936Y-34312776D02*
X11073412Y-34303252D01*
X11073412Y-34303252D02*
X11082936Y-34293728D01*
X11082936Y-34293728D02*
X11082936Y-34312776D01*
X11282935Y-34312776D02*
X11168650Y-34312776D01*
X11225793Y-34312776D02*
X11225793Y-34112776D01*
X11225793Y-34112776D02*
X11206745Y-34141347D01*
X11206745Y-34141347D02*
X11187697Y-34160395D01*
X11187697Y-34160395D02*
X11168650Y-34169919D01*
X11359126Y-34131823D02*
X11368650Y-34122300D01*
X11368650Y-34122300D02*
X11387697Y-34112776D01*
X11387697Y-34112776D02*
X11435316Y-34112776D01*
X11435316Y-34112776D02*
X11454364Y-34122300D01*
X11454364Y-34122300D02*
X11463888Y-34131823D01*
X11463888Y-34131823D02*
X11473412Y-34150871D01*
X11473412Y-34150871D02*
X11473412Y-34169919D01*
X11473412Y-34169919D02*
X11463888Y-34198490D01*
X11463888Y-34198490D02*
X11349602Y-34312776D01*
X11349602Y-34312776D02*
X11473412Y-34312776D01*
X11644840Y-34112776D02*
X11606745Y-34112776D01*
X11606745Y-34112776D02*
X11587697Y-34122300D01*
X11587697Y-34122300D02*
X11578174Y-34131823D01*
X11578174Y-34131823D02*
X11559126Y-34160395D01*
X11559126Y-34160395D02*
X11549602Y-34198490D01*
X11549602Y-34198490D02*
X11549602Y-34274680D01*
X11549602Y-34274680D02*
X11559126Y-34293728D01*
X11559126Y-34293728D02*
X11568650Y-34303252D01*
X11568650Y-34303252D02*
X11587697Y-34312776D01*
X11587697Y-34312776D02*
X11625793Y-34312776D01*
X11625793Y-34312776D02*
X11644840Y-34303252D01*
X11644840Y-34303252D02*
X11654364Y-34293728D01*
X11654364Y-34293728D02*
X11663888Y-34274680D01*
X11663888Y-34274680D02*
X11663888Y-34227061D01*
X11663888Y-34227061D02*
X11654364Y-34208014D01*
X11654364Y-34208014D02*
X11644840Y-34198490D01*
X11644840Y-34198490D02*
X11625793Y-34188966D01*
X11625793Y-34188966D02*
X11587697Y-34188966D01*
X11587697Y-34188966D02*
X11568650Y-34198490D01*
X11568650Y-34198490D02*
X11559126Y-34208014D01*
X11559126Y-34208014D02*
X11549602Y-34227061D01*
X11787697Y-34112776D02*
X11806745Y-34112776D01*
X11806745Y-34112776D02*
X11825793Y-34122300D01*
X11825793Y-34122300D02*
X11835316Y-34131823D01*
X11835316Y-34131823D02*
X11844840Y-34150871D01*
X11844840Y-34150871D02*
X11854364Y-34188966D01*
X11854364Y-34188966D02*
X11854364Y-34236585D01*
X11854364Y-34236585D02*
X11844840Y-34274680D01*
X11844840Y-34274680D02*
X11835316Y-34293728D01*
X11835316Y-34293728D02*
X11825793Y-34303252D01*
X11825793Y-34303252D02*
X11806745Y-34312776D01*
X11806745Y-34312776D02*
X11787697Y-34312776D01*
X11787697Y-34312776D02*
X11768650Y-34303252D01*
X11768650Y-34303252D02*
X11759126Y-34293728D01*
X11759126Y-34293728D02*
X11749602Y-34274680D01*
X11749602Y-34274680D02*
X11740078Y-34236585D01*
X11740078Y-34236585D02*
X11740078Y-34188966D01*
X11740078Y-34188966D02*
X11749602Y-34150871D01*
X11749602Y-34150871D02*
X11759126Y-34131823D01*
X11759126Y-34131823D02*
X11768650Y-34122300D01*
X11768650Y-34122300D02*
X11787697Y-34112776D01*
X11930555Y-34112776D02*
X11930555Y-34150871D01*
X12006745Y-34112776D02*
X12006745Y-34150871D01*
X12301983Y-34388966D02*
X12292459Y-34379442D01*
X12292459Y-34379442D02*
X12273412Y-34350871D01*
X12273412Y-34350871D02*
X12263888Y-34331823D01*
X12263888Y-34331823D02*
X12254364Y-34303252D01*
X12254364Y-34303252D02*
X12244840Y-34255633D01*
X12244840Y-34255633D02*
X12244840Y-34217538D01*
X12244840Y-34217538D02*
X12254364Y-34169919D01*
X12254364Y-34169919D02*
X12263888Y-34141347D01*
X12263888Y-34141347D02*
X12273412Y-34122300D01*
X12273412Y-34122300D02*
X12292459Y-34093728D01*
X12292459Y-34093728D02*
X12301983Y-34084204D01*
X12463888Y-34179442D02*
X12463888Y-34312776D01*
X12416269Y-34103252D02*
X12368650Y-34246109D01*
X12368650Y-34246109D02*
X12492459Y-34246109D01*
X12721031Y-34312776D02*
X12721031Y-34112776D01*
X12806745Y-34312776D02*
X12806745Y-34208014D01*
X12806745Y-34208014D02*
X12797221Y-34188966D01*
X12797221Y-34188966D02*
X12778174Y-34179442D01*
X12778174Y-34179442D02*
X12749602Y-34179442D01*
X12749602Y-34179442D02*
X12730555Y-34188966D01*
X12730555Y-34188966D02*
X12721031Y-34198490D01*
X12930555Y-34312776D02*
X12911507Y-34303252D01*
X12911507Y-34303252D02*
X12901983Y-34293728D01*
X12901983Y-34293728D02*
X12892459Y-34274680D01*
X12892459Y-34274680D02*
X12892459Y-34217538D01*
X12892459Y-34217538D02*
X12901983Y-34198490D01*
X12901983Y-34198490D02*
X12911507Y-34188966D01*
X12911507Y-34188966D02*
X12930555Y-34179442D01*
X12930555Y-34179442D02*
X12959126Y-34179442D01*
X12959126Y-34179442D02*
X12978174Y-34188966D01*
X12978174Y-34188966D02*
X12987698Y-34198490D01*
X12987698Y-34198490D02*
X12997221Y-34217538D01*
X12997221Y-34217538D02*
X12997221Y-34274680D01*
X12997221Y-34274680D02*
X12987698Y-34293728D01*
X12987698Y-34293728D02*
X12978174Y-34303252D01*
X12978174Y-34303252D02*
X12959126Y-34312776D01*
X12959126Y-34312776D02*
X12930555Y-34312776D01*
X13111507Y-34312776D02*
X13092459Y-34303252D01*
X13092459Y-34303252D02*
X13082936Y-34284204D01*
X13082936Y-34284204D02*
X13082936Y-34112776D01*
X13263888Y-34303252D02*
X13244840Y-34312776D01*
X13244840Y-34312776D02*
X13206745Y-34312776D01*
X13206745Y-34312776D02*
X13187698Y-34303252D01*
X13187698Y-34303252D02*
X13178174Y-34284204D01*
X13178174Y-34284204D02*
X13178174Y-34208014D01*
X13178174Y-34208014D02*
X13187698Y-34188966D01*
X13187698Y-34188966D02*
X13206745Y-34179442D01*
X13206745Y-34179442D02*
X13244840Y-34179442D01*
X13244840Y-34179442D02*
X13263888Y-34188966D01*
X13263888Y-34188966D02*
X13273412Y-34208014D01*
X13273412Y-34208014D02*
X13273412Y-34227061D01*
X13273412Y-34227061D02*
X13178174Y-34246109D01*
X13349602Y-34303252D02*
X13368650Y-34312776D01*
X13368650Y-34312776D02*
X13406745Y-34312776D01*
X13406745Y-34312776D02*
X13425793Y-34303252D01*
X13425793Y-34303252D02*
X13435317Y-34284204D01*
X13435317Y-34284204D02*
X13435317Y-34274680D01*
X13435317Y-34274680D02*
X13425793Y-34255633D01*
X13425793Y-34255633D02*
X13406745Y-34246109D01*
X13406745Y-34246109D02*
X13378174Y-34246109D01*
X13378174Y-34246109D02*
X13359126Y-34236585D01*
X13359126Y-34236585D02*
X13349602Y-34217538D01*
X13349602Y-34217538D02*
X13349602Y-34208014D01*
X13349602Y-34208014D02*
X13359126Y-34188966D01*
X13359126Y-34188966D02*
X13378174Y-34179442D01*
X13378174Y-34179442D02*
X13406745Y-34179442D01*
X13406745Y-34179442D02*
X13425793Y-34188966D01*
X13501983Y-34388966D02*
X13511507Y-34379442D01*
X13511507Y-34379442D02*
X13530555Y-34350871D01*
X13530555Y-34350871D02*
X13540079Y-34331823D01*
X13540079Y-34331823D02*
X13549602Y-34303252D01*
X13549602Y-34303252D02*
X13559126Y-34255633D01*
X13559126Y-34255633D02*
X13559126Y-34217538D01*
X13559126Y-34217538D02*
X13549602Y-34169919D01*
X13549602Y-34169919D02*
X13540079Y-34141347D01*
X13540079Y-34141347D02*
X13530555Y-34122300D01*
X13530555Y-34122300D02*
X13511507Y-34093728D01*
X13511507Y-34093728D02*
X13501983Y-34084204D01*
M02*
