M48
; DRILL file {KiCad 8.0.4} date 2024-08-09T12:36:01+0200
; FORMAT={-:-/ absolute / metric / decimal}
; #@! TF.CreationDate,2024-08-09T12:36:01+02:00
; #@! TF.GenerationSoftware,Kicad,Pcbnew,8.0.4
; #@! TF.FileFunction,NonPlated,1,2,NPTH
FMAT,2
METRIC
; #@! TA.AperFunction,NonPlated,NPTH,ComponentDrill
T1C0.700
; #@! TA.AperFunction,NonPlated,NPTH,ComponentDrill
T2C0.991
; #@! TA.AperFunction,NonPlated,NPTH,ComponentDrill
T3C1.702
; #@! TA.AperFunction,NonPlated,NPTH,ComponentDrill
T4C3.000
; #@! TA.AperFunction,NonPlated,NPTH,ComponentDrill
T5C3.429
%
G90
G05
T1
X215.741Y-286.838
X215.741Y-289.776
X215.741Y-286.838
X215.741Y-289.776
T2
X93.448Y-299.488
X103.73Y-297.675
X106.646Y-270.396
X109.598Y-287.138
X112.55Y-303.88
X116.927Y-268.583
X119.88Y-285.325
X122.832Y-302.067
X126.323Y-254.357
X127.509Y-271.315
X128.695Y-288.274
X136.738Y-253.628
X137.924Y-270.587
X139.11Y-287.546
X146.616Y-277.724
X146.616Y-260.724
X146.616Y-243.724
X157.056Y-277.724
X157.056Y-260.724
X157.056Y-243.724
X159.59Y-298.47
X164.616Y-252.16
X164.616Y-269.161
X164.616Y-286.161
X170.03Y-298.47
X175.056Y-252.16
X175.056Y-269.161
X175.056Y-286.161
X178.605Y-308.151
X182.616Y-254.88
X182.616Y-271.881
X182.616Y-288.881
X188.69Y-310.853
X193.056Y-254.88
X193.056Y-271.881
X193.056Y-288.881
X196.564Y-314.148
X205.605Y-319.368
T3
X92.443Y-295.4
X103.276Y-293.49
X105.641Y-266.308
X108.593Y-283.05
X111.545Y-299.792
X116.474Y-264.398
X119.426Y-281.14
X122.378Y-297.882
X125.751Y-250.186
X126.937Y-267.145
X128.123Y-284.104
X136.724Y-249.419
X137.91Y-266.378
X139.096Y-283.337
X146.336Y-273.524
X146.336Y-256.524
X146.336Y-239.524
X157.336Y-273.524
X157.336Y-256.524
X157.336Y-239.524
X159.31Y-302.67
X164.336Y-247.96
X164.336Y-264.961
X164.336Y-281.961
X170.31Y-302.67
X175.336Y-247.96
X175.336Y-264.961
X175.336Y-281.961
X179.422Y-304.022
X182.336Y-250.68
X182.336Y-267.681
X182.336Y-284.681
X190.047Y-306.869
X193.336Y-250.68
X193.336Y-267.681
X193.336Y-284.681
X198.421Y-310.37
X207.948Y-315.87
T4
X92.284Y-291.62
X96.826Y-288.586
X102.132Y-289.884
X105.482Y-262.529
X108.434Y-279.27
X110.024Y-259.494
X111.386Y-296.012
X112.976Y-276.236
X115.33Y-260.792
X115.928Y-292.978
X118.282Y-277.534
X121.234Y-294.276
X125.988Y-246.411
X127.174Y-263.369
X128.36Y-280.328
X130.823Y-243.867
X132.009Y-260.826
X133.194Y-277.785
X135.964Y-245.713
X137.15Y-262.672
X138.336Y-279.631
X146.836Y-269.774
X146.836Y-252.774
X146.836Y-235.774
X151.836Y-267.574
X151.836Y-250.574
X151.836Y-233.574
X156.836Y-269.774
X156.836Y-252.774
X156.836Y-235.774
X159.81Y-306.42
X164.81Y-308.62
X164.836Y-244.21
X164.836Y-261.211
X164.836Y-278.211
X169.81Y-306.42
X169.836Y-242.01
X169.836Y-259.011
X169.836Y-276.011
X174.836Y-244.21
X174.836Y-261.211
X174.836Y-278.211
X180.875Y-300.529
X182.836Y-246.93
X182.836Y-263.931
X182.836Y-280.931
X186.274Y-299.698
X187.836Y-244.73
X187.836Y-261.731
X187.836Y-278.731
X190.535Y-303.117
X192.836Y-246.93
X192.836Y-263.931
X192.836Y-280.931
X200.729Y-307.373
X206.16Y-307.967
X209.39Y-312.373
T5
X97.86Y-294.445
X111.057Y-265.353
X114.01Y-282.095
X116.962Y-298.837
X131.238Y-249.803
X132.424Y-266.761
X133.61Y-283.72
X151.836Y-273.524
X151.836Y-256.524
X151.836Y-239.524
X164.81Y-302.67
X169.836Y-247.96
X169.836Y-264.961
X169.836Y-281.961
X184.735Y-305.445
X187.836Y-250.68
X187.836Y-267.681
X187.836Y-284.681
X203.185Y-313.12
M30
