G04 #@! TF.GenerationSoftware,KiCad,Pcbnew,8.0.4*
G04 #@! TF.CreationDate,2024-08-09T12:35:52+02:00*
G04 #@! TF.ProjectId,totem_0_3,746f7465-6d5f-4305-9f33-2e6b69636164,0.3*
G04 #@! TF.SameCoordinates,Original*
G04 #@! TF.FileFunction,Legend,Top*
G04 #@! TF.FilePolarity,Positive*
%FSLAX46Y46*%
G04 Gerber Fmt 4.6, Leading zero omitted, Abs format (unit mm)*
G04 Created by KiCad (PCBNEW 8.0.4) date 2024-08-09 12:35:52*
%MOMM*%
%LPD*%
G01*
G04 APERTURE LIST*
G04 Aperture macros list*
%AMRotRect*
0 Rectangle, with rotation*
0 The origin of the aperture is its center*
0 $1 length*
0 $2 width*
0 $3 Rotation angle, in degrees counterclockwise*
0 Add horizontal line*
21,1,$1,$2,0,0,$3*%
G04 Aperture macros list end*
%ADD10C,0.150000*%
%ADD11C,0.300000*%
%ADD12C,0.120000*%
%ADD13C,0.381000*%
%ADD14C,2.000000*%
%ADD15C,1.752600*%
%ADD16C,2.500000*%
%ADD17C,0.750000*%
%ADD18C,0.900000*%
%ADD19R,1.000000X0.700000*%
%ADD20R,2.800000X1.000000*%
%ADD21C,1.701800*%
%ADD22RotRect,2.600000X2.600000X150.000000*%
%ADD23C,3.000000*%
%ADD24C,3.429000*%
%ADD25C,0.990600*%
%ADD26RotRect,2.600000X2.600000X165.000000*%
%ADD27R,2.600000X2.600000*%
%ADD28RotRect,2.600000X2.600000X190.000000*%
%ADD29RotRect,2.600000X2.600000X184.000000*%
%ADD30C,5.600000*%
G04 APERTURE END LIST*
D10*
X158382954Y-286445893D02*
X158999954Y-286445895D01*
X153406454Y-286445895D02*
X154023455Y-286445895D01*
X153709954Y-286148894D02*
X153709954Y-286765896D01*
X214852819Y-276941981D02*
X214376628Y-277275314D01*
X214852819Y-277513409D02*
X213852819Y-277513409D01*
X213852819Y-277513409D02*
X213852819Y-277132457D01*
X213852819Y-277132457D02*
X213900438Y-277037219D01*
X213900438Y-277037219D02*
X213948057Y-276989600D01*
X213948057Y-276989600D02*
X214043295Y-276941981D01*
X214043295Y-276941981D02*
X214186152Y-276941981D01*
X214186152Y-276941981D02*
X214281390Y-276989600D01*
X214281390Y-276989600D02*
X214329009Y-277037219D01*
X214329009Y-277037219D02*
X214376628Y-277132457D01*
X214376628Y-277132457D02*
X214376628Y-277513409D01*
X214329009Y-276513409D02*
X214329009Y-276180076D01*
X214852819Y-276037219D02*
X214852819Y-276513409D01*
X214852819Y-276513409D02*
X213852819Y-276513409D01*
X213852819Y-276513409D02*
X213852819Y-276037219D01*
X214805200Y-275656266D02*
X214852819Y-275513409D01*
X214852819Y-275513409D02*
X214852819Y-275275314D01*
X214852819Y-275275314D02*
X214805200Y-275180076D01*
X214805200Y-275180076D02*
X214757580Y-275132457D01*
X214757580Y-275132457D02*
X214662342Y-275084838D01*
X214662342Y-275084838D02*
X214567104Y-275084838D01*
X214567104Y-275084838D02*
X214471866Y-275132457D01*
X214471866Y-275132457D02*
X214424247Y-275180076D01*
X214424247Y-275180076D02*
X214376628Y-275275314D01*
X214376628Y-275275314D02*
X214329009Y-275465790D01*
X214329009Y-275465790D02*
X214281390Y-275561028D01*
X214281390Y-275561028D02*
X214233771Y-275608647D01*
X214233771Y-275608647D02*
X214138533Y-275656266D01*
X214138533Y-275656266D02*
X214043295Y-275656266D01*
X214043295Y-275656266D02*
X213948057Y-275608647D01*
X213948057Y-275608647D02*
X213900438Y-275561028D01*
X213900438Y-275561028D02*
X213852819Y-275465790D01*
X213852819Y-275465790D02*
X213852819Y-275227695D01*
X213852819Y-275227695D02*
X213900438Y-275084838D01*
X214329009Y-274656266D02*
X214329009Y-274322933D01*
X214852819Y-274180076D02*
X214852819Y-274656266D01*
X214852819Y-274656266D02*
X213852819Y-274656266D01*
X213852819Y-274656266D02*
X213852819Y-274180076D01*
X213852819Y-273894361D02*
X213852819Y-273322933D01*
X214852819Y-273608647D02*
X213852819Y-273608647D01*
X212777819Y-264171237D02*
X212854009Y-264171237D01*
X212854009Y-264171237D02*
X212930200Y-264209332D01*
X212930200Y-264209332D02*
X212968295Y-264247427D01*
X212968295Y-264247427D02*
X213006390Y-264323618D01*
X213006390Y-264323618D02*
X213044485Y-264475999D01*
X213044485Y-264475999D02*
X213044485Y-264666475D01*
X213044485Y-264666475D02*
X213006390Y-264818856D01*
X213006390Y-264818856D02*
X212968295Y-264895046D01*
X212968295Y-264895046D02*
X212930200Y-264933142D01*
X212930200Y-264933142D02*
X212854009Y-264971237D01*
X212854009Y-264971237D02*
X212777819Y-264971237D01*
X212777819Y-264971237D02*
X212701628Y-264933142D01*
X212701628Y-264933142D02*
X212663533Y-264895046D01*
X212663533Y-264895046D02*
X212625438Y-264818856D01*
X212625438Y-264818856D02*
X212587342Y-264666475D01*
X212587342Y-264666475D02*
X212587342Y-264475999D01*
X212587342Y-264475999D02*
X212625438Y-264323618D01*
X212625438Y-264323618D02*
X212663533Y-264247427D01*
X212663533Y-264247427D02*
X212701628Y-264209332D01*
X212701628Y-264209332D02*
X212777819Y-264171237D01*
X213806390Y-264971237D02*
X213349247Y-264971237D01*
X213577819Y-264971237D02*
X213577819Y-264171237D01*
X213577819Y-264171237D02*
X213501628Y-264285522D01*
X213501628Y-264285522D02*
X213425438Y-264361713D01*
X213425438Y-264361713D02*
X213349247Y-264399808D01*
X214301629Y-264171237D02*
X214377819Y-264171237D01*
X214377819Y-264171237D02*
X214454010Y-264209332D01*
X214454010Y-264209332D02*
X214492105Y-264247427D01*
X214492105Y-264247427D02*
X214530200Y-264323618D01*
X214530200Y-264323618D02*
X214568295Y-264475999D01*
X214568295Y-264475999D02*
X214568295Y-264666475D01*
X214568295Y-264666475D02*
X214530200Y-264818856D01*
X214530200Y-264818856D02*
X214492105Y-264895046D01*
X214492105Y-264895046D02*
X214454010Y-264933142D01*
X214454010Y-264933142D02*
X214377819Y-264971237D01*
X214377819Y-264971237D02*
X214301629Y-264971237D01*
X214301629Y-264971237D02*
X214225438Y-264933142D01*
X214225438Y-264933142D02*
X214187343Y-264895046D01*
X214187343Y-264895046D02*
X214149248Y-264818856D01*
X214149248Y-264818856D02*
X214111152Y-264666475D01*
X214111152Y-264666475D02*
X214111152Y-264475999D01*
X214111152Y-264475999D02*
X214149248Y-264323618D01*
X214149248Y-264323618D02*
X214187343Y-264247427D01*
X214187343Y-264247427D02*
X214225438Y-264209332D01*
X214225438Y-264209332D02*
X214301629Y-264171237D01*
X201703438Y-256551237D02*
X201779628Y-256551237D01*
X201779628Y-256551237D02*
X201855819Y-256589332D01*
X201855819Y-256589332D02*
X201893914Y-256627427D01*
X201893914Y-256627427D02*
X201932009Y-256703618D01*
X201932009Y-256703618D02*
X201970104Y-256855999D01*
X201970104Y-256855999D02*
X201970104Y-257046475D01*
X201970104Y-257046475D02*
X201932009Y-257198856D01*
X201932009Y-257198856D02*
X201893914Y-257275046D01*
X201893914Y-257275046D02*
X201855819Y-257313142D01*
X201855819Y-257313142D02*
X201779628Y-257351237D01*
X201779628Y-257351237D02*
X201703438Y-257351237D01*
X201703438Y-257351237D02*
X201627247Y-257313142D01*
X201627247Y-257313142D02*
X201589152Y-257275046D01*
X201589152Y-257275046D02*
X201551057Y-257198856D01*
X201551057Y-257198856D02*
X201512961Y-257046475D01*
X201512961Y-257046475D02*
X201512961Y-256855999D01*
X201512961Y-256855999D02*
X201551057Y-256703618D01*
X201551057Y-256703618D02*
X201589152Y-256627427D01*
X201589152Y-256627427D02*
X201627247Y-256589332D01*
X201627247Y-256589332D02*
X201703438Y-256551237D01*
X202274866Y-256627427D02*
X202312962Y-256589332D01*
X202312962Y-256589332D02*
X202389152Y-256551237D01*
X202389152Y-256551237D02*
X202579628Y-256551237D01*
X202579628Y-256551237D02*
X202655819Y-256589332D01*
X202655819Y-256589332D02*
X202693914Y-256627427D01*
X202693914Y-256627427D02*
X202732009Y-256703618D01*
X202732009Y-256703618D02*
X202732009Y-256779808D01*
X202732009Y-256779808D02*
X202693914Y-256894094D01*
X202693914Y-256894094D02*
X202236771Y-257351237D01*
X202236771Y-257351237D02*
X202732009Y-257351237D01*
X203417724Y-256817903D02*
X203417724Y-257351237D01*
X203227248Y-256513142D02*
X203036771Y-257084570D01*
X203036771Y-257084570D02*
X203532010Y-257084570D01*
X212885771Y-241349332D02*
X212809581Y-241311237D01*
X212809581Y-241311237D02*
X212695295Y-241311237D01*
X212695295Y-241311237D02*
X212581009Y-241349332D01*
X212581009Y-241349332D02*
X212504819Y-241425522D01*
X212504819Y-241425522D02*
X212466724Y-241501713D01*
X212466724Y-241501713D02*
X212428628Y-241654094D01*
X212428628Y-241654094D02*
X212428628Y-241768380D01*
X212428628Y-241768380D02*
X212466724Y-241920761D01*
X212466724Y-241920761D02*
X212504819Y-241996951D01*
X212504819Y-241996951D02*
X212581009Y-242073142D01*
X212581009Y-242073142D02*
X212695295Y-242111237D01*
X212695295Y-242111237D02*
X212771486Y-242111237D01*
X212771486Y-242111237D02*
X212885771Y-242073142D01*
X212885771Y-242073142D02*
X212923867Y-242035046D01*
X212923867Y-242035046D02*
X212923867Y-241768380D01*
X212923867Y-241768380D02*
X212771486Y-241768380D01*
X213266724Y-242111237D02*
X213266724Y-241311237D01*
X213266724Y-241311237D02*
X213723867Y-242111237D01*
X213723867Y-242111237D02*
X213723867Y-241311237D01*
X214104819Y-242111237D02*
X214104819Y-241311237D01*
X214104819Y-241311237D02*
X214295295Y-241311237D01*
X214295295Y-241311237D02*
X214409581Y-241349332D01*
X214409581Y-241349332D02*
X214485771Y-241425522D01*
X214485771Y-241425522D02*
X214523866Y-241501713D01*
X214523866Y-241501713D02*
X214561962Y-241654094D01*
X214561962Y-241654094D02*
X214561962Y-241768380D01*
X214561962Y-241768380D02*
X214523866Y-241920761D01*
X214523866Y-241920761D02*
X214485771Y-241996951D01*
X214485771Y-241996951D02*
X214409581Y-242073142D01*
X214409581Y-242073142D02*
X214295295Y-242111237D01*
X214295295Y-242111237D02*
X214104819Y-242111237D01*
X201970104Y-259891237D02*
X201512961Y-259891237D01*
X201741533Y-259891237D02*
X201741533Y-259091237D01*
X201741533Y-259091237D02*
X201665342Y-259205522D01*
X201665342Y-259205522D02*
X201589152Y-259281713D01*
X201589152Y-259281713D02*
X201512961Y-259319808D01*
X202465343Y-259091237D02*
X202541533Y-259091237D01*
X202541533Y-259091237D02*
X202617724Y-259129332D01*
X202617724Y-259129332D02*
X202655819Y-259167427D01*
X202655819Y-259167427D02*
X202693914Y-259243618D01*
X202693914Y-259243618D02*
X202732009Y-259395999D01*
X202732009Y-259395999D02*
X202732009Y-259586475D01*
X202732009Y-259586475D02*
X202693914Y-259738856D01*
X202693914Y-259738856D02*
X202655819Y-259815046D01*
X202655819Y-259815046D02*
X202617724Y-259853142D01*
X202617724Y-259853142D02*
X202541533Y-259891237D01*
X202541533Y-259891237D02*
X202465343Y-259891237D01*
X202465343Y-259891237D02*
X202389152Y-259853142D01*
X202389152Y-259853142D02*
X202351057Y-259815046D01*
X202351057Y-259815046D02*
X202312962Y-259738856D01*
X202312962Y-259738856D02*
X202274866Y-259586475D01*
X202274866Y-259586475D02*
X202274866Y-259395999D01*
X202274866Y-259395999D02*
X202312962Y-259243618D01*
X202312962Y-259243618D02*
X202351057Y-259167427D01*
X202351057Y-259167427D02*
X202389152Y-259129332D01*
X202389152Y-259129332D02*
X202465343Y-259091237D01*
X203227248Y-259091237D02*
X203303438Y-259091237D01*
X203303438Y-259091237D02*
X203379629Y-259129332D01*
X203379629Y-259129332D02*
X203417724Y-259167427D01*
X203417724Y-259167427D02*
X203455819Y-259243618D01*
X203455819Y-259243618D02*
X203493914Y-259395999D01*
X203493914Y-259395999D02*
X203493914Y-259586475D01*
X203493914Y-259586475D02*
X203455819Y-259738856D01*
X203455819Y-259738856D02*
X203417724Y-259815046D01*
X203417724Y-259815046D02*
X203379629Y-259853142D01*
X203379629Y-259853142D02*
X203303438Y-259891237D01*
X203303438Y-259891237D02*
X203227248Y-259891237D01*
X203227248Y-259891237D02*
X203151057Y-259853142D01*
X203151057Y-259853142D02*
X203112962Y-259815046D01*
X203112962Y-259815046D02*
X203074867Y-259738856D01*
X203074867Y-259738856D02*
X203036771Y-259586475D01*
X203036771Y-259586475D02*
X203036771Y-259395999D01*
X203036771Y-259395999D02*
X203074867Y-259243618D01*
X203074867Y-259243618D02*
X203112962Y-259167427D01*
X203112962Y-259167427D02*
X203151057Y-259129332D01*
X203151057Y-259129332D02*
X203227248Y-259091237D01*
X212777819Y-254011237D02*
X212854009Y-254011237D01*
X212854009Y-254011237D02*
X212930200Y-254049332D01*
X212930200Y-254049332D02*
X212968295Y-254087427D01*
X212968295Y-254087427D02*
X213006390Y-254163618D01*
X213006390Y-254163618D02*
X213044485Y-254315999D01*
X213044485Y-254315999D02*
X213044485Y-254506475D01*
X213044485Y-254506475D02*
X213006390Y-254658856D01*
X213006390Y-254658856D02*
X212968295Y-254735046D01*
X212968295Y-254735046D02*
X212930200Y-254773142D01*
X212930200Y-254773142D02*
X212854009Y-254811237D01*
X212854009Y-254811237D02*
X212777819Y-254811237D01*
X212777819Y-254811237D02*
X212701628Y-254773142D01*
X212701628Y-254773142D02*
X212663533Y-254735046D01*
X212663533Y-254735046D02*
X212625438Y-254658856D01*
X212625438Y-254658856D02*
X212587342Y-254506475D01*
X212587342Y-254506475D02*
X212587342Y-254315999D01*
X212587342Y-254315999D02*
X212625438Y-254163618D01*
X212625438Y-254163618D02*
X212663533Y-254087427D01*
X212663533Y-254087427D02*
X212701628Y-254049332D01*
X212701628Y-254049332D02*
X212777819Y-254011237D01*
X213539724Y-254011237D02*
X213615914Y-254011237D01*
X213615914Y-254011237D02*
X213692105Y-254049332D01*
X213692105Y-254049332D02*
X213730200Y-254087427D01*
X213730200Y-254087427D02*
X213768295Y-254163618D01*
X213768295Y-254163618D02*
X213806390Y-254315999D01*
X213806390Y-254315999D02*
X213806390Y-254506475D01*
X213806390Y-254506475D02*
X213768295Y-254658856D01*
X213768295Y-254658856D02*
X213730200Y-254735046D01*
X213730200Y-254735046D02*
X213692105Y-254773142D01*
X213692105Y-254773142D02*
X213615914Y-254811237D01*
X213615914Y-254811237D02*
X213539724Y-254811237D01*
X213539724Y-254811237D02*
X213463533Y-254773142D01*
X213463533Y-254773142D02*
X213425438Y-254735046D01*
X213425438Y-254735046D02*
X213387343Y-254658856D01*
X213387343Y-254658856D02*
X213349247Y-254506475D01*
X213349247Y-254506475D02*
X213349247Y-254315999D01*
X213349247Y-254315999D02*
X213387343Y-254163618D01*
X213387343Y-254163618D02*
X213425438Y-254087427D01*
X213425438Y-254087427D02*
X213463533Y-254049332D01*
X213463533Y-254049332D02*
X213539724Y-254011237D01*
X214111152Y-254087427D02*
X214149248Y-254049332D01*
X214149248Y-254049332D02*
X214225438Y-254011237D01*
X214225438Y-254011237D02*
X214415914Y-254011237D01*
X214415914Y-254011237D02*
X214492105Y-254049332D01*
X214492105Y-254049332D02*
X214530200Y-254087427D01*
X214530200Y-254087427D02*
X214568295Y-254163618D01*
X214568295Y-254163618D02*
X214568295Y-254239808D01*
X214568295Y-254239808D02*
X214530200Y-254354094D01*
X214530200Y-254354094D02*
X214073057Y-254811237D01*
X214073057Y-254811237D02*
X214568295Y-254811237D01*
X213044485Y-262431237D02*
X212587342Y-262431237D01*
X212815914Y-262431237D02*
X212815914Y-261631237D01*
X212815914Y-261631237D02*
X212739723Y-261745522D01*
X212739723Y-261745522D02*
X212663533Y-261821713D01*
X212663533Y-261821713D02*
X212587342Y-261859808D01*
X213806390Y-262431237D02*
X213349247Y-262431237D01*
X213577819Y-262431237D02*
X213577819Y-261631237D01*
X213577819Y-261631237D02*
X213501628Y-261745522D01*
X213501628Y-261745522D02*
X213425438Y-261821713D01*
X213425438Y-261821713D02*
X213349247Y-261859808D01*
X214568295Y-262431237D02*
X214111152Y-262431237D01*
X214339724Y-262431237D02*
X214339724Y-261631237D01*
X214339724Y-261631237D02*
X214263533Y-261745522D01*
X214263533Y-261745522D02*
X214187343Y-261821713D01*
X214187343Y-261821713D02*
X214111152Y-261859808D01*
X201970104Y-246429332D02*
X201893914Y-246391237D01*
X201893914Y-246391237D02*
X201779628Y-246391237D01*
X201779628Y-246391237D02*
X201665342Y-246429332D01*
X201665342Y-246429332D02*
X201589152Y-246505522D01*
X201589152Y-246505522D02*
X201551057Y-246581713D01*
X201551057Y-246581713D02*
X201512961Y-246734094D01*
X201512961Y-246734094D02*
X201512961Y-246848380D01*
X201512961Y-246848380D02*
X201551057Y-247000761D01*
X201551057Y-247000761D02*
X201589152Y-247076951D01*
X201589152Y-247076951D02*
X201665342Y-247153142D01*
X201665342Y-247153142D02*
X201779628Y-247191237D01*
X201779628Y-247191237D02*
X201855819Y-247191237D01*
X201855819Y-247191237D02*
X201970104Y-247153142D01*
X201970104Y-247153142D02*
X202008200Y-247115046D01*
X202008200Y-247115046D02*
X202008200Y-246848380D01*
X202008200Y-246848380D02*
X201855819Y-246848380D01*
X202351057Y-247191237D02*
X202351057Y-246391237D01*
X202351057Y-246391237D02*
X202808200Y-247191237D01*
X202808200Y-247191237D02*
X202808200Y-246391237D01*
X203189152Y-247191237D02*
X203189152Y-246391237D01*
X203189152Y-246391237D02*
X203379628Y-246391237D01*
X203379628Y-246391237D02*
X203493914Y-246429332D01*
X203493914Y-246429332D02*
X203570104Y-246505522D01*
X203570104Y-246505522D02*
X203608199Y-246581713D01*
X203608199Y-246581713D02*
X203646295Y-246734094D01*
X203646295Y-246734094D02*
X203646295Y-246848380D01*
X203646295Y-246848380D02*
X203608199Y-247000761D01*
X203608199Y-247000761D02*
X203570104Y-247076951D01*
X203570104Y-247076951D02*
X203493914Y-247153142D01*
X203493914Y-247153142D02*
X203379628Y-247191237D01*
X203379628Y-247191237D02*
X203189152Y-247191237D01*
X201703438Y-248941237D02*
X201779628Y-248941237D01*
X201779628Y-248941237D02*
X201855819Y-248979332D01*
X201855819Y-248979332D02*
X201893914Y-249017427D01*
X201893914Y-249017427D02*
X201932009Y-249093618D01*
X201932009Y-249093618D02*
X201970104Y-249245999D01*
X201970104Y-249245999D02*
X201970104Y-249436475D01*
X201970104Y-249436475D02*
X201932009Y-249588856D01*
X201932009Y-249588856D02*
X201893914Y-249665046D01*
X201893914Y-249665046D02*
X201855819Y-249703142D01*
X201855819Y-249703142D02*
X201779628Y-249741237D01*
X201779628Y-249741237D02*
X201703438Y-249741237D01*
X201703438Y-249741237D02*
X201627247Y-249703142D01*
X201627247Y-249703142D02*
X201589152Y-249665046D01*
X201589152Y-249665046D02*
X201551057Y-249588856D01*
X201551057Y-249588856D02*
X201512961Y-249436475D01*
X201512961Y-249436475D02*
X201512961Y-249245999D01*
X201512961Y-249245999D02*
X201551057Y-249093618D01*
X201551057Y-249093618D02*
X201589152Y-249017427D01*
X201589152Y-249017427D02*
X201627247Y-248979332D01*
X201627247Y-248979332D02*
X201703438Y-248941237D01*
X202732009Y-249741237D02*
X202274866Y-249741237D01*
X202503438Y-249741237D02*
X202503438Y-248941237D01*
X202503438Y-248941237D02*
X202427247Y-249055522D01*
X202427247Y-249055522D02*
X202351057Y-249131713D01*
X202351057Y-249131713D02*
X202274866Y-249169808D01*
X202998676Y-248941237D02*
X203532010Y-248941237D01*
X203532010Y-248941237D02*
X203189152Y-249741237D01*
X212511152Y-246391237D02*
X212777819Y-247191237D01*
X212777819Y-247191237D02*
X213044485Y-246391237D01*
X213768295Y-247115046D02*
X213730199Y-247153142D01*
X213730199Y-247153142D02*
X213615914Y-247191237D01*
X213615914Y-247191237D02*
X213539723Y-247191237D01*
X213539723Y-247191237D02*
X213425437Y-247153142D01*
X213425437Y-247153142D02*
X213349247Y-247076951D01*
X213349247Y-247076951D02*
X213311152Y-247000761D01*
X213311152Y-247000761D02*
X213273056Y-246848380D01*
X213273056Y-246848380D02*
X213273056Y-246734094D01*
X213273056Y-246734094D02*
X213311152Y-246581713D01*
X213311152Y-246581713D02*
X213349247Y-246505522D01*
X213349247Y-246505522D02*
X213425437Y-246429332D01*
X213425437Y-246429332D02*
X213539723Y-246391237D01*
X213539723Y-246391237D02*
X213615914Y-246391237D01*
X213615914Y-246391237D02*
X213730199Y-246429332D01*
X213730199Y-246429332D02*
X213768295Y-246467427D01*
X214568295Y-247115046D02*
X214530199Y-247153142D01*
X214530199Y-247153142D02*
X214415914Y-247191237D01*
X214415914Y-247191237D02*
X214339723Y-247191237D01*
X214339723Y-247191237D02*
X214225437Y-247153142D01*
X214225437Y-247153142D02*
X214149247Y-247076951D01*
X214149247Y-247076951D02*
X214111152Y-247000761D01*
X214111152Y-247000761D02*
X214073056Y-246848380D01*
X214073056Y-246848380D02*
X214073056Y-246734094D01*
X214073056Y-246734094D02*
X214111152Y-246581713D01*
X214111152Y-246581713D02*
X214149247Y-246505522D01*
X214149247Y-246505522D02*
X214225437Y-246429332D01*
X214225437Y-246429332D02*
X214339723Y-246391237D01*
X214339723Y-246391237D02*
X214415914Y-246391237D01*
X214415914Y-246391237D02*
X214530199Y-246429332D01*
X214530199Y-246429332D02*
X214568295Y-246467427D01*
X201703438Y-254041237D02*
X201779628Y-254041237D01*
X201779628Y-254041237D02*
X201855819Y-254079332D01*
X201855819Y-254079332D02*
X201893914Y-254117427D01*
X201893914Y-254117427D02*
X201932009Y-254193618D01*
X201932009Y-254193618D02*
X201970104Y-254345999D01*
X201970104Y-254345999D02*
X201970104Y-254536475D01*
X201970104Y-254536475D02*
X201932009Y-254688856D01*
X201932009Y-254688856D02*
X201893914Y-254765046D01*
X201893914Y-254765046D02*
X201855819Y-254803142D01*
X201855819Y-254803142D02*
X201779628Y-254841237D01*
X201779628Y-254841237D02*
X201703438Y-254841237D01*
X201703438Y-254841237D02*
X201627247Y-254803142D01*
X201627247Y-254803142D02*
X201589152Y-254765046D01*
X201589152Y-254765046D02*
X201551057Y-254688856D01*
X201551057Y-254688856D02*
X201512961Y-254536475D01*
X201512961Y-254536475D02*
X201512961Y-254345999D01*
X201512961Y-254345999D02*
X201551057Y-254193618D01*
X201551057Y-254193618D02*
X201589152Y-254117427D01*
X201589152Y-254117427D02*
X201627247Y-254079332D01*
X201627247Y-254079332D02*
X201703438Y-254041237D01*
X202274866Y-254117427D02*
X202312962Y-254079332D01*
X202312962Y-254079332D02*
X202389152Y-254041237D01*
X202389152Y-254041237D02*
X202579628Y-254041237D01*
X202579628Y-254041237D02*
X202655819Y-254079332D01*
X202655819Y-254079332D02*
X202693914Y-254117427D01*
X202693914Y-254117427D02*
X202732009Y-254193618D01*
X202732009Y-254193618D02*
X202732009Y-254269808D01*
X202732009Y-254269808D02*
X202693914Y-254384094D01*
X202693914Y-254384094D02*
X202236771Y-254841237D01*
X202236771Y-254841237D02*
X202732009Y-254841237D01*
X203036771Y-254117427D02*
X203074867Y-254079332D01*
X203074867Y-254079332D02*
X203151057Y-254041237D01*
X203151057Y-254041237D02*
X203341533Y-254041237D01*
X203341533Y-254041237D02*
X203417724Y-254079332D01*
X203417724Y-254079332D02*
X203455819Y-254117427D01*
X203455819Y-254117427D02*
X203493914Y-254193618D01*
X203493914Y-254193618D02*
X203493914Y-254269808D01*
X203493914Y-254269808D02*
X203455819Y-254384094D01*
X203455819Y-254384094D02*
X202998676Y-254841237D01*
X202998676Y-254841237D02*
X203493914Y-254841237D01*
X212961962Y-239571237D02*
X212695295Y-239190284D01*
X212504819Y-239571237D02*
X212504819Y-238771237D01*
X212504819Y-238771237D02*
X212809581Y-238771237D01*
X212809581Y-238771237D02*
X212885771Y-238809332D01*
X212885771Y-238809332D02*
X212923866Y-238847427D01*
X212923866Y-238847427D02*
X212961962Y-238923618D01*
X212961962Y-238923618D02*
X212961962Y-239037903D01*
X212961962Y-239037903D02*
X212923866Y-239114094D01*
X212923866Y-239114094D02*
X212885771Y-239152189D01*
X212885771Y-239152189D02*
X212809581Y-239190284D01*
X212809581Y-239190284D02*
X212504819Y-239190284D01*
X213266723Y-239342665D02*
X213647676Y-239342665D01*
X213190533Y-239571237D02*
X213457200Y-238771237D01*
X213457200Y-238771237D02*
X213723866Y-239571237D01*
X213914342Y-238771237D02*
X214104818Y-239571237D01*
X214104818Y-239571237D02*
X214257199Y-238999808D01*
X214257199Y-238999808D02*
X214409580Y-239571237D01*
X214409580Y-239571237D02*
X214600057Y-238771237D01*
X201970104Y-243889331D02*
X201893914Y-243851236D01*
X201893914Y-243851236D02*
X201779628Y-243851236D01*
X201779628Y-243851236D02*
X201665342Y-243889331D01*
X201665342Y-243889331D02*
X201589152Y-243965521D01*
X201589152Y-243965521D02*
X201551057Y-244041712D01*
X201551057Y-244041712D02*
X201512961Y-244194093D01*
X201512961Y-244194093D02*
X201512961Y-244308379D01*
X201512961Y-244308379D02*
X201551057Y-244460760D01*
X201551057Y-244460760D02*
X201589152Y-244536950D01*
X201589152Y-244536950D02*
X201665342Y-244613141D01*
X201665342Y-244613141D02*
X201779628Y-244651236D01*
X201779628Y-244651236D02*
X201855819Y-244651236D01*
X201855819Y-244651236D02*
X201970104Y-244613141D01*
X201970104Y-244613141D02*
X202008200Y-244575045D01*
X202008200Y-244575045D02*
X202008200Y-244308379D01*
X202008200Y-244308379D02*
X201855819Y-244308379D01*
X202351057Y-244651236D02*
X202351057Y-243851236D01*
X202351057Y-243851236D02*
X202808200Y-244651236D01*
X202808200Y-244651236D02*
X202808200Y-243851236D01*
X203189152Y-244651236D02*
X203189152Y-243851236D01*
X203189152Y-243851236D02*
X203379628Y-243851236D01*
X203379628Y-243851236D02*
X203493914Y-243889331D01*
X203493914Y-243889331D02*
X203570104Y-243965521D01*
X203570104Y-243965521D02*
X203608199Y-244041712D01*
X203608199Y-244041712D02*
X203646295Y-244194093D01*
X203646295Y-244194093D02*
X203646295Y-244308379D01*
X203646295Y-244308379D02*
X203608199Y-244460760D01*
X203608199Y-244460760D02*
X203570104Y-244536950D01*
X203570104Y-244536950D02*
X203493914Y-244613141D01*
X203493914Y-244613141D02*
X203379628Y-244651236D01*
X203379628Y-244651236D02*
X203189152Y-244651236D01*
D11*
X203258913Y-266319270D02*
X203258913Y-267319270D01*
X203258913Y-266462127D02*
X203330342Y-266390699D01*
X203330342Y-266390699D02*
X203473199Y-266319270D01*
X203473199Y-266319270D02*
X203687485Y-266319270D01*
X203687485Y-266319270D02*
X203830342Y-266390699D01*
X203830342Y-266390699D02*
X203901771Y-266533556D01*
X203901771Y-266533556D02*
X203901771Y-267319270D01*
X204616056Y-267319270D02*
X204616056Y-266319270D01*
X204616056Y-265819270D02*
X204544628Y-265890699D01*
X204544628Y-265890699D02*
X204616056Y-265962127D01*
X204616056Y-265962127D02*
X204687485Y-265890699D01*
X204687485Y-265890699D02*
X204616056Y-265819270D01*
X204616056Y-265819270D02*
X204616056Y-265962127D01*
X205973200Y-267247842D02*
X205830342Y-267319270D01*
X205830342Y-267319270D02*
X205544628Y-267319270D01*
X205544628Y-267319270D02*
X205401771Y-267247842D01*
X205401771Y-267247842D02*
X205330342Y-267176413D01*
X205330342Y-267176413D02*
X205258914Y-267033556D01*
X205258914Y-267033556D02*
X205258914Y-266604984D01*
X205258914Y-266604984D02*
X205330342Y-266462127D01*
X205330342Y-266462127D02*
X205401771Y-266390699D01*
X205401771Y-266390699D02*
X205544628Y-266319270D01*
X205544628Y-266319270D02*
X205830342Y-266319270D01*
X205830342Y-266319270D02*
X205973200Y-266390699D01*
X207187485Y-267247842D02*
X207044628Y-267319270D01*
X207044628Y-267319270D02*
X206758914Y-267319270D01*
X206758914Y-267319270D02*
X206616056Y-267247842D01*
X206616056Y-267247842D02*
X206544628Y-267104984D01*
X206544628Y-267104984D02*
X206544628Y-266533556D01*
X206544628Y-266533556D02*
X206616056Y-266390699D01*
X206616056Y-266390699D02*
X206758914Y-266319270D01*
X206758914Y-266319270D02*
X207044628Y-266319270D01*
X207044628Y-266319270D02*
X207187485Y-266390699D01*
X207187485Y-266390699D02*
X207258914Y-266533556D01*
X207258914Y-266533556D02*
X207258914Y-266676413D01*
X207258914Y-266676413D02*
X206544628Y-266819270D01*
X207901770Y-267176413D02*
X207973199Y-267247842D01*
X207973199Y-267247842D02*
X207901770Y-267319270D01*
X207901770Y-267319270D02*
X207830342Y-267247842D01*
X207830342Y-267247842D02*
X207901770Y-267176413D01*
X207901770Y-267176413D02*
X207901770Y-267319270D01*
X207901770Y-266747842D02*
X207830342Y-265890699D01*
X207830342Y-265890699D02*
X207901770Y-265819270D01*
X207901770Y-265819270D02*
X207973199Y-265890699D01*
X207973199Y-265890699D02*
X207901770Y-266747842D01*
X207901770Y-266747842D02*
X207901770Y-265819270D01*
X208616056Y-266319270D02*
X208616056Y-267319270D01*
X208616056Y-266462127D02*
X208687485Y-266390699D01*
X208687485Y-266390699D02*
X208830342Y-266319270D01*
X208830342Y-266319270D02*
X209044628Y-266319270D01*
X209044628Y-266319270D02*
X209187485Y-266390699D01*
X209187485Y-266390699D02*
X209258914Y-266533556D01*
X209258914Y-266533556D02*
X209258914Y-267319270D01*
X210616057Y-267319270D02*
X210616057Y-266533556D01*
X210616057Y-266533556D02*
X210544628Y-266390699D01*
X210544628Y-266390699D02*
X210401771Y-266319270D01*
X210401771Y-266319270D02*
X210116057Y-266319270D01*
X210116057Y-266319270D02*
X209973199Y-266390699D01*
X210616057Y-267247842D02*
X210473199Y-267319270D01*
X210473199Y-267319270D02*
X210116057Y-267319270D01*
X210116057Y-267319270D02*
X209973199Y-267247842D01*
X209973199Y-267247842D02*
X209901771Y-267104984D01*
X209901771Y-267104984D02*
X209901771Y-266962127D01*
X209901771Y-266962127D02*
X209973199Y-266819270D01*
X209973199Y-266819270D02*
X210116057Y-266747842D01*
X210116057Y-266747842D02*
X210473199Y-266747842D01*
X210473199Y-266747842D02*
X210616057Y-266676413D01*
X211330342Y-266319270D02*
X211330342Y-267319270D01*
X211330342Y-266462127D02*
X211401771Y-266390699D01*
X211401771Y-266390699D02*
X211544628Y-266319270D01*
X211544628Y-266319270D02*
X211758914Y-266319270D01*
X211758914Y-266319270D02*
X211901771Y-266390699D01*
X211901771Y-266390699D02*
X211973200Y-266533556D01*
X211973200Y-266533556D02*
X211973200Y-267319270D01*
X212901771Y-267319270D02*
X212758914Y-267247842D01*
X212758914Y-267247842D02*
X212687485Y-267176413D01*
X212687485Y-267176413D02*
X212616057Y-267033556D01*
X212616057Y-267033556D02*
X212616057Y-266604984D01*
X212616057Y-266604984D02*
X212687485Y-266462127D01*
X212687485Y-266462127D02*
X212758914Y-266390699D01*
X212758914Y-266390699D02*
X212901771Y-266319270D01*
X212901771Y-266319270D02*
X213116057Y-266319270D01*
X213116057Y-266319270D02*
X213258914Y-266390699D01*
X213258914Y-266390699D02*
X213330343Y-266462127D01*
X213330343Y-266462127D02*
X213401771Y-266604984D01*
X213401771Y-266604984D02*
X213401771Y-267033556D01*
X213401771Y-267033556D02*
X213330343Y-267176413D01*
X213330343Y-267176413D02*
X213258914Y-267247842D01*
X213258914Y-267247842D02*
X213116057Y-267319270D01*
X213116057Y-267319270D02*
X212901771Y-267319270D01*
D10*
X213190533Y-244651237D02*
X212923866Y-244270284D01*
X212733390Y-244651237D02*
X212733390Y-243851237D01*
X212733390Y-243851237D02*
X213038152Y-243851237D01*
X213038152Y-243851237D02*
X213114342Y-243889332D01*
X213114342Y-243889332D02*
X213152437Y-243927427D01*
X213152437Y-243927427D02*
X213190533Y-244003618D01*
X213190533Y-244003618D02*
X213190533Y-244117903D01*
X213190533Y-244117903D02*
X213152437Y-244194094D01*
X213152437Y-244194094D02*
X213114342Y-244232189D01*
X213114342Y-244232189D02*
X213038152Y-244270284D01*
X213038152Y-244270284D02*
X212733390Y-244270284D01*
X213495294Y-244613142D02*
X213609580Y-244651237D01*
X213609580Y-244651237D02*
X213800056Y-244651237D01*
X213800056Y-244651237D02*
X213876247Y-244613142D01*
X213876247Y-244613142D02*
X213914342Y-244575046D01*
X213914342Y-244575046D02*
X213952437Y-244498856D01*
X213952437Y-244498856D02*
X213952437Y-244422665D01*
X213952437Y-244422665D02*
X213914342Y-244346475D01*
X213914342Y-244346475D02*
X213876247Y-244308380D01*
X213876247Y-244308380D02*
X213800056Y-244270284D01*
X213800056Y-244270284D02*
X213647675Y-244232189D01*
X213647675Y-244232189D02*
X213571485Y-244194094D01*
X213571485Y-244194094D02*
X213533390Y-244155999D01*
X213533390Y-244155999D02*
X213495294Y-244079808D01*
X213495294Y-244079808D02*
X213495294Y-244003618D01*
X213495294Y-244003618D02*
X213533390Y-243927427D01*
X213533390Y-243927427D02*
X213571485Y-243889332D01*
X213571485Y-243889332D02*
X213647675Y-243851237D01*
X213647675Y-243851237D02*
X213838152Y-243851237D01*
X213838152Y-243851237D02*
X213952437Y-243889332D01*
X214181009Y-243851237D02*
X214638152Y-243851237D01*
X214409580Y-244651237D02*
X214409580Y-243851237D01*
X213044485Y-257351237D02*
X212587342Y-257351237D01*
X212815914Y-257351237D02*
X212815914Y-256551237D01*
X212815914Y-256551237D02*
X212739723Y-256665522D01*
X212739723Y-256665522D02*
X212663533Y-256741713D01*
X212663533Y-256741713D02*
X212587342Y-256779808D01*
X213806390Y-257351237D02*
X213349247Y-257351237D01*
X213577819Y-257351237D02*
X213577819Y-256551237D01*
X213577819Y-256551237D02*
X213501628Y-256665522D01*
X213501628Y-256665522D02*
X213425438Y-256741713D01*
X213425438Y-256741713D02*
X213349247Y-256779808D01*
X214530200Y-256551237D02*
X214149248Y-256551237D01*
X214149248Y-256551237D02*
X214111152Y-256932189D01*
X214111152Y-256932189D02*
X214149248Y-256894094D01*
X214149248Y-256894094D02*
X214225438Y-256855999D01*
X214225438Y-256855999D02*
X214415914Y-256855999D01*
X214415914Y-256855999D02*
X214492105Y-256894094D01*
X214492105Y-256894094D02*
X214530200Y-256932189D01*
X214530200Y-256932189D02*
X214568295Y-257008380D01*
X214568295Y-257008380D02*
X214568295Y-257198856D01*
X214568295Y-257198856D02*
X214530200Y-257275046D01*
X214530200Y-257275046D02*
X214492105Y-257313142D01*
X214492105Y-257313142D02*
X214415914Y-257351237D01*
X214415914Y-257351237D02*
X214225438Y-257351237D01*
X214225438Y-257351237D02*
X214149248Y-257313142D01*
X214149248Y-257313142D02*
X214111152Y-257275046D01*
X213044485Y-259891237D02*
X212587342Y-259891237D01*
X212815914Y-259891237D02*
X212815914Y-259091237D01*
X212815914Y-259091237D02*
X212739723Y-259205522D01*
X212739723Y-259205522D02*
X212663533Y-259281713D01*
X212663533Y-259281713D02*
X212587342Y-259319808D01*
X213806390Y-259891237D02*
X213349247Y-259891237D01*
X213577819Y-259891237D02*
X213577819Y-259091237D01*
X213577819Y-259091237D02*
X213501628Y-259205522D01*
X213501628Y-259205522D02*
X213425438Y-259281713D01*
X213425438Y-259281713D02*
X213349247Y-259319808D01*
X214073057Y-259091237D02*
X214568295Y-259091237D01*
X214568295Y-259091237D02*
X214301629Y-259395999D01*
X214301629Y-259395999D02*
X214415914Y-259395999D01*
X214415914Y-259395999D02*
X214492105Y-259434094D01*
X214492105Y-259434094D02*
X214530200Y-259472189D01*
X214530200Y-259472189D02*
X214568295Y-259548380D01*
X214568295Y-259548380D02*
X214568295Y-259738856D01*
X214568295Y-259738856D02*
X214530200Y-259815046D01*
X214530200Y-259815046D02*
X214492105Y-259853142D01*
X214492105Y-259853142D02*
X214415914Y-259891237D01*
X214415914Y-259891237D02*
X214187343Y-259891237D01*
X214187343Y-259891237D02*
X214111152Y-259853142D01*
X214111152Y-259853142D02*
X214073057Y-259815046D01*
X201703438Y-241241237D02*
X201779628Y-241241237D01*
X201779628Y-241241237D02*
X201855819Y-241279332D01*
X201855819Y-241279332D02*
X201893914Y-241317427D01*
X201893914Y-241317427D02*
X201932009Y-241393618D01*
X201932009Y-241393618D02*
X201970104Y-241545999D01*
X201970104Y-241545999D02*
X201970104Y-241736475D01*
X201970104Y-241736475D02*
X201932009Y-241888856D01*
X201932009Y-241888856D02*
X201893914Y-241965046D01*
X201893914Y-241965046D02*
X201855819Y-242003142D01*
X201855819Y-242003142D02*
X201779628Y-242041237D01*
X201779628Y-242041237D02*
X201703438Y-242041237D01*
X201703438Y-242041237D02*
X201627247Y-242003142D01*
X201627247Y-242003142D02*
X201589152Y-241965046D01*
X201589152Y-241965046D02*
X201551057Y-241888856D01*
X201551057Y-241888856D02*
X201512961Y-241736475D01*
X201512961Y-241736475D02*
X201512961Y-241545999D01*
X201512961Y-241545999D02*
X201551057Y-241393618D01*
X201551057Y-241393618D02*
X201589152Y-241317427D01*
X201589152Y-241317427D02*
X201627247Y-241279332D01*
X201627247Y-241279332D02*
X201703438Y-241241237D01*
X202465343Y-241241237D02*
X202541533Y-241241237D01*
X202541533Y-241241237D02*
X202617724Y-241279332D01*
X202617724Y-241279332D02*
X202655819Y-241317427D01*
X202655819Y-241317427D02*
X202693914Y-241393618D01*
X202693914Y-241393618D02*
X202732009Y-241545999D01*
X202732009Y-241545999D02*
X202732009Y-241736475D01*
X202732009Y-241736475D02*
X202693914Y-241888856D01*
X202693914Y-241888856D02*
X202655819Y-241965046D01*
X202655819Y-241965046D02*
X202617724Y-242003142D01*
X202617724Y-242003142D02*
X202541533Y-242041237D01*
X202541533Y-242041237D02*
X202465343Y-242041237D01*
X202465343Y-242041237D02*
X202389152Y-242003142D01*
X202389152Y-242003142D02*
X202351057Y-241965046D01*
X202351057Y-241965046D02*
X202312962Y-241888856D01*
X202312962Y-241888856D02*
X202274866Y-241736475D01*
X202274866Y-241736475D02*
X202274866Y-241545999D01*
X202274866Y-241545999D02*
X202312962Y-241393618D01*
X202312962Y-241393618D02*
X202351057Y-241317427D01*
X202351057Y-241317427D02*
X202389152Y-241279332D01*
X202389152Y-241279332D02*
X202465343Y-241241237D01*
X203189152Y-241584094D02*
X203112962Y-241545999D01*
X203112962Y-241545999D02*
X203074867Y-241507903D01*
X203074867Y-241507903D02*
X203036771Y-241431713D01*
X203036771Y-241431713D02*
X203036771Y-241393618D01*
X203036771Y-241393618D02*
X203074867Y-241317427D01*
X203074867Y-241317427D02*
X203112962Y-241279332D01*
X203112962Y-241279332D02*
X203189152Y-241241237D01*
X203189152Y-241241237D02*
X203341533Y-241241237D01*
X203341533Y-241241237D02*
X203417724Y-241279332D01*
X203417724Y-241279332D02*
X203455819Y-241317427D01*
X203455819Y-241317427D02*
X203493914Y-241393618D01*
X203493914Y-241393618D02*
X203493914Y-241431713D01*
X203493914Y-241431713D02*
X203455819Y-241507903D01*
X203455819Y-241507903D02*
X203417724Y-241545999D01*
X203417724Y-241545999D02*
X203341533Y-241584094D01*
X203341533Y-241584094D02*
X203189152Y-241584094D01*
X203189152Y-241584094D02*
X203112962Y-241622189D01*
X203112962Y-241622189D02*
X203074867Y-241660284D01*
X203074867Y-241660284D02*
X203036771Y-241736475D01*
X203036771Y-241736475D02*
X203036771Y-241888856D01*
X203036771Y-241888856D02*
X203074867Y-241965046D01*
X203074867Y-241965046D02*
X203112962Y-242003142D01*
X203112962Y-242003142D02*
X203189152Y-242041237D01*
X203189152Y-242041237D02*
X203341533Y-242041237D01*
X203341533Y-242041237D02*
X203417724Y-242003142D01*
X203417724Y-242003142D02*
X203455819Y-241965046D01*
X203455819Y-241965046D02*
X203493914Y-241888856D01*
X203493914Y-241888856D02*
X203493914Y-241736475D01*
X203493914Y-241736475D02*
X203455819Y-241660284D01*
X203455819Y-241660284D02*
X203417724Y-241622189D01*
X203417724Y-241622189D02*
X203341533Y-241584094D01*
X201703438Y-251541237D02*
X201779628Y-251541237D01*
X201779628Y-251541237D02*
X201855819Y-251579332D01*
X201855819Y-251579332D02*
X201893914Y-251617427D01*
X201893914Y-251617427D02*
X201932009Y-251693618D01*
X201932009Y-251693618D02*
X201970104Y-251845999D01*
X201970104Y-251845999D02*
X201970104Y-252036475D01*
X201970104Y-252036475D02*
X201932009Y-252188856D01*
X201932009Y-252188856D02*
X201893914Y-252265046D01*
X201893914Y-252265046D02*
X201855819Y-252303142D01*
X201855819Y-252303142D02*
X201779628Y-252341237D01*
X201779628Y-252341237D02*
X201703438Y-252341237D01*
X201703438Y-252341237D02*
X201627247Y-252303142D01*
X201627247Y-252303142D02*
X201589152Y-252265046D01*
X201589152Y-252265046D02*
X201551057Y-252188856D01*
X201551057Y-252188856D02*
X201512961Y-252036475D01*
X201512961Y-252036475D02*
X201512961Y-251845999D01*
X201512961Y-251845999D02*
X201551057Y-251693618D01*
X201551057Y-251693618D02*
X201589152Y-251617427D01*
X201589152Y-251617427D02*
X201627247Y-251579332D01*
X201627247Y-251579332D02*
X201703438Y-251541237D01*
X202274866Y-251617427D02*
X202312962Y-251579332D01*
X202312962Y-251579332D02*
X202389152Y-251541237D01*
X202389152Y-251541237D02*
X202579628Y-251541237D01*
X202579628Y-251541237D02*
X202655819Y-251579332D01*
X202655819Y-251579332D02*
X202693914Y-251617427D01*
X202693914Y-251617427D02*
X202732009Y-251693618D01*
X202732009Y-251693618D02*
X202732009Y-251769808D01*
X202732009Y-251769808D02*
X202693914Y-251884094D01*
X202693914Y-251884094D02*
X202236771Y-252341237D01*
X202236771Y-252341237D02*
X202732009Y-252341237D01*
X203227248Y-251541237D02*
X203303438Y-251541237D01*
X203303438Y-251541237D02*
X203379629Y-251579332D01*
X203379629Y-251579332D02*
X203417724Y-251617427D01*
X203417724Y-251617427D02*
X203455819Y-251693618D01*
X203455819Y-251693618D02*
X203493914Y-251845999D01*
X203493914Y-251845999D02*
X203493914Y-252036475D01*
X203493914Y-252036475D02*
X203455819Y-252188856D01*
X203455819Y-252188856D02*
X203417724Y-252265046D01*
X203417724Y-252265046D02*
X203379629Y-252303142D01*
X203379629Y-252303142D02*
X203303438Y-252341237D01*
X203303438Y-252341237D02*
X203227248Y-252341237D01*
X203227248Y-252341237D02*
X203151057Y-252303142D01*
X203151057Y-252303142D02*
X203112962Y-252265046D01*
X203112962Y-252265046D02*
X203074867Y-252188856D01*
X203074867Y-252188856D02*
X203036771Y-252036475D01*
X203036771Y-252036475D02*
X203036771Y-251845999D01*
X203036771Y-251845999D02*
X203074867Y-251693618D01*
X203074867Y-251693618D02*
X203112962Y-251617427D01*
X203112962Y-251617427D02*
X203151057Y-251579332D01*
X203151057Y-251579332D02*
X203227248Y-251541237D01*
X212777819Y-251471237D02*
X212854009Y-251471237D01*
X212854009Y-251471237D02*
X212930200Y-251509332D01*
X212930200Y-251509332D02*
X212968295Y-251547427D01*
X212968295Y-251547427D02*
X213006390Y-251623618D01*
X213006390Y-251623618D02*
X213044485Y-251775999D01*
X213044485Y-251775999D02*
X213044485Y-251966475D01*
X213044485Y-251966475D02*
X213006390Y-252118856D01*
X213006390Y-252118856D02*
X212968295Y-252195046D01*
X212968295Y-252195046D02*
X212930200Y-252233142D01*
X212930200Y-252233142D02*
X212854009Y-252271237D01*
X212854009Y-252271237D02*
X212777819Y-252271237D01*
X212777819Y-252271237D02*
X212701628Y-252233142D01*
X212701628Y-252233142D02*
X212663533Y-252195046D01*
X212663533Y-252195046D02*
X212625438Y-252118856D01*
X212625438Y-252118856D02*
X212587342Y-251966475D01*
X212587342Y-251966475D02*
X212587342Y-251775999D01*
X212587342Y-251775999D02*
X212625438Y-251623618D01*
X212625438Y-251623618D02*
X212663533Y-251547427D01*
X212663533Y-251547427D02*
X212701628Y-251509332D01*
X212701628Y-251509332D02*
X212777819Y-251471237D01*
X213349247Y-251547427D02*
X213387343Y-251509332D01*
X213387343Y-251509332D02*
X213463533Y-251471237D01*
X213463533Y-251471237D02*
X213654009Y-251471237D01*
X213654009Y-251471237D02*
X213730200Y-251509332D01*
X213730200Y-251509332D02*
X213768295Y-251547427D01*
X213768295Y-251547427D02*
X213806390Y-251623618D01*
X213806390Y-251623618D02*
X213806390Y-251699808D01*
X213806390Y-251699808D02*
X213768295Y-251814094D01*
X213768295Y-251814094D02*
X213311152Y-252271237D01*
X213311152Y-252271237D02*
X213806390Y-252271237D01*
X214187343Y-252271237D02*
X214339724Y-252271237D01*
X214339724Y-252271237D02*
X214415914Y-252233142D01*
X214415914Y-252233142D02*
X214454010Y-252195046D01*
X214454010Y-252195046D02*
X214530200Y-252080761D01*
X214530200Y-252080761D02*
X214568295Y-251928380D01*
X214568295Y-251928380D02*
X214568295Y-251623618D01*
X214568295Y-251623618D02*
X214530200Y-251547427D01*
X214530200Y-251547427D02*
X214492105Y-251509332D01*
X214492105Y-251509332D02*
X214415914Y-251471237D01*
X214415914Y-251471237D02*
X214263533Y-251471237D01*
X214263533Y-251471237D02*
X214187343Y-251509332D01*
X214187343Y-251509332D02*
X214149248Y-251547427D01*
X214149248Y-251547427D02*
X214111152Y-251623618D01*
X214111152Y-251623618D02*
X214111152Y-251814094D01*
X214111152Y-251814094D02*
X214149248Y-251890284D01*
X214149248Y-251890284D02*
X214187343Y-251928380D01*
X214187343Y-251928380D02*
X214263533Y-251966475D01*
X214263533Y-251966475D02*
X214415914Y-251966475D01*
X214415914Y-251966475D02*
X214492105Y-251928380D01*
X214492105Y-251928380D02*
X214530200Y-251890284D01*
X214530200Y-251890284D02*
X214568295Y-251814094D01*
X201703438Y-238771237D02*
X201779628Y-238771237D01*
X201779628Y-238771237D02*
X201855819Y-238809332D01*
X201855819Y-238809332D02*
X201893914Y-238847427D01*
X201893914Y-238847427D02*
X201932009Y-238923618D01*
X201932009Y-238923618D02*
X201970104Y-239075999D01*
X201970104Y-239075999D02*
X201970104Y-239266475D01*
X201970104Y-239266475D02*
X201932009Y-239418856D01*
X201932009Y-239418856D02*
X201893914Y-239495046D01*
X201893914Y-239495046D02*
X201855819Y-239533142D01*
X201855819Y-239533142D02*
X201779628Y-239571237D01*
X201779628Y-239571237D02*
X201703438Y-239571237D01*
X201703438Y-239571237D02*
X201627247Y-239533142D01*
X201627247Y-239533142D02*
X201589152Y-239495046D01*
X201589152Y-239495046D02*
X201551057Y-239418856D01*
X201551057Y-239418856D02*
X201512961Y-239266475D01*
X201512961Y-239266475D02*
X201512961Y-239075999D01*
X201512961Y-239075999D02*
X201551057Y-238923618D01*
X201551057Y-238923618D02*
X201589152Y-238847427D01*
X201589152Y-238847427D02*
X201627247Y-238809332D01*
X201627247Y-238809332D02*
X201703438Y-238771237D01*
X202465343Y-238771237D02*
X202541533Y-238771237D01*
X202541533Y-238771237D02*
X202617724Y-238809332D01*
X202617724Y-238809332D02*
X202655819Y-238847427D01*
X202655819Y-238847427D02*
X202693914Y-238923618D01*
X202693914Y-238923618D02*
X202732009Y-239075999D01*
X202732009Y-239075999D02*
X202732009Y-239266475D01*
X202732009Y-239266475D02*
X202693914Y-239418856D01*
X202693914Y-239418856D02*
X202655819Y-239495046D01*
X202655819Y-239495046D02*
X202617724Y-239533142D01*
X202617724Y-239533142D02*
X202541533Y-239571237D01*
X202541533Y-239571237D02*
X202465343Y-239571237D01*
X202465343Y-239571237D02*
X202389152Y-239533142D01*
X202389152Y-239533142D02*
X202351057Y-239495046D01*
X202351057Y-239495046D02*
X202312962Y-239418856D01*
X202312962Y-239418856D02*
X202274866Y-239266475D01*
X202274866Y-239266475D02*
X202274866Y-239075999D01*
X202274866Y-239075999D02*
X202312962Y-238923618D01*
X202312962Y-238923618D02*
X202351057Y-238847427D01*
X202351057Y-238847427D02*
X202389152Y-238809332D01*
X202389152Y-238809332D02*
X202465343Y-238771237D01*
X203417724Y-238771237D02*
X203265343Y-238771237D01*
X203265343Y-238771237D02*
X203189152Y-238809332D01*
X203189152Y-238809332D02*
X203151057Y-238847427D01*
X203151057Y-238847427D02*
X203074867Y-238961713D01*
X203074867Y-238961713D02*
X203036771Y-239114094D01*
X203036771Y-239114094D02*
X203036771Y-239418856D01*
X203036771Y-239418856D02*
X203074867Y-239495046D01*
X203074867Y-239495046D02*
X203112962Y-239533142D01*
X203112962Y-239533142D02*
X203189152Y-239571237D01*
X203189152Y-239571237D02*
X203341533Y-239571237D01*
X203341533Y-239571237D02*
X203417724Y-239533142D01*
X203417724Y-239533142D02*
X203455819Y-239495046D01*
X203455819Y-239495046D02*
X203493914Y-239418856D01*
X203493914Y-239418856D02*
X203493914Y-239228380D01*
X203493914Y-239228380D02*
X203455819Y-239152189D01*
X203455819Y-239152189D02*
X203417724Y-239114094D01*
X203417724Y-239114094D02*
X203341533Y-239075999D01*
X203341533Y-239075999D02*
X203189152Y-239075999D01*
X203189152Y-239075999D02*
X203112962Y-239114094D01*
X203112962Y-239114094D02*
X203074867Y-239152189D01*
X203074867Y-239152189D02*
X203036771Y-239228380D01*
X201970104Y-264971237D02*
X201512961Y-264971237D01*
X201741533Y-264971237D02*
X201741533Y-264171237D01*
X201741533Y-264171237D02*
X201665342Y-264285522D01*
X201665342Y-264285522D02*
X201589152Y-264361713D01*
X201589152Y-264361713D02*
X201512961Y-264399808D01*
X202465343Y-264171237D02*
X202541533Y-264171237D01*
X202541533Y-264171237D02*
X202617724Y-264209332D01*
X202617724Y-264209332D02*
X202655819Y-264247427D01*
X202655819Y-264247427D02*
X202693914Y-264323618D01*
X202693914Y-264323618D02*
X202732009Y-264475999D01*
X202732009Y-264475999D02*
X202732009Y-264666475D01*
X202732009Y-264666475D02*
X202693914Y-264818856D01*
X202693914Y-264818856D02*
X202655819Y-264895046D01*
X202655819Y-264895046D02*
X202617724Y-264933142D01*
X202617724Y-264933142D02*
X202541533Y-264971237D01*
X202541533Y-264971237D02*
X202465343Y-264971237D01*
X202465343Y-264971237D02*
X202389152Y-264933142D01*
X202389152Y-264933142D02*
X202351057Y-264895046D01*
X202351057Y-264895046D02*
X202312962Y-264818856D01*
X202312962Y-264818856D02*
X202274866Y-264666475D01*
X202274866Y-264666475D02*
X202274866Y-264475999D01*
X202274866Y-264475999D02*
X202312962Y-264323618D01*
X202312962Y-264323618D02*
X202351057Y-264247427D01*
X202351057Y-264247427D02*
X202389152Y-264209332D01*
X202389152Y-264209332D02*
X202465343Y-264171237D01*
X203417724Y-264437903D02*
X203417724Y-264971237D01*
X203227248Y-264133142D02*
X203036771Y-264704570D01*
X203036771Y-264704570D02*
X203532010Y-264704570D01*
X212777819Y-248931237D02*
X212854009Y-248931237D01*
X212854009Y-248931237D02*
X212930200Y-248969332D01*
X212930200Y-248969332D02*
X212968295Y-249007427D01*
X212968295Y-249007427D02*
X213006390Y-249083618D01*
X213006390Y-249083618D02*
X213044485Y-249235999D01*
X213044485Y-249235999D02*
X213044485Y-249426475D01*
X213044485Y-249426475D02*
X213006390Y-249578856D01*
X213006390Y-249578856D02*
X212968295Y-249655046D01*
X212968295Y-249655046D02*
X212930200Y-249693142D01*
X212930200Y-249693142D02*
X212854009Y-249731237D01*
X212854009Y-249731237D02*
X212777819Y-249731237D01*
X212777819Y-249731237D02*
X212701628Y-249693142D01*
X212701628Y-249693142D02*
X212663533Y-249655046D01*
X212663533Y-249655046D02*
X212625438Y-249578856D01*
X212625438Y-249578856D02*
X212587342Y-249426475D01*
X212587342Y-249426475D02*
X212587342Y-249235999D01*
X212587342Y-249235999D02*
X212625438Y-249083618D01*
X212625438Y-249083618D02*
X212663533Y-249007427D01*
X212663533Y-249007427D02*
X212701628Y-248969332D01*
X212701628Y-248969332D02*
X212777819Y-248931237D01*
X213311152Y-248931237D02*
X213806390Y-248931237D01*
X213806390Y-248931237D02*
X213539724Y-249235999D01*
X213539724Y-249235999D02*
X213654009Y-249235999D01*
X213654009Y-249235999D02*
X213730200Y-249274094D01*
X213730200Y-249274094D02*
X213768295Y-249312189D01*
X213768295Y-249312189D02*
X213806390Y-249388380D01*
X213806390Y-249388380D02*
X213806390Y-249578856D01*
X213806390Y-249578856D02*
X213768295Y-249655046D01*
X213768295Y-249655046D02*
X213730200Y-249693142D01*
X213730200Y-249693142D02*
X213654009Y-249731237D01*
X213654009Y-249731237D02*
X213425438Y-249731237D01*
X213425438Y-249731237D02*
X213349247Y-249693142D01*
X213349247Y-249693142D02*
X213311152Y-249655046D01*
X214568295Y-249731237D02*
X214111152Y-249731237D01*
X214339724Y-249731237D02*
X214339724Y-248931237D01*
X214339724Y-248931237D02*
X214263533Y-249045522D01*
X214263533Y-249045522D02*
X214187343Y-249121713D01*
X214187343Y-249121713D02*
X214111152Y-249159808D01*
X196611841Y-311995404D02*
X196711749Y-312108072D01*
X196711749Y-312108072D02*
X196917946Y-312227120D01*
X196917946Y-312227120D02*
X197024234Y-312233499D01*
X197024234Y-312233499D02*
X197089283Y-312216070D01*
X197089283Y-312216070D02*
X197178141Y-312157401D01*
X197178141Y-312157401D02*
X197225760Y-312074922D01*
X197225760Y-312074922D02*
X197232140Y-311968634D01*
X197232140Y-311968634D02*
X197214710Y-311903585D01*
X197214710Y-311903585D02*
X197156041Y-311814727D01*
X197156041Y-311814727D02*
X197014893Y-311678249D01*
X197014893Y-311678249D02*
X196956224Y-311589391D01*
X196956224Y-311589391D02*
X196938795Y-311524342D01*
X196938795Y-311524342D02*
X196945174Y-311418054D01*
X196945174Y-311418054D02*
X196992793Y-311335575D01*
X196992793Y-311335575D02*
X197081652Y-311276906D01*
X197081652Y-311276906D02*
X197146700Y-311259476D01*
X197146700Y-311259476D02*
X197252989Y-311265856D01*
X197252989Y-311265856D02*
X197459185Y-311384904D01*
X197459185Y-311384904D02*
X197559094Y-311497572D01*
X197871578Y-311622999D02*
X197577775Y-312608072D01*
X197577775Y-312608072D02*
X198099875Y-312084721D01*
X198099875Y-312084721D02*
X197907689Y-312798548D01*
X197907689Y-312798548D02*
X198613886Y-312051570D01*
X198897432Y-313369977D02*
X198402561Y-313084262D01*
X198649997Y-313227120D02*
X199149997Y-312361094D01*
X199149997Y-312361094D02*
X198996089Y-312437193D01*
X198996089Y-312437193D02*
X198865992Y-312472053D01*
X198865992Y-312472053D02*
X198759704Y-312465673D01*
X199309825Y-313608072D02*
X199474783Y-313703310D01*
X199474783Y-313703310D02*
X199581071Y-313709690D01*
X199581071Y-313709690D02*
X199646120Y-313692260D01*
X199646120Y-313692260D02*
X199800027Y-313616161D01*
X199800027Y-313616161D02*
X199936504Y-313475013D01*
X199936504Y-313475013D02*
X200126980Y-313145099D01*
X200126980Y-313145099D02*
X200133360Y-313038811D01*
X200133360Y-313038811D02*
X200115930Y-312973762D01*
X200115930Y-312973762D02*
X200057261Y-312884904D01*
X200057261Y-312884904D02*
X199892304Y-312789666D01*
X199892304Y-312789666D02*
X199786016Y-312783286D01*
X199786016Y-312783286D02*
X199720967Y-312800716D01*
X199720967Y-312800716D02*
X199632109Y-312859385D01*
X199632109Y-312859385D02*
X199513061Y-313065581D01*
X199513061Y-313065581D02*
X199506681Y-313171869D01*
X199506681Y-313171869D02*
X199524111Y-313236918D01*
X199524111Y-313236918D02*
X199582780Y-313325777D01*
X199582780Y-313325777D02*
X199747737Y-313421015D01*
X199747737Y-313421015D02*
X199854026Y-313427394D01*
X199854026Y-313427394D02*
X199919074Y-313409965D01*
X199919074Y-313409965D02*
X200007933Y-313351296D01*
X178094670Y-306059866D02*
X178220334Y-306142837D01*
X178220334Y-306142837D02*
X178450317Y-306204460D01*
X178450317Y-306204460D02*
X178554634Y-306183113D01*
X178554634Y-306183113D02*
X178612955Y-306149442D01*
X178612955Y-306149442D02*
X178683601Y-306069773D01*
X178683601Y-306069773D02*
X178708251Y-305977781D01*
X178708251Y-305977781D02*
X178686904Y-305873463D01*
X178686904Y-305873463D02*
X178653232Y-305815142D01*
X178653232Y-305815142D02*
X178573564Y-305744496D01*
X178573564Y-305744496D02*
X178401903Y-305649200D01*
X178401903Y-305649200D02*
X178322234Y-305578555D01*
X178322234Y-305578555D02*
X178288563Y-305520233D01*
X178288563Y-305520233D02*
X178267216Y-305415916D01*
X178267216Y-305415916D02*
X178291865Y-305323923D01*
X178291865Y-305323923D02*
X178362511Y-305244255D01*
X178362511Y-305244255D02*
X178420832Y-305210583D01*
X178420832Y-305210583D02*
X178525150Y-305189236D01*
X178525150Y-305189236D02*
X178755132Y-305250859D01*
X178755132Y-305250859D02*
X178880797Y-305333830D01*
X179215097Y-305374107D02*
X179186260Y-306401656D01*
X179186260Y-306401656D02*
X179555117Y-305761008D01*
X179555117Y-305761008D02*
X179554232Y-306500254D01*
X179554232Y-306500254D02*
X180043033Y-305595951D01*
X180658147Y-306796047D02*
X180106189Y-306648150D01*
X180382168Y-306722099D02*
X180640987Y-305756173D01*
X180640987Y-305756173D02*
X180512020Y-305869513D01*
X180512020Y-305869513D02*
X180395378Y-305936856D01*
X180395378Y-305936856D02*
X180291060Y-305958203D01*
X181358001Y-306391986D02*
X181278333Y-306321340D01*
X181278333Y-306321340D02*
X181244661Y-306263019D01*
X181244661Y-306263019D02*
X181223314Y-306158701D01*
X181223314Y-306158701D02*
X181235639Y-306112705D01*
X181235639Y-306112705D02*
X181306285Y-306033036D01*
X181306285Y-306033036D02*
X181364606Y-305999365D01*
X181364606Y-305999365D02*
X181468924Y-305978018D01*
X181468924Y-305978018D02*
X181652910Y-306027316D01*
X181652910Y-306027316D02*
X181732578Y-306097962D01*
X181732578Y-306097962D02*
X181766250Y-306156284D01*
X181766250Y-306156284D02*
X181787597Y-306260601D01*
X181787597Y-306260601D02*
X181775272Y-306306598D01*
X181775272Y-306306598D02*
X181704626Y-306386266D01*
X181704626Y-306386266D02*
X181646305Y-306419938D01*
X181646305Y-306419938D02*
X181541987Y-306441285D01*
X181541987Y-306441285D02*
X181358001Y-306391986D01*
X181358001Y-306391986D02*
X181253684Y-306413333D01*
X181253684Y-306413333D02*
X181195362Y-306447005D01*
X181195362Y-306447005D02*
X181124717Y-306526673D01*
X181124717Y-306526673D02*
X181075418Y-306710659D01*
X181075418Y-306710659D02*
X181096765Y-306814976D01*
X181096765Y-306814976D02*
X181130436Y-306873298D01*
X181130436Y-306873298D02*
X181210105Y-306943943D01*
X181210105Y-306943943D02*
X181394091Y-306993242D01*
X181394091Y-306993242D02*
X181498408Y-306971895D01*
X181498408Y-306971895D02*
X181556729Y-306938224D01*
X181556729Y-306938224D02*
X181627375Y-306858555D01*
X181627375Y-306858555D02*
X181676674Y-306674569D01*
X181676674Y-306674569D02*
X181655327Y-306570252D01*
X181655327Y-306570252D02*
X181621655Y-306511931D01*
X181621655Y-306511931D02*
X181541987Y-306441285D01*
X167445594Y-301172441D02*
X167588451Y-301220060D01*
X167588451Y-301220060D02*
X167826546Y-301220060D01*
X167826546Y-301220060D02*
X167921784Y-301172441D01*
X167921784Y-301172441D02*
X167969403Y-301124821D01*
X167969403Y-301124821D02*
X168017022Y-301029583D01*
X168017022Y-301029583D02*
X168017022Y-300934345D01*
X168017022Y-300934345D02*
X167969403Y-300839107D01*
X167969403Y-300839107D02*
X167921784Y-300791488D01*
X167921784Y-300791488D02*
X167826546Y-300743869D01*
X167826546Y-300743869D02*
X167636070Y-300696250D01*
X167636070Y-300696250D02*
X167540832Y-300648631D01*
X167540832Y-300648631D02*
X167493213Y-300601012D01*
X167493213Y-300601012D02*
X167445594Y-300505774D01*
X167445594Y-300505774D02*
X167445594Y-300410536D01*
X167445594Y-300410536D02*
X167493213Y-300315298D01*
X167493213Y-300315298D02*
X167540832Y-300267679D01*
X167540832Y-300267679D02*
X167636070Y-300220060D01*
X167636070Y-300220060D02*
X167874165Y-300220060D01*
X167874165Y-300220060D02*
X168017022Y-300267679D01*
X168350356Y-300220060D02*
X168588451Y-301220060D01*
X168588451Y-301220060D02*
X168778927Y-300505774D01*
X168778927Y-300505774D02*
X168969403Y-301220060D01*
X168969403Y-301220060D02*
X169207499Y-300220060D01*
X170112260Y-301220060D02*
X169540832Y-301220060D01*
X169826546Y-301220060D02*
X169826546Y-300220060D01*
X169826546Y-300220060D02*
X169731308Y-300362917D01*
X169731308Y-300362917D02*
X169636070Y-300458155D01*
X169636070Y-300458155D02*
X169540832Y-300505774D01*
X170445594Y-300220060D02*
X171112260Y-300220060D01*
X171112260Y-300220060D02*
X170683689Y-301220060D01*
X92101524Y-297808402D02*
X92250480Y-297830490D01*
X92250480Y-297830490D02*
X92484958Y-297789146D01*
X92484958Y-297789146D02*
X92570480Y-297725712D01*
X92570480Y-297725712D02*
X92609107Y-297670548D01*
X92609107Y-297670548D02*
X92639464Y-297568487D01*
X92639464Y-297568487D02*
X92622926Y-297474696D01*
X92622926Y-297474696D02*
X92559493Y-297389174D01*
X92559493Y-297389174D02*
X92504328Y-297350547D01*
X92504328Y-297350547D02*
X92402268Y-297320190D01*
X92402268Y-297320190D02*
X92206417Y-297306370D01*
X92206417Y-297306370D02*
X92104357Y-297276012D01*
X92104357Y-297276012D02*
X92049192Y-297237385D01*
X92049192Y-297237385D02*
X91985759Y-297151863D01*
X91985759Y-297151863D02*
X91969221Y-297058072D01*
X91969221Y-297058072D02*
X91999578Y-296956012D01*
X91999578Y-296956012D02*
X92038205Y-296900847D01*
X92038205Y-296900847D02*
X92123727Y-296837414D01*
X92123727Y-296837414D02*
X92358205Y-296796069D01*
X92358205Y-296796069D02*
X92507161Y-296818158D01*
X92827161Y-296713379D02*
X93235288Y-297656842D01*
X93235288Y-297656842D02*
X93298836Y-296920332D01*
X93298836Y-296920332D02*
X93610452Y-297590691D01*
X93610452Y-297590691D02*
X93671282Y-296564538D01*
X94735947Y-297392236D02*
X94173200Y-297491463D01*
X94454573Y-297441849D02*
X94280925Y-296457042D01*
X94280925Y-296457042D02*
X94211941Y-296614266D01*
X94211941Y-296614266D02*
X94134687Y-296724595D01*
X94134687Y-296724595D02*
X94049165Y-296788029D01*
X95406420Y-296258586D02*
X95218837Y-296291662D01*
X95218837Y-296291662D02*
X95133315Y-296355096D01*
X95133315Y-296355096D02*
X95094688Y-296410260D01*
X95094688Y-296410260D02*
X95025704Y-296567485D01*
X95025704Y-296567485D02*
X95011884Y-296763337D01*
X95011884Y-296763337D02*
X95078036Y-297138501D01*
X95078036Y-297138501D02*
X95141469Y-297224024D01*
X95141469Y-297224024D02*
X95196634Y-297262650D01*
X95196634Y-297262650D02*
X95298694Y-297293008D01*
X95298694Y-297293008D02*
X95486277Y-297259932D01*
X95486277Y-297259932D02*
X95571799Y-297196499D01*
X95571799Y-297196499D02*
X95610425Y-297141334D01*
X95610425Y-297141334D02*
X95640783Y-297039274D01*
X95640783Y-297039274D02*
X95599438Y-296804796D01*
X95599438Y-296804796D02*
X95536005Y-296719274D01*
X95536005Y-296719274D02*
X95480840Y-296680647D01*
X95480840Y-296680647D02*
X95378780Y-296650289D01*
X95378780Y-296650289D02*
X95191198Y-296683365D01*
X95191198Y-296683365D02*
X95105675Y-296746799D01*
X95105675Y-296746799D02*
X95067049Y-296801963D01*
X95067049Y-296801963D02*
X95036691Y-296904023D01*
X181581636Y-286993084D02*
X181724493Y-287040703D01*
X181724493Y-287040703D02*
X181962588Y-287040703D01*
X181962588Y-287040703D02*
X182057826Y-286993084D01*
X182057826Y-286993084D02*
X182105445Y-286945464D01*
X182105445Y-286945464D02*
X182153064Y-286850226D01*
X182153064Y-286850226D02*
X182153064Y-286754988D01*
X182153064Y-286754988D02*
X182105445Y-286659750D01*
X182105445Y-286659750D02*
X182057826Y-286612131D01*
X182057826Y-286612131D02*
X181962588Y-286564512D01*
X181962588Y-286564512D02*
X181772112Y-286516893D01*
X181772112Y-286516893D02*
X181676874Y-286469274D01*
X181676874Y-286469274D02*
X181629255Y-286421655D01*
X181629255Y-286421655D02*
X181581636Y-286326417D01*
X181581636Y-286326417D02*
X181581636Y-286231179D01*
X181581636Y-286231179D02*
X181629255Y-286135941D01*
X181629255Y-286135941D02*
X181676874Y-286088322D01*
X181676874Y-286088322D02*
X181772112Y-286040703D01*
X181772112Y-286040703D02*
X182010207Y-286040703D01*
X182010207Y-286040703D02*
X182153064Y-286088322D01*
X182486398Y-286040703D02*
X182724493Y-287040703D01*
X182724493Y-287040703D02*
X182914969Y-286326417D01*
X182914969Y-286326417D02*
X183105445Y-287040703D01*
X183105445Y-287040703D02*
X183343541Y-286040703D01*
X184248302Y-287040703D02*
X183676874Y-287040703D01*
X183962588Y-287040703D02*
X183962588Y-286040703D01*
X183962588Y-286040703D02*
X183867350Y-286183560D01*
X183867350Y-286183560D02*
X183772112Y-286278798D01*
X183772112Y-286278798D02*
X183676874Y-286326417D01*
X185153064Y-286040703D02*
X184676874Y-286040703D01*
X184676874Y-286040703D02*
X184629255Y-286516893D01*
X184629255Y-286516893D02*
X184676874Y-286469274D01*
X184676874Y-286469274D02*
X184772112Y-286421655D01*
X184772112Y-286421655D02*
X185010207Y-286421655D01*
X185010207Y-286421655D02*
X185105445Y-286469274D01*
X185105445Y-286469274D02*
X185153064Y-286516893D01*
X185153064Y-286516893D02*
X185200683Y-286612131D01*
X185200683Y-286612131D02*
X185200683Y-286850226D01*
X185200683Y-286850226D02*
X185153064Y-286945464D01*
X185153064Y-286945464D02*
X185105445Y-286993084D01*
X185105445Y-286993084D02*
X185010207Y-287040703D01*
X185010207Y-287040703D02*
X184772112Y-287040703D01*
X184772112Y-287040703D02*
X184676874Y-286993084D01*
X184676874Y-286993084D02*
X184629255Y-286945464D01*
X163581671Y-284272982D02*
X163724528Y-284320601D01*
X163724528Y-284320601D02*
X163962623Y-284320601D01*
X163962623Y-284320601D02*
X164057861Y-284272982D01*
X164057861Y-284272982D02*
X164105480Y-284225362D01*
X164105480Y-284225362D02*
X164153099Y-284130124D01*
X164153099Y-284130124D02*
X164153099Y-284034886D01*
X164153099Y-284034886D02*
X164105480Y-283939648D01*
X164105480Y-283939648D02*
X164057861Y-283892029D01*
X164057861Y-283892029D02*
X163962623Y-283844410D01*
X163962623Y-283844410D02*
X163772147Y-283796791D01*
X163772147Y-283796791D02*
X163676909Y-283749172D01*
X163676909Y-283749172D02*
X163629290Y-283701553D01*
X163629290Y-283701553D02*
X163581671Y-283606315D01*
X163581671Y-283606315D02*
X163581671Y-283511077D01*
X163581671Y-283511077D02*
X163629290Y-283415839D01*
X163629290Y-283415839D02*
X163676909Y-283368220D01*
X163676909Y-283368220D02*
X163772147Y-283320601D01*
X163772147Y-283320601D02*
X164010242Y-283320601D01*
X164010242Y-283320601D02*
X164153099Y-283368220D01*
X164486433Y-283320601D02*
X164724528Y-284320601D01*
X164724528Y-284320601D02*
X164915004Y-283606315D01*
X164915004Y-283606315D02*
X165105480Y-284320601D01*
X165105480Y-284320601D02*
X165343576Y-283320601D01*
X166248337Y-284320601D02*
X165676909Y-284320601D01*
X165962623Y-284320601D02*
X165962623Y-283320601D01*
X165962623Y-283320601D02*
X165867385Y-283463458D01*
X165867385Y-283463458D02*
X165772147Y-283558696D01*
X165772147Y-283558696D02*
X165676909Y-283606315D01*
X167105480Y-283653934D02*
X167105480Y-284320601D01*
X166867385Y-283272982D02*
X166629290Y-283987267D01*
X166629290Y-283987267D02*
X167248337Y-283987267D01*
X145581658Y-275836501D02*
X145724515Y-275884120D01*
X145724515Y-275884120D02*
X145962610Y-275884120D01*
X145962610Y-275884120D02*
X146057848Y-275836501D01*
X146057848Y-275836501D02*
X146105467Y-275788881D01*
X146105467Y-275788881D02*
X146153086Y-275693643D01*
X146153086Y-275693643D02*
X146153086Y-275598405D01*
X146153086Y-275598405D02*
X146105467Y-275503167D01*
X146105467Y-275503167D02*
X146057848Y-275455548D01*
X146057848Y-275455548D02*
X145962610Y-275407929D01*
X145962610Y-275407929D02*
X145772134Y-275360310D01*
X145772134Y-275360310D02*
X145676896Y-275312691D01*
X145676896Y-275312691D02*
X145629277Y-275265072D01*
X145629277Y-275265072D02*
X145581658Y-275169834D01*
X145581658Y-275169834D02*
X145581658Y-275074596D01*
X145581658Y-275074596D02*
X145629277Y-274979358D01*
X145629277Y-274979358D02*
X145676896Y-274931739D01*
X145676896Y-274931739D02*
X145772134Y-274884120D01*
X145772134Y-274884120D02*
X146010229Y-274884120D01*
X146010229Y-274884120D02*
X146153086Y-274931739D01*
X146486420Y-274884120D02*
X146724515Y-275884120D01*
X146724515Y-275884120D02*
X146914991Y-275169834D01*
X146914991Y-275169834D02*
X147105467Y-275884120D01*
X147105467Y-275884120D02*
X147343563Y-274884120D01*
X148248324Y-275884120D02*
X147676896Y-275884120D01*
X147962610Y-275884120D02*
X147962610Y-274884120D01*
X147962610Y-274884120D02*
X147867372Y-275026977D01*
X147867372Y-275026977D02*
X147772134Y-275122215D01*
X147772134Y-275122215D02*
X147676896Y-275169834D01*
X148581658Y-274884120D02*
X149200705Y-274884120D01*
X149200705Y-274884120D02*
X148867372Y-275265072D01*
X148867372Y-275265072D02*
X149010229Y-275265072D01*
X149010229Y-275265072D02*
X149105467Y-275312691D01*
X149105467Y-275312691D02*
X149153086Y-275360310D01*
X149153086Y-275360310D02*
X149200705Y-275455548D01*
X149200705Y-275455548D02*
X149200705Y-275693643D01*
X149200705Y-275693643D02*
X149153086Y-275788881D01*
X149153086Y-275788881D02*
X149105467Y-275836501D01*
X149105467Y-275836501D02*
X149010229Y-275884120D01*
X149010229Y-275884120D02*
X148724515Y-275884120D01*
X148724515Y-275884120D02*
X148629277Y-275836501D01*
X148629277Y-275836501D02*
X148581658Y-275788881D01*
X127531521Y-286463102D02*
X127677352Y-286500639D01*
X127677352Y-286500639D02*
X127914868Y-286484031D01*
X127914868Y-286484031D02*
X128006552Y-286429884D01*
X128006552Y-286429884D02*
X128050733Y-286379059D01*
X128050733Y-286379059D02*
X128091593Y-286280732D01*
X128091593Y-286280732D02*
X128084949Y-286185725D01*
X128084949Y-286185725D02*
X128030803Y-286094041D01*
X128030803Y-286094041D02*
X127979978Y-286049860D01*
X127979978Y-286049860D02*
X127881650Y-286009000D01*
X127881650Y-286009000D02*
X127688316Y-285974784D01*
X127688316Y-285974784D02*
X127589988Y-285933925D01*
X127589988Y-285933925D02*
X127539164Y-285889743D01*
X127539164Y-285889743D02*
X127485017Y-285798059D01*
X127485017Y-285798059D02*
X127478374Y-285703053D01*
X127478374Y-285703053D02*
X127519233Y-285604725D01*
X127519233Y-285604725D02*
X127563415Y-285553900D01*
X127563415Y-285553900D02*
X127655099Y-285499754D01*
X127655099Y-285499754D02*
X127892614Y-285483145D01*
X127892614Y-285483145D02*
X128038445Y-285520683D01*
X128367645Y-285449928D02*
X128674916Y-286430883D01*
X128674916Y-286430883D02*
X128815103Y-285705050D01*
X128815103Y-285705050D02*
X129054941Y-286404309D01*
X129054941Y-286404309D02*
X129222700Y-285390136D01*
X130195014Y-286324587D02*
X129624977Y-286364448D01*
X129909996Y-286344518D02*
X129840239Y-285346954D01*
X129840239Y-285346954D02*
X129755198Y-285496106D01*
X129755198Y-285496106D02*
X129666836Y-285597756D01*
X129666836Y-285597756D02*
X129575151Y-285651902D01*
X130511925Y-285395456D02*
X130556107Y-285344631D01*
X130556107Y-285344631D02*
X130647791Y-285290484D01*
X130647791Y-285290484D02*
X130885306Y-285273876D01*
X130885306Y-285273876D02*
X130983634Y-285314735D01*
X130983634Y-285314735D02*
X131034459Y-285358916D01*
X131034459Y-285358916D02*
X131088605Y-285450601D01*
X131088605Y-285450601D02*
X131095249Y-285545607D01*
X131095249Y-285545607D02*
X131057711Y-285691438D01*
X131057711Y-285691438D02*
X130527535Y-286301335D01*
X130527535Y-286301335D02*
X131145075Y-286258153D01*
X111203582Y-302200353D02*
X111352538Y-302222441D01*
X111352538Y-302222441D02*
X111587016Y-302181097D01*
X111587016Y-302181097D02*
X111672538Y-302117663D01*
X111672538Y-302117663D02*
X111711165Y-302062499D01*
X111711165Y-302062499D02*
X111741522Y-301960438D01*
X111741522Y-301960438D02*
X111724984Y-301866647D01*
X111724984Y-301866647D02*
X111661551Y-301781125D01*
X111661551Y-301781125D02*
X111606386Y-301742498D01*
X111606386Y-301742498D02*
X111504326Y-301712141D01*
X111504326Y-301712141D02*
X111308475Y-301698321D01*
X111308475Y-301698321D02*
X111206415Y-301667963D01*
X111206415Y-301667963D02*
X111151250Y-301629336D01*
X111151250Y-301629336D02*
X111087817Y-301543814D01*
X111087817Y-301543814D02*
X111071279Y-301450023D01*
X111071279Y-301450023D02*
X111101636Y-301347963D01*
X111101636Y-301347963D02*
X111140263Y-301292798D01*
X111140263Y-301292798D02*
X111225785Y-301229365D01*
X111225785Y-301229365D02*
X111460263Y-301188020D01*
X111460263Y-301188020D02*
X111609219Y-301210109D01*
X111929219Y-301105330D02*
X112337346Y-302048793D01*
X112337346Y-302048793D02*
X112400894Y-301312283D01*
X112400894Y-301312283D02*
X112712510Y-301982642D01*
X112712510Y-301982642D02*
X112773340Y-300956489D01*
X113838005Y-301784187D02*
X113275258Y-301883414D01*
X113556631Y-301833800D02*
X113382983Y-300848993D01*
X113382983Y-300848993D02*
X113313999Y-301006217D01*
X113313999Y-301006217D02*
X113236745Y-301116546D01*
X113236745Y-301116546D02*
X113151223Y-301179980D01*
X114775917Y-301618807D02*
X114213170Y-301718035D01*
X114494543Y-301668421D02*
X114320895Y-300683613D01*
X114320895Y-300683613D02*
X114251911Y-300840838D01*
X114251911Y-300840838D02*
X114174658Y-300951167D01*
X114174658Y-300951167D02*
X114089135Y-301014601D01*
X181581635Y-269992864D02*
X181724492Y-270040483D01*
X181724492Y-270040483D02*
X181962587Y-270040483D01*
X181962587Y-270040483D02*
X182057825Y-269992864D01*
X182057825Y-269992864D02*
X182105444Y-269945244D01*
X182105444Y-269945244D02*
X182153063Y-269850006D01*
X182153063Y-269850006D02*
X182153063Y-269754768D01*
X182153063Y-269754768D02*
X182105444Y-269659530D01*
X182105444Y-269659530D02*
X182057825Y-269611911D01*
X182057825Y-269611911D02*
X181962587Y-269564292D01*
X181962587Y-269564292D02*
X181772111Y-269516673D01*
X181772111Y-269516673D02*
X181676873Y-269469054D01*
X181676873Y-269469054D02*
X181629254Y-269421435D01*
X181629254Y-269421435D02*
X181581635Y-269326197D01*
X181581635Y-269326197D02*
X181581635Y-269230959D01*
X181581635Y-269230959D02*
X181629254Y-269135721D01*
X181629254Y-269135721D02*
X181676873Y-269088102D01*
X181676873Y-269088102D02*
X181772111Y-269040483D01*
X181772111Y-269040483D02*
X182010206Y-269040483D01*
X182010206Y-269040483D02*
X182153063Y-269088102D01*
X182486397Y-269040483D02*
X182724492Y-270040483D01*
X182724492Y-270040483D02*
X182914968Y-269326197D01*
X182914968Y-269326197D02*
X183105444Y-270040483D01*
X183105444Y-270040483D02*
X183343540Y-269040483D01*
X184248301Y-270040483D02*
X183676873Y-270040483D01*
X183962587Y-270040483D02*
X183962587Y-269040483D01*
X183962587Y-269040483D02*
X183867349Y-269183340D01*
X183867349Y-269183340D02*
X183772111Y-269278578D01*
X183772111Y-269278578D02*
X183676873Y-269326197D01*
X184867349Y-269040483D02*
X184962587Y-269040483D01*
X184962587Y-269040483D02*
X185057825Y-269088102D01*
X185057825Y-269088102D02*
X185105444Y-269135721D01*
X185105444Y-269135721D02*
X185153063Y-269230959D01*
X185153063Y-269230959D02*
X185200682Y-269421435D01*
X185200682Y-269421435D02*
X185200682Y-269659530D01*
X185200682Y-269659530D02*
X185153063Y-269850006D01*
X185153063Y-269850006D02*
X185105444Y-269945244D01*
X185105444Y-269945244D02*
X185057825Y-269992864D01*
X185057825Y-269992864D02*
X184962587Y-270040483D01*
X184962587Y-270040483D02*
X184867349Y-270040483D01*
X184867349Y-270040483D02*
X184772111Y-269992864D01*
X184772111Y-269992864D02*
X184724492Y-269945244D01*
X184724492Y-269945244D02*
X184676873Y-269850006D01*
X184676873Y-269850006D02*
X184629254Y-269659530D01*
X184629254Y-269659530D02*
X184629254Y-269421435D01*
X184629254Y-269421435D02*
X184676873Y-269230959D01*
X184676873Y-269230959D02*
X184724492Y-269135721D01*
X184724492Y-269135721D02*
X184772111Y-269088102D01*
X184772111Y-269088102D02*
X184867349Y-269040483D01*
X164057862Y-267272762D02*
X164200719Y-267320381D01*
X164200719Y-267320381D02*
X164438814Y-267320381D01*
X164438814Y-267320381D02*
X164534052Y-267272762D01*
X164534052Y-267272762D02*
X164581671Y-267225142D01*
X164581671Y-267225142D02*
X164629290Y-267129904D01*
X164629290Y-267129904D02*
X164629290Y-267034666D01*
X164629290Y-267034666D02*
X164581671Y-266939428D01*
X164581671Y-266939428D02*
X164534052Y-266891809D01*
X164534052Y-266891809D02*
X164438814Y-266844190D01*
X164438814Y-266844190D02*
X164248338Y-266796571D01*
X164248338Y-266796571D02*
X164153100Y-266748952D01*
X164153100Y-266748952D02*
X164105481Y-266701333D01*
X164105481Y-266701333D02*
X164057862Y-266606095D01*
X164057862Y-266606095D02*
X164057862Y-266510857D01*
X164057862Y-266510857D02*
X164105481Y-266415619D01*
X164105481Y-266415619D02*
X164153100Y-266368000D01*
X164153100Y-266368000D02*
X164248338Y-266320381D01*
X164248338Y-266320381D02*
X164486433Y-266320381D01*
X164486433Y-266320381D02*
X164629290Y-266368000D01*
X164962624Y-266320381D02*
X165200719Y-267320381D01*
X165200719Y-267320381D02*
X165391195Y-266606095D01*
X165391195Y-266606095D02*
X165581671Y-267320381D01*
X165581671Y-267320381D02*
X165819767Y-266320381D01*
X166248338Y-267320381D02*
X166438814Y-267320381D01*
X166438814Y-267320381D02*
X166534052Y-267272762D01*
X166534052Y-267272762D02*
X166581671Y-267225142D01*
X166581671Y-267225142D02*
X166676909Y-267082285D01*
X166676909Y-267082285D02*
X166724528Y-266891809D01*
X166724528Y-266891809D02*
X166724528Y-266510857D01*
X166724528Y-266510857D02*
X166676909Y-266415619D01*
X166676909Y-266415619D02*
X166629290Y-266368000D01*
X166629290Y-266368000D02*
X166534052Y-266320381D01*
X166534052Y-266320381D02*
X166343576Y-266320381D01*
X166343576Y-266320381D02*
X166248338Y-266368000D01*
X166248338Y-266368000D02*
X166200719Y-266415619D01*
X166200719Y-266415619D02*
X166153100Y-266510857D01*
X166153100Y-266510857D02*
X166153100Y-266748952D01*
X166153100Y-266748952D02*
X166200719Y-266844190D01*
X166200719Y-266844190D02*
X166248338Y-266891809D01*
X166248338Y-266891809D02*
X166343576Y-266939428D01*
X166343576Y-266939428D02*
X166534052Y-266939428D01*
X166534052Y-266939428D02*
X166629290Y-266891809D01*
X166629290Y-266891809D02*
X166676909Y-266844190D01*
X166676909Y-266844190D02*
X166724528Y-266748952D01*
X146057850Y-258836283D02*
X146200707Y-258883902D01*
X146200707Y-258883902D02*
X146438802Y-258883902D01*
X146438802Y-258883902D02*
X146534040Y-258836283D01*
X146534040Y-258836283D02*
X146581659Y-258788663D01*
X146581659Y-258788663D02*
X146629278Y-258693425D01*
X146629278Y-258693425D02*
X146629278Y-258598187D01*
X146629278Y-258598187D02*
X146581659Y-258502949D01*
X146581659Y-258502949D02*
X146534040Y-258455330D01*
X146534040Y-258455330D02*
X146438802Y-258407711D01*
X146438802Y-258407711D02*
X146248326Y-258360092D01*
X146248326Y-258360092D02*
X146153088Y-258312473D01*
X146153088Y-258312473D02*
X146105469Y-258264854D01*
X146105469Y-258264854D02*
X146057850Y-258169616D01*
X146057850Y-258169616D02*
X146057850Y-258074378D01*
X146057850Y-258074378D02*
X146105469Y-257979140D01*
X146105469Y-257979140D02*
X146153088Y-257931521D01*
X146153088Y-257931521D02*
X146248326Y-257883902D01*
X146248326Y-257883902D02*
X146486421Y-257883902D01*
X146486421Y-257883902D02*
X146629278Y-257931521D01*
X146962612Y-257883902D02*
X147200707Y-258883902D01*
X147200707Y-258883902D02*
X147391183Y-258169616D01*
X147391183Y-258169616D02*
X147581659Y-258883902D01*
X147581659Y-258883902D02*
X147819755Y-257883902D01*
X148343564Y-258312473D02*
X148248326Y-258264854D01*
X148248326Y-258264854D02*
X148200707Y-258217235D01*
X148200707Y-258217235D02*
X148153088Y-258121997D01*
X148153088Y-258121997D02*
X148153088Y-258074378D01*
X148153088Y-258074378D02*
X148200707Y-257979140D01*
X148200707Y-257979140D02*
X148248326Y-257931521D01*
X148248326Y-257931521D02*
X148343564Y-257883902D01*
X148343564Y-257883902D02*
X148534040Y-257883902D01*
X148534040Y-257883902D02*
X148629278Y-257931521D01*
X148629278Y-257931521D02*
X148676897Y-257979140D01*
X148676897Y-257979140D02*
X148724516Y-258074378D01*
X148724516Y-258074378D02*
X148724516Y-258121997D01*
X148724516Y-258121997D02*
X148676897Y-258217235D01*
X148676897Y-258217235D02*
X148629278Y-258264854D01*
X148629278Y-258264854D02*
X148534040Y-258312473D01*
X148534040Y-258312473D02*
X148343564Y-258312473D01*
X148343564Y-258312473D02*
X148248326Y-258360092D01*
X148248326Y-258360092D02*
X148200707Y-258407711D01*
X148200707Y-258407711D02*
X148153088Y-258502949D01*
X148153088Y-258502949D02*
X148153088Y-258693425D01*
X148153088Y-258693425D02*
X148200707Y-258788663D01*
X148200707Y-258788663D02*
X148248326Y-258836283D01*
X148248326Y-258836283D02*
X148343564Y-258883902D01*
X148343564Y-258883902D02*
X148534040Y-258883902D01*
X148534040Y-258883902D02*
X148629278Y-258836283D01*
X148629278Y-258836283D02*
X148676897Y-258788663D01*
X148676897Y-258788663D02*
X148724516Y-258693425D01*
X148724516Y-258693425D02*
X148724516Y-258502949D01*
X148724516Y-258502949D02*
X148676897Y-258407711D01*
X148676897Y-258407711D02*
X148629278Y-258360092D01*
X148629278Y-258360092D02*
X148534040Y-258312473D01*
X126820677Y-269471077D02*
X126966508Y-269508615D01*
X126966508Y-269508615D02*
X127204024Y-269492006D01*
X127204024Y-269492006D02*
X127295708Y-269437860D01*
X127295708Y-269437860D02*
X127339889Y-269387035D01*
X127339889Y-269387035D02*
X127380749Y-269288707D01*
X127380749Y-269288707D02*
X127374105Y-269193701D01*
X127374105Y-269193701D02*
X127319959Y-269102017D01*
X127319959Y-269102017D02*
X127269134Y-269057835D01*
X127269134Y-269057835D02*
X127170806Y-269016976D01*
X127170806Y-269016976D02*
X126977472Y-268982760D01*
X126977472Y-268982760D02*
X126879144Y-268941900D01*
X126879144Y-268941900D02*
X126828320Y-268897719D01*
X126828320Y-268897719D02*
X126774173Y-268806034D01*
X126774173Y-268806034D02*
X126767530Y-268711028D01*
X126767530Y-268711028D02*
X126808389Y-268612701D01*
X126808389Y-268612701D02*
X126852571Y-268561876D01*
X126852571Y-268561876D02*
X126944255Y-268507729D01*
X126944255Y-268507729D02*
X127181770Y-268491121D01*
X127181770Y-268491121D02*
X127327601Y-268528658D01*
X127656801Y-268457903D02*
X127964072Y-269438859D01*
X127964072Y-269438859D02*
X128104259Y-268713026D01*
X128104259Y-268713026D02*
X128344097Y-269412285D01*
X128344097Y-269412285D02*
X128511856Y-268398112D01*
X128796874Y-268378181D02*
X129461916Y-268331677D01*
X129461916Y-268331677D02*
X129104146Y-269359137D01*
X108720481Y-285375710D02*
X108869436Y-285397799D01*
X108869436Y-285397799D02*
X109103914Y-285356454D01*
X109103914Y-285356454D02*
X109189437Y-285293020D01*
X109189437Y-285293020D02*
X109228063Y-285237856D01*
X109228063Y-285237856D02*
X109258421Y-285135796D01*
X109258421Y-285135796D02*
X109241883Y-285042004D01*
X109241883Y-285042004D02*
X109178450Y-284956482D01*
X109178450Y-284956482D02*
X109123285Y-284917856D01*
X109123285Y-284917856D02*
X109021225Y-284887498D01*
X109021225Y-284887498D02*
X108825373Y-284873678D01*
X108825373Y-284873678D02*
X108723313Y-284843320D01*
X108723313Y-284843320D02*
X108668149Y-284804694D01*
X108668149Y-284804694D02*
X108604715Y-284719172D01*
X108604715Y-284719172D02*
X108588177Y-284625380D01*
X108588177Y-284625380D02*
X108618535Y-284523320D01*
X108618535Y-284523320D02*
X108657162Y-284468156D01*
X108657162Y-284468156D02*
X108742684Y-284404722D01*
X108742684Y-284404722D02*
X108977162Y-284363377D01*
X108977162Y-284363377D02*
X109126118Y-284385466D01*
X109446118Y-284280688D02*
X109854244Y-285224151D01*
X109854244Y-285224151D02*
X109917792Y-284487641D01*
X109917792Y-284487641D02*
X110229409Y-285157999D01*
X110229409Y-285157999D02*
X110290239Y-284131846D01*
X111087464Y-283991274D02*
X110899882Y-284024350D01*
X110899882Y-284024350D02*
X110814359Y-284087783D01*
X110814359Y-284087783D02*
X110775733Y-284142948D01*
X110775733Y-284142948D02*
X110706748Y-284300173D01*
X110706748Y-284300173D02*
X110692929Y-284496024D01*
X110692929Y-284496024D02*
X110759080Y-284871189D01*
X110759080Y-284871189D02*
X110822514Y-284956711D01*
X110822514Y-284956711D02*
X110877678Y-284995338D01*
X110877678Y-284995338D02*
X110979739Y-285025696D01*
X110979739Y-285025696D02*
X111167321Y-284992620D01*
X111167321Y-284992620D02*
X111252843Y-284929186D01*
X111252843Y-284929186D02*
X111291470Y-284874022D01*
X111291470Y-284874022D02*
X111321828Y-284771961D01*
X111321828Y-284771961D02*
X111280483Y-284537483D01*
X111280483Y-284537483D02*
X111217049Y-284451961D01*
X111217049Y-284451961D02*
X111161885Y-284413334D01*
X111161885Y-284413334D02*
X111059825Y-284382977D01*
X111059825Y-284382977D02*
X110872242Y-284416053D01*
X110872242Y-284416053D02*
X110786720Y-284479486D01*
X110786720Y-284479486D02*
X110748093Y-284534651D01*
X110748093Y-284534651D02*
X110717735Y-284636711D01*
X182057826Y-252992644D02*
X182200683Y-253040263D01*
X182200683Y-253040263D02*
X182438778Y-253040263D01*
X182438778Y-253040263D02*
X182534016Y-252992644D01*
X182534016Y-252992644D02*
X182581635Y-252945024D01*
X182581635Y-252945024D02*
X182629254Y-252849786D01*
X182629254Y-252849786D02*
X182629254Y-252754548D01*
X182629254Y-252754548D02*
X182581635Y-252659310D01*
X182581635Y-252659310D02*
X182534016Y-252611691D01*
X182534016Y-252611691D02*
X182438778Y-252564072D01*
X182438778Y-252564072D02*
X182248302Y-252516453D01*
X182248302Y-252516453D02*
X182153064Y-252468834D01*
X182153064Y-252468834D02*
X182105445Y-252421215D01*
X182105445Y-252421215D02*
X182057826Y-252325977D01*
X182057826Y-252325977D02*
X182057826Y-252230739D01*
X182057826Y-252230739D02*
X182105445Y-252135501D01*
X182105445Y-252135501D02*
X182153064Y-252087882D01*
X182153064Y-252087882D02*
X182248302Y-252040263D01*
X182248302Y-252040263D02*
X182486397Y-252040263D01*
X182486397Y-252040263D02*
X182629254Y-252087882D01*
X182962588Y-252040263D02*
X183200683Y-253040263D01*
X183200683Y-253040263D02*
X183391159Y-252325977D01*
X183391159Y-252325977D02*
X183581635Y-253040263D01*
X183581635Y-253040263D02*
X183819731Y-252040263D01*
X184676873Y-252040263D02*
X184200683Y-252040263D01*
X184200683Y-252040263D02*
X184153064Y-252516453D01*
X184153064Y-252516453D02*
X184200683Y-252468834D01*
X184200683Y-252468834D02*
X184295921Y-252421215D01*
X184295921Y-252421215D02*
X184534016Y-252421215D01*
X184534016Y-252421215D02*
X184629254Y-252468834D01*
X184629254Y-252468834D02*
X184676873Y-252516453D01*
X184676873Y-252516453D02*
X184724492Y-252611691D01*
X184724492Y-252611691D02*
X184724492Y-252849786D01*
X184724492Y-252849786D02*
X184676873Y-252945024D01*
X184676873Y-252945024D02*
X184629254Y-252992644D01*
X184629254Y-252992644D02*
X184534016Y-253040263D01*
X184534016Y-253040263D02*
X184295921Y-253040263D01*
X184295921Y-253040263D02*
X184200683Y-252992644D01*
X184200683Y-252992644D02*
X184153064Y-252945024D01*
X164057862Y-250272542D02*
X164200719Y-250320161D01*
X164200719Y-250320161D02*
X164438814Y-250320161D01*
X164438814Y-250320161D02*
X164534052Y-250272542D01*
X164534052Y-250272542D02*
X164581671Y-250224922D01*
X164581671Y-250224922D02*
X164629290Y-250129684D01*
X164629290Y-250129684D02*
X164629290Y-250034446D01*
X164629290Y-250034446D02*
X164581671Y-249939208D01*
X164581671Y-249939208D02*
X164534052Y-249891589D01*
X164534052Y-249891589D02*
X164438814Y-249843970D01*
X164438814Y-249843970D02*
X164248338Y-249796351D01*
X164248338Y-249796351D02*
X164153100Y-249748732D01*
X164153100Y-249748732D02*
X164105481Y-249701113D01*
X164105481Y-249701113D02*
X164057862Y-249605875D01*
X164057862Y-249605875D02*
X164057862Y-249510637D01*
X164057862Y-249510637D02*
X164105481Y-249415399D01*
X164105481Y-249415399D02*
X164153100Y-249367780D01*
X164153100Y-249367780D02*
X164248338Y-249320161D01*
X164248338Y-249320161D02*
X164486433Y-249320161D01*
X164486433Y-249320161D02*
X164629290Y-249367780D01*
X164962624Y-249320161D02*
X165200719Y-250320161D01*
X165200719Y-250320161D02*
X165391195Y-249605875D01*
X165391195Y-249605875D02*
X165581671Y-250320161D01*
X165581671Y-250320161D02*
X165819767Y-249320161D01*
X166629290Y-249653494D02*
X166629290Y-250320161D01*
X166391195Y-249272542D02*
X166153100Y-249986827D01*
X166153100Y-249986827D02*
X166772147Y-249986827D01*
X146057851Y-241836062D02*
X146200708Y-241883681D01*
X146200708Y-241883681D02*
X146438803Y-241883681D01*
X146438803Y-241883681D02*
X146534041Y-241836062D01*
X146534041Y-241836062D02*
X146581660Y-241788442D01*
X146581660Y-241788442D02*
X146629279Y-241693204D01*
X146629279Y-241693204D02*
X146629279Y-241597966D01*
X146629279Y-241597966D02*
X146581660Y-241502728D01*
X146581660Y-241502728D02*
X146534041Y-241455109D01*
X146534041Y-241455109D02*
X146438803Y-241407490D01*
X146438803Y-241407490D02*
X146248327Y-241359871D01*
X146248327Y-241359871D02*
X146153089Y-241312252D01*
X146153089Y-241312252D02*
X146105470Y-241264633D01*
X146105470Y-241264633D02*
X146057851Y-241169395D01*
X146057851Y-241169395D02*
X146057851Y-241074157D01*
X146057851Y-241074157D02*
X146105470Y-240978919D01*
X146105470Y-240978919D02*
X146153089Y-240931300D01*
X146153089Y-240931300D02*
X146248327Y-240883681D01*
X146248327Y-240883681D02*
X146486422Y-240883681D01*
X146486422Y-240883681D02*
X146629279Y-240931300D01*
X146962613Y-240883681D02*
X147200708Y-241883681D01*
X147200708Y-241883681D02*
X147391184Y-241169395D01*
X147391184Y-241169395D02*
X147581660Y-241883681D01*
X147581660Y-241883681D02*
X147819756Y-240883681D01*
X148105470Y-240883681D02*
X148724517Y-240883681D01*
X148724517Y-240883681D02*
X148391184Y-241264633D01*
X148391184Y-241264633D02*
X148534041Y-241264633D01*
X148534041Y-241264633D02*
X148629279Y-241312252D01*
X148629279Y-241312252D02*
X148676898Y-241359871D01*
X148676898Y-241359871D02*
X148724517Y-241455109D01*
X148724517Y-241455109D02*
X148724517Y-241693204D01*
X148724517Y-241693204D02*
X148676898Y-241788442D01*
X148676898Y-241788442D02*
X148629279Y-241836062D01*
X148629279Y-241836062D02*
X148534041Y-241883681D01*
X148534041Y-241883681D02*
X148248327Y-241883681D01*
X148248327Y-241883681D02*
X148153089Y-241836062D01*
X148153089Y-241836062D02*
X148105470Y-241788442D01*
X125634801Y-252512269D02*
X125780632Y-252549807D01*
X125780632Y-252549807D02*
X126018148Y-252533198D01*
X126018148Y-252533198D02*
X126109832Y-252479052D01*
X126109832Y-252479052D02*
X126154013Y-252428227D01*
X126154013Y-252428227D02*
X126194873Y-252329899D01*
X126194873Y-252329899D02*
X126188229Y-252234893D01*
X126188229Y-252234893D02*
X126134083Y-252143209D01*
X126134083Y-252143209D02*
X126083258Y-252099027D01*
X126083258Y-252099027D02*
X125984930Y-252058168D01*
X125984930Y-252058168D02*
X125791596Y-252023952D01*
X125791596Y-252023952D02*
X125693268Y-251983092D01*
X125693268Y-251983092D02*
X125642444Y-251938911D01*
X125642444Y-251938911D02*
X125588297Y-251847226D01*
X125588297Y-251847226D02*
X125581654Y-251752220D01*
X125581654Y-251752220D02*
X125622513Y-251653893D01*
X125622513Y-251653893D02*
X125666695Y-251603068D01*
X125666695Y-251603068D02*
X125758379Y-251548921D01*
X125758379Y-251548921D02*
X125995894Y-251532313D01*
X125995894Y-251532313D02*
X126141725Y-251569850D01*
X126470925Y-251499095D02*
X126778196Y-252480051D01*
X126778196Y-252480051D02*
X126918383Y-251754218D01*
X126918383Y-251754218D02*
X127158221Y-252453477D01*
X127158221Y-252453477D02*
X127325980Y-251439304D01*
X127665144Y-251511058D02*
X127709326Y-251460233D01*
X127709326Y-251460233D02*
X127801010Y-251406087D01*
X127801010Y-251406087D02*
X128038525Y-251389478D01*
X128038525Y-251389478D02*
X128136853Y-251430337D01*
X128136853Y-251430337D02*
X128187678Y-251474519D01*
X128187678Y-251474519D02*
X128241824Y-251566203D01*
X128241824Y-251566203D02*
X128248468Y-251661209D01*
X128248468Y-251661209D02*
X128210930Y-251807040D01*
X128210930Y-251807040D02*
X127680754Y-252416938D01*
X127680754Y-252416938D02*
X128298294Y-252373755D01*
X105768425Y-268633765D02*
X105917380Y-268655854D01*
X105917380Y-268655854D02*
X106151858Y-268614509D01*
X106151858Y-268614509D02*
X106237381Y-268551075D01*
X106237381Y-268551075D02*
X106276007Y-268495911D01*
X106276007Y-268495911D02*
X106306365Y-268393851D01*
X106306365Y-268393851D02*
X106289827Y-268300059D01*
X106289827Y-268300059D02*
X106226394Y-268214537D01*
X106226394Y-268214537D02*
X106171229Y-268175911D01*
X106171229Y-268175911D02*
X106069169Y-268145553D01*
X106069169Y-268145553D02*
X105873317Y-268131733D01*
X105873317Y-268131733D02*
X105771257Y-268101375D01*
X105771257Y-268101375D02*
X105716093Y-268062749D01*
X105716093Y-268062749D02*
X105652659Y-267977227D01*
X105652659Y-267977227D02*
X105636121Y-267883435D01*
X105636121Y-267883435D02*
X105666479Y-267781375D01*
X105666479Y-267781375D02*
X105705106Y-267726211D01*
X105705106Y-267726211D02*
X105790628Y-267662777D01*
X105790628Y-267662777D02*
X106025106Y-267621432D01*
X106025106Y-267621432D02*
X106174062Y-267643521D01*
X106494062Y-267538743D02*
X106902188Y-268482206D01*
X106902188Y-268482206D02*
X106965736Y-267745696D01*
X106965736Y-267745696D02*
X107277353Y-268416054D01*
X107277353Y-268416054D02*
X107338183Y-267389901D01*
X108402847Y-268217599D02*
X107840100Y-268316826D01*
X108121474Y-268267213D02*
X107947826Y-267282405D01*
X107947826Y-267282405D02*
X107878841Y-267439630D01*
X107878841Y-267439630D02*
X107801588Y-267549959D01*
X107801588Y-267549959D02*
X107716066Y-267613392D01*
X216148000Y-278489600D02*
X216148000Y-272489600D01*
X216148000Y-272489600D02*
X215898000Y-272489600D01*
X216148000Y-278489600D02*
X215898000Y-278489600D01*
X212648000Y-278489600D02*
X212898000Y-278489600D01*
X212648000Y-278489600D02*
X212648000Y-272489600D01*
X212648000Y-272489600D02*
X212898000Y-272489600D01*
D12*
X214370800Y-290996400D02*
X214370800Y-291526400D01*
X214370800Y-290036400D02*
X214370800Y-287996400D01*
X214370800Y-287066400D02*
X214370800Y-286486400D01*
X214380800Y-285566400D02*
X214380800Y-284776400D01*
X217340800Y-284776400D02*
X217340800Y-291526400D01*
D13*
X216930628Y-268418941D02*
X216930628Y-237938942D01*
X216930628Y-237938942D02*
X216930628Y-235398940D01*
X216930628Y-235398940D02*
X199150628Y-235398942D01*
X199150628Y-268418942D02*
X216930628Y-268418941D01*
X199150628Y-237938943D02*
X199150628Y-268418942D01*
X199150628Y-235398942D02*
X199150628Y-237938943D01*
D10*
X202119454Y-309964987D02*
X201769454Y-310571205D01*
X201769454Y-310571205D02*
X197872340Y-308321205D01*
X202119454Y-309964987D02*
G75*
G02*
X204168493Y-309415948I1299039J-750000D01*
G01*
X205985480Y-305268834D02*
X205302467Y-305451847D01*
X204802467Y-306317873D02*
X205302467Y-305451847D01*
X200222340Y-304250885D02*
X204119454Y-306500885D01*
X207016569Y-310482936D02*
X206333556Y-310665949D01*
X199922340Y-304770501D02*
X200222340Y-304250885D01*
X206333556Y-310665949D02*
X204168493Y-309415949D01*
X208766569Y-307451847D02*
X208583556Y-306768835D01*
X208583556Y-306768835D02*
X205985480Y-305268834D01*
X204802467Y-306317873D02*
G75*
G02*
X204119454Y-306500886I-433013J250000D01*
G01*
X197872340Y-308321205D02*
X198122340Y-307888192D01*
X212746696Y-310558065D02*
X212246696Y-311424091D01*
X205746696Y-322682421D02*
X204880670Y-322182421D01*
X193622340Y-315682421D02*
X194122340Y-314816395D01*
X194488366Y-316182421D02*
X193622340Y-315682421D01*
X200622340Y-303558065D02*
X201488366Y-304058065D01*
X200122340Y-304424091D02*
X200622340Y-303558065D01*
X211880670Y-310058065D02*
X212746696Y-310558065D01*
X206246696Y-321816395D02*
X205746696Y-322682421D01*
X182889105Y-302673159D02*
X182707932Y-303349307D01*
X182707932Y-303349307D02*
X178361266Y-302184621D01*
X182889105Y-302673159D02*
G75*
G02*
X184726223Y-301612498I1448889J-388228D01*
G01*
X185407945Y-297136423D02*
X184795573Y-297489976D01*
X184536754Y-298455902D02*
X184795573Y-297489976D01*
X179577715Y-297644770D02*
X183924382Y-298809455D01*
X187753410Y-301905993D02*
X187141037Y-302259546D01*
X179422424Y-298224325D02*
X179577715Y-297644770D01*
X187141037Y-302259546D02*
X184726223Y-301612498D01*
X188659276Y-298525252D02*
X188305723Y-297912880D01*
X188305723Y-297912880D02*
X185407945Y-297136423D01*
X184536754Y-298455902D02*
G75*
G02*
X183924382Y-298809455I-482963J129410D01*
G01*
X178361266Y-302184621D02*
X178490675Y-301701658D01*
X193307732Y-300495496D02*
X193048913Y-301461421D01*
X189684265Y-314018457D02*
X188718340Y-313759638D01*
X176161304Y-310394990D02*
X176420123Y-309429065D01*
X177127230Y-310653808D02*
X176161304Y-310394990D01*
X179784771Y-296872029D02*
X180750696Y-297130848D01*
X179525953Y-297837955D02*
X179784771Y-296872029D01*
X192341806Y-300236678D02*
X193307732Y-300495496D01*
X189943083Y-313052531D02*
X189684265Y-314018457D01*
X167310118Y-304870242D02*
X167310118Y-304170241D01*
X167310118Y-304170241D02*
X171810118Y-304170241D01*
X167310118Y-304870242D02*
G75*
G02*
X165810118Y-306370241I-1500000J1D01*
G01*
X166310118Y-310870241D02*
X166810118Y-310370241D01*
X166810118Y-309370241D02*
X166810118Y-310370241D01*
X171810118Y-308870241D02*
X167310118Y-308870241D01*
X162810118Y-306870241D02*
X163310118Y-306370241D01*
X171810118Y-308270241D02*
X171810118Y-308870241D01*
X163310118Y-306370241D02*
X165810118Y-306370241D01*
X162810118Y-310370241D02*
X163310118Y-310870241D01*
X163310118Y-310870241D02*
X166310118Y-310870241D01*
X166810118Y-309370241D02*
G75*
G02*
X167310118Y-308870241I500000J0D01*
G01*
X171810118Y-304170241D02*
X171810118Y-304670241D01*
X157810118Y-309670241D02*
X157810118Y-308670241D01*
X157810118Y-295670241D02*
X158810118Y-295670241D01*
X171810118Y-295670241D02*
X171810118Y-296670241D01*
X170810118Y-295670240D02*
X171810118Y-295670241D01*
X171810118Y-309670241D02*
X170810118Y-309670241D01*
X171810119Y-308670241D02*
X171810118Y-309670241D01*
X158810118Y-309670242D02*
X157810118Y-309670241D01*
X157810117Y-296670241D02*
X157810118Y-295670241D01*
X95015474Y-292712786D02*
X95137027Y-293402152D01*
X95137027Y-293402152D02*
X90705390Y-294183569D01*
X95015474Y-292712786D02*
G75*
G02*
X96232213Y-290975103I1477211J260472D01*
G01*
X94958392Y-286630292D02*
X94552813Y-287209520D01*
X94726461Y-288194327D02*
X94552813Y-287209520D01*
X89889246Y-289554972D02*
X94320881Y-288773555D01*
X99099812Y-289961754D02*
X98694232Y-290540982D01*
X89993435Y-290145857D02*
X89889246Y-289554972D01*
X98694232Y-290540982D02*
X96232213Y-290975102D01*
X98492044Y-286514927D02*
X97912816Y-286109347D01*
X97912816Y-286109347D02*
X94958392Y-286630292D01*
X94726461Y-288194327D02*
G75*
G02*
X94320881Y-288773555I-492404J-86824D01*
G01*
X90705390Y-294183569D02*
X90618568Y-293691165D01*
X103537636Y-286336051D02*
X103711284Y-287320859D01*
X105968711Y-300123360D02*
X104983903Y-300297008D01*
X92181402Y-302554435D02*
X92007754Y-301569627D01*
X93166210Y-302380786D02*
X92181402Y-302554435D01*
X89750327Y-288767126D02*
X90735135Y-288593478D01*
X89923976Y-289751934D02*
X89750327Y-288767126D01*
X102552828Y-286509700D02*
X103537636Y-286336051D01*
X105795062Y-299138552D02*
X105968711Y-300123360D01*
X185336160Y-282480883D02*
X185336160Y-283180884D01*
X185336160Y-283180884D02*
X180836160Y-283180884D01*
X185336160Y-282480883D02*
G75*
G02*
X186836160Y-280980884I1500000J-1D01*
G01*
X186336160Y-276480884D02*
X185836160Y-276980884D01*
X185836160Y-277980884D02*
X185836160Y-276980884D01*
X180836160Y-278480884D02*
X185336160Y-278480884D01*
X189836160Y-280480884D02*
X189336160Y-280980884D01*
X180836160Y-279080884D02*
X180836160Y-278480884D01*
X189336160Y-280980884D02*
X186836160Y-280980884D01*
X189836160Y-276980884D02*
X189336160Y-276480884D01*
X189336160Y-276480884D02*
X186336160Y-276480884D01*
X185836160Y-277980884D02*
G75*
G02*
X185336160Y-278480884I-500000J0D01*
G01*
X180836160Y-283180884D02*
X180836160Y-282680884D01*
X194836160Y-277680884D02*
X194836160Y-278680884D01*
X194836160Y-291680884D02*
X193836160Y-291680884D01*
X180836160Y-291680884D02*
X180836160Y-290680884D01*
X181836160Y-291680885D02*
X180836160Y-291680884D01*
X180836160Y-277680884D02*
X181836160Y-277680884D01*
X180836159Y-278680884D02*
X180836160Y-277680884D01*
X193836160Y-277680883D02*
X194836160Y-277680884D01*
X194836161Y-290680884D02*
X194836160Y-291680884D01*
X167336195Y-279760781D02*
X167336195Y-280460782D01*
X167336195Y-280460782D02*
X162836195Y-280460782D01*
X167336195Y-279760781D02*
G75*
G02*
X168836195Y-278260782I1500000J-1D01*
G01*
X168336195Y-273760782D02*
X167836195Y-274260782D01*
X167836195Y-275260782D02*
X167836195Y-274260782D01*
X162836195Y-275760782D02*
X167336195Y-275760782D01*
X171836195Y-277760782D02*
X171336195Y-278260782D01*
X162836195Y-276360782D02*
X162836195Y-275760782D01*
X171336195Y-278260782D02*
X168836195Y-278260782D01*
X171836195Y-274260782D02*
X171336195Y-273760782D01*
X171336195Y-273760782D02*
X168336195Y-273760782D01*
X167836195Y-275260782D02*
G75*
G02*
X167336195Y-275760782I-500000J0D01*
G01*
X162836195Y-280460782D02*
X162836195Y-279960782D01*
X176836195Y-274960782D02*
X176836195Y-275960782D01*
X176836195Y-288960782D02*
X175836195Y-288960782D01*
X162836195Y-288960782D02*
X162836195Y-287960782D01*
X163836195Y-288960783D02*
X162836195Y-288960782D01*
X162836195Y-274960782D02*
X163836195Y-274960782D01*
X162836194Y-275960782D02*
X162836195Y-274960782D01*
X175836195Y-274960781D02*
X176836195Y-274960782D01*
X176836196Y-287960782D02*
X176836195Y-288960782D01*
X149336182Y-271324300D02*
X149336182Y-272024301D01*
X149336182Y-272024301D02*
X144836182Y-272024301D01*
X149336182Y-271324300D02*
G75*
G02*
X150836182Y-269824301I1500000J-1D01*
G01*
X150336182Y-265324301D02*
X149836182Y-265824301D01*
X149836182Y-266824301D02*
X149836182Y-265824301D01*
X144836182Y-267324301D02*
X149336182Y-267324301D01*
X153836182Y-269324301D02*
X153336182Y-269824301D01*
X144836182Y-267924301D02*
X144836182Y-267324301D01*
X153336182Y-269824301D02*
X150836182Y-269824301D01*
X153836182Y-265824301D02*
X153336182Y-265324301D01*
X153336182Y-265324301D02*
X150336182Y-265324301D01*
X149836182Y-266824301D02*
G75*
G02*
X149336182Y-267324301I-500000J0D01*
G01*
X144836182Y-272024301D02*
X144836182Y-271524301D01*
X158836182Y-266524301D02*
X158836182Y-267524301D01*
X158836182Y-280524301D02*
X157836182Y-280524301D01*
X144836182Y-280524301D02*
X144836182Y-279524301D01*
X145836182Y-280524302D02*
X144836182Y-280524301D01*
X144836182Y-266524301D02*
X145836182Y-266524301D01*
X144836181Y-267524301D02*
X144836182Y-266524301D01*
X157836182Y-266524300D02*
X158836182Y-266524301D01*
X158836183Y-279524301D02*
X158836182Y-280524301D01*
X141011006Y-289217330D02*
X141080763Y-290214896D01*
X139106608Y-276318754D02*
X140104174Y-276248997D01*
X126208032Y-278223152D02*
X126138275Y-277225586D01*
X126138275Y-277225586D02*
X127135839Y-277155830D01*
X128112430Y-291121728D02*
X127114864Y-291191485D01*
X127114864Y-291191485D02*
X127045108Y-290193921D01*
X141080763Y-290214896D02*
X140083199Y-290284652D01*
X140104174Y-276248997D02*
X140173930Y-277246561D01*
X126521938Y-282712190D02*
X126487058Y-282213408D01*
X131147023Y-277176075D02*
G75*
G02*
X130683119Y-277709735I-498782J-34878D01*
G01*
X134533862Y-275435581D02*
X131541170Y-275644850D01*
X135067522Y-275899485D02*
X134533862Y-275435581D01*
X134847766Y-279924619D02*
X132353856Y-280099010D01*
X126235934Y-278622178D02*
X126194082Y-278023639D01*
X135311670Y-279390959D02*
X134847766Y-279924619D01*
X126194082Y-278023639D02*
X130683119Y-277709735D01*
X131147023Y-277176075D02*
X131077266Y-276178511D01*
X131541170Y-275644850D02*
X131077266Y-276178511D01*
X130962145Y-281699991D02*
G75*
G02*
X132353856Y-280099011I1496346J104634D01*
G01*
X131010974Y-282398286D02*
X126521938Y-282712190D01*
X130962145Y-281699991D02*
X131010974Y-282398286D01*
X114117532Y-297104737D02*
X114239085Y-297794103D01*
X114239085Y-297794103D02*
X109807448Y-298575520D01*
X114117532Y-297104737D02*
G75*
G02*
X115334271Y-295367054I1477211J260472D01*
G01*
X114060450Y-291022243D02*
X113654871Y-291601471D01*
X113828519Y-292586278D02*
X113654871Y-291601471D01*
X108991304Y-293946923D02*
X113422939Y-293165506D01*
X118201870Y-294353705D02*
X117796290Y-294932933D01*
X109095493Y-294537808D02*
X108991304Y-293946923D01*
X117796290Y-294932933D02*
X115334271Y-295367053D01*
X117594102Y-290906878D02*
X117014874Y-290501298D01*
X117014874Y-290501298D02*
X114060450Y-291022243D01*
X113828519Y-292586278D02*
G75*
G02*
X113422939Y-293165506I-492404J-86824D01*
G01*
X109807448Y-298575520D02*
X109720626Y-298083116D01*
X122639694Y-290728002D02*
X122813342Y-291712810D01*
X125070769Y-304515311D02*
X124085961Y-304688959D01*
X111283460Y-306946386D02*
X111109812Y-305961578D01*
X112268268Y-306772737D02*
X111283460Y-306946386D01*
X108852385Y-293159077D02*
X109837193Y-292985429D01*
X109026034Y-294143885D02*
X108852385Y-293159077D01*
X121654886Y-290901651D02*
X122639694Y-290728002D01*
X124897120Y-303530503D02*
X125070769Y-304515311D01*
X185336159Y-265480663D02*
X185336159Y-266180664D01*
X185336159Y-266180664D02*
X180836159Y-266180664D01*
X185336159Y-265480663D02*
G75*
G02*
X186836159Y-263980664I1500000J-1D01*
G01*
X186336159Y-259480664D02*
X185836159Y-259980664D01*
X185836159Y-260980664D02*
X185836159Y-259980664D01*
X180836159Y-261480664D02*
X185336159Y-261480664D01*
X189836159Y-263480664D02*
X189336159Y-263980664D01*
X180836159Y-262080664D02*
X180836159Y-261480664D01*
X189336159Y-263980664D02*
X186836159Y-263980664D01*
X189836159Y-259980664D02*
X189336159Y-259480664D01*
X189336159Y-259480664D02*
X186336159Y-259480664D01*
X185836159Y-260980664D02*
G75*
G02*
X185336159Y-261480664I-500000J0D01*
G01*
X180836159Y-266180664D02*
X180836159Y-265680664D01*
X194836159Y-260680664D02*
X194836159Y-261680664D01*
X194836159Y-274680664D02*
X193836159Y-274680664D01*
X180836159Y-274680664D02*
X180836159Y-273680664D01*
X181836159Y-274680665D02*
X180836159Y-274680664D01*
X180836159Y-260680664D02*
X181836159Y-260680664D01*
X180836158Y-261680664D02*
X180836159Y-260680664D01*
X193836159Y-260680663D02*
X194836159Y-260680664D01*
X194836160Y-273680664D02*
X194836159Y-274680664D01*
X167336195Y-262760561D02*
X167336195Y-263460562D01*
X167336195Y-263460562D02*
X162836195Y-263460562D01*
X167336195Y-262760561D02*
G75*
G02*
X168836195Y-261260562I1500000J-1D01*
G01*
X168336195Y-256760562D02*
X167836195Y-257260562D01*
X167836195Y-258260562D02*
X167836195Y-257260562D01*
X162836195Y-258760562D02*
X167336195Y-258760562D01*
X171836195Y-260760562D02*
X171336195Y-261260562D01*
X162836195Y-259360562D02*
X162836195Y-258760562D01*
X171336195Y-261260562D02*
X168836195Y-261260562D01*
X171836195Y-257260562D02*
X171336195Y-256760562D01*
X171336195Y-256760562D02*
X168336195Y-256760562D01*
X167836195Y-258260562D02*
G75*
G02*
X167336195Y-258760562I-500000J0D01*
G01*
X162836195Y-263460562D02*
X162836195Y-262960562D01*
X176836195Y-257960562D02*
X176836195Y-258960562D01*
X176836195Y-271960562D02*
X175836195Y-271960562D01*
X162836195Y-271960562D02*
X162836195Y-270960562D01*
X163836195Y-271960563D02*
X162836195Y-271960562D01*
X162836195Y-257960562D02*
X163836195Y-257960562D01*
X162836194Y-258960562D02*
X162836195Y-257960562D01*
X175836195Y-257960561D02*
X176836195Y-257960562D01*
X176836196Y-270960562D02*
X176836195Y-271960562D01*
X149336183Y-254324082D02*
X149336183Y-255024083D01*
X149336183Y-255024083D02*
X144836183Y-255024083D01*
X149336183Y-254324082D02*
G75*
G02*
X150836183Y-252824083I1500000J-1D01*
G01*
X150336183Y-248324083D02*
X149836183Y-248824083D01*
X149836183Y-249824083D02*
X149836183Y-248824083D01*
X144836183Y-250324083D02*
X149336183Y-250324083D01*
X153836183Y-252324083D02*
X153336183Y-252824083D01*
X144836183Y-250924083D02*
X144836183Y-250324083D01*
X153336183Y-252824083D02*
X150836183Y-252824083D01*
X153836183Y-248824083D02*
X153336183Y-248324083D01*
X153336183Y-248324083D02*
X150336183Y-248324083D01*
X149836183Y-249824083D02*
G75*
G02*
X149336183Y-250324083I-500000J0D01*
G01*
X144836183Y-255024083D02*
X144836183Y-254524083D01*
X158836183Y-249524083D02*
X158836183Y-250524083D01*
X158836183Y-263524083D02*
X157836183Y-263524083D01*
X144836183Y-263524083D02*
X144836183Y-262524083D01*
X145836183Y-263524084D02*
X144836183Y-263524083D01*
X144836183Y-249524083D02*
X145836183Y-249524083D01*
X144836182Y-250524083D02*
X144836183Y-249524083D01*
X157836183Y-249524082D02*
X158836183Y-249524083D01*
X158836184Y-262524083D02*
X158836183Y-263524083D01*
X139825131Y-272258523D02*
X139894888Y-273256089D01*
X137920733Y-259359947D02*
X138918299Y-259290190D01*
X125022157Y-261264345D02*
X124952400Y-260266779D01*
X124952400Y-260266779D02*
X125949964Y-260197023D01*
X126926555Y-274162921D02*
X125928989Y-274232678D01*
X125928989Y-274232678D02*
X125859233Y-273235114D01*
X139894888Y-273256089D02*
X138897324Y-273325845D01*
X138918299Y-259290190D02*
X138988055Y-260287754D01*
X125336063Y-265753383D02*
X125301183Y-265254601D01*
X129961148Y-260217268D02*
G75*
G02*
X129497244Y-260750928I-498782J-34878D01*
G01*
X133347987Y-258476774D02*
X130355295Y-258686043D01*
X133881647Y-258940678D02*
X133347987Y-258476774D01*
X133661891Y-262965812D02*
X131167981Y-263140203D01*
X125050059Y-261663371D02*
X125008207Y-261064832D01*
X134125795Y-262432152D02*
X133661891Y-262965812D01*
X125008207Y-261064832D02*
X129497244Y-260750928D01*
X129961148Y-260217268D02*
X129891391Y-259219704D01*
X130355295Y-258686043D02*
X129891391Y-259219704D01*
X129776270Y-264741184D02*
G75*
G02*
X131167981Y-263140204I1496346J104634D01*
G01*
X129825099Y-265439479D02*
X125336063Y-265753383D01*
X129776270Y-264741184D02*
X129825099Y-265439479D01*
X111165474Y-280362784D02*
X111287027Y-281052150D01*
X111287027Y-281052150D02*
X106855390Y-281833567D01*
X111165474Y-280362784D02*
G75*
G02*
X112382213Y-278625101I1477211J260472D01*
G01*
X111108392Y-274280290D02*
X110702813Y-274859518D01*
X110876461Y-275844325D02*
X110702813Y-274859518D01*
X106039246Y-277204970D02*
X110470881Y-276423553D01*
X115249812Y-277611752D02*
X114844232Y-278190980D01*
X106143435Y-277795855D02*
X106039246Y-277204970D01*
X114844232Y-278190980D02*
X112382213Y-278625100D01*
X114642044Y-274164925D02*
X114062816Y-273759345D01*
X114062816Y-273759345D02*
X111108392Y-274280290D01*
X110876461Y-275844325D02*
G75*
G02*
X110470881Y-276423553I-492404J-86824D01*
G01*
X106855390Y-281833567D02*
X106768568Y-281341163D01*
X119687636Y-273986049D02*
X119861284Y-274970857D01*
X122118711Y-287773358D02*
X121133903Y-287947006D01*
X108331402Y-290204433D02*
X108157754Y-289219625D01*
X109316210Y-290030784D02*
X108331402Y-290204433D01*
X105900327Y-276417124D02*
X106885135Y-276243476D01*
X106073976Y-277401932D02*
X105900327Y-276417124D01*
X118702828Y-274159698D02*
X119687636Y-273986049D01*
X121945062Y-286788550D02*
X122118711Y-287773358D01*
X185336159Y-248480443D02*
X185336159Y-249180444D01*
X185336159Y-249180444D02*
X180836159Y-249180444D01*
X185336159Y-248480443D02*
G75*
G02*
X186836159Y-246980444I1500000J-1D01*
G01*
X186336159Y-242480444D02*
X185836159Y-242980444D01*
X185836159Y-243980444D02*
X185836159Y-242980444D01*
X180836159Y-244480444D02*
X185336159Y-244480444D01*
X189836159Y-246480444D02*
X189336159Y-246980444D01*
X180836159Y-245080444D02*
X180836159Y-244480444D01*
X189336159Y-246980444D02*
X186836159Y-246980444D01*
X189836159Y-242980444D02*
X189336159Y-242480444D01*
X189336159Y-242480444D02*
X186336159Y-242480444D01*
X185836159Y-243980444D02*
G75*
G02*
X185336159Y-244480444I-500000J0D01*
G01*
X180836159Y-249180444D02*
X180836159Y-248680444D01*
X194836159Y-243680444D02*
X194836159Y-244680444D01*
X194836159Y-257680444D02*
X193836159Y-257680444D01*
X180836159Y-257680444D02*
X180836159Y-256680444D01*
X181836159Y-257680445D02*
X180836159Y-257680444D01*
X180836159Y-243680444D02*
X181836159Y-243680444D01*
X180836158Y-244680444D02*
X180836159Y-243680444D01*
X193836159Y-243680443D02*
X194836159Y-243680444D01*
X194836160Y-256680444D02*
X194836159Y-257680444D01*
X167336195Y-245760341D02*
X167336195Y-246460342D01*
X167336195Y-246460342D02*
X162836195Y-246460342D01*
X167336195Y-245760341D02*
G75*
G02*
X168836195Y-244260342I1500000J-1D01*
G01*
X168336195Y-239760342D02*
X167836195Y-240260342D01*
X167836195Y-241260342D02*
X167836195Y-240260342D01*
X162836195Y-241760342D02*
X167336195Y-241760342D01*
X171836195Y-243760342D02*
X171336195Y-244260342D01*
X162836195Y-242360342D02*
X162836195Y-241760342D01*
X171336195Y-244260342D02*
X168836195Y-244260342D01*
X171836195Y-240260342D02*
X171336195Y-239760342D01*
X171336195Y-239760342D02*
X168336195Y-239760342D01*
X167836195Y-241260342D02*
G75*
G02*
X167336195Y-241760342I-500000J0D01*
G01*
X162836195Y-246460342D02*
X162836195Y-245960342D01*
X176836195Y-240960342D02*
X176836195Y-241960342D01*
X176836195Y-254960342D02*
X175836195Y-254960342D01*
X162836195Y-254960342D02*
X162836195Y-253960342D01*
X163836195Y-254960343D02*
X162836195Y-254960342D01*
X162836195Y-240960342D02*
X163836195Y-240960342D01*
X162836194Y-241960342D02*
X162836195Y-240960342D01*
X175836195Y-240960341D02*
X176836195Y-240960342D01*
X176836196Y-253960342D02*
X176836195Y-254960342D01*
X149336184Y-237323861D02*
X149336184Y-238023862D01*
X149336184Y-238023862D02*
X144836184Y-238023862D01*
X149336184Y-237323861D02*
G75*
G02*
X150836184Y-235823862I1500000J-1D01*
G01*
X150336184Y-231323862D02*
X149836184Y-231823862D01*
X149836184Y-232823862D02*
X149836184Y-231823862D01*
X144836184Y-233323862D02*
X149336184Y-233323862D01*
X153836184Y-235323862D02*
X153336184Y-235823862D01*
X144836184Y-233923862D02*
X144836184Y-233323862D01*
X153336184Y-235823862D02*
X150836184Y-235823862D01*
X153836184Y-231823862D02*
X153336184Y-231323862D01*
X153336184Y-231323862D02*
X150336184Y-231323862D01*
X149836184Y-232823862D02*
G75*
G02*
X149336184Y-233323862I-500000J0D01*
G01*
X144836184Y-238023862D02*
X144836184Y-237523862D01*
X158836184Y-232523862D02*
X158836184Y-233523862D01*
X158836184Y-246523862D02*
X157836184Y-246523862D01*
X144836184Y-246523862D02*
X144836184Y-245523862D01*
X145836184Y-246523863D02*
X144836184Y-246523862D01*
X144836184Y-232523862D02*
X145836184Y-232523862D01*
X144836183Y-233523862D02*
X144836184Y-232523862D01*
X157836184Y-232523861D02*
X158836184Y-232523862D01*
X158836185Y-245523862D02*
X158836184Y-246523862D01*
X138639255Y-255299715D02*
X138709012Y-256297281D01*
X136734857Y-242401139D02*
X137732423Y-242331382D01*
X123836281Y-244305537D02*
X123766524Y-243307971D01*
X123766524Y-243307971D02*
X124764088Y-243238215D01*
X125740679Y-257204113D02*
X124743113Y-257273870D01*
X124743113Y-257273870D02*
X124673357Y-256276306D01*
X138709012Y-256297281D02*
X137711448Y-256367037D01*
X137732423Y-242331382D02*
X137802179Y-243328946D01*
X124150187Y-248794575D02*
X124115307Y-248295793D01*
X128775272Y-243258460D02*
G75*
G02*
X128311368Y-243792120I-498782J-34878D01*
G01*
X132162111Y-241517966D02*
X129169419Y-241727235D01*
X132695771Y-241981870D02*
X132162111Y-241517966D01*
X132476015Y-246007004D02*
X129982105Y-246181395D01*
X123864183Y-244704563D02*
X123822331Y-244106024D01*
X132939919Y-245473344D02*
X132476015Y-246007004D01*
X123822331Y-244106024D02*
X128311368Y-243792120D01*
X128775272Y-243258460D02*
X128705515Y-242260896D01*
X129169419Y-241727235D02*
X128705515Y-242260896D01*
X128590394Y-247782376D02*
G75*
G02*
X129982105Y-246181396I1496346J104634D01*
G01*
X128639223Y-248480671D02*
X124150187Y-248794575D01*
X128590394Y-247782376D02*
X128639223Y-248480671D01*
X108213418Y-263620839D02*
X108334971Y-264310205D01*
X108334971Y-264310205D02*
X103903334Y-265091622D01*
X108213418Y-263620839D02*
G75*
G02*
X109430157Y-261883156I1477211J260472D01*
G01*
X108156336Y-257538345D02*
X107750757Y-258117573D01*
X107924405Y-259102380D02*
X107750757Y-258117573D01*
X103087190Y-260463025D02*
X107518825Y-259681608D01*
X112297756Y-260869807D02*
X111892176Y-261449035D01*
X103191379Y-261053910D02*
X103087190Y-260463025D01*
X111892176Y-261449035D02*
X109430157Y-261883155D01*
X111689988Y-257422980D02*
X111110760Y-257017400D01*
X111110760Y-257017400D02*
X108156336Y-257538345D01*
X107924405Y-259102380D02*
G75*
G02*
X107518825Y-259681608I-492404J-86824D01*
G01*
X103903334Y-265091622D02*
X103816512Y-264599218D01*
X116735580Y-257244104D02*
X116909228Y-258228912D01*
X119166655Y-271031413D02*
X118181847Y-271205061D01*
X105379346Y-273462488D02*
X105205698Y-272477680D01*
X106364154Y-273288839D02*
X105379346Y-273462488D01*
X102948271Y-259675179D02*
X103933079Y-259501531D01*
X103121920Y-260659987D02*
X102948271Y-259675179D01*
X115750772Y-257417753D02*
X116735580Y-257244104D01*
X118993006Y-270046605D02*
X119166655Y-271031413D01*
D14*
X214398000Y-272239600D03*
X214398000Y-278739600D03*
D15*
X202960628Y-262068942D03*
X215660628Y-239208942D03*
X215660628Y-241748941D03*
X215660628Y-244288942D03*
X215660628Y-246828942D03*
X215660628Y-249368942D03*
X215660628Y-251908942D03*
X215660628Y-254448942D03*
X215660630Y-256988942D03*
X215660628Y-259528942D03*
X215660628Y-262068942D03*
X215660628Y-264608942D03*
X215660628Y-267148942D03*
X200420628Y-267148942D03*
X200420628Y-264608943D03*
X200420628Y-262068942D03*
X200420628Y-259528942D03*
X200420628Y-256988942D03*
X200420628Y-254448942D03*
X200420628Y-251908942D03*
X200420626Y-249368942D03*
X200420628Y-246828942D03*
X200420628Y-244288942D03*
X200420628Y-241748942D03*
X200420628Y-239208942D03*
D16*
X158706954Y-284355895D03*
X153706954Y-284355893D03*
%LPC*%
D17*
X89500000Y-99000000D02*
X89500000Y-101500000D01*
X88500000Y-103000000D02*
X90500000Y-103000000D01*
X210500000Y-99000000D02*
X210500000Y-103000000D01*
X212000000Y-101000000D02*
X212000000Y-103000000D01*
X209000000Y-101000000D02*
X209000000Y-103000000D01*
X209000000Y-101000000D02*
X212000000Y-101000000D01*
D14*
X214398000Y-272239600D03*
X214398000Y-278739600D03*
D18*
X215740800Y-286837600D03*
X215740600Y-289776000D03*
X215740800Y-289776400D03*
X215740600Y-286838000D03*
D19*
X213940800Y-290526400D03*
X213940800Y-287526400D03*
X213940800Y-286026400D03*
D20*
X215840800Y-292126400D03*
X215840800Y-284176400D03*
D15*
X202960628Y-262068942D03*
X215660628Y-239208942D03*
X215660628Y-241748941D03*
X215660628Y-244288942D03*
X215660628Y-246828942D03*
X215660628Y-249368942D03*
X215660628Y-251908942D03*
X215660628Y-254448942D03*
X215660630Y-256988942D03*
X215660628Y-259528942D03*
X215660628Y-262068942D03*
X215660628Y-264608942D03*
X215660628Y-267148942D03*
X200420628Y-267148942D03*
X200420628Y-264608943D03*
X200420628Y-262068942D03*
X200420628Y-259528942D03*
X200420628Y-256988942D03*
X200420628Y-254448942D03*
X200420628Y-251908942D03*
X200420626Y-249368942D03*
X200420628Y-246828942D03*
X200420628Y-244288942D03*
X200420628Y-241748942D03*
X200420628Y-239208942D03*
D21*
X207947658Y-315870243D03*
X198421378Y-310370243D03*
D22*
X208995751Y-309604892D03*
D23*
X200729391Y-307372648D03*
D24*
X203184518Y-313120243D03*
D23*
X206159518Y-307967392D03*
D22*
X197893158Y-305735148D03*
D23*
X209389645Y-312372648D03*
D25*
X205605171Y-319367550D03*
X196563865Y-314147550D03*
D21*
X190047110Y-306868748D03*
X179421926Y-304021738D03*
D26*
X189437898Y-300545617D03*
D23*
X180875460Y-300528927D03*
D24*
X184734518Y-305445243D03*
D23*
X186274491Y-299697984D03*
D26*
X177712053Y-299681294D03*
D23*
X190534719Y-303117116D03*
D25*
X188689611Y-310853167D03*
X178605344Y-308151096D03*
D21*
X159310118Y-302670241D03*
X170310118Y-302670241D03*
D27*
X161535118Y-308620241D03*
D23*
X169810118Y-306420241D03*
D24*
X164810118Y-302670241D03*
D23*
X164810118Y-308620241D03*
D27*
X173085118Y-306420241D03*
D23*
X159810118Y-306420241D03*
D25*
X159590118Y-298470241D03*
X170030118Y-298470241D03*
D21*
X103275962Y-293490178D03*
X92443076Y-295400308D03*
D28*
X100051558Y-288016939D03*
D23*
X92284300Y-291620455D03*
D24*
X97859519Y-294445243D03*
D23*
X96826312Y-288585637D03*
D28*
X89059054Y-292189153D03*
D23*
X102132377Y-289883973D03*
D25*
X103729538Y-297674992D03*
X93448145Y-299487879D03*
D21*
X193336160Y-284680884D03*
X182336160Y-284680884D03*
D27*
X191111160Y-278730884D03*
D23*
X182836160Y-280930884D03*
D24*
X187836160Y-284680884D03*
D23*
X187836160Y-278730884D03*
D27*
X179561160Y-280930884D03*
D23*
X192836160Y-280930884D03*
D25*
X193056160Y-288880884D03*
X182616160Y-288880884D03*
D21*
X175336195Y-281960782D03*
X164336195Y-281960782D03*
D27*
X173111195Y-276010782D03*
D23*
X164836195Y-278210782D03*
D24*
X169836195Y-281960782D03*
D23*
X169836195Y-276010782D03*
D27*
X161561195Y-278210782D03*
D23*
X174836195Y-278210782D03*
D25*
X175056195Y-286160782D03*
X164616195Y-286160782D03*
D21*
X157336182Y-273524301D03*
X146336182Y-273524301D03*
D27*
X155111182Y-267574301D03*
D23*
X146836182Y-269774301D03*
D24*
X151836182Y-273524301D03*
D23*
X151836182Y-267574301D03*
D27*
X143561182Y-269774301D03*
D23*
X156836182Y-269774301D03*
D25*
X157056182Y-277724301D03*
X146616182Y-277724301D03*
X128695212Y-288274139D03*
X139109781Y-287545881D03*
D23*
X138335752Y-279630593D03*
D29*
X125093090Y-280556611D03*
D23*
X133194468Y-277784735D03*
D24*
X133609519Y-283720241D03*
D23*
X128360112Y-280328158D03*
D29*
X136461490Y-277556282D03*
D21*
X128122917Y-284103902D03*
X139096121Y-283336580D03*
X122378020Y-297882129D03*
X111545134Y-299792259D03*
D28*
X119153616Y-292408890D03*
D23*
X111386358Y-296012406D03*
D24*
X116961577Y-298837194D03*
D23*
X115928370Y-292977588D03*
D28*
X108161112Y-296581104D03*
D23*
X121234435Y-294275924D03*
D25*
X122831596Y-302066943D03*
X112550203Y-303879830D03*
D21*
X193336159Y-267680664D03*
X182336159Y-267680664D03*
D27*
X191111159Y-261730664D03*
D23*
X182836159Y-263930664D03*
D24*
X187836159Y-267680664D03*
D23*
X187836159Y-261730664D03*
D27*
X179561159Y-263930664D03*
D23*
X192836159Y-263930664D03*
D25*
X193056159Y-271880664D03*
X182616159Y-271880664D03*
D21*
X175336195Y-264960562D03*
X164336195Y-264960562D03*
D27*
X173111195Y-259010562D03*
D23*
X164836195Y-261210562D03*
D24*
X169836195Y-264960562D03*
D23*
X169836195Y-259010562D03*
D27*
X161561195Y-261210562D03*
D23*
X174836195Y-261210562D03*
D25*
X175056195Y-269160562D03*
X164616195Y-269160562D03*
D21*
X157336183Y-256524083D03*
X146336183Y-256524083D03*
D27*
X155111183Y-250574083D03*
D23*
X146836183Y-252774083D03*
D24*
X151836183Y-256524083D03*
D23*
X151836183Y-250574083D03*
D27*
X143561183Y-252774083D03*
D23*
X156836183Y-252774083D03*
D25*
X157056183Y-260724083D03*
X146616183Y-260724083D03*
X127509337Y-271315332D03*
X137923906Y-270587074D03*
D23*
X137149877Y-262671786D03*
D29*
X123907215Y-263597804D03*
D23*
X132008593Y-260825928D03*
D24*
X132423644Y-266761434D03*
D23*
X127174237Y-263369351D03*
D29*
X135275615Y-260597475D03*
D21*
X126937042Y-267145095D03*
X137910246Y-266377773D03*
X119425962Y-281140176D03*
X108593076Y-283050306D03*
D28*
X116201558Y-275666937D03*
D23*
X108434300Y-279270453D03*
D24*
X114009519Y-282095241D03*
D23*
X112976312Y-276235635D03*
D28*
X105209054Y-279839151D03*
D23*
X118282377Y-277533971D03*
D25*
X119879538Y-285324990D03*
X109598145Y-287137877D03*
D21*
X193336159Y-250680444D03*
X182336159Y-250680444D03*
D27*
X191111159Y-244730444D03*
D23*
X182836159Y-246930444D03*
D24*
X187836159Y-250680444D03*
D23*
X187836159Y-244730444D03*
D27*
X179561159Y-246930444D03*
D23*
X192836159Y-246930444D03*
D25*
X193056159Y-254880444D03*
X182616159Y-254880444D03*
D21*
X175336195Y-247960342D03*
X164336195Y-247960342D03*
D27*
X173111195Y-242010342D03*
D23*
X164836195Y-244210342D03*
D24*
X169836195Y-247960342D03*
D23*
X169836195Y-242010342D03*
D27*
X161561195Y-244210342D03*
D23*
X174836195Y-244210342D03*
D25*
X175056195Y-252160342D03*
X164616195Y-252160342D03*
D21*
X157336184Y-239523862D03*
X146336184Y-239523862D03*
D27*
X155111184Y-233573862D03*
D23*
X146836184Y-235773862D03*
D24*
X151836184Y-239523862D03*
D23*
X151836184Y-233573862D03*
D27*
X143561184Y-235773862D03*
D23*
X156836184Y-235773862D03*
D25*
X157056184Y-243723862D03*
X146616184Y-243723862D03*
X126323461Y-254356524D03*
X136738030Y-253628266D03*
D23*
X135964001Y-245712978D03*
D29*
X122721339Y-246638996D03*
D23*
X130822717Y-243867120D03*
D24*
X131237768Y-249802626D03*
D23*
X125988361Y-246410543D03*
D29*
X134089739Y-243638667D03*
D21*
X125751166Y-250186287D03*
X136724370Y-249418965D03*
X116473906Y-264398231D03*
X105641020Y-266308361D03*
D28*
X113249502Y-258924992D03*
D23*
X105482244Y-262528508D03*
D24*
X111057463Y-265353296D03*
D23*
X110024256Y-259493690D03*
D28*
X102256998Y-263097206D03*
D23*
X115330321Y-260792026D03*
D25*
X116927482Y-268583045D03*
X106646089Y-270395932D03*
D30*
X213509000Y-303455000D03*
D16*
X158706954Y-284355895D03*
D30*
X101006955Y-306370243D03*
X102290183Y-238884301D03*
D16*
X153706954Y-284355893D03*
D30*
X193054628Y-239081942D03*
%LPD*%
M02*
