G04 #@! TF.GenerationSoftware,KiCad,Pcbnew,8.0.4*
G04 #@! TF.CreationDate,2024-08-09T12:35:52+02:00*
G04 #@! TF.ProjectId,totem_0_3,746f7465-6d5f-4305-9f33-2e6b69636164,0.3*
G04 #@! TF.SameCoordinates,Original*
G04 #@! TF.FileFunction,Profile,NP*
%FSLAX46Y46*%
G04 Gerber Fmt 4.6, Leading zero omitted, Abs format (unit mm)*
G04 Created by KiCad (PCBNEW 8.0.4) date 2024-08-09 12:35:52*
%MOMM*%
%LPD*%
G01*
G04 APERTURE LIST*
%ADD10C,0.010000*%
G04 #@! TA.AperFunction,Profile*
%ADD11C,0.100000*%
G04 #@! TD*
G04 #@! TA.AperFunction,Profile*
%ADD12C,0.010000*%
G04 #@! TD*
G04 APERTURE END LIST*
D10*
X90579730Y-304596305D02*
X97338954Y-303403914D01*
X142103837Y-231151504D02*
X142103836Y-235010893D01*
X98337316Y-309947939D02*
X155568457Y-309947938D01*
X161603500Y-235010893D02*
X161603501Y-231151504D01*
X161304628Y-230855173D02*
X161206630Y-230855173D01*
X161010343Y-230855173D01*
X160722417Y-230855173D01*
X160349501Y-230855173D01*
X159898246Y-230855173D01*
X159375301Y-230855173D01*
X158787316Y-230855173D01*
X158140940Y-230855173D01*
X157442824Y-230855173D01*
X156699616Y-230855173D01*
X155917968Y-230855173D01*
X155104528Y-230855173D01*
X154265947Y-230855173D01*
X153408874Y-230855173D01*
X152539958Y-230855173D01*
X151665851Y-230855173D01*
X150793200Y-230855173D01*
X149928657Y-230855173D01*
X149078871Y-230855173D01*
X148250491Y-230855173D01*
X147450168Y-230855173D01*
X146684551Y-230855173D01*
X145960290Y-230855173D01*
X145284035Y-230855173D01*
X144662435Y-230855173D01*
X144102140Y-230855173D01*
X143609801Y-230855173D01*
X143192066Y-230855173D01*
X142855585Y-230855173D01*
X142607009Y-230855173D01*
X142452987Y-230855173D01*
X142400169Y-230855174D01*
X142400169Y-230855174D02*
X142385041Y-230855563D01*
X142370097Y-230856718D01*
X142355359Y-230858621D01*
X142340843Y-230861250D01*
X142326571Y-230864588D01*
X142312560Y-230868614D01*
X142298832Y-230873310D01*
X142285404Y-230878655D01*
X142272297Y-230884631D01*
X142259530Y-230891218D01*
X142247122Y-230898396D01*
X142235092Y-230906147D01*
X142223461Y-230914451D01*
X142212246Y-230923288D01*
X142201469Y-230932639D01*
X142191147Y-230942486D01*
X142181301Y-230952807D01*
X142171950Y-230963585D01*
X142163112Y-230974800D01*
X142154809Y-230986431D01*
X142147058Y-230998461D01*
X142139880Y-231010869D01*
X142133293Y-231023636D01*
X142127318Y-231036743D01*
X142121972Y-231050170D01*
X142117277Y-231063898D01*
X142113251Y-231077908D01*
X142109913Y-231092180D01*
X142107284Y-231106695D01*
X142105382Y-231121434D01*
X142104226Y-231136376D01*
X142103837Y-231151504D01*
X217980855Y-249240246D02*
X217980855Y-249196543D01*
X217980855Y-249080891D01*
X217980855Y-248898097D01*
X217980855Y-248652972D01*
X217980855Y-248350325D01*
X217980855Y-247994966D01*
X217980855Y-247591703D01*
X217980855Y-247145347D01*
X217980855Y-246660706D01*
X217980855Y-246142590D01*
X217980855Y-245595810D01*
X217980855Y-245025173D01*
X217980855Y-244435490D01*
X217980855Y-243831569D01*
X217980855Y-243218222D01*
X217980855Y-242600256D01*
X217980855Y-241982482D01*
X217980855Y-241369708D01*
X217980855Y-240766745D01*
X217980855Y-240178401D01*
X217980855Y-239609487D01*
X217980855Y-239064811D01*
X217980855Y-238549183D01*
X217980855Y-238067413D01*
X217980855Y-237624310D01*
X217980855Y-237224683D01*
X217980855Y-236873342D01*
X217980855Y-236575096D01*
X217980855Y-236334756D01*
X217980855Y-236157129D01*
X217980855Y-236047026D01*
X217980856Y-236009257D01*
X217973859Y-306931681D02*
X217977367Y-291640246D01*
X155864790Y-311450774D02*
X155971793Y-311450774D01*
X156094045Y-311450774D01*
X156231064Y-311450774D01*
X156382367Y-311450774D01*
X156547473Y-311450774D01*
X156725900Y-311450774D01*
X156917165Y-311450774D01*
X157120788Y-311450774D01*
X157336286Y-311450774D01*
X157563178Y-311450774D01*
X157800981Y-311450774D01*
X158049213Y-311450774D01*
X158307394Y-311450774D01*
X158575040Y-311450774D01*
X158851670Y-311450774D01*
X159136802Y-311450774D01*
X159429954Y-311450774D01*
X159730645Y-311450774D01*
X160038392Y-311450774D01*
X160352713Y-311450774D01*
X160673127Y-311450774D01*
X160999152Y-311450774D01*
X161330306Y-311450774D01*
X161666107Y-311450774D01*
X162006073Y-311450774D01*
X162349723Y-311450774D01*
X162696574Y-311450774D01*
X163046144Y-311450774D01*
X163397952Y-311450774D01*
X163751515Y-311450774D01*
X164106353Y-311450774D01*
X164461983Y-311450774D01*
D11*
X217979460Y-306934882D02*
G75*
G02*
X217329325Y-307813854I-4041841J2309641D01*
G01*
D10*
X164461983Y-311450774D02*
X164878845Y-311450846D01*
X165296526Y-311451350D01*
X165715825Y-311452719D01*
X166137540Y-311455384D01*
X166562468Y-311459777D01*
X166991410Y-311466332D01*
X167425163Y-311475479D01*
X167864525Y-311487651D01*
X168310295Y-311503280D01*
X168763271Y-311522799D01*
X169224252Y-311546639D01*
X169694035Y-311575233D01*
X170173421Y-311609012D01*
X170663206Y-311648409D01*
X171164190Y-311693856D01*
X171677170Y-311745786D01*
X172202945Y-311804629D01*
X172742314Y-311870820D01*
X173296075Y-311944788D01*
X173865026Y-312026968D01*
X174449965Y-312117790D01*
X175051692Y-312217688D01*
X175671005Y-312327092D01*
X176308701Y-312446436D01*
X176965580Y-312576151D01*
X177642439Y-312716670D01*
X178340077Y-312868425D01*
X179059293Y-313031847D01*
X179800885Y-313207370D01*
X180565651Y-313395425D01*
X181354390Y-313596444D01*
X182167901Y-313810860D01*
D11*
X215417218Y-310413609D02*
G75*
G02*
X217329339Y-307813868I15919401J-9705734D01*
G01*
D10*
X155568457Y-309947938D02*
X155568458Y-311154444D01*
X155568458Y-311154444D02*
X155568837Y-311169571D01*
X155569964Y-311184513D01*
X155571821Y-311199252D01*
X155574390Y-311213767D01*
X155577654Y-311228039D01*
X155581596Y-311242049D01*
X155586198Y-311255777D01*
X155591443Y-311269204D01*
X155597313Y-311282311D01*
X155603791Y-311295078D01*
X155610860Y-311307487D01*
X155618501Y-311319516D01*
X155626698Y-311331148D01*
X155635433Y-311342362D01*
X155644688Y-311353140D01*
X155654447Y-311363462D01*
X155664692Y-311373308D01*
X155675404Y-311382659D01*
X155686568Y-311391497D01*
X155698165Y-311399801D01*
X155710178Y-311407551D01*
X155722590Y-311414730D01*
X155735383Y-311421317D01*
X155748539Y-311427292D01*
X155762042Y-311432638D01*
X155775873Y-311437333D01*
X155790016Y-311441359D01*
X155804453Y-311444697D01*
X155819166Y-311447326D01*
X155834138Y-311449229D01*
X155849352Y-311450384D01*
X155864790Y-311450774D01*
D12*
X217980855Y-249240246D02*
X217977367Y-291640246D01*
D10*
X97338955Y-285634501D02*
X87542315Y-287363110D01*
X98337315Y-235010895D02*
X98285721Y-235012197D01*
X98234829Y-235016060D01*
X98184701Y-235022423D01*
X98135398Y-235031221D01*
X98086981Y-235042390D01*
X98039512Y-235055869D01*
X97993051Y-235071592D01*
X97947661Y-235089498D01*
X97903403Y-235109523D01*
X97860337Y-235131603D01*
X97818527Y-235155675D01*
X97778032Y-235181675D01*
X97738914Y-235209542D01*
X97701234Y-235239210D01*
X97665055Y-235270618D01*
X97630437Y-235303701D01*
X97597441Y-235338396D01*
X97566129Y-235374641D01*
X97536563Y-235412371D01*
X97508804Y-235451523D01*
X97482912Y-235492035D01*
X97458950Y-235533842D01*
X97436979Y-235576882D01*
X97417061Y-235621091D01*
X97399255Y-235666406D01*
X97383625Y-235712763D01*
X97370231Y-235760100D01*
X97359135Y-235808353D01*
X97350397Y-235857458D01*
X97344081Y-235907353D01*
X97340245Y-235957973D01*
X97338954Y-236009257D01*
X216982500Y-235010895D02*
X216119779Y-235010894D01*
X215042208Y-235010894D01*
X213765672Y-235010894D01*
X212306058Y-235010894D01*
X210679251Y-235010894D01*
X208901136Y-235010894D01*
X206987601Y-235010893D01*
X204954530Y-235010893D01*
X202817810Y-235010893D01*
X200593327Y-235010893D01*
X198296965Y-235010893D01*
X195944612Y-235010893D01*
X193552153Y-235010893D01*
X191135474Y-235010893D01*
X188710461Y-235010893D01*
X186292999Y-235010893D01*
X183898975Y-235010893D01*
X181544274Y-235010893D01*
X179244782Y-235010893D01*
X177016386Y-235010893D01*
X174874970Y-235010893D01*
X172836422Y-235010893D01*
X170916626Y-235010893D01*
X169131468Y-235010893D01*
X167496835Y-235010893D01*
X166028612Y-235010893D01*
X164742686Y-235010893D01*
X163654941Y-235010893D01*
X162781264Y-235010893D01*
X162137541Y-235010893D01*
X161739658Y-235010893D01*
X161603500Y-235010893D01*
X90237536Y-304356418D02*
X90240540Y-304371463D01*
X90244247Y-304386164D01*
X90248636Y-304400506D01*
X90253686Y-304414474D01*
X90259377Y-304428055D01*
X90265689Y-304441234D01*
X90272600Y-304453997D01*
X90280089Y-304466330D01*
X90288137Y-304478218D01*
X90296722Y-304489648D01*
X90305824Y-304500605D01*
X90315422Y-304511075D01*
X90325496Y-304521044D01*
X90336024Y-304530497D01*
X90346986Y-304539421D01*
X90358362Y-304547800D01*
X90370130Y-304555622D01*
X90382271Y-304562871D01*
X90394763Y-304569534D01*
X90407585Y-304575596D01*
X90420718Y-304581042D01*
X90434140Y-304585860D01*
X90447831Y-304590034D01*
X90461770Y-304593551D01*
X90475936Y-304596396D01*
X90490309Y-304598555D01*
X90504868Y-304600013D01*
X90519592Y-304600757D01*
X90534461Y-304600773D01*
X90549454Y-304600045D01*
X90564550Y-304598560D01*
X90579730Y-304596305D01*
X206961133Y-325057418D02*
X215417218Y-310413609D01*
X87542315Y-287363110D02*
X87527269Y-287366113D01*
X87512568Y-287369820D01*
X87498226Y-287374208D01*
X87484258Y-287379259D01*
X87470677Y-287384950D01*
X87457498Y-287391261D01*
X87444735Y-287398172D01*
X87432402Y-287405661D01*
X87420514Y-287413709D01*
X87409084Y-287422294D01*
X87398127Y-287431396D01*
X87387657Y-287440994D01*
X87377689Y-287451068D01*
X87368235Y-287461596D01*
X87359312Y-287472559D01*
X87350933Y-287483935D01*
X87343111Y-287495703D01*
X87335862Y-287507844D01*
X87329199Y-287520336D01*
X87323137Y-287533159D01*
X87317691Y-287546292D01*
X87312873Y-287559714D01*
X87308698Y-287573405D01*
X87305182Y-287587344D01*
X87302337Y-287601510D01*
X87300178Y-287615883D01*
X87298719Y-287630442D01*
X87297974Y-287645167D01*
X87297959Y-287660036D01*
X87298686Y-287675029D01*
X87300170Y-287690125D01*
X87302426Y-287705305D01*
X87302426Y-287705305D02*
X90237536Y-304356418D01*
X142103836Y-235010893D02*
X142022276Y-235010893D01*
X141694714Y-235010893D01*
X141137454Y-235010893D01*
X140366797Y-235010893D01*
X139399047Y-235010893D01*
X138250504Y-235010893D01*
X136937473Y-235010894D01*
X135476254Y-235010894D01*
X133883151Y-235010894D01*
X132174467Y-235010894D01*
X130366502Y-235010894D01*
X128475561Y-235010894D01*
X126517946Y-235010894D01*
X124509958Y-235010894D01*
X122467900Y-235010894D01*
X120408075Y-235010894D01*
X118346785Y-235010894D01*
X116300333Y-235010894D01*
X114285021Y-235010894D01*
X112317151Y-235010894D01*
X110413026Y-235010894D01*
X108588949Y-235010894D01*
X106861221Y-235010894D01*
X105246146Y-235010894D01*
X103760025Y-235010894D01*
X102419161Y-235010894D01*
X101239857Y-235010894D01*
X100238415Y-235010894D01*
X99431137Y-235010894D01*
X98834326Y-235010894D01*
X98464285Y-235010894D01*
X98337315Y-235010895D01*
X217980856Y-236009257D02*
X217979553Y-235957662D01*
X217975690Y-235906770D01*
X217969327Y-235856642D01*
X217960530Y-235807339D01*
X217949360Y-235758921D01*
X217935882Y-235711452D01*
X217920158Y-235664991D01*
X217902253Y-235619601D01*
X217882229Y-235575343D01*
X217860149Y-235532277D01*
X217836077Y-235490466D01*
X217810076Y-235449971D01*
X217782210Y-235410853D01*
X217752542Y-235373174D01*
X217721135Y-235336995D01*
X217688052Y-235302377D01*
X217653357Y-235269381D01*
X217617113Y-235238070D01*
X217579383Y-235208503D01*
X217540231Y-235180744D01*
X217499719Y-235154853D01*
X217457912Y-235130891D01*
X217414873Y-235108920D01*
X217370664Y-235089001D01*
X217325349Y-235071196D01*
X217278992Y-235055566D01*
X217231656Y-235042172D01*
X217183403Y-235031076D01*
X217134298Y-235022339D01*
X217084403Y-235016022D01*
X217033783Y-235012187D01*
X216982500Y-235010895D01*
X198896629Y-320742942D02*
X199185547Y-320909841D01*
X199477107Y-321078264D01*
X199770725Y-321247873D01*
X200065818Y-321418331D01*
X200361802Y-321589300D01*
X200658094Y-321760444D01*
X200954111Y-321931425D01*
X201249270Y-322101906D01*
X201542986Y-322271550D01*
X201834678Y-322440020D01*
X202123762Y-322606978D01*
X202409653Y-322772087D01*
X202691770Y-322935011D01*
X202969529Y-323095411D01*
X203242346Y-323252952D01*
X203509638Y-323407294D01*
X203770822Y-323558103D01*
X204025315Y-323705039D01*
X204272532Y-323847766D01*
X204511892Y-323985947D01*
X204742811Y-324119245D01*
X204964704Y-324247322D01*
X205176990Y-324369841D01*
X205379085Y-324486465D01*
X205570405Y-324596858D01*
X205750367Y-324700680D01*
X205918388Y-324797597D01*
X206073884Y-324887269D01*
X206216273Y-324969360D01*
X206344971Y-325043534D01*
X206459395Y-325109452D01*
X206558961Y-325166778D01*
X97338954Y-236009257D02*
X97338955Y-285634501D01*
X97338954Y-308949581D02*
X97340256Y-309001175D01*
X97344119Y-309052067D01*
X97350482Y-309102195D01*
X97359280Y-309151499D01*
X97370449Y-309199916D01*
X97383927Y-309247386D01*
X97399651Y-309293846D01*
X97417557Y-309339236D01*
X97437581Y-309383494D01*
X97459661Y-309426560D01*
X97483733Y-309468370D01*
X97509734Y-309508865D01*
X97537600Y-309547983D01*
X97567268Y-309585662D01*
X97598676Y-309621841D01*
X97631759Y-309656459D01*
X97666454Y-309689454D01*
X97702699Y-309720766D01*
X97740429Y-309750332D01*
X97779581Y-309778091D01*
X97820093Y-309803982D01*
X97861900Y-309827943D01*
X97904940Y-309849914D01*
X97949149Y-309869832D01*
X97994464Y-309887637D01*
X98040821Y-309903268D01*
X98088158Y-309916661D01*
X98136411Y-309927757D01*
X98185516Y-309936495D01*
X98235411Y-309942811D01*
X98286032Y-309946647D01*
X98337316Y-309947939D01*
X182167901Y-313810860D02*
X182979989Y-314031903D01*
X183764524Y-314252525D01*
X184522393Y-314472741D01*
X185254486Y-314692563D01*
X185961692Y-314912005D01*
X186644900Y-315131082D01*
X187304997Y-315349805D01*
X187942874Y-315568189D01*
X188559419Y-315786248D01*
X189155521Y-316003995D01*
X189732068Y-316221444D01*
X190289950Y-316438607D01*
X190830055Y-316655499D01*
X191353272Y-316872134D01*
X191860490Y-317088524D01*
X192352598Y-317304684D01*
X192830485Y-317520627D01*
X193295039Y-317736366D01*
X193747149Y-317951915D01*
X194187705Y-318167288D01*
X194617594Y-318382498D01*
X195037707Y-318597559D01*
X195448931Y-318812484D01*
X195852155Y-319027287D01*
X196248269Y-319241981D01*
X196638161Y-319456580D01*
X197022720Y-319671098D01*
X197402835Y-319885549D01*
X197779394Y-320099944D01*
X198153287Y-320314299D01*
X198525402Y-320528627D01*
X198896629Y-320742942D01*
X206558961Y-325166778D02*
X206572299Y-325174003D01*
X206585840Y-325180471D01*
X206599557Y-325186189D01*
X206613427Y-325191162D01*
X206627423Y-325195400D01*
X206641521Y-325198908D01*
X206655695Y-325201694D01*
X206669920Y-325203765D01*
X206684170Y-325205128D01*
X206698422Y-325205790D01*
X206712649Y-325205758D01*
X206726826Y-325205039D01*
X206740929Y-325203641D01*
X206754931Y-325201571D01*
X206768808Y-325198835D01*
X206782534Y-325195441D01*
X206796085Y-325191396D01*
X206809435Y-325186707D01*
X206822559Y-325181381D01*
X206835431Y-325175425D01*
X206848027Y-325168847D01*
X206860322Y-325161652D01*
X206872289Y-325153850D01*
X206883905Y-325145446D01*
X206895143Y-325136448D01*
X206905979Y-325126862D01*
X206916387Y-325116697D01*
X206926343Y-325105958D01*
X206935820Y-325094654D01*
X206944794Y-325082791D01*
X206953240Y-325070377D01*
X206961133Y-325057418D01*
X97338954Y-303403914D02*
X97338954Y-308949581D01*
X161603501Y-231151504D02*
X161603111Y-231136376D01*
X161601955Y-231121433D01*
X161600053Y-231106694D01*
X161597423Y-231092179D01*
X161594085Y-231077906D01*
X161590059Y-231063896D01*
X161585363Y-231050168D01*
X161580018Y-231036740D01*
X161574042Y-231023633D01*
X161567455Y-231010866D01*
X161560276Y-230998458D01*
X161552526Y-230986428D01*
X161544222Y-230974796D01*
X161535384Y-230963582D01*
X161526033Y-230952804D01*
X161516186Y-230942483D01*
X161505865Y-230932636D01*
X161495087Y-230923285D01*
X161483872Y-230914448D01*
X161472241Y-230906144D01*
X161460211Y-230898394D01*
X161447803Y-230891215D01*
X161435036Y-230884628D01*
X161421929Y-230878653D01*
X161408501Y-230873308D01*
X161394773Y-230868612D01*
X161380763Y-230864586D01*
X161366491Y-230861249D01*
X161351976Y-230858619D01*
X161337237Y-230856717D01*
X161322295Y-230855562D01*
X161307168Y-230855173D01*
M02*
